%TF.GenerationSoftware,KiCad,Pcbnew,(5.1.10)-1*%
%TF.CreationDate,2022-01-07T18:41:25+01:00*%
%TF.ProjectId,M5StampC3,4d355374-616d-4704-9333-2e6b69636164,rev?*%
%TF.SameCoordinates,Original*%
%TF.FileFunction,Legend,Bot*%
%TF.FilePolarity,Positive*%
%FSLAX46Y46*%
G04 Gerber Fmt 4.6, Leading zero omitted, Abs format (unit mm)*
G04 Created by KiCad (PCBNEW (5.1.10)-1) date 2022-01-07 18:41:25*
%MOMM*%
%LPD*%
G01*
G04 APERTURE LIST*
%ADD10C,0.150000*%
%ADD11C,0.120000*%
G04 APERTURE END LIST*
D10*
X120586476Y-77430380D02*
X121062666Y-77430380D01*
X121110285Y-77906571D01*
X121062666Y-77858952D01*
X120967428Y-77811333D01*
X120729333Y-77811333D01*
X120634095Y-77858952D01*
X120586476Y-77906571D01*
X120538857Y-78001809D01*
X120538857Y-78239904D01*
X120586476Y-78335142D01*
X120634095Y-78382761D01*
X120729333Y-78430380D01*
X120967428Y-78430380D01*
X121062666Y-78382761D01*
X121110285Y-78335142D01*
X120253142Y-77430380D02*
X119919809Y-78430380D01*
X119586476Y-77430380D01*
X124142380Y-78430380D02*
X124142380Y-77430380D01*
X123142380Y-78430380D02*
X123713809Y-78430380D01*
X123428095Y-78430380D02*
X123428095Y-77430380D01*
X123523333Y-77573238D01*
X123618571Y-77668476D01*
X123713809Y-77716095D01*
X122570952Y-77858952D02*
X122666190Y-77811333D01*
X122713809Y-77763714D01*
X122761428Y-77668476D01*
X122761428Y-77620857D01*
X122713809Y-77525619D01*
X122666190Y-77478000D01*
X122570952Y-77430380D01*
X122380476Y-77430380D01*
X122285238Y-77478000D01*
X122237619Y-77525619D01*
X122190000Y-77620857D01*
X122190000Y-77668476D01*
X122237619Y-77763714D01*
X122285238Y-77811333D01*
X122380476Y-77858952D01*
X122570952Y-77858952D01*
X122666190Y-77906571D01*
X122713809Y-77954190D01*
X122761428Y-78049428D01*
X122761428Y-78239904D01*
X122713809Y-78335142D01*
X122666190Y-78382761D01*
X122570952Y-78430380D01*
X122380476Y-78430380D01*
X122285238Y-78382761D01*
X122237619Y-78335142D01*
X122190000Y-78239904D01*
X122190000Y-78049428D01*
X122237619Y-77954190D01*
X122285238Y-77906571D01*
X122380476Y-77858952D01*
X126682380Y-78430380D02*
X126682380Y-77430380D01*
X125682380Y-78430380D02*
X126253809Y-78430380D01*
X125968095Y-78430380D02*
X125968095Y-77430380D01*
X126063333Y-77573238D01*
X126158571Y-77668476D01*
X126253809Y-77716095D01*
X125206190Y-78430380D02*
X125015714Y-78430380D01*
X124920476Y-78382761D01*
X124872857Y-78335142D01*
X124777619Y-78192285D01*
X124730000Y-78001809D01*
X124730000Y-77620857D01*
X124777619Y-77525619D01*
X124825238Y-77478000D01*
X124920476Y-77430380D01*
X125110952Y-77430380D01*
X125206190Y-77478000D01*
X125253809Y-77525619D01*
X125301428Y-77620857D01*
X125301428Y-77858952D01*
X125253809Y-77954190D01*
X125206190Y-78001809D01*
X125110952Y-78049428D01*
X124920476Y-78049428D01*
X124825238Y-78001809D01*
X124777619Y-77954190D01*
X124730000Y-77858952D01*
X128508095Y-77478000D02*
X128603333Y-77430380D01*
X128746190Y-77430380D01*
X128889047Y-77478000D01*
X128984285Y-77573238D01*
X129031904Y-77668476D01*
X129079523Y-77858952D01*
X129079523Y-78001809D01*
X129031904Y-78192285D01*
X128984285Y-78287523D01*
X128889047Y-78382761D01*
X128746190Y-78430380D01*
X128650952Y-78430380D01*
X128508095Y-78382761D01*
X128460476Y-78335142D01*
X128460476Y-78001809D01*
X128650952Y-78001809D01*
X128031904Y-78430380D02*
X128031904Y-77430380D01*
X127793809Y-77430380D01*
X127650952Y-77478000D01*
X127555714Y-77573238D01*
X127508095Y-77668476D01*
X127460476Y-77858952D01*
X127460476Y-78001809D01*
X127508095Y-78192285D01*
X127555714Y-78287523D01*
X127650952Y-78382761D01*
X127793809Y-78430380D01*
X128031904Y-78430380D01*
X132318095Y-81034000D02*
X132413333Y-80986380D01*
X132556190Y-80986380D01*
X132699047Y-81034000D01*
X132794285Y-81129238D01*
X132841904Y-81224476D01*
X132889523Y-81414952D01*
X132889523Y-81557809D01*
X132841904Y-81748285D01*
X132794285Y-81843523D01*
X132699047Y-81938761D01*
X132556190Y-81986380D01*
X132460952Y-81986380D01*
X132318095Y-81938761D01*
X132270476Y-81891142D01*
X132270476Y-81557809D01*
X132460952Y-81557809D01*
X131841904Y-81986380D02*
X131841904Y-80986380D01*
X131603809Y-80986380D01*
X131460952Y-81034000D01*
X131365714Y-81129238D01*
X131318095Y-81224476D01*
X131270476Y-81414952D01*
X131270476Y-81557809D01*
X131318095Y-81748285D01*
X131365714Y-81843523D01*
X131460952Y-81938761D01*
X131603809Y-81986380D01*
X131841904Y-81986380D01*
X130111428Y-81986380D02*
X130111428Y-80986380D01*
X129778095Y-81700666D01*
X129444761Y-80986380D01*
X129444761Y-81986380D01*
X128968571Y-81986380D02*
X128968571Y-80986380D01*
X127190476Y-81891142D02*
X127238095Y-81938761D01*
X127380952Y-81986380D01*
X127476190Y-81986380D01*
X127619047Y-81938761D01*
X127714285Y-81843523D01*
X127761904Y-81748285D01*
X127809523Y-81557809D01*
X127809523Y-81414952D01*
X127761904Y-81224476D01*
X127714285Y-81129238D01*
X127619047Y-81034000D01*
X127476190Y-80986380D01*
X127380952Y-80986380D01*
X127238095Y-81034000D01*
X127190476Y-81081619D01*
X126761904Y-81986380D02*
X126761904Y-80986380D01*
X126190476Y-81986380D02*
X126619047Y-81414952D01*
X126190476Y-80986380D02*
X126761904Y-81557809D01*
X125523523Y-81986380D02*
X125523523Y-80986380D01*
X125190190Y-81700666D01*
X124856857Y-80986380D01*
X124856857Y-81986380D01*
X124428285Y-81938761D02*
X124285428Y-81986380D01*
X124047333Y-81986380D01*
X123952095Y-81938761D01*
X123904476Y-81891142D01*
X123856857Y-81795904D01*
X123856857Y-81700666D01*
X123904476Y-81605428D01*
X123952095Y-81557809D01*
X124047333Y-81510190D01*
X124237809Y-81462571D01*
X124333047Y-81414952D01*
X124380666Y-81367333D01*
X124428285Y-81272095D01*
X124428285Y-81176857D01*
X124380666Y-81081619D01*
X124333047Y-81034000D01*
X124237809Y-80986380D01*
X123999714Y-80986380D01*
X123856857Y-81034000D01*
X122086666Y-81891142D02*
X122134285Y-81938761D01*
X122277142Y-81986380D01*
X122372380Y-81986380D01*
X122515238Y-81938761D01*
X122610476Y-81843523D01*
X122658095Y-81748285D01*
X122705714Y-81557809D01*
X122705714Y-81414952D01*
X122658095Y-81224476D01*
X122610476Y-81129238D01*
X122515238Y-81034000D01*
X122372380Y-80986380D01*
X122277142Y-80986380D01*
X122134285Y-81034000D01*
X122086666Y-81081619D01*
X121705714Y-81938761D02*
X121562857Y-81986380D01*
X121324761Y-81986380D01*
X121229523Y-81938761D01*
X121181904Y-81891142D01*
X121134285Y-81795904D01*
X121134285Y-81700666D01*
X121181904Y-81605428D01*
X121229523Y-81557809D01*
X121324761Y-81510190D01*
X121515238Y-81462571D01*
X121610476Y-81414952D01*
X121658095Y-81367333D01*
X121705714Y-81272095D01*
X121705714Y-81176857D01*
X121658095Y-81081619D01*
X121610476Y-81034000D01*
X121515238Y-80986380D01*
X121277142Y-80986380D01*
X121134285Y-81034000D01*
X120316476Y-80986380D02*
X119697428Y-80986380D01*
X120030761Y-81367333D01*
X119887904Y-81367333D01*
X119792666Y-81414952D01*
X119745047Y-81462571D01*
X119697428Y-81557809D01*
X119697428Y-81795904D01*
X119745047Y-81891142D01*
X119792666Y-81938761D01*
X119887904Y-81986380D01*
X120173619Y-81986380D01*
X120268857Y-81938761D01*
X120316476Y-81891142D01*
X119364095Y-81319714D02*
X119126000Y-81986380D01*
X118887904Y-81319714D01*
X118602190Y-80986380D02*
X117983142Y-80986380D01*
X118316476Y-81367333D01*
X118173619Y-81367333D01*
X118078380Y-81414952D01*
X118030761Y-81462571D01*
X117983142Y-81557809D01*
X117983142Y-81795904D01*
X118030761Y-81891142D01*
X118078380Y-81938761D01*
X118173619Y-81986380D01*
X118459333Y-81986380D01*
X118554571Y-81938761D01*
X118602190Y-81891142D01*
X124221619Y-73573190D02*
X124269238Y-73525571D01*
X124364476Y-73477952D01*
X124459714Y-73477952D01*
X124554952Y-73525571D01*
X124602571Y-73573190D01*
X124650190Y-73668428D01*
X124650190Y-73763666D01*
X124602571Y-73858904D01*
X124554952Y-73906523D01*
X124459714Y-73954142D01*
X124364476Y-73954142D01*
X124269238Y-73906523D01*
X124221619Y-73858904D01*
X124221619Y-73477952D02*
X124221619Y-73858904D01*
X124174000Y-73906523D01*
X124126380Y-73906523D01*
X124031142Y-73858904D01*
X123983523Y-73763666D01*
X123983523Y-73525571D01*
X124078761Y-73382714D01*
X124221619Y-73287476D01*
X124412095Y-73239857D01*
X124602571Y-73287476D01*
X124745428Y-73382714D01*
X124840666Y-73525571D01*
X124888285Y-73716047D01*
X124840666Y-73906523D01*
X124745428Y-74049380D01*
X124602571Y-74144619D01*
X124412095Y-74192238D01*
X124221619Y-74144619D01*
X124078761Y-74049380D01*
X123602571Y-74001761D02*
X123459714Y-74049380D01*
X123221619Y-74049380D01*
X123126380Y-74001761D01*
X123078761Y-73954142D01*
X123031142Y-73858904D01*
X123031142Y-73763666D01*
X123078761Y-73668428D01*
X123126380Y-73620809D01*
X123221619Y-73573190D01*
X123412095Y-73525571D01*
X123507333Y-73477952D01*
X123554952Y-73430333D01*
X123602571Y-73335095D01*
X123602571Y-73239857D01*
X123554952Y-73144619D01*
X123507333Y-73097000D01*
X123412095Y-73049380D01*
X123174000Y-73049380D01*
X123031142Y-73097000D01*
X122602571Y-73382714D02*
X122602571Y-74382714D01*
X122602571Y-73430333D02*
X122507333Y-73382714D01*
X122316857Y-73382714D01*
X122221619Y-73430333D01*
X122174000Y-73477952D01*
X122126380Y-73573190D01*
X122126380Y-73858904D01*
X122174000Y-73954142D01*
X122221619Y-74001761D01*
X122316857Y-74049380D01*
X122507333Y-74049380D01*
X122602571Y-74001761D01*
X121697809Y-74049380D02*
X121697809Y-73382714D01*
X121697809Y-73049380D02*
X121745428Y-73097000D01*
X121697809Y-73144619D01*
X121650190Y-73097000D01*
X121697809Y-73049380D01*
X121697809Y-73144619D01*
X121316857Y-73382714D02*
X120793047Y-73382714D01*
X121316857Y-74049380D01*
X120793047Y-74049380D01*
X120412095Y-74049380D02*
X120412095Y-73382714D01*
X120412095Y-73049380D02*
X120459714Y-73097000D01*
X120412095Y-73144619D01*
X120364476Y-73097000D01*
X120412095Y-73049380D01*
X120412095Y-73144619D01*
X119507333Y-73382714D02*
X119507333Y-74192238D01*
X119554952Y-74287476D01*
X119602571Y-74335095D01*
X119697809Y-74382714D01*
X119840666Y-74382714D01*
X119935904Y-74335095D01*
X119507333Y-74001761D02*
X119602571Y-74049380D01*
X119793047Y-74049380D01*
X119888285Y-74001761D01*
X119935904Y-73954142D01*
X119983523Y-73858904D01*
X119983523Y-73573190D01*
X119935904Y-73477952D01*
X119888285Y-73430333D01*
X119793047Y-73382714D01*
X119602571Y-73382714D01*
X119507333Y-73430333D01*
X124174000Y-74699380D02*
X124078761Y-74699380D01*
X123983523Y-74747000D01*
X123935904Y-74794619D01*
X123888285Y-74889857D01*
X123840666Y-75080333D01*
X123840666Y-75318428D01*
X123888285Y-75508904D01*
X123935904Y-75604142D01*
X123983523Y-75651761D01*
X124078761Y-75699380D01*
X124174000Y-75699380D01*
X124269238Y-75651761D01*
X124316857Y-75604142D01*
X124364476Y-75508904D01*
X124412095Y-75318428D01*
X124412095Y-75080333D01*
X124364476Y-74889857D01*
X124316857Y-74794619D01*
X124269238Y-74747000D01*
X124174000Y-74699380D01*
X123459714Y-74794619D02*
X123412095Y-74747000D01*
X123316857Y-74699380D01*
X123078761Y-74699380D01*
X122983523Y-74747000D01*
X122935904Y-74794619D01*
X122888285Y-74889857D01*
X122888285Y-74985095D01*
X122935904Y-75127952D01*
X123507333Y-75699380D01*
X122888285Y-75699380D01*
X121745428Y-74651761D02*
X122602571Y-75937476D01*
X121459714Y-74794619D02*
X121412095Y-74747000D01*
X121316857Y-74699380D01*
X121078761Y-74699380D01*
X120983523Y-74747000D01*
X120935904Y-74794619D01*
X120888285Y-74889857D01*
X120888285Y-74985095D01*
X120935904Y-75127952D01*
X121507333Y-75699380D01*
X120888285Y-75699380D01*
X120507333Y-74794619D02*
X120459714Y-74747000D01*
X120364476Y-74699380D01*
X120126380Y-74699380D01*
X120031142Y-74747000D01*
X119983523Y-74794619D01*
X119935904Y-74889857D01*
X119935904Y-74985095D01*
X119983523Y-75127952D01*
X120554952Y-75699380D01*
X119935904Y-75699380D01*
D11*
%TO.C,J6*%
X135530000Y-54042000D02*
X134200000Y-54042000D01*
X135530000Y-55372000D02*
X135530000Y-54042000D01*
X135530000Y-56642000D02*
X132870000Y-56642000D01*
X132870000Y-56642000D02*
X132870000Y-79562000D01*
X135530000Y-56642000D02*
X135530000Y-79562000D01*
X135530000Y-79562000D02*
X132870000Y-79562000D01*
%TO.C,J5*%
X117830000Y-48962000D02*
X116500000Y-48962000D01*
X117830000Y-50292000D02*
X117830000Y-48962000D01*
X117830000Y-51562000D02*
X115170000Y-51562000D01*
X115170000Y-51562000D02*
X115170000Y-79562000D01*
X117830000Y-51562000D02*
X117830000Y-79562000D01*
X117830000Y-79562000D02*
X115170000Y-79562000D01*
%TO.C,R5*%
X128550936Y-59971000D02*
X129005064Y-59971000D01*
X128550936Y-61441000D02*
X129005064Y-61441000D01*
%TO.C,D8*%
X123460000Y-62520000D02*
X123460000Y-66420000D01*
X125460000Y-62520000D02*
X125460000Y-66420000D01*
X123460000Y-62520000D02*
X125460000Y-62520000D01*
%TO.C,D7*%
X126000000Y-62520000D02*
X126000000Y-66420000D01*
X128000000Y-62520000D02*
X128000000Y-66420000D01*
X126000000Y-62520000D02*
X128000000Y-62520000D01*
%TO.C,D6*%
X128540000Y-62520000D02*
X128540000Y-66420000D01*
X130540000Y-62520000D02*
X130540000Y-66420000D01*
X128540000Y-62520000D02*
X130540000Y-62520000D01*
%TO.C,J2*%
X135620000Y-54042000D02*
X132960000Y-54042000D01*
X135620000Y-79562000D02*
X132960000Y-79562000D01*
X132960000Y-54042000D02*
X132960000Y-57152000D01*
X135620000Y-54612000D02*
X137140000Y-54612000D01*
X135620000Y-54042000D02*
X135620000Y-54612000D01*
X132960000Y-78992000D02*
X132960000Y-79562000D01*
X132960000Y-58672000D02*
X132960000Y-62232000D01*
X132960000Y-63752000D02*
X132960000Y-67312000D01*
X132960000Y-68832000D02*
X132960000Y-72392000D01*
X132960000Y-73912000D02*
X132960000Y-77472000D01*
X135620000Y-56132000D02*
X135620000Y-59692000D01*
X135620000Y-61212000D02*
X135620000Y-64772000D01*
X135620000Y-66292000D02*
X135620000Y-69852000D01*
X135620000Y-71372000D02*
X135620000Y-74932000D01*
X135620000Y-76452000D02*
X135620000Y-79562000D01*
%TO.C,J1*%
X117840000Y-48958000D02*
X115180000Y-48958000D01*
X117840000Y-79558000D02*
X115180000Y-79558000D01*
X115180000Y-48958000D02*
X115180000Y-52068000D01*
X117840000Y-49528000D02*
X119360000Y-49528000D01*
X117840000Y-48958000D02*
X117840000Y-49528000D01*
X115180000Y-78988000D02*
X115180000Y-79558000D01*
X115180000Y-53588000D02*
X115180000Y-57148000D01*
X115180000Y-58668000D02*
X115180000Y-62228000D01*
X115180000Y-63748000D02*
X115180000Y-67308000D01*
X115180000Y-68828000D02*
X115180000Y-72388000D01*
X115180000Y-73908000D02*
X115180000Y-77468000D01*
X117840000Y-51048000D02*
X117840000Y-54608000D01*
X117840000Y-56128000D02*
X117840000Y-59688000D01*
X117840000Y-61208000D02*
X117840000Y-64768000D01*
X117840000Y-66288000D02*
X117840000Y-69848000D01*
X117840000Y-71368000D02*
X117840000Y-74928000D01*
X117840000Y-76448000D02*
X117840000Y-79558000D01*
%TO.C,L1*%
X123349936Y-47080000D02*
X124554064Y-47080000D01*
X123349936Y-44360000D02*
X124554064Y-44360000D01*
%TO.C,R2*%
X118337000Y-46201064D02*
X118337000Y-45746936D01*
X116867000Y-46201064D02*
X116867000Y-45746936D01*
%TO.C,D1*%
X127980000Y-41418000D02*
X127980000Y-43418000D01*
X127980000Y-43418000D02*
X124080000Y-43418000D01*
X127980000Y-41418000D02*
X124080000Y-41418000D01*
%TO.C,D2*%
X133366000Y-42962000D02*
X135366000Y-42962000D01*
X135366000Y-42962000D02*
X135366000Y-46862000D01*
X133366000Y-42962000D02*
X133366000Y-46862000D01*
%TO.C,D3*%
X122900000Y-41418000D02*
X122900000Y-43418000D01*
X122900000Y-43418000D02*
X119000000Y-43418000D01*
X122900000Y-41418000D02*
X119000000Y-41418000D01*
%TO.C,C12*%
X128785252Y-43969000D02*
X128262748Y-43969000D01*
X128785252Y-45439000D02*
X128262748Y-45439000D01*
%TO.C,C10*%
X116051000Y-46235252D02*
X116051000Y-45712748D01*
X114581000Y-46235252D02*
X114581000Y-45712748D01*
%TO.C,J6*%
D10*
X136223333Y-52494380D02*
X136223333Y-53208666D01*
X136270952Y-53351523D01*
X136366190Y-53446761D01*
X136509047Y-53494380D01*
X136604285Y-53494380D01*
X135318571Y-52494380D02*
X135509047Y-52494380D01*
X135604285Y-52542000D01*
X135651904Y-52589619D01*
X135747142Y-52732476D01*
X135794761Y-52922952D01*
X135794761Y-53303904D01*
X135747142Y-53399142D01*
X135699523Y-53446761D01*
X135604285Y-53494380D01*
X135413809Y-53494380D01*
X135318571Y-53446761D01*
X135270952Y-53399142D01*
X135223333Y-53303904D01*
X135223333Y-53065809D01*
X135270952Y-52970571D01*
X135318571Y-52922952D01*
X135413809Y-52875333D01*
X135604285Y-52875333D01*
X135699523Y-52922952D01*
X135747142Y-52970571D01*
X135794761Y-53065809D01*
%TO.C,J5*%
X113454380Y-50974666D02*
X114168666Y-50974666D01*
X114311523Y-50927047D01*
X114406761Y-50831809D01*
X114454380Y-50688952D01*
X114454380Y-50593714D01*
X113454380Y-51927047D02*
X113454380Y-51450857D01*
X113930571Y-51403238D01*
X113882952Y-51450857D01*
X113835333Y-51546095D01*
X113835333Y-51784190D01*
X113882952Y-51879428D01*
X113930571Y-51927047D01*
X114025809Y-51974666D01*
X114263904Y-51974666D01*
X114359142Y-51927047D01*
X114406761Y-51879428D01*
X114454380Y-51784190D01*
X114454380Y-51546095D01*
X114406761Y-51450857D01*
X114359142Y-51403238D01*
%TO.C,R5*%
X128944666Y-59380380D02*
X129278000Y-58904190D01*
X129516095Y-59380380D02*
X129516095Y-58380380D01*
X129135142Y-58380380D01*
X129039904Y-58428000D01*
X128992285Y-58475619D01*
X128944666Y-58570857D01*
X128944666Y-58713714D01*
X128992285Y-58808952D01*
X129039904Y-58856571D01*
X129135142Y-58904190D01*
X129516095Y-58904190D01*
X128039904Y-58380380D02*
X128516095Y-58380380D01*
X128563714Y-58856571D01*
X128516095Y-58808952D01*
X128420857Y-58761333D01*
X128182761Y-58761333D01*
X128087523Y-58808952D01*
X128039904Y-58856571D01*
X127992285Y-58951809D01*
X127992285Y-59189904D01*
X128039904Y-59285142D01*
X128087523Y-59332761D01*
X128182761Y-59380380D01*
X128420857Y-59380380D01*
X128516095Y-59332761D01*
X128563714Y-59285142D01*
%TO.C,D8*%
X124912380Y-64031904D02*
X123912380Y-64031904D01*
X123912380Y-64270000D01*
X123960000Y-64412857D01*
X124055238Y-64508095D01*
X124150476Y-64555714D01*
X124340952Y-64603333D01*
X124483809Y-64603333D01*
X124674285Y-64555714D01*
X124769523Y-64508095D01*
X124864761Y-64412857D01*
X124912380Y-64270000D01*
X124912380Y-64031904D01*
X124340952Y-65174761D02*
X124293333Y-65079523D01*
X124245714Y-65031904D01*
X124150476Y-64984285D01*
X124102857Y-64984285D01*
X124007619Y-65031904D01*
X123960000Y-65079523D01*
X123912380Y-65174761D01*
X123912380Y-65365238D01*
X123960000Y-65460476D01*
X124007619Y-65508095D01*
X124102857Y-65555714D01*
X124150476Y-65555714D01*
X124245714Y-65508095D01*
X124293333Y-65460476D01*
X124340952Y-65365238D01*
X124340952Y-65174761D01*
X124388571Y-65079523D01*
X124436190Y-65031904D01*
X124531428Y-64984285D01*
X124721904Y-64984285D01*
X124817142Y-65031904D01*
X124864761Y-65079523D01*
X124912380Y-65174761D01*
X124912380Y-65365238D01*
X124864761Y-65460476D01*
X124817142Y-65508095D01*
X124721904Y-65555714D01*
X124531428Y-65555714D01*
X124436190Y-65508095D01*
X124388571Y-65460476D01*
X124340952Y-65365238D01*
%TO.C,D7*%
X127452380Y-64031904D02*
X126452380Y-64031904D01*
X126452380Y-64270000D01*
X126500000Y-64412857D01*
X126595238Y-64508095D01*
X126690476Y-64555714D01*
X126880952Y-64603333D01*
X127023809Y-64603333D01*
X127214285Y-64555714D01*
X127309523Y-64508095D01*
X127404761Y-64412857D01*
X127452380Y-64270000D01*
X127452380Y-64031904D01*
X126452380Y-64936666D02*
X126452380Y-65603333D01*
X127452380Y-65174761D01*
%TO.C,D6*%
X129992380Y-64031904D02*
X128992380Y-64031904D01*
X128992380Y-64270000D01*
X129040000Y-64412857D01*
X129135238Y-64508095D01*
X129230476Y-64555714D01*
X129420952Y-64603333D01*
X129563809Y-64603333D01*
X129754285Y-64555714D01*
X129849523Y-64508095D01*
X129944761Y-64412857D01*
X129992380Y-64270000D01*
X129992380Y-64031904D01*
X128992380Y-65460476D02*
X128992380Y-65270000D01*
X129040000Y-65174761D01*
X129087619Y-65127142D01*
X129230476Y-65031904D01*
X129420952Y-64984285D01*
X129801904Y-64984285D01*
X129897142Y-65031904D01*
X129944761Y-65079523D01*
X129992380Y-65174761D01*
X129992380Y-65365238D01*
X129944761Y-65460476D01*
X129897142Y-65508095D01*
X129801904Y-65555714D01*
X129563809Y-65555714D01*
X129468571Y-65508095D01*
X129420952Y-65460476D01*
X129373333Y-65365238D01*
X129373333Y-65174761D01*
X129420952Y-65079523D01*
X129468571Y-65031904D01*
X129563809Y-64984285D01*
%TO.C,J2*%
X134623333Y-52494380D02*
X134623333Y-53208666D01*
X134670952Y-53351523D01*
X134766190Y-53446761D01*
X134909047Y-53494380D01*
X135004285Y-53494380D01*
X134194761Y-52589619D02*
X134147142Y-52542000D01*
X134051904Y-52494380D01*
X133813809Y-52494380D01*
X133718571Y-52542000D01*
X133670952Y-52589619D01*
X133623333Y-52684857D01*
X133623333Y-52780095D01*
X133670952Y-52922952D01*
X134242380Y-53494380D01*
X133623333Y-53494380D01*
%TO.C,J1*%
X113450380Y-49272666D02*
X114164666Y-49272666D01*
X114307523Y-49225047D01*
X114402761Y-49129809D01*
X114450380Y-48986952D01*
X114450380Y-48891714D01*
X114450380Y-50272666D02*
X114450380Y-49701238D01*
X114450380Y-49986952D02*
X113450380Y-49986952D01*
X113593238Y-49891714D01*
X113688476Y-49796476D01*
X113736095Y-49701238D01*
%TO.C,L1*%
X124404380Y-45553333D02*
X124404380Y-45077142D01*
X123404380Y-45077142D01*
X124404380Y-46410476D02*
X124404380Y-45839047D01*
X124404380Y-46124761D02*
X123404380Y-46124761D01*
X123547238Y-46029523D01*
X123642476Y-45934285D01*
X123690095Y-45839047D01*
%TO.C,R2*%
X119704380Y-45593333D02*
X119228190Y-45260000D01*
X119704380Y-45021904D02*
X118704380Y-45021904D01*
X118704380Y-45402857D01*
X118752000Y-45498095D01*
X118799619Y-45545714D01*
X118894857Y-45593333D01*
X119037714Y-45593333D01*
X119132952Y-45545714D01*
X119180571Y-45498095D01*
X119228190Y-45402857D01*
X119228190Y-45021904D01*
X118799619Y-45974285D02*
X118752000Y-46021904D01*
X118704380Y-46117142D01*
X118704380Y-46355238D01*
X118752000Y-46450476D01*
X118799619Y-46498095D01*
X118894857Y-46545714D01*
X118990095Y-46545714D01*
X119132952Y-46498095D01*
X119704380Y-45926666D01*
X119704380Y-46545714D01*
%TO.C,D1*%
X126508095Y-42870380D02*
X126508095Y-41870380D01*
X126270000Y-41870380D01*
X126127142Y-41918000D01*
X126031904Y-42013238D01*
X125984285Y-42108476D01*
X125936666Y-42298952D01*
X125936666Y-42441809D01*
X125984285Y-42632285D01*
X126031904Y-42727523D01*
X126127142Y-42822761D01*
X126270000Y-42870380D01*
X126508095Y-42870380D01*
X124984285Y-42870380D02*
X125555714Y-42870380D01*
X125270000Y-42870380D02*
X125270000Y-41870380D01*
X125365238Y-42013238D01*
X125460476Y-42108476D01*
X125555714Y-42156095D01*
%TO.C,D2*%
X134818380Y-44513904D02*
X133818380Y-44513904D01*
X133818380Y-44752000D01*
X133866000Y-44894857D01*
X133961238Y-44990095D01*
X134056476Y-45037714D01*
X134246952Y-45085333D01*
X134389809Y-45085333D01*
X134580285Y-45037714D01*
X134675523Y-44990095D01*
X134770761Y-44894857D01*
X134818380Y-44752000D01*
X134818380Y-44513904D01*
X133913619Y-45466285D02*
X133866000Y-45513904D01*
X133818380Y-45609142D01*
X133818380Y-45847238D01*
X133866000Y-45942476D01*
X133913619Y-45990095D01*
X134008857Y-46037714D01*
X134104095Y-46037714D01*
X134246952Y-45990095D01*
X134818380Y-45418666D01*
X134818380Y-46037714D01*
%TO.C,D3*%
X121388095Y-42870380D02*
X121388095Y-41870380D01*
X121150000Y-41870380D01*
X121007142Y-41918000D01*
X120911904Y-42013238D01*
X120864285Y-42108476D01*
X120816666Y-42298952D01*
X120816666Y-42441809D01*
X120864285Y-42632285D01*
X120911904Y-42727523D01*
X121007142Y-42822761D01*
X121150000Y-42870380D01*
X121388095Y-42870380D01*
X120483333Y-41870380D02*
X119864285Y-41870380D01*
X120197619Y-42251333D01*
X120054761Y-42251333D01*
X119959523Y-42298952D01*
X119911904Y-42346571D01*
X119864285Y-42441809D01*
X119864285Y-42679904D01*
X119911904Y-42775142D01*
X119959523Y-42822761D01*
X120054761Y-42870380D01*
X120340476Y-42870380D01*
X120435714Y-42822761D01*
X120483333Y-42775142D01*
%TO.C,C12*%
X129420857Y-46585142D02*
X129468476Y-46632761D01*
X129611333Y-46680380D01*
X129706571Y-46680380D01*
X129849428Y-46632761D01*
X129944666Y-46537523D01*
X129992285Y-46442285D01*
X130039904Y-46251809D01*
X130039904Y-46108952D01*
X129992285Y-45918476D01*
X129944666Y-45823238D01*
X129849428Y-45728000D01*
X129706571Y-45680380D01*
X129611333Y-45680380D01*
X129468476Y-45728000D01*
X129420857Y-45775619D01*
X128468476Y-46680380D02*
X129039904Y-46680380D01*
X128754190Y-46680380D02*
X128754190Y-45680380D01*
X128849428Y-45823238D01*
X128944666Y-45918476D01*
X129039904Y-45966095D01*
X128087523Y-45775619D02*
X128039904Y-45728000D01*
X127944666Y-45680380D01*
X127706571Y-45680380D01*
X127611333Y-45728000D01*
X127563714Y-45775619D01*
X127516095Y-45870857D01*
X127516095Y-45966095D01*
X127563714Y-46108952D01*
X128135142Y-46680380D01*
X127516095Y-46680380D01*
%TO.C,C10*%
X114403142Y-45331142D02*
X114450761Y-45283523D01*
X114498380Y-45140666D01*
X114498380Y-45045428D01*
X114450761Y-44902571D01*
X114355523Y-44807333D01*
X114260285Y-44759714D01*
X114069809Y-44712095D01*
X113926952Y-44712095D01*
X113736476Y-44759714D01*
X113641238Y-44807333D01*
X113546000Y-44902571D01*
X113498380Y-45045428D01*
X113498380Y-45140666D01*
X113546000Y-45283523D01*
X113593619Y-45331142D01*
X114498380Y-46283523D02*
X114498380Y-45712095D01*
X114498380Y-45997809D02*
X113498380Y-45997809D01*
X113641238Y-45902571D01*
X113736476Y-45807333D01*
X113784095Y-45712095D01*
X113498380Y-46902571D02*
X113498380Y-46997809D01*
X113546000Y-47093047D01*
X113593619Y-47140666D01*
X113688857Y-47188285D01*
X113879333Y-47235904D01*
X114117428Y-47235904D01*
X114307904Y-47188285D01*
X114403142Y-47140666D01*
X114450761Y-47093047D01*
X114498380Y-46997809D01*
X114498380Y-46902571D01*
X114450761Y-46807333D01*
X114403142Y-46759714D01*
X114307904Y-46712095D01*
X114117428Y-46664476D01*
X113879333Y-46664476D01*
X113688857Y-46712095D01*
X113593619Y-46759714D01*
X113546000Y-46807333D01*
X113498380Y-46902571D01*
%TD*%
M02*
