%TF.GenerationSoftware,KiCad,Pcbnew,(5.1.10)-1*%
%TF.CreationDate,2022-01-07T18:41:24+01:00*%
%TF.ProjectId,M5StampC3,4d355374-616d-4704-9333-2e6b69636164,rev?*%
%TF.SameCoordinates,Original*%
%TF.FileFunction,Copper,L1,Top*%
%TF.FilePolarity,Positive*%
%FSLAX46Y46*%
G04 Gerber Fmt 4.6, Leading zero omitted, Abs format (unit mm)*
G04 Created by KiCad (PCBNEW (5.1.10)-1) date 2022-01-07 18:41:24*
%MOMM*%
%LPD*%
G01*
G04 APERTURE LIST*
%TA.AperFunction,SMDPad,CuDef*%
%ADD10R,0.450000X0.600000*%
%TD*%
%TA.AperFunction,ComponentPad*%
%ADD11O,1.700000X1.700000*%
%TD*%
%TA.AperFunction,ComponentPad*%
%ADD12R,1.700000X1.700000*%
%TD*%
%TA.AperFunction,SMDPad,CuDef*%
%ADD13R,1.000000X2.000000*%
%TD*%
%TA.AperFunction,SMDPad,CuDef*%
%ADD14R,1.500000X1.000000*%
%TD*%
%TA.AperFunction,SMDPad,CuDef*%
%ADD15R,1.060000X0.650000*%
%TD*%
%TA.AperFunction,SMDPad,CuDef*%
%ADD16R,2.300000X3.100000*%
%TD*%
%TA.AperFunction,SMDPad,CuDef*%
%ADD17R,0.300000X1.100000*%
%TD*%
%TA.AperFunction,SMDPad,CuDef*%
%ADD18R,0.700000X0.450000*%
%TD*%
%TA.AperFunction,ViaPad*%
%ADD19C,2.400000*%
%TD*%
%TA.AperFunction,ViaPad*%
%ADD20C,0.800000*%
%TD*%
%TA.AperFunction,Conductor*%
%ADD21C,0.500000*%
%TD*%
%TA.AperFunction,Conductor*%
%ADD22C,0.400000*%
%TD*%
%TA.AperFunction,Conductor*%
%ADD23C,0.250000*%
%TD*%
%TA.AperFunction,Conductor*%
%ADD24C,0.300000*%
%TD*%
%TA.AperFunction,Conductor*%
%ADD25C,0.254000*%
%TD*%
%TA.AperFunction,Conductor*%
%ADD26C,0.100000*%
%TD*%
G04 APERTURE END LIST*
D10*
%TO.P,D4,2*%
%TO.N,+5V*%
X123190000Y-75150000D03*
%TO.P,D4,1*%
%TO.N,Net-(D4-Pad1)*%
X123190000Y-77250000D03*
%TD*%
D11*
%TO.P,J6,10*%
%TO.N,GND*%
X134200000Y-78232000D03*
%TO.P,J6,9*%
%TO.N,+5V*%
X134200000Y-75692000D03*
%TO.P,J6,8*%
%TO.N,/D+*%
X134200000Y-73152000D03*
%TO.P,J6,7*%
%TO.N,/D-*%
X134200000Y-70612000D03*
%TO.P,J6,6*%
%TO.N,GND*%
X134200000Y-68072000D03*
%TO.P,J6,5*%
%TO.N,/G9*%
X134200000Y-65532000D03*
%TO.P,J6,4*%
%TO.N,/EN*%
X134200000Y-62992000D03*
%TO.P,J6,3*%
%TO.N,/G20*%
X134200000Y-60452000D03*
%TO.P,J6,2*%
%TO.N,/G21*%
X134200000Y-57912000D03*
D12*
%TO.P,J6,1*%
%TO.N,+3.3VP*%
X134200000Y-55372000D03*
%TD*%
D11*
%TO.P,J5,12*%
%TO.N,/G0*%
X116500000Y-78232000D03*
%TO.P,J5,11*%
%TO.N,/G1*%
X116500000Y-75692000D03*
%TO.P,J5,10*%
%TO.N,+5V*%
X116500000Y-73152000D03*
%TO.P,J5,9*%
%TO.N,GND*%
X116500000Y-70612000D03*
%TO.P,J5,8*%
%TO.N,+5V*%
X116500000Y-68072000D03*
%TO.P,J5,7*%
%TO.N,/EPD_MOSI*%
X116500000Y-65532000D03*
%TO.P,J5,6*%
%TO.N,/EPD_CLK*%
X116500000Y-62992000D03*
%TO.P,J5,5*%
%TO.N,/EPD_CS*%
X116500000Y-60452000D03*
%TO.P,J5,4*%
%TO.N,/EPD_DC*%
X116500000Y-57912000D03*
%TO.P,J5,3*%
%TO.N,/EPD_RST*%
X116500000Y-55372000D03*
%TO.P,J5,2*%
%TO.N,/EPD_BUSY*%
X116500000Y-52832000D03*
D12*
%TO.P,J5,1*%
%TO.N,GND*%
X116500000Y-50292000D03*
%TD*%
D13*
%TO.P,U3,16*%
%TO.N,Net-(D6-Pad2)*%
X132600000Y-69214000D03*
%TO.P,U3,15*%
%TO.N,Net-(D7-Pad2)*%
X130600000Y-69214000D03*
%TO.P,U3,14*%
%TO.N,Net-(D8-Pad2)*%
X128600000Y-69214000D03*
%TO.P,U3,13*%
%TO.N,+3.3VA*%
X126600000Y-69214000D03*
%TO.P,U3,12*%
%TO.N,Net-(U3-Pad12)*%
X124600000Y-69214000D03*
%TO.P,U3,11*%
%TO.N,Net-(U3-Pad11)*%
X122600000Y-69214000D03*
%TO.P,U3,10*%
%TO.N,GND*%
X120600000Y-69214000D03*
%TO.P,U3,9*%
%TO.N,Net-(U3-Pad9)*%
X118600000Y-69214000D03*
%TO.P,U3,8*%
%TO.N,GND*%
X118600000Y-53214000D03*
%TO.P,U3,7*%
%TO.N,Net-(U3-Pad7)*%
X120600000Y-53214000D03*
%TO.P,U3,6*%
%TO.N,Net-(R4-Pad2)*%
X122600000Y-53214000D03*
%TO.P,U3,5*%
%TO.N,/G9*%
X124600000Y-53214000D03*
%TO.P,U3,4*%
%TO.N,/EPD_CLK*%
X126600000Y-53214000D03*
%TO.P,U3,3*%
%TO.N,/EPD_MOSI*%
X128600000Y-53214000D03*
%TO.P,U3,2*%
%TO.N,/G1*%
X130600000Y-53214000D03*
%TO.P,U3,1*%
%TO.N,GND*%
X132600000Y-53214000D03*
%TD*%
%TO.P,R4,2*%
%TO.N,Net-(R4-Pad2)*%
%TA.AperFunction,SMDPad,CuDef*%
G36*
G01*
X136709999Y-58820000D02*
X137610001Y-58820000D01*
G75*
G02*
X137860000Y-59069999I0J-249999D01*
G01*
X137860000Y-59770001D01*
G75*
G02*
X137610001Y-60020000I-249999J0D01*
G01*
X136709999Y-60020000D01*
G75*
G02*
X136460000Y-59770001I0J249999D01*
G01*
X136460000Y-59069999D01*
G75*
G02*
X136709999Y-58820000I249999J0D01*
G01*
G37*
%TD.AperFunction*%
%TO.P,R4,1*%
%TO.N,+3.3VP*%
%TA.AperFunction,SMDPad,CuDef*%
G36*
G01*
X136709999Y-56820000D02*
X137610001Y-56820000D01*
G75*
G02*
X137860000Y-57069999I0J-249999D01*
G01*
X137860000Y-57770001D01*
G75*
G02*
X137610001Y-58020000I-249999J0D01*
G01*
X136709999Y-58020000D01*
G75*
G02*
X136460000Y-57770001I0J249999D01*
G01*
X136460000Y-57069999D01*
G75*
G02*
X136709999Y-56820000I249999J0D01*
G01*
G37*
%TD.AperFunction*%
%TD*%
D14*
%TO.P,D5,1*%
%TO.N,Net-(D4-Pad1)*%
X126328000Y-73838000D03*
%TO.P,D5,2*%
%TO.N,Net-(D5-Pad2)*%
X126328000Y-77038000D03*
%TO.P,D5,4*%
%TO.N,/G9*%
X131228000Y-73838000D03*
%TO.P,D5,3*%
%TO.N,GND*%
X131228000Y-77038000D03*
%TD*%
D11*
%TO.P,J4,4*%
%TO.N,GND*%
X128270000Y-80010000D03*
%TO.P,J4,3*%
%TO.N,/D+*%
X125730000Y-80010000D03*
%TO.P,J4,2*%
%TO.N,/D-*%
X123190000Y-80010000D03*
D12*
%TO.P,J4,1*%
%TO.N,+5V*%
X120650000Y-80010000D03*
%TD*%
D15*
%TO.P,U1,5*%
%TO.N,+3.3VA*%
X123782000Y-71694000D03*
%TO.P,U1,4*%
%TO.N,Net-(U1-Pad4)*%
X123782000Y-73594000D03*
%TO.P,U1,3*%
%TO.N,Net-(R3-Pad2)*%
X121582000Y-73594000D03*
%TO.P,U1,2*%
%TO.N,GND*%
X121582000Y-72644000D03*
%TO.P,U1,1*%
%TO.N,+5V*%
X121582000Y-71694000D03*
%TD*%
%TO.P,R3,2*%
%TO.N,Net-(R3-Pad2)*%
%TA.AperFunction,SMDPad,CuDef*%
G36*
G01*
X120542000Y-75930001D02*
X120542000Y-75029999D01*
G75*
G02*
X120791999Y-74780000I249999J0D01*
G01*
X121492001Y-74780000D01*
G75*
G02*
X121742000Y-75029999I0J-249999D01*
G01*
X121742000Y-75930001D01*
G75*
G02*
X121492001Y-76180000I-249999J0D01*
G01*
X120791999Y-76180000D01*
G75*
G02*
X120542000Y-75930001I0J249999D01*
G01*
G37*
%TD.AperFunction*%
%TO.P,R3,1*%
%TO.N,+5V*%
%TA.AperFunction,SMDPad,CuDef*%
G36*
G01*
X118542000Y-75930001D02*
X118542000Y-75029999D01*
G75*
G02*
X118791999Y-74780000I249999J0D01*
G01*
X119492001Y-74780000D01*
G75*
G02*
X119742000Y-75029999I0J-249999D01*
G01*
X119742000Y-75930001D01*
G75*
G02*
X119492001Y-76180000I-249999J0D01*
G01*
X118791999Y-76180000D01*
G75*
G02*
X118542000Y-75930001I0J249999D01*
G01*
G37*
%TD.AperFunction*%
%TD*%
%TO.P,C14,2*%
%TO.N,GND*%
%TA.AperFunction,SMDPad,CuDef*%
G36*
G01*
X119692000Y-76975000D02*
X119692000Y-77925000D01*
G75*
G02*
X119442000Y-78175000I-250000J0D01*
G01*
X118767000Y-78175000D01*
G75*
G02*
X118517000Y-77925000I0J250000D01*
G01*
X118517000Y-76975000D01*
G75*
G02*
X118767000Y-76725000I250000J0D01*
G01*
X119442000Y-76725000D01*
G75*
G02*
X119692000Y-76975000I0J-250000D01*
G01*
G37*
%TD.AperFunction*%
%TO.P,C14,1*%
%TO.N,+3.3VA*%
%TA.AperFunction,SMDPad,CuDef*%
G36*
G01*
X121767000Y-76975000D02*
X121767000Y-77925000D01*
G75*
G02*
X121517000Y-78175000I-250000J0D01*
G01*
X120842000Y-78175000D01*
G75*
G02*
X120592000Y-77925000I0J250000D01*
G01*
X120592000Y-76975000D01*
G75*
G02*
X120842000Y-76725000I250000J0D01*
G01*
X121517000Y-76725000D01*
G75*
G02*
X121767000Y-76975000I0J-250000D01*
G01*
G37*
%TD.AperFunction*%
%TD*%
%TO.P,C13,2*%
%TO.N,GND*%
%TA.AperFunction,SMDPad,CuDef*%
G36*
G01*
X119159000Y-73094000D02*
X120109000Y-73094000D01*
G75*
G02*
X120359000Y-73344000I0J-250000D01*
G01*
X120359000Y-74019000D01*
G75*
G02*
X120109000Y-74269000I-250000J0D01*
G01*
X119159000Y-74269000D01*
G75*
G02*
X118909000Y-74019000I0J250000D01*
G01*
X118909000Y-73344000D01*
G75*
G02*
X119159000Y-73094000I250000J0D01*
G01*
G37*
%TD.AperFunction*%
%TO.P,C13,1*%
%TO.N,+5V*%
%TA.AperFunction,SMDPad,CuDef*%
G36*
G01*
X119159000Y-71019000D02*
X120109000Y-71019000D01*
G75*
G02*
X120359000Y-71269000I0J-250000D01*
G01*
X120359000Y-71944000D01*
G75*
G02*
X120109000Y-72194000I-250000J0D01*
G01*
X119159000Y-72194000D01*
G75*
G02*
X118909000Y-71944000I0J250000D01*
G01*
X118909000Y-71269000D01*
G75*
G02*
X119159000Y-71019000I250000J0D01*
G01*
G37*
%TD.AperFunction*%
%TD*%
D11*
%TO.P,J3,6*%
%TO.N,GND*%
X132080000Y-83500000D03*
%TO.P,J3,5*%
%TO.N,/G1*%
X129540000Y-83500000D03*
%TO.P,J3,4*%
%TO.N,/EPD_CLK*%
X127000000Y-83500000D03*
%TO.P,J3,3*%
%TO.N,/EPD_MOSI*%
X124460000Y-83500000D03*
%TO.P,J3,2*%
%TO.N,/G0*%
X121920000Y-83500000D03*
D12*
%TO.P,J3,1*%
%TO.N,+3.3VA*%
X119380000Y-83500000D03*
%TD*%
D16*
%TO.P,U2,MP*%
%TO.N,GND*%
X119072000Y-42870000D03*
X133912000Y-42870000D03*
D17*
%TO.P,U2,24*%
%TO.N,Net-(U2-Pad24)*%
X120742000Y-44570000D03*
%TO.P,U2,23*%
%TO.N,Net-(Q1-Pad1)*%
X121242000Y-44570000D03*
%TO.P,U2,22*%
%TO.N,Net-(Q1-Pad2)*%
X121742000Y-44570000D03*
%TO.P,U2,21*%
%TO.N,Net-(C7-Pad2)*%
X122242000Y-44570000D03*
%TO.P,U2,20*%
%TO.N,Net-(C9-Pad2)*%
X122742000Y-44570000D03*
%TO.P,U2,19*%
%TO.N,Net-(U2-Pad19)*%
X123242000Y-44570000D03*
%TO.P,U2,18*%
%TO.N,Net-(U2-Pad18)*%
X123742000Y-44570000D03*
%TO.P,U2,17*%
%TO.N,GND*%
X124242000Y-44570000D03*
%TO.P,U2,16*%
%TO.N,/EPD_BUSY*%
X124742000Y-44570000D03*
%TO.P,U2,15*%
%TO.N,/EPD_RST*%
X125242000Y-44570000D03*
%TO.P,U2,14*%
%TO.N,/EPD_DC*%
X125742000Y-44570000D03*
%TO.P,U2,13*%
%TO.N,/EPD_CS*%
X126242000Y-44570000D03*
%TO.P,U2,12*%
%TO.N,/EPD_CLK*%
X126742000Y-44570000D03*
%TO.P,U2,11*%
%TO.N,/EPD_MOSI*%
X127242000Y-44570000D03*
%TO.P,U2,10*%
%TO.N,+3.3VP*%
X127742000Y-44570000D03*
%TO.P,U2,9*%
X128242000Y-44570000D03*
%TO.P,U2,8*%
%TO.N,GND*%
X128742000Y-44570000D03*
%TO.P,U2,7*%
%TO.N,Net-(C11-Pad2)*%
X129242000Y-44570000D03*
%TO.P,U2,6*%
%TO.N,Net-(C6-Pad2)*%
X129742000Y-44570000D03*
%TO.P,U2,5*%
%TO.N,Net-(C5-Pad2)*%
X130242000Y-44570000D03*
%TO.P,U2,4*%
%TO.N,Net-(C4-Pad2)*%
X130742000Y-44570000D03*
%TO.P,U2,3*%
%TO.N,Net-(C3-Pad2)*%
X131242000Y-44570000D03*
%TO.P,U2,2*%
%TO.N,Net-(C2-Pad2)*%
X131742000Y-44570000D03*
%TO.P,U2,1*%
%TO.N,Net-(C1-Pad2)*%
X132242000Y-44570000D03*
%TD*%
D18*
%TO.P,Q1,3*%
%TO.N,Net-(C10-Pad1)*%
X114316000Y-45974000D03*
%TO.P,Q1,2*%
%TO.N,Net-(Q1-Pad2)*%
X116316000Y-45324000D03*
%TO.P,Q1,1*%
%TO.N,Net-(Q1-Pad1)*%
X116316000Y-46624000D03*
%TD*%
%TO.P,R1,2*%
%TO.N,GND*%
%TA.AperFunction,SMDPad,CuDef*%
G36*
G01*
X115716000Y-43884001D02*
X115716000Y-42983999D01*
G75*
G02*
X115965999Y-42734000I249999J0D01*
G01*
X116666001Y-42734000D01*
G75*
G02*
X116916000Y-42983999I0J-249999D01*
G01*
X116916000Y-43884001D01*
G75*
G02*
X116666001Y-44134000I-249999J0D01*
G01*
X115965999Y-44134000D01*
G75*
G02*
X115716000Y-43884001I0J249999D01*
G01*
G37*
%TD.AperFunction*%
%TO.P,R1,1*%
%TO.N,Net-(Q1-Pad1)*%
%TA.AperFunction,SMDPad,CuDef*%
G36*
G01*
X113716000Y-43884001D02*
X113716000Y-42983999D01*
G75*
G02*
X113965999Y-42734000I249999J0D01*
G01*
X114666001Y-42734000D01*
G75*
G02*
X114916000Y-42983999I0J-249999D01*
G01*
X114916000Y-43884001D01*
G75*
G02*
X114666001Y-44134000I-249999J0D01*
G01*
X113965999Y-44134000D01*
G75*
G02*
X113716000Y-43884001I0J249999D01*
G01*
G37*
%TD.AperFunction*%
%TD*%
%TO.P,C9,2*%
%TO.N,Net-(C9-Pad2)*%
%TA.AperFunction,SMDPad,CuDef*%
G36*
G01*
X121633000Y-49080000D02*
X120683000Y-49080000D01*
G75*
G02*
X120433000Y-48830000I0J250000D01*
G01*
X120433000Y-48155000D01*
G75*
G02*
X120683000Y-47905000I250000J0D01*
G01*
X121633000Y-47905000D01*
G75*
G02*
X121883000Y-48155000I0J-250000D01*
G01*
X121883000Y-48830000D01*
G75*
G02*
X121633000Y-49080000I-250000J0D01*
G01*
G37*
%TD.AperFunction*%
%TO.P,C9,1*%
%TO.N,GND*%
%TA.AperFunction,SMDPad,CuDef*%
G36*
G01*
X121633000Y-51155000D02*
X120683000Y-51155000D01*
G75*
G02*
X120433000Y-50905000I0J250000D01*
G01*
X120433000Y-50230000D01*
G75*
G02*
X120683000Y-49980000I250000J0D01*
G01*
X121633000Y-49980000D01*
G75*
G02*
X121883000Y-50230000I0J-250000D01*
G01*
X121883000Y-50905000D01*
G75*
G02*
X121633000Y-51155000I-250000J0D01*
G01*
G37*
%TD.AperFunction*%
%TD*%
%TO.P,C6,2*%
%TO.N,Net-(C6-Pad2)*%
%TA.AperFunction,SMDPad,CuDef*%
G36*
G01*
X127475000Y-49730000D02*
X126525000Y-49730000D01*
G75*
G02*
X126275000Y-49480000I0J250000D01*
G01*
X126275000Y-48805000D01*
G75*
G02*
X126525000Y-48555000I250000J0D01*
G01*
X127475000Y-48555000D01*
G75*
G02*
X127725000Y-48805000I0J-250000D01*
G01*
X127725000Y-49480000D01*
G75*
G02*
X127475000Y-49730000I-250000J0D01*
G01*
G37*
%TD.AperFunction*%
%TO.P,C6,1*%
%TO.N,GND*%
%TA.AperFunction,SMDPad,CuDef*%
G36*
G01*
X127475000Y-51805000D02*
X126525000Y-51805000D01*
G75*
G02*
X126275000Y-51555000I0J250000D01*
G01*
X126275000Y-50880000D01*
G75*
G02*
X126525000Y-50630000I250000J0D01*
G01*
X127475000Y-50630000D01*
G75*
G02*
X127725000Y-50880000I0J-250000D01*
G01*
X127725000Y-51555000D01*
G75*
G02*
X127475000Y-51805000I-250000J0D01*
G01*
G37*
%TD.AperFunction*%
%TD*%
%TO.P,C4,2*%
%TO.N,Net-(C4-Pad2)*%
%TA.AperFunction,SMDPad,CuDef*%
G36*
G01*
X131539000Y-49334000D02*
X130589000Y-49334000D01*
G75*
G02*
X130339000Y-49084000I0J250000D01*
G01*
X130339000Y-48409000D01*
G75*
G02*
X130589000Y-48159000I250000J0D01*
G01*
X131539000Y-48159000D01*
G75*
G02*
X131789000Y-48409000I0J-250000D01*
G01*
X131789000Y-49084000D01*
G75*
G02*
X131539000Y-49334000I-250000J0D01*
G01*
G37*
%TD.AperFunction*%
%TO.P,C4,1*%
%TO.N,GND*%
%TA.AperFunction,SMDPad,CuDef*%
G36*
G01*
X131539000Y-51409000D02*
X130589000Y-51409000D01*
G75*
G02*
X130339000Y-51159000I0J250000D01*
G01*
X130339000Y-50484000D01*
G75*
G02*
X130589000Y-50234000I250000J0D01*
G01*
X131539000Y-50234000D01*
G75*
G02*
X131789000Y-50484000I0J-250000D01*
G01*
X131789000Y-51159000D01*
G75*
G02*
X131539000Y-51409000I-250000J0D01*
G01*
G37*
%TD.AperFunction*%
%TD*%
%TO.P,C2,2*%
%TO.N,Net-(C2-Pad2)*%
%TA.AperFunction,SMDPad,CuDef*%
G36*
G01*
X135603000Y-49334000D02*
X134653000Y-49334000D01*
G75*
G02*
X134403000Y-49084000I0J250000D01*
G01*
X134403000Y-48409000D01*
G75*
G02*
X134653000Y-48159000I250000J0D01*
G01*
X135603000Y-48159000D01*
G75*
G02*
X135853000Y-48409000I0J-250000D01*
G01*
X135853000Y-49084000D01*
G75*
G02*
X135603000Y-49334000I-250000J0D01*
G01*
G37*
%TD.AperFunction*%
%TO.P,C2,1*%
%TO.N,GND*%
%TA.AperFunction,SMDPad,CuDef*%
G36*
G01*
X135603000Y-51409000D02*
X134653000Y-51409000D01*
G75*
G02*
X134403000Y-51159000I0J250000D01*
G01*
X134403000Y-50484000D01*
G75*
G02*
X134653000Y-50234000I250000J0D01*
G01*
X135603000Y-50234000D01*
G75*
G02*
X135853000Y-50484000I0J-250000D01*
G01*
X135853000Y-51159000D01*
G75*
G02*
X135603000Y-51409000I-250000J0D01*
G01*
G37*
%TD.AperFunction*%
%TD*%
%TO.P,C7,2*%
%TO.N,Net-(C7-Pad2)*%
%TA.AperFunction,SMDPad,CuDef*%
G36*
G01*
X119601000Y-49080000D02*
X118651000Y-49080000D01*
G75*
G02*
X118401000Y-48830000I0J250000D01*
G01*
X118401000Y-48155000D01*
G75*
G02*
X118651000Y-47905000I250000J0D01*
G01*
X119601000Y-47905000D01*
G75*
G02*
X119851000Y-48155000I0J-250000D01*
G01*
X119851000Y-48830000D01*
G75*
G02*
X119601000Y-49080000I-250000J0D01*
G01*
G37*
%TD.AperFunction*%
%TO.P,C7,1*%
%TO.N,GND*%
%TA.AperFunction,SMDPad,CuDef*%
G36*
G01*
X119601000Y-51155000D02*
X118651000Y-51155000D01*
G75*
G02*
X118401000Y-50905000I0J250000D01*
G01*
X118401000Y-50230000D01*
G75*
G02*
X118651000Y-49980000I250000J0D01*
G01*
X119601000Y-49980000D01*
G75*
G02*
X119851000Y-50230000I0J-250000D01*
G01*
X119851000Y-50905000D01*
G75*
G02*
X119601000Y-51155000I-250000J0D01*
G01*
G37*
%TD.AperFunction*%
%TD*%
%TO.P,C8,2*%
%TO.N,+3.3VP*%
%TA.AperFunction,SMDPad,CuDef*%
G36*
G01*
X136685000Y-51504000D02*
X137635000Y-51504000D01*
G75*
G02*
X137885000Y-51754000I0J-250000D01*
G01*
X137885000Y-52429000D01*
G75*
G02*
X137635000Y-52679000I-250000J0D01*
G01*
X136685000Y-52679000D01*
G75*
G02*
X136435000Y-52429000I0J250000D01*
G01*
X136435000Y-51754000D01*
G75*
G02*
X136685000Y-51504000I250000J0D01*
G01*
G37*
%TD.AperFunction*%
%TO.P,C8,1*%
%TO.N,GND*%
%TA.AperFunction,SMDPad,CuDef*%
G36*
G01*
X136685000Y-49429000D02*
X137635000Y-49429000D01*
G75*
G02*
X137885000Y-49679000I0J-250000D01*
G01*
X137885000Y-50354000D01*
G75*
G02*
X137635000Y-50604000I-250000J0D01*
G01*
X136685000Y-50604000D01*
G75*
G02*
X136435000Y-50354000I0J250000D01*
G01*
X136435000Y-49679000D01*
G75*
G02*
X136685000Y-49429000I250000J0D01*
G01*
G37*
%TD.AperFunction*%
%TD*%
%TO.P,C11,2*%
%TO.N,Net-(C11-Pad2)*%
%TA.AperFunction,SMDPad,CuDef*%
G36*
G01*
X124550000Y-51275000D02*
X124550000Y-50325000D01*
G75*
G02*
X124800000Y-50075000I250000J0D01*
G01*
X125475000Y-50075000D01*
G75*
G02*
X125725000Y-50325000I0J-250000D01*
G01*
X125725000Y-51275000D01*
G75*
G02*
X125475000Y-51525000I-250000J0D01*
G01*
X124800000Y-51525000D01*
G75*
G02*
X124550000Y-51275000I0J250000D01*
G01*
G37*
%TD.AperFunction*%
%TO.P,C11,1*%
%TO.N,GND*%
%TA.AperFunction,SMDPad,CuDef*%
G36*
G01*
X122475000Y-51275000D02*
X122475000Y-50325000D01*
G75*
G02*
X122725000Y-50075000I250000J0D01*
G01*
X123400000Y-50075000D01*
G75*
G02*
X123650000Y-50325000I0J-250000D01*
G01*
X123650000Y-51275000D01*
G75*
G02*
X123400000Y-51525000I-250000J0D01*
G01*
X122725000Y-51525000D01*
G75*
G02*
X122475000Y-51275000I0J250000D01*
G01*
G37*
%TD.AperFunction*%
%TD*%
%TO.P,C5,1*%
%TO.N,GND*%
%TA.AperFunction,SMDPad,CuDef*%
G36*
G01*
X129507000Y-51663000D02*
X128557000Y-51663000D01*
G75*
G02*
X128307000Y-51413000I0J250000D01*
G01*
X128307000Y-50738000D01*
G75*
G02*
X128557000Y-50488000I250000J0D01*
G01*
X129507000Y-50488000D01*
G75*
G02*
X129757000Y-50738000I0J-250000D01*
G01*
X129757000Y-51413000D01*
G75*
G02*
X129507000Y-51663000I-250000J0D01*
G01*
G37*
%TD.AperFunction*%
%TO.P,C5,2*%
%TO.N,Net-(C5-Pad2)*%
%TA.AperFunction,SMDPad,CuDef*%
G36*
G01*
X129507000Y-49588000D02*
X128557000Y-49588000D01*
G75*
G02*
X128307000Y-49338000I0J250000D01*
G01*
X128307000Y-48663000D01*
G75*
G02*
X128557000Y-48413000I250000J0D01*
G01*
X129507000Y-48413000D01*
G75*
G02*
X129757000Y-48663000I0J-250000D01*
G01*
X129757000Y-49338000D01*
G75*
G02*
X129507000Y-49588000I-250000J0D01*
G01*
G37*
%TD.AperFunction*%
%TD*%
%TO.P,C3,2*%
%TO.N,Net-(C3-Pad2)*%
%TA.AperFunction,SMDPad,CuDef*%
G36*
G01*
X133571000Y-49334000D02*
X132621000Y-49334000D01*
G75*
G02*
X132371000Y-49084000I0J250000D01*
G01*
X132371000Y-48409000D01*
G75*
G02*
X132621000Y-48159000I250000J0D01*
G01*
X133571000Y-48159000D01*
G75*
G02*
X133821000Y-48409000I0J-250000D01*
G01*
X133821000Y-49084000D01*
G75*
G02*
X133571000Y-49334000I-250000J0D01*
G01*
G37*
%TD.AperFunction*%
%TO.P,C3,1*%
%TO.N,GND*%
%TA.AperFunction,SMDPad,CuDef*%
G36*
G01*
X133571000Y-51409000D02*
X132621000Y-51409000D01*
G75*
G02*
X132371000Y-51159000I0J250000D01*
G01*
X132371000Y-50484000D01*
G75*
G02*
X132621000Y-50234000I250000J0D01*
G01*
X133571000Y-50234000D01*
G75*
G02*
X133821000Y-50484000I0J-250000D01*
G01*
X133821000Y-51159000D01*
G75*
G02*
X133571000Y-51409000I-250000J0D01*
G01*
G37*
%TD.AperFunction*%
%TD*%
%TO.P,C1,2*%
%TO.N,Net-(C1-Pad2)*%
%TA.AperFunction,SMDPad,CuDef*%
G36*
G01*
X137635000Y-46286000D02*
X136685000Y-46286000D01*
G75*
G02*
X136435000Y-46036000I0J250000D01*
G01*
X136435000Y-45361000D01*
G75*
G02*
X136685000Y-45111000I250000J0D01*
G01*
X137635000Y-45111000D01*
G75*
G02*
X137885000Y-45361000I0J-250000D01*
G01*
X137885000Y-46036000D01*
G75*
G02*
X137635000Y-46286000I-250000J0D01*
G01*
G37*
%TD.AperFunction*%
%TO.P,C1,1*%
%TO.N,GND*%
%TA.AperFunction,SMDPad,CuDef*%
G36*
G01*
X137635000Y-48361000D02*
X136685000Y-48361000D01*
G75*
G02*
X136435000Y-48111000I0J250000D01*
G01*
X136435000Y-47436000D01*
G75*
G02*
X136685000Y-47186000I250000J0D01*
G01*
X137635000Y-47186000D01*
G75*
G02*
X137885000Y-47436000I0J-250000D01*
G01*
X137885000Y-48111000D01*
G75*
G02*
X137635000Y-48361000I-250000J0D01*
G01*
G37*
%TD.AperFunction*%
%TD*%
D19*
%TO.N,*%
X115500000Y-82500000D03*
X136000000Y-82500000D03*
D20*
%TO.N,GND*%
X117856000Y-44958000D03*
X118872000Y-77978000D03*
%TO.N,+5V*%
X123653618Y-81773206D03*
%TO.N,GND*%
X122230000Y-42870000D03*
X128778000Y-43180000D03*
X131064000Y-50038000D03*
X121666000Y-67310000D03*
X118872000Y-73914000D03*
X136398000Y-46990000D03*
X130048000Y-58420000D03*
%TO.N,+3.3VP*%
X128270000Y-46100000D03*
X137160000Y-52110000D03*
%TO.N,Net-(C2-Pad2)*%
X134366000Y-46862000D03*
%TO.N,Net-(C4-Pad2)*%
X130810000Y-43180000D03*
%TO.N,Net-(Q1-Pad2)*%
X114046000Y-48260000D03*
%TO.N,Net-(C10-Pad1)*%
X113929000Y-46990000D03*
%TO.N,/EPD_MOSI*%
X127469610Y-57978390D03*
X127467000Y-46790892D03*
%TO.N,/EPD_RST*%
X123407000Y-49163791D03*
%TO.N,/EPD_DC*%
X124237994Y-48046000D03*
%TO.N,/EPD_CS*%
X125237997Y-48046000D03*
%TO.N,/EPD_CLK*%
X126746000Y-47498000D03*
X126087998Y-57074004D03*
%TO.N,/EPD_BUSY*%
X122682000Y-48046000D03*
%TO.N,/G1*%
X130556000Y-54356000D03*
X124714000Y-62069998D03*
%TO.N,/D-*%
X128016000Y-75946000D03*
X129460956Y-63579044D03*
%TO.N,Net-(D6-Pad2)*%
X132600000Y-69214000D03*
%TO.N,Net-(D7-Pad2)*%
X130185957Y-69390041D03*
%TO.N,Net-(D8-Pad2)*%
X128600000Y-69214000D03*
%TD*%
D21*
%TO.N,+5V*%
X119721500Y-71694000D02*
X119634000Y-71606500D01*
X121582000Y-71694000D02*
X119721500Y-71694000D01*
X122297002Y-71694000D02*
X122801999Y-72198997D01*
X121582000Y-71694000D02*
X122297002Y-71694000D01*
X118088500Y-73152000D02*
X119634000Y-71606500D01*
X116500000Y-73152000D02*
X118088500Y-73152000D01*
X116602000Y-73152000D02*
X119142000Y-75692000D01*
X116500000Y-73152000D02*
X116602000Y-73152000D01*
X122801999Y-72198997D02*
X122801999Y-74279001D01*
X120142000Y-79502000D02*
X120650000Y-80010000D01*
X120142000Y-76481966D02*
X120142000Y-79502000D01*
X120091990Y-76431956D02*
X120142000Y-76481966D01*
D22*
X123190000Y-74667002D02*
X122801999Y-74279001D01*
X123190000Y-75150000D02*
X123190000Y-74667002D01*
D21*
X129342792Y-81773206D02*
X123653618Y-81773206D01*
X129570001Y-81545997D02*
X129342792Y-81773206D01*
X129570001Y-76635997D02*
X129570001Y-81545997D01*
X130513998Y-75692000D02*
X129570001Y-76635997D01*
X134200000Y-75692000D02*
X130513998Y-75692000D01*
X120142000Y-76480000D02*
X120142000Y-76481966D01*
X119142000Y-75480000D02*
X120142000Y-76480000D01*
D23*
%TO.N,GND*%
X124242000Y-43784998D02*
X124242000Y-44570000D01*
X123327002Y-42870000D02*
X124242000Y-43784998D01*
X119072000Y-42870000D02*
X122230000Y-42870000D01*
X122230000Y-42870000D02*
X123327002Y-42870000D01*
X129503001Y-42454999D02*
X128778000Y-43180000D01*
X133496999Y-42454999D02*
X129503001Y-42454999D01*
X133912000Y-42870000D02*
X133496999Y-42454999D01*
X128742000Y-43216000D02*
X128778000Y-43180000D01*
X128742000Y-44570000D02*
X128742000Y-43216000D01*
D21*
X118508000Y-43434000D02*
X119072000Y-42870000D01*
X116316000Y-43434000D02*
X118508000Y-43434000D01*
X128778000Y-51329500D02*
X129032000Y-51075500D01*
X127000000Y-51329500D02*
X128778000Y-51329500D01*
X130810000Y-51075500D02*
X131064000Y-50821500D01*
X129032000Y-51075500D02*
X130810000Y-51075500D01*
X121390500Y-50800000D02*
X121158000Y-50567500D01*
X123062500Y-50800000D02*
X121390500Y-50800000D01*
X131064000Y-50038000D02*
X131064000Y-50821500D01*
X116775500Y-50567500D02*
X116500000Y-50292000D01*
X119126000Y-50567500D02*
X116775500Y-50567500D01*
X136863000Y-50821500D02*
X137668000Y-50016500D01*
X135128000Y-50821500D02*
X136863000Y-50821500D01*
X136906000Y-49254500D02*
X137668000Y-50016500D01*
X136906000Y-47773500D02*
X136906000Y-49254500D01*
D24*
X117749999Y-69362001D02*
X116500000Y-70612000D01*
X117749999Y-67933999D02*
X117749999Y-69362001D01*
X119249999Y-67863999D02*
X117819999Y-67863999D01*
X117819999Y-67863999D02*
X117749999Y-67933999D01*
X120600000Y-69214000D02*
X119249999Y-67863999D01*
D23*
X119104500Y-73681500D02*
X118872000Y-73914000D01*
X119634000Y-73681500D02*
X119104500Y-73681500D01*
X120671500Y-72644000D02*
X121582000Y-72644000D01*
X119634000Y-73681500D02*
X120671500Y-72644000D01*
X136398000Y-47011500D02*
X137160000Y-47773500D01*
X136398000Y-46990000D02*
X136398000Y-47011500D01*
D21*
X119126000Y-52688000D02*
X118600000Y-53214000D01*
X119126000Y-50567500D02*
X119126000Y-52688000D01*
D23*
%TO.N,Net-(C7-Pad2)*%
X122192010Y-45404992D02*
X122192009Y-45998811D01*
X122242000Y-45355002D02*
X122192010Y-45404992D01*
X122242000Y-44570000D02*
X122242000Y-45355002D01*
D24*
X122217010Y-46009165D02*
X122217010Y-45738009D01*
X121938755Y-46287420D02*
X122217010Y-46009165D01*
X121617756Y-46287420D02*
X121938755Y-46287420D01*
X119381989Y-47649011D02*
X120256165Y-47649011D01*
X119126000Y-47905000D02*
X119381989Y-47649011D01*
X120256165Y-47649011D02*
X121617756Y-46287420D01*
X119126000Y-48492500D02*
X119126000Y-47905000D01*
D23*
%TO.N,+3.3VP*%
X128242000Y-44570000D02*
X128242000Y-45692000D01*
X127742000Y-45700000D02*
X128242000Y-46200000D01*
X127742000Y-44570000D02*
X127742000Y-45700000D01*
X128242000Y-44570000D02*
X128242000Y-46200000D01*
D21*
X135112000Y-55372000D02*
X137160000Y-57420000D01*
X134200000Y-55372000D02*
X135112000Y-55372000D01*
D23*
%TO.N,Net-(C1-Pad2)*%
X133370500Y-45698500D02*
X136906000Y-45698500D01*
X132242000Y-44570000D02*
X133370500Y-45698500D01*
%TO.N,Net-(C2-Pad2)*%
X131742000Y-44570000D02*
X131742000Y-45488910D01*
X133234000Y-46862000D02*
X134366000Y-46862000D01*
X131742000Y-45370000D02*
X133234000Y-46862000D01*
X131742000Y-44570000D02*
X131742000Y-45370000D01*
X134366000Y-47984500D02*
X135128000Y-48746500D01*
X134366000Y-46862000D02*
X134366000Y-47984500D01*
%TO.N,Net-(C3-Pad2)*%
X131242000Y-46892500D02*
X131242000Y-44570000D01*
X133096000Y-48746500D02*
X131242000Y-46892500D01*
%TO.N,Net-(C4-Pad2)*%
X130742000Y-49186500D02*
X130742000Y-44570000D01*
X130742000Y-43248000D02*
X130810000Y-43180000D01*
X130742000Y-44570000D02*
X130742000Y-43248000D01*
%TO.N,Net-(C6-Pad2)*%
X129742000Y-44570000D02*
X129742000Y-47446000D01*
X128166510Y-48087990D02*
X127000000Y-49254500D01*
X129100010Y-48087990D02*
X128166510Y-48087990D01*
X129742000Y-47446000D02*
X129100010Y-48087990D01*
%TO.N,Net-(C9-Pad2)*%
X122742000Y-44570000D02*
X122742000Y-46208000D01*
X121158000Y-47792000D02*
X122742000Y-46208000D01*
X121158000Y-48350500D02*
X121300000Y-48492500D01*
X121158000Y-47792000D02*
X121158000Y-48350500D01*
%TO.N,Net-(C11-Pad2)*%
X124989500Y-49639310D02*
X124989500Y-50800000D01*
X124989500Y-49367499D02*
X124989500Y-49639310D01*
X128194611Y-47227083D02*
X127198693Y-48223001D01*
X127198693Y-48223001D02*
X126133997Y-48223001D01*
X129266999Y-47227083D02*
X128194611Y-47227083D01*
X129266999Y-44594999D02*
X129266999Y-47227083D01*
X126133997Y-48223001D02*
X124989500Y-49367499D01*
X129242000Y-44570000D02*
X129266999Y-44594999D01*
%TO.N,Net-(Q1-Pad2)*%
X121742000Y-45812410D02*
X121742000Y-44570000D01*
X115640999Y-47109001D02*
X115640999Y-45999001D01*
X115705999Y-47174001D02*
X115640999Y-47109001D01*
X120059411Y-47174001D02*
X115705999Y-47174001D01*
X115640999Y-45999001D02*
X116316000Y-45324000D01*
X121421002Y-45812410D02*
X120059411Y-47174001D01*
X121742000Y-45812410D02*
X121421002Y-45812410D01*
X115131999Y-47174001D02*
X114046000Y-48260000D01*
X115705999Y-47174001D02*
X115131999Y-47174001D01*
%TO.N,Net-(Q1-Pad1)*%
X121242000Y-45355002D02*
X121242000Y-44570000D01*
X120115002Y-46482000D02*
X121242000Y-45355002D01*
X116926001Y-44773999D02*
X116991001Y-44838999D01*
X114316000Y-43434000D02*
X114316000Y-43450000D01*
D24*
X116458000Y-46482000D02*
X116316000Y-46624000D01*
X116840000Y-46482000D02*
X116458000Y-46482000D01*
X115937454Y-44704000D02*
X116901002Y-44704000D01*
X114667454Y-43434000D02*
X115937454Y-44704000D01*
X117016001Y-44818999D02*
X117016001Y-46404001D01*
X116901002Y-44704000D02*
X117016001Y-44818999D01*
X114316000Y-43434000D02*
X114667454Y-43434000D01*
X117016001Y-46404001D02*
X117094000Y-46482000D01*
D23*
X117094000Y-46482000D02*
X116840000Y-46482000D01*
X120115002Y-46482000D02*
X117094000Y-46482000D01*
%TO.N,Net-(C5-Pad2)*%
X130242000Y-47942810D02*
X129184310Y-49000500D01*
X129184310Y-49000500D02*
X129032000Y-49000500D01*
X130242000Y-44570000D02*
X130242000Y-47942810D01*
%TO.N,Net-(C10-Pad1)*%
X114316000Y-46603000D02*
X113929000Y-46990000D01*
X114316000Y-45974000D02*
X114316000Y-46603000D01*
%TO.N,/EPD_MOSI*%
X127242000Y-46669470D02*
X127469610Y-46897080D01*
D21*
X128600000Y-56848000D02*
X127469610Y-57978390D01*
X128600000Y-53214000D02*
X128600000Y-56848000D01*
D23*
X127242000Y-46216000D02*
X127242000Y-46565892D01*
X127242000Y-46565892D02*
X127467000Y-46790892D01*
X127242000Y-44570000D02*
X127242000Y-46216000D01*
X127242000Y-46216000D02*
X127242000Y-46669470D01*
%TO.N,/EPD_RST*%
X125242000Y-44570000D02*
X125242000Y-45968992D01*
X125242000Y-45968992D02*
X123407000Y-47803992D01*
X123407000Y-47803992D02*
X123407000Y-49163791D01*
%TO.N,/EPD_DC*%
X125742000Y-46510000D02*
X124237994Y-48014006D01*
X124237994Y-48014006D02*
X124237994Y-48046000D01*
X125742000Y-44570000D02*
X125742000Y-46510000D01*
%TO.N,/EPD_CS*%
X126242000Y-44570000D02*
X126242000Y-46968998D01*
X126242000Y-46968998D02*
X125512999Y-47697999D01*
X125512999Y-47697999D02*
X125512999Y-47770998D01*
X125512999Y-47770998D02*
X125237997Y-48046000D01*
%TO.N,/EPD_CLK*%
X126742000Y-44570000D02*
X126742000Y-47542000D01*
D21*
X126600000Y-56562002D02*
X126087998Y-57074004D01*
X126600000Y-53214000D02*
X126600000Y-56562002D01*
D23*
%TO.N,/EPD_BUSY*%
X122682000Y-48046000D02*
X122682000Y-47538000D01*
X122682000Y-47538000D02*
X124742000Y-45478000D01*
X124742000Y-45478000D02*
X124742000Y-44570000D01*
%TO.N,/G1*%
X130556000Y-53258000D02*
X130600000Y-53214000D01*
X130556000Y-54356000D02*
X130556000Y-53258000D01*
D22*
X115249999Y-79881997D02*
X117100001Y-81731999D01*
X115249999Y-76942001D02*
X115249999Y-79881997D01*
X116500000Y-75692000D02*
X115249999Y-76942001D01*
X128289999Y-84750001D02*
X129540000Y-83500000D01*
X117100001Y-83640003D02*
X118209999Y-84750001D01*
X118209999Y-84750001D02*
X128289999Y-84750001D01*
X117100001Y-81731999D02*
X117100001Y-83640003D01*
X122541997Y-64242001D02*
X124714000Y-62069998D01*
X114554000Y-65627998D02*
X115939997Y-64242001D01*
X114554000Y-73746000D02*
X114554000Y-65627998D01*
X115939997Y-64242001D02*
X122541997Y-64242001D01*
X116500000Y-75692000D02*
X114554000Y-73746000D01*
D21*
%TO.N,+3.3VA*%
X126600000Y-69524002D02*
X126600000Y-69214000D01*
X124430002Y-71694000D02*
X126600000Y-69524002D01*
X123782000Y-71694000D02*
X124430002Y-71694000D01*
D22*
X125177999Y-73089999D02*
X125177999Y-74360205D01*
X123782000Y-71694000D02*
X125177999Y-73089999D01*
D24*
X121179500Y-77303046D02*
X121179500Y-77724000D01*
D22*
X125177999Y-74360205D02*
X123518102Y-76020102D01*
X122883398Y-76020102D02*
X123518102Y-76020102D01*
X121179500Y-77724000D02*
X122883398Y-76020102D01*
X121900001Y-78444501D02*
X121179500Y-77724000D01*
X121900001Y-81180001D02*
X121900001Y-78444501D01*
X119380000Y-83500000D02*
X119580002Y-83500000D01*
X119580002Y-83500000D02*
X121900001Y-81180001D01*
D21*
%TO.N,/D-*%
X125359998Y-75946000D02*
X128016000Y-75946000D01*
X125127999Y-76177999D02*
X125359998Y-75946000D01*
X125127999Y-78072001D02*
X125127999Y-76177999D01*
X123190000Y-80010000D02*
X125127999Y-78072001D01*
D23*
X129460956Y-73905958D02*
X129460956Y-63579044D01*
X130217999Y-74663001D02*
X129460956Y-73905958D01*
X132238001Y-74663001D02*
X130217999Y-74663001D01*
X132303001Y-74598001D02*
X132238001Y-74663001D01*
X132303001Y-73309997D02*
X132303001Y-74598001D01*
X134200000Y-71412998D02*
X132303001Y-73309997D01*
X134200000Y-70612000D02*
X134200000Y-71412998D01*
%TO.N,/G9*%
X131425001Y-68306999D02*
X134200000Y-65532000D01*
X131425001Y-73640999D02*
X131425001Y-68306999D01*
X131228000Y-73838000D02*
X131425001Y-73640999D01*
D24*
X138210010Y-61521990D02*
X134200000Y-65532000D01*
X138210010Y-58821464D02*
X138210010Y-61521990D01*
X137858536Y-58469990D02*
X138210010Y-58821464D01*
X136461464Y-58469990D02*
X137858536Y-58469990D01*
X135679455Y-59251999D02*
X136461464Y-58469990D01*
X124600000Y-56921998D02*
X126930001Y-59251999D01*
X124600000Y-53214000D02*
X124600000Y-56921998D01*
X126930001Y-59251999D02*
X135679455Y-59251999D01*
D21*
%TO.N,Net-(R3-Pad2)*%
X121582000Y-75252000D02*
X121142000Y-75692000D01*
X121582000Y-73594000D02*
X121582000Y-75252000D01*
D22*
%TO.N,Net-(D4-Pad1)*%
X126328000Y-74058746D02*
X123163373Y-77223373D01*
X126328000Y-73838000D02*
X126328000Y-74058746D01*
%TO.N,/G21*%
X134510990Y-57821490D02*
X134591510Y-57902010D01*
D24*
%TO.N,Net-(R4-Pad2)*%
X134927999Y-61652001D02*
X137160000Y-59420000D01*
X127351459Y-61652001D02*
X134927999Y-61652001D01*
X122600000Y-56900542D02*
X127351459Y-61652001D01*
X122600000Y-53214000D02*
X122600000Y-56900542D01*
%TD*%
D25*
%TO.N,GND*%
X138466000Y-83354031D02*
X136456949Y-84548000D01*
X133124967Y-84548000D01*
X133275178Y-84381355D01*
X133424157Y-84131252D01*
X133521481Y-83856891D01*
X133400814Y-83627000D01*
X132207000Y-83627000D01*
X132207000Y-83647000D01*
X131953000Y-83647000D01*
X131953000Y-83627000D01*
X131933000Y-83627000D01*
X131933000Y-83373000D01*
X131953000Y-83373000D01*
X131953000Y-82179845D01*
X132207000Y-82179845D01*
X132207000Y-83373000D01*
X133400814Y-83373000D01*
X133521481Y-83143109D01*
X133424157Y-82868748D01*
X133275178Y-82618645D01*
X133080269Y-82402412D01*
X132968800Y-82319268D01*
X134165000Y-82319268D01*
X134165000Y-82680732D01*
X134235518Y-83035250D01*
X134373844Y-83369199D01*
X134574662Y-83669744D01*
X134830256Y-83925338D01*
X135130801Y-84126156D01*
X135464750Y-84264482D01*
X135819268Y-84335000D01*
X136180732Y-84335000D01*
X136535250Y-84264482D01*
X136869199Y-84126156D01*
X137169744Y-83925338D01*
X137425338Y-83669744D01*
X137626156Y-83369199D01*
X137764482Y-83035250D01*
X137835000Y-82680732D01*
X137835000Y-82319268D01*
X137764482Y-81964750D01*
X137626156Y-81630801D01*
X137425338Y-81330256D01*
X137169744Y-81074662D01*
X136869199Y-80873844D01*
X136535250Y-80735518D01*
X136180732Y-80665000D01*
X135819268Y-80665000D01*
X135464750Y-80735518D01*
X135130801Y-80873844D01*
X134830256Y-81074662D01*
X134574662Y-81330256D01*
X134373844Y-81630801D01*
X134235518Y-81964750D01*
X134165000Y-82319268D01*
X132968800Y-82319268D01*
X132846920Y-82228359D01*
X132584099Y-82103175D01*
X132436890Y-82058524D01*
X132207000Y-82179845D01*
X131953000Y-82179845D01*
X131723110Y-82058524D01*
X131575901Y-82103175D01*
X131313080Y-82228359D01*
X131079731Y-82402412D01*
X130884822Y-82618645D01*
X130815195Y-82735534D01*
X130693475Y-82553368D01*
X130486632Y-82346525D01*
X130243411Y-82184010D01*
X130204499Y-82167892D01*
X130309412Y-82040056D01*
X130391590Y-81886310D01*
X130442196Y-81719487D01*
X130455001Y-81589474D01*
X130455001Y-81589464D01*
X130459282Y-81545998D01*
X130455001Y-81502531D01*
X130455001Y-78588890D01*
X132758524Y-78588890D01*
X132803175Y-78736099D01*
X132928359Y-78998920D01*
X133102412Y-79232269D01*
X133318645Y-79427178D01*
X133568748Y-79576157D01*
X133843109Y-79673481D01*
X134073000Y-79552814D01*
X134073000Y-78359000D01*
X134327000Y-78359000D01*
X134327000Y-79552814D01*
X134556891Y-79673481D01*
X134831252Y-79576157D01*
X135081355Y-79427178D01*
X135297588Y-79232269D01*
X135471641Y-78998920D01*
X135596825Y-78736099D01*
X135641476Y-78588890D01*
X135520155Y-78359000D01*
X134327000Y-78359000D01*
X134073000Y-78359000D01*
X132879845Y-78359000D01*
X132758524Y-78588890D01*
X130455001Y-78588890D01*
X130455001Y-78173807D01*
X130478000Y-78176072D01*
X130942250Y-78173000D01*
X131101000Y-78014250D01*
X131101000Y-77165000D01*
X131355000Y-77165000D01*
X131355000Y-78014250D01*
X131513750Y-78173000D01*
X131978000Y-78176072D01*
X132102482Y-78163812D01*
X132222180Y-78127502D01*
X132332494Y-78068537D01*
X132429185Y-77989185D01*
X132508537Y-77892494D01*
X132567502Y-77782180D01*
X132603812Y-77662482D01*
X132616072Y-77538000D01*
X132613000Y-77323750D01*
X132454250Y-77165000D01*
X131355000Y-77165000D01*
X131101000Y-77165000D01*
X131081000Y-77165000D01*
X131081000Y-76911000D01*
X131101000Y-76911000D01*
X131101000Y-76891000D01*
X131355000Y-76891000D01*
X131355000Y-76911000D01*
X132454250Y-76911000D01*
X132613000Y-76752250D01*
X132615513Y-76577000D01*
X133005344Y-76577000D01*
X133046525Y-76638632D01*
X133253368Y-76845475D01*
X133435534Y-76967195D01*
X133318645Y-77036822D01*
X133102412Y-77231731D01*
X132928359Y-77465080D01*
X132803175Y-77727901D01*
X132758524Y-77875110D01*
X132879845Y-78105000D01*
X134073000Y-78105000D01*
X134073000Y-78085000D01*
X134327000Y-78085000D01*
X134327000Y-78105000D01*
X135520155Y-78105000D01*
X135641476Y-77875110D01*
X135596825Y-77727901D01*
X135471641Y-77465080D01*
X135297588Y-77231731D01*
X135081355Y-77036822D01*
X134964466Y-76967195D01*
X135146632Y-76845475D01*
X135353475Y-76638632D01*
X135515990Y-76395411D01*
X135627932Y-76125158D01*
X135685000Y-75838260D01*
X135685000Y-75545740D01*
X135627932Y-75258842D01*
X135515990Y-74988589D01*
X135353475Y-74745368D01*
X135146632Y-74538525D01*
X134972240Y-74422000D01*
X135146632Y-74305475D01*
X135353475Y-74098632D01*
X135515990Y-73855411D01*
X135627932Y-73585158D01*
X135685000Y-73298260D01*
X135685000Y-73005740D01*
X135627932Y-72718842D01*
X135515990Y-72448589D01*
X135353475Y-72205368D01*
X135146632Y-71998525D01*
X134972240Y-71882000D01*
X135146632Y-71765475D01*
X135353475Y-71558632D01*
X135515990Y-71315411D01*
X135627932Y-71045158D01*
X135685000Y-70758260D01*
X135685000Y-70465740D01*
X135627932Y-70178842D01*
X135515990Y-69908589D01*
X135353475Y-69665368D01*
X135146632Y-69458525D01*
X134964466Y-69336805D01*
X135081355Y-69267178D01*
X135297588Y-69072269D01*
X135471641Y-68838920D01*
X135596825Y-68576099D01*
X135641476Y-68428890D01*
X135520155Y-68199000D01*
X134327000Y-68199000D01*
X134327000Y-68219000D01*
X134073000Y-68219000D01*
X134073000Y-68199000D01*
X134053000Y-68199000D01*
X134053000Y-67945000D01*
X134073000Y-67945000D01*
X134073000Y-67925000D01*
X134327000Y-67925000D01*
X134327000Y-67945000D01*
X135520155Y-67945000D01*
X135641476Y-67715110D01*
X135596825Y-67567901D01*
X135471641Y-67305080D01*
X135297588Y-67071731D01*
X135081355Y-66876822D01*
X134964466Y-66807195D01*
X135146632Y-66685475D01*
X135353475Y-66478632D01*
X135515990Y-66235411D01*
X135627932Y-65965158D01*
X135685000Y-65678260D01*
X135685000Y-65385740D01*
X135647075Y-65195082D01*
X138466001Y-62376156D01*
X138466000Y-83354031D01*
%TA.AperFunction,Conductor*%
D26*
G36*
X138466000Y-83354031D02*
G01*
X136456949Y-84548000D01*
X133124967Y-84548000D01*
X133275178Y-84381355D01*
X133424157Y-84131252D01*
X133521481Y-83856891D01*
X133400814Y-83627000D01*
X132207000Y-83627000D01*
X132207000Y-83647000D01*
X131953000Y-83647000D01*
X131953000Y-83627000D01*
X131933000Y-83627000D01*
X131933000Y-83373000D01*
X131953000Y-83373000D01*
X131953000Y-82179845D01*
X132207000Y-82179845D01*
X132207000Y-83373000D01*
X133400814Y-83373000D01*
X133521481Y-83143109D01*
X133424157Y-82868748D01*
X133275178Y-82618645D01*
X133080269Y-82402412D01*
X132968800Y-82319268D01*
X134165000Y-82319268D01*
X134165000Y-82680732D01*
X134235518Y-83035250D01*
X134373844Y-83369199D01*
X134574662Y-83669744D01*
X134830256Y-83925338D01*
X135130801Y-84126156D01*
X135464750Y-84264482D01*
X135819268Y-84335000D01*
X136180732Y-84335000D01*
X136535250Y-84264482D01*
X136869199Y-84126156D01*
X137169744Y-83925338D01*
X137425338Y-83669744D01*
X137626156Y-83369199D01*
X137764482Y-83035250D01*
X137835000Y-82680732D01*
X137835000Y-82319268D01*
X137764482Y-81964750D01*
X137626156Y-81630801D01*
X137425338Y-81330256D01*
X137169744Y-81074662D01*
X136869199Y-80873844D01*
X136535250Y-80735518D01*
X136180732Y-80665000D01*
X135819268Y-80665000D01*
X135464750Y-80735518D01*
X135130801Y-80873844D01*
X134830256Y-81074662D01*
X134574662Y-81330256D01*
X134373844Y-81630801D01*
X134235518Y-81964750D01*
X134165000Y-82319268D01*
X132968800Y-82319268D01*
X132846920Y-82228359D01*
X132584099Y-82103175D01*
X132436890Y-82058524D01*
X132207000Y-82179845D01*
X131953000Y-82179845D01*
X131723110Y-82058524D01*
X131575901Y-82103175D01*
X131313080Y-82228359D01*
X131079731Y-82402412D01*
X130884822Y-82618645D01*
X130815195Y-82735534D01*
X130693475Y-82553368D01*
X130486632Y-82346525D01*
X130243411Y-82184010D01*
X130204499Y-82167892D01*
X130309412Y-82040056D01*
X130391590Y-81886310D01*
X130442196Y-81719487D01*
X130455001Y-81589474D01*
X130455001Y-81589464D01*
X130459282Y-81545998D01*
X130455001Y-81502531D01*
X130455001Y-78588890D01*
X132758524Y-78588890D01*
X132803175Y-78736099D01*
X132928359Y-78998920D01*
X133102412Y-79232269D01*
X133318645Y-79427178D01*
X133568748Y-79576157D01*
X133843109Y-79673481D01*
X134073000Y-79552814D01*
X134073000Y-78359000D01*
X134327000Y-78359000D01*
X134327000Y-79552814D01*
X134556891Y-79673481D01*
X134831252Y-79576157D01*
X135081355Y-79427178D01*
X135297588Y-79232269D01*
X135471641Y-78998920D01*
X135596825Y-78736099D01*
X135641476Y-78588890D01*
X135520155Y-78359000D01*
X134327000Y-78359000D01*
X134073000Y-78359000D01*
X132879845Y-78359000D01*
X132758524Y-78588890D01*
X130455001Y-78588890D01*
X130455001Y-78173807D01*
X130478000Y-78176072D01*
X130942250Y-78173000D01*
X131101000Y-78014250D01*
X131101000Y-77165000D01*
X131355000Y-77165000D01*
X131355000Y-78014250D01*
X131513750Y-78173000D01*
X131978000Y-78176072D01*
X132102482Y-78163812D01*
X132222180Y-78127502D01*
X132332494Y-78068537D01*
X132429185Y-77989185D01*
X132508537Y-77892494D01*
X132567502Y-77782180D01*
X132603812Y-77662482D01*
X132616072Y-77538000D01*
X132613000Y-77323750D01*
X132454250Y-77165000D01*
X131355000Y-77165000D01*
X131101000Y-77165000D01*
X131081000Y-77165000D01*
X131081000Y-76911000D01*
X131101000Y-76911000D01*
X131101000Y-76891000D01*
X131355000Y-76891000D01*
X131355000Y-76911000D01*
X132454250Y-76911000D01*
X132613000Y-76752250D01*
X132615513Y-76577000D01*
X133005344Y-76577000D01*
X133046525Y-76638632D01*
X133253368Y-76845475D01*
X133435534Y-76967195D01*
X133318645Y-77036822D01*
X133102412Y-77231731D01*
X132928359Y-77465080D01*
X132803175Y-77727901D01*
X132758524Y-77875110D01*
X132879845Y-78105000D01*
X134073000Y-78105000D01*
X134073000Y-78085000D01*
X134327000Y-78085000D01*
X134327000Y-78105000D01*
X135520155Y-78105000D01*
X135641476Y-77875110D01*
X135596825Y-77727901D01*
X135471641Y-77465080D01*
X135297588Y-77231731D01*
X135081355Y-77036822D01*
X134964466Y-76967195D01*
X135146632Y-76845475D01*
X135353475Y-76638632D01*
X135515990Y-76395411D01*
X135627932Y-76125158D01*
X135685000Y-75838260D01*
X135685000Y-75545740D01*
X135627932Y-75258842D01*
X135515990Y-74988589D01*
X135353475Y-74745368D01*
X135146632Y-74538525D01*
X134972240Y-74422000D01*
X135146632Y-74305475D01*
X135353475Y-74098632D01*
X135515990Y-73855411D01*
X135627932Y-73585158D01*
X135685000Y-73298260D01*
X135685000Y-73005740D01*
X135627932Y-72718842D01*
X135515990Y-72448589D01*
X135353475Y-72205368D01*
X135146632Y-71998525D01*
X134972240Y-71882000D01*
X135146632Y-71765475D01*
X135353475Y-71558632D01*
X135515990Y-71315411D01*
X135627932Y-71045158D01*
X135685000Y-70758260D01*
X135685000Y-70465740D01*
X135627932Y-70178842D01*
X135515990Y-69908589D01*
X135353475Y-69665368D01*
X135146632Y-69458525D01*
X134964466Y-69336805D01*
X135081355Y-69267178D01*
X135297588Y-69072269D01*
X135471641Y-68838920D01*
X135596825Y-68576099D01*
X135641476Y-68428890D01*
X135520155Y-68199000D01*
X134327000Y-68199000D01*
X134327000Y-68219000D01*
X134073000Y-68219000D01*
X134073000Y-68199000D01*
X134053000Y-68199000D01*
X134053000Y-67945000D01*
X134073000Y-67945000D01*
X134073000Y-67925000D01*
X134327000Y-67925000D01*
X134327000Y-67945000D01*
X135520155Y-67945000D01*
X135641476Y-67715110D01*
X135596825Y-67567901D01*
X135471641Y-67305080D01*
X135297588Y-67071731D01*
X135081355Y-66876822D01*
X134964466Y-66807195D01*
X135146632Y-66685475D01*
X135353475Y-66478632D01*
X135515990Y-66235411D01*
X135627932Y-65965158D01*
X135685000Y-65678260D01*
X135685000Y-65385740D01*
X135647075Y-65195082D01*
X138466001Y-62376156D01*
X138466000Y-83354031D01*
G37*
%TD.AperFunction*%
D25*
X117971528Y-76269851D02*
X118010000Y-76341826D01*
X117986463Y-76370506D01*
X117927498Y-76480820D01*
X117891188Y-76600518D01*
X117878928Y-76725000D01*
X117882000Y-77164250D01*
X118040750Y-77323000D01*
X118977500Y-77323000D01*
X118977500Y-77303000D01*
X119231500Y-77303000D01*
X119231500Y-77323000D01*
X119251500Y-77323000D01*
X119251500Y-77577000D01*
X119231500Y-77577000D01*
X119231500Y-78651250D01*
X119257001Y-78676751D01*
X119257001Y-78828821D01*
X119210498Y-78915820D01*
X119174188Y-79035518D01*
X119161928Y-79160000D01*
X119161928Y-80860000D01*
X119174188Y-80984482D01*
X119210498Y-81104180D01*
X119269463Y-81214494D01*
X119348815Y-81311185D01*
X119445506Y-81390537D01*
X119555820Y-81449502D01*
X119675518Y-81485812D01*
X119800000Y-81498072D01*
X120401062Y-81498072D01*
X119887207Y-82011928D01*
X118530000Y-82011928D01*
X118405518Y-82024188D01*
X118285820Y-82060498D01*
X118175506Y-82119463D01*
X118078815Y-82198815D01*
X117999463Y-82295506D01*
X117940498Y-82405820D01*
X117935001Y-82423941D01*
X117935001Y-81773017D01*
X117939041Y-81731999D01*
X117922919Y-81568310D01*
X117875173Y-81410912D01*
X117797637Y-81265853D01*
X117719440Y-81170569D01*
X117719438Y-81170567D01*
X117693292Y-81138708D01*
X117661434Y-81112563D01*
X116244051Y-79695181D01*
X116353740Y-79717000D01*
X116646260Y-79717000D01*
X116933158Y-79659932D01*
X117203411Y-79547990D01*
X117446632Y-79385475D01*
X117653475Y-79178632D01*
X117815990Y-78935411D01*
X117927932Y-78665158D01*
X117963473Y-78486483D01*
X117986463Y-78529494D01*
X118065815Y-78626185D01*
X118162506Y-78705537D01*
X118272820Y-78764502D01*
X118392518Y-78800812D01*
X118517000Y-78813072D01*
X118818750Y-78810000D01*
X118977500Y-78651250D01*
X118977500Y-77577000D01*
X118040750Y-77577000D01*
X117896000Y-77721750D01*
X117815990Y-77528589D01*
X117653475Y-77285368D01*
X117446632Y-77078525D01*
X117272240Y-76962000D01*
X117446632Y-76845475D01*
X117653475Y-76638632D01*
X117815990Y-76395411D01*
X117927761Y-76125570D01*
X117971528Y-76269851D01*
%TA.AperFunction,Conductor*%
D26*
G36*
X117971528Y-76269851D02*
G01*
X118010000Y-76341826D01*
X117986463Y-76370506D01*
X117927498Y-76480820D01*
X117891188Y-76600518D01*
X117878928Y-76725000D01*
X117882000Y-77164250D01*
X118040750Y-77323000D01*
X118977500Y-77323000D01*
X118977500Y-77303000D01*
X119231500Y-77303000D01*
X119231500Y-77323000D01*
X119251500Y-77323000D01*
X119251500Y-77577000D01*
X119231500Y-77577000D01*
X119231500Y-78651250D01*
X119257001Y-78676751D01*
X119257001Y-78828821D01*
X119210498Y-78915820D01*
X119174188Y-79035518D01*
X119161928Y-79160000D01*
X119161928Y-80860000D01*
X119174188Y-80984482D01*
X119210498Y-81104180D01*
X119269463Y-81214494D01*
X119348815Y-81311185D01*
X119445506Y-81390537D01*
X119555820Y-81449502D01*
X119675518Y-81485812D01*
X119800000Y-81498072D01*
X120401062Y-81498072D01*
X119887207Y-82011928D01*
X118530000Y-82011928D01*
X118405518Y-82024188D01*
X118285820Y-82060498D01*
X118175506Y-82119463D01*
X118078815Y-82198815D01*
X117999463Y-82295506D01*
X117940498Y-82405820D01*
X117935001Y-82423941D01*
X117935001Y-81773017D01*
X117939041Y-81731999D01*
X117922919Y-81568310D01*
X117875173Y-81410912D01*
X117797637Y-81265853D01*
X117719440Y-81170569D01*
X117719438Y-81170567D01*
X117693292Y-81138708D01*
X117661434Y-81112563D01*
X116244051Y-79695181D01*
X116353740Y-79717000D01*
X116646260Y-79717000D01*
X116933158Y-79659932D01*
X117203411Y-79547990D01*
X117446632Y-79385475D01*
X117653475Y-79178632D01*
X117815990Y-78935411D01*
X117927932Y-78665158D01*
X117963473Y-78486483D01*
X117986463Y-78529494D01*
X118065815Y-78626185D01*
X118162506Y-78705537D01*
X118272820Y-78764502D01*
X118392518Y-78800812D01*
X118517000Y-78813072D01*
X118818750Y-78810000D01*
X118977500Y-78651250D01*
X118977500Y-77577000D01*
X118040750Y-77577000D01*
X117896000Y-77721750D01*
X117815990Y-77528589D01*
X117653475Y-77285368D01*
X117446632Y-77078525D01*
X117272240Y-76962000D01*
X117446632Y-76845475D01*
X117653475Y-76638632D01*
X117815990Y-76395411D01*
X117927761Y-76125570D01*
X117971528Y-76269851D01*
G37*
%TD.AperFunction*%
D25*
X128685001Y-78586150D02*
X128626890Y-78568524D01*
X128397000Y-78689845D01*
X128397000Y-79883000D01*
X128417000Y-79883000D01*
X128417000Y-80137000D01*
X128397000Y-80137000D01*
X128397000Y-80157000D01*
X128143000Y-80157000D01*
X128143000Y-80137000D01*
X128123000Y-80137000D01*
X128123000Y-79883000D01*
X128143000Y-79883000D01*
X128143000Y-78689845D01*
X127913110Y-78568524D01*
X127765901Y-78613175D01*
X127503080Y-78738359D01*
X127269731Y-78912412D01*
X127074822Y-79128645D01*
X127005195Y-79245534D01*
X126883475Y-79063368D01*
X126676632Y-78856525D01*
X126433411Y-78694010D01*
X126163158Y-78582068D01*
X125888098Y-78527355D01*
X125949588Y-78412314D01*
X126000194Y-78245491D01*
X126007031Y-78176072D01*
X127078000Y-78176072D01*
X127202482Y-78163812D01*
X127322180Y-78127502D01*
X127432494Y-78068537D01*
X127529185Y-77989185D01*
X127608537Y-77892494D01*
X127667502Y-77782180D01*
X127703812Y-77662482D01*
X127716072Y-77538000D01*
X127716072Y-76941618D01*
X127914061Y-76981000D01*
X128117939Y-76981000D01*
X128317898Y-76941226D01*
X128506256Y-76863205D01*
X128675774Y-76749937D01*
X128685001Y-76740710D01*
X128685001Y-78586150D01*
%TA.AperFunction,Conductor*%
D26*
G36*
X128685001Y-78586150D02*
G01*
X128626890Y-78568524D01*
X128397000Y-78689845D01*
X128397000Y-79883000D01*
X128417000Y-79883000D01*
X128417000Y-80137000D01*
X128397000Y-80137000D01*
X128397000Y-80157000D01*
X128143000Y-80157000D01*
X128143000Y-80137000D01*
X128123000Y-80137000D01*
X128123000Y-79883000D01*
X128143000Y-79883000D01*
X128143000Y-78689845D01*
X127913110Y-78568524D01*
X127765901Y-78613175D01*
X127503080Y-78738359D01*
X127269731Y-78912412D01*
X127074822Y-79128645D01*
X127005195Y-79245534D01*
X126883475Y-79063368D01*
X126676632Y-78856525D01*
X126433411Y-78694010D01*
X126163158Y-78582068D01*
X125888098Y-78527355D01*
X125949588Y-78412314D01*
X126000194Y-78245491D01*
X126007031Y-78176072D01*
X127078000Y-78176072D01*
X127202482Y-78163812D01*
X127322180Y-78127502D01*
X127432494Y-78068537D01*
X127529185Y-77989185D01*
X127608537Y-77892494D01*
X127667502Y-77782180D01*
X127703812Y-77662482D01*
X127716072Y-77538000D01*
X127716072Y-76941618D01*
X127914061Y-76981000D01*
X128117939Y-76981000D01*
X128317898Y-76941226D01*
X128506256Y-76863205D01*
X128675774Y-76749937D01*
X128685001Y-76740710D01*
X128685001Y-78586150D01*
G37*
%TD.AperFunction*%
D25*
X119761000Y-73554500D02*
X119781000Y-73554500D01*
X119781000Y-73808500D01*
X119761000Y-73808500D01*
X119761000Y-73828500D01*
X119507000Y-73828500D01*
X119507000Y-73808500D01*
X119487000Y-73808500D01*
X119487000Y-73554500D01*
X119507000Y-73554500D01*
X119507000Y-73534500D01*
X119761000Y-73534500D01*
X119761000Y-73554500D01*
%TA.AperFunction,Conductor*%
D26*
G36*
X119761000Y-73554500D02*
G01*
X119781000Y-73554500D01*
X119781000Y-73808500D01*
X119761000Y-73808500D01*
X119761000Y-73828500D01*
X119507000Y-73828500D01*
X119507000Y-73808500D01*
X119487000Y-73808500D01*
X119487000Y-73554500D01*
X119507000Y-73554500D01*
X119507000Y-73534500D01*
X119761000Y-73534500D01*
X119761000Y-73554500D01*
G37*
%TD.AperFunction*%
D25*
X116627000Y-70485000D02*
X116647000Y-70485000D01*
X116647000Y-70739000D01*
X116627000Y-70739000D01*
X116627000Y-70759000D01*
X116373000Y-70759000D01*
X116373000Y-70739000D01*
X116353000Y-70739000D01*
X116353000Y-70485000D01*
X116373000Y-70485000D01*
X116373000Y-70465000D01*
X116627000Y-70465000D01*
X116627000Y-70485000D01*
%TA.AperFunction,Conductor*%
D26*
G36*
X116627000Y-70485000D02*
G01*
X116647000Y-70485000D01*
X116647000Y-70739000D01*
X116627000Y-70739000D01*
X116627000Y-70759000D01*
X116373000Y-70759000D01*
X116373000Y-70739000D01*
X116353000Y-70739000D01*
X116353000Y-70485000D01*
X116373000Y-70485000D01*
X116373000Y-70465000D01*
X116627000Y-70465000D01*
X116627000Y-70485000D01*
G37*
%TD.AperFunction*%
D25*
X118727000Y-53087000D02*
X118747000Y-53087000D01*
X118747000Y-53341000D01*
X118727000Y-53341000D01*
X118727000Y-54690250D01*
X118885750Y-54849000D01*
X119100000Y-54852072D01*
X119224482Y-54839812D01*
X119344180Y-54803502D01*
X119454494Y-54744537D01*
X119551185Y-54665185D01*
X119600000Y-54605704D01*
X119648815Y-54665185D01*
X119745506Y-54744537D01*
X119855820Y-54803502D01*
X119975518Y-54839812D01*
X120100000Y-54852072D01*
X121100000Y-54852072D01*
X121224482Y-54839812D01*
X121344180Y-54803502D01*
X121454494Y-54744537D01*
X121551185Y-54665185D01*
X121600000Y-54605704D01*
X121648815Y-54665185D01*
X121745506Y-54744537D01*
X121815000Y-54781683D01*
X121815001Y-56861979D01*
X121811203Y-56900542D01*
X121826359Y-57054428D01*
X121871246Y-57202401D01*
X121882715Y-57223858D01*
X121944139Y-57338775D01*
X121957738Y-57355345D01*
X122017655Y-57428354D01*
X122017659Y-57428358D01*
X122042237Y-57458306D01*
X122072185Y-57482884D01*
X126769112Y-62179811D01*
X126793695Y-62209765D01*
X126913226Y-62307863D01*
X127033025Y-62371896D01*
X127049599Y-62380755D01*
X127197572Y-62425643D01*
X127272485Y-62433021D01*
X127312898Y-62437001D01*
X127312903Y-62437001D01*
X127351459Y-62440798D01*
X127390015Y-62437001D01*
X132822536Y-62437001D01*
X132772068Y-62558842D01*
X132715000Y-62845740D01*
X132715000Y-63138260D01*
X132772068Y-63425158D01*
X132884010Y-63695411D01*
X133046525Y-63938632D01*
X133253368Y-64145475D01*
X133427760Y-64262000D01*
X133253368Y-64378525D01*
X133046525Y-64585368D01*
X132884010Y-64828589D01*
X132772068Y-65098842D01*
X132715000Y-65385740D01*
X132715000Y-65678260D01*
X132758790Y-65898408D01*
X131081271Y-67575928D01*
X130220956Y-67575928D01*
X130220956Y-64282755D01*
X130264893Y-64238818D01*
X130378161Y-64069300D01*
X130456182Y-63880942D01*
X130495956Y-63680983D01*
X130495956Y-63477105D01*
X130456182Y-63277146D01*
X130378161Y-63088788D01*
X130264893Y-62919270D01*
X130120730Y-62775107D01*
X129951212Y-62661839D01*
X129762854Y-62583818D01*
X129562895Y-62544044D01*
X129359017Y-62544044D01*
X129159058Y-62583818D01*
X128970700Y-62661839D01*
X128801182Y-62775107D01*
X128657019Y-62919270D01*
X128543751Y-63088788D01*
X128465730Y-63277146D01*
X128425956Y-63477105D01*
X128425956Y-63680983D01*
X128465730Y-63880942D01*
X128543751Y-64069300D01*
X128657019Y-64238818D01*
X128700957Y-64282756D01*
X128700957Y-67575928D01*
X128100000Y-67575928D01*
X127975518Y-67588188D01*
X127855820Y-67624498D01*
X127745506Y-67683463D01*
X127648815Y-67762815D01*
X127600000Y-67822296D01*
X127551185Y-67762815D01*
X127454494Y-67683463D01*
X127344180Y-67624498D01*
X127224482Y-67588188D01*
X127100000Y-67575928D01*
X126100000Y-67575928D01*
X125975518Y-67588188D01*
X125855820Y-67624498D01*
X125745506Y-67683463D01*
X125648815Y-67762815D01*
X125600000Y-67822296D01*
X125551185Y-67762815D01*
X125454494Y-67683463D01*
X125344180Y-67624498D01*
X125224482Y-67588188D01*
X125100000Y-67575928D01*
X124100000Y-67575928D01*
X123975518Y-67588188D01*
X123855820Y-67624498D01*
X123745506Y-67683463D01*
X123648815Y-67762815D01*
X123600000Y-67822296D01*
X123551185Y-67762815D01*
X123454494Y-67683463D01*
X123344180Y-67624498D01*
X123224482Y-67588188D01*
X123100000Y-67575928D01*
X122100000Y-67575928D01*
X121975518Y-67588188D01*
X121855820Y-67624498D01*
X121745506Y-67683463D01*
X121648815Y-67762815D01*
X121600000Y-67822296D01*
X121551185Y-67762815D01*
X121454494Y-67683463D01*
X121344180Y-67624498D01*
X121224482Y-67588188D01*
X121100000Y-67575928D01*
X120885750Y-67579000D01*
X120727000Y-67737750D01*
X120727000Y-69087000D01*
X120747000Y-69087000D01*
X120747000Y-69341000D01*
X120727000Y-69341000D01*
X120727000Y-69361000D01*
X120473000Y-69361000D01*
X120473000Y-69341000D01*
X120453000Y-69341000D01*
X120453000Y-69087000D01*
X120473000Y-69087000D01*
X120473000Y-67737750D01*
X120314250Y-67579000D01*
X120100000Y-67575928D01*
X119975518Y-67588188D01*
X119855820Y-67624498D01*
X119745506Y-67683463D01*
X119648815Y-67762815D01*
X119600000Y-67822296D01*
X119551185Y-67762815D01*
X119454494Y-67683463D01*
X119344180Y-67624498D01*
X119224482Y-67588188D01*
X119100000Y-67575928D01*
X118100000Y-67575928D01*
X117975518Y-67588188D01*
X117914604Y-67606666D01*
X117815990Y-67368589D01*
X117653475Y-67125368D01*
X117446632Y-66918525D01*
X117272240Y-66802000D01*
X117446632Y-66685475D01*
X117653475Y-66478632D01*
X117815990Y-66235411D01*
X117927932Y-65965158D01*
X117985000Y-65678260D01*
X117985000Y-65385740D01*
X117927932Y-65098842D01*
X117918885Y-65077001D01*
X122500979Y-65077001D01*
X122541997Y-65081041D01*
X122583015Y-65077001D01*
X122583016Y-65077001D01*
X122705686Y-65064919D01*
X122863084Y-65017173D01*
X123008143Y-64939637D01*
X123135288Y-64835292D01*
X123161443Y-64803422D01*
X124870775Y-63094090D01*
X125015898Y-63065224D01*
X125204256Y-62987203D01*
X125373774Y-62873935D01*
X125517937Y-62729772D01*
X125631205Y-62560254D01*
X125709226Y-62371896D01*
X125749000Y-62171937D01*
X125749000Y-61968059D01*
X125709226Y-61768100D01*
X125631205Y-61579742D01*
X125517937Y-61410224D01*
X125373774Y-61266061D01*
X125204256Y-61152793D01*
X125015898Y-61074772D01*
X124815939Y-61034998D01*
X124612061Y-61034998D01*
X124412102Y-61074772D01*
X124223744Y-61152793D01*
X124054226Y-61266061D01*
X123910063Y-61410224D01*
X123796795Y-61579742D01*
X123718774Y-61768100D01*
X123689908Y-61913223D01*
X122196130Y-63407001D01*
X117931544Y-63407001D01*
X117985000Y-63138260D01*
X117985000Y-62845740D01*
X117927932Y-62558842D01*
X117815990Y-62288589D01*
X117653475Y-62045368D01*
X117446632Y-61838525D01*
X117272240Y-61722000D01*
X117446632Y-61605475D01*
X117653475Y-61398632D01*
X117815990Y-61155411D01*
X117927932Y-60885158D01*
X117985000Y-60598260D01*
X117985000Y-60305740D01*
X117927932Y-60018842D01*
X117815990Y-59748589D01*
X117653475Y-59505368D01*
X117446632Y-59298525D01*
X117272240Y-59182000D01*
X117446632Y-59065475D01*
X117653475Y-58858632D01*
X117815990Y-58615411D01*
X117927932Y-58345158D01*
X117985000Y-58058260D01*
X117985000Y-57765740D01*
X117927932Y-57478842D01*
X117815990Y-57208589D01*
X117653475Y-56965368D01*
X117446632Y-56758525D01*
X117272240Y-56642000D01*
X117446632Y-56525475D01*
X117653475Y-56318632D01*
X117815990Y-56075411D01*
X117927932Y-55805158D01*
X117985000Y-55518260D01*
X117985000Y-55225740D01*
X117927932Y-54938842D01*
X117874179Y-54809071D01*
X117975518Y-54839812D01*
X118100000Y-54852072D01*
X118314250Y-54849000D01*
X118473000Y-54690250D01*
X118473000Y-53341000D01*
X118453000Y-53341000D01*
X118453000Y-53087000D01*
X118473000Y-53087000D01*
X118473000Y-53067000D01*
X118727000Y-53067000D01*
X118727000Y-53087000D01*
%TA.AperFunction,Conductor*%
D26*
G36*
X118727000Y-53087000D02*
G01*
X118747000Y-53087000D01*
X118747000Y-53341000D01*
X118727000Y-53341000D01*
X118727000Y-54690250D01*
X118885750Y-54849000D01*
X119100000Y-54852072D01*
X119224482Y-54839812D01*
X119344180Y-54803502D01*
X119454494Y-54744537D01*
X119551185Y-54665185D01*
X119600000Y-54605704D01*
X119648815Y-54665185D01*
X119745506Y-54744537D01*
X119855820Y-54803502D01*
X119975518Y-54839812D01*
X120100000Y-54852072D01*
X121100000Y-54852072D01*
X121224482Y-54839812D01*
X121344180Y-54803502D01*
X121454494Y-54744537D01*
X121551185Y-54665185D01*
X121600000Y-54605704D01*
X121648815Y-54665185D01*
X121745506Y-54744537D01*
X121815000Y-54781683D01*
X121815001Y-56861979D01*
X121811203Y-56900542D01*
X121826359Y-57054428D01*
X121871246Y-57202401D01*
X121882715Y-57223858D01*
X121944139Y-57338775D01*
X121957738Y-57355345D01*
X122017655Y-57428354D01*
X122017659Y-57428358D01*
X122042237Y-57458306D01*
X122072185Y-57482884D01*
X126769112Y-62179811D01*
X126793695Y-62209765D01*
X126913226Y-62307863D01*
X127033025Y-62371896D01*
X127049599Y-62380755D01*
X127197572Y-62425643D01*
X127272485Y-62433021D01*
X127312898Y-62437001D01*
X127312903Y-62437001D01*
X127351459Y-62440798D01*
X127390015Y-62437001D01*
X132822536Y-62437001D01*
X132772068Y-62558842D01*
X132715000Y-62845740D01*
X132715000Y-63138260D01*
X132772068Y-63425158D01*
X132884010Y-63695411D01*
X133046525Y-63938632D01*
X133253368Y-64145475D01*
X133427760Y-64262000D01*
X133253368Y-64378525D01*
X133046525Y-64585368D01*
X132884010Y-64828589D01*
X132772068Y-65098842D01*
X132715000Y-65385740D01*
X132715000Y-65678260D01*
X132758790Y-65898408D01*
X131081271Y-67575928D01*
X130220956Y-67575928D01*
X130220956Y-64282755D01*
X130264893Y-64238818D01*
X130378161Y-64069300D01*
X130456182Y-63880942D01*
X130495956Y-63680983D01*
X130495956Y-63477105D01*
X130456182Y-63277146D01*
X130378161Y-63088788D01*
X130264893Y-62919270D01*
X130120730Y-62775107D01*
X129951212Y-62661839D01*
X129762854Y-62583818D01*
X129562895Y-62544044D01*
X129359017Y-62544044D01*
X129159058Y-62583818D01*
X128970700Y-62661839D01*
X128801182Y-62775107D01*
X128657019Y-62919270D01*
X128543751Y-63088788D01*
X128465730Y-63277146D01*
X128425956Y-63477105D01*
X128425956Y-63680983D01*
X128465730Y-63880942D01*
X128543751Y-64069300D01*
X128657019Y-64238818D01*
X128700957Y-64282756D01*
X128700957Y-67575928D01*
X128100000Y-67575928D01*
X127975518Y-67588188D01*
X127855820Y-67624498D01*
X127745506Y-67683463D01*
X127648815Y-67762815D01*
X127600000Y-67822296D01*
X127551185Y-67762815D01*
X127454494Y-67683463D01*
X127344180Y-67624498D01*
X127224482Y-67588188D01*
X127100000Y-67575928D01*
X126100000Y-67575928D01*
X125975518Y-67588188D01*
X125855820Y-67624498D01*
X125745506Y-67683463D01*
X125648815Y-67762815D01*
X125600000Y-67822296D01*
X125551185Y-67762815D01*
X125454494Y-67683463D01*
X125344180Y-67624498D01*
X125224482Y-67588188D01*
X125100000Y-67575928D01*
X124100000Y-67575928D01*
X123975518Y-67588188D01*
X123855820Y-67624498D01*
X123745506Y-67683463D01*
X123648815Y-67762815D01*
X123600000Y-67822296D01*
X123551185Y-67762815D01*
X123454494Y-67683463D01*
X123344180Y-67624498D01*
X123224482Y-67588188D01*
X123100000Y-67575928D01*
X122100000Y-67575928D01*
X121975518Y-67588188D01*
X121855820Y-67624498D01*
X121745506Y-67683463D01*
X121648815Y-67762815D01*
X121600000Y-67822296D01*
X121551185Y-67762815D01*
X121454494Y-67683463D01*
X121344180Y-67624498D01*
X121224482Y-67588188D01*
X121100000Y-67575928D01*
X120885750Y-67579000D01*
X120727000Y-67737750D01*
X120727000Y-69087000D01*
X120747000Y-69087000D01*
X120747000Y-69341000D01*
X120727000Y-69341000D01*
X120727000Y-69361000D01*
X120473000Y-69361000D01*
X120473000Y-69341000D01*
X120453000Y-69341000D01*
X120453000Y-69087000D01*
X120473000Y-69087000D01*
X120473000Y-67737750D01*
X120314250Y-67579000D01*
X120100000Y-67575928D01*
X119975518Y-67588188D01*
X119855820Y-67624498D01*
X119745506Y-67683463D01*
X119648815Y-67762815D01*
X119600000Y-67822296D01*
X119551185Y-67762815D01*
X119454494Y-67683463D01*
X119344180Y-67624498D01*
X119224482Y-67588188D01*
X119100000Y-67575928D01*
X118100000Y-67575928D01*
X117975518Y-67588188D01*
X117914604Y-67606666D01*
X117815990Y-67368589D01*
X117653475Y-67125368D01*
X117446632Y-66918525D01*
X117272240Y-66802000D01*
X117446632Y-66685475D01*
X117653475Y-66478632D01*
X117815990Y-66235411D01*
X117927932Y-65965158D01*
X117985000Y-65678260D01*
X117985000Y-65385740D01*
X117927932Y-65098842D01*
X117918885Y-65077001D01*
X122500979Y-65077001D01*
X122541997Y-65081041D01*
X122583015Y-65077001D01*
X122583016Y-65077001D01*
X122705686Y-65064919D01*
X122863084Y-65017173D01*
X123008143Y-64939637D01*
X123135288Y-64835292D01*
X123161443Y-64803422D01*
X124870775Y-63094090D01*
X125015898Y-63065224D01*
X125204256Y-62987203D01*
X125373774Y-62873935D01*
X125517937Y-62729772D01*
X125631205Y-62560254D01*
X125709226Y-62371896D01*
X125749000Y-62171937D01*
X125749000Y-61968059D01*
X125709226Y-61768100D01*
X125631205Y-61579742D01*
X125517937Y-61410224D01*
X125373774Y-61266061D01*
X125204256Y-61152793D01*
X125015898Y-61074772D01*
X124815939Y-61034998D01*
X124612061Y-61034998D01*
X124412102Y-61074772D01*
X124223744Y-61152793D01*
X124054226Y-61266061D01*
X123910063Y-61410224D01*
X123796795Y-61579742D01*
X123718774Y-61768100D01*
X123689908Y-61913223D01*
X122196130Y-63407001D01*
X117931544Y-63407001D01*
X117985000Y-63138260D01*
X117985000Y-62845740D01*
X117927932Y-62558842D01*
X117815990Y-62288589D01*
X117653475Y-62045368D01*
X117446632Y-61838525D01*
X117272240Y-61722000D01*
X117446632Y-61605475D01*
X117653475Y-61398632D01*
X117815990Y-61155411D01*
X117927932Y-60885158D01*
X117985000Y-60598260D01*
X117985000Y-60305740D01*
X117927932Y-60018842D01*
X117815990Y-59748589D01*
X117653475Y-59505368D01*
X117446632Y-59298525D01*
X117272240Y-59182000D01*
X117446632Y-59065475D01*
X117653475Y-58858632D01*
X117815990Y-58615411D01*
X117927932Y-58345158D01*
X117985000Y-58058260D01*
X117985000Y-57765740D01*
X117927932Y-57478842D01*
X117815990Y-57208589D01*
X117653475Y-56965368D01*
X117446632Y-56758525D01*
X117272240Y-56642000D01*
X117446632Y-56525475D01*
X117653475Y-56318632D01*
X117815990Y-56075411D01*
X117927932Y-55805158D01*
X117985000Y-55518260D01*
X117985000Y-55225740D01*
X117927932Y-54938842D01*
X117874179Y-54809071D01*
X117975518Y-54839812D01*
X118100000Y-54852072D01*
X118314250Y-54849000D01*
X118473000Y-54690250D01*
X118473000Y-53341000D01*
X118453000Y-53341000D01*
X118453000Y-53087000D01*
X118473000Y-53087000D01*
X118473000Y-53067000D01*
X118727000Y-53067000D01*
X118727000Y-53087000D01*
G37*
%TD.AperFunction*%
D25*
X115705999Y-47937677D02*
X115743322Y-47934001D01*
X117794475Y-47934001D01*
X117779992Y-47981746D01*
X117762928Y-48155000D01*
X117762928Y-48830000D01*
X117776795Y-48970799D01*
X117704494Y-48911463D01*
X117594180Y-48852498D01*
X117474482Y-48816188D01*
X117350000Y-48803928D01*
X116785750Y-48807000D01*
X116627000Y-48965750D01*
X116627000Y-50165000D01*
X116647000Y-50165000D01*
X116647000Y-50419000D01*
X116627000Y-50419000D01*
X116627000Y-50439000D01*
X116373000Y-50439000D01*
X116373000Y-50419000D01*
X115173750Y-50419000D01*
X115015000Y-50577750D01*
X115011928Y-51142000D01*
X115024188Y-51266482D01*
X115060498Y-51386180D01*
X115119463Y-51496494D01*
X115198815Y-51593185D01*
X115295506Y-51672537D01*
X115405820Y-51731502D01*
X115478380Y-51753513D01*
X115346525Y-51885368D01*
X115184010Y-52128589D01*
X115072068Y-52398842D01*
X115015000Y-52685740D01*
X115015000Y-52978260D01*
X115072068Y-53265158D01*
X115184010Y-53535411D01*
X115346525Y-53778632D01*
X115553368Y-53985475D01*
X115727760Y-54102000D01*
X115553368Y-54218525D01*
X115346525Y-54425368D01*
X115184010Y-54668589D01*
X115072068Y-54938842D01*
X115015000Y-55225740D01*
X115015000Y-55518260D01*
X115072068Y-55805158D01*
X115184010Y-56075411D01*
X115346525Y-56318632D01*
X115553368Y-56525475D01*
X115727760Y-56642000D01*
X115553368Y-56758525D01*
X115346525Y-56965368D01*
X115184010Y-57208589D01*
X115072068Y-57478842D01*
X115015000Y-57765740D01*
X115015000Y-58058260D01*
X115072068Y-58345158D01*
X115184010Y-58615411D01*
X115346525Y-58858632D01*
X115553368Y-59065475D01*
X115727760Y-59182000D01*
X115553368Y-59298525D01*
X115346525Y-59505368D01*
X115184010Y-59748589D01*
X115072068Y-60018842D01*
X115015000Y-60305740D01*
X115015000Y-60598260D01*
X115072068Y-60885158D01*
X115184010Y-61155411D01*
X115346525Y-61398632D01*
X115553368Y-61605475D01*
X115727760Y-61722000D01*
X115553368Y-61838525D01*
X115346525Y-62045368D01*
X115184010Y-62288589D01*
X115072068Y-62558842D01*
X115015000Y-62845740D01*
X115015000Y-63138260D01*
X115072068Y-63425158D01*
X115184010Y-63695411D01*
X115232759Y-63768370D01*
X113992574Y-65008557D01*
X113964000Y-65032007D01*
X113964000Y-49442000D01*
X115011928Y-49442000D01*
X115015000Y-50006250D01*
X115173750Y-50165000D01*
X116373000Y-50165000D01*
X116373000Y-48965750D01*
X116214250Y-48807000D01*
X115650000Y-48803928D01*
X115525518Y-48816188D01*
X115405820Y-48852498D01*
X115295506Y-48911463D01*
X115198815Y-48990815D01*
X115119463Y-49087506D01*
X115060498Y-49197820D01*
X115024188Y-49317518D01*
X115011928Y-49442000D01*
X113964000Y-49442000D01*
X113964000Y-49295000D01*
X114147939Y-49295000D01*
X114347898Y-49255226D01*
X114536256Y-49177205D01*
X114705774Y-49063937D01*
X114849937Y-48919774D01*
X114963205Y-48750256D01*
X115041226Y-48561898D01*
X115081000Y-48361939D01*
X115081000Y-48299801D01*
X115446801Y-47934001D01*
X115668677Y-47934001D01*
X115705999Y-47937677D01*
%TA.AperFunction,Conductor*%
D26*
G36*
X115705999Y-47937677D02*
G01*
X115743322Y-47934001D01*
X117794475Y-47934001D01*
X117779992Y-47981746D01*
X117762928Y-48155000D01*
X117762928Y-48830000D01*
X117776795Y-48970799D01*
X117704494Y-48911463D01*
X117594180Y-48852498D01*
X117474482Y-48816188D01*
X117350000Y-48803928D01*
X116785750Y-48807000D01*
X116627000Y-48965750D01*
X116627000Y-50165000D01*
X116647000Y-50165000D01*
X116647000Y-50419000D01*
X116627000Y-50419000D01*
X116627000Y-50439000D01*
X116373000Y-50439000D01*
X116373000Y-50419000D01*
X115173750Y-50419000D01*
X115015000Y-50577750D01*
X115011928Y-51142000D01*
X115024188Y-51266482D01*
X115060498Y-51386180D01*
X115119463Y-51496494D01*
X115198815Y-51593185D01*
X115295506Y-51672537D01*
X115405820Y-51731502D01*
X115478380Y-51753513D01*
X115346525Y-51885368D01*
X115184010Y-52128589D01*
X115072068Y-52398842D01*
X115015000Y-52685740D01*
X115015000Y-52978260D01*
X115072068Y-53265158D01*
X115184010Y-53535411D01*
X115346525Y-53778632D01*
X115553368Y-53985475D01*
X115727760Y-54102000D01*
X115553368Y-54218525D01*
X115346525Y-54425368D01*
X115184010Y-54668589D01*
X115072068Y-54938842D01*
X115015000Y-55225740D01*
X115015000Y-55518260D01*
X115072068Y-55805158D01*
X115184010Y-56075411D01*
X115346525Y-56318632D01*
X115553368Y-56525475D01*
X115727760Y-56642000D01*
X115553368Y-56758525D01*
X115346525Y-56965368D01*
X115184010Y-57208589D01*
X115072068Y-57478842D01*
X115015000Y-57765740D01*
X115015000Y-58058260D01*
X115072068Y-58345158D01*
X115184010Y-58615411D01*
X115346525Y-58858632D01*
X115553368Y-59065475D01*
X115727760Y-59182000D01*
X115553368Y-59298525D01*
X115346525Y-59505368D01*
X115184010Y-59748589D01*
X115072068Y-60018842D01*
X115015000Y-60305740D01*
X115015000Y-60598260D01*
X115072068Y-60885158D01*
X115184010Y-61155411D01*
X115346525Y-61398632D01*
X115553368Y-61605475D01*
X115727760Y-61722000D01*
X115553368Y-61838525D01*
X115346525Y-62045368D01*
X115184010Y-62288589D01*
X115072068Y-62558842D01*
X115015000Y-62845740D01*
X115015000Y-63138260D01*
X115072068Y-63425158D01*
X115184010Y-63695411D01*
X115232759Y-63768370D01*
X113992574Y-65008557D01*
X113964000Y-65032007D01*
X113964000Y-49442000D01*
X115011928Y-49442000D01*
X115015000Y-50006250D01*
X115173750Y-50165000D01*
X116373000Y-50165000D01*
X116373000Y-48965750D01*
X116214250Y-48807000D01*
X115650000Y-48803928D01*
X115525518Y-48816188D01*
X115405820Y-48852498D01*
X115295506Y-48911463D01*
X115198815Y-48990815D01*
X115119463Y-49087506D01*
X115060498Y-49197820D01*
X115024188Y-49317518D01*
X115011928Y-49442000D01*
X113964000Y-49442000D01*
X113964000Y-49295000D01*
X114147939Y-49295000D01*
X114347898Y-49255226D01*
X114536256Y-49177205D01*
X114705774Y-49063937D01*
X114849937Y-48919774D01*
X114963205Y-48750256D01*
X115041226Y-48561898D01*
X115081000Y-48361939D01*
X115081000Y-48299801D01*
X115446801Y-47934001D01*
X115668677Y-47934001D01*
X115705999Y-47937677D01*
G37*
%TD.AperFunction*%
D25*
X131191000Y-50694500D02*
X132969000Y-50694500D01*
X132969000Y-50674500D01*
X133223000Y-50674500D01*
X133223000Y-50694500D01*
X135001000Y-50694500D01*
X135001000Y-50674500D01*
X135255000Y-50674500D01*
X135255000Y-50694500D01*
X135275000Y-50694500D01*
X135275000Y-50948500D01*
X135255000Y-50948500D01*
X135255000Y-51885250D01*
X135413750Y-52044000D01*
X135796928Y-52046680D01*
X135796928Y-52429000D01*
X135813992Y-52602254D01*
X135864528Y-52768850D01*
X135946595Y-52922386D01*
X136057038Y-53056962D01*
X136191614Y-53167405D01*
X136345150Y-53249472D01*
X136511746Y-53300008D01*
X136685000Y-53317072D01*
X137635000Y-53317072D01*
X137808254Y-53300008D01*
X137974850Y-53249472D01*
X138128386Y-53167405D01*
X138262962Y-53056962D01*
X138373405Y-52922386D01*
X138455472Y-52768850D01*
X138466001Y-52734141D01*
X138466001Y-56847272D01*
X138430472Y-56730149D01*
X138348405Y-56576613D01*
X138237962Y-56442038D01*
X138103387Y-56331595D01*
X137949851Y-56249528D01*
X137783255Y-56198992D01*
X137610001Y-56181928D01*
X137173507Y-56181928D01*
X135768534Y-54776956D01*
X135740817Y-54743183D01*
X135688072Y-54699896D01*
X135688072Y-54522000D01*
X135675812Y-54397518D01*
X135639502Y-54277820D01*
X135580537Y-54167506D01*
X135501185Y-54070815D01*
X135404494Y-53991463D01*
X135294180Y-53932498D01*
X135174482Y-53896188D01*
X135050000Y-53883928D01*
X133736652Y-53883928D01*
X133735000Y-53499750D01*
X133576250Y-53341000D01*
X132727000Y-53341000D01*
X132727000Y-54388248D01*
X132724188Y-54397518D01*
X132711928Y-54522000D01*
X132711928Y-56222000D01*
X132724188Y-56346482D01*
X132760498Y-56466180D01*
X132819463Y-56576494D01*
X132898815Y-56673185D01*
X132995506Y-56752537D01*
X133105820Y-56811502D01*
X133178380Y-56833513D01*
X133046525Y-56965368D01*
X132884010Y-57208589D01*
X132772068Y-57478842D01*
X132715000Y-57765740D01*
X132715000Y-58058260D01*
X132772068Y-58345158D01*
X132822536Y-58466999D01*
X128387497Y-58466999D01*
X128464836Y-58280288D01*
X128476145Y-58223433D01*
X129195049Y-57504530D01*
X129228817Y-57476817D01*
X129324498Y-57360231D01*
X129339411Y-57342059D01*
X129402590Y-57223858D01*
X129421589Y-57188313D01*
X129472195Y-57021490D01*
X129485000Y-56891477D01*
X129485000Y-56891469D01*
X129489281Y-56848000D01*
X129485000Y-56804531D01*
X129485000Y-54719501D01*
X129551185Y-54665185D01*
X129560070Y-54654359D01*
X129560774Y-54657898D01*
X129638795Y-54846256D01*
X129752063Y-55015774D01*
X129896226Y-55159937D01*
X130065744Y-55273205D01*
X130254102Y-55351226D01*
X130454061Y-55391000D01*
X130657939Y-55391000D01*
X130857898Y-55351226D01*
X131046256Y-55273205D01*
X131215774Y-55159937D01*
X131359937Y-55015774D01*
X131473205Y-54846256D01*
X131546674Y-54668887D01*
X131551185Y-54665185D01*
X131600000Y-54605704D01*
X131648815Y-54665185D01*
X131745506Y-54744537D01*
X131855820Y-54803502D01*
X131975518Y-54839812D01*
X132100000Y-54852072D01*
X132314250Y-54849000D01*
X132473000Y-54690250D01*
X132473000Y-53341000D01*
X132453000Y-53341000D01*
X132453000Y-53087000D01*
X132473000Y-53087000D01*
X132473000Y-53067000D01*
X132727000Y-53067000D01*
X132727000Y-53087000D01*
X133576250Y-53087000D01*
X133735000Y-52928250D01*
X133738072Y-52214000D01*
X133725812Y-52089518D01*
X133712706Y-52046315D01*
X133821000Y-52047072D01*
X133945482Y-52034812D01*
X134065180Y-51998502D01*
X134112000Y-51973476D01*
X134158820Y-51998502D01*
X134278518Y-52034812D01*
X134403000Y-52047072D01*
X134842250Y-52044000D01*
X135001000Y-51885250D01*
X135001000Y-50948500D01*
X133223000Y-50948500D01*
X133223000Y-50968500D01*
X132969000Y-50968500D01*
X132969000Y-50948500D01*
X131191000Y-50948500D01*
X131191000Y-50968500D01*
X130937000Y-50968500D01*
X130937000Y-50948500D01*
X130917000Y-50948500D01*
X130917000Y-50694500D01*
X130937000Y-50694500D01*
X130937000Y-50674500D01*
X131191000Y-50674500D01*
X131191000Y-50694500D01*
%TA.AperFunction,Conductor*%
D26*
G36*
X131191000Y-50694500D02*
G01*
X132969000Y-50694500D01*
X132969000Y-50674500D01*
X133223000Y-50674500D01*
X133223000Y-50694500D01*
X135001000Y-50694500D01*
X135001000Y-50674500D01*
X135255000Y-50674500D01*
X135255000Y-50694500D01*
X135275000Y-50694500D01*
X135275000Y-50948500D01*
X135255000Y-50948500D01*
X135255000Y-51885250D01*
X135413750Y-52044000D01*
X135796928Y-52046680D01*
X135796928Y-52429000D01*
X135813992Y-52602254D01*
X135864528Y-52768850D01*
X135946595Y-52922386D01*
X136057038Y-53056962D01*
X136191614Y-53167405D01*
X136345150Y-53249472D01*
X136511746Y-53300008D01*
X136685000Y-53317072D01*
X137635000Y-53317072D01*
X137808254Y-53300008D01*
X137974850Y-53249472D01*
X138128386Y-53167405D01*
X138262962Y-53056962D01*
X138373405Y-52922386D01*
X138455472Y-52768850D01*
X138466001Y-52734141D01*
X138466001Y-56847272D01*
X138430472Y-56730149D01*
X138348405Y-56576613D01*
X138237962Y-56442038D01*
X138103387Y-56331595D01*
X137949851Y-56249528D01*
X137783255Y-56198992D01*
X137610001Y-56181928D01*
X137173507Y-56181928D01*
X135768534Y-54776956D01*
X135740817Y-54743183D01*
X135688072Y-54699896D01*
X135688072Y-54522000D01*
X135675812Y-54397518D01*
X135639502Y-54277820D01*
X135580537Y-54167506D01*
X135501185Y-54070815D01*
X135404494Y-53991463D01*
X135294180Y-53932498D01*
X135174482Y-53896188D01*
X135050000Y-53883928D01*
X133736652Y-53883928D01*
X133735000Y-53499750D01*
X133576250Y-53341000D01*
X132727000Y-53341000D01*
X132727000Y-54388248D01*
X132724188Y-54397518D01*
X132711928Y-54522000D01*
X132711928Y-56222000D01*
X132724188Y-56346482D01*
X132760498Y-56466180D01*
X132819463Y-56576494D01*
X132898815Y-56673185D01*
X132995506Y-56752537D01*
X133105820Y-56811502D01*
X133178380Y-56833513D01*
X133046525Y-56965368D01*
X132884010Y-57208589D01*
X132772068Y-57478842D01*
X132715000Y-57765740D01*
X132715000Y-58058260D01*
X132772068Y-58345158D01*
X132822536Y-58466999D01*
X128387497Y-58466999D01*
X128464836Y-58280288D01*
X128476145Y-58223433D01*
X129195049Y-57504530D01*
X129228817Y-57476817D01*
X129324498Y-57360231D01*
X129339411Y-57342059D01*
X129402590Y-57223858D01*
X129421589Y-57188313D01*
X129472195Y-57021490D01*
X129485000Y-56891477D01*
X129485000Y-56891469D01*
X129489281Y-56848000D01*
X129485000Y-56804531D01*
X129485000Y-54719501D01*
X129551185Y-54665185D01*
X129560070Y-54654359D01*
X129560774Y-54657898D01*
X129638795Y-54846256D01*
X129752063Y-55015774D01*
X129896226Y-55159937D01*
X130065744Y-55273205D01*
X130254102Y-55351226D01*
X130454061Y-55391000D01*
X130657939Y-55391000D01*
X130857898Y-55351226D01*
X131046256Y-55273205D01*
X131215774Y-55159937D01*
X131359937Y-55015774D01*
X131473205Y-54846256D01*
X131546674Y-54668887D01*
X131551185Y-54665185D01*
X131600000Y-54605704D01*
X131648815Y-54665185D01*
X131745506Y-54744537D01*
X131855820Y-54803502D01*
X131975518Y-54839812D01*
X132100000Y-54852072D01*
X132314250Y-54849000D01*
X132473000Y-54690250D01*
X132473000Y-53341000D01*
X132453000Y-53341000D01*
X132453000Y-53087000D01*
X132473000Y-53087000D01*
X132473000Y-53067000D01*
X132727000Y-53067000D01*
X132727000Y-53087000D01*
X133576250Y-53087000D01*
X133735000Y-52928250D01*
X133738072Y-52214000D01*
X133725812Y-52089518D01*
X133712706Y-52046315D01*
X133821000Y-52047072D01*
X133945482Y-52034812D01*
X134065180Y-51998502D01*
X134112000Y-51973476D01*
X134158820Y-51998502D01*
X134278518Y-52034812D01*
X134403000Y-52047072D01*
X134842250Y-52044000D01*
X135001000Y-51885250D01*
X135001000Y-50948500D01*
X133223000Y-50948500D01*
X133223000Y-50968500D01*
X132969000Y-50968500D01*
X132969000Y-50948500D01*
X131191000Y-50948500D01*
X131191000Y-50968500D01*
X130937000Y-50968500D01*
X130937000Y-50948500D01*
X130917000Y-50948500D01*
X130917000Y-50694500D01*
X130937000Y-50694500D01*
X130937000Y-50674500D01*
X131191000Y-50674500D01*
X131191000Y-50694500D01*
G37*
%TD.AperFunction*%
D25*
X127127000Y-51090500D02*
X127147000Y-51090500D01*
X127147000Y-51344500D01*
X127127000Y-51344500D01*
X127127000Y-51364500D01*
X126873000Y-51364500D01*
X126873000Y-51344500D01*
X126853000Y-51344500D01*
X126853000Y-51090500D01*
X126873000Y-51090500D01*
X126873000Y-51070500D01*
X127127000Y-51070500D01*
X127127000Y-51090500D01*
%TA.AperFunction,Conductor*%
D26*
G36*
X127127000Y-51090500D02*
G01*
X127147000Y-51090500D01*
X127147000Y-51344500D01*
X127127000Y-51344500D01*
X127127000Y-51364500D01*
X126873000Y-51364500D01*
X126873000Y-51344500D01*
X126853000Y-51344500D01*
X126853000Y-51090500D01*
X126873000Y-51090500D01*
X126873000Y-51070500D01*
X127127000Y-51070500D01*
X127127000Y-51090500D01*
G37*
%TD.AperFunction*%
D25*
X129159000Y-50948500D02*
X129179000Y-50948500D01*
X129179000Y-51202500D01*
X129159000Y-51202500D01*
X129159000Y-51222500D01*
X128905000Y-51222500D01*
X128905000Y-51202500D01*
X128885000Y-51202500D01*
X128885000Y-50948500D01*
X128905000Y-50948500D01*
X128905000Y-50928500D01*
X129159000Y-50928500D01*
X129159000Y-50948500D01*
%TA.AperFunction,Conductor*%
D26*
G36*
X129159000Y-50948500D02*
G01*
X129179000Y-50948500D01*
X129179000Y-51202500D01*
X129159000Y-51202500D01*
X129159000Y-51222500D01*
X128905000Y-51222500D01*
X128905000Y-51202500D01*
X128885000Y-51202500D01*
X128885000Y-50948500D01*
X128905000Y-50948500D01*
X128905000Y-50928500D01*
X129159000Y-50928500D01*
X129159000Y-50948500D01*
G37*
%TD.AperFunction*%
D25*
X123189500Y-50673000D02*
X123209500Y-50673000D01*
X123209500Y-50927000D01*
X123189500Y-50927000D01*
X123189500Y-50947000D01*
X122935500Y-50947000D01*
X122935500Y-50927000D01*
X122915500Y-50927000D01*
X122915500Y-50673000D01*
X122935500Y-50673000D01*
X122935500Y-50653000D01*
X123189500Y-50653000D01*
X123189500Y-50673000D01*
%TA.AperFunction,Conductor*%
D26*
G36*
X123189500Y-50673000D02*
G01*
X123209500Y-50673000D01*
X123209500Y-50927000D01*
X123189500Y-50927000D01*
X123189500Y-50947000D01*
X122935500Y-50947000D01*
X122935500Y-50927000D01*
X122915500Y-50927000D01*
X122915500Y-50673000D01*
X122935500Y-50673000D01*
X122935500Y-50653000D01*
X123189500Y-50653000D01*
X123189500Y-50673000D01*
G37*
%TD.AperFunction*%
D25*
X119253000Y-50440500D02*
X121031000Y-50440500D01*
X121031000Y-50420500D01*
X121285000Y-50420500D01*
X121285000Y-50440500D01*
X121305000Y-50440500D01*
X121305000Y-50694500D01*
X121285000Y-50694500D01*
X121285000Y-50714500D01*
X121031000Y-50714500D01*
X121031000Y-50694500D01*
X119253000Y-50694500D01*
X119253000Y-50714500D01*
X118999000Y-50714500D01*
X118999000Y-50694500D01*
X118979000Y-50694500D01*
X118979000Y-50440500D01*
X118999000Y-50440500D01*
X118999000Y-50420500D01*
X119253000Y-50420500D01*
X119253000Y-50440500D01*
%TA.AperFunction,Conductor*%
D26*
G36*
X119253000Y-50440500D02*
G01*
X121031000Y-50440500D01*
X121031000Y-50420500D01*
X121285000Y-50420500D01*
X121285000Y-50440500D01*
X121305000Y-50440500D01*
X121305000Y-50694500D01*
X121285000Y-50694500D01*
X121285000Y-50714500D01*
X121031000Y-50714500D01*
X121031000Y-50694500D01*
X119253000Y-50694500D01*
X119253000Y-50714500D01*
X118999000Y-50714500D01*
X118999000Y-50694500D01*
X118979000Y-50694500D01*
X118979000Y-50440500D01*
X118999000Y-50440500D01*
X118999000Y-50420500D01*
X119253000Y-50420500D01*
X119253000Y-50440500D01*
G37*
%TD.AperFunction*%
D25*
X137287000Y-47646500D02*
X137307000Y-47646500D01*
X137307000Y-47900500D01*
X137287000Y-47900500D01*
X137287000Y-48837250D01*
X137344750Y-48895000D01*
X137287000Y-48952750D01*
X137287000Y-49889500D01*
X137307000Y-49889500D01*
X137307000Y-50143500D01*
X137287000Y-50143500D01*
X137287000Y-50163500D01*
X137033000Y-50163500D01*
X137033000Y-50143500D01*
X137013000Y-50143500D01*
X137013000Y-49889500D01*
X137033000Y-49889500D01*
X137033000Y-48952750D01*
X136975250Y-48895000D01*
X137033000Y-48837250D01*
X137033000Y-47900500D01*
X137013000Y-47900500D01*
X137013000Y-47646500D01*
X137033000Y-47646500D01*
X137033000Y-47626500D01*
X137287000Y-47626500D01*
X137287000Y-47646500D01*
%TA.AperFunction,Conductor*%
D26*
G36*
X137287000Y-47646500D02*
G01*
X137307000Y-47646500D01*
X137307000Y-47900500D01*
X137287000Y-47900500D01*
X137287000Y-48837250D01*
X137344750Y-48895000D01*
X137287000Y-48952750D01*
X137287000Y-49889500D01*
X137307000Y-49889500D01*
X137307000Y-50143500D01*
X137287000Y-50143500D01*
X137287000Y-50163500D01*
X137033000Y-50163500D01*
X137033000Y-50143500D01*
X137013000Y-50143500D01*
X137013000Y-49889500D01*
X137033000Y-49889500D01*
X137033000Y-48952750D01*
X136975250Y-48895000D01*
X137033000Y-48837250D01*
X137033000Y-47900500D01*
X137013000Y-47900500D01*
X137013000Y-47646500D01*
X137033000Y-47646500D01*
X137033000Y-47626500D01*
X137287000Y-47626500D01*
X137287000Y-47646500D01*
G37*
%TD.AperFunction*%
D25*
X132127000Y-42584250D02*
X132285750Y-42743000D01*
X133785000Y-42743000D01*
X133785000Y-42723000D01*
X134039000Y-42723000D01*
X134039000Y-42743000D01*
X135538250Y-42743000D01*
X135697000Y-42584250D01*
X135698949Y-41782000D01*
X136479343Y-41782000D01*
X138466001Y-42973996D01*
X138466001Y-45055859D01*
X138455472Y-45021150D01*
X138373405Y-44867614D01*
X138262962Y-44733038D01*
X138128386Y-44622595D01*
X137974850Y-44540528D01*
X137808254Y-44489992D01*
X137635000Y-44472928D01*
X136685000Y-44472928D01*
X136511746Y-44489992D01*
X136345150Y-44540528D01*
X136191614Y-44622595D01*
X136057038Y-44733038D01*
X135946595Y-44867614D01*
X135908706Y-44938500D01*
X135431161Y-44938500D01*
X135513185Y-44871185D01*
X135592537Y-44774494D01*
X135651502Y-44664180D01*
X135687812Y-44544482D01*
X135700072Y-44420000D01*
X135697000Y-43155750D01*
X135538250Y-42997000D01*
X134039000Y-42997000D01*
X134039000Y-43017000D01*
X133785000Y-43017000D01*
X133785000Y-42997000D01*
X132285750Y-42997000D01*
X132127000Y-43155750D01*
X132126450Y-43381928D01*
X132092000Y-43381928D01*
X131992000Y-43391777D01*
X131892000Y-43381928D01*
X131825111Y-43381928D01*
X131845000Y-43281939D01*
X131845000Y-43078061D01*
X131805226Y-42878102D01*
X131727205Y-42689744D01*
X131613937Y-42520226D01*
X131469774Y-42376063D01*
X131300256Y-42262795D01*
X131111898Y-42184774D01*
X130911939Y-42145000D01*
X130708061Y-42145000D01*
X130508102Y-42184774D01*
X130319744Y-42262795D01*
X130150226Y-42376063D01*
X130006063Y-42520226D01*
X129892795Y-42689744D01*
X129814774Y-42878102D01*
X129775000Y-43078061D01*
X129775000Y-43281939D01*
X129794889Y-43381928D01*
X129592000Y-43381928D01*
X129492000Y-43391777D01*
X129392000Y-43381928D01*
X129092000Y-43381928D01*
X128988159Y-43392155D01*
X128923750Y-43385000D01*
X128891503Y-43417247D01*
X128847820Y-43430498D01*
X128742000Y-43487061D01*
X128636180Y-43430498D01*
X128592497Y-43417247D01*
X128560250Y-43385000D01*
X128495841Y-43392155D01*
X128392000Y-43381928D01*
X128092000Y-43381928D01*
X127992000Y-43391777D01*
X127892000Y-43381928D01*
X127592000Y-43381928D01*
X127492000Y-43391777D01*
X127392000Y-43381928D01*
X127092000Y-43381928D01*
X126992000Y-43391777D01*
X126892000Y-43381928D01*
X126592000Y-43381928D01*
X126492000Y-43391777D01*
X126392000Y-43381928D01*
X126092000Y-43381928D01*
X125992000Y-43391777D01*
X125892000Y-43381928D01*
X125592000Y-43381928D01*
X125492000Y-43391777D01*
X125392000Y-43381928D01*
X125092000Y-43381928D01*
X124992000Y-43391777D01*
X124892000Y-43381928D01*
X124592000Y-43381928D01*
X124488159Y-43392155D01*
X124423750Y-43385000D01*
X124391503Y-43417247D01*
X124347820Y-43430498D01*
X124242000Y-43487061D01*
X124136180Y-43430498D01*
X124092497Y-43417247D01*
X124060250Y-43385000D01*
X123995841Y-43392155D01*
X123892000Y-43381928D01*
X123592000Y-43381928D01*
X123492000Y-43391777D01*
X123392000Y-43381928D01*
X123092000Y-43381928D01*
X122992000Y-43391777D01*
X122892000Y-43381928D01*
X122592000Y-43381928D01*
X122492000Y-43391777D01*
X122392000Y-43381928D01*
X122092000Y-43381928D01*
X121992000Y-43391777D01*
X121892000Y-43381928D01*
X121592000Y-43381928D01*
X121492000Y-43391777D01*
X121392000Y-43381928D01*
X121092000Y-43381928D01*
X120992000Y-43391777D01*
X120892000Y-43381928D01*
X120857550Y-43381928D01*
X120857000Y-43155750D01*
X120698250Y-42997000D01*
X119199000Y-42997000D01*
X119199000Y-44896250D01*
X119357750Y-45055000D01*
X119953928Y-45057119D01*
X119953928Y-45120000D01*
X119966188Y-45244482D01*
X120002498Y-45364180D01*
X120056671Y-45465529D01*
X119800201Y-45722000D01*
X117801001Y-45722000D01*
X117801001Y-45046155D01*
X117922000Y-45058072D01*
X118786250Y-45055000D01*
X118945000Y-44896250D01*
X118945000Y-42997000D01*
X118925000Y-42997000D01*
X118925000Y-42743000D01*
X118945000Y-42743000D01*
X118945000Y-42723000D01*
X119199000Y-42723000D01*
X119199000Y-42743000D01*
X120698250Y-42743000D01*
X120857000Y-42584250D01*
X120858949Y-41782000D01*
X132125051Y-41782000D01*
X132127000Y-42584250D01*
%TA.AperFunction,Conductor*%
D26*
G36*
X132127000Y-42584250D02*
G01*
X132285750Y-42743000D01*
X133785000Y-42743000D01*
X133785000Y-42723000D01*
X134039000Y-42723000D01*
X134039000Y-42743000D01*
X135538250Y-42743000D01*
X135697000Y-42584250D01*
X135698949Y-41782000D01*
X136479343Y-41782000D01*
X138466001Y-42973996D01*
X138466001Y-45055859D01*
X138455472Y-45021150D01*
X138373405Y-44867614D01*
X138262962Y-44733038D01*
X138128386Y-44622595D01*
X137974850Y-44540528D01*
X137808254Y-44489992D01*
X137635000Y-44472928D01*
X136685000Y-44472928D01*
X136511746Y-44489992D01*
X136345150Y-44540528D01*
X136191614Y-44622595D01*
X136057038Y-44733038D01*
X135946595Y-44867614D01*
X135908706Y-44938500D01*
X135431161Y-44938500D01*
X135513185Y-44871185D01*
X135592537Y-44774494D01*
X135651502Y-44664180D01*
X135687812Y-44544482D01*
X135700072Y-44420000D01*
X135697000Y-43155750D01*
X135538250Y-42997000D01*
X134039000Y-42997000D01*
X134039000Y-43017000D01*
X133785000Y-43017000D01*
X133785000Y-42997000D01*
X132285750Y-42997000D01*
X132127000Y-43155750D01*
X132126450Y-43381928D01*
X132092000Y-43381928D01*
X131992000Y-43391777D01*
X131892000Y-43381928D01*
X131825111Y-43381928D01*
X131845000Y-43281939D01*
X131845000Y-43078061D01*
X131805226Y-42878102D01*
X131727205Y-42689744D01*
X131613937Y-42520226D01*
X131469774Y-42376063D01*
X131300256Y-42262795D01*
X131111898Y-42184774D01*
X130911939Y-42145000D01*
X130708061Y-42145000D01*
X130508102Y-42184774D01*
X130319744Y-42262795D01*
X130150226Y-42376063D01*
X130006063Y-42520226D01*
X129892795Y-42689744D01*
X129814774Y-42878102D01*
X129775000Y-43078061D01*
X129775000Y-43281939D01*
X129794889Y-43381928D01*
X129592000Y-43381928D01*
X129492000Y-43391777D01*
X129392000Y-43381928D01*
X129092000Y-43381928D01*
X128988159Y-43392155D01*
X128923750Y-43385000D01*
X128891503Y-43417247D01*
X128847820Y-43430498D01*
X128742000Y-43487061D01*
X128636180Y-43430498D01*
X128592497Y-43417247D01*
X128560250Y-43385000D01*
X128495841Y-43392155D01*
X128392000Y-43381928D01*
X128092000Y-43381928D01*
X127992000Y-43391777D01*
X127892000Y-43381928D01*
X127592000Y-43381928D01*
X127492000Y-43391777D01*
X127392000Y-43381928D01*
X127092000Y-43381928D01*
X126992000Y-43391777D01*
X126892000Y-43381928D01*
X126592000Y-43381928D01*
X126492000Y-43391777D01*
X126392000Y-43381928D01*
X126092000Y-43381928D01*
X125992000Y-43391777D01*
X125892000Y-43381928D01*
X125592000Y-43381928D01*
X125492000Y-43391777D01*
X125392000Y-43381928D01*
X125092000Y-43381928D01*
X124992000Y-43391777D01*
X124892000Y-43381928D01*
X124592000Y-43381928D01*
X124488159Y-43392155D01*
X124423750Y-43385000D01*
X124391503Y-43417247D01*
X124347820Y-43430498D01*
X124242000Y-43487061D01*
X124136180Y-43430498D01*
X124092497Y-43417247D01*
X124060250Y-43385000D01*
X123995841Y-43392155D01*
X123892000Y-43381928D01*
X123592000Y-43381928D01*
X123492000Y-43391777D01*
X123392000Y-43381928D01*
X123092000Y-43381928D01*
X122992000Y-43391777D01*
X122892000Y-43381928D01*
X122592000Y-43381928D01*
X122492000Y-43391777D01*
X122392000Y-43381928D01*
X122092000Y-43381928D01*
X121992000Y-43391777D01*
X121892000Y-43381928D01*
X121592000Y-43381928D01*
X121492000Y-43391777D01*
X121392000Y-43381928D01*
X121092000Y-43381928D01*
X120992000Y-43391777D01*
X120892000Y-43381928D01*
X120857550Y-43381928D01*
X120857000Y-43155750D01*
X120698250Y-42997000D01*
X119199000Y-42997000D01*
X119199000Y-44896250D01*
X119357750Y-45055000D01*
X119953928Y-45057119D01*
X119953928Y-45120000D01*
X119966188Y-45244482D01*
X120002498Y-45364180D01*
X120056671Y-45465529D01*
X119800201Y-45722000D01*
X117801001Y-45722000D01*
X117801001Y-45046155D01*
X117922000Y-45058072D01*
X118786250Y-45055000D01*
X118945000Y-44896250D01*
X118945000Y-42997000D01*
X118925000Y-42997000D01*
X118925000Y-42743000D01*
X118945000Y-42743000D01*
X118945000Y-42723000D01*
X119199000Y-42723000D01*
X119199000Y-42743000D01*
X120698250Y-42743000D01*
X120857000Y-42584250D01*
X120858949Y-41782000D01*
X132125051Y-41782000D01*
X132127000Y-42584250D01*
G37*
%TD.AperFunction*%
D25*
X117286106Y-42216275D02*
X117270494Y-42203463D01*
X117160180Y-42144498D01*
X117040482Y-42108188D01*
X116916000Y-42095928D01*
X116601750Y-42099000D01*
X116443000Y-42257750D01*
X116443000Y-43307000D01*
X116463000Y-43307000D01*
X116463000Y-43561000D01*
X116443000Y-43561000D01*
X116443000Y-43581000D01*
X116189000Y-43581000D01*
X116189000Y-43561000D01*
X116169000Y-43561000D01*
X116169000Y-43307000D01*
X116189000Y-43307000D01*
X116189000Y-42257750D01*
X116030250Y-42099000D01*
X115716000Y-42095928D01*
X115591518Y-42108188D01*
X115471820Y-42144498D01*
X115361506Y-42203463D01*
X115264815Y-42282815D01*
X115240637Y-42312276D01*
X115159387Y-42245595D01*
X115005851Y-42163528D01*
X114839255Y-42112992D01*
X114787180Y-42107863D01*
X115134768Y-41782000D01*
X117285051Y-41782000D01*
X117286106Y-42216275D01*
%TA.AperFunction,Conductor*%
D26*
G36*
X117286106Y-42216275D02*
G01*
X117270494Y-42203463D01*
X117160180Y-42144498D01*
X117040482Y-42108188D01*
X116916000Y-42095928D01*
X116601750Y-42099000D01*
X116443000Y-42257750D01*
X116443000Y-43307000D01*
X116463000Y-43307000D01*
X116463000Y-43561000D01*
X116443000Y-43561000D01*
X116443000Y-43581000D01*
X116189000Y-43581000D01*
X116189000Y-43561000D01*
X116169000Y-43561000D01*
X116169000Y-43307000D01*
X116189000Y-43307000D01*
X116189000Y-42257750D01*
X116030250Y-42099000D01*
X115716000Y-42095928D01*
X115591518Y-42108188D01*
X115471820Y-42144498D01*
X115361506Y-42203463D01*
X115264815Y-42282815D01*
X115240637Y-42312276D01*
X115159387Y-42245595D01*
X115005851Y-42163528D01*
X114839255Y-42112992D01*
X114787180Y-42107863D01*
X115134768Y-41782000D01*
X117285051Y-41782000D01*
X117286106Y-42216275D01*
G37*
%TD.AperFunction*%
%TD*%
M02*
