%TF.GenerationSoftware,KiCad,Pcbnew,(5.1.10)-1*%
%TF.CreationDate,2022-01-07T18:41:25+01:00*%
%TF.ProjectId,M5StampC3,4d355374-616d-4704-9333-2e6b69636164,rev?*%
%TF.SameCoordinates,Original*%
%TF.FileFunction,Soldermask,Bot*%
%TF.FilePolarity,Negative*%
%FSLAX46Y46*%
G04 Gerber Fmt 4.6, Leading zero omitted, Abs format (unit mm)*
G04 Created by KiCad (PCBNEW (5.1.10)-1) date 2022-01-07 18:41:25*
%MOMM*%
%LPD*%
G01*
G04 APERTURE LIST*
%ADD10O,1.700000X1.700000*%
%ADD11R,1.700000X1.700000*%
%ADD12R,1.200000X0.900000*%
%ADD13R,2.510000X1.000000*%
%ADD14R,0.900000X1.200000*%
G04 APERTURE END LIST*
D10*
%TO.C,J6*%
X134200000Y-78232000D03*
X134200000Y-75692000D03*
X134200000Y-73152000D03*
X134200000Y-70612000D03*
X134200000Y-68072000D03*
X134200000Y-65532000D03*
X134200000Y-62992000D03*
X134200000Y-60452000D03*
X134200000Y-57912000D03*
D11*
X134200000Y-55372000D03*
%TD*%
D10*
%TO.C,J5*%
X116500000Y-78232000D03*
X116500000Y-75692000D03*
X116500000Y-73152000D03*
X116500000Y-70612000D03*
X116500000Y-68072000D03*
X116500000Y-65532000D03*
X116500000Y-62992000D03*
X116500000Y-60452000D03*
X116500000Y-57912000D03*
X116500000Y-55372000D03*
X116500000Y-52832000D03*
D11*
X116500000Y-50292000D03*
%TD*%
%TO.C,R5*%
G36*
G01*
X129178000Y-61156001D02*
X129178000Y-60255999D01*
G75*
G02*
X129427999Y-60006000I249999J0D01*
G01*
X130128001Y-60006000D01*
G75*
G02*
X130378000Y-60255999I0J-249999D01*
G01*
X130378000Y-61156001D01*
G75*
G02*
X130128001Y-61406000I-249999J0D01*
G01*
X129427999Y-61406000D01*
G75*
G02*
X129178000Y-61156001I0J249999D01*
G01*
G37*
G36*
G01*
X127178000Y-61156001D02*
X127178000Y-60255999D01*
G75*
G02*
X127427999Y-60006000I249999J0D01*
G01*
X128128001Y-60006000D01*
G75*
G02*
X128378000Y-60255999I0J-249999D01*
G01*
X128378000Y-61156001D01*
G75*
G02*
X128128001Y-61406000I-249999J0D01*
G01*
X127427999Y-61406000D01*
G75*
G02*
X127178000Y-61156001I0J249999D01*
G01*
G37*
%TD*%
D12*
%TO.C,D8*%
X124460000Y-66420000D03*
X124460000Y-63120000D03*
%TD*%
%TO.C,D7*%
X127000000Y-66420000D03*
X127000000Y-63120000D03*
%TD*%
%TO.C,D6*%
X129540000Y-66420000D03*
X129540000Y-63120000D03*
%TD*%
D10*
%TO.C,J4*%
X128270000Y-80010000D03*
X125730000Y-80010000D03*
X123190000Y-80010000D03*
D11*
X120650000Y-80010000D03*
%TD*%
D10*
%TO.C,J3*%
X132080000Y-83500000D03*
X129540000Y-83500000D03*
X127000000Y-83500000D03*
X124460000Y-83500000D03*
X121920000Y-83500000D03*
D11*
X119380000Y-83500000D03*
%TD*%
D13*
%TO.C,J2*%
X132635000Y-78232000D03*
X132635000Y-73152000D03*
X132635000Y-68072000D03*
X132635000Y-62992000D03*
X132635000Y-57912000D03*
X135945000Y-75692000D03*
X135945000Y-70612000D03*
X135945000Y-65532000D03*
X135945000Y-60452000D03*
X135945000Y-55372000D03*
%TD*%
%TO.C,J1*%
X114855000Y-78228000D03*
X114855000Y-73148000D03*
X114855000Y-68068000D03*
X114855000Y-62988000D03*
X114855000Y-57908000D03*
X114855000Y-52828000D03*
X118165000Y-75688000D03*
X118165000Y-70608000D03*
X118165000Y-65528000D03*
X118165000Y-60448000D03*
X118165000Y-55368000D03*
X118165000Y-50288000D03*
%TD*%
%TO.C,L1*%
G36*
G01*
X124727000Y-46795000D02*
X124727000Y-44645000D01*
G75*
G02*
X124977000Y-44395000I250000J0D01*
G01*
X125727000Y-44395000D01*
G75*
G02*
X125977000Y-44645000I0J-250000D01*
G01*
X125977000Y-46795000D01*
G75*
G02*
X125727000Y-47045000I-250000J0D01*
G01*
X124977000Y-47045000D01*
G75*
G02*
X124727000Y-46795000I0J250000D01*
G01*
G37*
G36*
G01*
X121927000Y-46795000D02*
X121927000Y-44645000D01*
G75*
G02*
X122177000Y-44395000I250000J0D01*
G01*
X122927000Y-44395000D01*
G75*
G02*
X123177000Y-44645000I0J-250000D01*
G01*
X123177000Y-46795000D01*
G75*
G02*
X122927000Y-47045000I-250000J0D01*
G01*
X122177000Y-47045000D01*
G75*
G02*
X121927000Y-46795000I0J250000D01*
G01*
G37*
%TD*%
%TO.C,R2*%
G36*
G01*
X118052001Y-45574000D02*
X117151999Y-45574000D01*
G75*
G02*
X116902000Y-45324001I0J249999D01*
G01*
X116902000Y-44623999D01*
G75*
G02*
X117151999Y-44374000I249999J0D01*
G01*
X118052001Y-44374000D01*
G75*
G02*
X118302000Y-44623999I0J-249999D01*
G01*
X118302000Y-45324001D01*
G75*
G02*
X118052001Y-45574000I-249999J0D01*
G01*
G37*
G36*
G01*
X118052001Y-47574000D02*
X117151999Y-47574000D01*
G75*
G02*
X116902000Y-47324001I0J249999D01*
G01*
X116902000Y-46623999D01*
G75*
G02*
X117151999Y-46374000I249999J0D01*
G01*
X118052001Y-46374000D01*
G75*
G02*
X118302000Y-46623999I0J-249999D01*
G01*
X118302000Y-47324001D01*
G75*
G02*
X118052001Y-47574000I-249999J0D01*
G01*
G37*
%TD*%
D14*
%TO.C,D1*%
X124080000Y-42418000D03*
X127380000Y-42418000D03*
%TD*%
D12*
%TO.C,D2*%
X134366000Y-46862000D03*
X134366000Y-43562000D03*
%TD*%
D14*
%TO.C,D3*%
X119000000Y-42418000D03*
X122300000Y-42418000D03*
%TD*%
%TO.C,C12*%
G36*
G01*
X128074000Y-44229000D02*
X128074000Y-45179000D01*
G75*
G02*
X127824000Y-45429000I-250000J0D01*
G01*
X127149000Y-45429000D01*
G75*
G02*
X126899000Y-45179000I0J250000D01*
G01*
X126899000Y-44229000D01*
G75*
G02*
X127149000Y-43979000I250000J0D01*
G01*
X127824000Y-43979000D01*
G75*
G02*
X128074000Y-44229000I0J-250000D01*
G01*
G37*
G36*
G01*
X130149000Y-44229000D02*
X130149000Y-45179000D01*
G75*
G02*
X129899000Y-45429000I-250000J0D01*
G01*
X129224000Y-45429000D01*
G75*
G02*
X128974000Y-45179000I0J250000D01*
G01*
X128974000Y-44229000D01*
G75*
G02*
X129224000Y-43979000I250000J0D01*
G01*
X129899000Y-43979000D01*
G75*
G02*
X130149000Y-44229000I0J-250000D01*
G01*
G37*
%TD*%
%TO.C,C10*%
G36*
G01*
X115791000Y-45524000D02*
X114841000Y-45524000D01*
G75*
G02*
X114591000Y-45274000I0J250000D01*
G01*
X114591000Y-44599000D01*
G75*
G02*
X114841000Y-44349000I250000J0D01*
G01*
X115791000Y-44349000D01*
G75*
G02*
X116041000Y-44599000I0J-250000D01*
G01*
X116041000Y-45274000D01*
G75*
G02*
X115791000Y-45524000I-250000J0D01*
G01*
G37*
G36*
G01*
X115791000Y-47599000D02*
X114841000Y-47599000D01*
G75*
G02*
X114591000Y-47349000I0J250000D01*
G01*
X114591000Y-46674000D01*
G75*
G02*
X114841000Y-46424000I250000J0D01*
G01*
X115791000Y-46424000D01*
G75*
G02*
X116041000Y-46674000I0J-250000D01*
G01*
X116041000Y-47349000D01*
G75*
G02*
X115791000Y-47599000I-250000J0D01*
G01*
G37*
%TD*%
M02*
