%TF.GenerationSoftware,KiCad,Pcbnew,(5.1.10)-1*%
%TF.CreationDate,2022-01-07T18:41:24+01:00*%
%TF.ProjectId,M5StampC3,4d355374-616d-4704-9333-2e6b69636164,rev?*%
%TF.SameCoordinates,Original*%
%TF.FileFunction,Paste,Top*%
%TF.FilePolarity,Positive*%
%FSLAX46Y46*%
G04 Gerber Fmt 4.6, Leading zero omitted, Abs format (unit mm)*
G04 Created by KiCad (PCBNEW (5.1.10)-1) date 2022-01-07 18:41:24*
%MOMM*%
%LPD*%
G01*
G04 APERTURE LIST*
%ADD10R,0.450000X0.600000*%
%ADD11R,1.000000X2.000000*%
%ADD12R,1.500000X1.000000*%
%ADD13R,1.060000X0.650000*%
%ADD14R,2.300000X3.100000*%
%ADD15R,0.300000X1.100000*%
%ADD16R,0.700000X0.450000*%
G04 APERTURE END LIST*
D10*
%TO.C,D4*%
X123190000Y-75150000D03*
X123190000Y-77250000D03*
%TD*%
D11*
%TO.C,U3*%
X132600000Y-69214000D03*
X130600000Y-69214000D03*
X128600000Y-69214000D03*
X126600000Y-69214000D03*
X124600000Y-69214000D03*
X122600000Y-69214000D03*
X120600000Y-69214000D03*
X118600000Y-69214000D03*
X118600000Y-53214000D03*
X120600000Y-53214000D03*
X122600000Y-53214000D03*
X124600000Y-53214000D03*
X126600000Y-53214000D03*
X128600000Y-53214000D03*
X130600000Y-53214000D03*
X132600000Y-53214000D03*
%TD*%
%TO.C,R4*%
G36*
G01*
X136709999Y-58820000D02*
X137610001Y-58820000D01*
G75*
G02*
X137860000Y-59069999I0J-249999D01*
G01*
X137860000Y-59770001D01*
G75*
G02*
X137610001Y-60020000I-249999J0D01*
G01*
X136709999Y-60020000D01*
G75*
G02*
X136460000Y-59770001I0J249999D01*
G01*
X136460000Y-59069999D01*
G75*
G02*
X136709999Y-58820000I249999J0D01*
G01*
G37*
G36*
G01*
X136709999Y-56820000D02*
X137610001Y-56820000D01*
G75*
G02*
X137860000Y-57069999I0J-249999D01*
G01*
X137860000Y-57770001D01*
G75*
G02*
X137610001Y-58020000I-249999J0D01*
G01*
X136709999Y-58020000D01*
G75*
G02*
X136460000Y-57770001I0J249999D01*
G01*
X136460000Y-57069999D01*
G75*
G02*
X136709999Y-56820000I249999J0D01*
G01*
G37*
%TD*%
D12*
%TO.C,D5*%
X126328000Y-73838000D03*
X126328000Y-77038000D03*
X131228000Y-73838000D03*
X131228000Y-77038000D03*
%TD*%
D13*
%TO.C,U1*%
X123782000Y-71694000D03*
X123782000Y-73594000D03*
X121582000Y-73594000D03*
X121582000Y-72644000D03*
X121582000Y-71694000D03*
%TD*%
%TO.C,R3*%
G36*
G01*
X120542000Y-75930001D02*
X120542000Y-75029999D01*
G75*
G02*
X120791999Y-74780000I249999J0D01*
G01*
X121492001Y-74780000D01*
G75*
G02*
X121742000Y-75029999I0J-249999D01*
G01*
X121742000Y-75930001D01*
G75*
G02*
X121492001Y-76180000I-249999J0D01*
G01*
X120791999Y-76180000D01*
G75*
G02*
X120542000Y-75930001I0J249999D01*
G01*
G37*
G36*
G01*
X118542000Y-75930001D02*
X118542000Y-75029999D01*
G75*
G02*
X118791999Y-74780000I249999J0D01*
G01*
X119492001Y-74780000D01*
G75*
G02*
X119742000Y-75029999I0J-249999D01*
G01*
X119742000Y-75930001D01*
G75*
G02*
X119492001Y-76180000I-249999J0D01*
G01*
X118791999Y-76180000D01*
G75*
G02*
X118542000Y-75930001I0J249999D01*
G01*
G37*
%TD*%
%TO.C,C14*%
G36*
G01*
X119692000Y-76975000D02*
X119692000Y-77925000D01*
G75*
G02*
X119442000Y-78175000I-250000J0D01*
G01*
X118767000Y-78175000D01*
G75*
G02*
X118517000Y-77925000I0J250000D01*
G01*
X118517000Y-76975000D01*
G75*
G02*
X118767000Y-76725000I250000J0D01*
G01*
X119442000Y-76725000D01*
G75*
G02*
X119692000Y-76975000I0J-250000D01*
G01*
G37*
G36*
G01*
X121767000Y-76975000D02*
X121767000Y-77925000D01*
G75*
G02*
X121517000Y-78175000I-250000J0D01*
G01*
X120842000Y-78175000D01*
G75*
G02*
X120592000Y-77925000I0J250000D01*
G01*
X120592000Y-76975000D01*
G75*
G02*
X120842000Y-76725000I250000J0D01*
G01*
X121517000Y-76725000D01*
G75*
G02*
X121767000Y-76975000I0J-250000D01*
G01*
G37*
%TD*%
%TO.C,C13*%
G36*
G01*
X119159000Y-73094000D02*
X120109000Y-73094000D01*
G75*
G02*
X120359000Y-73344000I0J-250000D01*
G01*
X120359000Y-74019000D01*
G75*
G02*
X120109000Y-74269000I-250000J0D01*
G01*
X119159000Y-74269000D01*
G75*
G02*
X118909000Y-74019000I0J250000D01*
G01*
X118909000Y-73344000D01*
G75*
G02*
X119159000Y-73094000I250000J0D01*
G01*
G37*
G36*
G01*
X119159000Y-71019000D02*
X120109000Y-71019000D01*
G75*
G02*
X120359000Y-71269000I0J-250000D01*
G01*
X120359000Y-71944000D01*
G75*
G02*
X120109000Y-72194000I-250000J0D01*
G01*
X119159000Y-72194000D01*
G75*
G02*
X118909000Y-71944000I0J250000D01*
G01*
X118909000Y-71269000D01*
G75*
G02*
X119159000Y-71019000I250000J0D01*
G01*
G37*
%TD*%
D14*
%TO.C,U2*%
X119072000Y-42870000D03*
X133912000Y-42870000D03*
D15*
X120742000Y-44570000D03*
X121242000Y-44570000D03*
X121742000Y-44570000D03*
X122242000Y-44570000D03*
X122742000Y-44570000D03*
X123242000Y-44570000D03*
X123742000Y-44570000D03*
X124242000Y-44570000D03*
X124742000Y-44570000D03*
X125242000Y-44570000D03*
X125742000Y-44570000D03*
X126242000Y-44570000D03*
X126742000Y-44570000D03*
X127242000Y-44570000D03*
X127742000Y-44570000D03*
X128242000Y-44570000D03*
X128742000Y-44570000D03*
X129242000Y-44570000D03*
X129742000Y-44570000D03*
X130242000Y-44570000D03*
X130742000Y-44570000D03*
X131242000Y-44570000D03*
X131742000Y-44570000D03*
X132242000Y-44570000D03*
%TD*%
D16*
%TO.C,Q1*%
X114316000Y-45974000D03*
X116316000Y-45324000D03*
X116316000Y-46624000D03*
%TD*%
%TO.C,R1*%
G36*
G01*
X115716000Y-43884001D02*
X115716000Y-42983999D01*
G75*
G02*
X115965999Y-42734000I249999J0D01*
G01*
X116666001Y-42734000D01*
G75*
G02*
X116916000Y-42983999I0J-249999D01*
G01*
X116916000Y-43884001D01*
G75*
G02*
X116666001Y-44134000I-249999J0D01*
G01*
X115965999Y-44134000D01*
G75*
G02*
X115716000Y-43884001I0J249999D01*
G01*
G37*
G36*
G01*
X113716000Y-43884001D02*
X113716000Y-42983999D01*
G75*
G02*
X113965999Y-42734000I249999J0D01*
G01*
X114666001Y-42734000D01*
G75*
G02*
X114916000Y-42983999I0J-249999D01*
G01*
X114916000Y-43884001D01*
G75*
G02*
X114666001Y-44134000I-249999J0D01*
G01*
X113965999Y-44134000D01*
G75*
G02*
X113716000Y-43884001I0J249999D01*
G01*
G37*
%TD*%
%TO.C,C9*%
G36*
G01*
X121633000Y-49080000D02*
X120683000Y-49080000D01*
G75*
G02*
X120433000Y-48830000I0J250000D01*
G01*
X120433000Y-48155000D01*
G75*
G02*
X120683000Y-47905000I250000J0D01*
G01*
X121633000Y-47905000D01*
G75*
G02*
X121883000Y-48155000I0J-250000D01*
G01*
X121883000Y-48830000D01*
G75*
G02*
X121633000Y-49080000I-250000J0D01*
G01*
G37*
G36*
G01*
X121633000Y-51155000D02*
X120683000Y-51155000D01*
G75*
G02*
X120433000Y-50905000I0J250000D01*
G01*
X120433000Y-50230000D01*
G75*
G02*
X120683000Y-49980000I250000J0D01*
G01*
X121633000Y-49980000D01*
G75*
G02*
X121883000Y-50230000I0J-250000D01*
G01*
X121883000Y-50905000D01*
G75*
G02*
X121633000Y-51155000I-250000J0D01*
G01*
G37*
%TD*%
%TO.C,C6*%
G36*
G01*
X127475000Y-49730000D02*
X126525000Y-49730000D01*
G75*
G02*
X126275000Y-49480000I0J250000D01*
G01*
X126275000Y-48805000D01*
G75*
G02*
X126525000Y-48555000I250000J0D01*
G01*
X127475000Y-48555000D01*
G75*
G02*
X127725000Y-48805000I0J-250000D01*
G01*
X127725000Y-49480000D01*
G75*
G02*
X127475000Y-49730000I-250000J0D01*
G01*
G37*
G36*
G01*
X127475000Y-51805000D02*
X126525000Y-51805000D01*
G75*
G02*
X126275000Y-51555000I0J250000D01*
G01*
X126275000Y-50880000D01*
G75*
G02*
X126525000Y-50630000I250000J0D01*
G01*
X127475000Y-50630000D01*
G75*
G02*
X127725000Y-50880000I0J-250000D01*
G01*
X127725000Y-51555000D01*
G75*
G02*
X127475000Y-51805000I-250000J0D01*
G01*
G37*
%TD*%
%TO.C,C4*%
G36*
G01*
X131539000Y-49334000D02*
X130589000Y-49334000D01*
G75*
G02*
X130339000Y-49084000I0J250000D01*
G01*
X130339000Y-48409000D01*
G75*
G02*
X130589000Y-48159000I250000J0D01*
G01*
X131539000Y-48159000D01*
G75*
G02*
X131789000Y-48409000I0J-250000D01*
G01*
X131789000Y-49084000D01*
G75*
G02*
X131539000Y-49334000I-250000J0D01*
G01*
G37*
G36*
G01*
X131539000Y-51409000D02*
X130589000Y-51409000D01*
G75*
G02*
X130339000Y-51159000I0J250000D01*
G01*
X130339000Y-50484000D01*
G75*
G02*
X130589000Y-50234000I250000J0D01*
G01*
X131539000Y-50234000D01*
G75*
G02*
X131789000Y-50484000I0J-250000D01*
G01*
X131789000Y-51159000D01*
G75*
G02*
X131539000Y-51409000I-250000J0D01*
G01*
G37*
%TD*%
%TO.C,C2*%
G36*
G01*
X135603000Y-49334000D02*
X134653000Y-49334000D01*
G75*
G02*
X134403000Y-49084000I0J250000D01*
G01*
X134403000Y-48409000D01*
G75*
G02*
X134653000Y-48159000I250000J0D01*
G01*
X135603000Y-48159000D01*
G75*
G02*
X135853000Y-48409000I0J-250000D01*
G01*
X135853000Y-49084000D01*
G75*
G02*
X135603000Y-49334000I-250000J0D01*
G01*
G37*
G36*
G01*
X135603000Y-51409000D02*
X134653000Y-51409000D01*
G75*
G02*
X134403000Y-51159000I0J250000D01*
G01*
X134403000Y-50484000D01*
G75*
G02*
X134653000Y-50234000I250000J0D01*
G01*
X135603000Y-50234000D01*
G75*
G02*
X135853000Y-50484000I0J-250000D01*
G01*
X135853000Y-51159000D01*
G75*
G02*
X135603000Y-51409000I-250000J0D01*
G01*
G37*
%TD*%
%TO.C,C7*%
G36*
G01*
X119601000Y-49080000D02*
X118651000Y-49080000D01*
G75*
G02*
X118401000Y-48830000I0J250000D01*
G01*
X118401000Y-48155000D01*
G75*
G02*
X118651000Y-47905000I250000J0D01*
G01*
X119601000Y-47905000D01*
G75*
G02*
X119851000Y-48155000I0J-250000D01*
G01*
X119851000Y-48830000D01*
G75*
G02*
X119601000Y-49080000I-250000J0D01*
G01*
G37*
G36*
G01*
X119601000Y-51155000D02*
X118651000Y-51155000D01*
G75*
G02*
X118401000Y-50905000I0J250000D01*
G01*
X118401000Y-50230000D01*
G75*
G02*
X118651000Y-49980000I250000J0D01*
G01*
X119601000Y-49980000D01*
G75*
G02*
X119851000Y-50230000I0J-250000D01*
G01*
X119851000Y-50905000D01*
G75*
G02*
X119601000Y-51155000I-250000J0D01*
G01*
G37*
%TD*%
%TO.C,C8*%
G36*
G01*
X136685000Y-51504000D02*
X137635000Y-51504000D01*
G75*
G02*
X137885000Y-51754000I0J-250000D01*
G01*
X137885000Y-52429000D01*
G75*
G02*
X137635000Y-52679000I-250000J0D01*
G01*
X136685000Y-52679000D01*
G75*
G02*
X136435000Y-52429000I0J250000D01*
G01*
X136435000Y-51754000D01*
G75*
G02*
X136685000Y-51504000I250000J0D01*
G01*
G37*
G36*
G01*
X136685000Y-49429000D02*
X137635000Y-49429000D01*
G75*
G02*
X137885000Y-49679000I0J-250000D01*
G01*
X137885000Y-50354000D01*
G75*
G02*
X137635000Y-50604000I-250000J0D01*
G01*
X136685000Y-50604000D01*
G75*
G02*
X136435000Y-50354000I0J250000D01*
G01*
X136435000Y-49679000D01*
G75*
G02*
X136685000Y-49429000I250000J0D01*
G01*
G37*
%TD*%
%TO.C,C11*%
G36*
G01*
X124550000Y-51275000D02*
X124550000Y-50325000D01*
G75*
G02*
X124800000Y-50075000I250000J0D01*
G01*
X125475000Y-50075000D01*
G75*
G02*
X125725000Y-50325000I0J-250000D01*
G01*
X125725000Y-51275000D01*
G75*
G02*
X125475000Y-51525000I-250000J0D01*
G01*
X124800000Y-51525000D01*
G75*
G02*
X124550000Y-51275000I0J250000D01*
G01*
G37*
G36*
G01*
X122475000Y-51275000D02*
X122475000Y-50325000D01*
G75*
G02*
X122725000Y-50075000I250000J0D01*
G01*
X123400000Y-50075000D01*
G75*
G02*
X123650000Y-50325000I0J-250000D01*
G01*
X123650000Y-51275000D01*
G75*
G02*
X123400000Y-51525000I-250000J0D01*
G01*
X122725000Y-51525000D01*
G75*
G02*
X122475000Y-51275000I0J250000D01*
G01*
G37*
%TD*%
%TO.C,C5*%
G36*
G01*
X129507000Y-51663000D02*
X128557000Y-51663000D01*
G75*
G02*
X128307000Y-51413000I0J250000D01*
G01*
X128307000Y-50738000D01*
G75*
G02*
X128557000Y-50488000I250000J0D01*
G01*
X129507000Y-50488000D01*
G75*
G02*
X129757000Y-50738000I0J-250000D01*
G01*
X129757000Y-51413000D01*
G75*
G02*
X129507000Y-51663000I-250000J0D01*
G01*
G37*
G36*
G01*
X129507000Y-49588000D02*
X128557000Y-49588000D01*
G75*
G02*
X128307000Y-49338000I0J250000D01*
G01*
X128307000Y-48663000D01*
G75*
G02*
X128557000Y-48413000I250000J0D01*
G01*
X129507000Y-48413000D01*
G75*
G02*
X129757000Y-48663000I0J-250000D01*
G01*
X129757000Y-49338000D01*
G75*
G02*
X129507000Y-49588000I-250000J0D01*
G01*
G37*
%TD*%
%TO.C,C3*%
G36*
G01*
X133571000Y-49334000D02*
X132621000Y-49334000D01*
G75*
G02*
X132371000Y-49084000I0J250000D01*
G01*
X132371000Y-48409000D01*
G75*
G02*
X132621000Y-48159000I250000J0D01*
G01*
X133571000Y-48159000D01*
G75*
G02*
X133821000Y-48409000I0J-250000D01*
G01*
X133821000Y-49084000D01*
G75*
G02*
X133571000Y-49334000I-250000J0D01*
G01*
G37*
G36*
G01*
X133571000Y-51409000D02*
X132621000Y-51409000D01*
G75*
G02*
X132371000Y-51159000I0J250000D01*
G01*
X132371000Y-50484000D01*
G75*
G02*
X132621000Y-50234000I250000J0D01*
G01*
X133571000Y-50234000D01*
G75*
G02*
X133821000Y-50484000I0J-250000D01*
G01*
X133821000Y-51159000D01*
G75*
G02*
X133571000Y-51409000I-250000J0D01*
G01*
G37*
%TD*%
%TO.C,C1*%
G36*
G01*
X137635000Y-46286000D02*
X136685000Y-46286000D01*
G75*
G02*
X136435000Y-46036000I0J250000D01*
G01*
X136435000Y-45361000D01*
G75*
G02*
X136685000Y-45111000I250000J0D01*
G01*
X137635000Y-45111000D01*
G75*
G02*
X137885000Y-45361000I0J-250000D01*
G01*
X137885000Y-46036000D01*
G75*
G02*
X137635000Y-46286000I-250000J0D01*
G01*
G37*
G36*
G01*
X137635000Y-48361000D02*
X136685000Y-48361000D01*
G75*
G02*
X136435000Y-48111000I0J250000D01*
G01*
X136435000Y-47436000D01*
G75*
G02*
X136685000Y-47186000I250000J0D01*
G01*
X137635000Y-47186000D01*
G75*
G02*
X137885000Y-47436000I0J-250000D01*
G01*
X137885000Y-48111000D01*
G75*
G02*
X137635000Y-48361000I-250000J0D01*
G01*
G37*
%TD*%
M02*
