%TF.GenerationSoftware,KiCad,Pcbnew,(5.1.10)-1*%
%TF.CreationDate,2022-01-07T18:41:25+01:00*%
%TF.ProjectId,M5StampC3,4d355374-616d-4704-9333-2e6b69636164,rev?*%
%TF.SameCoordinates,Original*%
%TF.FileFunction,Other,User*%
%FSLAX46Y46*%
G04 Gerber Fmt 4.6, Leading zero omitted, Abs format (unit mm)*
G04 Created by KiCad (PCBNEW (5.1.10)-1) date 2022-01-07 18:41:25*
%MOMM*%
%LPD*%
G01*
G04 APERTURE LIST*
%ADD10C,0.050000*%
G04 APERTURE END LIST*
D10*
%TO.C,D4*%
X122240000Y-77800000D02*
X124140000Y-77800000D01*
X124140000Y-77800000D02*
X124140000Y-74600000D01*
X122240000Y-74600000D02*
X124140000Y-74600000D01*
X122240000Y-77800000D02*
X122240000Y-74600000D01*
%TO.C,U3*%
X133850000Y-51964000D02*
X133850000Y-70464000D01*
X133850000Y-70464000D02*
X117350000Y-70464000D01*
X117350000Y-51964000D02*
X117350000Y-70464000D01*
X117350000Y-51964000D02*
X133850000Y-51964000D01*
%TO.C,R4*%
X136210000Y-60270000D02*
X136210000Y-56570000D01*
X138110000Y-60270000D02*
X136210000Y-60270000D01*
X138110000Y-56570000D02*
X138110000Y-60270000D01*
X136210000Y-56570000D02*
X138110000Y-56570000D01*
%TO.C,D5*%
X132228000Y-72688000D02*
X125328000Y-72688000D01*
X132228000Y-78188000D02*
X132228000Y-72688000D01*
X125328000Y-78188000D02*
X132228000Y-78188000D01*
X125328000Y-72688000D02*
X125328000Y-78188000D01*
%TO.C,J4*%
X118850000Y-81810000D02*
X130050000Y-81810000D01*
X130050000Y-81810000D02*
X130050000Y-78210000D01*
X130050000Y-78210000D02*
X118850000Y-78210000D01*
X118850000Y-78210000D02*
X118850000Y-81810000D01*
%TO.C,U1*%
X120782000Y-70844000D02*
X124582000Y-70844000D01*
X124582000Y-70844000D02*
X124582000Y-74444000D01*
X124582000Y-74444000D02*
X120782000Y-74444000D01*
X120782000Y-74444000D02*
X120782000Y-70844000D01*
%TO.C,R3*%
X118292000Y-76430000D02*
X118292000Y-74530000D01*
X118292000Y-74530000D02*
X121992000Y-74530000D01*
X121992000Y-74530000D02*
X121992000Y-76430000D01*
X121992000Y-76430000D02*
X118292000Y-76430000D01*
%TO.C,C14*%
X122022000Y-76470000D02*
X122022000Y-78430000D01*
X122022000Y-78430000D02*
X118262000Y-78430000D01*
X118262000Y-78430000D02*
X118262000Y-76470000D01*
X118262000Y-76470000D02*
X122022000Y-76470000D01*
%TO.C,C13*%
X118654000Y-70764000D02*
X120614000Y-70764000D01*
X120614000Y-70764000D02*
X120614000Y-74524000D01*
X120614000Y-74524000D02*
X118654000Y-74524000D01*
X118654000Y-74524000D02*
X118654000Y-70764000D01*
%TO.C,J3*%
X117580000Y-81700000D02*
X117580000Y-85300000D01*
X133880000Y-81700000D02*
X117580000Y-81700000D01*
X133880000Y-85300000D02*
X133880000Y-81700000D01*
X117580000Y-85300000D02*
X133880000Y-85300000D01*
%TO.C,U2*%
X135712000Y-45620000D02*
X135712000Y-38970000D01*
X135712000Y-38970000D02*
X117272000Y-38970000D01*
X117272000Y-38970000D02*
X117272000Y-45620000D01*
X117272000Y-45620000D02*
X135712000Y-45620000D01*
%TO.C,Q1*%
X113616000Y-44674000D02*
X117016000Y-44674000D01*
X113616000Y-47274000D02*
X113616000Y-44674000D01*
X117016000Y-47274000D02*
X113616000Y-47274000D01*
X117016000Y-44674000D02*
X117016000Y-47274000D01*
%TO.C,R1*%
X113466000Y-44384000D02*
X113466000Y-42484000D01*
X113466000Y-42484000D02*
X117166000Y-42484000D01*
X117166000Y-42484000D02*
X117166000Y-44384000D01*
X117166000Y-44384000D02*
X113466000Y-44384000D01*
%TO.C,C9*%
X122138000Y-51410000D02*
X120178000Y-51410000D01*
X120178000Y-51410000D02*
X120178000Y-47650000D01*
X120178000Y-47650000D02*
X122138000Y-47650000D01*
X122138000Y-47650000D02*
X122138000Y-51410000D01*
%TO.C,C6*%
X127980000Y-52060000D02*
X126020000Y-52060000D01*
X126020000Y-52060000D02*
X126020000Y-48300000D01*
X126020000Y-48300000D02*
X127980000Y-48300000D01*
X127980000Y-48300000D02*
X127980000Y-52060000D01*
%TO.C,C4*%
X132044000Y-51664000D02*
X130084000Y-51664000D01*
X130084000Y-51664000D02*
X130084000Y-47904000D01*
X130084000Y-47904000D02*
X132044000Y-47904000D01*
X132044000Y-47904000D02*
X132044000Y-51664000D01*
%TO.C,C2*%
X136108000Y-51664000D02*
X134148000Y-51664000D01*
X134148000Y-51664000D02*
X134148000Y-47904000D01*
X134148000Y-47904000D02*
X136108000Y-47904000D01*
X136108000Y-47904000D02*
X136108000Y-51664000D01*
%TO.C,C7*%
X120106000Y-51410000D02*
X118146000Y-51410000D01*
X118146000Y-51410000D02*
X118146000Y-47650000D01*
X118146000Y-47650000D02*
X120106000Y-47650000D01*
X120106000Y-47650000D02*
X120106000Y-51410000D01*
%TO.C,C8*%
X136180000Y-49174000D02*
X138140000Y-49174000D01*
X138140000Y-49174000D02*
X138140000Y-52934000D01*
X138140000Y-52934000D02*
X136180000Y-52934000D01*
X136180000Y-52934000D02*
X136180000Y-49174000D01*
%TO.C,C11*%
X122220000Y-51780000D02*
X122220000Y-49820000D01*
X122220000Y-49820000D02*
X125980000Y-49820000D01*
X125980000Y-49820000D02*
X125980000Y-51780000D01*
X125980000Y-51780000D02*
X122220000Y-51780000D01*
%TO.C,C5*%
X130012000Y-48158000D02*
X130012000Y-51918000D01*
X128052000Y-48158000D02*
X130012000Y-48158000D01*
X128052000Y-51918000D02*
X128052000Y-48158000D01*
X130012000Y-51918000D02*
X128052000Y-51918000D01*
%TO.C,C3*%
X134076000Y-51664000D02*
X132116000Y-51664000D01*
X132116000Y-51664000D02*
X132116000Y-47904000D01*
X132116000Y-47904000D02*
X134076000Y-47904000D01*
X134076000Y-47904000D02*
X134076000Y-51664000D01*
%TO.C,C1*%
X138140000Y-48616000D02*
X136180000Y-48616000D01*
X136180000Y-48616000D02*
X136180000Y-44856000D01*
X136180000Y-44856000D02*
X138140000Y-44856000D01*
X138140000Y-44856000D02*
X138140000Y-48616000D01*
%TD*%
M02*
