M48
; DRILL file {KiCad (5.1.10)-1} date 01/07/22 18:41:28
; FORMAT={-:-/ absolute / inch / decimal}
; #@! TF.CreationDate,2022-01-07T18:41:28+01:00
; #@! TF.GenerationSoftware,Kicad,Pcbnew,(5.1.10)-1
FMAT,2
INCH
T1C0.0157
T2C0.0394
T3C0.0787
%
G90
G05
T1
X4.4854Y-1.85
X4.49Y-1.9
X4.64Y-1.77
X4.68Y-2.91
X4.68Y-3.07
X4.79Y-2.65
X4.8122Y-1.6878
X4.83Y-1.8916
X4.8585Y-1.9356
X4.8683Y-3.2194
X4.8913Y-1.8916
X4.91Y-2.4437
X4.9306Y-1.8916
X4.9641Y-2.247
X4.99Y-1.87
X5.0184Y-1.8422
X5.0185Y-2.2826
X5.04Y-2.99
X5.05Y-1.815
X5.063Y-2.725
X5.07Y-1.7
X5.0969Y-2.5031
X5.12Y-2.3
X5.1254Y-2.7319
X5.14Y-2.14
X5.15Y-1.7
X5.16Y-1.97
X5.2205Y-2.725
X5.29Y-1.845
X5.37Y-1.85
X5.4Y-2.0516
T2
X4.5866Y-1.98
X4.5866Y-2.08
X4.5866Y-2.18
X4.5866Y-2.28
X4.5866Y-2.38
X4.5866Y-2.48
X4.5866Y-2.58
X4.5866Y-2.68
X4.5866Y-2.78
X4.5866Y-2.88
X4.5866Y-2.98
X4.5866Y-3.08
X4.7Y-3.2874
X4.75Y-3.15
X4.8Y-3.2874
X4.85Y-3.15
X4.9Y-3.2874
X4.95Y-3.15
X5.0Y-3.2874
X5.05Y-3.15
X5.1Y-3.2874
X5.2Y-3.2874
X5.2835Y-2.18
X5.2835Y-2.28
X5.2835Y-2.38
X5.2835Y-2.48
X5.2835Y-2.58
X5.2835Y-2.68
X5.2835Y-2.78
X5.2835Y-2.88
X5.2835Y-2.98
X5.2835Y-3.08
T3
X4.5472Y-3.248
X5.3543Y-3.248
T0
M30
