%TF.GenerationSoftware,KiCad,Pcbnew,(5.1.10)-1*%
%TF.CreationDate,2022-01-07T18:41:25+01:00*%
%TF.ProjectId,M5StampC3,4d355374-616d-4704-9333-2e6b69636164,rev?*%
%TF.SameCoordinates,Original*%
%TF.FileFunction,Other,User*%
%FSLAX46Y46*%
G04 Gerber Fmt 4.6, Leading zero omitted, Abs format (unit mm)*
G04 Created by KiCad (PCBNEW (5.1.10)-1) date 2022-01-07 18:41:25*
%MOMM*%
%LPD*%
G01*
G04 APERTURE LIST*
%ADD10C,0.050000*%
G04 APERTURE END LIST*
D10*
%TO.C,J6*%
X132400000Y-53572000D02*
X136000000Y-53572000D01*
X132400000Y-80022000D02*
X132400000Y-53572000D01*
X136000000Y-80022000D02*
X132400000Y-80022000D01*
X136000000Y-53572000D02*
X136000000Y-80022000D01*
%TO.C,J5*%
X114700000Y-48492000D02*
X118300000Y-48492000D01*
X114700000Y-80042000D02*
X114700000Y-48492000D01*
X118300000Y-80042000D02*
X114700000Y-80042000D01*
X118300000Y-48492000D02*
X118300000Y-80042000D01*
%TO.C,R5*%
X130628000Y-59756000D02*
X126928000Y-59756000D01*
X130628000Y-61656000D02*
X130628000Y-59756000D01*
X126928000Y-61656000D02*
X130628000Y-61656000D01*
X126928000Y-59756000D02*
X126928000Y-61656000D01*
%TO.C,D8*%
X123310000Y-62420000D02*
X125610000Y-62420000D01*
X125610000Y-67120000D02*
X125610000Y-62420000D01*
X123310000Y-67120000D02*
X125610000Y-67120000D01*
X123310000Y-62420000D02*
X123310000Y-67120000D01*
%TO.C,D7*%
X125850000Y-62420000D02*
X128150000Y-62420000D01*
X128150000Y-67120000D02*
X128150000Y-62420000D01*
X125850000Y-67120000D02*
X128150000Y-67120000D01*
X125850000Y-62420000D02*
X125850000Y-67120000D01*
%TO.C,D6*%
X128390000Y-62420000D02*
X130690000Y-62420000D01*
X130690000Y-67120000D02*
X130690000Y-62420000D01*
X128390000Y-67120000D02*
X130690000Y-67120000D01*
X128390000Y-62420000D02*
X128390000Y-67120000D01*
%TO.C,J2*%
X137740000Y-53602000D02*
X137740000Y-80002000D01*
X137740000Y-80002000D02*
X130840000Y-80002000D01*
X130840000Y-80002000D02*
X130840000Y-53602000D01*
X130840000Y-53602000D02*
X137740000Y-53602000D01*
%TO.C,J1*%
X119960000Y-48508000D02*
X119960000Y-80008000D01*
X119960000Y-80008000D02*
X113060000Y-80008000D01*
X113060000Y-80008000D02*
X113060000Y-48508000D01*
X113060000Y-48508000D02*
X119960000Y-48508000D01*
%TO.C,L1*%
X121672000Y-44140000D02*
X121672000Y-47300000D01*
X121672000Y-47300000D02*
X126232000Y-47300000D01*
X126232000Y-47300000D02*
X126232000Y-44140000D01*
X126232000Y-44140000D02*
X121672000Y-44140000D01*
%TO.C,R2*%
X116652000Y-47824000D02*
X118552000Y-47824000D01*
X118552000Y-47824000D02*
X118552000Y-44124000D01*
X118552000Y-44124000D02*
X116652000Y-44124000D01*
X116652000Y-44124000D02*
X116652000Y-47824000D01*
%TO.C,D1*%
X128080000Y-41268000D02*
X123380000Y-41268000D01*
X123380000Y-41268000D02*
X123380000Y-43568000D01*
X123380000Y-43568000D02*
X128080000Y-43568000D01*
X128080000Y-41268000D02*
X128080000Y-43568000D01*
%TO.C,D2*%
X133216000Y-42862000D02*
X133216000Y-47562000D01*
X133216000Y-47562000D02*
X135516000Y-47562000D01*
X135516000Y-47562000D02*
X135516000Y-42862000D01*
X133216000Y-42862000D02*
X135516000Y-42862000D01*
%TO.C,D3*%
X123000000Y-41268000D02*
X118300000Y-41268000D01*
X118300000Y-41268000D02*
X118300000Y-43568000D01*
X118300000Y-43568000D02*
X123000000Y-43568000D01*
X123000000Y-41268000D02*
X123000000Y-43568000D01*
%TO.C,C12*%
X130404000Y-45684000D02*
X130404000Y-43724000D01*
X130404000Y-43724000D02*
X126644000Y-43724000D01*
X126644000Y-43724000D02*
X126644000Y-45684000D01*
X126644000Y-45684000D02*
X130404000Y-45684000D01*
%TO.C,C10*%
X114336000Y-47854000D02*
X116296000Y-47854000D01*
X116296000Y-47854000D02*
X116296000Y-44094000D01*
X116296000Y-44094000D02*
X114336000Y-44094000D01*
X114336000Y-44094000D02*
X114336000Y-47854000D01*
%TD*%
M02*
