%TF.GenerationSoftware,KiCad,Pcbnew,(5.1.10)-1*%
%TF.CreationDate,2022-01-07T18:41:25+01:00*%
%TF.ProjectId,M5StampC3,4d355374-616d-4704-9333-2e6b69636164,rev?*%
%TF.SameCoordinates,Original*%
%TF.FileFunction,Other,Fab,Top*%
%FSLAX46Y46*%
G04 Gerber Fmt 4.6, Leading zero omitted, Abs format (unit mm)*
G04 Created by KiCad (PCBNEW (5.1.10)-1) date 2022-01-07 18:41:25*
%MOMM*%
%LPD*%
G01*
G04 APERTURE LIST*
%ADD10C,0.100000*%
%ADD11C,0.150000*%
%ADD12C,0.080000*%
%ADD13C,0.075000*%
G04 APERTURE END LIST*
D10*
%TO.C,D4*%
X122490000Y-77100000D02*
X122490000Y-75300000D01*
X122490000Y-75300000D02*
X123890000Y-75300000D01*
X123890000Y-75300000D02*
X123890000Y-77100000D01*
X123890000Y-77100000D02*
X122490000Y-77100000D01*
X122840000Y-76500000D02*
X123540000Y-76500000D01*
X123190000Y-76500000D02*
X123190000Y-76700000D01*
X123190000Y-76500000D02*
X122840000Y-76000000D01*
X122840000Y-76000000D02*
X123540000Y-76000000D01*
X123540000Y-76000000D02*
X123190000Y-76500000D01*
X123190000Y-76000000D02*
X123190000Y-75750000D01*
%TO.C,U3*%
X133600000Y-54214000D02*
X133600000Y-69214000D01*
X117600000Y-69214000D02*
X133600000Y-69214000D01*
X117600000Y-53214000D02*
X117600000Y-69214000D01*
X117600000Y-53214000D02*
X132600000Y-53214000D01*
X133600000Y-54214000D02*
X132600000Y-53214000D01*
%TO.C,R4*%
X136535000Y-59420000D02*
X136535000Y-57420000D01*
X137785000Y-59420000D02*
X136535000Y-59420000D01*
X137785000Y-57420000D02*
X137785000Y-59420000D01*
X136535000Y-57420000D02*
X137785000Y-57420000D01*
%TO.C,D5*%
X131278000Y-76938000D02*
X130278000Y-77938000D01*
X126278000Y-72938000D02*
X126278000Y-77938000D01*
X126278000Y-77938000D02*
X131278000Y-77938000D01*
X131278000Y-77938000D02*
X131278000Y-72938000D01*
X131278000Y-72938000D02*
X126278000Y-72938000D01*
X130778000Y-75438000D02*
G75*
G03*
X130778000Y-75438000I-2000000J0D01*
G01*
%TO.C,J4*%
X119380000Y-80645000D02*
X119380000Y-78740000D01*
X119380000Y-78740000D02*
X129540000Y-78740000D01*
X129540000Y-78740000D02*
X129540000Y-81280000D01*
X129540000Y-81280000D02*
X120015000Y-81280000D01*
X120015000Y-81280000D02*
X119380000Y-80645000D01*
%TO.C,U1*%
X121782000Y-71744000D02*
X122432000Y-71094000D01*
X123582000Y-71094000D02*
X122432000Y-71094000D01*
X121782000Y-71744000D02*
X121782000Y-74194000D01*
X123582000Y-74194000D02*
X121782000Y-74194000D01*
X123582000Y-71094000D02*
X123582000Y-74194000D01*
%TO.C,R3*%
X119142000Y-76105000D02*
X119142000Y-74855000D01*
X119142000Y-74855000D02*
X121142000Y-74855000D01*
X121142000Y-74855000D02*
X121142000Y-76105000D01*
X121142000Y-76105000D02*
X119142000Y-76105000D01*
%TO.C,C14*%
X121142000Y-76825000D02*
X121142000Y-78075000D01*
X121142000Y-78075000D02*
X119142000Y-78075000D01*
X119142000Y-78075000D02*
X119142000Y-76825000D01*
X119142000Y-76825000D02*
X121142000Y-76825000D01*
%TO.C,C13*%
X119009000Y-71644000D02*
X120259000Y-71644000D01*
X120259000Y-71644000D02*
X120259000Y-73644000D01*
X120259000Y-73644000D02*
X119009000Y-73644000D01*
X119009000Y-73644000D02*
X119009000Y-71644000D01*
%TO.C,J3*%
X118745000Y-84770000D02*
X118110000Y-84135000D01*
X133350000Y-84770000D02*
X118745000Y-84770000D01*
X133350000Y-82230000D02*
X133350000Y-84770000D01*
X118110000Y-82230000D02*
X133350000Y-82230000D01*
X118110000Y-84135000D02*
X118110000Y-82230000D01*
%TO.C,U2*%
X134552000Y-43870000D02*
X118432000Y-43870000D01*
X118432000Y-43870000D02*
X118432000Y-41070000D01*
X118432000Y-41070000D02*
X117777000Y-41070000D01*
X117777000Y-41070000D02*
X117777000Y-39470000D01*
X117777000Y-39470000D02*
X135207000Y-39470000D01*
X135207000Y-39470000D02*
X135207000Y-41070000D01*
X135207000Y-41070000D02*
X134552000Y-41070000D01*
X134552000Y-41070000D02*
X134552000Y-43870000D01*
X132642000Y-43870000D02*
X132242000Y-43070000D01*
X132242000Y-43070000D02*
X131842000Y-43870000D01*
%TO.C,Q1*%
X114646000Y-47074000D02*
X115496000Y-47074000D01*
X115996000Y-46574000D02*
X115996000Y-44874000D01*
X114646000Y-47074000D02*
X114646000Y-44874000D01*
X114646000Y-44874000D02*
X115996000Y-44874000D01*
X115496000Y-47074000D02*
X115996000Y-46574000D01*
%TO.C,R1*%
X114316000Y-44059000D02*
X114316000Y-42809000D01*
X114316000Y-42809000D02*
X116316000Y-42809000D01*
X116316000Y-42809000D02*
X116316000Y-44059000D01*
X116316000Y-44059000D02*
X114316000Y-44059000D01*
%TO.C,C9*%
X121783000Y-50530000D02*
X120533000Y-50530000D01*
X120533000Y-50530000D02*
X120533000Y-48530000D01*
X120533000Y-48530000D02*
X121783000Y-48530000D01*
X121783000Y-48530000D02*
X121783000Y-50530000D01*
%TO.C,C6*%
X127625000Y-51180000D02*
X126375000Y-51180000D01*
X126375000Y-51180000D02*
X126375000Y-49180000D01*
X126375000Y-49180000D02*
X127625000Y-49180000D01*
X127625000Y-49180000D02*
X127625000Y-51180000D01*
%TO.C,C4*%
X131689000Y-50784000D02*
X130439000Y-50784000D01*
X130439000Y-50784000D02*
X130439000Y-48784000D01*
X130439000Y-48784000D02*
X131689000Y-48784000D01*
X131689000Y-48784000D02*
X131689000Y-50784000D01*
%TO.C,C2*%
X135753000Y-50784000D02*
X134503000Y-50784000D01*
X134503000Y-50784000D02*
X134503000Y-48784000D01*
X134503000Y-48784000D02*
X135753000Y-48784000D01*
X135753000Y-48784000D02*
X135753000Y-50784000D01*
%TO.C,C7*%
X119751000Y-50530000D02*
X118501000Y-50530000D01*
X118501000Y-50530000D02*
X118501000Y-48530000D01*
X118501000Y-48530000D02*
X119751000Y-48530000D01*
X119751000Y-48530000D02*
X119751000Y-50530000D01*
%TO.C,C8*%
X136535000Y-50054000D02*
X137785000Y-50054000D01*
X137785000Y-50054000D02*
X137785000Y-52054000D01*
X137785000Y-52054000D02*
X136535000Y-52054000D01*
X136535000Y-52054000D02*
X136535000Y-50054000D01*
%TO.C,C11*%
X123100000Y-51425000D02*
X123100000Y-50175000D01*
X123100000Y-50175000D02*
X125100000Y-50175000D01*
X125100000Y-50175000D02*
X125100000Y-51425000D01*
X125100000Y-51425000D02*
X123100000Y-51425000D01*
%TO.C,C5*%
X129657000Y-49038000D02*
X129657000Y-51038000D01*
X128407000Y-49038000D02*
X129657000Y-49038000D01*
X128407000Y-51038000D02*
X128407000Y-49038000D01*
X129657000Y-51038000D02*
X128407000Y-51038000D01*
%TO.C,C3*%
X133721000Y-50784000D02*
X132471000Y-50784000D01*
X132471000Y-50784000D02*
X132471000Y-48784000D01*
X132471000Y-48784000D02*
X133721000Y-48784000D01*
X133721000Y-48784000D02*
X133721000Y-50784000D01*
%TO.C,C1*%
X137785000Y-47736000D02*
X136535000Y-47736000D01*
X136535000Y-47736000D02*
X136535000Y-45736000D01*
X136535000Y-45736000D02*
X137785000Y-45736000D01*
X137785000Y-45736000D02*
X137785000Y-47736000D01*
%TD*%
%TO.C,D4*%
D11*
X125542380Y-79338095D02*
X124542380Y-79338095D01*
X125256666Y-79004761D01*
X124542380Y-78671428D01*
X125542380Y-78671428D01*
X125018571Y-77861904D02*
X125066190Y-77719047D01*
X125113809Y-77671428D01*
X125209047Y-77623809D01*
X125351904Y-77623809D01*
X125447142Y-77671428D01*
X125494761Y-77719047D01*
X125542380Y-77814285D01*
X125542380Y-78195238D01*
X124542380Y-78195238D01*
X124542380Y-77861904D01*
X124590000Y-77766666D01*
X124637619Y-77719047D01*
X124732857Y-77671428D01*
X124828095Y-77671428D01*
X124923333Y-77719047D01*
X124970952Y-77766666D01*
X125018571Y-77861904D01*
X125018571Y-78195238D01*
X125542380Y-76623809D02*
X125066190Y-76957142D01*
X125542380Y-77195238D02*
X124542380Y-77195238D01*
X124542380Y-76814285D01*
X124590000Y-76719047D01*
X124637619Y-76671428D01*
X124732857Y-76623809D01*
X124875714Y-76623809D01*
X124970952Y-76671428D01*
X125018571Y-76719047D01*
X125066190Y-76814285D01*
X125066190Y-77195238D01*
X124542380Y-76004761D02*
X124542380Y-75909523D01*
X124590000Y-75814285D01*
X124637619Y-75766666D01*
X124732857Y-75719047D01*
X124923333Y-75671428D01*
X125161428Y-75671428D01*
X125351904Y-75719047D01*
X125447142Y-75766666D01*
X125494761Y-75814285D01*
X125542380Y-75909523D01*
X125542380Y-76004761D01*
X125494761Y-76100000D01*
X125447142Y-76147619D01*
X125351904Y-76195238D01*
X125161428Y-76242857D01*
X124923333Y-76242857D01*
X124732857Y-76195238D01*
X124637619Y-76147619D01*
X124590000Y-76100000D01*
X124542380Y-76004761D01*
X124542380Y-74766666D02*
X124542380Y-75242857D01*
X125018571Y-75290476D01*
X124970952Y-75242857D01*
X124923333Y-75147619D01*
X124923333Y-74909523D01*
X124970952Y-74814285D01*
X125018571Y-74766666D01*
X125113809Y-74719047D01*
X125351904Y-74719047D01*
X125447142Y-74766666D01*
X125494761Y-74814285D01*
X125542380Y-74909523D01*
X125542380Y-75147619D01*
X125494761Y-75242857D01*
X125447142Y-75290476D01*
X124542380Y-74385714D02*
X124542380Y-73766666D01*
X124923333Y-74100000D01*
X124923333Y-73957142D01*
X124970952Y-73861904D01*
X125018571Y-73814285D01*
X125113809Y-73766666D01*
X125351904Y-73766666D01*
X125447142Y-73814285D01*
X125494761Y-73861904D01*
X125542380Y-73957142D01*
X125542380Y-74242857D01*
X125494761Y-74338095D01*
X125447142Y-74385714D01*
X124542380Y-73147619D02*
X124542380Y-73052380D01*
X124590000Y-72957142D01*
X124637619Y-72909523D01*
X124732857Y-72861904D01*
X124923333Y-72814285D01*
X125161428Y-72814285D01*
X125351904Y-72861904D01*
X125447142Y-72909523D01*
X125494761Y-72957142D01*
X125542380Y-73052380D01*
X125542380Y-73147619D01*
X125494761Y-73242857D01*
X125447142Y-73290476D01*
X125351904Y-73338095D01*
X125161428Y-73385714D01*
X124923333Y-73385714D01*
X124732857Y-73338095D01*
X124637619Y-73290476D01*
X124590000Y-73242857D01*
X124542380Y-73147619D01*
X121792380Y-76938095D02*
X120792380Y-76938095D01*
X120792380Y-76700000D01*
X120840000Y-76557142D01*
X120935238Y-76461904D01*
X121030476Y-76414285D01*
X121220952Y-76366666D01*
X121363809Y-76366666D01*
X121554285Y-76414285D01*
X121649523Y-76461904D01*
X121744761Y-76557142D01*
X121792380Y-76700000D01*
X121792380Y-76938095D01*
X121125714Y-75509523D02*
X121792380Y-75509523D01*
X120744761Y-75747619D02*
X121459047Y-75985714D01*
X121459047Y-75366666D01*
%TO.C,U3*%
X116552380Y-66428285D02*
X116076190Y-66761619D01*
X116552380Y-66999714D02*
X115552380Y-66999714D01*
X115552380Y-66618761D01*
X115600000Y-66523523D01*
X115647619Y-66475904D01*
X115742857Y-66428285D01*
X115885714Y-66428285D01*
X115980952Y-66475904D01*
X116028571Y-66523523D01*
X116076190Y-66618761D01*
X116076190Y-66999714D01*
X116028571Y-65666380D02*
X116028571Y-65999714D01*
X116552380Y-65999714D02*
X115552380Y-65999714D01*
X115552380Y-65523523D01*
X116552380Y-65142571D02*
X115552380Y-65142571D01*
X116266666Y-64809238D01*
X115552380Y-64475904D01*
X116552380Y-64475904D01*
X116552380Y-63952095D02*
X116552380Y-63761619D01*
X116504761Y-63666380D01*
X116457142Y-63618761D01*
X116314285Y-63523523D01*
X116123809Y-63475904D01*
X115742857Y-63475904D01*
X115647619Y-63523523D01*
X115600000Y-63571142D01*
X115552380Y-63666380D01*
X115552380Y-63856857D01*
X115600000Y-63952095D01*
X115647619Y-63999714D01*
X115742857Y-64047333D01*
X115980952Y-64047333D01*
X116076190Y-63999714D01*
X116123809Y-63952095D01*
X116171428Y-63856857D01*
X116171428Y-63666380D01*
X116123809Y-63571142D01*
X116076190Y-63523523D01*
X115980952Y-63475904D01*
X115552380Y-62571142D02*
X115552380Y-63047333D01*
X116028571Y-63094952D01*
X115980952Y-63047333D01*
X115933333Y-62952095D01*
X115933333Y-62714000D01*
X115980952Y-62618761D01*
X116028571Y-62571142D01*
X116123809Y-62523523D01*
X116361904Y-62523523D01*
X116457142Y-62571142D01*
X116504761Y-62618761D01*
X116552380Y-62714000D01*
X116552380Y-62952095D01*
X116504761Y-63047333D01*
X116457142Y-63094952D01*
X115552380Y-62190190D02*
X116552380Y-61952095D01*
X115838095Y-61761619D01*
X116552380Y-61571142D01*
X115552380Y-61333047D01*
X116171428Y-60952095D02*
X116171428Y-60190190D01*
X115980952Y-59571142D02*
X115933333Y-59666380D01*
X115885714Y-59714000D01*
X115790476Y-59761619D01*
X115742857Y-59761619D01*
X115647619Y-59714000D01*
X115600000Y-59666380D01*
X115552380Y-59571142D01*
X115552380Y-59380666D01*
X115600000Y-59285428D01*
X115647619Y-59237809D01*
X115742857Y-59190190D01*
X115790476Y-59190190D01*
X115885714Y-59237809D01*
X115933333Y-59285428D01*
X115980952Y-59380666D01*
X115980952Y-59571142D01*
X116028571Y-59666380D01*
X116076190Y-59714000D01*
X116171428Y-59761619D01*
X116361904Y-59761619D01*
X116457142Y-59714000D01*
X116504761Y-59666380D01*
X116552380Y-59571142D01*
X116552380Y-59380666D01*
X116504761Y-59285428D01*
X116457142Y-59237809D01*
X116361904Y-59190190D01*
X116171428Y-59190190D01*
X116076190Y-59237809D01*
X116028571Y-59285428D01*
X115980952Y-59380666D01*
X115552380Y-58333047D02*
X115552380Y-58523523D01*
X115600000Y-58618761D01*
X115647619Y-58666380D01*
X115790476Y-58761619D01*
X115980952Y-58809238D01*
X116361904Y-58809238D01*
X116457142Y-58761619D01*
X116504761Y-58714000D01*
X116552380Y-58618761D01*
X116552380Y-58428285D01*
X116504761Y-58333047D01*
X116457142Y-58285428D01*
X116361904Y-58237809D01*
X116123809Y-58237809D01*
X116028571Y-58285428D01*
X115980952Y-58333047D01*
X115933333Y-58428285D01*
X115933333Y-58618761D01*
X115980952Y-58714000D01*
X116028571Y-58761619D01*
X116123809Y-58809238D01*
X115980952Y-57666380D02*
X115933333Y-57761619D01*
X115885714Y-57809238D01*
X115790476Y-57856857D01*
X115742857Y-57856857D01*
X115647619Y-57809238D01*
X115600000Y-57761619D01*
X115552380Y-57666380D01*
X115552380Y-57475904D01*
X115600000Y-57380666D01*
X115647619Y-57333047D01*
X115742857Y-57285428D01*
X115790476Y-57285428D01*
X115885714Y-57333047D01*
X115933333Y-57380666D01*
X115980952Y-57475904D01*
X115980952Y-57666380D01*
X116028571Y-57761619D01*
X116076190Y-57809238D01*
X116171428Y-57856857D01*
X116361904Y-57856857D01*
X116457142Y-57809238D01*
X116504761Y-57761619D01*
X116552380Y-57666380D01*
X116552380Y-57475904D01*
X116504761Y-57380666D01*
X116457142Y-57333047D01*
X116361904Y-57285428D01*
X116171428Y-57285428D01*
X116076190Y-57333047D01*
X116028571Y-57380666D01*
X115980952Y-57475904D01*
X116504761Y-56904476D02*
X116552380Y-56761619D01*
X116552380Y-56523523D01*
X116504761Y-56428285D01*
X116457142Y-56380666D01*
X116361904Y-56333047D01*
X116266666Y-56333047D01*
X116171428Y-56380666D01*
X116123809Y-56428285D01*
X116076190Y-56523523D01*
X116028571Y-56714000D01*
X115980952Y-56809238D01*
X115933333Y-56856857D01*
X115838095Y-56904476D01*
X115742857Y-56904476D01*
X115647619Y-56856857D01*
X115600000Y-56809238D01*
X115552380Y-56714000D01*
X115552380Y-56475904D01*
X115600000Y-56333047D01*
X115647619Y-55952095D02*
X115600000Y-55904476D01*
X115552380Y-55809238D01*
X115552380Y-55571142D01*
X115600000Y-55475904D01*
X115647619Y-55428285D01*
X115742857Y-55380666D01*
X115838095Y-55380666D01*
X115980952Y-55428285D01*
X116552380Y-55999714D01*
X116552380Y-55380666D01*
X125052380Y-61975904D02*
X125861904Y-61975904D01*
X125957142Y-61928285D01*
X126004761Y-61880666D01*
X126052380Y-61785428D01*
X126052380Y-61594952D01*
X126004761Y-61499714D01*
X125957142Y-61452095D01*
X125861904Y-61404476D01*
X125052380Y-61404476D01*
X125052380Y-61023523D02*
X125052380Y-60404476D01*
X125433333Y-60737809D01*
X125433333Y-60594952D01*
X125480952Y-60499714D01*
X125528571Y-60452095D01*
X125623809Y-60404476D01*
X125861904Y-60404476D01*
X125957142Y-60452095D01*
X126004761Y-60499714D01*
X126052380Y-60594952D01*
X126052380Y-60880666D01*
X126004761Y-60975904D01*
X125957142Y-61023523D01*
%TO.C,R4*%
X135962380Y-59110476D02*
X135962380Y-59681904D01*
X135962380Y-59396190D02*
X134962380Y-59396190D01*
X135105238Y-59491428D01*
X135200476Y-59586666D01*
X135248095Y-59681904D01*
X134962380Y-58491428D02*
X134962380Y-58396190D01*
X135010000Y-58300952D01*
X135057619Y-58253333D01*
X135152857Y-58205714D01*
X135343333Y-58158095D01*
X135581428Y-58158095D01*
X135771904Y-58205714D01*
X135867142Y-58253333D01*
X135914761Y-58300952D01*
X135962380Y-58396190D01*
X135962380Y-58491428D01*
X135914761Y-58586666D01*
X135867142Y-58634285D01*
X135771904Y-58681904D01*
X135581428Y-58729523D01*
X135343333Y-58729523D01*
X135152857Y-58681904D01*
X135057619Y-58634285D01*
X135010000Y-58586666D01*
X134962380Y-58491428D01*
X135962380Y-57729523D02*
X134962380Y-57729523D01*
X135962380Y-57158095D02*
X135390952Y-57586666D01*
X134962380Y-57158095D02*
X135533809Y-57729523D01*
D12*
X137386190Y-58503333D02*
X137148095Y-58670000D01*
X137386190Y-58789047D02*
X136886190Y-58789047D01*
X136886190Y-58598571D01*
X136910000Y-58550952D01*
X136933809Y-58527142D01*
X136981428Y-58503333D01*
X137052857Y-58503333D01*
X137100476Y-58527142D01*
X137124285Y-58550952D01*
X137148095Y-58598571D01*
X137148095Y-58789047D01*
X137052857Y-58074761D02*
X137386190Y-58074761D01*
X136862380Y-58193809D02*
X137219523Y-58312857D01*
X137219523Y-58003333D01*
%TO.C,D5*%
D11*
X125468476Y-78890380D02*
X125706571Y-79890380D01*
X125897047Y-79176095D01*
X126087523Y-79890380D01*
X126325619Y-78890380D01*
X126658952Y-79842761D02*
X126801809Y-79890380D01*
X127039904Y-79890380D01*
X127135142Y-79842761D01*
X127182761Y-79795142D01*
X127230380Y-79699904D01*
X127230380Y-79604666D01*
X127182761Y-79509428D01*
X127135142Y-79461809D01*
X127039904Y-79414190D01*
X126849428Y-79366571D01*
X126754190Y-79318952D01*
X126706571Y-79271333D01*
X126658952Y-79176095D01*
X126658952Y-79080857D01*
X126706571Y-78985619D01*
X126754190Y-78938000D01*
X126849428Y-78890380D01*
X127087523Y-78890380D01*
X127230380Y-78938000D01*
X127611333Y-78985619D02*
X127658952Y-78938000D01*
X127754190Y-78890380D01*
X127992285Y-78890380D01*
X128087523Y-78938000D01*
X128135142Y-78985619D01*
X128182761Y-79080857D01*
X128182761Y-79176095D01*
X128135142Y-79318952D01*
X127563714Y-79890380D01*
X128182761Y-79890380D01*
X128754190Y-79318952D02*
X128658952Y-79271333D01*
X128611333Y-79223714D01*
X128563714Y-79128476D01*
X128563714Y-79080857D01*
X128611333Y-78985619D01*
X128658952Y-78938000D01*
X128754190Y-78890380D01*
X128944666Y-78890380D01*
X129039904Y-78938000D01*
X129087523Y-78985619D01*
X129135142Y-79080857D01*
X129135142Y-79128476D01*
X129087523Y-79223714D01*
X129039904Y-79271333D01*
X128944666Y-79318952D01*
X128754190Y-79318952D01*
X128658952Y-79366571D01*
X128611333Y-79414190D01*
X128563714Y-79509428D01*
X128563714Y-79699904D01*
X128611333Y-79795142D01*
X128658952Y-79842761D01*
X128754190Y-79890380D01*
X128944666Y-79890380D01*
X129039904Y-79842761D01*
X129087523Y-79795142D01*
X129135142Y-79699904D01*
X129135142Y-79509428D01*
X129087523Y-79414190D01*
X129039904Y-79366571D01*
X128944666Y-79318952D01*
X130087523Y-79890380D02*
X129516095Y-79890380D01*
X129801809Y-79890380D02*
X129801809Y-78890380D01*
X129706571Y-79033238D01*
X129611333Y-79128476D01*
X129516095Y-79176095D01*
X130468476Y-78985619D02*
X130516095Y-78938000D01*
X130611333Y-78890380D01*
X130849428Y-78890380D01*
X130944666Y-78938000D01*
X130992285Y-78985619D01*
X131039904Y-79080857D01*
X131039904Y-79176095D01*
X130992285Y-79318952D01*
X130420857Y-79890380D01*
X131039904Y-79890380D01*
X131801809Y-79366571D02*
X131944666Y-79414190D01*
X131992285Y-79461809D01*
X132039904Y-79557047D01*
X132039904Y-79699904D01*
X131992285Y-79795142D01*
X131944666Y-79842761D01*
X131849428Y-79890380D01*
X131468476Y-79890380D01*
X131468476Y-78890380D01*
X131801809Y-78890380D01*
X131897047Y-78938000D01*
X131944666Y-78985619D01*
X131992285Y-79080857D01*
X131992285Y-79176095D01*
X131944666Y-79271333D01*
X131897047Y-79318952D01*
X131801809Y-79366571D01*
X131468476Y-79366571D01*
X128187523Y-75799904D02*
X128187523Y-74999904D01*
X128378000Y-74999904D01*
X128492285Y-75038000D01*
X128568476Y-75114190D01*
X128606571Y-75190380D01*
X128644666Y-75342761D01*
X128644666Y-75457047D01*
X128606571Y-75609428D01*
X128568476Y-75685619D01*
X128492285Y-75761809D01*
X128378000Y-75799904D01*
X128187523Y-75799904D01*
X129368476Y-74999904D02*
X128987523Y-74999904D01*
X128949428Y-75380857D01*
X128987523Y-75342761D01*
X129063714Y-75304666D01*
X129254190Y-75304666D01*
X129330380Y-75342761D01*
X129368476Y-75380857D01*
X129406571Y-75457047D01*
X129406571Y-75647523D01*
X129368476Y-75723714D01*
X129330380Y-75761809D01*
X129254190Y-75799904D01*
X129063714Y-75799904D01*
X128987523Y-75761809D01*
X128949428Y-75723714D01*
%TO.C,J4*%
X130957142Y-85843333D02*
X131004761Y-85890952D01*
X131052380Y-86033809D01*
X131052380Y-86129047D01*
X131004761Y-86271904D01*
X130909523Y-86367142D01*
X130814285Y-86414761D01*
X130623809Y-86462380D01*
X130480952Y-86462380D01*
X130290476Y-86414761D01*
X130195238Y-86367142D01*
X130100000Y-86271904D01*
X130052380Y-86129047D01*
X130052380Y-86033809D01*
X130100000Y-85890952D01*
X130147619Y-85843333D01*
X131052380Y-85271904D02*
X131004761Y-85367142D01*
X130957142Y-85414761D01*
X130861904Y-85462380D01*
X130576190Y-85462380D01*
X130480952Y-85414761D01*
X130433333Y-85367142D01*
X130385714Y-85271904D01*
X130385714Y-85129047D01*
X130433333Y-85033809D01*
X130480952Y-84986190D01*
X130576190Y-84938571D01*
X130861904Y-84938571D01*
X130957142Y-84986190D01*
X131004761Y-85033809D01*
X131052380Y-85129047D01*
X131052380Y-85271904D01*
X130385714Y-84510000D02*
X131052380Y-84510000D01*
X130480952Y-84510000D02*
X130433333Y-84462380D01*
X130385714Y-84367142D01*
X130385714Y-84224285D01*
X130433333Y-84129047D01*
X130528571Y-84081428D01*
X131052380Y-84081428D01*
X130385714Y-83605238D02*
X131052380Y-83605238D01*
X130480952Y-83605238D02*
X130433333Y-83557619D01*
X130385714Y-83462380D01*
X130385714Y-83319523D01*
X130433333Y-83224285D01*
X130528571Y-83176666D01*
X131052380Y-83176666D01*
X131147619Y-82938571D02*
X131147619Y-82176666D01*
X130052380Y-81748095D02*
X130052380Y-81652857D01*
X130100000Y-81557619D01*
X130147619Y-81510000D01*
X130242857Y-81462380D01*
X130433333Y-81414761D01*
X130671428Y-81414761D01*
X130861904Y-81462380D01*
X130957142Y-81510000D01*
X131004761Y-81557619D01*
X131052380Y-81652857D01*
X131052380Y-81748095D01*
X131004761Y-81843333D01*
X130957142Y-81890952D01*
X130861904Y-81938571D01*
X130671428Y-81986190D01*
X130433333Y-81986190D01*
X130242857Y-81938571D01*
X130147619Y-81890952D01*
X130100000Y-81843333D01*
X130052380Y-81748095D01*
X131052380Y-80462380D02*
X131052380Y-81033809D01*
X131052380Y-80748095D02*
X130052380Y-80748095D01*
X130195238Y-80843333D01*
X130290476Y-80938571D01*
X130338095Y-81033809D01*
X131052380Y-80129047D02*
X130385714Y-79605238D01*
X130385714Y-80129047D02*
X131052380Y-79605238D01*
X130052380Y-79033809D02*
X130052380Y-78938571D01*
X130100000Y-78843333D01*
X130147619Y-78795714D01*
X130242857Y-78748095D01*
X130433333Y-78700476D01*
X130671428Y-78700476D01*
X130861904Y-78748095D01*
X130957142Y-78795714D01*
X131004761Y-78843333D01*
X131052380Y-78938571D01*
X131052380Y-79033809D01*
X131004761Y-79129047D01*
X130957142Y-79176666D01*
X130861904Y-79224285D01*
X130671428Y-79271904D01*
X130433333Y-79271904D01*
X130242857Y-79224285D01*
X130147619Y-79176666D01*
X130100000Y-79129047D01*
X130052380Y-79033809D01*
X130385714Y-77843333D02*
X131052380Y-77843333D01*
X130004761Y-78081428D02*
X130719047Y-78319523D01*
X130719047Y-77700476D01*
X131147619Y-77557619D02*
X131147619Y-76795714D01*
X131052380Y-76557619D02*
X130052380Y-76557619D01*
X130766666Y-76224285D01*
X130052380Y-75890952D01*
X131052380Y-75890952D01*
X131052380Y-74986190D02*
X130528571Y-74986190D01*
X130433333Y-75033809D01*
X130385714Y-75129047D01*
X130385714Y-75319523D01*
X130433333Y-75414761D01*
X131004761Y-74986190D02*
X131052380Y-75081428D01*
X131052380Y-75319523D01*
X131004761Y-75414761D01*
X130909523Y-75462380D01*
X130814285Y-75462380D01*
X130719047Y-75414761D01*
X130671428Y-75319523D01*
X130671428Y-75081428D01*
X130623809Y-74986190D01*
X131052380Y-74367142D02*
X131004761Y-74462380D01*
X130909523Y-74510000D01*
X130052380Y-74510000D01*
X131004761Y-73605238D02*
X131052380Y-73700476D01*
X131052380Y-73890952D01*
X131004761Y-73986190D01*
X130909523Y-74033809D01*
X130528571Y-74033809D01*
X130433333Y-73986190D01*
X130385714Y-73890952D01*
X130385714Y-73700476D01*
X130433333Y-73605238D01*
X130528571Y-73557619D01*
X130623809Y-73557619D01*
X130719047Y-74033809D01*
X124126666Y-79462380D02*
X124126666Y-80176666D01*
X124079047Y-80319523D01*
X123983809Y-80414761D01*
X123840952Y-80462380D01*
X123745714Y-80462380D01*
X125031428Y-79795714D02*
X125031428Y-80462380D01*
X124793333Y-79414761D02*
X124555238Y-80129047D01*
X125174285Y-80129047D01*
%TO.C,U1*%
X120705809Y-75996380D02*
X120372476Y-75520190D01*
X120134380Y-75996380D02*
X120134380Y-74996380D01*
X120515333Y-74996380D01*
X120610571Y-75044000D01*
X120658190Y-75091619D01*
X120705809Y-75186857D01*
X120705809Y-75329714D01*
X120658190Y-75424952D01*
X120610571Y-75472571D01*
X120515333Y-75520190D01*
X120134380Y-75520190D01*
X120991523Y-74996380D02*
X121562952Y-74996380D01*
X121277238Y-75996380D02*
X121277238Y-74996380D01*
X121943904Y-75996380D02*
X122134380Y-75996380D01*
X122229619Y-75948761D01*
X122277238Y-75901142D01*
X122372476Y-75758285D01*
X122420095Y-75567809D01*
X122420095Y-75186857D01*
X122372476Y-75091619D01*
X122324857Y-75044000D01*
X122229619Y-74996380D01*
X122039142Y-74996380D01*
X121943904Y-75044000D01*
X121896285Y-75091619D01*
X121848666Y-75186857D01*
X121848666Y-75424952D01*
X121896285Y-75520190D01*
X121943904Y-75567809D01*
X122039142Y-75615428D01*
X122229619Y-75615428D01*
X122324857Y-75567809D01*
X122372476Y-75520190D01*
X122420095Y-75424952D01*
X123039142Y-74996380D02*
X123134380Y-74996380D01*
X123229619Y-75044000D01*
X123277238Y-75091619D01*
X123324857Y-75186857D01*
X123372476Y-75377333D01*
X123372476Y-75615428D01*
X123324857Y-75805904D01*
X123277238Y-75901142D01*
X123229619Y-75948761D01*
X123134380Y-75996380D01*
X123039142Y-75996380D01*
X122943904Y-75948761D01*
X122896285Y-75901142D01*
X122848666Y-75805904D01*
X122801047Y-75615428D01*
X122801047Y-75377333D01*
X122848666Y-75186857D01*
X122896285Y-75091619D01*
X122943904Y-75044000D01*
X123039142Y-74996380D01*
X124324857Y-75996380D02*
X123753428Y-75996380D01*
X124039142Y-75996380D02*
X124039142Y-74996380D01*
X123943904Y-75139238D01*
X123848666Y-75234476D01*
X123753428Y-75282095D01*
X124658190Y-74996380D02*
X125277238Y-74996380D01*
X124943904Y-75377333D01*
X125086761Y-75377333D01*
X125182000Y-75424952D01*
X125229619Y-75472571D01*
X125277238Y-75567809D01*
X125277238Y-75805904D01*
X125229619Y-75901142D01*
X125182000Y-75948761D01*
X125086761Y-75996380D01*
X124801047Y-75996380D01*
X124705809Y-75948761D01*
X124658190Y-75901142D01*
D13*
X122408190Y-73024952D02*
X122812952Y-73024952D01*
X122860571Y-73001142D01*
X122884380Y-72977333D01*
X122908190Y-72929714D01*
X122908190Y-72834476D01*
X122884380Y-72786857D01*
X122860571Y-72763047D01*
X122812952Y-72739238D01*
X122408190Y-72739238D01*
X122908190Y-72239238D02*
X122908190Y-72524952D01*
X122908190Y-72382095D02*
X122408190Y-72382095D01*
X122479619Y-72429714D01*
X122527238Y-72477333D01*
X122551047Y-72524952D01*
%TO.C,R3*%
D11*
X119451523Y-77582380D02*
X118880095Y-77582380D01*
X119165809Y-77582380D02*
X119165809Y-76582380D01*
X119070571Y-76725238D01*
X118975333Y-76820476D01*
X118880095Y-76868095D01*
X120070571Y-76582380D02*
X120165809Y-76582380D01*
X120261047Y-76630000D01*
X120308666Y-76677619D01*
X120356285Y-76772857D01*
X120403904Y-76963333D01*
X120403904Y-77201428D01*
X120356285Y-77391904D01*
X120308666Y-77487142D01*
X120261047Y-77534761D01*
X120165809Y-77582380D01*
X120070571Y-77582380D01*
X119975333Y-77534761D01*
X119927714Y-77487142D01*
X119880095Y-77391904D01*
X119832476Y-77201428D01*
X119832476Y-76963333D01*
X119880095Y-76772857D01*
X119927714Y-76677619D01*
X119975333Y-76630000D01*
X120070571Y-76582380D01*
X120832476Y-77582380D02*
X120832476Y-76582380D01*
X121403904Y-77582380D02*
X120975333Y-77010952D01*
X121403904Y-76582380D02*
X120832476Y-77153809D01*
D12*
X120058666Y-75706190D02*
X119892000Y-75468095D01*
X119772952Y-75706190D02*
X119772952Y-75206190D01*
X119963428Y-75206190D01*
X120011047Y-75230000D01*
X120034857Y-75253809D01*
X120058666Y-75301428D01*
X120058666Y-75372857D01*
X120034857Y-75420476D01*
X120011047Y-75444285D01*
X119963428Y-75468095D01*
X119772952Y-75468095D01*
X120225333Y-75206190D02*
X120534857Y-75206190D01*
X120368190Y-75396666D01*
X120439619Y-75396666D01*
X120487238Y-75420476D01*
X120511047Y-75444285D01*
X120534857Y-75491904D01*
X120534857Y-75610952D01*
X120511047Y-75658571D01*
X120487238Y-75682380D01*
X120439619Y-75706190D01*
X120296761Y-75706190D01*
X120249142Y-75682380D01*
X120225333Y-75658571D01*
%TO.C,C14*%
D11*
X119022952Y-76222380D02*
X118451523Y-76222380D01*
X118737238Y-76222380D02*
X118737238Y-75222380D01*
X118642000Y-75365238D01*
X118546761Y-75460476D01*
X118451523Y-75508095D01*
X119642000Y-75222380D02*
X119737238Y-75222380D01*
X119832476Y-75270000D01*
X119880095Y-75317619D01*
X119927714Y-75412857D01*
X119975333Y-75603333D01*
X119975333Y-75841428D01*
X119927714Y-76031904D01*
X119880095Y-76127142D01*
X119832476Y-76174761D01*
X119737238Y-76222380D01*
X119642000Y-76222380D01*
X119546761Y-76174761D01*
X119499142Y-76127142D01*
X119451523Y-76031904D01*
X119403904Y-75841428D01*
X119403904Y-75603333D01*
X119451523Y-75412857D01*
X119499142Y-75317619D01*
X119546761Y-75270000D01*
X119642000Y-75222380D01*
X120594380Y-75222380D02*
X120689619Y-75222380D01*
X120784857Y-75270000D01*
X120832476Y-75317619D01*
X120880095Y-75412857D01*
X120927714Y-75603333D01*
X120927714Y-75841428D01*
X120880095Y-76031904D01*
X120832476Y-76127142D01*
X120784857Y-76174761D01*
X120689619Y-76222380D01*
X120594380Y-76222380D01*
X120499142Y-76174761D01*
X120451523Y-76127142D01*
X120403904Y-76031904D01*
X120356285Y-75841428D01*
X120356285Y-75603333D01*
X120403904Y-75412857D01*
X120451523Y-75317619D01*
X120499142Y-75270000D01*
X120594380Y-75222380D01*
X121356285Y-75555714D02*
X121356285Y-76222380D01*
X121356285Y-75650952D02*
X121403904Y-75603333D01*
X121499142Y-75555714D01*
X121642000Y-75555714D01*
X121737238Y-75603333D01*
X121784857Y-75698571D01*
X121784857Y-76222380D01*
D12*
X119820571Y-77628571D02*
X119796761Y-77652380D01*
X119725333Y-77676190D01*
X119677714Y-77676190D01*
X119606285Y-77652380D01*
X119558666Y-77604761D01*
X119534857Y-77557142D01*
X119511047Y-77461904D01*
X119511047Y-77390476D01*
X119534857Y-77295238D01*
X119558666Y-77247619D01*
X119606285Y-77200000D01*
X119677714Y-77176190D01*
X119725333Y-77176190D01*
X119796761Y-77200000D01*
X119820571Y-77223809D01*
X120296761Y-77676190D02*
X120011047Y-77676190D01*
X120153904Y-77676190D02*
X120153904Y-77176190D01*
X120106285Y-77247619D01*
X120058666Y-77295238D01*
X120011047Y-77319047D01*
X120725333Y-77342857D02*
X120725333Y-77676190D01*
X120606285Y-77152380D02*
X120487238Y-77509523D01*
X120796761Y-77509523D01*
%TO.C,C13*%
D11*
X118406380Y-74191619D02*
X118406380Y-74763047D01*
X118406380Y-74477333D02*
X117406380Y-74477333D01*
X117549238Y-74572571D01*
X117644476Y-74667809D01*
X117692095Y-74763047D01*
X117406380Y-73572571D02*
X117406380Y-73477333D01*
X117454000Y-73382095D01*
X117501619Y-73334476D01*
X117596857Y-73286857D01*
X117787333Y-73239238D01*
X118025428Y-73239238D01*
X118215904Y-73286857D01*
X118311142Y-73334476D01*
X118358761Y-73382095D01*
X118406380Y-73477333D01*
X118406380Y-73572571D01*
X118358761Y-73667809D01*
X118311142Y-73715428D01*
X118215904Y-73763047D01*
X118025428Y-73810666D01*
X117787333Y-73810666D01*
X117596857Y-73763047D01*
X117501619Y-73715428D01*
X117454000Y-73667809D01*
X117406380Y-73572571D01*
X117406380Y-72620190D02*
X117406380Y-72524952D01*
X117454000Y-72429714D01*
X117501619Y-72382095D01*
X117596857Y-72334476D01*
X117787333Y-72286857D01*
X118025428Y-72286857D01*
X118215904Y-72334476D01*
X118311142Y-72382095D01*
X118358761Y-72429714D01*
X118406380Y-72524952D01*
X118406380Y-72620190D01*
X118358761Y-72715428D01*
X118311142Y-72763047D01*
X118215904Y-72810666D01*
X118025428Y-72858285D01*
X117787333Y-72858285D01*
X117596857Y-72810666D01*
X117501619Y-72763047D01*
X117454000Y-72715428D01*
X117406380Y-72620190D01*
X117739714Y-71858285D02*
X118406380Y-71858285D01*
X117834952Y-71858285D02*
X117787333Y-71810666D01*
X117739714Y-71715428D01*
X117739714Y-71572571D01*
X117787333Y-71477333D01*
X117882571Y-71429714D01*
X118406380Y-71429714D01*
X117882571Y-70620190D02*
X117882571Y-70953523D01*
X118406380Y-70953523D02*
X117406380Y-70953523D01*
X117406380Y-70477333D01*
D12*
X119812571Y-72965428D02*
X119836380Y-72989238D01*
X119860190Y-73060666D01*
X119860190Y-73108285D01*
X119836380Y-73179714D01*
X119788761Y-73227333D01*
X119741142Y-73251142D01*
X119645904Y-73274952D01*
X119574476Y-73274952D01*
X119479238Y-73251142D01*
X119431619Y-73227333D01*
X119384000Y-73179714D01*
X119360190Y-73108285D01*
X119360190Y-73060666D01*
X119384000Y-72989238D01*
X119407809Y-72965428D01*
X119860190Y-72489238D02*
X119860190Y-72774952D01*
X119860190Y-72632095D02*
X119360190Y-72632095D01*
X119431619Y-72679714D01*
X119479238Y-72727333D01*
X119503047Y-72774952D01*
X119360190Y-72322571D02*
X119360190Y-72013047D01*
X119550666Y-72179714D01*
X119550666Y-72108285D01*
X119574476Y-72060666D01*
X119598285Y-72036857D01*
X119645904Y-72013047D01*
X119764952Y-72013047D01*
X119812571Y-72036857D01*
X119836380Y-72060666D01*
X119860190Y-72108285D01*
X119860190Y-72251142D01*
X119836380Y-72298761D01*
X119812571Y-72322571D01*
%TO.C,J3*%
D11*
X134767142Y-89333333D02*
X134814761Y-89380952D01*
X134862380Y-89523809D01*
X134862380Y-89619047D01*
X134814761Y-89761904D01*
X134719523Y-89857142D01*
X134624285Y-89904761D01*
X134433809Y-89952380D01*
X134290952Y-89952380D01*
X134100476Y-89904761D01*
X134005238Y-89857142D01*
X133910000Y-89761904D01*
X133862380Y-89619047D01*
X133862380Y-89523809D01*
X133910000Y-89380952D01*
X133957619Y-89333333D01*
X134862380Y-88761904D02*
X134814761Y-88857142D01*
X134767142Y-88904761D01*
X134671904Y-88952380D01*
X134386190Y-88952380D01*
X134290952Y-88904761D01*
X134243333Y-88857142D01*
X134195714Y-88761904D01*
X134195714Y-88619047D01*
X134243333Y-88523809D01*
X134290952Y-88476190D01*
X134386190Y-88428571D01*
X134671904Y-88428571D01*
X134767142Y-88476190D01*
X134814761Y-88523809D01*
X134862380Y-88619047D01*
X134862380Y-88761904D01*
X134195714Y-88000000D02*
X134862380Y-88000000D01*
X134290952Y-88000000D02*
X134243333Y-87952380D01*
X134195714Y-87857142D01*
X134195714Y-87714285D01*
X134243333Y-87619047D01*
X134338571Y-87571428D01*
X134862380Y-87571428D01*
X134195714Y-87095238D02*
X134862380Y-87095238D01*
X134290952Y-87095238D02*
X134243333Y-87047619D01*
X134195714Y-86952380D01*
X134195714Y-86809523D01*
X134243333Y-86714285D01*
X134338571Y-86666666D01*
X134862380Y-86666666D01*
X134957619Y-86428571D02*
X134957619Y-85666666D01*
X133862380Y-85238095D02*
X133862380Y-85142857D01*
X133910000Y-85047619D01*
X133957619Y-85000000D01*
X134052857Y-84952380D01*
X134243333Y-84904761D01*
X134481428Y-84904761D01*
X134671904Y-84952380D01*
X134767142Y-85000000D01*
X134814761Y-85047619D01*
X134862380Y-85142857D01*
X134862380Y-85238095D01*
X134814761Y-85333333D01*
X134767142Y-85380952D01*
X134671904Y-85428571D01*
X134481428Y-85476190D01*
X134243333Y-85476190D01*
X134052857Y-85428571D01*
X133957619Y-85380952D01*
X133910000Y-85333333D01*
X133862380Y-85238095D01*
X134862380Y-83952380D02*
X134862380Y-84523809D01*
X134862380Y-84238095D02*
X133862380Y-84238095D01*
X134005238Y-84333333D01*
X134100476Y-84428571D01*
X134148095Y-84523809D01*
X134862380Y-83619047D02*
X134195714Y-83095238D01*
X134195714Y-83619047D02*
X134862380Y-83095238D01*
X133862380Y-82523809D02*
X133862380Y-82428571D01*
X133910000Y-82333333D01*
X133957619Y-82285714D01*
X134052857Y-82238095D01*
X134243333Y-82190476D01*
X134481428Y-82190476D01*
X134671904Y-82238095D01*
X134767142Y-82285714D01*
X134814761Y-82333333D01*
X134862380Y-82428571D01*
X134862380Y-82523809D01*
X134814761Y-82619047D01*
X134767142Y-82666666D01*
X134671904Y-82714285D01*
X134481428Y-82761904D01*
X134243333Y-82761904D01*
X134052857Y-82714285D01*
X133957619Y-82666666D01*
X133910000Y-82619047D01*
X133862380Y-82523809D01*
X133862380Y-81333333D02*
X133862380Y-81523809D01*
X133910000Y-81619047D01*
X133957619Y-81666666D01*
X134100476Y-81761904D01*
X134290952Y-81809523D01*
X134671904Y-81809523D01*
X134767142Y-81761904D01*
X134814761Y-81714285D01*
X134862380Y-81619047D01*
X134862380Y-81428571D01*
X134814761Y-81333333D01*
X134767142Y-81285714D01*
X134671904Y-81238095D01*
X134433809Y-81238095D01*
X134338571Y-81285714D01*
X134290952Y-81333333D01*
X134243333Y-81428571D01*
X134243333Y-81619047D01*
X134290952Y-81714285D01*
X134338571Y-81761904D01*
X134433809Y-81809523D01*
X134957619Y-81047619D02*
X134957619Y-80285714D01*
X134862380Y-80047619D02*
X133862380Y-80047619D01*
X134576666Y-79714285D01*
X133862380Y-79380952D01*
X134862380Y-79380952D01*
X134862380Y-78476190D02*
X134338571Y-78476190D01*
X134243333Y-78523809D01*
X134195714Y-78619047D01*
X134195714Y-78809523D01*
X134243333Y-78904761D01*
X134814761Y-78476190D02*
X134862380Y-78571428D01*
X134862380Y-78809523D01*
X134814761Y-78904761D01*
X134719523Y-78952380D01*
X134624285Y-78952380D01*
X134529047Y-78904761D01*
X134481428Y-78809523D01*
X134481428Y-78571428D01*
X134433809Y-78476190D01*
X134862380Y-77857142D02*
X134814761Y-77952380D01*
X134719523Y-78000000D01*
X133862380Y-78000000D01*
X134814761Y-77095238D02*
X134862380Y-77190476D01*
X134862380Y-77380952D01*
X134814761Y-77476190D01*
X134719523Y-77523809D01*
X134338571Y-77523809D01*
X134243333Y-77476190D01*
X134195714Y-77380952D01*
X134195714Y-77190476D01*
X134243333Y-77095238D01*
X134338571Y-77047619D01*
X134433809Y-77047619D01*
X134529047Y-77523809D01*
X125650666Y-80666380D02*
X125650666Y-81380666D01*
X125603047Y-81523523D01*
X125507809Y-81618761D01*
X125364952Y-81666380D01*
X125269714Y-81666380D01*
X126031619Y-80666380D02*
X126650666Y-80666380D01*
X126317333Y-81047333D01*
X126460190Y-81047333D01*
X126555428Y-81094952D01*
X126603047Y-81142571D01*
X126650666Y-81237809D01*
X126650666Y-81475904D01*
X126603047Y-81571142D01*
X126555428Y-81618761D01*
X126460190Y-81666380D01*
X126174476Y-81666380D01*
X126079238Y-81618761D01*
X126031619Y-81571142D01*
%TO.C,U2*%
X125730095Y-41122380D02*
X125730095Y-41931904D01*
X125777714Y-42027142D01*
X125825333Y-42074761D01*
X125920571Y-42122380D01*
X126111047Y-42122380D01*
X126206285Y-42074761D01*
X126253904Y-42027142D01*
X126301523Y-41931904D01*
X126301523Y-41122380D01*
X126730095Y-41217619D02*
X126777714Y-41170000D01*
X126872952Y-41122380D01*
X127111047Y-41122380D01*
X127206285Y-41170000D01*
X127253904Y-41217619D01*
X127301523Y-41312857D01*
X127301523Y-41408095D01*
X127253904Y-41550952D01*
X126682476Y-42122380D01*
X127301523Y-42122380D01*
%TO.C,Q1*%
X112937428Y-44328761D02*
X113080285Y-44376380D01*
X113318380Y-44376380D01*
X113413619Y-44328761D01*
X113461238Y-44281142D01*
X113508857Y-44185904D01*
X113508857Y-44090666D01*
X113461238Y-43995428D01*
X113413619Y-43947809D01*
X113318380Y-43900190D01*
X113127904Y-43852571D01*
X113032666Y-43804952D01*
X112985047Y-43757333D01*
X112937428Y-43662095D01*
X112937428Y-43566857D01*
X112985047Y-43471619D01*
X113032666Y-43424000D01*
X113127904Y-43376380D01*
X113366000Y-43376380D01*
X113508857Y-43424000D01*
X113937428Y-44376380D02*
X113937428Y-43709714D01*
X113937428Y-43376380D02*
X113889809Y-43424000D01*
X113937428Y-43471619D01*
X113985047Y-43424000D01*
X113937428Y-43376380D01*
X113937428Y-43471619D01*
X114937428Y-44376380D02*
X114366000Y-44376380D01*
X114651714Y-44376380D02*
X114651714Y-43376380D01*
X114556476Y-43519238D01*
X114461238Y-43614476D01*
X114366000Y-43662095D01*
X115270761Y-43376380D02*
X115889809Y-43376380D01*
X115556476Y-43757333D01*
X115699333Y-43757333D01*
X115794571Y-43804952D01*
X115842190Y-43852571D01*
X115889809Y-43947809D01*
X115889809Y-44185904D01*
X115842190Y-44281142D01*
X115794571Y-44328761D01*
X115699333Y-44376380D01*
X115413619Y-44376380D01*
X115318380Y-44328761D01*
X115270761Y-44281142D01*
X116508857Y-43376380D02*
X116604095Y-43376380D01*
X116699333Y-43424000D01*
X116746952Y-43471619D01*
X116794571Y-43566857D01*
X116842190Y-43757333D01*
X116842190Y-43995428D01*
X116794571Y-44185904D01*
X116746952Y-44281142D01*
X116699333Y-44328761D01*
X116604095Y-44376380D01*
X116508857Y-44376380D01*
X116413619Y-44328761D01*
X116366000Y-44281142D01*
X116318380Y-44185904D01*
X116270761Y-43995428D01*
X116270761Y-43757333D01*
X116318380Y-43566857D01*
X116366000Y-43471619D01*
X116413619Y-43424000D01*
X116508857Y-43376380D01*
X117413619Y-43804952D02*
X117318380Y-43757333D01*
X117270761Y-43709714D01*
X117223142Y-43614476D01*
X117223142Y-43566857D01*
X117270761Y-43471619D01*
X117318380Y-43424000D01*
X117413619Y-43376380D01*
X117604095Y-43376380D01*
X117699333Y-43424000D01*
X117746952Y-43471619D01*
X117794571Y-43566857D01*
X117794571Y-43614476D01*
X117746952Y-43709714D01*
X117699333Y-43757333D01*
X117604095Y-43804952D01*
X117413619Y-43804952D01*
X117318380Y-43852571D01*
X117270761Y-43900190D01*
X117223142Y-43995428D01*
X117223142Y-44185904D01*
X117270761Y-44281142D01*
X117318380Y-44328761D01*
X117413619Y-44376380D01*
X117604095Y-44376380D01*
X117699333Y-44328761D01*
X117746952Y-44281142D01*
X117794571Y-44185904D01*
X117794571Y-43995428D01*
X117746952Y-43900190D01*
X117699333Y-43852571D01*
X117604095Y-43804952D01*
D13*
X115589809Y-46021619D02*
X115566000Y-46069238D01*
X115518380Y-46116857D01*
X115446952Y-46188285D01*
X115423142Y-46235904D01*
X115423142Y-46283523D01*
X115542190Y-46259714D02*
X115518380Y-46307333D01*
X115470761Y-46354952D01*
X115375523Y-46378761D01*
X115208857Y-46378761D01*
X115113619Y-46354952D01*
X115066000Y-46307333D01*
X115042190Y-46259714D01*
X115042190Y-46164476D01*
X115066000Y-46116857D01*
X115113619Y-46069238D01*
X115208857Y-46045428D01*
X115375523Y-46045428D01*
X115470761Y-46069238D01*
X115518380Y-46116857D01*
X115542190Y-46164476D01*
X115542190Y-46259714D01*
X115542190Y-45569238D02*
X115542190Y-45854952D01*
X115542190Y-45712095D02*
X115042190Y-45712095D01*
X115113619Y-45759714D01*
X115161238Y-45807333D01*
X115185047Y-45854952D01*
%TO.C,R1*%
D11*
X114625523Y-45536380D02*
X114054095Y-45536380D01*
X114339809Y-45536380D02*
X114339809Y-44536380D01*
X114244571Y-44679238D01*
X114149333Y-44774476D01*
X114054095Y-44822095D01*
X115244571Y-44536380D02*
X115339809Y-44536380D01*
X115435047Y-44584000D01*
X115482666Y-44631619D01*
X115530285Y-44726857D01*
X115577904Y-44917333D01*
X115577904Y-45155428D01*
X115530285Y-45345904D01*
X115482666Y-45441142D01*
X115435047Y-45488761D01*
X115339809Y-45536380D01*
X115244571Y-45536380D01*
X115149333Y-45488761D01*
X115101714Y-45441142D01*
X115054095Y-45345904D01*
X115006476Y-45155428D01*
X115006476Y-44917333D01*
X115054095Y-44726857D01*
X115101714Y-44631619D01*
X115149333Y-44584000D01*
X115244571Y-44536380D01*
X116006476Y-45536380D02*
X116006476Y-44536380D01*
X116577904Y-45536380D02*
X116149333Y-44964952D01*
X116577904Y-44536380D02*
X116006476Y-45107809D01*
D12*
X115232666Y-43660190D02*
X115066000Y-43422095D01*
X114946952Y-43660190D02*
X114946952Y-43160190D01*
X115137428Y-43160190D01*
X115185047Y-43184000D01*
X115208857Y-43207809D01*
X115232666Y-43255428D01*
X115232666Y-43326857D01*
X115208857Y-43374476D01*
X115185047Y-43398285D01*
X115137428Y-43422095D01*
X114946952Y-43422095D01*
X115708857Y-43660190D02*
X115423142Y-43660190D01*
X115566000Y-43660190D02*
X115566000Y-43160190D01*
X115518380Y-43231619D01*
X115470761Y-43279238D01*
X115423142Y-43303047D01*
%TO.C,C9*%
D11*
X123290380Y-50196666D02*
X123290380Y-50768095D01*
X123290380Y-50482380D02*
X122290380Y-50482380D01*
X122433238Y-50577619D01*
X122528476Y-50672857D01*
X122576095Y-50768095D01*
X122290380Y-49577619D02*
X122290380Y-49482380D01*
X122338000Y-49387142D01*
X122385619Y-49339523D01*
X122480857Y-49291904D01*
X122671333Y-49244285D01*
X122909428Y-49244285D01*
X123099904Y-49291904D01*
X123195142Y-49339523D01*
X123242761Y-49387142D01*
X123290380Y-49482380D01*
X123290380Y-49577619D01*
X123242761Y-49672857D01*
X123195142Y-49720476D01*
X123099904Y-49768095D01*
X122909428Y-49815714D01*
X122671333Y-49815714D01*
X122480857Y-49768095D01*
X122385619Y-49720476D01*
X122338000Y-49672857D01*
X122290380Y-49577619D01*
X122290380Y-48339523D02*
X122290380Y-48815714D01*
X122766571Y-48863333D01*
X122718952Y-48815714D01*
X122671333Y-48720476D01*
X122671333Y-48482380D01*
X122718952Y-48387142D01*
X122766571Y-48339523D01*
X122861809Y-48291904D01*
X123099904Y-48291904D01*
X123195142Y-48339523D01*
X123242761Y-48387142D01*
X123290380Y-48482380D01*
X123290380Y-48720476D01*
X123242761Y-48815714D01*
X123195142Y-48863333D01*
D12*
X121336571Y-49613333D02*
X121360380Y-49637142D01*
X121384190Y-49708571D01*
X121384190Y-49756190D01*
X121360380Y-49827619D01*
X121312761Y-49875238D01*
X121265142Y-49899047D01*
X121169904Y-49922857D01*
X121098476Y-49922857D01*
X121003238Y-49899047D01*
X120955619Y-49875238D01*
X120908000Y-49827619D01*
X120884190Y-49756190D01*
X120884190Y-49708571D01*
X120908000Y-49637142D01*
X120931809Y-49613333D01*
X121384190Y-49375238D02*
X121384190Y-49280000D01*
X121360380Y-49232380D01*
X121336571Y-49208571D01*
X121265142Y-49160952D01*
X121169904Y-49137142D01*
X120979428Y-49137142D01*
X120931809Y-49160952D01*
X120908000Y-49184761D01*
X120884190Y-49232380D01*
X120884190Y-49327619D01*
X120908000Y-49375238D01*
X120931809Y-49399047D01*
X120979428Y-49422857D01*
X121098476Y-49422857D01*
X121146095Y-49399047D01*
X121169904Y-49375238D01*
X121193714Y-49327619D01*
X121193714Y-49232380D01*
X121169904Y-49184761D01*
X121146095Y-49160952D01*
X121098476Y-49137142D01*
%TO.C,C6*%
D11*
X129132380Y-50846666D02*
X129132380Y-51418095D01*
X129132380Y-51132380D02*
X128132380Y-51132380D01*
X128275238Y-51227619D01*
X128370476Y-51322857D01*
X128418095Y-51418095D01*
X128132380Y-50227619D02*
X128132380Y-50132380D01*
X128180000Y-50037142D01*
X128227619Y-49989523D01*
X128322857Y-49941904D01*
X128513333Y-49894285D01*
X128751428Y-49894285D01*
X128941904Y-49941904D01*
X129037142Y-49989523D01*
X129084761Y-50037142D01*
X129132380Y-50132380D01*
X129132380Y-50227619D01*
X129084761Y-50322857D01*
X129037142Y-50370476D01*
X128941904Y-50418095D01*
X128751428Y-50465714D01*
X128513333Y-50465714D01*
X128322857Y-50418095D01*
X128227619Y-50370476D01*
X128180000Y-50322857D01*
X128132380Y-50227619D01*
X128132380Y-48989523D02*
X128132380Y-49465714D01*
X128608571Y-49513333D01*
X128560952Y-49465714D01*
X128513333Y-49370476D01*
X128513333Y-49132380D01*
X128560952Y-49037142D01*
X128608571Y-48989523D01*
X128703809Y-48941904D01*
X128941904Y-48941904D01*
X129037142Y-48989523D01*
X129084761Y-49037142D01*
X129132380Y-49132380D01*
X129132380Y-49370476D01*
X129084761Y-49465714D01*
X129037142Y-49513333D01*
D12*
X127178571Y-50263333D02*
X127202380Y-50287142D01*
X127226190Y-50358571D01*
X127226190Y-50406190D01*
X127202380Y-50477619D01*
X127154761Y-50525238D01*
X127107142Y-50549047D01*
X127011904Y-50572857D01*
X126940476Y-50572857D01*
X126845238Y-50549047D01*
X126797619Y-50525238D01*
X126750000Y-50477619D01*
X126726190Y-50406190D01*
X126726190Y-50358571D01*
X126750000Y-50287142D01*
X126773809Y-50263333D01*
X126726190Y-49834761D02*
X126726190Y-49930000D01*
X126750000Y-49977619D01*
X126773809Y-50001428D01*
X126845238Y-50049047D01*
X126940476Y-50072857D01*
X127130952Y-50072857D01*
X127178571Y-50049047D01*
X127202380Y-50025238D01*
X127226190Y-49977619D01*
X127226190Y-49882380D01*
X127202380Y-49834761D01*
X127178571Y-49810952D01*
X127130952Y-49787142D01*
X127011904Y-49787142D01*
X126964285Y-49810952D01*
X126940476Y-49834761D01*
X126916666Y-49882380D01*
X126916666Y-49977619D01*
X126940476Y-50025238D01*
X126964285Y-50049047D01*
X127011904Y-50072857D01*
%TO.C,C4*%
D11*
X133196380Y-50450666D02*
X133196380Y-51022095D01*
X133196380Y-50736380D02*
X132196380Y-50736380D01*
X132339238Y-50831619D01*
X132434476Y-50926857D01*
X132482095Y-51022095D01*
X132196380Y-49831619D02*
X132196380Y-49736380D01*
X132244000Y-49641142D01*
X132291619Y-49593523D01*
X132386857Y-49545904D01*
X132577333Y-49498285D01*
X132815428Y-49498285D01*
X133005904Y-49545904D01*
X133101142Y-49593523D01*
X133148761Y-49641142D01*
X133196380Y-49736380D01*
X133196380Y-49831619D01*
X133148761Y-49926857D01*
X133101142Y-49974476D01*
X133005904Y-50022095D01*
X132815428Y-50069714D01*
X132577333Y-50069714D01*
X132386857Y-50022095D01*
X132291619Y-49974476D01*
X132244000Y-49926857D01*
X132196380Y-49831619D01*
X132196380Y-48593523D02*
X132196380Y-49069714D01*
X132672571Y-49117333D01*
X132624952Y-49069714D01*
X132577333Y-48974476D01*
X132577333Y-48736380D01*
X132624952Y-48641142D01*
X132672571Y-48593523D01*
X132767809Y-48545904D01*
X133005904Y-48545904D01*
X133101142Y-48593523D01*
X133148761Y-48641142D01*
X133196380Y-48736380D01*
X133196380Y-48974476D01*
X133148761Y-49069714D01*
X133101142Y-49117333D01*
D12*
X131242571Y-49867333D02*
X131266380Y-49891142D01*
X131290190Y-49962571D01*
X131290190Y-50010190D01*
X131266380Y-50081619D01*
X131218761Y-50129238D01*
X131171142Y-50153047D01*
X131075904Y-50176857D01*
X131004476Y-50176857D01*
X130909238Y-50153047D01*
X130861619Y-50129238D01*
X130814000Y-50081619D01*
X130790190Y-50010190D01*
X130790190Y-49962571D01*
X130814000Y-49891142D01*
X130837809Y-49867333D01*
X130956857Y-49438761D02*
X131290190Y-49438761D01*
X130766380Y-49557809D02*
X131123523Y-49676857D01*
X131123523Y-49367333D01*
%TO.C,C2*%
D11*
X137260380Y-50450666D02*
X137260380Y-51022095D01*
X137260380Y-50736380D02*
X136260380Y-50736380D01*
X136403238Y-50831619D01*
X136498476Y-50926857D01*
X136546095Y-51022095D01*
X136260380Y-49831619D02*
X136260380Y-49736380D01*
X136308000Y-49641142D01*
X136355619Y-49593523D01*
X136450857Y-49545904D01*
X136641333Y-49498285D01*
X136879428Y-49498285D01*
X137069904Y-49545904D01*
X137165142Y-49593523D01*
X137212761Y-49641142D01*
X137260380Y-49736380D01*
X137260380Y-49831619D01*
X137212761Y-49926857D01*
X137165142Y-49974476D01*
X137069904Y-50022095D01*
X136879428Y-50069714D01*
X136641333Y-50069714D01*
X136450857Y-50022095D01*
X136355619Y-49974476D01*
X136308000Y-49926857D01*
X136260380Y-49831619D01*
X136260380Y-48593523D02*
X136260380Y-49069714D01*
X136736571Y-49117333D01*
X136688952Y-49069714D01*
X136641333Y-48974476D01*
X136641333Y-48736380D01*
X136688952Y-48641142D01*
X136736571Y-48593523D01*
X136831809Y-48545904D01*
X137069904Y-48545904D01*
X137165142Y-48593523D01*
X137212761Y-48641142D01*
X137260380Y-48736380D01*
X137260380Y-48974476D01*
X137212761Y-49069714D01*
X137165142Y-49117333D01*
D12*
X135436571Y-49775333D02*
X135460380Y-49799142D01*
X135484190Y-49870571D01*
X135484190Y-49918190D01*
X135460380Y-49989619D01*
X135412761Y-50037238D01*
X135365142Y-50061047D01*
X135269904Y-50084857D01*
X135198476Y-50084857D01*
X135103238Y-50061047D01*
X135055619Y-50037238D01*
X135008000Y-49989619D01*
X134984190Y-49918190D01*
X134984190Y-49870571D01*
X135008000Y-49799142D01*
X135031809Y-49775333D01*
X135031809Y-49584857D02*
X135008000Y-49561047D01*
X134984190Y-49513428D01*
X134984190Y-49394380D01*
X135008000Y-49346761D01*
X135031809Y-49322952D01*
X135079428Y-49299142D01*
X135127047Y-49299142D01*
X135198476Y-49322952D01*
X135484190Y-49608666D01*
X135484190Y-49299142D01*
%TO.C,C7*%
D11*
X121258380Y-50196666D02*
X121258380Y-50768095D01*
X121258380Y-50482380D02*
X120258380Y-50482380D01*
X120401238Y-50577619D01*
X120496476Y-50672857D01*
X120544095Y-50768095D01*
X120258380Y-49577619D02*
X120258380Y-49482380D01*
X120306000Y-49387142D01*
X120353619Y-49339523D01*
X120448857Y-49291904D01*
X120639333Y-49244285D01*
X120877428Y-49244285D01*
X121067904Y-49291904D01*
X121163142Y-49339523D01*
X121210761Y-49387142D01*
X121258380Y-49482380D01*
X121258380Y-49577619D01*
X121210761Y-49672857D01*
X121163142Y-49720476D01*
X121067904Y-49768095D01*
X120877428Y-49815714D01*
X120639333Y-49815714D01*
X120448857Y-49768095D01*
X120353619Y-49720476D01*
X120306000Y-49672857D01*
X120258380Y-49577619D01*
X120258380Y-48339523D02*
X120258380Y-48815714D01*
X120734571Y-48863333D01*
X120686952Y-48815714D01*
X120639333Y-48720476D01*
X120639333Y-48482380D01*
X120686952Y-48387142D01*
X120734571Y-48339523D01*
X120829809Y-48291904D01*
X121067904Y-48291904D01*
X121163142Y-48339523D01*
X121210761Y-48387142D01*
X121258380Y-48482380D01*
X121258380Y-48720476D01*
X121210761Y-48815714D01*
X121163142Y-48863333D01*
D12*
X119304571Y-49613333D02*
X119328380Y-49637142D01*
X119352190Y-49708571D01*
X119352190Y-49756190D01*
X119328380Y-49827619D01*
X119280761Y-49875238D01*
X119233142Y-49899047D01*
X119137904Y-49922857D01*
X119066476Y-49922857D01*
X118971238Y-49899047D01*
X118923619Y-49875238D01*
X118876000Y-49827619D01*
X118852190Y-49756190D01*
X118852190Y-49708571D01*
X118876000Y-49637142D01*
X118899809Y-49613333D01*
X118852190Y-49446666D02*
X118852190Y-49113333D01*
X119352190Y-49327619D01*
%TO.C,C8*%
D11*
X135932380Y-51720666D02*
X135932380Y-52292095D01*
X135932380Y-52006380D02*
X134932380Y-52006380D01*
X135075238Y-52101619D01*
X135170476Y-52196857D01*
X135218095Y-52292095D01*
X134932380Y-51101619D02*
X134932380Y-51006380D01*
X134980000Y-50911142D01*
X135027619Y-50863523D01*
X135122857Y-50815904D01*
X135313333Y-50768285D01*
X135551428Y-50768285D01*
X135741904Y-50815904D01*
X135837142Y-50863523D01*
X135884761Y-50911142D01*
X135932380Y-51006380D01*
X135932380Y-51101619D01*
X135884761Y-51196857D01*
X135837142Y-51244476D01*
X135741904Y-51292095D01*
X135551428Y-51339714D01*
X135313333Y-51339714D01*
X135122857Y-51292095D01*
X135027619Y-51244476D01*
X134980000Y-51196857D01*
X134932380Y-51101619D01*
X135265714Y-49911142D02*
X135932380Y-49911142D01*
X134884761Y-50149238D02*
X135599047Y-50387333D01*
X135599047Y-49768285D01*
D12*
X137338571Y-51137333D02*
X137362380Y-51161142D01*
X137386190Y-51232571D01*
X137386190Y-51280190D01*
X137362380Y-51351619D01*
X137314761Y-51399238D01*
X137267142Y-51423047D01*
X137171904Y-51446857D01*
X137100476Y-51446857D01*
X137005238Y-51423047D01*
X136957619Y-51399238D01*
X136910000Y-51351619D01*
X136886190Y-51280190D01*
X136886190Y-51232571D01*
X136910000Y-51161142D01*
X136933809Y-51137333D01*
X137100476Y-50851619D02*
X137076666Y-50899238D01*
X137052857Y-50923047D01*
X137005238Y-50946857D01*
X136981428Y-50946857D01*
X136933809Y-50923047D01*
X136910000Y-50899238D01*
X136886190Y-50851619D01*
X136886190Y-50756380D01*
X136910000Y-50708761D01*
X136933809Y-50684952D01*
X136981428Y-50661142D01*
X137005238Y-50661142D01*
X137052857Y-50684952D01*
X137076666Y-50708761D01*
X137100476Y-50756380D01*
X137100476Y-50851619D01*
X137124285Y-50899238D01*
X137148095Y-50923047D01*
X137195714Y-50946857D01*
X137290952Y-50946857D01*
X137338571Y-50923047D01*
X137362380Y-50899238D01*
X137386190Y-50851619D01*
X137386190Y-50756380D01*
X137362380Y-50708761D01*
X137338571Y-50684952D01*
X137290952Y-50661142D01*
X137195714Y-50661142D01*
X137148095Y-50684952D01*
X137124285Y-50708761D01*
X137100476Y-50756380D01*
%TO.C,C11*%
D11*
X123433333Y-52932380D02*
X122861904Y-52932380D01*
X123147619Y-52932380D02*
X123147619Y-51932380D01*
X123052380Y-52075238D01*
X122957142Y-52170476D01*
X122861904Y-52218095D01*
X124052380Y-51932380D02*
X124147619Y-51932380D01*
X124242857Y-51980000D01*
X124290476Y-52027619D01*
X124338095Y-52122857D01*
X124385714Y-52313333D01*
X124385714Y-52551428D01*
X124338095Y-52741904D01*
X124290476Y-52837142D01*
X124242857Y-52884761D01*
X124147619Y-52932380D01*
X124052380Y-52932380D01*
X123957142Y-52884761D01*
X123909523Y-52837142D01*
X123861904Y-52741904D01*
X123814285Y-52551428D01*
X123814285Y-52313333D01*
X123861904Y-52122857D01*
X123909523Y-52027619D01*
X123957142Y-51980000D01*
X124052380Y-51932380D01*
X125290476Y-51932380D02*
X124814285Y-51932380D01*
X124766666Y-52408571D01*
X124814285Y-52360952D01*
X124909523Y-52313333D01*
X125147619Y-52313333D01*
X125242857Y-52360952D01*
X125290476Y-52408571D01*
X125338095Y-52503809D01*
X125338095Y-52741904D01*
X125290476Y-52837142D01*
X125242857Y-52884761D01*
X125147619Y-52932380D01*
X124909523Y-52932380D01*
X124814285Y-52884761D01*
X124766666Y-52837142D01*
D12*
X123778571Y-50978571D02*
X123754761Y-51002380D01*
X123683333Y-51026190D01*
X123635714Y-51026190D01*
X123564285Y-51002380D01*
X123516666Y-50954761D01*
X123492857Y-50907142D01*
X123469047Y-50811904D01*
X123469047Y-50740476D01*
X123492857Y-50645238D01*
X123516666Y-50597619D01*
X123564285Y-50550000D01*
X123635714Y-50526190D01*
X123683333Y-50526190D01*
X123754761Y-50550000D01*
X123778571Y-50573809D01*
X124254761Y-51026190D02*
X123969047Y-51026190D01*
X124111904Y-51026190D02*
X124111904Y-50526190D01*
X124064285Y-50597619D01*
X124016666Y-50645238D01*
X123969047Y-50669047D01*
X124730952Y-51026190D02*
X124445238Y-51026190D01*
X124588095Y-51026190D02*
X124588095Y-50526190D01*
X124540476Y-50597619D01*
X124492857Y-50645238D01*
X124445238Y-50669047D01*
%TO.C,C5*%
D11*
X131164380Y-50704666D02*
X131164380Y-51276095D01*
X131164380Y-50990380D02*
X130164380Y-50990380D01*
X130307238Y-51085619D01*
X130402476Y-51180857D01*
X130450095Y-51276095D01*
X130164380Y-50085619D02*
X130164380Y-49990380D01*
X130212000Y-49895142D01*
X130259619Y-49847523D01*
X130354857Y-49799904D01*
X130545333Y-49752285D01*
X130783428Y-49752285D01*
X130973904Y-49799904D01*
X131069142Y-49847523D01*
X131116761Y-49895142D01*
X131164380Y-49990380D01*
X131164380Y-50085619D01*
X131116761Y-50180857D01*
X131069142Y-50228476D01*
X130973904Y-50276095D01*
X130783428Y-50323714D01*
X130545333Y-50323714D01*
X130354857Y-50276095D01*
X130259619Y-50228476D01*
X130212000Y-50180857D01*
X130164380Y-50085619D01*
X130164380Y-48847523D02*
X130164380Y-49323714D01*
X130640571Y-49371333D01*
X130592952Y-49323714D01*
X130545333Y-49228476D01*
X130545333Y-48990380D01*
X130592952Y-48895142D01*
X130640571Y-48847523D01*
X130735809Y-48799904D01*
X130973904Y-48799904D01*
X131069142Y-48847523D01*
X131116761Y-48895142D01*
X131164380Y-48990380D01*
X131164380Y-49228476D01*
X131116761Y-49323714D01*
X131069142Y-49371333D01*
D12*
X129210571Y-50121333D02*
X129234380Y-50145142D01*
X129258190Y-50216571D01*
X129258190Y-50264190D01*
X129234380Y-50335619D01*
X129186761Y-50383238D01*
X129139142Y-50407047D01*
X129043904Y-50430857D01*
X128972476Y-50430857D01*
X128877238Y-50407047D01*
X128829619Y-50383238D01*
X128782000Y-50335619D01*
X128758190Y-50264190D01*
X128758190Y-50216571D01*
X128782000Y-50145142D01*
X128805809Y-50121333D01*
X128758190Y-49668952D02*
X128758190Y-49907047D01*
X128996285Y-49930857D01*
X128972476Y-49907047D01*
X128948666Y-49859428D01*
X128948666Y-49740380D01*
X128972476Y-49692761D01*
X128996285Y-49668952D01*
X129043904Y-49645142D01*
X129162952Y-49645142D01*
X129210571Y-49668952D01*
X129234380Y-49692761D01*
X129258190Y-49740380D01*
X129258190Y-49859428D01*
X129234380Y-49907047D01*
X129210571Y-49930857D01*
%TO.C,C3*%
D11*
X135228380Y-50450666D02*
X135228380Y-51022095D01*
X135228380Y-50736380D02*
X134228380Y-50736380D01*
X134371238Y-50831619D01*
X134466476Y-50926857D01*
X134514095Y-51022095D01*
X134228380Y-49831619D02*
X134228380Y-49736380D01*
X134276000Y-49641142D01*
X134323619Y-49593523D01*
X134418857Y-49545904D01*
X134609333Y-49498285D01*
X134847428Y-49498285D01*
X135037904Y-49545904D01*
X135133142Y-49593523D01*
X135180761Y-49641142D01*
X135228380Y-49736380D01*
X135228380Y-49831619D01*
X135180761Y-49926857D01*
X135133142Y-49974476D01*
X135037904Y-50022095D01*
X134847428Y-50069714D01*
X134609333Y-50069714D01*
X134418857Y-50022095D01*
X134323619Y-49974476D01*
X134276000Y-49926857D01*
X134228380Y-49831619D01*
X134228380Y-48593523D02*
X134228380Y-49069714D01*
X134704571Y-49117333D01*
X134656952Y-49069714D01*
X134609333Y-48974476D01*
X134609333Y-48736380D01*
X134656952Y-48641142D01*
X134704571Y-48593523D01*
X134799809Y-48545904D01*
X135037904Y-48545904D01*
X135133142Y-48593523D01*
X135180761Y-48641142D01*
X135228380Y-48736380D01*
X135228380Y-48974476D01*
X135180761Y-49069714D01*
X135133142Y-49117333D01*
D12*
X133274571Y-49867333D02*
X133298380Y-49891142D01*
X133322190Y-49962571D01*
X133322190Y-50010190D01*
X133298380Y-50081619D01*
X133250761Y-50129238D01*
X133203142Y-50153047D01*
X133107904Y-50176857D01*
X133036476Y-50176857D01*
X132941238Y-50153047D01*
X132893619Y-50129238D01*
X132846000Y-50081619D01*
X132822190Y-50010190D01*
X132822190Y-49962571D01*
X132846000Y-49891142D01*
X132869809Y-49867333D01*
X132822190Y-49700666D02*
X132822190Y-49391142D01*
X133012666Y-49557809D01*
X133012666Y-49486380D01*
X133036476Y-49438761D01*
X133060285Y-49414952D01*
X133107904Y-49391142D01*
X133226952Y-49391142D01*
X133274571Y-49414952D01*
X133298380Y-49438761D01*
X133322190Y-49486380D01*
X133322190Y-49629238D01*
X133298380Y-49676857D01*
X133274571Y-49700666D01*
%TO.C,C1*%
D11*
X139292380Y-47402666D02*
X139292380Y-47974095D01*
X139292380Y-47688380D02*
X138292380Y-47688380D01*
X138435238Y-47783619D01*
X138530476Y-47878857D01*
X138578095Y-47974095D01*
X138292380Y-46783619D02*
X138292380Y-46688380D01*
X138340000Y-46593142D01*
X138387619Y-46545523D01*
X138482857Y-46497904D01*
X138673333Y-46450285D01*
X138911428Y-46450285D01*
X139101904Y-46497904D01*
X139197142Y-46545523D01*
X139244761Y-46593142D01*
X139292380Y-46688380D01*
X139292380Y-46783619D01*
X139244761Y-46878857D01*
X139197142Y-46926476D01*
X139101904Y-46974095D01*
X138911428Y-47021714D01*
X138673333Y-47021714D01*
X138482857Y-46974095D01*
X138387619Y-46926476D01*
X138340000Y-46878857D01*
X138292380Y-46783619D01*
X138292380Y-45545523D02*
X138292380Y-46021714D01*
X138768571Y-46069333D01*
X138720952Y-46021714D01*
X138673333Y-45926476D01*
X138673333Y-45688380D01*
X138720952Y-45593142D01*
X138768571Y-45545523D01*
X138863809Y-45497904D01*
X139101904Y-45497904D01*
X139197142Y-45545523D01*
X139244761Y-45593142D01*
X139292380Y-45688380D01*
X139292380Y-45926476D01*
X139244761Y-46021714D01*
X139197142Y-46069333D01*
D12*
X137338571Y-46819333D02*
X137362380Y-46843142D01*
X137386190Y-46914571D01*
X137386190Y-46962190D01*
X137362380Y-47033619D01*
X137314761Y-47081238D01*
X137267142Y-47105047D01*
X137171904Y-47128857D01*
X137100476Y-47128857D01*
X137005238Y-47105047D01*
X136957619Y-47081238D01*
X136910000Y-47033619D01*
X136886190Y-46962190D01*
X136886190Y-46914571D01*
X136910000Y-46843142D01*
X136933809Y-46819333D01*
X137386190Y-46343142D02*
X137386190Y-46628857D01*
X137386190Y-46486000D02*
X136886190Y-46486000D01*
X136957619Y-46533619D01*
X137005238Y-46581238D01*
X137029047Y-46628857D01*
%TD*%
M02*
