%TF.GenerationSoftware,KiCad,Pcbnew,(5.1.10)-1*%
%TF.CreationDate,2022-01-07T18:41:24+01:00*%
%TF.ProjectId,M5StampC3,4d355374-616d-4704-9333-2e6b69636164,rev?*%
%TF.SameCoordinates,Original*%
%TF.FileFunction,Copper,L2,Bot*%
%TF.FilePolarity,Positive*%
%FSLAX46Y46*%
G04 Gerber Fmt 4.6, Leading zero omitted, Abs format (unit mm)*
G04 Created by KiCad (PCBNEW (5.1.10)-1) date 2022-01-07 18:41:24*
%MOMM*%
%LPD*%
G01*
G04 APERTURE LIST*
%TA.AperFunction,ComponentPad*%
%ADD10O,1.700000X1.700000*%
%TD*%
%TA.AperFunction,ComponentPad*%
%ADD11R,1.700000X1.700000*%
%TD*%
%TA.AperFunction,SMDPad,CuDef*%
%ADD12R,1.200000X0.900000*%
%TD*%
%TA.AperFunction,SMDPad,CuDef*%
%ADD13R,2.510000X1.000000*%
%TD*%
%TA.AperFunction,SMDPad,CuDef*%
%ADD14R,0.900000X1.200000*%
%TD*%
%TA.AperFunction,ViaPad*%
%ADD15C,2.400000*%
%TD*%
%TA.AperFunction,ViaPad*%
%ADD16C,0.800000*%
%TD*%
%TA.AperFunction,Conductor*%
%ADD17C,0.500000*%
%TD*%
%TA.AperFunction,Conductor*%
%ADD18C,1.000000*%
%TD*%
%TA.AperFunction,Conductor*%
%ADD19C,0.250000*%
%TD*%
%TA.AperFunction,Conductor*%
%ADD20C,0.400000*%
%TD*%
%TA.AperFunction,Conductor*%
%ADD21C,0.300000*%
%TD*%
%TA.AperFunction,Conductor*%
%ADD22C,0.254000*%
%TD*%
%TA.AperFunction,Conductor*%
%ADD23C,0.100000*%
%TD*%
G04 APERTURE END LIST*
D10*
%TO.P,J6,10*%
%TO.N,GND*%
X134200000Y-78232000D03*
%TO.P,J6,9*%
%TO.N,+5V*%
X134200000Y-75692000D03*
%TO.P,J6,8*%
%TO.N,/D+*%
X134200000Y-73152000D03*
%TO.P,J6,7*%
%TO.N,/D-*%
X134200000Y-70612000D03*
%TO.P,J6,6*%
%TO.N,GND*%
X134200000Y-68072000D03*
%TO.P,J6,5*%
%TO.N,/G9*%
X134200000Y-65532000D03*
%TO.P,J6,4*%
%TO.N,/EN*%
X134200000Y-62992000D03*
%TO.P,J6,3*%
%TO.N,/G20*%
X134200000Y-60452000D03*
%TO.P,J6,2*%
%TO.N,/G21*%
X134200000Y-57912000D03*
D11*
%TO.P,J6,1*%
%TO.N,+3.3VP*%
X134200000Y-55372000D03*
%TD*%
D10*
%TO.P,J5,12*%
%TO.N,/G0*%
X116500000Y-78232000D03*
%TO.P,J5,11*%
%TO.N,/G1*%
X116500000Y-75692000D03*
%TO.P,J5,10*%
%TO.N,+5V*%
X116500000Y-73152000D03*
%TO.P,J5,9*%
%TO.N,GND*%
X116500000Y-70612000D03*
%TO.P,J5,8*%
%TO.N,+5V*%
X116500000Y-68072000D03*
%TO.P,J5,7*%
%TO.N,/EPD_MOSI*%
X116500000Y-65532000D03*
%TO.P,J5,6*%
%TO.N,/EPD_CLK*%
X116500000Y-62992000D03*
%TO.P,J5,5*%
%TO.N,/EPD_CS*%
X116500000Y-60452000D03*
%TO.P,J5,4*%
%TO.N,/EPD_DC*%
X116500000Y-57912000D03*
%TO.P,J5,3*%
%TO.N,/EPD_RST*%
X116500000Y-55372000D03*
%TO.P,J5,2*%
%TO.N,/EPD_BUSY*%
X116500000Y-52832000D03*
D11*
%TO.P,J5,1*%
%TO.N,GND*%
X116500000Y-50292000D03*
%TD*%
%TO.P,R5,2*%
%TO.N,GND*%
%TA.AperFunction,SMDPad,CuDef*%
G36*
G01*
X129178000Y-61156001D02*
X129178000Y-60255999D01*
G75*
G02*
X129427999Y-60006000I249999J0D01*
G01*
X130128001Y-60006000D01*
G75*
G02*
X130378000Y-60255999I0J-249999D01*
G01*
X130378000Y-61156001D01*
G75*
G02*
X130128001Y-61406000I-249999J0D01*
G01*
X129427999Y-61406000D01*
G75*
G02*
X129178000Y-61156001I0J249999D01*
G01*
G37*
%TD.AperFunction*%
%TO.P,R5,1*%
%TO.N,/D-*%
%TA.AperFunction,SMDPad,CuDef*%
G36*
G01*
X127178000Y-61156001D02*
X127178000Y-60255999D01*
G75*
G02*
X127427999Y-60006000I249999J0D01*
G01*
X128128001Y-60006000D01*
G75*
G02*
X128378000Y-60255999I0J-249999D01*
G01*
X128378000Y-61156001D01*
G75*
G02*
X128128001Y-61406000I-249999J0D01*
G01*
X127427999Y-61406000D01*
G75*
G02*
X127178000Y-61156001I0J249999D01*
G01*
G37*
%TD.AperFunction*%
%TD*%
D12*
%TO.P,D8,2*%
%TO.N,Net-(D8-Pad2)*%
X124460000Y-66420000D03*
%TO.P,D8,1*%
%TO.N,/D-*%
X124460000Y-63120000D03*
%TD*%
%TO.P,D7,2*%
%TO.N,Net-(D7-Pad2)*%
X127000000Y-66420000D03*
%TO.P,D7,1*%
%TO.N,/D-*%
X127000000Y-63120000D03*
%TD*%
%TO.P,D6,2*%
%TO.N,Net-(D6-Pad2)*%
X129540000Y-66420000D03*
%TO.P,D6,1*%
%TO.N,/D-*%
X129540000Y-63120000D03*
%TD*%
D10*
%TO.P,J4,4*%
%TO.N,GND*%
X128270000Y-80010000D03*
%TO.P,J4,3*%
%TO.N,/D+*%
X125730000Y-80010000D03*
%TO.P,J4,2*%
%TO.N,/D-*%
X123190000Y-80010000D03*
D11*
%TO.P,J4,1*%
%TO.N,+5V*%
X120650000Y-80010000D03*
%TD*%
D10*
%TO.P,J3,6*%
%TO.N,GND*%
X132080000Y-83500000D03*
%TO.P,J3,5*%
%TO.N,/G1*%
X129540000Y-83500000D03*
%TO.P,J3,4*%
%TO.N,/EPD_CLK*%
X127000000Y-83500000D03*
%TO.P,J3,3*%
%TO.N,/EPD_MOSI*%
X124460000Y-83500000D03*
%TO.P,J3,2*%
%TO.N,/G0*%
X121920000Y-83500000D03*
D11*
%TO.P,J3,1*%
%TO.N,+3.3VA*%
X119380000Y-83500000D03*
%TD*%
D13*
%TO.P,J2,10*%
%TO.N,GND*%
X132635000Y-78232000D03*
%TO.P,J2,8*%
%TO.N,/D+*%
X132635000Y-73152000D03*
%TO.P,J2,6*%
%TO.N,GND*%
X132635000Y-68072000D03*
%TO.P,J2,4*%
%TO.N,/EN*%
X132635000Y-62992000D03*
%TO.P,J2,2*%
%TO.N,/G21*%
X132635000Y-57912000D03*
%TO.P,J2,9*%
%TO.N,+5V*%
X135945000Y-75692000D03*
%TO.P,J2,7*%
%TO.N,/D-*%
X135945000Y-70612000D03*
%TO.P,J2,5*%
%TO.N,/G9*%
X135945000Y-65532000D03*
%TO.P,J2,3*%
%TO.N,/G20*%
X135945000Y-60452000D03*
%TO.P,J2,1*%
%TO.N,+3.3VP*%
X135945000Y-55372000D03*
%TD*%
%TO.P,J1,12*%
%TO.N,/G0*%
X114855000Y-78228000D03*
%TO.P,J1,10*%
%TO.N,+5V*%
X114855000Y-73148000D03*
%TO.P,J1,8*%
X114855000Y-68068000D03*
%TO.P,J1,6*%
%TO.N,/EPD_CLK*%
X114855000Y-62988000D03*
%TO.P,J1,4*%
%TO.N,/EPD_DC*%
X114855000Y-57908000D03*
%TO.P,J1,2*%
%TO.N,/EPD_BUSY*%
X114855000Y-52828000D03*
%TO.P,J1,11*%
%TO.N,/G1*%
X118165000Y-75688000D03*
%TO.P,J1,9*%
%TO.N,GND*%
X118165000Y-70608000D03*
%TO.P,J1,7*%
%TO.N,/EPD_MOSI*%
X118165000Y-65528000D03*
%TO.P,J1,5*%
%TO.N,/EPD_CS*%
X118165000Y-60448000D03*
%TO.P,J1,3*%
%TO.N,/EPD_RST*%
X118165000Y-55368000D03*
%TO.P,J1,1*%
%TO.N,GND*%
X118165000Y-50288000D03*
%TD*%
%TO.P,L1,2*%
%TO.N,+3.3VP*%
%TA.AperFunction,SMDPad,CuDef*%
G36*
G01*
X124727000Y-46795000D02*
X124727000Y-44645000D01*
G75*
G02*
X124977000Y-44395000I250000J0D01*
G01*
X125727000Y-44395000D01*
G75*
G02*
X125977000Y-44645000I0J-250000D01*
G01*
X125977000Y-46795000D01*
G75*
G02*
X125727000Y-47045000I-250000J0D01*
G01*
X124977000Y-47045000D01*
G75*
G02*
X124727000Y-46795000I0J250000D01*
G01*
G37*
%TD.AperFunction*%
%TO.P,L1,1*%
%TO.N,Net-(C10-Pad1)*%
%TA.AperFunction,SMDPad,CuDef*%
G36*
G01*
X121927000Y-46795000D02*
X121927000Y-44645000D01*
G75*
G02*
X122177000Y-44395000I250000J0D01*
G01*
X122927000Y-44395000D01*
G75*
G02*
X123177000Y-44645000I0J-250000D01*
G01*
X123177000Y-46795000D01*
G75*
G02*
X122927000Y-47045000I-250000J0D01*
G01*
X122177000Y-47045000D01*
G75*
G02*
X121927000Y-46795000I0J250000D01*
G01*
G37*
%TD.AperFunction*%
%TD*%
%TO.P,R2,2*%
%TO.N,GND*%
%TA.AperFunction,SMDPad,CuDef*%
G36*
G01*
X118052001Y-45574000D02*
X117151999Y-45574000D01*
G75*
G02*
X116902000Y-45324001I0J249999D01*
G01*
X116902000Y-44623999D01*
G75*
G02*
X117151999Y-44374000I249999J0D01*
G01*
X118052001Y-44374000D01*
G75*
G02*
X118302000Y-44623999I0J-249999D01*
G01*
X118302000Y-45324001D01*
G75*
G02*
X118052001Y-45574000I-249999J0D01*
G01*
G37*
%TD.AperFunction*%
%TO.P,R2,1*%
%TO.N,Net-(Q1-Pad2)*%
%TA.AperFunction,SMDPad,CuDef*%
G36*
G01*
X118052001Y-47574000D02*
X117151999Y-47574000D01*
G75*
G02*
X116902000Y-47324001I0J249999D01*
G01*
X116902000Y-46623999D01*
G75*
G02*
X117151999Y-46374000I249999J0D01*
G01*
X118052001Y-46374000D01*
G75*
G02*
X118302000Y-46623999I0J-249999D01*
G01*
X118302000Y-47324001D01*
G75*
G02*
X118052001Y-47574000I-249999J0D01*
G01*
G37*
%TD.AperFunction*%
%TD*%
D14*
%TO.P,D1,2*%
%TO.N,Net-(C10-Pad1)*%
X124080000Y-42418000D03*
%TO.P,D1,1*%
%TO.N,Net-(C4-Pad2)*%
X127380000Y-42418000D03*
%TD*%
D12*
%TO.P,D2,2*%
%TO.N,Net-(C2-Pad2)*%
X134366000Y-46862000D03*
%TO.P,D2,1*%
%TO.N,Net-(C10-Pad2)*%
X134366000Y-43562000D03*
%TD*%
D14*
%TO.P,D3,2*%
%TO.N,Net-(C10-Pad2)*%
X119000000Y-42418000D03*
%TO.P,D3,1*%
%TO.N,GND*%
X122300000Y-42418000D03*
%TD*%
%TO.P,C12,2*%
%TO.N,+3.3VP*%
%TA.AperFunction,SMDPad,CuDef*%
G36*
G01*
X128074000Y-44229000D02*
X128074000Y-45179000D01*
G75*
G02*
X127824000Y-45429000I-250000J0D01*
G01*
X127149000Y-45429000D01*
G75*
G02*
X126899000Y-45179000I0J250000D01*
G01*
X126899000Y-44229000D01*
G75*
G02*
X127149000Y-43979000I250000J0D01*
G01*
X127824000Y-43979000D01*
G75*
G02*
X128074000Y-44229000I0J-250000D01*
G01*
G37*
%TD.AperFunction*%
%TO.P,C12,1*%
%TO.N,GND*%
%TA.AperFunction,SMDPad,CuDef*%
G36*
G01*
X130149000Y-44229000D02*
X130149000Y-45179000D01*
G75*
G02*
X129899000Y-45429000I-250000J0D01*
G01*
X129224000Y-45429000D01*
G75*
G02*
X128974000Y-45179000I0J250000D01*
G01*
X128974000Y-44229000D01*
G75*
G02*
X129224000Y-43979000I250000J0D01*
G01*
X129899000Y-43979000D01*
G75*
G02*
X130149000Y-44229000I0J-250000D01*
G01*
G37*
%TD.AperFunction*%
%TD*%
%TO.P,C10,2*%
%TO.N,Net-(C10-Pad2)*%
%TA.AperFunction,SMDPad,CuDef*%
G36*
G01*
X115791000Y-45524000D02*
X114841000Y-45524000D01*
G75*
G02*
X114591000Y-45274000I0J250000D01*
G01*
X114591000Y-44599000D01*
G75*
G02*
X114841000Y-44349000I250000J0D01*
G01*
X115791000Y-44349000D01*
G75*
G02*
X116041000Y-44599000I0J-250000D01*
G01*
X116041000Y-45274000D01*
G75*
G02*
X115791000Y-45524000I-250000J0D01*
G01*
G37*
%TD.AperFunction*%
%TO.P,C10,1*%
%TO.N,Net-(C10-Pad1)*%
%TA.AperFunction,SMDPad,CuDef*%
G36*
G01*
X115791000Y-47599000D02*
X114841000Y-47599000D01*
G75*
G02*
X114591000Y-47349000I0J250000D01*
G01*
X114591000Y-46674000D01*
G75*
G02*
X114841000Y-46424000I250000J0D01*
G01*
X115791000Y-46424000D01*
G75*
G02*
X116041000Y-46674000I0J-250000D01*
G01*
X116041000Y-47349000D01*
G75*
G02*
X115791000Y-47599000I-250000J0D01*
G01*
G37*
%TD.AperFunction*%
%TD*%
D15*
%TO.N,*%
X115500000Y-82500000D03*
X136000000Y-82500000D03*
D16*
%TO.N,GND*%
X117856000Y-44958000D03*
X118872000Y-77978000D03*
%TO.N,+5V*%
X123653618Y-81773206D03*
%TO.N,GND*%
X122230000Y-42870000D03*
X128778000Y-43180000D03*
X131064000Y-50038000D03*
X121666000Y-67310000D03*
X118872000Y-73914000D03*
X136398000Y-46990000D03*
X130048000Y-58420000D03*
%TO.N,+3.3VP*%
X128270000Y-46100000D03*
X137160000Y-52110000D03*
%TO.N,Net-(C2-Pad2)*%
X134366000Y-46862000D03*
%TO.N,Net-(C4-Pad2)*%
X130810000Y-43180000D03*
%TO.N,Net-(Q1-Pad2)*%
X114046000Y-48260000D03*
%TO.N,Net-(C10-Pad1)*%
X113929000Y-46990000D03*
%TO.N,/EPD_MOSI*%
X127469610Y-57978390D03*
X127467000Y-46790892D03*
%TO.N,/EPD_RST*%
X123407000Y-49163791D03*
%TO.N,/EPD_DC*%
X124237994Y-48046000D03*
%TO.N,/EPD_CS*%
X125237997Y-48046000D03*
%TO.N,/EPD_CLK*%
X126746000Y-47498000D03*
X126087998Y-57074004D03*
%TO.N,/EPD_BUSY*%
X122682000Y-48046000D03*
%TO.N,/G1*%
X130556000Y-54356000D03*
X124714000Y-62069998D03*
%TO.N,/D-*%
X128016000Y-75946000D03*
X129460956Y-63579044D03*
%TO.N,Net-(D6-Pad2)*%
X132600000Y-69214000D03*
%TO.N,Net-(D7-Pad2)*%
X130185957Y-69390041D03*
%TO.N,Net-(D8-Pad2)*%
X128600000Y-69214000D03*
%TD*%
D17*
%TO.N,+5V*%
X117344000Y-73148000D02*
X117348000Y-73152000D01*
X114855000Y-73148000D02*
X117344000Y-73148000D01*
D18*
X114855000Y-68068000D02*
X114855000Y-73148000D01*
D19*
X134200000Y-75692000D02*
X135945000Y-75692000D01*
X114859000Y-68072000D02*
X114855000Y-68068000D01*
X116500000Y-68072000D02*
X114859000Y-68072000D01*
D17*
X120650000Y-80010000D02*
X120904000Y-80010000D01*
D20*
X123103204Y-81773206D02*
X123653618Y-81773206D01*
X121339998Y-80010000D02*
X123103204Y-81773206D01*
X120650000Y-80010000D02*
X121339998Y-80010000D01*
D17*
%TO.N,+3.3VP*%
X131278000Y-46228000D02*
X137160000Y-52110000D01*
X135945000Y-55372000D02*
X136652000Y-55372000D01*
X136652000Y-55372000D02*
X137160000Y-54864000D01*
X137160000Y-54864000D02*
X137160000Y-52110000D01*
X128270000Y-46228000D02*
X131278000Y-46228000D01*
X126368000Y-44704000D02*
X125352000Y-45720000D01*
X127486500Y-44704000D02*
X126368000Y-44704000D01*
X127486500Y-45444500D02*
X128270000Y-46228000D01*
X127486500Y-44704000D02*
X127486500Y-45444500D01*
D19*
X134200000Y-55372000D02*
X135945000Y-55372000D01*
%TO.N,Net-(C4-Pad2)*%
X130048000Y-42418000D02*
X130810000Y-43180000D01*
X127380000Y-42418000D02*
X130048000Y-42418000D01*
%TO.N,Net-(C10-Pad2)*%
X132296999Y-41492999D02*
X134366000Y-43562000D01*
X119925001Y-41492999D02*
X132296999Y-41492999D01*
X119000000Y-42418000D02*
X119925001Y-41492999D01*
D17*
X117834500Y-42418000D02*
X119000000Y-42418000D01*
X115316000Y-44936500D02*
X117834500Y-42418000D01*
%TO.N,Net-(Q1-Pad2)*%
X116316000Y-48260000D02*
X114046000Y-48260000D01*
X117602000Y-46974000D02*
X116316000Y-48260000D01*
%TO.N,Net-(C10-Pad1)*%
X124080000Y-44192000D02*
X122552000Y-45720000D01*
X124080000Y-42418000D02*
X124080000Y-44192000D01*
D19*
X115294500Y-46990000D02*
X115316000Y-47011500D01*
X113929000Y-46990000D02*
X115294500Y-46990000D01*
X116278510Y-46048990D02*
X115316000Y-47011500D01*
X122223010Y-46048990D02*
X116278510Y-46048990D01*
X122552000Y-45720000D02*
X122223010Y-46048990D01*
D17*
%TO.N,/EPD_MOSI*%
X119920000Y-65528000D02*
X127469610Y-57978390D01*
X118165000Y-65528000D02*
X119920000Y-65528000D01*
X118165000Y-66528000D02*
X124460000Y-72823000D01*
X118165000Y-65528000D02*
X118165000Y-66528000D01*
D21*
X124460000Y-72823000D02*
X124460000Y-82042000D01*
D17*
X124460000Y-82042000D02*
X124460000Y-83820000D01*
X124460000Y-82042000D02*
X124460000Y-82296000D01*
D19*
X118161000Y-65532000D02*
X118165000Y-65528000D01*
X116500000Y-65532000D02*
X118161000Y-65532000D01*
D17*
X127866999Y-57581001D02*
X127469610Y-57978390D01*
X127866999Y-47190891D02*
X127866999Y-57581001D01*
X127467000Y-46790892D02*
X127866999Y-47190891D01*
%TO.N,/EPD_RST*%
X123407000Y-50126000D02*
X123407000Y-49163791D01*
X118165000Y-55368000D02*
X123407000Y-50126000D01*
D19*
X118161000Y-55372000D02*
X118165000Y-55368000D01*
X116500000Y-55372000D02*
X118161000Y-55372000D01*
D17*
%TO.N,/EPD_DC*%
X118190002Y-57908000D02*
X115079010Y-57908000D01*
X124257001Y-51841001D02*
X118190002Y-57908000D01*
X124257001Y-48755790D02*
X124257001Y-51841001D01*
X124237994Y-48736783D02*
X124257001Y-48755790D01*
X124237994Y-48046000D02*
X124237994Y-48736783D01*
D19*
X114859000Y-57912000D02*
X114855000Y-57908000D01*
X116500000Y-57912000D02*
X114859000Y-57912000D01*
D17*
%TO.N,/EPD_CS*%
X125237997Y-55130003D02*
X125237997Y-48046000D01*
X119920000Y-60448000D02*
X125237997Y-55130003D01*
X118165000Y-60448000D02*
X119920000Y-60448000D01*
D19*
X118161000Y-60452000D02*
X118165000Y-60448000D01*
X116500000Y-60452000D02*
X118161000Y-60452000D01*
D17*
%TO.N,/EPD_CLK*%
X120174002Y-62988000D02*
X115079010Y-62988000D01*
X126087998Y-57074004D02*
X120174002Y-62988000D01*
X126198000Y-48046000D02*
X126087998Y-48156002D01*
X126087998Y-48156002D02*
X126087998Y-57074004D01*
X126238000Y-48046000D02*
X126198000Y-48046000D01*
D20*
X114855000Y-64693002D02*
X114855000Y-62988000D01*
D17*
X126087998Y-48156002D02*
X126746000Y-47498000D01*
D19*
X116496000Y-62988000D02*
X116500000Y-62992000D01*
X114855000Y-62988000D02*
X116496000Y-62988000D01*
D21*
X114855000Y-65663002D02*
X114855000Y-64693002D01*
X115923999Y-66732001D02*
X114855000Y-65663002D01*
X117076001Y-66732001D02*
X115923999Y-66732001D01*
X122108999Y-76388999D02*
X122108999Y-71764999D01*
X121989999Y-76507999D02*
X122108999Y-76388999D01*
X122108999Y-71764999D02*
X117076001Y-66732001D01*
X127000000Y-83500000D02*
X125799999Y-84700001D01*
X121940999Y-76388999D02*
X119449999Y-78879999D01*
X122108999Y-76388999D02*
X121940999Y-76388999D01*
X124341999Y-84700001D02*
X123883999Y-84700001D01*
X119449999Y-78879999D02*
X119449999Y-81140001D01*
X125799999Y-84700001D02*
X124341999Y-84700001D01*
D19*
X123190000Y-84310002D02*
X123579999Y-84700001D01*
X123190000Y-83030998D02*
X123190000Y-84310002D01*
X121588003Y-81429001D02*
X123190000Y-83030998D01*
X119738999Y-81429001D02*
X121588003Y-81429001D01*
D21*
X123579999Y-84700001D02*
X124341999Y-84700001D01*
X119449999Y-81140001D02*
X119738999Y-81429001D01*
D19*
%TO.N,/EPD_BUSY*%
X122682000Y-47815000D02*
X122682000Y-48300000D01*
D17*
X118190002Y-52828000D02*
X115079010Y-52828000D01*
X122282001Y-48736001D02*
X118190002Y-52828000D01*
X122282001Y-48445999D02*
X122282001Y-48736001D01*
X122682000Y-48046000D02*
X122282001Y-48445999D01*
D19*
X116496000Y-52828000D02*
X116500000Y-52832000D01*
X114855000Y-52828000D02*
X116496000Y-52828000D01*
%TO.N,/G0*%
X114859000Y-78232000D02*
X114855000Y-78228000D01*
X116500000Y-78232000D02*
X114859000Y-78232000D01*
X116500000Y-78861766D02*
X116500000Y-78232000D01*
D20*
X120669999Y-82249999D02*
X121920000Y-83500000D01*
X119315918Y-82249999D02*
X120669999Y-82249999D01*
X116500000Y-79434081D02*
X119315918Y-82249999D01*
X116500000Y-78232000D02*
X116500000Y-79434081D01*
D17*
%TO.N,/G1*%
X118165000Y-75688000D02*
X116590000Y-75688000D01*
D19*
X118161000Y-75692000D02*
X118165000Y-75688000D01*
X116500000Y-75692000D02*
X118161000Y-75692000D01*
X130556000Y-56076315D02*
X130556000Y-54356000D01*
X130556000Y-56227998D02*
X130556000Y-54356000D01*
X124714000Y-62069998D02*
X130556000Y-56227998D01*
D17*
%TO.N,/D+*%
X132635000Y-73152000D02*
X132334000Y-73152000D01*
X132635000Y-73152000D02*
X134200000Y-73152000D01*
X125730000Y-80010000D02*
X128270000Y-77470000D01*
X129882000Y-77470000D02*
X134200000Y-73152000D01*
X128270000Y-77470000D02*
X129882000Y-77470000D01*
%TO.N,/D-*%
X124460000Y-63120000D02*
X129540000Y-63120000D01*
X127778000Y-62342000D02*
X127000000Y-63120000D01*
X127778000Y-60706000D02*
X127778000Y-62342000D01*
X135945000Y-70612000D02*
X134200000Y-70612000D01*
X132609998Y-70612000D02*
X134200000Y-70612000D01*
X130048000Y-73173998D02*
X132609998Y-70612000D01*
X130048000Y-75184000D02*
X130048000Y-73173998D01*
X129286000Y-75946000D02*
X130048000Y-75184000D01*
X128016000Y-75946000D02*
X129286000Y-75946000D01*
D19*
X129460956Y-63199044D02*
X129540000Y-63120000D01*
X129460956Y-63579044D02*
X129460956Y-63199044D01*
D17*
%TO.N,/G9*%
X135945000Y-65532000D02*
X136906000Y-65532000D01*
D19*
X134200000Y-65532000D02*
X135945000Y-65532000D01*
D17*
%TO.N,Net-(D6-Pad2)*%
X131211998Y-69214000D02*
X132600000Y-69214000D01*
X129540000Y-67542002D02*
X131211998Y-69214000D01*
X129540000Y-66420000D02*
X129540000Y-67542002D01*
%TO.N,Net-(D7-Pad2)*%
X127215916Y-66420000D02*
X130185957Y-69390041D01*
X127000000Y-66420000D02*
X127215916Y-66420000D01*
%TO.N,Net-(D8-Pad2)*%
X127254000Y-69214000D02*
X128600000Y-69214000D01*
X124460000Y-66420000D02*
X127254000Y-69214000D01*
D19*
%TO.N,/EN*%
X132635000Y-62992000D02*
X134200000Y-62992000D01*
%TO.N,/G21*%
X132635000Y-57912000D02*
X134200000Y-57912000D01*
%TO.N,/G20*%
X134200000Y-60452000D02*
X135945000Y-60452000D01*
%TD*%
D22*
%TO.N,GND*%
X138466001Y-42973996D02*
X138466000Y-83354031D01*
X136456949Y-84548000D01*
X133124967Y-84548000D01*
X133275178Y-84381355D01*
X133424157Y-84131252D01*
X133521481Y-83856891D01*
X133400814Y-83627000D01*
X132207000Y-83627000D01*
X132207000Y-83647000D01*
X131953000Y-83647000D01*
X131953000Y-83627000D01*
X131933000Y-83627000D01*
X131933000Y-83373000D01*
X131953000Y-83373000D01*
X131953000Y-82179845D01*
X132207000Y-82179845D01*
X132207000Y-83373000D01*
X133400814Y-83373000D01*
X133521481Y-83143109D01*
X133424157Y-82868748D01*
X133275178Y-82618645D01*
X133080269Y-82402412D01*
X132968800Y-82319268D01*
X134165000Y-82319268D01*
X134165000Y-82680732D01*
X134235518Y-83035250D01*
X134373844Y-83369199D01*
X134574662Y-83669744D01*
X134830256Y-83925338D01*
X135130801Y-84126156D01*
X135464750Y-84264482D01*
X135819268Y-84335000D01*
X136180732Y-84335000D01*
X136535250Y-84264482D01*
X136869199Y-84126156D01*
X137169744Y-83925338D01*
X137425338Y-83669744D01*
X137626156Y-83369199D01*
X137764482Y-83035250D01*
X137835000Y-82680732D01*
X137835000Y-82319268D01*
X137764482Y-81964750D01*
X137626156Y-81630801D01*
X137425338Y-81330256D01*
X137169744Y-81074662D01*
X136869199Y-80873844D01*
X136535250Y-80735518D01*
X136180732Y-80665000D01*
X135819268Y-80665000D01*
X135464750Y-80735518D01*
X135130801Y-80873844D01*
X134830256Y-81074662D01*
X134574662Y-81330256D01*
X134373844Y-81630801D01*
X134235518Y-81964750D01*
X134165000Y-82319268D01*
X132968800Y-82319268D01*
X132846920Y-82228359D01*
X132584099Y-82103175D01*
X132436890Y-82058524D01*
X132207000Y-82179845D01*
X131953000Y-82179845D01*
X131723110Y-82058524D01*
X131575901Y-82103175D01*
X131313080Y-82228359D01*
X131079731Y-82402412D01*
X130884822Y-82618645D01*
X130815195Y-82735534D01*
X130693475Y-82553368D01*
X130486632Y-82346525D01*
X130243411Y-82184010D01*
X129973158Y-82072068D01*
X129686260Y-82015000D01*
X129393740Y-82015000D01*
X129106842Y-82072068D01*
X128836589Y-82184010D01*
X128593368Y-82346525D01*
X128386525Y-82553368D01*
X128270000Y-82727760D01*
X128153475Y-82553368D01*
X127946632Y-82346525D01*
X127703411Y-82184010D01*
X127433158Y-82072068D01*
X127146260Y-82015000D01*
X126853740Y-82015000D01*
X126566842Y-82072068D01*
X126296589Y-82184010D01*
X126053368Y-82346525D01*
X125846525Y-82553368D01*
X125730000Y-82727760D01*
X125613475Y-82553368D01*
X125406632Y-82346525D01*
X125345000Y-82305344D01*
X125345000Y-81998523D01*
X125332195Y-81868510D01*
X125281589Y-81701687D01*
X125245000Y-81633233D01*
X125245000Y-81416458D01*
X125296842Y-81437932D01*
X125583740Y-81495000D01*
X125876260Y-81495000D01*
X126163158Y-81437932D01*
X126433411Y-81325990D01*
X126676632Y-81163475D01*
X126883475Y-80956632D01*
X127005195Y-80774466D01*
X127074822Y-80891355D01*
X127269731Y-81107588D01*
X127503080Y-81281641D01*
X127765901Y-81406825D01*
X127913110Y-81451476D01*
X128143000Y-81330155D01*
X128143000Y-80137000D01*
X128397000Y-80137000D01*
X128397000Y-81330155D01*
X128626890Y-81451476D01*
X128774099Y-81406825D01*
X129036920Y-81281641D01*
X129270269Y-81107588D01*
X129465178Y-80891355D01*
X129614157Y-80641252D01*
X129711481Y-80366891D01*
X129590814Y-80137000D01*
X128397000Y-80137000D01*
X128143000Y-80137000D01*
X128123000Y-80137000D01*
X128123000Y-79883000D01*
X128143000Y-79883000D01*
X128143000Y-79863000D01*
X128397000Y-79863000D01*
X128397000Y-79883000D01*
X129590814Y-79883000D01*
X129711481Y-79653109D01*
X129614157Y-79378748D01*
X129465178Y-79128645D01*
X129270269Y-78912412D01*
X129036920Y-78738359D01*
X129023570Y-78732000D01*
X130741928Y-78732000D01*
X130754188Y-78856482D01*
X130790498Y-78976180D01*
X130849463Y-79086494D01*
X130928815Y-79183185D01*
X131025506Y-79262537D01*
X131135820Y-79321502D01*
X131255518Y-79357812D01*
X131380000Y-79370072D01*
X132349250Y-79367000D01*
X132508000Y-79208250D01*
X132508000Y-78588890D01*
X132758524Y-78588890D01*
X132762000Y-78600350D01*
X132762000Y-79208250D01*
X132920750Y-79367000D01*
X133253052Y-79368053D01*
X133318645Y-79427178D01*
X133568748Y-79576157D01*
X133843109Y-79673481D01*
X134073000Y-79552814D01*
X134073000Y-79340061D01*
X134134180Y-79321502D01*
X134244494Y-79262537D01*
X134327000Y-79194826D01*
X134327000Y-79552814D01*
X134556891Y-79673481D01*
X134831252Y-79576157D01*
X135081355Y-79427178D01*
X135297588Y-79232269D01*
X135471641Y-78998920D01*
X135596825Y-78736099D01*
X135641476Y-78588890D01*
X135520155Y-78359000D01*
X132762000Y-78359000D01*
X132762000Y-78582303D01*
X132758524Y-78588890D01*
X132508000Y-78588890D01*
X132508000Y-78359000D01*
X130903750Y-78359000D01*
X130745000Y-78517750D01*
X130741928Y-78732000D01*
X129023570Y-78732000D01*
X128774099Y-78613175D01*
X128626890Y-78568524D01*
X128397002Y-78689844D01*
X128397002Y-78594577D01*
X128636579Y-78355000D01*
X129838531Y-78355000D01*
X129882000Y-78359281D01*
X129925469Y-78355000D01*
X129925477Y-78355000D01*
X130055490Y-78342195D01*
X130222313Y-78291589D01*
X130376059Y-78209411D01*
X130510817Y-78098817D01*
X130538534Y-78065044D01*
X130743761Y-77859817D01*
X130745000Y-77946250D01*
X130903750Y-78105000D01*
X132508000Y-78105000D01*
X132508000Y-77255750D01*
X132349250Y-77097000D01*
X131509241Y-77094338D01*
X132723348Y-75880230D01*
X132772068Y-76125158D01*
X132884010Y-76395411D01*
X133046525Y-76638632D01*
X133253368Y-76845475D01*
X133435534Y-76967195D01*
X133318645Y-77036822D01*
X133253052Y-77095947D01*
X132920750Y-77097000D01*
X132762000Y-77255750D01*
X132762000Y-77863650D01*
X132758524Y-77875110D01*
X132762000Y-77881697D01*
X132762000Y-78105000D01*
X135520155Y-78105000D01*
X135641476Y-77875110D01*
X135596825Y-77727901D01*
X135471641Y-77465080D01*
X135297588Y-77231731D01*
X135081355Y-77036822D01*
X134964466Y-76967195D01*
X135146632Y-76845475D01*
X135162035Y-76830072D01*
X137200000Y-76830072D01*
X137324482Y-76817812D01*
X137444180Y-76781502D01*
X137554494Y-76722537D01*
X137651185Y-76643185D01*
X137730537Y-76546494D01*
X137789502Y-76436180D01*
X137825812Y-76316482D01*
X137838072Y-76192000D01*
X137838072Y-75192000D01*
X137825812Y-75067518D01*
X137789502Y-74947820D01*
X137730537Y-74837506D01*
X137651185Y-74740815D01*
X137554494Y-74661463D01*
X137444180Y-74602498D01*
X137324482Y-74566188D01*
X137200000Y-74553928D01*
X135162035Y-74553928D01*
X135146632Y-74538525D01*
X134972240Y-74422000D01*
X135146632Y-74305475D01*
X135353475Y-74098632D01*
X135515990Y-73855411D01*
X135627932Y-73585158D01*
X135685000Y-73298260D01*
X135685000Y-73005740D01*
X135627932Y-72718842D01*
X135515990Y-72448589D01*
X135353475Y-72205368D01*
X135146632Y-71998525D01*
X134972240Y-71882000D01*
X135146632Y-71765475D01*
X135162035Y-71750072D01*
X137200000Y-71750072D01*
X137324482Y-71737812D01*
X137444180Y-71701502D01*
X137554494Y-71642537D01*
X137651185Y-71563185D01*
X137730537Y-71466494D01*
X137789502Y-71356180D01*
X137825812Y-71236482D01*
X137838072Y-71112000D01*
X137838072Y-70112000D01*
X137825812Y-69987518D01*
X137789502Y-69867820D01*
X137730537Y-69757506D01*
X137651185Y-69660815D01*
X137554494Y-69581463D01*
X137444180Y-69522498D01*
X137324482Y-69486188D01*
X137200000Y-69473928D01*
X135162035Y-69473928D01*
X135146632Y-69458525D01*
X134964466Y-69336805D01*
X135081355Y-69267178D01*
X135297588Y-69072269D01*
X135471641Y-68838920D01*
X135596825Y-68576099D01*
X135641476Y-68428890D01*
X135520155Y-68199000D01*
X132802487Y-68199000D01*
X132701939Y-68179000D01*
X132498061Y-68179000D01*
X132488000Y-68181001D01*
X132488000Y-67945000D01*
X132508000Y-67945000D01*
X132508000Y-67095750D01*
X132349250Y-66937000D01*
X131380000Y-66933928D01*
X131255518Y-66946188D01*
X131135820Y-66982498D01*
X131025506Y-67041463D01*
X130928815Y-67120815D01*
X130849463Y-67217506D01*
X130790498Y-67327820D01*
X130754188Y-67447518D01*
X130749069Y-67499493D01*
X130579967Y-67330391D01*
X130591185Y-67321185D01*
X130670537Y-67224494D01*
X130729502Y-67114180D01*
X130765812Y-66994482D01*
X130778072Y-66870000D01*
X130778072Y-65970000D01*
X130765812Y-65845518D01*
X130729502Y-65725820D01*
X130670537Y-65615506D01*
X130591185Y-65518815D01*
X130494494Y-65439463D01*
X130384180Y-65380498D01*
X130264482Y-65344188D01*
X130140000Y-65331928D01*
X128940000Y-65331928D01*
X128815518Y-65344188D01*
X128695820Y-65380498D01*
X128585506Y-65439463D01*
X128488815Y-65518815D01*
X128409463Y-65615506D01*
X128350498Y-65725820D01*
X128314188Y-65845518D01*
X128301928Y-65970000D01*
X128301928Y-66254434D01*
X128238072Y-66190578D01*
X128238072Y-65970000D01*
X128225812Y-65845518D01*
X128189502Y-65725820D01*
X128130537Y-65615506D01*
X128051185Y-65518815D01*
X127954494Y-65439463D01*
X127844180Y-65380498D01*
X127724482Y-65344188D01*
X127600000Y-65331928D01*
X126400000Y-65331928D01*
X126275518Y-65344188D01*
X126155820Y-65380498D01*
X126045506Y-65439463D01*
X125948815Y-65518815D01*
X125869463Y-65615506D01*
X125810498Y-65725820D01*
X125774188Y-65845518D01*
X125761928Y-65970000D01*
X125761928Y-66470350D01*
X125698072Y-66406494D01*
X125698072Y-65970000D01*
X125685812Y-65845518D01*
X125649502Y-65725820D01*
X125590537Y-65615506D01*
X125511185Y-65518815D01*
X125414494Y-65439463D01*
X125304180Y-65380498D01*
X125184482Y-65344188D01*
X125060000Y-65331928D01*
X123860000Y-65331928D01*
X123735518Y-65344188D01*
X123615820Y-65380498D01*
X123505506Y-65439463D01*
X123408815Y-65518815D01*
X123329463Y-65615506D01*
X123270498Y-65725820D01*
X123234188Y-65845518D01*
X123221928Y-65970000D01*
X123221928Y-66870000D01*
X123234188Y-66994482D01*
X123270498Y-67114180D01*
X123329463Y-67224494D01*
X123408815Y-67321185D01*
X123505506Y-67400537D01*
X123615820Y-67459502D01*
X123735518Y-67495812D01*
X123860000Y-67508072D01*
X124296494Y-67508072D01*
X126597470Y-69809049D01*
X126625183Y-69842817D01*
X126658951Y-69870530D01*
X126658953Y-69870532D01*
X126759941Y-69953411D01*
X126913686Y-70035589D01*
X127080507Y-70086194D01*
X127080510Y-70086195D01*
X127210523Y-70099000D01*
X127210531Y-70099000D01*
X127254000Y-70103281D01*
X127297469Y-70099000D01*
X128061546Y-70099000D01*
X128109744Y-70131205D01*
X128298102Y-70209226D01*
X128498061Y-70249000D01*
X128701939Y-70249000D01*
X128901898Y-70209226D01*
X129090256Y-70131205D01*
X129259774Y-70017937D01*
X129320287Y-69957424D01*
X129382020Y-70049815D01*
X129526183Y-70193978D01*
X129695701Y-70307246D01*
X129884059Y-70385267D01*
X130084018Y-70425041D01*
X130287896Y-70425041D01*
X130487855Y-70385267D01*
X130676213Y-70307246D01*
X130845731Y-70193978D01*
X130973296Y-70066413D01*
X131038508Y-70086195D01*
X131168521Y-70099000D01*
X131168531Y-70099000D01*
X131211997Y-70103281D01*
X131255463Y-70099000D01*
X131871419Y-70099000D01*
X129452951Y-72517469D01*
X129419184Y-72545181D01*
X129391471Y-72578949D01*
X129391468Y-72578952D01*
X129308590Y-72679939D01*
X129226412Y-72833685D01*
X129175805Y-73000508D01*
X129158719Y-73173998D01*
X129163001Y-73217477D01*
X129163000Y-74817421D01*
X128919422Y-75061000D01*
X128554454Y-75061000D01*
X128506256Y-75028795D01*
X128317898Y-74950774D01*
X128117939Y-74911000D01*
X127914061Y-74911000D01*
X127714102Y-74950774D01*
X127525744Y-75028795D01*
X127356226Y-75142063D01*
X127212063Y-75286226D01*
X127098795Y-75455744D01*
X127020774Y-75644102D01*
X126981000Y-75844061D01*
X126981000Y-76047939D01*
X127020774Y-76247898D01*
X127098795Y-76436256D01*
X127212063Y-76605774D01*
X127356226Y-76749937D01*
X127525744Y-76863205D01*
X127596081Y-76892340D01*
X125948961Y-78539461D01*
X125876260Y-78525000D01*
X125583740Y-78525000D01*
X125296842Y-78582068D01*
X125245000Y-78603542D01*
X125245000Y-73231765D01*
X125281588Y-73163313D01*
X125332194Y-72996489D01*
X125349281Y-72822999D01*
X125332194Y-72649509D01*
X125281588Y-72482686D01*
X125199410Y-72328940D01*
X125116532Y-72227953D01*
X119542578Y-66654000D01*
X119544482Y-66653812D01*
X119664180Y-66617502D01*
X119774494Y-66558537D01*
X119871185Y-66479185D01*
X119922163Y-66417068D01*
X119963469Y-66413000D01*
X119963477Y-66413000D01*
X120093490Y-66400195D01*
X120260313Y-66349589D01*
X120414059Y-66267411D01*
X120548817Y-66156817D01*
X120576534Y-66123044D01*
X123221928Y-63477650D01*
X123221928Y-63570000D01*
X123234188Y-63694482D01*
X123270498Y-63814180D01*
X123329463Y-63924494D01*
X123408815Y-64021185D01*
X123505506Y-64100537D01*
X123615820Y-64159502D01*
X123735518Y-64195812D01*
X123860000Y-64208072D01*
X125060000Y-64208072D01*
X125184482Y-64195812D01*
X125304180Y-64159502D01*
X125414494Y-64100537D01*
X125511185Y-64021185D01*
X125524468Y-64005000D01*
X125935532Y-64005000D01*
X125948815Y-64021185D01*
X126045506Y-64100537D01*
X126155820Y-64159502D01*
X126275518Y-64195812D01*
X126400000Y-64208072D01*
X127600000Y-64208072D01*
X127724482Y-64195812D01*
X127844180Y-64159502D01*
X127954494Y-64100537D01*
X128051185Y-64021185D01*
X128064468Y-64005000D01*
X128475532Y-64005000D01*
X128488815Y-64021185D01*
X128541849Y-64064709D01*
X128543751Y-64069300D01*
X128657019Y-64238818D01*
X128801182Y-64382981D01*
X128970700Y-64496249D01*
X129159058Y-64574270D01*
X129359017Y-64614044D01*
X129562895Y-64614044D01*
X129762854Y-64574270D01*
X129951212Y-64496249D01*
X130120730Y-64382981D01*
X130264893Y-64238818D01*
X130301038Y-64184723D01*
X130384180Y-64159502D01*
X130494494Y-64100537D01*
X130591185Y-64021185D01*
X130670537Y-63924494D01*
X130729502Y-63814180D01*
X130765812Y-63694482D01*
X130768762Y-63664527D01*
X130790498Y-63736180D01*
X130849463Y-63846494D01*
X130928815Y-63943185D01*
X131025506Y-64022537D01*
X131135820Y-64081502D01*
X131255518Y-64117812D01*
X131380000Y-64130072D01*
X133237965Y-64130072D01*
X133253368Y-64145475D01*
X133427760Y-64262000D01*
X133253368Y-64378525D01*
X133046525Y-64585368D01*
X132884010Y-64828589D01*
X132772068Y-65098842D01*
X132715000Y-65385740D01*
X132715000Y-65678260D01*
X132772068Y-65965158D01*
X132884010Y-66235411D01*
X133046525Y-66478632D01*
X133253368Y-66685475D01*
X133435534Y-66807195D01*
X133318645Y-66876822D01*
X133253052Y-66935947D01*
X132920750Y-66937000D01*
X132762000Y-67095750D01*
X132762000Y-67703650D01*
X132758524Y-67715110D01*
X132762000Y-67721697D01*
X132762000Y-67945000D01*
X135520155Y-67945000D01*
X135641476Y-67715110D01*
X135596825Y-67567901D01*
X135471641Y-67305080D01*
X135297588Y-67071731D01*
X135081355Y-66876822D01*
X134964466Y-66807195D01*
X135146632Y-66685475D01*
X135162035Y-66670072D01*
X137200000Y-66670072D01*
X137324482Y-66657812D01*
X137444180Y-66621502D01*
X137554494Y-66562537D01*
X137651185Y-66483185D01*
X137730537Y-66386494D01*
X137789502Y-66276180D01*
X137825812Y-66156482D01*
X137838072Y-66032000D01*
X137838072Y-65032000D01*
X137825812Y-64907518D01*
X137789502Y-64787820D01*
X137730537Y-64677506D01*
X137651185Y-64580815D01*
X137554494Y-64501463D01*
X137444180Y-64442498D01*
X137324482Y-64406188D01*
X137200000Y-64393928D01*
X135162035Y-64393928D01*
X135146632Y-64378525D01*
X134972240Y-64262000D01*
X135146632Y-64145475D01*
X135353475Y-63938632D01*
X135515990Y-63695411D01*
X135627932Y-63425158D01*
X135685000Y-63138260D01*
X135685000Y-62845740D01*
X135627932Y-62558842D01*
X135515990Y-62288589D01*
X135353475Y-62045368D01*
X135146632Y-61838525D01*
X134972240Y-61722000D01*
X135146632Y-61605475D01*
X135162035Y-61590072D01*
X137200000Y-61590072D01*
X137324482Y-61577812D01*
X137444180Y-61541502D01*
X137554494Y-61482537D01*
X137651185Y-61403185D01*
X137730537Y-61306494D01*
X137789502Y-61196180D01*
X137825812Y-61076482D01*
X137838072Y-60952000D01*
X137838072Y-59952000D01*
X137825812Y-59827518D01*
X137789502Y-59707820D01*
X137730537Y-59597506D01*
X137651185Y-59500815D01*
X137554494Y-59421463D01*
X137444180Y-59362498D01*
X137324482Y-59326188D01*
X137200000Y-59313928D01*
X135162035Y-59313928D01*
X135146632Y-59298525D01*
X134972240Y-59182000D01*
X135146632Y-59065475D01*
X135353475Y-58858632D01*
X135515990Y-58615411D01*
X135627932Y-58345158D01*
X135685000Y-58058260D01*
X135685000Y-57765740D01*
X135627932Y-57478842D01*
X135515990Y-57208589D01*
X135353475Y-56965368D01*
X135221620Y-56833513D01*
X135294180Y-56811502D01*
X135404494Y-56752537D01*
X135501185Y-56673185D01*
X135580537Y-56576494D01*
X135616041Y-56510072D01*
X137200000Y-56510072D01*
X137324482Y-56497812D01*
X137444180Y-56461502D01*
X137554494Y-56402537D01*
X137651185Y-56323185D01*
X137730537Y-56226494D01*
X137789502Y-56116180D01*
X137825812Y-55996482D01*
X137838072Y-55872000D01*
X137838072Y-55432800D01*
X137899411Y-55358059D01*
X137981589Y-55204313D01*
X138032195Y-55037490D01*
X138045000Y-54907477D01*
X138045000Y-54907467D01*
X138049281Y-54864001D01*
X138045000Y-54820535D01*
X138045000Y-52648454D01*
X138077205Y-52600256D01*
X138155226Y-52411898D01*
X138195000Y-52211939D01*
X138195000Y-52008061D01*
X138155226Y-51808102D01*
X138077205Y-51619744D01*
X137963937Y-51450226D01*
X137819774Y-51306063D01*
X137650256Y-51192795D01*
X137461898Y-51114774D01*
X137405044Y-51103465D01*
X134251650Y-47950072D01*
X134966000Y-47950072D01*
X135090482Y-47937812D01*
X135210180Y-47901502D01*
X135320494Y-47842537D01*
X135417185Y-47763185D01*
X135496537Y-47666494D01*
X135555502Y-47556180D01*
X135591812Y-47436482D01*
X135604072Y-47312000D01*
X135604072Y-46412000D01*
X135591812Y-46287518D01*
X135555502Y-46167820D01*
X135496537Y-46057506D01*
X135417185Y-45960815D01*
X135320494Y-45881463D01*
X135210180Y-45822498D01*
X135090482Y-45786188D01*
X134966000Y-45773928D01*
X133766000Y-45773928D01*
X133641518Y-45786188D01*
X133521820Y-45822498D01*
X133411506Y-45881463D01*
X133314815Y-45960815D01*
X133235463Y-46057506D01*
X133176498Y-46167820D01*
X133140188Y-46287518D01*
X133127928Y-46412000D01*
X133127928Y-46826350D01*
X131934534Y-45632956D01*
X131906817Y-45599183D01*
X131772059Y-45488589D01*
X131618313Y-45406411D01*
X131451490Y-45355805D01*
X131321477Y-45343000D01*
X131321469Y-45343000D01*
X131278000Y-45338719D01*
X131234531Y-45343000D01*
X130786471Y-45343000D01*
X130784000Y-44989750D01*
X130625250Y-44831000D01*
X129688500Y-44831000D01*
X129688500Y-44851000D01*
X129434500Y-44851000D01*
X129434500Y-44831000D01*
X129414500Y-44831000D01*
X129414500Y-44577000D01*
X129434500Y-44577000D01*
X129434500Y-43502750D01*
X129275750Y-43344000D01*
X128974000Y-43340928D01*
X128849518Y-43353188D01*
X128729820Y-43389498D01*
X128619506Y-43448463D01*
X128522815Y-43527815D01*
X128457342Y-43607594D01*
X128451962Y-43601038D01*
X128317386Y-43490595D01*
X128279665Y-43470433D01*
X128281185Y-43469185D01*
X128360537Y-43372494D01*
X128419502Y-43262180D01*
X128445038Y-43178000D01*
X129733199Y-43178000D01*
X129775000Y-43219801D01*
X129775000Y-43281939D01*
X129797283Y-43393967D01*
X129688500Y-43502750D01*
X129688500Y-44577000D01*
X130625250Y-44577000D01*
X130784000Y-44418250D01*
X130785421Y-44215000D01*
X130911939Y-44215000D01*
X131111898Y-44175226D01*
X131300256Y-44097205D01*
X131469774Y-43983937D01*
X131613937Y-43839774D01*
X131727205Y-43670256D01*
X131805226Y-43481898D01*
X131845000Y-43281939D01*
X131845000Y-43078061D01*
X131805226Y-42878102D01*
X131727205Y-42689744D01*
X131613937Y-42520226D01*
X131469774Y-42376063D01*
X131300256Y-42262795D01*
X131276607Y-42252999D01*
X131982198Y-42252999D01*
X133127928Y-43398730D01*
X133127928Y-44012000D01*
X133140188Y-44136482D01*
X133176498Y-44256180D01*
X133235463Y-44366494D01*
X133314815Y-44463185D01*
X133411506Y-44542537D01*
X133521820Y-44601502D01*
X133641518Y-44637812D01*
X133766000Y-44650072D01*
X134966000Y-44650072D01*
X135090482Y-44637812D01*
X135210180Y-44601502D01*
X135320494Y-44542537D01*
X135417185Y-44463185D01*
X135496537Y-44366494D01*
X135555502Y-44256180D01*
X135591812Y-44136482D01*
X135604072Y-44012000D01*
X135604072Y-43112000D01*
X135591812Y-42987518D01*
X135555502Y-42867820D01*
X135496537Y-42757506D01*
X135417185Y-42660815D01*
X135320494Y-42581463D01*
X135210180Y-42522498D01*
X135090482Y-42486188D01*
X134966000Y-42473928D01*
X134352730Y-42473928D01*
X133660801Y-41782000D01*
X136479343Y-41782000D01*
X138466001Y-42973996D01*
%TA.AperFunction,Conductor*%
D23*
G36*
X138466001Y-42973996D02*
G01*
X138466000Y-83354031D01*
X136456949Y-84548000D01*
X133124967Y-84548000D01*
X133275178Y-84381355D01*
X133424157Y-84131252D01*
X133521481Y-83856891D01*
X133400814Y-83627000D01*
X132207000Y-83627000D01*
X132207000Y-83647000D01*
X131953000Y-83647000D01*
X131953000Y-83627000D01*
X131933000Y-83627000D01*
X131933000Y-83373000D01*
X131953000Y-83373000D01*
X131953000Y-82179845D01*
X132207000Y-82179845D01*
X132207000Y-83373000D01*
X133400814Y-83373000D01*
X133521481Y-83143109D01*
X133424157Y-82868748D01*
X133275178Y-82618645D01*
X133080269Y-82402412D01*
X132968800Y-82319268D01*
X134165000Y-82319268D01*
X134165000Y-82680732D01*
X134235518Y-83035250D01*
X134373844Y-83369199D01*
X134574662Y-83669744D01*
X134830256Y-83925338D01*
X135130801Y-84126156D01*
X135464750Y-84264482D01*
X135819268Y-84335000D01*
X136180732Y-84335000D01*
X136535250Y-84264482D01*
X136869199Y-84126156D01*
X137169744Y-83925338D01*
X137425338Y-83669744D01*
X137626156Y-83369199D01*
X137764482Y-83035250D01*
X137835000Y-82680732D01*
X137835000Y-82319268D01*
X137764482Y-81964750D01*
X137626156Y-81630801D01*
X137425338Y-81330256D01*
X137169744Y-81074662D01*
X136869199Y-80873844D01*
X136535250Y-80735518D01*
X136180732Y-80665000D01*
X135819268Y-80665000D01*
X135464750Y-80735518D01*
X135130801Y-80873844D01*
X134830256Y-81074662D01*
X134574662Y-81330256D01*
X134373844Y-81630801D01*
X134235518Y-81964750D01*
X134165000Y-82319268D01*
X132968800Y-82319268D01*
X132846920Y-82228359D01*
X132584099Y-82103175D01*
X132436890Y-82058524D01*
X132207000Y-82179845D01*
X131953000Y-82179845D01*
X131723110Y-82058524D01*
X131575901Y-82103175D01*
X131313080Y-82228359D01*
X131079731Y-82402412D01*
X130884822Y-82618645D01*
X130815195Y-82735534D01*
X130693475Y-82553368D01*
X130486632Y-82346525D01*
X130243411Y-82184010D01*
X129973158Y-82072068D01*
X129686260Y-82015000D01*
X129393740Y-82015000D01*
X129106842Y-82072068D01*
X128836589Y-82184010D01*
X128593368Y-82346525D01*
X128386525Y-82553368D01*
X128270000Y-82727760D01*
X128153475Y-82553368D01*
X127946632Y-82346525D01*
X127703411Y-82184010D01*
X127433158Y-82072068D01*
X127146260Y-82015000D01*
X126853740Y-82015000D01*
X126566842Y-82072068D01*
X126296589Y-82184010D01*
X126053368Y-82346525D01*
X125846525Y-82553368D01*
X125730000Y-82727760D01*
X125613475Y-82553368D01*
X125406632Y-82346525D01*
X125345000Y-82305344D01*
X125345000Y-81998523D01*
X125332195Y-81868510D01*
X125281589Y-81701687D01*
X125245000Y-81633233D01*
X125245000Y-81416458D01*
X125296842Y-81437932D01*
X125583740Y-81495000D01*
X125876260Y-81495000D01*
X126163158Y-81437932D01*
X126433411Y-81325990D01*
X126676632Y-81163475D01*
X126883475Y-80956632D01*
X127005195Y-80774466D01*
X127074822Y-80891355D01*
X127269731Y-81107588D01*
X127503080Y-81281641D01*
X127765901Y-81406825D01*
X127913110Y-81451476D01*
X128143000Y-81330155D01*
X128143000Y-80137000D01*
X128397000Y-80137000D01*
X128397000Y-81330155D01*
X128626890Y-81451476D01*
X128774099Y-81406825D01*
X129036920Y-81281641D01*
X129270269Y-81107588D01*
X129465178Y-80891355D01*
X129614157Y-80641252D01*
X129711481Y-80366891D01*
X129590814Y-80137000D01*
X128397000Y-80137000D01*
X128143000Y-80137000D01*
X128123000Y-80137000D01*
X128123000Y-79883000D01*
X128143000Y-79883000D01*
X128143000Y-79863000D01*
X128397000Y-79863000D01*
X128397000Y-79883000D01*
X129590814Y-79883000D01*
X129711481Y-79653109D01*
X129614157Y-79378748D01*
X129465178Y-79128645D01*
X129270269Y-78912412D01*
X129036920Y-78738359D01*
X129023570Y-78732000D01*
X130741928Y-78732000D01*
X130754188Y-78856482D01*
X130790498Y-78976180D01*
X130849463Y-79086494D01*
X130928815Y-79183185D01*
X131025506Y-79262537D01*
X131135820Y-79321502D01*
X131255518Y-79357812D01*
X131380000Y-79370072D01*
X132349250Y-79367000D01*
X132508000Y-79208250D01*
X132508000Y-78588890D01*
X132758524Y-78588890D01*
X132762000Y-78600350D01*
X132762000Y-79208250D01*
X132920750Y-79367000D01*
X133253052Y-79368053D01*
X133318645Y-79427178D01*
X133568748Y-79576157D01*
X133843109Y-79673481D01*
X134073000Y-79552814D01*
X134073000Y-79340061D01*
X134134180Y-79321502D01*
X134244494Y-79262537D01*
X134327000Y-79194826D01*
X134327000Y-79552814D01*
X134556891Y-79673481D01*
X134831252Y-79576157D01*
X135081355Y-79427178D01*
X135297588Y-79232269D01*
X135471641Y-78998920D01*
X135596825Y-78736099D01*
X135641476Y-78588890D01*
X135520155Y-78359000D01*
X132762000Y-78359000D01*
X132762000Y-78582303D01*
X132758524Y-78588890D01*
X132508000Y-78588890D01*
X132508000Y-78359000D01*
X130903750Y-78359000D01*
X130745000Y-78517750D01*
X130741928Y-78732000D01*
X129023570Y-78732000D01*
X128774099Y-78613175D01*
X128626890Y-78568524D01*
X128397002Y-78689844D01*
X128397002Y-78594577D01*
X128636579Y-78355000D01*
X129838531Y-78355000D01*
X129882000Y-78359281D01*
X129925469Y-78355000D01*
X129925477Y-78355000D01*
X130055490Y-78342195D01*
X130222313Y-78291589D01*
X130376059Y-78209411D01*
X130510817Y-78098817D01*
X130538534Y-78065044D01*
X130743761Y-77859817D01*
X130745000Y-77946250D01*
X130903750Y-78105000D01*
X132508000Y-78105000D01*
X132508000Y-77255750D01*
X132349250Y-77097000D01*
X131509241Y-77094338D01*
X132723348Y-75880230D01*
X132772068Y-76125158D01*
X132884010Y-76395411D01*
X133046525Y-76638632D01*
X133253368Y-76845475D01*
X133435534Y-76967195D01*
X133318645Y-77036822D01*
X133253052Y-77095947D01*
X132920750Y-77097000D01*
X132762000Y-77255750D01*
X132762000Y-77863650D01*
X132758524Y-77875110D01*
X132762000Y-77881697D01*
X132762000Y-78105000D01*
X135520155Y-78105000D01*
X135641476Y-77875110D01*
X135596825Y-77727901D01*
X135471641Y-77465080D01*
X135297588Y-77231731D01*
X135081355Y-77036822D01*
X134964466Y-76967195D01*
X135146632Y-76845475D01*
X135162035Y-76830072D01*
X137200000Y-76830072D01*
X137324482Y-76817812D01*
X137444180Y-76781502D01*
X137554494Y-76722537D01*
X137651185Y-76643185D01*
X137730537Y-76546494D01*
X137789502Y-76436180D01*
X137825812Y-76316482D01*
X137838072Y-76192000D01*
X137838072Y-75192000D01*
X137825812Y-75067518D01*
X137789502Y-74947820D01*
X137730537Y-74837506D01*
X137651185Y-74740815D01*
X137554494Y-74661463D01*
X137444180Y-74602498D01*
X137324482Y-74566188D01*
X137200000Y-74553928D01*
X135162035Y-74553928D01*
X135146632Y-74538525D01*
X134972240Y-74422000D01*
X135146632Y-74305475D01*
X135353475Y-74098632D01*
X135515990Y-73855411D01*
X135627932Y-73585158D01*
X135685000Y-73298260D01*
X135685000Y-73005740D01*
X135627932Y-72718842D01*
X135515990Y-72448589D01*
X135353475Y-72205368D01*
X135146632Y-71998525D01*
X134972240Y-71882000D01*
X135146632Y-71765475D01*
X135162035Y-71750072D01*
X137200000Y-71750072D01*
X137324482Y-71737812D01*
X137444180Y-71701502D01*
X137554494Y-71642537D01*
X137651185Y-71563185D01*
X137730537Y-71466494D01*
X137789502Y-71356180D01*
X137825812Y-71236482D01*
X137838072Y-71112000D01*
X137838072Y-70112000D01*
X137825812Y-69987518D01*
X137789502Y-69867820D01*
X137730537Y-69757506D01*
X137651185Y-69660815D01*
X137554494Y-69581463D01*
X137444180Y-69522498D01*
X137324482Y-69486188D01*
X137200000Y-69473928D01*
X135162035Y-69473928D01*
X135146632Y-69458525D01*
X134964466Y-69336805D01*
X135081355Y-69267178D01*
X135297588Y-69072269D01*
X135471641Y-68838920D01*
X135596825Y-68576099D01*
X135641476Y-68428890D01*
X135520155Y-68199000D01*
X132802487Y-68199000D01*
X132701939Y-68179000D01*
X132498061Y-68179000D01*
X132488000Y-68181001D01*
X132488000Y-67945000D01*
X132508000Y-67945000D01*
X132508000Y-67095750D01*
X132349250Y-66937000D01*
X131380000Y-66933928D01*
X131255518Y-66946188D01*
X131135820Y-66982498D01*
X131025506Y-67041463D01*
X130928815Y-67120815D01*
X130849463Y-67217506D01*
X130790498Y-67327820D01*
X130754188Y-67447518D01*
X130749069Y-67499493D01*
X130579967Y-67330391D01*
X130591185Y-67321185D01*
X130670537Y-67224494D01*
X130729502Y-67114180D01*
X130765812Y-66994482D01*
X130778072Y-66870000D01*
X130778072Y-65970000D01*
X130765812Y-65845518D01*
X130729502Y-65725820D01*
X130670537Y-65615506D01*
X130591185Y-65518815D01*
X130494494Y-65439463D01*
X130384180Y-65380498D01*
X130264482Y-65344188D01*
X130140000Y-65331928D01*
X128940000Y-65331928D01*
X128815518Y-65344188D01*
X128695820Y-65380498D01*
X128585506Y-65439463D01*
X128488815Y-65518815D01*
X128409463Y-65615506D01*
X128350498Y-65725820D01*
X128314188Y-65845518D01*
X128301928Y-65970000D01*
X128301928Y-66254434D01*
X128238072Y-66190578D01*
X128238072Y-65970000D01*
X128225812Y-65845518D01*
X128189502Y-65725820D01*
X128130537Y-65615506D01*
X128051185Y-65518815D01*
X127954494Y-65439463D01*
X127844180Y-65380498D01*
X127724482Y-65344188D01*
X127600000Y-65331928D01*
X126400000Y-65331928D01*
X126275518Y-65344188D01*
X126155820Y-65380498D01*
X126045506Y-65439463D01*
X125948815Y-65518815D01*
X125869463Y-65615506D01*
X125810498Y-65725820D01*
X125774188Y-65845518D01*
X125761928Y-65970000D01*
X125761928Y-66470350D01*
X125698072Y-66406494D01*
X125698072Y-65970000D01*
X125685812Y-65845518D01*
X125649502Y-65725820D01*
X125590537Y-65615506D01*
X125511185Y-65518815D01*
X125414494Y-65439463D01*
X125304180Y-65380498D01*
X125184482Y-65344188D01*
X125060000Y-65331928D01*
X123860000Y-65331928D01*
X123735518Y-65344188D01*
X123615820Y-65380498D01*
X123505506Y-65439463D01*
X123408815Y-65518815D01*
X123329463Y-65615506D01*
X123270498Y-65725820D01*
X123234188Y-65845518D01*
X123221928Y-65970000D01*
X123221928Y-66870000D01*
X123234188Y-66994482D01*
X123270498Y-67114180D01*
X123329463Y-67224494D01*
X123408815Y-67321185D01*
X123505506Y-67400537D01*
X123615820Y-67459502D01*
X123735518Y-67495812D01*
X123860000Y-67508072D01*
X124296494Y-67508072D01*
X126597470Y-69809049D01*
X126625183Y-69842817D01*
X126658951Y-69870530D01*
X126658953Y-69870532D01*
X126759941Y-69953411D01*
X126913686Y-70035589D01*
X127080507Y-70086194D01*
X127080510Y-70086195D01*
X127210523Y-70099000D01*
X127210531Y-70099000D01*
X127254000Y-70103281D01*
X127297469Y-70099000D01*
X128061546Y-70099000D01*
X128109744Y-70131205D01*
X128298102Y-70209226D01*
X128498061Y-70249000D01*
X128701939Y-70249000D01*
X128901898Y-70209226D01*
X129090256Y-70131205D01*
X129259774Y-70017937D01*
X129320287Y-69957424D01*
X129382020Y-70049815D01*
X129526183Y-70193978D01*
X129695701Y-70307246D01*
X129884059Y-70385267D01*
X130084018Y-70425041D01*
X130287896Y-70425041D01*
X130487855Y-70385267D01*
X130676213Y-70307246D01*
X130845731Y-70193978D01*
X130973296Y-70066413D01*
X131038508Y-70086195D01*
X131168521Y-70099000D01*
X131168531Y-70099000D01*
X131211997Y-70103281D01*
X131255463Y-70099000D01*
X131871419Y-70099000D01*
X129452951Y-72517469D01*
X129419184Y-72545181D01*
X129391471Y-72578949D01*
X129391468Y-72578952D01*
X129308590Y-72679939D01*
X129226412Y-72833685D01*
X129175805Y-73000508D01*
X129158719Y-73173998D01*
X129163001Y-73217477D01*
X129163000Y-74817421D01*
X128919422Y-75061000D01*
X128554454Y-75061000D01*
X128506256Y-75028795D01*
X128317898Y-74950774D01*
X128117939Y-74911000D01*
X127914061Y-74911000D01*
X127714102Y-74950774D01*
X127525744Y-75028795D01*
X127356226Y-75142063D01*
X127212063Y-75286226D01*
X127098795Y-75455744D01*
X127020774Y-75644102D01*
X126981000Y-75844061D01*
X126981000Y-76047939D01*
X127020774Y-76247898D01*
X127098795Y-76436256D01*
X127212063Y-76605774D01*
X127356226Y-76749937D01*
X127525744Y-76863205D01*
X127596081Y-76892340D01*
X125948961Y-78539461D01*
X125876260Y-78525000D01*
X125583740Y-78525000D01*
X125296842Y-78582068D01*
X125245000Y-78603542D01*
X125245000Y-73231765D01*
X125281588Y-73163313D01*
X125332194Y-72996489D01*
X125349281Y-72822999D01*
X125332194Y-72649509D01*
X125281588Y-72482686D01*
X125199410Y-72328940D01*
X125116532Y-72227953D01*
X119542578Y-66654000D01*
X119544482Y-66653812D01*
X119664180Y-66617502D01*
X119774494Y-66558537D01*
X119871185Y-66479185D01*
X119922163Y-66417068D01*
X119963469Y-66413000D01*
X119963477Y-66413000D01*
X120093490Y-66400195D01*
X120260313Y-66349589D01*
X120414059Y-66267411D01*
X120548817Y-66156817D01*
X120576534Y-66123044D01*
X123221928Y-63477650D01*
X123221928Y-63570000D01*
X123234188Y-63694482D01*
X123270498Y-63814180D01*
X123329463Y-63924494D01*
X123408815Y-64021185D01*
X123505506Y-64100537D01*
X123615820Y-64159502D01*
X123735518Y-64195812D01*
X123860000Y-64208072D01*
X125060000Y-64208072D01*
X125184482Y-64195812D01*
X125304180Y-64159502D01*
X125414494Y-64100537D01*
X125511185Y-64021185D01*
X125524468Y-64005000D01*
X125935532Y-64005000D01*
X125948815Y-64021185D01*
X126045506Y-64100537D01*
X126155820Y-64159502D01*
X126275518Y-64195812D01*
X126400000Y-64208072D01*
X127600000Y-64208072D01*
X127724482Y-64195812D01*
X127844180Y-64159502D01*
X127954494Y-64100537D01*
X128051185Y-64021185D01*
X128064468Y-64005000D01*
X128475532Y-64005000D01*
X128488815Y-64021185D01*
X128541849Y-64064709D01*
X128543751Y-64069300D01*
X128657019Y-64238818D01*
X128801182Y-64382981D01*
X128970700Y-64496249D01*
X129159058Y-64574270D01*
X129359017Y-64614044D01*
X129562895Y-64614044D01*
X129762854Y-64574270D01*
X129951212Y-64496249D01*
X130120730Y-64382981D01*
X130264893Y-64238818D01*
X130301038Y-64184723D01*
X130384180Y-64159502D01*
X130494494Y-64100537D01*
X130591185Y-64021185D01*
X130670537Y-63924494D01*
X130729502Y-63814180D01*
X130765812Y-63694482D01*
X130768762Y-63664527D01*
X130790498Y-63736180D01*
X130849463Y-63846494D01*
X130928815Y-63943185D01*
X131025506Y-64022537D01*
X131135820Y-64081502D01*
X131255518Y-64117812D01*
X131380000Y-64130072D01*
X133237965Y-64130072D01*
X133253368Y-64145475D01*
X133427760Y-64262000D01*
X133253368Y-64378525D01*
X133046525Y-64585368D01*
X132884010Y-64828589D01*
X132772068Y-65098842D01*
X132715000Y-65385740D01*
X132715000Y-65678260D01*
X132772068Y-65965158D01*
X132884010Y-66235411D01*
X133046525Y-66478632D01*
X133253368Y-66685475D01*
X133435534Y-66807195D01*
X133318645Y-66876822D01*
X133253052Y-66935947D01*
X132920750Y-66937000D01*
X132762000Y-67095750D01*
X132762000Y-67703650D01*
X132758524Y-67715110D01*
X132762000Y-67721697D01*
X132762000Y-67945000D01*
X135520155Y-67945000D01*
X135641476Y-67715110D01*
X135596825Y-67567901D01*
X135471641Y-67305080D01*
X135297588Y-67071731D01*
X135081355Y-66876822D01*
X134964466Y-66807195D01*
X135146632Y-66685475D01*
X135162035Y-66670072D01*
X137200000Y-66670072D01*
X137324482Y-66657812D01*
X137444180Y-66621502D01*
X137554494Y-66562537D01*
X137651185Y-66483185D01*
X137730537Y-66386494D01*
X137789502Y-66276180D01*
X137825812Y-66156482D01*
X137838072Y-66032000D01*
X137838072Y-65032000D01*
X137825812Y-64907518D01*
X137789502Y-64787820D01*
X137730537Y-64677506D01*
X137651185Y-64580815D01*
X137554494Y-64501463D01*
X137444180Y-64442498D01*
X137324482Y-64406188D01*
X137200000Y-64393928D01*
X135162035Y-64393928D01*
X135146632Y-64378525D01*
X134972240Y-64262000D01*
X135146632Y-64145475D01*
X135353475Y-63938632D01*
X135515990Y-63695411D01*
X135627932Y-63425158D01*
X135685000Y-63138260D01*
X135685000Y-62845740D01*
X135627932Y-62558842D01*
X135515990Y-62288589D01*
X135353475Y-62045368D01*
X135146632Y-61838525D01*
X134972240Y-61722000D01*
X135146632Y-61605475D01*
X135162035Y-61590072D01*
X137200000Y-61590072D01*
X137324482Y-61577812D01*
X137444180Y-61541502D01*
X137554494Y-61482537D01*
X137651185Y-61403185D01*
X137730537Y-61306494D01*
X137789502Y-61196180D01*
X137825812Y-61076482D01*
X137838072Y-60952000D01*
X137838072Y-59952000D01*
X137825812Y-59827518D01*
X137789502Y-59707820D01*
X137730537Y-59597506D01*
X137651185Y-59500815D01*
X137554494Y-59421463D01*
X137444180Y-59362498D01*
X137324482Y-59326188D01*
X137200000Y-59313928D01*
X135162035Y-59313928D01*
X135146632Y-59298525D01*
X134972240Y-59182000D01*
X135146632Y-59065475D01*
X135353475Y-58858632D01*
X135515990Y-58615411D01*
X135627932Y-58345158D01*
X135685000Y-58058260D01*
X135685000Y-57765740D01*
X135627932Y-57478842D01*
X135515990Y-57208589D01*
X135353475Y-56965368D01*
X135221620Y-56833513D01*
X135294180Y-56811502D01*
X135404494Y-56752537D01*
X135501185Y-56673185D01*
X135580537Y-56576494D01*
X135616041Y-56510072D01*
X137200000Y-56510072D01*
X137324482Y-56497812D01*
X137444180Y-56461502D01*
X137554494Y-56402537D01*
X137651185Y-56323185D01*
X137730537Y-56226494D01*
X137789502Y-56116180D01*
X137825812Y-55996482D01*
X137838072Y-55872000D01*
X137838072Y-55432800D01*
X137899411Y-55358059D01*
X137981589Y-55204313D01*
X138032195Y-55037490D01*
X138045000Y-54907477D01*
X138045000Y-54907467D01*
X138049281Y-54864001D01*
X138045000Y-54820535D01*
X138045000Y-52648454D01*
X138077205Y-52600256D01*
X138155226Y-52411898D01*
X138195000Y-52211939D01*
X138195000Y-52008061D01*
X138155226Y-51808102D01*
X138077205Y-51619744D01*
X137963937Y-51450226D01*
X137819774Y-51306063D01*
X137650256Y-51192795D01*
X137461898Y-51114774D01*
X137405044Y-51103465D01*
X134251650Y-47950072D01*
X134966000Y-47950072D01*
X135090482Y-47937812D01*
X135210180Y-47901502D01*
X135320494Y-47842537D01*
X135417185Y-47763185D01*
X135496537Y-47666494D01*
X135555502Y-47556180D01*
X135591812Y-47436482D01*
X135604072Y-47312000D01*
X135604072Y-46412000D01*
X135591812Y-46287518D01*
X135555502Y-46167820D01*
X135496537Y-46057506D01*
X135417185Y-45960815D01*
X135320494Y-45881463D01*
X135210180Y-45822498D01*
X135090482Y-45786188D01*
X134966000Y-45773928D01*
X133766000Y-45773928D01*
X133641518Y-45786188D01*
X133521820Y-45822498D01*
X133411506Y-45881463D01*
X133314815Y-45960815D01*
X133235463Y-46057506D01*
X133176498Y-46167820D01*
X133140188Y-46287518D01*
X133127928Y-46412000D01*
X133127928Y-46826350D01*
X131934534Y-45632956D01*
X131906817Y-45599183D01*
X131772059Y-45488589D01*
X131618313Y-45406411D01*
X131451490Y-45355805D01*
X131321477Y-45343000D01*
X131321469Y-45343000D01*
X131278000Y-45338719D01*
X131234531Y-45343000D01*
X130786471Y-45343000D01*
X130784000Y-44989750D01*
X130625250Y-44831000D01*
X129688500Y-44831000D01*
X129688500Y-44851000D01*
X129434500Y-44851000D01*
X129434500Y-44831000D01*
X129414500Y-44831000D01*
X129414500Y-44577000D01*
X129434500Y-44577000D01*
X129434500Y-43502750D01*
X129275750Y-43344000D01*
X128974000Y-43340928D01*
X128849518Y-43353188D01*
X128729820Y-43389498D01*
X128619506Y-43448463D01*
X128522815Y-43527815D01*
X128457342Y-43607594D01*
X128451962Y-43601038D01*
X128317386Y-43490595D01*
X128279665Y-43470433D01*
X128281185Y-43469185D01*
X128360537Y-43372494D01*
X128419502Y-43262180D01*
X128445038Y-43178000D01*
X129733199Y-43178000D01*
X129775000Y-43219801D01*
X129775000Y-43281939D01*
X129797283Y-43393967D01*
X129688500Y-43502750D01*
X129688500Y-44577000D01*
X130625250Y-44577000D01*
X130784000Y-44418250D01*
X130785421Y-44215000D01*
X130911939Y-44215000D01*
X131111898Y-44175226D01*
X131300256Y-44097205D01*
X131469774Y-43983937D01*
X131613937Y-43839774D01*
X131727205Y-43670256D01*
X131805226Y-43481898D01*
X131845000Y-43281939D01*
X131845000Y-43078061D01*
X131805226Y-42878102D01*
X131727205Y-42689744D01*
X131613937Y-42520226D01*
X131469774Y-42376063D01*
X131300256Y-42262795D01*
X131276607Y-42252999D01*
X131982198Y-42252999D01*
X133127928Y-43398730D01*
X133127928Y-44012000D01*
X133140188Y-44136482D01*
X133176498Y-44256180D01*
X133235463Y-44366494D01*
X133314815Y-44463185D01*
X133411506Y-44542537D01*
X133521820Y-44601502D01*
X133641518Y-44637812D01*
X133766000Y-44650072D01*
X134966000Y-44650072D01*
X135090482Y-44637812D01*
X135210180Y-44601502D01*
X135320494Y-44542537D01*
X135417185Y-44463185D01*
X135496537Y-44366494D01*
X135555502Y-44256180D01*
X135591812Y-44136482D01*
X135604072Y-44012000D01*
X135604072Y-43112000D01*
X135591812Y-42987518D01*
X135555502Y-42867820D01*
X135496537Y-42757506D01*
X135417185Y-42660815D01*
X135320494Y-42581463D01*
X135210180Y-42522498D01*
X135090482Y-42486188D01*
X134966000Y-42473928D01*
X134352730Y-42473928D01*
X133660801Y-41782000D01*
X136479343Y-41782000D01*
X138466001Y-42973996D01*
G37*
%TD.AperFunction*%
D22*
X118706033Y-69472191D02*
X118450750Y-69473000D01*
X118292000Y-69631750D01*
X118292000Y-70481000D01*
X118312000Y-70481000D01*
X118312000Y-70735000D01*
X118292000Y-70735000D01*
X118292000Y-71584250D01*
X118450750Y-71743000D01*
X119420000Y-71746072D01*
X119544482Y-71733812D01*
X119664180Y-71697502D01*
X119774494Y-71638537D01*
X119871185Y-71559185D01*
X119950537Y-71462494D01*
X120009502Y-71352180D01*
X120045812Y-71232482D01*
X120058072Y-71108000D01*
X120055000Y-70893750D01*
X119896252Y-70735002D01*
X119968844Y-70735002D01*
X121324000Y-72090158D01*
X121323999Y-75895841D01*
X118922189Y-78297652D01*
X118892235Y-78322235D01*
X118794137Y-78441767D01*
X118721245Y-78578140D01*
X118676358Y-78726113D01*
X118664999Y-78841439D01*
X118664999Y-78841446D01*
X118661202Y-78879999D01*
X118664999Y-78918552D01*
X118665000Y-80418213D01*
X117539447Y-79292660D01*
X117653475Y-79178632D01*
X117815990Y-78935411D01*
X117927932Y-78665158D01*
X117985000Y-78378260D01*
X117985000Y-78085740D01*
X117927932Y-77798842D01*
X117815990Y-77528589D01*
X117653475Y-77285368D01*
X117446632Y-77078525D01*
X117272240Y-76962000D01*
X117446632Y-76845475D01*
X117466035Y-76826072D01*
X119420000Y-76826072D01*
X119544482Y-76813812D01*
X119664180Y-76777502D01*
X119774494Y-76718537D01*
X119871185Y-76639185D01*
X119950537Y-76542494D01*
X120009502Y-76432180D01*
X120045812Y-76312482D01*
X120058072Y-76188000D01*
X120058072Y-75188000D01*
X120045812Y-75063518D01*
X120009502Y-74943820D01*
X119950537Y-74833506D01*
X119871185Y-74736815D01*
X119774494Y-74657463D01*
X119664180Y-74598498D01*
X119544482Y-74562188D01*
X119420000Y-74549928D01*
X117458035Y-74549928D01*
X117446632Y-74538525D01*
X117272240Y-74422000D01*
X117446632Y-74305475D01*
X117653475Y-74098632D01*
X117764090Y-73933086D01*
X117842059Y-73891411D01*
X117976817Y-73780817D01*
X118087411Y-73646059D01*
X118169588Y-73492313D01*
X118220195Y-73325490D01*
X118237281Y-73152000D01*
X118220195Y-72978511D01*
X118169588Y-72811687D01*
X118087411Y-72657942D01*
X118004532Y-72556954D01*
X118000534Y-72552956D01*
X117972817Y-72519183D01*
X117838059Y-72408589D01*
X117762154Y-72368017D01*
X117653475Y-72205368D01*
X117446632Y-71998525D01*
X117264466Y-71876805D01*
X117381355Y-71807178D01*
X117451049Y-71744357D01*
X117879250Y-71743000D01*
X118038000Y-71584250D01*
X118038000Y-70735000D01*
X116433750Y-70735000D01*
X116409750Y-70759000D01*
X116373000Y-70759000D01*
X116373000Y-70739000D01*
X116353000Y-70739000D01*
X116353000Y-70485000D01*
X116373000Y-70485000D01*
X116373000Y-70465000D01*
X116417750Y-70465000D01*
X116433750Y-70481000D01*
X116627000Y-70481000D01*
X116627000Y-70485000D01*
X117820155Y-70485000D01*
X117822266Y-70481000D01*
X118038000Y-70481000D01*
X118038000Y-69631750D01*
X117879250Y-69473000D01*
X117442142Y-69471615D01*
X117381355Y-69416822D01*
X117264466Y-69347195D01*
X117446632Y-69225475D01*
X117653475Y-69018632D01*
X117815990Y-68775411D01*
X117872595Y-68638753D01*
X118706033Y-69472191D01*
%TA.AperFunction,Conductor*%
D23*
G36*
X118706033Y-69472191D02*
G01*
X118450750Y-69473000D01*
X118292000Y-69631750D01*
X118292000Y-70481000D01*
X118312000Y-70481000D01*
X118312000Y-70735000D01*
X118292000Y-70735000D01*
X118292000Y-71584250D01*
X118450750Y-71743000D01*
X119420000Y-71746072D01*
X119544482Y-71733812D01*
X119664180Y-71697502D01*
X119774494Y-71638537D01*
X119871185Y-71559185D01*
X119950537Y-71462494D01*
X120009502Y-71352180D01*
X120045812Y-71232482D01*
X120058072Y-71108000D01*
X120055000Y-70893750D01*
X119896252Y-70735002D01*
X119968844Y-70735002D01*
X121324000Y-72090158D01*
X121323999Y-75895841D01*
X118922189Y-78297652D01*
X118892235Y-78322235D01*
X118794137Y-78441767D01*
X118721245Y-78578140D01*
X118676358Y-78726113D01*
X118664999Y-78841439D01*
X118664999Y-78841446D01*
X118661202Y-78879999D01*
X118664999Y-78918552D01*
X118665000Y-80418213D01*
X117539447Y-79292660D01*
X117653475Y-79178632D01*
X117815990Y-78935411D01*
X117927932Y-78665158D01*
X117985000Y-78378260D01*
X117985000Y-78085740D01*
X117927932Y-77798842D01*
X117815990Y-77528589D01*
X117653475Y-77285368D01*
X117446632Y-77078525D01*
X117272240Y-76962000D01*
X117446632Y-76845475D01*
X117466035Y-76826072D01*
X119420000Y-76826072D01*
X119544482Y-76813812D01*
X119664180Y-76777502D01*
X119774494Y-76718537D01*
X119871185Y-76639185D01*
X119950537Y-76542494D01*
X120009502Y-76432180D01*
X120045812Y-76312482D01*
X120058072Y-76188000D01*
X120058072Y-75188000D01*
X120045812Y-75063518D01*
X120009502Y-74943820D01*
X119950537Y-74833506D01*
X119871185Y-74736815D01*
X119774494Y-74657463D01*
X119664180Y-74598498D01*
X119544482Y-74562188D01*
X119420000Y-74549928D01*
X117458035Y-74549928D01*
X117446632Y-74538525D01*
X117272240Y-74422000D01*
X117446632Y-74305475D01*
X117653475Y-74098632D01*
X117764090Y-73933086D01*
X117842059Y-73891411D01*
X117976817Y-73780817D01*
X118087411Y-73646059D01*
X118169588Y-73492313D01*
X118220195Y-73325490D01*
X118237281Y-73152000D01*
X118220195Y-72978511D01*
X118169588Y-72811687D01*
X118087411Y-72657942D01*
X118004532Y-72556954D01*
X118000534Y-72552956D01*
X117972817Y-72519183D01*
X117838059Y-72408589D01*
X117762154Y-72368017D01*
X117653475Y-72205368D01*
X117446632Y-71998525D01*
X117264466Y-71876805D01*
X117381355Y-71807178D01*
X117451049Y-71744357D01*
X117879250Y-71743000D01*
X118038000Y-71584250D01*
X118038000Y-70735000D01*
X116433750Y-70735000D01*
X116409750Y-70759000D01*
X116373000Y-70759000D01*
X116373000Y-70739000D01*
X116353000Y-70739000D01*
X116353000Y-70485000D01*
X116373000Y-70485000D01*
X116373000Y-70465000D01*
X116417750Y-70465000D01*
X116433750Y-70481000D01*
X116627000Y-70481000D01*
X116627000Y-70485000D01*
X117820155Y-70485000D01*
X117822266Y-70481000D01*
X118038000Y-70481000D01*
X118038000Y-69631750D01*
X117879250Y-69473000D01*
X117442142Y-69471615D01*
X117381355Y-69416822D01*
X117264466Y-69347195D01*
X117446632Y-69225475D01*
X117653475Y-69018632D01*
X117815990Y-68775411D01*
X117872595Y-68638753D01*
X118706033Y-69472191D01*
G37*
%TD.AperFunction*%
D22*
X136153465Y-52355044D02*
X136164774Y-52411898D01*
X136242795Y-52600256D01*
X136275001Y-52648456D01*
X136275000Y-54233928D01*
X135616041Y-54233928D01*
X135580537Y-54167506D01*
X135501185Y-54070815D01*
X135404494Y-53991463D01*
X135294180Y-53932498D01*
X135174482Y-53896188D01*
X135050000Y-53883928D01*
X133350000Y-53883928D01*
X133225518Y-53896188D01*
X133105820Y-53932498D01*
X132995506Y-53991463D01*
X132898815Y-54070815D01*
X132819463Y-54167506D01*
X132760498Y-54277820D01*
X132724188Y-54397518D01*
X132711928Y-54522000D01*
X132711928Y-56222000D01*
X132724188Y-56346482D01*
X132760498Y-56466180D01*
X132819463Y-56576494D01*
X132898815Y-56673185D01*
X132995506Y-56752537D01*
X133035525Y-56773928D01*
X131380000Y-56773928D01*
X131255518Y-56786188D01*
X131135820Y-56822498D01*
X131025506Y-56881463D01*
X130928815Y-56960815D01*
X130849463Y-57057506D01*
X130790498Y-57167820D01*
X130754188Y-57287518D01*
X130741928Y-57412000D01*
X130741928Y-58412000D01*
X130754188Y-58536482D01*
X130790498Y-58656180D01*
X130849463Y-58766494D01*
X130928815Y-58863185D01*
X131025506Y-58942537D01*
X131135820Y-59001502D01*
X131255518Y-59037812D01*
X131380000Y-59050072D01*
X133237965Y-59050072D01*
X133253368Y-59065475D01*
X133427760Y-59182000D01*
X133253368Y-59298525D01*
X133046525Y-59505368D01*
X132884010Y-59748589D01*
X132772068Y-60018842D01*
X132715000Y-60305740D01*
X132715000Y-60598260D01*
X132772068Y-60885158D01*
X132884010Y-61155411D01*
X133046525Y-61398632D01*
X133253368Y-61605475D01*
X133427760Y-61722000D01*
X133253368Y-61838525D01*
X133237965Y-61853928D01*
X131380000Y-61853928D01*
X131255518Y-61866188D01*
X131135820Y-61902498D01*
X131025506Y-61961463D01*
X130928815Y-62040815D01*
X130849463Y-62137506D01*
X130790498Y-62247820D01*
X130754188Y-62367518D01*
X130743803Y-62472964D01*
X130729502Y-62425820D01*
X130670537Y-62315506D01*
X130591185Y-62218815D01*
X130494494Y-62139463D01*
X130384180Y-62080498D01*
X130264482Y-62044188D01*
X130250665Y-62042827D01*
X130378000Y-62044072D01*
X130502482Y-62031812D01*
X130622180Y-61995502D01*
X130732494Y-61936537D01*
X130829185Y-61857185D01*
X130908537Y-61760494D01*
X130967502Y-61650180D01*
X131003812Y-61530482D01*
X131016072Y-61406000D01*
X131013000Y-60991750D01*
X130854250Y-60833000D01*
X129905000Y-60833000D01*
X129905000Y-60853000D01*
X129651000Y-60853000D01*
X129651000Y-60833000D01*
X129631000Y-60833000D01*
X129631000Y-60579000D01*
X129651000Y-60579000D01*
X129651000Y-59529750D01*
X129905000Y-59529750D01*
X129905000Y-60579000D01*
X130854250Y-60579000D01*
X131013000Y-60420250D01*
X131016072Y-60006000D01*
X131003812Y-59881518D01*
X130967502Y-59761820D01*
X130908537Y-59651506D01*
X130829185Y-59554815D01*
X130732494Y-59475463D01*
X130622180Y-59416498D01*
X130502482Y-59380188D01*
X130378000Y-59367928D01*
X130063750Y-59371000D01*
X129905000Y-59529750D01*
X129651000Y-59529750D01*
X129492250Y-59371000D01*
X129178000Y-59367928D01*
X129053518Y-59380188D01*
X128933820Y-59416498D01*
X128823506Y-59475463D01*
X128726815Y-59554815D01*
X128702637Y-59584276D01*
X128621387Y-59517595D01*
X128467851Y-59435528D01*
X128433647Y-59425152D01*
X131067004Y-56791796D01*
X131096001Y-56767999D01*
X131190974Y-56652274D01*
X131261546Y-56520245D01*
X131305003Y-56376984D01*
X131316000Y-56265331D01*
X131316000Y-56265323D01*
X131319676Y-56227998D01*
X131316000Y-56190673D01*
X131316000Y-55059711D01*
X131359937Y-55015774D01*
X131473205Y-54846256D01*
X131551226Y-54657898D01*
X131591000Y-54457939D01*
X131591000Y-54254061D01*
X131551226Y-54054102D01*
X131473205Y-53865744D01*
X131359937Y-53696226D01*
X131215774Y-53552063D01*
X131046256Y-53438795D01*
X130857898Y-53360774D01*
X130657939Y-53321000D01*
X130454061Y-53321000D01*
X130254102Y-53360774D01*
X130065744Y-53438795D01*
X129896226Y-53552063D01*
X129752063Y-53696226D01*
X129638795Y-53865744D01*
X129560774Y-54054102D01*
X129521000Y-54254061D01*
X129521000Y-54457939D01*
X129560774Y-54657898D01*
X129638795Y-54846256D01*
X129752063Y-55015774D01*
X129796001Y-55059712D01*
X129796001Y-55273205D01*
X129796000Y-55913196D01*
X128751999Y-56957197D01*
X128751999Y-47234357D01*
X128756280Y-47190890D01*
X128751999Y-47147424D01*
X128751999Y-47147414D01*
X128748610Y-47113000D01*
X130911422Y-47113000D01*
X136153465Y-52355044D01*
%TA.AperFunction,Conductor*%
D23*
G36*
X136153465Y-52355044D02*
G01*
X136164774Y-52411898D01*
X136242795Y-52600256D01*
X136275001Y-52648456D01*
X136275000Y-54233928D01*
X135616041Y-54233928D01*
X135580537Y-54167506D01*
X135501185Y-54070815D01*
X135404494Y-53991463D01*
X135294180Y-53932498D01*
X135174482Y-53896188D01*
X135050000Y-53883928D01*
X133350000Y-53883928D01*
X133225518Y-53896188D01*
X133105820Y-53932498D01*
X132995506Y-53991463D01*
X132898815Y-54070815D01*
X132819463Y-54167506D01*
X132760498Y-54277820D01*
X132724188Y-54397518D01*
X132711928Y-54522000D01*
X132711928Y-56222000D01*
X132724188Y-56346482D01*
X132760498Y-56466180D01*
X132819463Y-56576494D01*
X132898815Y-56673185D01*
X132995506Y-56752537D01*
X133035525Y-56773928D01*
X131380000Y-56773928D01*
X131255518Y-56786188D01*
X131135820Y-56822498D01*
X131025506Y-56881463D01*
X130928815Y-56960815D01*
X130849463Y-57057506D01*
X130790498Y-57167820D01*
X130754188Y-57287518D01*
X130741928Y-57412000D01*
X130741928Y-58412000D01*
X130754188Y-58536482D01*
X130790498Y-58656180D01*
X130849463Y-58766494D01*
X130928815Y-58863185D01*
X131025506Y-58942537D01*
X131135820Y-59001502D01*
X131255518Y-59037812D01*
X131380000Y-59050072D01*
X133237965Y-59050072D01*
X133253368Y-59065475D01*
X133427760Y-59182000D01*
X133253368Y-59298525D01*
X133046525Y-59505368D01*
X132884010Y-59748589D01*
X132772068Y-60018842D01*
X132715000Y-60305740D01*
X132715000Y-60598260D01*
X132772068Y-60885158D01*
X132884010Y-61155411D01*
X133046525Y-61398632D01*
X133253368Y-61605475D01*
X133427760Y-61722000D01*
X133253368Y-61838525D01*
X133237965Y-61853928D01*
X131380000Y-61853928D01*
X131255518Y-61866188D01*
X131135820Y-61902498D01*
X131025506Y-61961463D01*
X130928815Y-62040815D01*
X130849463Y-62137506D01*
X130790498Y-62247820D01*
X130754188Y-62367518D01*
X130743803Y-62472964D01*
X130729502Y-62425820D01*
X130670537Y-62315506D01*
X130591185Y-62218815D01*
X130494494Y-62139463D01*
X130384180Y-62080498D01*
X130264482Y-62044188D01*
X130250665Y-62042827D01*
X130378000Y-62044072D01*
X130502482Y-62031812D01*
X130622180Y-61995502D01*
X130732494Y-61936537D01*
X130829185Y-61857185D01*
X130908537Y-61760494D01*
X130967502Y-61650180D01*
X131003812Y-61530482D01*
X131016072Y-61406000D01*
X131013000Y-60991750D01*
X130854250Y-60833000D01*
X129905000Y-60833000D01*
X129905000Y-60853000D01*
X129651000Y-60853000D01*
X129651000Y-60833000D01*
X129631000Y-60833000D01*
X129631000Y-60579000D01*
X129651000Y-60579000D01*
X129651000Y-59529750D01*
X129905000Y-59529750D01*
X129905000Y-60579000D01*
X130854250Y-60579000D01*
X131013000Y-60420250D01*
X131016072Y-60006000D01*
X131003812Y-59881518D01*
X130967502Y-59761820D01*
X130908537Y-59651506D01*
X130829185Y-59554815D01*
X130732494Y-59475463D01*
X130622180Y-59416498D01*
X130502482Y-59380188D01*
X130378000Y-59367928D01*
X130063750Y-59371000D01*
X129905000Y-59529750D01*
X129651000Y-59529750D01*
X129492250Y-59371000D01*
X129178000Y-59367928D01*
X129053518Y-59380188D01*
X128933820Y-59416498D01*
X128823506Y-59475463D01*
X128726815Y-59554815D01*
X128702637Y-59584276D01*
X128621387Y-59517595D01*
X128467851Y-59435528D01*
X128433647Y-59425152D01*
X131067004Y-56791796D01*
X131096001Y-56767999D01*
X131190974Y-56652274D01*
X131261546Y-56520245D01*
X131305003Y-56376984D01*
X131316000Y-56265331D01*
X131316000Y-56265323D01*
X131319676Y-56227998D01*
X131316000Y-56190673D01*
X131316000Y-55059711D01*
X131359937Y-55015774D01*
X131473205Y-54846256D01*
X131551226Y-54657898D01*
X131591000Y-54457939D01*
X131591000Y-54254061D01*
X131551226Y-54054102D01*
X131473205Y-53865744D01*
X131359937Y-53696226D01*
X131215774Y-53552063D01*
X131046256Y-53438795D01*
X130857898Y-53360774D01*
X130657939Y-53321000D01*
X130454061Y-53321000D01*
X130254102Y-53360774D01*
X130065744Y-53438795D01*
X129896226Y-53552063D01*
X129752063Y-53696226D01*
X129638795Y-53865744D01*
X129560774Y-54054102D01*
X129521000Y-54254061D01*
X129521000Y-54457939D01*
X129560774Y-54657898D01*
X129638795Y-54846256D01*
X129752063Y-55015774D01*
X129796001Y-55059712D01*
X129796001Y-55273205D01*
X129796000Y-55913196D01*
X128751999Y-56957197D01*
X128751999Y-47234357D01*
X128756280Y-47190890D01*
X128751999Y-47147424D01*
X128751999Y-47147414D01*
X128748610Y-47113000D01*
X130911422Y-47113000D01*
X136153465Y-52355044D01*
G37*
%TD.AperFunction*%
D22*
X121305992Y-46968254D02*
X121356528Y-47134850D01*
X121438595Y-47288386D01*
X121549038Y-47422962D01*
X121683614Y-47533405D01*
X121757655Y-47572981D01*
X121686774Y-47744102D01*
X121675955Y-47798494D01*
X121653184Y-47817182D01*
X121542590Y-47951941D01*
X121460412Y-48105687D01*
X121428140Y-48212072D01*
X121413076Y-48261732D01*
X121409806Y-48272510D01*
X121400617Y-48365806D01*
X120050931Y-49715493D01*
X120045812Y-49663518D01*
X120009502Y-49543820D01*
X119950537Y-49433506D01*
X119871185Y-49336815D01*
X119774494Y-49257463D01*
X119664180Y-49198498D01*
X119544482Y-49162188D01*
X119420000Y-49149928D01*
X118450750Y-49153000D01*
X118292000Y-49311750D01*
X118292000Y-50161000D01*
X118312000Y-50161000D01*
X118312000Y-50415000D01*
X118292000Y-50415000D01*
X118292000Y-51264250D01*
X118397087Y-51369337D01*
X117823424Y-51943000D01*
X117691983Y-51943000D01*
X117653475Y-51885368D01*
X117521620Y-51753513D01*
X117594180Y-51731502D01*
X117704494Y-51672537D01*
X117801185Y-51593185D01*
X117880537Y-51496494D01*
X117939502Y-51386180D01*
X117949705Y-51352545D01*
X118038000Y-51264250D01*
X118038000Y-50415000D01*
X116433750Y-50415000D01*
X116409750Y-50439000D01*
X116373000Y-50439000D01*
X116373000Y-50419000D01*
X115173750Y-50419000D01*
X115015000Y-50577750D01*
X115011928Y-51142000D01*
X115024188Y-51266482D01*
X115060498Y-51386180D01*
X115119463Y-51496494D01*
X115198815Y-51593185D01*
X115295506Y-51672537D01*
X115328042Y-51689928D01*
X113964000Y-51689928D01*
X113964000Y-49295000D01*
X114147939Y-49295000D01*
X114347898Y-49255226D01*
X114536256Y-49177205D01*
X114584454Y-49145000D01*
X115088731Y-49145000D01*
X115060498Y-49197820D01*
X115024188Y-49317518D01*
X115011928Y-49442000D01*
X115015000Y-50006250D01*
X115173750Y-50165000D01*
X116373000Y-50165000D01*
X116373000Y-50145000D01*
X116417750Y-50145000D01*
X116433750Y-50161000D01*
X116627000Y-50161000D01*
X116627000Y-50165000D01*
X117826250Y-50165000D01*
X117830250Y-50161000D01*
X118038000Y-50161000D01*
X118038000Y-49311750D01*
X117946222Y-49219972D01*
X117939502Y-49197820D01*
X117880537Y-49087506D01*
X117801185Y-48990815D01*
X117704494Y-48911463D01*
X117594180Y-48852498D01*
X117474482Y-48816188D01*
X117350000Y-48803928D01*
X117021864Y-48805715D01*
X117615507Y-48212072D01*
X118052001Y-48212072D01*
X118225255Y-48195008D01*
X118391851Y-48144472D01*
X118545387Y-48062405D01*
X118679962Y-47951962D01*
X118790405Y-47817387D01*
X118872472Y-47663851D01*
X118923008Y-47497255D01*
X118940072Y-47324001D01*
X118940072Y-46808990D01*
X121290306Y-46808990D01*
X121305992Y-46968254D01*
%TA.AperFunction,Conductor*%
D23*
G36*
X121305992Y-46968254D02*
G01*
X121356528Y-47134850D01*
X121438595Y-47288386D01*
X121549038Y-47422962D01*
X121683614Y-47533405D01*
X121757655Y-47572981D01*
X121686774Y-47744102D01*
X121675955Y-47798494D01*
X121653184Y-47817182D01*
X121542590Y-47951941D01*
X121460412Y-48105687D01*
X121428140Y-48212072D01*
X121413076Y-48261732D01*
X121409806Y-48272510D01*
X121400617Y-48365806D01*
X120050931Y-49715493D01*
X120045812Y-49663518D01*
X120009502Y-49543820D01*
X119950537Y-49433506D01*
X119871185Y-49336815D01*
X119774494Y-49257463D01*
X119664180Y-49198498D01*
X119544482Y-49162188D01*
X119420000Y-49149928D01*
X118450750Y-49153000D01*
X118292000Y-49311750D01*
X118292000Y-50161000D01*
X118312000Y-50161000D01*
X118312000Y-50415000D01*
X118292000Y-50415000D01*
X118292000Y-51264250D01*
X118397087Y-51369337D01*
X117823424Y-51943000D01*
X117691983Y-51943000D01*
X117653475Y-51885368D01*
X117521620Y-51753513D01*
X117594180Y-51731502D01*
X117704494Y-51672537D01*
X117801185Y-51593185D01*
X117880537Y-51496494D01*
X117939502Y-51386180D01*
X117949705Y-51352545D01*
X118038000Y-51264250D01*
X118038000Y-50415000D01*
X116433750Y-50415000D01*
X116409750Y-50439000D01*
X116373000Y-50439000D01*
X116373000Y-50419000D01*
X115173750Y-50419000D01*
X115015000Y-50577750D01*
X115011928Y-51142000D01*
X115024188Y-51266482D01*
X115060498Y-51386180D01*
X115119463Y-51496494D01*
X115198815Y-51593185D01*
X115295506Y-51672537D01*
X115328042Y-51689928D01*
X113964000Y-51689928D01*
X113964000Y-49295000D01*
X114147939Y-49295000D01*
X114347898Y-49255226D01*
X114536256Y-49177205D01*
X114584454Y-49145000D01*
X115088731Y-49145000D01*
X115060498Y-49197820D01*
X115024188Y-49317518D01*
X115011928Y-49442000D01*
X115015000Y-50006250D01*
X115173750Y-50165000D01*
X116373000Y-50165000D01*
X116373000Y-50145000D01*
X116417750Y-50145000D01*
X116433750Y-50161000D01*
X116627000Y-50161000D01*
X116627000Y-50165000D01*
X117826250Y-50165000D01*
X117830250Y-50161000D01*
X118038000Y-50161000D01*
X118038000Y-49311750D01*
X117946222Y-49219972D01*
X117939502Y-49197820D01*
X117880537Y-49087506D01*
X117801185Y-48990815D01*
X117704494Y-48911463D01*
X117594180Y-48852498D01*
X117474482Y-48816188D01*
X117350000Y-48803928D01*
X117021864Y-48805715D01*
X117615507Y-48212072D01*
X118052001Y-48212072D01*
X118225255Y-48195008D01*
X118391851Y-48144472D01*
X118545387Y-48062405D01*
X118679962Y-47951962D01*
X118790405Y-47817387D01*
X118872472Y-47663851D01*
X118923008Y-47497255D01*
X118940072Y-47324001D01*
X118940072Y-46808990D01*
X121290306Y-46808990D01*
X121305992Y-46968254D01*
G37*
%TD.AperFunction*%
D22*
X121373750Y-42291000D02*
X122173000Y-42291000D01*
X122173000Y-42271000D01*
X122427000Y-42271000D01*
X122427000Y-42291000D01*
X122447000Y-42291000D01*
X122447000Y-42545000D01*
X122427000Y-42545000D01*
X122427000Y-43494250D01*
X122585750Y-43653000D01*
X122750000Y-43656072D01*
X122874482Y-43643812D01*
X122994180Y-43607502D01*
X123104494Y-43548537D01*
X123190000Y-43478364D01*
X123195001Y-43482468D01*
X123195001Y-43802733D01*
X123100254Y-43773992D01*
X122927000Y-43756928D01*
X122177000Y-43756928D01*
X122003746Y-43773992D01*
X121837150Y-43824528D01*
X121683614Y-43906595D01*
X121549038Y-44017038D01*
X121438595Y-44151614D01*
X121356528Y-44305150D01*
X121305992Y-44471746D01*
X121288928Y-44645000D01*
X121288928Y-45288990D01*
X118937286Y-45288990D01*
X118937000Y-45259750D01*
X118778250Y-45101000D01*
X117729000Y-45101000D01*
X117729000Y-45121000D01*
X117475000Y-45121000D01*
X117475000Y-45101000D01*
X117455000Y-45101000D01*
X117455000Y-44847000D01*
X117475000Y-44847000D01*
X117475000Y-44827000D01*
X117729000Y-44827000D01*
X117729000Y-44847000D01*
X118778250Y-44847000D01*
X118937000Y-44688250D01*
X118940072Y-44374000D01*
X118927812Y-44249518D01*
X118891502Y-44129820D01*
X118832537Y-44019506D01*
X118753185Y-43922815D01*
X118656494Y-43843463D01*
X118546180Y-43784498D01*
X118426482Y-43748188D01*
X118302000Y-43735928D01*
X117887750Y-43739000D01*
X117729002Y-43897748D01*
X117729002Y-43775077D01*
X118070002Y-43434077D01*
X118098815Y-43469185D01*
X118195506Y-43548537D01*
X118305820Y-43607502D01*
X118425518Y-43643812D01*
X118550000Y-43656072D01*
X119450000Y-43656072D01*
X119574482Y-43643812D01*
X119694180Y-43607502D01*
X119804494Y-43548537D01*
X119901185Y-43469185D01*
X119980537Y-43372494D01*
X120039502Y-43262180D01*
X120075812Y-43142482D01*
X120088072Y-43018000D01*
X121211928Y-43018000D01*
X121224188Y-43142482D01*
X121260498Y-43262180D01*
X121319463Y-43372494D01*
X121398815Y-43469185D01*
X121495506Y-43548537D01*
X121605820Y-43607502D01*
X121725518Y-43643812D01*
X121850000Y-43656072D01*
X122014250Y-43653000D01*
X122173000Y-43494250D01*
X122173000Y-42545000D01*
X121373750Y-42545000D01*
X121215000Y-42703750D01*
X121211928Y-43018000D01*
X120088072Y-43018000D01*
X120088072Y-42404730D01*
X120239803Y-42252999D01*
X121335749Y-42252999D01*
X121373750Y-42291000D01*
%TA.AperFunction,Conductor*%
D23*
G36*
X121373750Y-42291000D02*
G01*
X122173000Y-42291000D01*
X122173000Y-42271000D01*
X122427000Y-42271000D01*
X122427000Y-42291000D01*
X122447000Y-42291000D01*
X122447000Y-42545000D01*
X122427000Y-42545000D01*
X122427000Y-43494250D01*
X122585750Y-43653000D01*
X122750000Y-43656072D01*
X122874482Y-43643812D01*
X122994180Y-43607502D01*
X123104494Y-43548537D01*
X123190000Y-43478364D01*
X123195001Y-43482468D01*
X123195001Y-43802733D01*
X123100254Y-43773992D01*
X122927000Y-43756928D01*
X122177000Y-43756928D01*
X122003746Y-43773992D01*
X121837150Y-43824528D01*
X121683614Y-43906595D01*
X121549038Y-44017038D01*
X121438595Y-44151614D01*
X121356528Y-44305150D01*
X121305992Y-44471746D01*
X121288928Y-44645000D01*
X121288928Y-45288990D01*
X118937286Y-45288990D01*
X118937000Y-45259750D01*
X118778250Y-45101000D01*
X117729000Y-45101000D01*
X117729000Y-45121000D01*
X117475000Y-45121000D01*
X117475000Y-45101000D01*
X117455000Y-45101000D01*
X117455000Y-44847000D01*
X117475000Y-44847000D01*
X117475000Y-44827000D01*
X117729000Y-44827000D01*
X117729000Y-44847000D01*
X118778250Y-44847000D01*
X118937000Y-44688250D01*
X118940072Y-44374000D01*
X118927812Y-44249518D01*
X118891502Y-44129820D01*
X118832537Y-44019506D01*
X118753185Y-43922815D01*
X118656494Y-43843463D01*
X118546180Y-43784498D01*
X118426482Y-43748188D01*
X118302000Y-43735928D01*
X117887750Y-43739000D01*
X117729002Y-43897748D01*
X117729002Y-43775077D01*
X118070002Y-43434077D01*
X118098815Y-43469185D01*
X118195506Y-43548537D01*
X118305820Y-43607502D01*
X118425518Y-43643812D01*
X118550000Y-43656072D01*
X119450000Y-43656072D01*
X119574482Y-43643812D01*
X119694180Y-43607502D01*
X119804494Y-43548537D01*
X119901185Y-43469185D01*
X119980537Y-43372494D01*
X120039502Y-43262180D01*
X120075812Y-43142482D01*
X120088072Y-43018000D01*
X121211928Y-43018000D01*
X121224188Y-43142482D01*
X121260498Y-43262180D01*
X121319463Y-43372494D01*
X121398815Y-43469185D01*
X121495506Y-43548537D01*
X121605820Y-43607502D01*
X121725518Y-43643812D01*
X121850000Y-43656072D01*
X122014250Y-43653000D01*
X122173000Y-43494250D01*
X122173000Y-42545000D01*
X121373750Y-42545000D01*
X121215000Y-42703750D01*
X121211928Y-43018000D01*
X120088072Y-43018000D01*
X120088072Y-42404730D01*
X120239803Y-42252999D01*
X121335749Y-42252999D01*
X121373750Y-42291000D01*
G37*
%TD.AperFunction*%
%TD*%
M02*
