%TF.GenerationSoftware,KiCad,Pcbnew,(5.1.10)-1*%
%TF.CreationDate,2021-11-28T18:03:10+01:00*%
%TF.ProjectId,M5StampC3,4d355374-616d-4704-9333-2e6b69636164,rev?*%
%TF.SameCoordinates,Original*%
%TF.FileFunction,Legend,Top*%
%TF.FilePolarity,Positive*%
%FSLAX46Y46*%
G04 Gerber Fmt 4.6, Leading zero omitted, Abs format (unit mm)*
G04 Created by KiCad (PCBNEW (5.1.10)-1) date 2021-11-28 18:03:10*
%MOMM*%
%LPD*%
G01*
G04 APERTURE LIST*
%ADD10C,0.150000*%
%ADD11C,0.010000*%
%ADD12C,0.120000*%
G04 APERTURE END LIST*
D10*
X131841904Y-80018000D02*
X131746666Y-79970380D01*
X131603809Y-79970380D01*
X131460952Y-80018000D01*
X131365714Y-80113238D01*
X131318095Y-80208476D01*
X131270476Y-80398952D01*
X131270476Y-80541809D01*
X131318095Y-80732285D01*
X131365714Y-80827523D01*
X131460952Y-80922761D01*
X131603809Y-80970380D01*
X131699047Y-80970380D01*
X131841904Y-80922761D01*
X131889523Y-80875142D01*
X131889523Y-80541809D01*
X131699047Y-80541809D01*
X132318095Y-80970380D02*
X132318095Y-79970380D01*
X132556190Y-79970380D01*
X132699047Y-80018000D01*
X132794285Y-80113238D01*
X132841904Y-80208476D01*
X132889523Y-80398952D01*
X132889523Y-80541809D01*
X132841904Y-80732285D01*
X132794285Y-80827523D01*
X132699047Y-80922761D01*
X132556190Y-80970380D01*
X132318095Y-80970380D01*
X128968571Y-80970380D02*
X128968571Y-79970380D01*
X129301904Y-80684666D01*
X129635238Y-79970380D01*
X129635238Y-80970380D01*
X130111428Y-80970380D02*
X130111428Y-79970380D01*
X126809523Y-80875142D02*
X126761904Y-80922761D01*
X126619047Y-80970380D01*
X126523809Y-80970380D01*
X126380952Y-80922761D01*
X126285714Y-80827523D01*
X126238095Y-80732285D01*
X126190476Y-80541809D01*
X126190476Y-80398952D01*
X126238095Y-80208476D01*
X126285714Y-80113238D01*
X126380952Y-80018000D01*
X126523809Y-79970380D01*
X126619047Y-79970380D01*
X126761904Y-80018000D01*
X126809523Y-80065619D01*
X127238095Y-80970380D02*
X127238095Y-79970380D01*
X127809523Y-80970380D02*
X127380952Y-80398952D01*
X127809523Y-79970380D02*
X127238095Y-80541809D01*
X123650476Y-80970380D02*
X123650476Y-79970380D01*
X123983809Y-80684666D01*
X124317142Y-79970380D01*
X124317142Y-80970380D01*
X124745714Y-80922761D02*
X124888571Y-80970380D01*
X125126666Y-80970380D01*
X125221904Y-80922761D01*
X125269523Y-80875142D01*
X125317142Y-80779904D01*
X125317142Y-80684666D01*
X125269523Y-80589428D01*
X125221904Y-80541809D01*
X125126666Y-80494190D01*
X124936190Y-80446571D01*
X124840952Y-80398952D01*
X124793333Y-80351333D01*
X124745714Y-80256095D01*
X124745714Y-80160857D01*
X124793333Y-80065619D01*
X124840952Y-80018000D01*
X124936190Y-79970380D01*
X125174285Y-79970380D01*
X125317142Y-80018000D01*
X121753333Y-80875142D02*
X121705714Y-80922761D01*
X121562857Y-80970380D01*
X121467619Y-80970380D01*
X121324761Y-80922761D01*
X121229523Y-80827523D01*
X121181904Y-80732285D01*
X121134285Y-80541809D01*
X121134285Y-80398952D01*
X121181904Y-80208476D01*
X121229523Y-80113238D01*
X121324761Y-80018000D01*
X121467619Y-79970380D01*
X121562857Y-79970380D01*
X121705714Y-80018000D01*
X121753333Y-80065619D01*
X122134285Y-80922761D02*
X122277142Y-80970380D01*
X122515238Y-80970380D01*
X122610476Y-80922761D01*
X122658095Y-80875142D01*
X122705714Y-80779904D01*
X122705714Y-80684666D01*
X122658095Y-80589428D01*
X122610476Y-80541809D01*
X122515238Y-80494190D01*
X122324761Y-80446571D01*
X122229523Y-80398952D01*
X122181904Y-80351333D01*
X122134285Y-80256095D01*
X122134285Y-80160857D01*
X122181904Y-80065619D01*
X122229523Y-80018000D01*
X122324761Y-79970380D01*
X122562857Y-79970380D01*
X122705714Y-80018000D01*
X118189523Y-79970380D02*
X118808571Y-79970380D01*
X118475238Y-80351333D01*
X118618095Y-80351333D01*
X118713333Y-80398952D01*
X118760952Y-80446571D01*
X118808571Y-80541809D01*
X118808571Y-80779904D01*
X118760952Y-80875142D01*
X118713333Y-80922761D01*
X118618095Y-80970380D01*
X118332380Y-80970380D01*
X118237142Y-80922761D01*
X118189523Y-80875142D01*
X119141904Y-80303714D02*
X119380000Y-80970380D01*
X119618095Y-80303714D01*
X119903809Y-79970380D02*
X120522857Y-79970380D01*
X120189523Y-80351333D01*
X120332380Y-80351333D01*
X120427619Y-80398952D01*
X120475238Y-80446571D01*
X120522857Y-80541809D01*
X120522857Y-80779904D01*
X120475238Y-80875142D01*
X120427619Y-80922761D01*
X120332380Y-80970380D01*
X120046666Y-80970380D01*
X119951428Y-80922761D01*
X119903809Y-80875142D01*
X130818000Y-79232095D02*
X130770380Y-79327333D01*
X130770380Y-79470190D01*
X130818000Y-79613047D01*
X130913238Y-79708285D01*
X131008476Y-79755904D01*
X131198952Y-79803523D01*
X131341809Y-79803523D01*
X131532285Y-79755904D01*
X131627523Y-79708285D01*
X131722761Y-79613047D01*
X131770380Y-79470190D01*
X131770380Y-79374952D01*
X131722761Y-79232095D01*
X131675142Y-79184476D01*
X131341809Y-79184476D01*
X131341809Y-79374952D01*
X131770380Y-78755904D02*
X130770380Y-78755904D01*
X130770380Y-78517809D01*
X130818000Y-78374952D01*
X130913238Y-78279714D01*
X131008476Y-78232095D01*
X131198952Y-78184476D01*
X131341809Y-78184476D01*
X131532285Y-78232095D01*
X131627523Y-78279714D01*
X131722761Y-78374952D01*
X131770380Y-78517809D01*
X131770380Y-78755904D01*
X131770380Y-76826952D02*
X130770380Y-76826952D01*
X130770380Y-76588857D01*
X130818000Y-76446000D01*
X130913238Y-76350761D01*
X131008476Y-76303142D01*
X131198952Y-76255523D01*
X131341809Y-76255523D01*
X131532285Y-76303142D01*
X131627523Y-76350761D01*
X131722761Y-76446000D01*
X131770380Y-76588857D01*
X131770380Y-76826952D01*
X131389428Y-75826952D02*
X131389428Y-75065047D01*
X131770380Y-75446000D02*
X131008476Y-75446000D01*
X131770380Y-74286952D02*
X130770380Y-74286952D01*
X130770380Y-74048857D01*
X130818000Y-73906000D01*
X130913238Y-73810761D01*
X131008476Y-73763142D01*
X131198952Y-73715523D01*
X131341809Y-73715523D01*
X131532285Y-73763142D01*
X131627523Y-73810761D01*
X131722761Y-73906000D01*
X131770380Y-74048857D01*
X131770380Y-74286952D01*
X131389428Y-73286952D02*
X131389428Y-72525047D01*
X130770380Y-71310476D02*
X130770380Y-71786666D01*
X131246571Y-71834285D01*
X131198952Y-71786666D01*
X131151333Y-71691428D01*
X131151333Y-71453333D01*
X131198952Y-71358095D01*
X131246571Y-71310476D01*
X131341809Y-71262857D01*
X131579904Y-71262857D01*
X131675142Y-71310476D01*
X131722761Y-71358095D01*
X131770380Y-71453333D01*
X131770380Y-71691428D01*
X131722761Y-71786666D01*
X131675142Y-71834285D01*
X130770380Y-70977142D02*
X131770380Y-70643809D01*
X130770380Y-70310476D01*
X131841904Y-83828000D02*
X131746666Y-83780380D01*
X131603809Y-83780380D01*
X131460952Y-83828000D01*
X131365714Y-83923238D01*
X131318095Y-84018476D01*
X131270476Y-84208952D01*
X131270476Y-84351809D01*
X131318095Y-84542285D01*
X131365714Y-84637523D01*
X131460952Y-84732761D01*
X131603809Y-84780380D01*
X131699047Y-84780380D01*
X131841904Y-84732761D01*
X131889523Y-84685142D01*
X131889523Y-84351809D01*
X131699047Y-84351809D01*
X132318095Y-84780380D02*
X132318095Y-83780380D01*
X132556190Y-83780380D01*
X132699047Y-83828000D01*
X132794285Y-83923238D01*
X132841904Y-84018476D01*
X132889523Y-84208952D01*
X132889523Y-84351809D01*
X132841904Y-84542285D01*
X132794285Y-84637523D01*
X132699047Y-84732761D01*
X132556190Y-84780380D01*
X132318095Y-84780380D01*
X128809809Y-84780380D02*
X128809809Y-83780380D01*
X129809809Y-84780380D02*
X129238380Y-84780380D01*
X129524095Y-84780380D02*
X129524095Y-83780380D01*
X129428857Y-83923238D01*
X129333619Y-84018476D01*
X129238380Y-84066095D01*
X126523809Y-84780380D02*
X126523809Y-83780380D01*
X127142857Y-84208952D02*
X127047619Y-84161333D01*
X127000000Y-84113714D01*
X126952380Y-84018476D01*
X126952380Y-83970857D01*
X127000000Y-83875619D01*
X127047619Y-83828000D01*
X127142857Y-83780380D01*
X127333333Y-83780380D01*
X127428571Y-83828000D01*
X127476190Y-83875619D01*
X127523809Y-83970857D01*
X127523809Y-84018476D01*
X127476190Y-84113714D01*
X127428571Y-84161333D01*
X127333333Y-84208952D01*
X127142857Y-84208952D01*
X127047619Y-84256571D01*
X127000000Y-84304190D01*
X126952380Y-84399428D01*
X126952380Y-84589904D01*
X127000000Y-84685142D01*
X127047619Y-84732761D01*
X127142857Y-84780380D01*
X127333333Y-84780380D01*
X127428571Y-84732761D01*
X127476190Y-84685142D01*
X127523809Y-84589904D01*
X127523809Y-84399428D01*
X127476190Y-84304190D01*
X127428571Y-84256571D01*
X127333333Y-84208952D01*
X123253619Y-84780380D02*
X123253619Y-83780380D01*
X124253619Y-84780380D02*
X123682190Y-84780380D01*
X123967904Y-84780380D02*
X123967904Y-83780380D01*
X123872666Y-83923238D01*
X123777428Y-84018476D01*
X123682190Y-84066095D01*
X124872666Y-83780380D02*
X124967904Y-83780380D01*
X125063142Y-83828000D01*
X125110761Y-83875619D01*
X125158380Y-83970857D01*
X125206000Y-84161333D01*
X125206000Y-84399428D01*
X125158380Y-84589904D01*
X125110761Y-84685142D01*
X125063142Y-84732761D01*
X124967904Y-84780380D01*
X124872666Y-84780380D01*
X124777428Y-84732761D01*
X124729809Y-84685142D01*
X124682190Y-84589904D01*
X124634571Y-84399428D01*
X124634571Y-84161333D01*
X124682190Y-83970857D01*
X124729809Y-83875619D01*
X124777428Y-83828000D01*
X124872666Y-83780380D01*
X121443809Y-84780380D02*
X121443809Y-83780380D01*
X122110476Y-83780380D02*
X122205714Y-83780380D01*
X122300952Y-83828000D01*
X122348571Y-83875619D01*
X122396190Y-83970857D01*
X122443809Y-84161333D01*
X122443809Y-84399428D01*
X122396190Y-84589904D01*
X122348571Y-84685142D01*
X122300952Y-84732761D01*
X122205714Y-84780380D01*
X122110476Y-84780380D01*
X122015238Y-84732761D01*
X121967619Y-84685142D01*
X121920000Y-84589904D01*
X121872380Y-84399428D01*
X121872380Y-84161333D01*
X121920000Y-83970857D01*
X121967619Y-83875619D01*
X122015238Y-83828000D01*
X122110476Y-83780380D01*
X118189523Y-83780380D02*
X118808571Y-83780380D01*
X118475238Y-84161333D01*
X118618095Y-84161333D01*
X118713333Y-84208952D01*
X118760952Y-84256571D01*
X118808571Y-84351809D01*
X118808571Y-84589904D01*
X118760952Y-84685142D01*
X118713333Y-84732761D01*
X118618095Y-84780380D01*
X118332380Y-84780380D01*
X118237142Y-84732761D01*
X118189523Y-84685142D01*
X119141904Y-84113714D02*
X119380000Y-84780380D01*
X119618095Y-84113714D01*
X119903809Y-83780380D02*
X120522857Y-83780380D01*
X120189523Y-84161333D01*
X120332380Y-84161333D01*
X120427619Y-84208952D01*
X120475238Y-84256571D01*
X120522857Y-84351809D01*
X120522857Y-84589904D01*
X120475238Y-84685142D01*
X120427619Y-84732761D01*
X120332380Y-84780380D01*
X120046666Y-84780380D01*
X119951428Y-84732761D01*
X119903809Y-84685142D01*
X121833190Y-62245619D02*
X121785571Y-62293238D01*
X121737952Y-62388476D01*
X121737952Y-62483714D01*
X121785571Y-62578952D01*
X121833190Y-62626571D01*
X121928428Y-62674190D01*
X122023666Y-62674190D01*
X122118904Y-62626571D01*
X122166523Y-62578952D01*
X122214142Y-62483714D01*
X122214142Y-62388476D01*
X122166523Y-62293238D01*
X122118904Y-62245619D01*
X121737952Y-62245619D02*
X122118904Y-62245619D01*
X122166523Y-62198000D01*
X122166523Y-62150380D01*
X122118904Y-62055142D01*
X122023666Y-62007523D01*
X121785571Y-62007523D01*
X121642714Y-62102761D01*
X121547476Y-62245619D01*
X121499857Y-62436095D01*
X121547476Y-62626571D01*
X121642714Y-62769428D01*
X121785571Y-62864666D01*
X121976047Y-62912285D01*
X122166523Y-62864666D01*
X122309380Y-62769428D01*
X122404619Y-62626571D01*
X122452238Y-62436095D01*
X122404619Y-62245619D01*
X122309380Y-62102761D01*
X122261761Y-61626571D02*
X122309380Y-61483714D01*
X122309380Y-61245619D01*
X122261761Y-61150380D01*
X122214142Y-61102761D01*
X122118904Y-61055142D01*
X122023666Y-61055142D01*
X121928428Y-61102761D01*
X121880809Y-61150380D01*
X121833190Y-61245619D01*
X121785571Y-61436095D01*
X121737952Y-61531333D01*
X121690333Y-61578952D01*
X121595095Y-61626571D01*
X121499857Y-61626571D01*
X121404619Y-61578952D01*
X121357000Y-61531333D01*
X121309380Y-61436095D01*
X121309380Y-61198000D01*
X121357000Y-61055142D01*
X121642714Y-60626571D02*
X122642714Y-60626571D01*
X121690333Y-60626571D02*
X121642714Y-60531333D01*
X121642714Y-60340857D01*
X121690333Y-60245619D01*
X121737952Y-60198000D01*
X121833190Y-60150380D01*
X122118904Y-60150380D01*
X122214142Y-60198000D01*
X122261761Y-60245619D01*
X122309380Y-60340857D01*
X122309380Y-60531333D01*
X122261761Y-60626571D01*
X122309380Y-59721809D02*
X121642714Y-59721809D01*
X121309380Y-59721809D02*
X121357000Y-59769428D01*
X121404619Y-59721809D01*
X121357000Y-59674190D01*
X121309380Y-59721809D01*
X121404619Y-59721809D01*
X121642714Y-59340857D02*
X121642714Y-58817047D01*
X122309380Y-59340857D01*
X122309380Y-58817047D01*
X122309380Y-58436095D02*
X121642714Y-58436095D01*
X121309380Y-58436095D02*
X121357000Y-58483714D01*
X121404619Y-58436095D01*
X121357000Y-58388476D01*
X121309380Y-58436095D01*
X121404619Y-58436095D01*
X121642714Y-57531333D02*
X122452238Y-57531333D01*
X122547476Y-57578952D01*
X122595095Y-57626571D01*
X122642714Y-57721809D01*
X122642714Y-57864666D01*
X122595095Y-57959904D01*
X122261761Y-57531333D02*
X122309380Y-57626571D01*
X122309380Y-57817047D01*
X122261761Y-57912285D01*
X122214142Y-57959904D01*
X122118904Y-58007523D01*
X121833190Y-58007523D01*
X121737952Y-57959904D01*
X121690333Y-57912285D01*
X121642714Y-57817047D01*
X121642714Y-57626571D01*
X121690333Y-57531333D01*
X123959380Y-61864666D02*
X123959380Y-62436095D01*
X123959380Y-62150380D02*
X122959380Y-62150380D01*
X123102238Y-62245619D01*
X123197476Y-62340857D01*
X123245095Y-62436095D01*
X123054619Y-61483714D02*
X123007000Y-61436095D01*
X122959380Y-61340857D01*
X122959380Y-61102761D01*
X123007000Y-61007523D01*
X123054619Y-60959904D01*
X123149857Y-60912285D01*
X123245095Y-60912285D01*
X123387952Y-60959904D01*
X123959380Y-61531333D01*
X123959380Y-60912285D01*
X122911761Y-59769428D02*
X124197476Y-60626571D01*
X123054619Y-59483714D02*
X123007000Y-59436095D01*
X122959380Y-59340857D01*
X122959380Y-59102761D01*
X123007000Y-59007523D01*
X123054619Y-58959904D01*
X123149857Y-58912285D01*
X123245095Y-58912285D01*
X123387952Y-58959904D01*
X123959380Y-59531333D01*
X123959380Y-58912285D01*
X123959380Y-57959904D02*
X123959380Y-58531333D01*
X123959380Y-58245619D02*
X122959380Y-58245619D01*
X123102238Y-58340857D01*
X123197476Y-58436095D01*
X123245095Y-58531333D01*
X116204952Y-77692571D02*
X115443047Y-77692571D01*
X115824000Y-77311619D02*
X115824000Y-78073523D01*
D11*
%TO.C,G\u002A\u002A\u002A*%
G36*
X116852700Y-49736498D02*
G01*
X117056201Y-49737268D01*
X117239798Y-49738986D01*
X117398280Y-49741522D01*
X117526434Y-49744746D01*
X117619049Y-49748531D01*
X117670915Y-49752746D01*
X117678035Y-49756932D01*
X117522935Y-49824770D01*
X117388704Y-49922991D01*
X117358149Y-49953779D01*
X117305921Y-50005792D01*
X117267201Y-50024943D01*
X117224102Y-50018309D01*
X117208877Y-50012819D01*
X117095786Y-49985008D01*
X116951351Y-49971033D01*
X116793023Y-49970601D01*
X116638253Y-49983422D01*
X116504492Y-50009203D01*
X116454540Y-50025443D01*
X116408531Y-50019948D01*
X116369362Y-49976939D01*
X116300278Y-49903785D01*
X116195996Y-49832860D01*
X116071523Y-49774144D01*
X116055590Y-49768266D01*
X116037083Y-49759505D01*
X116038318Y-49752431D01*
X116063341Y-49746883D01*
X116116194Y-49742700D01*
X116200925Y-49739721D01*
X116321576Y-49737785D01*
X116482192Y-49736731D01*
X116686819Y-49736396D01*
X116852700Y-49736498D01*
G37*
X116852700Y-49736498D02*
X117056201Y-49737268D01*
X117239798Y-49738986D01*
X117398280Y-49741522D01*
X117526434Y-49744746D01*
X117619049Y-49748531D01*
X117670915Y-49752746D01*
X117678035Y-49756932D01*
X117522935Y-49824770D01*
X117388704Y-49922991D01*
X117358149Y-49953779D01*
X117305921Y-50005792D01*
X117267201Y-50024943D01*
X117224102Y-50018309D01*
X117208877Y-50012819D01*
X117095786Y-49985008D01*
X116951351Y-49971033D01*
X116793023Y-49970601D01*
X116638253Y-49983422D01*
X116504492Y-50009203D01*
X116454540Y-50025443D01*
X116408531Y-50019948D01*
X116369362Y-49976939D01*
X116300278Y-49903785D01*
X116195996Y-49832860D01*
X116071523Y-49774144D01*
X116055590Y-49768266D01*
X116037083Y-49759505D01*
X116038318Y-49752431D01*
X116063341Y-49746883D01*
X116116194Y-49742700D01*
X116200925Y-49739721D01*
X116321576Y-49737785D01*
X116482192Y-49736731D01*
X116686819Y-49736396D01*
X116852700Y-49736498D01*
G36*
X117933804Y-49992434D02*
G01*
X117962257Y-50007806D01*
X118079712Y-50098323D01*
X118178207Y-50207985D01*
X118249465Y-50324981D01*
X118285208Y-50437501D01*
X118287800Y-50472336D01*
X118270903Y-50540542D01*
X118229031Y-50620551D01*
X118175413Y-50690681D01*
X118133893Y-50724606D01*
X118100079Y-50734044D01*
X118071689Y-50713337D01*
X118037000Y-50653872D01*
X118036610Y-50653108D01*
X117968532Y-50546714D01*
X117871345Y-50429063D01*
X117759226Y-50315490D01*
X117646350Y-50221331D01*
X117621053Y-50203548D01*
X117496562Y-50119711D01*
X117586430Y-50051166D01*
X117703448Y-49986869D01*
X117822396Y-49966927D01*
X117933804Y-49992434D01*
G37*
X117933804Y-49992434D02*
X117962257Y-50007806D01*
X118079712Y-50098323D01*
X118178207Y-50207985D01*
X118249465Y-50324981D01*
X118285208Y-50437501D01*
X118287800Y-50472336D01*
X118270903Y-50540542D01*
X118229031Y-50620551D01*
X118175413Y-50690681D01*
X118133893Y-50724606D01*
X118100079Y-50734044D01*
X118071689Y-50713337D01*
X118037000Y-50653872D01*
X118036610Y-50653108D01*
X117968532Y-50546714D01*
X117871345Y-50429063D01*
X117759226Y-50315490D01*
X117646350Y-50221331D01*
X117621053Y-50203548D01*
X117496562Y-50119711D01*
X117586430Y-50051166D01*
X117703448Y-49986869D01*
X117822396Y-49966927D01*
X117933804Y-49992434D01*
G36*
X115969123Y-49976722D02*
G01*
X116088863Y-50029947D01*
X116118969Y-50051166D01*
X116208837Y-50119711D01*
X116084346Y-50203548D01*
X115973687Y-50290591D01*
X115860344Y-50400633D01*
X115758470Y-50518373D01*
X115682216Y-50628509D01*
X115669037Y-50652623D01*
X115635705Y-50711863D01*
X115610504Y-50745952D01*
X115605074Y-50749200D01*
X115580265Y-50732321D01*
X115535517Y-50689959D01*
X115516430Y-50670035D01*
X115465309Y-50604545D01*
X115430889Y-50540989D01*
X115426708Y-50528034D01*
X115425621Y-50428159D01*
X115463256Y-50315507D01*
X115533229Y-50200664D01*
X115629152Y-50094213D01*
X115739246Y-50010037D01*
X115849917Y-49969796D01*
X115969123Y-49976722D01*
G37*
X115969123Y-49976722D02*
X116088863Y-50029947D01*
X116118969Y-50051166D01*
X116208837Y-50119711D01*
X116084346Y-50203548D01*
X115973687Y-50290591D01*
X115860344Y-50400633D01*
X115758470Y-50518373D01*
X115682216Y-50628509D01*
X115669037Y-50652623D01*
X115635705Y-50711863D01*
X115610504Y-50745952D01*
X115605074Y-50749200D01*
X115580265Y-50732321D01*
X115535517Y-50689959D01*
X115516430Y-50670035D01*
X115465309Y-50604545D01*
X115430889Y-50540989D01*
X115426708Y-50528034D01*
X115425621Y-50428159D01*
X115463256Y-50315507D01*
X115533229Y-50200664D01*
X115629152Y-50094213D01*
X115739246Y-50010037D01*
X115849917Y-49969796D01*
X115969123Y-49976722D01*
G36*
X117023257Y-50205015D02*
G01*
X117074174Y-50214304D01*
X117298543Y-50284889D01*
X117496681Y-50394539D01*
X117665703Y-50537485D01*
X117802726Y-50707959D01*
X117904866Y-50900192D01*
X117969239Y-51108413D01*
X117992960Y-51326854D01*
X117973146Y-51549746D01*
X117906912Y-51771320D01*
X117881308Y-51828891D01*
X117827540Y-51936837D01*
X117789431Y-51998322D01*
X117764376Y-52012473D01*
X117749770Y-51978417D01*
X117743008Y-51895283D01*
X117741478Y-51782042D01*
X117739745Y-51656574D01*
X117733244Y-51567458D01*
X117719635Y-51500305D01*
X117696580Y-51440727D01*
X117680948Y-51409600D01*
X117584594Y-51253140D01*
X117479638Y-51129038D01*
X117387126Y-51054634D01*
X117301187Y-51001521D01*
X117362693Y-50940015D01*
X117405307Y-50882500D01*
X117424150Y-50827582D01*
X117424200Y-50825400D01*
X117404368Y-50766625D01*
X117356203Y-50705811D01*
X117296698Y-50660626D01*
X117253206Y-50647600D01*
X117173012Y-50670307D01*
X117115350Y-50729172D01*
X117094000Y-50807790D01*
X117094000Y-50888900D01*
X116611400Y-50888900D01*
X116611400Y-50807790D01*
X116588831Y-50727101D01*
X116530328Y-50669082D01*
X116452193Y-50647600D01*
X116395669Y-50668220D01*
X116337182Y-50718302D01*
X116293728Y-50780176D01*
X116281200Y-50825400D01*
X116298457Y-50879453D01*
X116340236Y-50937502D01*
X116342706Y-50940015D01*
X116404212Y-51001521D01*
X116318273Y-51054634D01*
X116212327Y-51142572D01*
X116108017Y-51271284D01*
X116024451Y-51409600D01*
X115995986Y-51470397D01*
X115978022Y-51531589D01*
X115968254Y-51607443D01*
X115964376Y-51712227D01*
X115963921Y-51784221D01*
X115963285Y-51892285D01*
X115961744Y-51978442D01*
X115959550Y-52032068D01*
X115957710Y-52044571D01*
X115941522Y-52025504D01*
X115907392Y-51977183D01*
X115887583Y-51947682D01*
X115795088Y-51765742D01*
X115736823Y-51558882D01*
X115714462Y-51341182D01*
X115729681Y-51126718D01*
X115770685Y-50965100D01*
X115870019Y-50755160D01*
X116006637Y-50572814D01*
X116174091Y-50421777D01*
X116365929Y-50305763D01*
X116575703Y-50228488D01*
X116796962Y-50193667D01*
X117023257Y-50205015D01*
G37*
X117023257Y-50205015D02*
X117074174Y-50214304D01*
X117298543Y-50284889D01*
X117496681Y-50394539D01*
X117665703Y-50537485D01*
X117802726Y-50707959D01*
X117904866Y-50900192D01*
X117969239Y-51108413D01*
X117992960Y-51326854D01*
X117973146Y-51549746D01*
X117906912Y-51771320D01*
X117881308Y-51828891D01*
X117827540Y-51936837D01*
X117789431Y-51998322D01*
X117764376Y-52012473D01*
X117749770Y-51978417D01*
X117743008Y-51895283D01*
X117741478Y-51782042D01*
X117739745Y-51656574D01*
X117733244Y-51567458D01*
X117719635Y-51500305D01*
X117696580Y-51440727D01*
X117680948Y-51409600D01*
X117584594Y-51253140D01*
X117479638Y-51129038D01*
X117387126Y-51054634D01*
X117301187Y-51001521D01*
X117362693Y-50940015D01*
X117405307Y-50882500D01*
X117424150Y-50827582D01*
X117424200Y-50825400D01*
X117404368Y-50766625D01*
X117356203Y-50705811D01*
X117296698Y-50660626D01*
X117253206Y-50647600D01*
X117173012Y-50670307D01*
X117115350Y-50729172D01*
X117094000Y-50807790D01*
X117094000Y-50888900D01*
X116611400Y-50888900D01*
X116611400Y-50807790D01*
X116588831Y-50727101D01*
X116530328Y-50669082D01*
X116452193Y-50647600D01*
X116395669Y-50668220D01*
X116337182Y-50718302D01*
X116293728Y-50780176D01*
X116281200Y-50825400D01*
X116298457Y-50879453D01*
X116340236Y-50937502D01*
X116342706Y-50940015D01*
X116404212Y-51001521D01*
X116318273Y-51054634D01*
X116212327Y-51142572D01*
X116108017Y-51271284D01*
X116024451Y-51409600D01*
X115995986Y-51470397D01*
X115978022Y-51531589D01*
X115968254Y-51607443D01*
X115964376Y-51712227D01*
X115963921Y-51784221D01*
X115963285Y-51892285D01*
X115961744Y-51978442D01*
X115959550Y-52032068D01*
X115957710Y-52044571D01*
X115941522Y-52025504D01*
X115907392Y-51977183D01*
X115887583Y-51947682D01*
X115795088Y-51765742D01*
X115736823Y-51558882D01*
X115714462Y-51341182D01*
X115729681Y-51126718D01*
X115770685Y-50965100D01*
X115870019Y-50755160D01*
X116006637Y-50572814D01*
X116174091Y-50421777D01*
X116365929Y-50305763D01*
X116575703Y-50228488D01*
X116796962Y-50193667D01*
X117023257Y-50205015D01*
G36*
X117013893Y-51129177D02*
G01*
X117142828Y-51165445D01*
X117254088Y-51232995D01*
X117338911Y-51312124D01*
X117442522Y-51454739D01*
X117509020Y-51617014D01*
X117536046Y-51787381D01*
X117521239Y-51954274D01*
X117489764Y-52051515D01*
X117419592Y-52170251D01*
X117319347Y-52285327D01*
X117206574Y-52377936D01*
X117159232Y-52405845D01*
X117066059Y-52438593D01*
X116946734Y-52460691D01*
X116821786Y-52470144D01*
X116711744Y-52464955D01*
X116662035Y-52454188D01*
X116501775Y-52377363D01*
X116360998Y-52263139D01*
X116252005Y-52122612D01*
X116215635Y-52051515D01*
X116173533Y-51892649D01*
X116174736Y-51723092D01*
X116216884Y-51554411D01*
X116228726Y-51531493D01*
X116514078Y-51531493D01*
X116514147Y-51592905D01*
X116535983Y-51669121D01*
X116599404Y-51779878D01*
X116696101Y-51855656D01*
X116817694Y-51890551D01*
X116852700Y-51892200D01*
X116980109Y-51868376D01*
X117045793Y-51834221D01*
X117130152Y-51748322D01*
X117169416Y-51669121D01*
X117191321Y-51592506D01*
X117191252Y-51531094D01*
X117169416Y-51454878D01*
X117109237Y-51347937D01*
X117022134Y-51275502D01*
X116918464Y-51237571D01*
X116808587Y-51234146D01*
X116702860Y-51265225D01*
X116611643Y-51330810D01*
X116545294Y-51430899D01*
X116535983Y-51454878D01*
X116514078Y-51531493D01*
X116228726Y-51531493D01*
X116297617Y-51398173D01*
X116366488Y-51312124D01*
X116474093Y-51215811D01*
X116587875Y-51155362D01*
X116722417Y-51124965D01*
X116852700Y-51118379D01*
X117013893Y-51129177D01*
G37*
X117013893Y-51129177D02*
X117142828Y-51165445D01*
X117254088Y-51232995D01*
X117338911Y-51312124D01*
X117442522Y-51454739D01*
X117509020Y-51617014D01*
X117536046Y-51787381D01*
X117521239Y-51954274D01*
X117489764Y-52051515D01*
X117419592Y-52170251D01*
X117319347Y-52285327D01*
X117206574Y-52377936D01*
X117159232Y-52405845D01*
X117066059Y-52438593D01*
X116946734Y-52460691D01*
X116821786Y-52470144D01*
X116711744Y-52464955D01*
X116662035Y-52454188D01*
X116501775Y-52377363D01*
X116360998Y-52263139D01*
X116252005Y-52122612D01*
X116215635Y-52051515D01*
X116173533Y-51892649D01*
X116174736Y-51723092D01*
X116216884Y-51554411D01*
X116228726Y-51531493D01*
X116514078Y-51531493D01*
X116514147Y-51592905D01*
X116535983Y-51669121D01*
X116599404Y-51779878D01*
X116696101Y-51855656D01*
X116817694Y-51890551D01*
X116852700Y-51892200D01*
X116980109Y-51868376D01*
X117045793Y-51834221D01*
X117130152Y-51748322D01*
X117169416Y-51669121D01*
X117191321Y-51592506D01*
X117191252Y-51531094D01*
X117169416Y-51454878D01*
X117109237Y-51347937D01*
X117022134Y-51275502D01*
X116918464Y-51237571D01*
X116808587Y-51234146D01*
X116702860Y-51265225D01*
X116611643Y-51330810D01*
X116545294Y-51430899D01*
X116535983Y-51454878D01*
X116514078Y-51531493D01*
X116228726Y-51531493D01*
X116297617Y-51398173D01*
X116366488Y-51312124D01*
X116474093Y-51215811D01*
X116587875Y-51155362D01*
X116722417Y-51124965D01*
X116852700Y-51118379D01*
X117013893Y-51129177D01*
G36*
X115890568Y-52291935D02*
G01*
X116047052Y-52431246D01*
X116201551Y-52533542D01*
X116371449Y-52608769D01*
X116524670Y-52654755D01*
X116715906Y-52693075D01*
X116888992Y-52701648D01*
X117066956Y-52680473D01*
X117180729Y-52654755D01*
X117375085Y-52593425D01*
X117540448Y-52512589D01*
X117694271Y-52402271D01*
X117814177Y-52292589D01*
X117889384Y-52219061D01*
X117949844Y-52161252D01*
X117987376Y-52126913D01*
X117995478Y-52120800D01*
X118018930Y-52132161D01*
X118081412Y-52164204D01*
X118177046Y-52213865D01*
X118299954Y-52278080D01*
X118444255Y-52353786D01*
X118604073Y-52437919D01*
X118608800Y-52440412D01*
X118821634Y-52553816D01*
X118992820Y-52648267D01*
X119126447Y-52726921D01*
X119226601Y-52792933D01*
X119297373Y-52849460D01*
X119342850Y-52899656D01*
X119367120Y-52946679D01*
X119374272Y-52993684D01*
X119371180Y-53028906D01*
X119344686Y-53109230D01*
X119301136Y-53177728D01*
X119300378Y-53178542D01*
X119258328Y-53213561D01*
X119207744Y-53233066D01*
X119142409Y-53235996D01*
X119056105Y-53221291D01*
X118942616Y-53187891D01*
X118795726Y-53134735D01*
X118609216Y-53060763D01*
X118608814Y-53060600D01*
X118466741Y-53004002D01*
X118337824Y-52954844D01*
X118230600Y-52916208D01*
X118153607Y-52891174D01*
X118116277Y-52882800D01*
X118070702Y-52891746D01*
X118041828Y-52923016D01*
X118028276Y-52983260D01*
X118028669Y-53079125D01*
X118041628Y-53217259D01*
X118043564Y-53233670D01*
X118055402Y-53342876D01*
X118062763Y-53431972D01*
X118064864Y-53489814D01*
X118062703Y-53505829D01*
X118032110Y-53513251D01*
X117969869Y-53517449D01*
X117943860Y-53517800D01*
X117845961Y-53527121D01*
X117746480Y-53549958D01*
X117734646Y-53553907D01*
X117632306Y-53590015D01*
X117616843Y-53507592D01*
X117572553Y-53385245D01*
X117490649Y-53259619D01*
X117381922Y-53142855D01*
X117257162Y-53047089D01*
X117164003Y-52998180D01*
X116982489Y-52947775D01*
X116797578Y-52942222D01*
X116617340Y-52977988D01*
X116449848Y-53051543D01*
X116303171Y-53159354D01*
X116185380Y-53297890D01*
X116105278Y-53461450D01*
X116063389Y-53585188D01*
X115975444Y-53553426D01*
X115896361Y-53534085D01*
X115797640Y-53521753D01*
X115753849Y-53519732D01*
X115620199Y-53517800D01*
X115633913Y-53422550D01*
X115658640Y-53243803D01*
X115674104Y-53109037D01*
X115679801Y-53012192D01*
X115675229Y-52947211D01*
X115659885Y-52908033D01*
X115633267Y-52888602D01*
X115594871Y-52882857D01*
X115589122Y-52882800D01*
X115548676Y-52892090D01*
X115469904Y-52917905D01*
X115361344Y-52957164D01*
X115231534Y-53006783D01*
X115096585Y-53060600D01*
X114909993Y-53134612D01*
X114763032Y-53187807D01*
X114649485Y-53221245D01*
X114563135Y-53235985D01*
X114497765Y-53233088D01*
X114447158Y-53213614D01*
X114405098Y-53178624D01*
X114405021Y-53178542D01*
X114361342Y-53110559D01*
X114334420Y-53030120D01*
X114334219Y-53028906D01*
X114331579Y-52979972D01*
X114342988Y-52933396D01*
X114372535Y-52886044D01*
X114424309Y-52834785D01*
X114502398Y-52776484D01*
X114610891Y-52708010D01*
X114753876Y-52626228D01*
X114935444Y-52528007D01*
X115103168Y-52439696D01*
X115715836Y-52119491D01*
X115890568Y-52291935D01*
G37*
X115890568Y-52291935D02*
X116047052Y-52431246D01*
X116201551Y-52533542D01*
X116371449Y-52608769D01*
X116524670Y-52654755D01*
X116715906Y-52693075D01*
X116888992Y-52701648D01*
X117066956Y-52680473D01*
X117180729Y-52654755D01*
X117375085Y-52593425D01*
X117540448Y-52512589D01*
X117694271Y-52402271D01*
X117814177Y-52292589D01*
X117889384Y-52219061D01*
X117949844Y-52161252D01*
X117987376Y-52126913D01*
X117995478Y-52120800D01*
X118018930Y-52132161D01*
X118081412Y-52164204D01*
X118177046Y-52213865D01*
X118299954Y-52278080D01*
X118444255Y-52353786D01*
X118604073Y-52437919D01*
X118608800Y-52440412D01*
X118821634Y-52553816D01*
X118992820Y-52648267D01*
X119126447Y-52726921D01*
X119226601Y-52792933D01*
X119297373Y-52849460D01*
X119342850Y-52899656D01*
X119367120Y-52946679D01*
X119374272Y-52993684D01*
X119371180Y-53028906D01*
X119344686Y-53109230D01*
X119301136Y-53177728D01*
X119300378Y-53178542D01*
X119258328Y-53213561D01*
X119207744Y-53233066D01*
X119142409Y-53235996D01*
X119056105Y-53221291D01*
X118942616Y-53187891D01*
X118795726Y-53134735D01*
X118609216Y-53060763D01*
X118608814Y-53060600D01*
X118466741Y-53004002D01*
X118337824Y-52954844D01*
X118230600Y-52916208D01*
X118153607Y-52891174D01*
X118116277Y-52882800D01*
X118070702Y-52891746D01*
X118041828Y-52923016D01*
X118028276Y-52983260D01*
X118028669Y-53079125D01*
X118041628Y-53217259D01*
X118043564Y-53233670D01*
X118055402Y-53342876D01*
X118062763Y-53431972D01*
X118064864Y-53489814D01*
X118062703Y-53505829D01*
X118032110Y-53513251D01*
X117969869Y-53517449D01*
X117943860Y-53517800D01*
X117845961Y-53527121D01*
X117746480Y-53549958D01*
X117734646Y-53553907D01*
X117632306Y-53590015D01*
X117616843Y-53507592D01*
X117572553Y-53385245D01*
X117490649Y-53259619D01*
X117381922Y-53142855D01*
X117257162Y-53047089D01*
X117164003Y-52998180D01*
X116982489Y-52947775D01*
X116797578Y-52942222D01*
X116617340Y-52977988D01*
X116449848Y-53051543D01*
X116303171Y-53159354D01*
X116185380Y-53297890D01*
X116105278Y-53461450D01*
X116063389Y-53585188D01*
X115975444Y-53553426D01*
X115896361Y-53534085D01*
X115797640Y-53521753D01*
X115753849Y-53519732D01*
X115620199Y-53517800D01*
X115633913Y-53422550D01*
X115658640Y-53243803D01*
X115674104Y-53109037D01*
X115679801Y-53012192D01*
X115675229Y-52947211D01*
X115659885Y-52908033D01*
X115633267Y-52888602D01*
X115594871Y-52882857D01*
X115589122Y-52882800D01*
X115548676Y-52892090D01*
X115469904Y-52917905D01*
X115361344Y-52957164D01*
X115231534Y-53006783D01*
X115096585Y-53060600D01*
X114909993Y-53134612D01*
X114763032Y-53187807D01*
X114649485Y-53221245D01*
X114563135Y-53235985D01*
X114497765Y-53233088D01*
X114447158Y-53213614D01*
X114405098Y-53178624D01*
X114405021Y-53178542D01*
X114361342Y-53110559D01*
X114334420Y-53030120D01*
X114334219Y-53028906D01*
X114331579Y-52979972D01*
X114342988Y-52933396D01*
X114372535Y-52886044D01*
X114424309Y-52834785D01*
X114502398Y-52776484D01*
X114610891Y-52708010D01*
X114753876Y-52626228D01*
X114935444Y-52528007D01*
X115103168Y-52439696D01*
X115715836Y-52119491D01*
X115890568Y-52291935D01*
G36*
X116934043Y-53173731D02*
G01*
X117075514Y-53211797D01*
X117204418Y-53285859D01*
X117312685Y-53395916D01*
X117384812Y-53523334D01*
X117416790Y-53620314D01*
X117416292Y-53697518D01*
X117380312Y-53773945D01*
X117335850Y-53832968D01*
X117219643Y-54004318D01*
X117144157Y-54189259D01*
X117105168Y-54399286D01*
X117099629Y-54475261D01*
X117097165Y-54604426D01*
X117102609Y-54712903D01*
X117115198Y-54786428D01*
X117116545Y-54790529D01*
X117133973Y-54846837D01*
X117139081Y-54876940D01*
X117138564Y-54877971D01*
X117107910Y-54884635D01*
X117040542Y-54890760D01*
X116950542Y-54895776D01*
X116851996Y-54899111D01*
X116758988Y-54900193D01*
X116685603Y-54898452D01*
X116667320Y-54897086D01*
X116600156Y-54887958D01*
X116572719Y-54872917D01*
X116573991Y-54843737D01*
X116578420Y-54830729D01*
X116586830Y-54782642D01*
X116593317Y-54697381D01*
X116597069Y-54588562D01*
X116597647Y-54508400D01*
X116595620Y-54380782D01*
X116588964Y-54288256D01*
X116575036Y-54215153D01*
X116551189Y-54145802D01*
X116527246Y-54091243D01*
X116473885Y-53989632D01*
X116410319Y-53888155D01*
X116369549Y-53832968D01*
X116308593Y-53746695D01*
X116285095Y-53672141D01*
X116296049Y-53590307D01*
X116320587Y-53523334D01*
X116403861Y-53381422D01*
X116514913Y-53275506D01*
X116645674Y-53205585D01*
X116788073Y-53171660D01*
X116934043Y-53173731D01*
G37*
X116934043Y-53173731D02*
X117075514Y-53211797D01*
X117204418Y-53285859D01*
X117312685Y-53395916D01*
X117384812Y-53523334D01*
X117416790Y-53620314D01*
X117416292Y-53697518D01*
X117380312Y-53773945D01*
X117335850Y-53832968D01*
X117219643Y-54004318D01*
X117144157Y-54189259D01*
X117105168Y-54399286D01*
X117099629Y-54475261D01*
X117097165Y-54604426D01*
X117102609Y-54712903D01*
X117115198Y-54786428D01*
X117116545Y-54790529D01*
X117133973Y-54846837D01*
X117139081Y-54876940D01*
X117138564Y-54877971D01*
X117107910Y-54884635D01*
X117040542Y-54890760D01*
X116950542Y-54895776D01*
X116851996Y-54899111D01*
X116758988Y-54900193D01*
X116685603Y-54898452D01*
X116667320Y-54897086D01*
X116600156Y-54887958D01*
X116572719Y-54872917D01*
X116573991Y-54843737D01*
X116578420Y-54830729D01*
X116586830Y-54782642D01*
X116593317Y-54697381D01*
X116597069Y-54588562D01*
X116597647Y-54508400D01*
X116595620Y-54380782D01*
X116588964Y-54288256D01*
X116575036Y-54215153D01*
X116551189Y-54145802D01*
X116527246Y-54091243D01*
X116473885Y-53989632D01*
X116410319Y-53888155D01*
X116369549Y-53832968D01*
X116308593Y-53746695D01*
X116285095Y-53672141D01*
X116296049Y-53590307D01*
X116320587Y-53523334D01*
X116403861Y-53381422D01*
X116514913Y-53275506D01*
X116645674Y-53205585D01*
X116788073Y-53171660D01*
X116934043Y-53173731D01*
G36*
X118129613Y-53756793D02*
G01*
X118267425Y-53818031D01*
X118387233Y-53921281D01*
X118442796Y-53995885D01*
X118519447Y-54143935D01*
X118557749Y-54293767D01*
X118562352Y-54464533D01*
X118561144Y-54483409D01*
X118528769Y-54664535D01*
X118462297Y-54827619D01*
X118367661Y-54968168D01*
X118250794Y-55081693D01*
X118117629Y-55163702D01*
X117974097Y-55209705D01*
X117826132Y-55215211D01*
X117679666Y-55175730D01*
X117659191Y-55166146D01*
X117525177Y-55073316D01*
X117423206Y-54948382D01*
X117353997Y-54799232D01*
X117318269Y-54633754D01*
X117316740Y-54459836D01*
X117350131Y-54285368D01*
X117419159Y-54118237D01*
X117524544Y-53966333D01*
X117547543Y-53941097D01*
X117682761Y-53829720D01*
X117829819Y-53762181D01*
X117981257Y-53738024D01*
X118129613Y-53756793D01*
G37*
X118129613Y-53756793D02*
X118267425Y-53818031D01*
X118387233Y-53921281D01*
X118442796Y-53995885D01*
X118519447Y-54143935D01*
X118557749Y-54293767D01*
X118562352Y-54464533D01*
X118561144Y-54483409D01*
X118528769Y-54664535D01*
X118462297Y-54827619D01*
X118367661Y-54968168D01*
X118250794Y-55081693D01*
X118117629Y-55163702D01*
X117974097Y-55209705D01*
X117826132Y-55215211D01*
X117679666Y-55175730D01*
X117659191Y-55166146D01*
X117525177Y-55073316D01*
X117423206Y-54948382D01*
X117353997Y-54799232D01*
X117318269Y-54633754D01*
X117316740Y-54459836D01*
X117350131Y-54285368D01*
X117419159Y-54118237D01*
X117524544Y-53966333D01*
X117547543Y-53941097D01*
X117682761Y-53829720D01*
X117829819Y-53762181D01*
X117981257Y-53738024D01*
X118129613Y-53756793D01*
G36*
X115906498Y-53770165D02*
G01*
X116048799Y-53845973D01*
X116157856Y-53941097D01*
X116267768Y-54085291D01*
X116341941Y-54243329D01*
X116382118Y-54408646D01*
X116390043Y-54574675D01*
X116367460Y-54734849D01*
X116316111Y-54882601D01*
X116237741Y-55011365D01*
X116134093Y-55114575D01*
X116006911Y-55185663D01*
X115857938Y-55218063D01*
X115818465Y-55219351D01*
X115728960Y-55207634D01*
X115626992Y-55178087D01*
X115582700Y-55159837D01*
X115427840Y-55060461D01*
X115301548Y-54923754D01*
X115208782Y-54757370D01*
X115154504Y-54568959D01*
X115144255Y-54483409D01*
X115150379Y-54294083D01*
X115193244Y-54127349D01*
X115267217Y-53986220D01*
X115366663Y-53873711D01*
X115485948Y-53792837D01*
X115619439Y-53746612D01*
X115761500Y-53738050D01*
X115906498Y-53770165D01*
G37*
X115906498Y-53770165D02*
X116048799Y-53845973D01*
X116157856Y-53941097D01*
X116267768Y-54085291D01*
X116341941Y-54243329D01*
X116382118Y-54408646D01*
X116390043Y-54574675D01*
X116367460Y-54734849D01*
X116316111Y-54882601D01*
X116237741Y-55011365D01*
X116134093Y-55114575D01*
X116006911Y-55185663D01*
X115857938Y-55218063D01*
X115818465Y-55219351D01*
X115728960Y-55207634D01*
X115626992Y-55178087D01*
X115582700Y-55159837D01*
X115427840Y-55060461D01*
X115301548Y-54923754D01*
X115208782Y-54757370D01*
X115154504Y-54568959D01*
X115144255Y-54483409D01*
X115150379Y-54294083D01*
X115193244Y-54127349D01*
X115267217Y-53986220D01*
X115366663Y-53873711D01*
X115485948Y-53792837D01*
X115619439Y-53746612D01*
X115761500Y-53738050D01*
X115906498Y-53770165D01*
G36*
X119710200Y-55448200D02*
G01*
X118852950Y-55446500D01*
X118622026Y-55445845D01*
X118437792Y-55444763D01*
X118296137Y-55443062D01*
X118192951Y-55440551D01*
X118124124Y-55437035D01*
X118085545Y-55432323D01*
X118073105Y-55426221D01*
X118082692Y-55418538D01*
X118102734Y-55411350D01*
X118291548Y-55327816D01*
X118452920Y-55208017D01*
X118585063Y-55058824D01*
X118686194Y-54887106D01*
X118754526Y-54699736D01*
X118788275Y-54503584D01*
X118785655Y-54305520D01*
X118744882Y-54112416D01*
X118664169Y-53931142D01*
X118541732Y-53768569D01*
X118532147Y-53758671D01*
X118461302Y-53689636D01*
X118398497Y-53633655D01*
X118356864Y-53602407D01*
X118355717Y-53601780D01*
X118328504Y-53573745D01*
X118307717Y-53516811D01*
X118290367Y-53421607D01*
X118284767Y-53379226D01*
X118274103Y-53285399D01*
X118267804Y-53213617D01*
X118266921Y-53176493D01*
X118267649Y-53174125D01*
X118292447Y-53180708D01*
X118356052Y-53203577D01*
X118450312Y-53239640D01*
X118567073Y-53285807D01*
X118643400Y-53316608D01*
X118804738Y-53380265D01*
X118928905Y-53424387D01*
X119024460Y-53451558D01*
X119099963Y-53464365D01*
X119138700Y-53466231D01*
X119281433Y-53444174D01*
X119401849Y-53383750D01*
X119496534Y-53293342D01*
X119562079Y-53181330D01*
X119595070Y-53056096D01*
X119592096Y-52926019D01*
X119549745Y-52799482D01*
X119464605Y-52684865D01*
X119458992Y-52679434D01*
X119411631Y-52643831D01*
X119325811Y-52588944D01*
X119208258Y-52518703D01*
X119065700Y-52437035D01*
X118904865Y-52347866D01*
X118732480Y-52255126D01*
X118729632Y-52253618D01*
X118093801Y-51916867D01*
X118155715Y-51733083D01*
X118183393Y-51644913D01*
X118200481Y-51568864D01*
X118208647Y-51489064D01*
X118209558Y-51389638D01*
X118205195Y-51261925D01*
X118192761Y-50974551D01*
X118323691Y-50842825D01*
X118435285Y-50704605D01*
X118499891Y-50563154D01*
X118516400Y-50448755D01*
X118494800Y-50327467D01*
X118435456Y-50195400D01*
X118346549Y-50063489D01*
X118236260Y-49942667D01*
X118112771Y-49843870D01*
X118028011Y-49796039D01*
X117894100Y-49733696D01*
X119710200Y-49733200D01*
X119710200Y-55448200D01*
G37*
X119710200Y-55448200D02*
X118852950Y-55446500D01*
X118622026Y-55445845D01*
X118437792Y-55444763D01*
X118296137Y-55443062D01*
X118192951Y-55440551D01*
X118124124Y-55437035D01*
X118085545Y-55432323D01*
X118073105Y-55426221D01*
X118082692Y-55418538D01*
X118102734Y-55411350D01*
X118291548Y-55327816D01*
X118452920Y-55208017D01*
X118585063Y-55058824D01*
X118686194Y-54887106D01*
X118754526Y-54699736D01*
X118788275Y-54503584D01*
X118785655Y-54305520D01*
X118744882Y-54112416D01*
X118664169Y-53931142D01*
X118541732Y-53768569D01*
X118532147Y-53758671D01*
X118461302Y-53689636D01*
X118398497Y-53633655D01*
X118356864Y-53602407D01*
X118355717Y-53601780D01*
X118328504Y-53573745D01*
X118307717Y-53516811D01*
X118290367Y-53421607D01*
X118284767Y-53379226D01*
X118274103Y-53285399D01*
X118267804Y-53213617D01*
X118266921Y-53176493D01*
X118267649Y-53174125D01*
X118292447Y-53180708D01*
X118356052Y-53203577D01*
X118450312Y-53239640D01*
X118567073Y-53285807D01*
X118643400Y-53316608D01*
X118804738Y-53380265D01*
X118928905Y-53424387D01*
X119024460Y-53451558D01*
X119099963Y-53464365D01*
X119138700Y-53466231D01*
X119281433Y-53444174D01*
X119401849Y-53383750D01*
X119496534Y-53293342D01*
X119562079Y-53181330D01*
X119595070Y-53056096D01*
X119592096Y-52926019D01*
X119549745Y-52799482D01*
X119464605Y-52684865D01*
X119458992Y-52679434D01*
X119411631Y-52643831D01*
X119325811Y-52588944D01*
X119208258Y-52518703D01*
X119065700Y-52437035D01*
X118904865Y-52347866D01*
X118732480Y-52255126D01*
X118729632Y-52253618D01*
X118093801Y-51916867D01*
X118155715Y-51733083D01*
X118183393Y-51644913D01*
X118200481Y-51568864D01*
X118208647Y-51489064D01*
X118209558Y-51389638D01*
X118205195Y-51261925D01*
X118192761Y-50974551D01*
X118323691Y-50842825D01*
X118435285Y-50704605D01*
X118499891Y-50563154D01*
X118516400Y-50448755D01*
X118494800Y-50327467D01*
X118435456Y-50195400D01*
X118346549Y-50063489D01*
X118236260Y-49942667D01*
X118112771Y-49843870D01*
X118028011Y-49796039D01*
X117894100Y-49733696D01*
X119710200Y-49733200D01*
X119710200Y-55448200D01*
G36*
X117325219Y-55181399D02*
G01*
X117467991Y-55306985D01*
X117626225Y-55394818D01*
X117716300Y-55424366D01*
X117709365Y-55428550D01*
X117656632Y-55432406D01*
X117563103Y-55435826D01*
X117433778Y-55438702D01*
X117273659Y-55440927D01*
X117087747Y-55442393D01*
X116881044Y-55442991D01*
X116852700Y-55443000D01*
X116643644Y-55442523D01*
X116454725Y-55441165D01*
X116290944Y-55439033D01*
X116157302Y-55436236D01*
X116058801Y-55432881D01*
X116000441Y-55429076D01*
X115987224Y-55424929D01*
X115989100Y-55424366D01*
X116150215Y-55361155D01*
X116303241Y-55255612D01*
X116380180Y-55181399D01*
X116489577Y-55062717D01*
X117215822Y-55062717D01*
X117325219Y-55181399D01*
G37*
X117325219Y-55181399D02*
X117467991Y-55306985D01*
X117626225Y-55394818D01*
X117716300Y-55424366D01*
X117709365Y-55428550D01*
X117656632Y-55432406D01*
X117563103Y-55435826D01*
X117433778Y-55438702D01*
X117273659Y-55440927D01*
X117087747Y-55442393D01*
X116881044Y-55442991D01*
X116852700Y-55443000D01*
X116643644Y-55442523D01*
X116454725Y-55441165D01*
X116290944Y-55439033D01*
X116157302Y-55436236D01*
X116058801Y-55432881D01*
X116000441Y-55429076D01*
X115987224Y-55424929D01*
X115989100Y-55424366D01*
X116150215Y-55361155D01*
X116303241Y-55255612D01*
X116380180Y-55181399D01*
X116489577Y-55062717D01*
X117215822Y-55062717D01*
X117325219Y-55181399D01*
G36*
X115811300Y-49733696D02*
G01*
X115677388Y-49796039D01*
X115549669Y-49874311D01*
X115429750Y-49981824D01*
X115325812Y-50107643D01*
X115246039Y-50240834D01*
X115198610Y-50370463D01*
X115189000Y-50448755D01*
X115213978Y-50589811D01*
X115287573Y-50730969D01*
X115381708Y-50842825D01*
X115512638Y-50974551D01*
X115500204Y-51261925D01*
X115495745Y-51394817D01*
X115496947Y-51492953D01*
X115505481Y-51572220D01*
X115523021Y-51648506D01*
X115549870Y-51733637D01*
X115611970Y-51917975D01*
X115381435Y-52041223D01*
X115278712Y-52095921D01*
X115144623Y-52167000D01*
X114992793Y-52247254D01*
X114836849Y-52329477D01*
X114745403Y-52377586D01*
X114606937Y-52452576D01*
X114477641Y-52526675D01*
X114367087Y-52594089D01*
X114284848Y-52649023D01*
X114246392Y-52679600D01*
X114158961Y-52793201D01*
X114114475Y-52919197D01*
X114109523Y-53049207D01*
X114140691Y-53174850D01*
X114204569Y-53287747D01*
X114297742Y-53379517D01*
X114416800Y-53441780D01*
X114558329Y-53466156D01*
X114566700Y-53466231D01*
X114634365Y-53460710D01*
X114717015Y-53442355D01*
X114823210Y-53408580D01*
X114961507Y-53356801D01*
X115062000Y-53316608D01*
X115188140Y-53265858D01*
X115296481Y-53223254D01*
X115378903Y-53191913D01*
X115427281Y-53174947D01*
X115436573Y-53172948D01*
X115436545Y-53199095D01*
X115430890Y-53263153D01*
X115420760Y-53352685D01*
X115417465Y-53379162D01*
X115399656Y-53492340D01*
X115379330Y-53562874D01*
X115353942Y-53598921D01*
X115347692Y-53602893D01*
X115308361Y-53632163D01*
X115247043Y-53686783D01*
X115176668Y-53755205D01*
X115173252Y-53758671D01*
X115048260Y-53920747D01*
X114963921Y-54107298D01*
X114921162Y-54311138D01*
X114920905Y-54525084D01*
X114964077Y-54741951D01*
X115025912Y-54903046D01*
X115140892Y-55091387D01*
X115290929Y-55244850D01*
X115471681Y-55359610D01*
X115602665Y-55411350D01*
X115626537Y-55420396D01*
X115631576Y-55427710D01*
X115613671Y-55433485D01*
X115568713Y-55437914D01*
X115492592Y-55441190D01*
X115381196Y-55443504D01*
X115230417Y-55445051D01*
X115036143Y-55446021D01*
X114852450Y-55446500D01*
X113995200Y-55448200D01*
X113995200Y-49733200D01*
X115811300Y-49733696D01*
G37*
X115811300Y-49733696D02*
X115677388Y-49796039D01*
X115549669Y-49874311D01*
X115429750Y-49981824D01*
X115325812Y-50107643D01*
X115246039Y-50240834D01*
X115198610Y-50370463D01*
X115189000Y-50448755D01*
X115213978Y-50589811D01*
X115287573Y-50730969D01*
X115381708Y-50842825D01*
X115512638Y-50974551D01*
X115500204Y-51261925D01*
X115495745Y-51394817D01*
X115496947Y-51492953D01*
X115505481Y-51572220D01*
X115523021Y-51648506D01*
X115549870Y-51733637D01*
X115611970Y-51917975D01*
X115381435Y-52041223D01*
X115278712Y-52095921D01*
X115144623Y-52167000D01*
X114992793Y-52247254D01*
X114836849Y-52329477D01*
X114745403Y-52377586D01*
X114606937Y-52452576D01*
X114477641Y-52526675D01*
X114367087Y-52594089D01*
X114284848Y-52649023D01*
X114246392Y-52679600D01*
X114158961Y-52793201D01*
X114114475Y-52919197D01*
X114109523Y-53049207D01*
X114140691Y-53174850D01*
X114204569Y-53287747D01*
X114297742Y-53379517D01*
X114416800Y-53441780D01*
X114558329Y-53466156D01*
X114566700Y-53466231D01*
X114634365Y-53460710D01*
X114717015Y-53442355D01*
X114823210Y-53408580D01*
X114961507Y-53356801D01*
X115062000Y-53316608D01*
X115188140Y-53265858D01*
X115296481Y-53223254D01*
X115378903Y-53191913D01*
X115427281Y-53174947D01*
X115436573Y-53172948D01*
X115436545Y-53199095D01*
X115430890Y-53263153D01*
X115420760Y-53352685D01*
X115417465Y-53379162D01*
X115399656Y-53492340D01*
X115379330Y-53562874D01*
X115353942Y-53598921D01*
X115347692Y-53602893D01*
X115308361Y-53632163D01*
X115247043Y-53686783D01*
X115176668Y-53755205D01*
X115173252Y-53758671D01*
X115048260Y-53920747D01*
X114963921Y-54107298D01*
X114921162Y-54311138D01*
X114920905Y-54525084D01*
X114964077Y-54741951D01*
X115025912Y-54903046D01*
X115140892Y-55091387D01*
X115290929Y-55244850D01*
X115471681Y-55359610D01*
X115602665Y-55411350D01*
X115626537Y-55420396D01*
X115631576Y-55427710D01*
X115613671Y-55433485D01*
X115568713Y-55437914D01*
X115492592Y-55441190D01*
X115381196Y-55443504D01*
X115230417Y-55445051D01*
X115036143Y-55446021D01*
X114852450Y-55446500D01*
X113995200Y-55448200D01*
X113995200Y-49733200D01*
X115811300Y-49733696D01*
D12*
%TO.C,D5*%
X131853999Y-80104000D02*
X133003999Y-80104000D01*
X131853999Y-72804000D02*
X131853999Y-80104000D01*
X137353999Y-72804000D02*
X137353999Y-80104000D01*
%TO.C,D4*%
X136616000Y-72120000D02*
X132716000Y-72120000D01*
X136616000Y-70120000D02*
X132716000Y-70120000D01*
X136616000Y-72120000D02*
X136616000Y-70120000D01*
%TO.C,J4*%
X127956000Y-69790000D02*
X129286000Y-69790000D01*
X127956000Y-71120000D02*
X127956000Y-69790000D01*
X127956000Y-72390000D02*
X130616000Y-72390000D01*
X130616000Y-72390000D02*
X130616000Y-80070000D01*
X127956000Y-72390000D02*
X127956000Y-80070000D01*
X127956000Y-80070000D02*
X130616000Y-80070000D01*
%TO.C,U1*%
X123856000Y-72538000D02*
X121406000Y-72538000D01*
X122056000Y-75758000D02*
X123856000Y-75758000D01*
%TO.C,R3*%
X119914936Y-77951000D02*
X120369064Y-77951000D01*
X119914936Y-76481000D02*
X120369064Y-76481000D01*
%TO.C,C14*%
X126719000Y-73921252D02*
X126719000Y-73398748D01*
X125249000Y-73921252D02*
X125249000Y-73398748D01*
%TO.C,C13*%
X118645000Y-73906748D02*
X118645000Y-74429252D01*
X120115000Y-73906748D02*
X120115000Y-74429252D01*
%TO.C,J3*%
X133410000Y-83626000D02*
X133410000Y-80966000D01*
X120650000Y-83626000D02*
X133410000Y-83626000D01*
X120650000Y-80966000D02*
X133410000Y-80966000D01*
X120650000Y-83626000D02*
X120650000Y-80966000D01*
X119380000Y-83626000D02*
X118050000Y-83626000D01*
X118050000Y-83626000D02*
X118050000Y-82296000D01*
%TO.C,U2*%
X132042000Y-43770000D02*
X132442000Y-43770000D01*
X132242000Y-43370000D02*
X132042000Y-43770000D01*
X132442000Y-43770000D02*
X132242000Y-43370000D01*
X117667000Y-41180000D02*
X117667000Y-40580000D01*
X117777000Y-41180000D02*
X117667000Y-41180000D01*
X135317000Y-41180000D02*
X135317000Y-40580000D01*
X135207000Y-41180000D02*
X135317000Y-41180000D01*
%TO.C,L1*%
X127921936Y-67654000D02*
X129126064Y-67654000D01*
X127921936Y-64934000D02*
X129126064Y-64934000D01*
%TO.C,Q1*%
X117774000Y-61618000D02*
X116364000Y-61618000D01*
X116364000Y-63938000D02*
X118394000Y-63938000D01*
X116364000Y-63938000D02*
X116364000Y-63278000D01*
X116364000Y-62278000D02*
X116364000Y-61618000D01*
%TO.C,R2*%
X122963000Y-64582936D02*
X122963000Y-65037064D01*
X124433000Y-64582936D02*
X124433000Y-65037064D01*
%TO.C,R1*%
X120931000Y-64582936D02*
X120931000Y-65037064D01*
X122401000Y-64582936D02*
X122401000Y-65037064D01*
%TO.C,D1*%
X134604000Y-63576000D02*
X134604000Y-67476000D01*
X132604000Y-63576000D02*
X132604000Y-67476000D01*
X134604000Y-63576000D02*
X132604000Y-63576000D01*
%TO.C,D2*%
X135144000Y-68076000D02*
X135144000Y-64176000D01*
X137144000Y-68076000D02*
X137144000Y-64176000D01*
X135144000Y-68076000D02*
X137144000Y-68076000D01*
%TO.C,D3*%
X124678000Y-71398000D02*
X120778000Y-71398000D01*
X124678000Y-69398000D02*
X120778000Y-69398000D01*
X124678000Y-71398000D02*
X124678000Y-69398000D01*
%TO.C,C12*%
X117375000Y-67088748D02*
X117375000Y-67611252D01*
X118845000Y-67088748D02*
X118845000Y-67611252D01*
%TO.C,C9*%
X121893000Y-52879252D02*
X121893000Y-52356748D01*
X120423000Y-52879252D02*
X120423000Y-52356748D01*
%TO.C,C6*%
X126973000Y-58213252D02*
X126973000Y-57690748D01*
X125503000Y-58213252D02*
X125503000Y-57690748D01*
%TO.C,C4*%
X130529000Y-58213252D02*
X130529000Y-57690748D01*
X129059000Y-58213252D02*
X129059000Y-57690748D01*
%TO.C,C2*%
X133831000Y-58213252D02*
X133831000Y-57690748D01*
X132361000Y-58213252D02*
X132361000Y-57690748D01*
%TO.C,C10*%
X117340748Y-71387000D02*
X117863252Y-71387000D01*
X117340748Y-69917000D02*
X117863252Y-69917000D01*
%TO.C,C7*%
X120115000Y-58213252D02*
X120115000Y-57690748D01*
X118645000Y-58213252D02*
X118645000Y-57690748D01*
%TO.C,C8*%
X136371000Y-58213252D02*
X136371000Y-57690748D01*
X134901000Y-58213252D02*
X134901000Y-57690748D01*
%TO.C,C11*%
X125449000Y-52879252D02*
X125449000Y-52356748D01*
X123979000Y-52879252D02*
X123979000Y-52356748D01*
%TO.C,C5*%
X129005000Y-53133252D02*
X129005000Y-52610748D01*
X127535000Y-53133252D02*
X127535000Y-52610748D01*
%TO.C,C3*%
X132307000Y-53133252D02*
X132307000Y-52610748D01*
X130837000Y-53133252D02*
X130837000Y-52610748D01*
%TO.C,C1*%
X135609000Y-53133252D02*
X135609000Y-52610748D01*
X134139000Y-53133252D02*
X134139000Y-52610748D01*
%TO.C,D5*%
D10*
X135326380Y-77192095D02*
X134326380Y-77192095D01*
X134326380Y-76954000D01*
X134374000Y-76811142D01*
X134469238Y-76715904D01*
X134564476Y-76668285D01*
X134754952Y-76620666D01*
X134897809Y-76620666D01*
X135088285Y-76668285D01*
X135183523Y-76715904D01*
X135278761Y-76811142D01*
X135326380Y-76954000D01*
X135326380Y-77192095D01*
X134326380Y-75715904D02*
X134326380Y-76192095D01*
X134802571Y-76239714D01*
X134754952Y-76192095D01*
X134707333Y-76096857D01*
X134707333Y-75858761D01*
X134754952Y-75763523D01*
X134802571Y-75715904D01*
X134897809Y-75668285D01*
X135135904Y-75668285D01*
X135231142Y-75715904D01*
X135278761Y-75763523D01*
X135326380Y-75858761D01*
X135326380Y-76096857D01*
X135278761Y-76192095D01*
X135231142Y-76239714D01*
X136656379Y-72018285D02*
X136656379Y-72589714D01*
X136656379Y-72304000D02*
X135656379Y-72304000D01*
X135799237Y-72399238D01*
X135894475Y-72494476D01*
X135942094Y-72589714D01*
%TO.C,D4*%
X133627904Y-71572380D02*
X133627904Y-70572380D01*
X133866000Y-70572380D01*
X134008857Y-70620000D01*
X134104095Y-70715238D01*
X134151714Y-70810476D01*
X134199333Y-71000952D01*
X134199333Y-71143809D01*
X134151714Y-71334285D01*
X134104095Y-71429523D01*
X134008857Y-71524761D01*
X133866000Y-71572380D01*
X133627904Y-71572380D01*
X135056476Y-70905714D02*
X135056476Y-71572380D01*
X134818380Y-70524761D02*
X134580285Y-71239047D01*
X135199333Y-71239047D01*
%TO.C,J4*%
X128952666Y-68242380D02*
X128952666Y-68956666D01*
X128905047Y-69099523D01*
X128809809Y-69194761D01*
X128666952Y-69242380D01*
X128571714Y-69242380D01*
X129857428Y-68575714D02*
X129857428Y-69242380D01*
X129619333Y-68194761D02*
X129381238Y-68909047D01*
X130000285Y-68909047D01*
%TO.C,U1*%
X122682095Y-73620380D02*
X122682095Y-74429904D01*
X122729714Y-74525142D01*
X122777333Y-74572761D01*
X122872571Y-74620380D01*
X123063047Y-74620380D01*
X123158285Y-74572761D01*
X123205904Y-74525142D01*
X123253523Y-74429904D01*
X123253523Y-73620380D01*
X124253523Y-74620380D02*
X123682095Y-74620380D01*
X123967809Y-74620380D02*
X123967809Y-73620380D01*
X123872571Y-73763238D01*
X123777333Y-73858476D01*
X123682095Y-73906095D01*
%TO.C,R3*%
X119975333Y-79446380D02*
X119642000Y-78970190D01*
X119403904Y-79446380D02*
X119403904Y-78446380D01*
X119784857Y-78446380D01*
X119880095Y-78494000D01*
X119927714Y-78541619D01*
X119975333Y-78636857D01*
X119975333Y-78779714D01*
X119927714Y-78874952D01*
X119880095Y-78922571D01*
X119784857Y-78970190D01*
X119403904Y-78970190D01*
X120308666Y-78446380D02*
X120927714Y-78446380D01*
X120594380Y-78827333D01*
X120737238Y-78827333D01*
X120832476Y-78874952D01*
X120880095Y-78922571D01*
X120927714Y-79017809D01*
X120927714Y-79255904D01*
X120880095Y-79351142D01*
X120832476Y-79398761D01*
X120737238Y-79446380D01*
X120451523Y-79446380D01*
X120356285Y-79398761D01*
X120308666Y-79351142D01*
%TO.C,C14*%
X126341142Y-77604857D02*
X126388761Y-77652476D01*
X126436380Y-77795333D01*
X126436380Y-77890571D01*
X126388761Y-78033428D01*
X126293523Y-78128666D01*
X126198285Y-78176285D01*
X126007809Y-78223904D01*
X125864952Y-78223904D01*
X125674476Y-78176285D01*
X125579238Y-78128666D01*
X125484000Y-78033428D01*
X125436380Y-77890571D01*
X125436380Y-77795333D01*
X125484000Y-77652476D01*
X125531619Y-77604857D01*
X126436380Y-76652476D02*
X126436380Y-77223904D01*
X126436380Y-76938190D02*
X125436380Y-76938190D01*
X125579238Y-77033428D01*
X125674476Y-77128666D01*
X125722095Y-77223904D01*
X125769714Y-75795333D02*
X126436380Y-75795333D01*
X125388761Y-76033428D02*
X126103047Y-76271523D01*
X126103047Y-75652476D01*
%TO.C,C13*%
X117959142Y-74556857D02*
X118006761Y-74604476D01*
X118054380Y-74747333D01*
X118054380Y-74842571D01*
X118006761Y-74985428D01*
X117911523Y-75080666D01*
X117816285Y-75128285D01*
X117625809Y-75175904D01*
X117482952Y-75175904D01*
X117292476Y-75128285D01*
X117197238Y-75080666D01*
X117102000Y-74985428D01*
X117054380Y-74842571D01*
X117054380Y-74747333D01*
X117102000Y-74604476D01*
X117149619Y-74556857D01*
X118054380Y-73604476D02*
X118054380Y-74175904D01*
X118054380Y-73890190D02*
X117054380Y-73890190D01*
X117197238Y-73985428D01*
X117292476Y-74080666D01*
X117340095Y-74175904D01*
X117054380Y-73271142D02*
X117054380Y-72652095D01*
X117435333Y-72985428D01*
X117435333Y-72842571D01*
X117482952Y-72747333D01*
X117530571Y-72699714D01*
X117625809Y-72652095D01*
X117863904Y-72652095D01*
X117959142Y-72699714D01*
X118006761Y-72747333D01*
X118054380Y-72842571D01*
X118054380Y-73128285D01*
X118006761Y-73223523D01*
X117959142Y-73271142D01*
%TO.C,J3*%
X116502380Y-82629333D02*
X117216666Y-82629333D01*
X117359523Y-82676952D01*
X117454761Y-82772190D01*
X117502380Y-82915047D01*
X117502380Y-83010285D01*
X116502380Y-82248380D02*
X116502380Y-81629333D01*
X116883333Y-81962666D01*
X116883333Y-81819809D01*
X116930952Y-81724571D01*
X116978571Y-81676952D01*
X117073809Y-81629333D01*
X117311904Y-81629333D01*
X117407142Y-81676952D01*
X117454761Y-81724571D01*
X117502380Y-81819809D01*
X117502380Y-82105523D01*
X117454761Y-82200761D01*
X117407142Y-82248380D01*
%TO.C,U2*%
X125476095Y-42124380D02*
X125476095Y-42933904D01*
X125523714Y-43029142D01*
X125571333Y-43076761D01*
X125666571Y-43124380D01*
X125857047Y-43124380D01*
X125952285Y-43076761D01*
X125999904Y-43029142D01*
X126047523Y-42933904D01*
X126047523Y-42124380D01*
X126476095Y-42219619D02*
X126523714Y-42172000D01*
X126618952Y-42124380D01*
X126857047Y-42124380D01*
X126952285Y-42172000D01*
X126999904Y-42219619D01*
X127047523Y-42314857D01*
X127047523Y-42410095D01*
X126999904Y-42552952D01*
X126428476Y-43124380D01*
X127047523Y-43124380D01*
%TO.C,L1*%
X128357333Y-64466380D02*
X127881142Y-64466380D01*
X127881142Y-63466380D01*
X129214476Y-64466380D02*
X128643047Y-64466380D01*
X128928761Y-64466380D02*
X128928761Y-63466380D01*
X128833523Y-63609238D01*
X128738285Y-63704476D01*
X128643047Y-63752095D01*
%TO.C,Q1*%
X117048761Y-65275619D02*
X116953523Y-65228000D01*
X116858285Y-65132761D01*
X116715428Y-64989904D01*
X116620190Y-64942285D01*
X116524952Y-64942285D01*
X116572571Y-65180380D02*
X116477333Y-65132761D01*
X116382095Y-65037523D01*
X116334476Y-64847047D01*
X116334476Y-64513714D01*
X116382095Y-64323238D01*
X116477333Y-64228000D01*
X116572571Y-64180380D01*
X116763047Y-64180380D01*
X116858285Y-64228000D01*
X116953523Y-64323238D01*
X117001142Y-64513714D01*
X117001142Y-64847047D01*
X116953523Y-65037523D01*
X116858285Y-65132761D01*
X116763047Y-65180380D01*
X116572571Y-65180380D01*
X117953523Y-65180380D02*
X117382095Y-65180380D01*
X117667809Y-65180380D02*
X117667809Y-64180380D01*
X117572571Y-64323238D01*
X117477333Y-64418476D01*
X117382095Y-64466095D01*
%TO.C,R2*%
X125800380Y-65190666D02*
X125324190Y-65524000D01*
X125800380Y-65762095D02*
X124800380Y-65762095D01*
X124800380Y-65381142D01*
X124848000Y-65285904D01*
X124895619Y-65238285D01*
X124990857Y-65190666D01*
X125133714Y-65190666D01*
X125228952Y-65238285D01*
X125276571Y-65285904D01*
X125324190Y-65381142D01*
X125324190Y-65762095D01*
X124895619Y-64809714D02*
X124848000Y-64762095D01*
X124800380Y-64666857D01*
X124800380Y-64428761D01*
X124848000Y-64333523D01*
X124895619Y-64285904D01*
X124990857Y-64238285D01*
X125086095Y-64238285D01*
X125228952Y-64285904D01*
X125800380Y-64857333D01*
X125800380Y-64238285D01*
%TO.C,R1*%
X120340380Y-65190666D02*
X119864190Y-65524000D01*
X120340380Y-65762095D02*
X119340380Y-65762095D01*
X119340380Y-65381142D01*
X119388000Y-65285904D01*
X119435619Y-65238285D01*
X119530857Y-65190666D01*
X119673714Y-65190666D01*
X119768952Y-65238285D01*
X119816571Y-65285904D01*
X119864190Y-65381142D01*
X119864190Y-65762095D01*
X120340380Y-64238285D02*
X120340380Y-64809714D01*
X120340380Y-64524000D02*
X119340380Y-64524000D01*
X119483238Y-64619238D01*
X119578476Y-64714476D01*
X119626095Y-64809714D01*
%TO.C,D1*%
X134056380Y-66524095D02*
X133056380Y-66524095D01*
X133056380Y-66286000D01*
X133104000Y-66143142D01*
X133199238Y-66047904D01*
X133294476Y-66000285D01*
X133484952Y-65952666D01*
X133627809Y-65952666D01*
X133818285Y-66000285D01*
X133913523Y-66047904D01*
X134008761Y-66143142D01*
X134056380Y-66286000D01*
X134056380Y-66524095D01*
X134056380Y-65000285D02*
X134056380Y-65571714D01*
X134056380Y-65286000D02*
X133056380Y-65286000D01*
X133199238Y-65381238D01*
X133294476Y-65476476D01*
X133342095Y-65571714D01*
%TO.C,D2*%
X136596380Y-66524095D02*
X135596380Y-66524095D01*
X135596380Y-66286000D01*
X135644000Y-66143142D01*
X135739238Y-66047904D01*
X135834476Y-66000285D01*
X136024952Y-65952666D01*
X136167809Y-65952666D01*
X136358285Y-66000285D01*
X136453523Y-66047904D01*
X136548761Y-66143142D01*
X136596380Y-66286000D01*
X136596380Y-66524095D01*
X135691619Y-65571714D02*
X135644000Y-65524095D01*
X135596380Y-65428857D01*
X135596380Y-65190761D01*
X135644000Y-65095523D01*
X135691619Y-65047904D01*
X135786857Y-65000285D01*
X135882095Y-65000285D01*
X136024952Y-65047904D01*
X136596380Y-65619333D01*
X136596380Y-65000285D01*
%TO.C,D3*%
X121689904Y-68818380D02*
X121689904Y-67818380D01*
X121928000Y-67818380D01*
X122070857Y-67866000D01*
X122166095Y-67961238D01*
X122213714Y-68056476D01*
X122261333Y-68246952D01*
X122261333Y-68389809D01*
X122213714Y-68580285D01*
X122166095Y-68675523D01*
X122070857Y-68770761D01*
X121928000Y-68818380D01*
X121689904Y-68818380D01*
X122594666Y-67818380D02*
X123213714Y-67818380D01*
X122880380Y-68199333D01*
X123023238Y-68199333D01*
X123118476Y-68246952D01*
X123166095Y-68294571D01*
X123213714Y-68389809D01*
X123213714Y-68627904D01*
X123166095Y-68723142D01*
X123118476Y-68770761D01*
X123023238Y-68818380D01*
X122737523Y-68818380D01*
X122642285Y-68770761D01*
X122594666Y-68723142D01*
%TO.C,C12*%
X115673142Y-67738857D02*
X115720761Y-67786476D01*
X115768380Y-67929333D01*
X115768380Y-68024571D01*
X115720761Y-68167428D01*
X115625523Y-68262666D01*
X115530285Y-68310285D01*
X115339809Y-68357904D01*
X115196952Y-68357904D01*
X115006476Y-68310285D01*
X114911238Y-68262666D01*
X114816000Y-68167428D01*
X114768380Y-68024571D01*
X114768380Y-67929333D01*
X114816000Y-67786476D01*
X114863619Y-67738857D01*
X115768380Y-66786476D02*
X115768380Y-67357904D01*
X115768380Y-67072190D02*
X114768380Y-67072190D01*
X114911238Y-67167428D01*
X115006476Y-67262666D01*
X115054095Y-67357904D01*
X114863619Y-66405523D02*
X114816000Y-66357904D01*
X114768380Y-66262666D01*
X114768380Y-66024571D01*
X114816000Y-65929333D01*
X114863619Y-65881714D01*
X114958857Y-65834095D01*
X115054095Y-65834095D01*
X115196952Y-65881714D01*
X115768380Y-66453142D01*
X115768380Y-65834095D01*
%TO.C,C9*%
X121515142Y-55832666D02*
X121562761Y-55880285D01*
X121610380Y-56023142D01*
X121610380Y-56118380D01*
X121562761Y-56261238D01*
X121467523Y-56356476D01*
X121372285Y-56404095D01*
X121181809Y-56451714D01*
X121038952Y-56451714D01*
X120848476Y-56404095D01*
X120753238Y-56356476D01*
X120658000Y-56261238D01*
X120610380Y-56118380D01*
X120610380Y-56023142D01*
X120658000Y-55880285D01*
X120705619Y-55832666D01*
X121610380Y-55356476D02*
X121610380Y-55166000D01*
X121562761Y-55070761D01*
X121515142Y-55023142D01*
X121372285Y-54927904D01*
X121181809Y-54880285D01*
X120800857Y-54880285D01*
X120705619Y-54927904D01*
X120658000Y-54975523D01*
X120610380Y-55070761D01*
X120610380Y-55261238D01*
X120658000Y-55356476D01*
X120705619Y-55404095D01*
X120800857Y-55451714D01*
X121038952Y-55451714D01*
X121134190Y-55404095D01*
X121181809Y-55356476D01*
X121229428Y-55261238D01*
X121229428Y-55070761D01*
X121181809Y-54975523D01*
X121134190Y-54927904D01*
X121038952Y-54880285D01*
%TO.C,C6*%
X126595142Y-60912666D02*
X126642761Y-60960285D01*
X126690380Y-61103142D01*
X126690380Y-61198380D01*
X126642761Y-61341238D01*
X126547523Y-61436476D01*
X126452285Y-61484095D01*
X126261809Y-61531714D01*
X126118952Y-61531714D01*
X125928476Y-61484095D01*
X125833238Y-61436476D01*
X125738000Y-61341238D01*
X125690380Y-61198380D01*
X125690380Y-61103142D01*
X125738000Y-60960285D01*
X125785619Y-60912666D01*
X125690380Y-60055523D02*
X125690380Y-60246000D01*
X125738000Y-60341238D01*
X125785619Y-60388857D01*
X125928476Y-60484095D01*
X126118952Y-60531714D01*
X126499904Y-60531714D01*
X126595142Y-60484095D01*
X126642761Y-60436476D01*
X126690380Y-60341238D01*
X126690380Y-60150761D01*
X126642761Y-60055523D01*
X126595142Y-60007904D01*
X126499904Y-59960285D01*
X126261809Y-59960285D01*
X126166571Y-60007904D01*
X126118952Y-60055523D01*
X126071333Y-60150761D01*
X126071333Y-60341238D01*
X126118952Y-60436476D01*
X126166571Y-60484095D01*
X126261809Y-60531714D01*
%TO.C,C4*%
X130151142Y-60912666D02*
X130198761Y-60960285D01*
X130246380Y-61103142D01*
X130246380Y-61198380D01*
X130198761Y-61341238D01*
X130103523Y-61436476D01*
X130008285Y-61484095D01*
X129817809Y-61531714D01*
X129674952Y-61531714D01*
X129484476Y-61484095D01*
X129389238Y-61436476D01*
X129294000Y-61341238D01*
X129246380Y-61198380D01*
X129246380Y-61103142D01*
X129294000Y-60960285D01*
X129341619Y-60912666D01*
X129579714Y-60055523D02*
X130246380Y-60055523D01*
X129198761Y-60293619D02*
X129913047Y-60531714D01*
X129913047Y-59912666D01*
%TO.C,C2*%
X133453142Y-60912666D02*
X133500761Y-60960285D01*
X133548380Y-61103142D01*
X133548380Y-61198380D01*
X133500761Y-61341238D01*
X133405523Y-61436476D01*
X133310285Y-61484095D01*
X133119809Y-61531714D01*
X132976952Y-61531714D01*
X132786476Y-61484095D01*
X132691238Y-61436476D01*
X132596000Y-61341238D01*
X132548380Y-61198380D01*
X132548380Y-61103142D01*
X132596000Y-60960285D01*
X132643619Y-60912666D01*
X132643619Y-60531714D02*
X132596000Y-60484095D01*
X132548380Y-60388857D01*
X132548380Y-60150761D01*
X132596000Y-60055523D01*
X132643619Y-60007904D01*
X132738857Y-59960285D01*
X132834095Y-59960285D01*
X132976952Y-60007904D01*
X133548380Y-60579333D01*
X133548380Y-59960285D01*
%TO.C,C10*%
X114958857Y-69755142D02*
X114911238Y-69707523D01*
X114863619Y-69564666D01*
X114863619Y-69469428D01*
X114911238Y-69326571D01*
X115006476Y-69231333D01*
X115101714Y-69183714D01*
X115292190Y-69136095D01*
X115435047Y-69136095D01*
X115625523Y-69183714D01*
X115720761Y-69231333D01*
X115816000Y-69326571D01*
X115863619Y-69469428D01*
X115863619Y-69564666D01*
X115816000Y-69707523D01*
X115768380Y-69755142D01*
X114863619Y-70707523D02*
X114863619Y-70136095D01*
X114863619Y-70421809D02*
X115863619Y-70421809D01*
X115720761Y-70326571D01*
X115625523Y-70231333D01*
X115577904Y-70136095D01*
X115863619Y-71326571D02*
X115863619Y-71421809D01*
X115816000Y-71517047D01*
X115768380Y-71564666D01*
X115673142Y-71612285D01*
X115482666Y-71659904D01*
X115244571Y-71659904D01*
X115054095Y-71612285D01*
X114958857Y-71564666D01*
X114911238Y-71517047D01*
X114863619Y-71421809D01*
X114863619Y-71326571D01*
X114911238Y-71231333D01*
X114958857Y-71183714D01*
X115054095Y-71136095D01*
X115244571Y-71088476D01*
X115482666Y-71088476D01*
X115673142Y-71136095D01*
X115768380Y-71183714D01*
X115816000Y-71231333D01*
X115863619Y-71326571D01*
%TO.C,C7*%
X119991142Y-60912666D02*
X120038761Y-60960285D01*
X120086380Y-61103142D01*
X120086380Y-61198380D01*
X120038761Y-61341238D01*
X119943523Y-61436476D01*
X119848285Y-61484095D01*
X119657809Y-61531714D01*
X119514952Y-61531714D01*
X119324476Y-61484095D01*
X119229238Y-61436476D01*
X119134000Y-61341238D01*
X119086380Y-61198380D01*
X119086380Y-61103142D01*
X119134000Y-60960285D01*
X119181619Y-60912666D01*
X119086380Y-60579333D02*
X119086380Y-59912666D01*
X120086380Y-60341238D01*
%TO.C,C8*%
X135993142Y-61166666D02*
X136040761Y-61214285D01*
X136088380Y-61357142D01*
X136088380Y-61452380D01*
X136040761Y-61595238D01*
X135945523Y-61690476D01*
X135850285Y-61738095D01*
X135659809Y-61785714D01*
X135516952Y-61785714D01*
X135326476Y-61738095D01*
X135231238Y-61690476D01*
X135136000Y-61595238D01*
X135088380Y-61452380D01*
X135088380Y-61357142D01*
X135136000Y-61214285D01*
X135183619Y-61166666D01*
X135516952Y-60595238D02*
X135469333Y-60690476D01*
X135421714Y-60738095D01*
X135326476Y-60785714D01*
X135278857Y-60785714D01*
X135183619Y-60738095D01*
X135136000Y-60690476D01*
X135088380Y-60595238D01*
X135088380Y-60404761D01*
X135136000Y-60309523D01*
X135183619Y-60261904D01*
X135278857Y-60214285D01*
X135326476Y-60214285D01*
X135421714Y-60261904D01*
X135469333Y-60309523D01*
X135516952Y-60404761D01*
X135516952Y-60595238D01*
X135564571Y-60690476D01*
X135612190Y-60738095D01*
X135707428Y-60785714D01*
X135897904Y-60785714D01*
X135993142Y-60738095D01*
X136040761Y-60690476D01*
X136088380Y-60595238D01*
X136088380Y-60404761D01*
X136040761Y-60309523D01*
X135993142Y-60261904D01*
X135897904Y-60214285D01*
X135707428Y-60214285D01*
X135612190Y-60261904D01*
X135564571Y-60309523D01*
X135516952Y-60404761D01*
%TO.C,C11*%
X125071142Y-56562857D02*
X125118761Y-56610476D01*
X125166380Y-56753333D01*
X125166380Y-56848571D01*
X125118761Y-56991428D01*
X125023523Y-57086666D01*
X124928285Y-57134285D01*
X124737809Y-57181904D01*
X124594952Y-57181904D01*
X124404476Y-57134285D01*
X124309238Y-57086666D01*
X124214000Y-56991428D01*
X124166380Y-56848571D01*
X124166380Y-56753333D01*
X124214000Y-56610476D01*
X124261619Y-56562857D01*
X125166380Y-55610476D02*
X125166380Y-56181904D01*
X125166380Y-55896190D02*
X124166380Y-55896190D01*
X124309238Y-55991428D01*
X124404476Y-56086666D01*
X124452095Y-56181904D01*
X125166380Y-54658095D02*
X125166380Y-55229523D01*
X125166380Y-54943809D02*
X124166380Y-54943809D01*
X124309238Y-55039047D01*
X124404476Y-55134285D01*
X124452095Y-55229523D01*
%TO.C,C5*%
X128627142Y-56086666D02*
X128674761Y-56134285D01*
X128722380Y-56277142D01*
X128722380Y-56372380D01*
X128674761Y-56515238D01*
X128579523Y-56610476D01*
X128484285Y-56658095D01*
X128293809Y-56705714D01*
X128150952Y-56705714D01*
X127960476Y-56658095D01*
X127865238Y-56610476D01*
X127770000Y-56515238D01*
X127722380Y-56372380D01*
X127722380Y-56277142D01*
X127770000Y-56134285D01*
X127817619Y-56086666D01*
X127722380Y-55181904D02*
X127722380Y-55658095D01*
X128198571Y-55705714D01*
X128150952Y-55658095D01*
X128103333Y-55562857D01*
X128103333Y-55324761D01*
X128150952Y-55229523D01*
X128198571Y-55181904D01*
X128293809Y-55134285D01*
X128531904Y-55134285D01*
X128627142Y-55181904D01*
X128674761Y-55229523D01*
X128722380Y-55324761D01*
X128722380Y-55562857D01*
X128674761Y-55658095D01*
X128627142Y-55705714D01*
%TO.C,C3*%
X131929142Y-55832666D02*
X131976761Y-55880285D01*
X132024380Y-56023142D01*
X132024380Y-56118380D01*
X131976761Y-56261238D01*
X131881523Y-56356476D01*
X131786285Y-56404095D01*
X131595809Y-56451714D01*
X131452952Y-56451714D01*
X131262476Y-56404095D01*
X131167238Y-56356476D01*
X131072000Y-56261238D01*
X131024380Y-56118380D01*
X131024380Y-56023142D01*
X131072000Y-55880285D01*
X131119619Y-55832666D01*
X131024380Y-55499333D02*
X131024380Y-54880285D01*
X131405333Y-55213619D01*
X131405333Y-55070761D01*
X131452952Y-54975523D01*
X131500571Y-54927904D01*
X131595809Y-54880285D01*
X131833904Y-54880285D01*
X131929142Y-54927904D01*
X131976761Y-54975523D01*
X132024380Y-55070761D01*
X132024380Y-55356476D01*
X131976761Y-55451714D01*
X131929142Y-55499333D01*
%TO.C,C1*%
X135231142Y-55538666D02*
X135278761Y-55586285D01*
X135326380Y-55729142D01*
X135326380Y-55824380D01*
X135278761Y-55967238D01*
X135183523Y-56062476D01*
X135088285Y-56110095D01*
X134897809Y-56157714D01*
X134754952Y-56157714D01*
X134564476Y-56110095D01*
X134469238Y-56062476D01*
X134374000Y-55967238D01*
X134326380Y-55824380D01*
X134326380Y-55729142D01*
X134374000Y-55586285D01*
X134421619Y-55538666D01*
X135326380Y-54586285D02*
X135326380Y-55157714D01*
X135326380Y-54872000D02*
X134326380Y-54872000D01*
X134469238Y-54967238D01*
X134564476Y-55062476D01*
X134612095Y-55157714D01*
%TD*%
M02*
