%TF.GenerationSoftware,KiCad,Pcbnew,(5.1.10)-1*%
%TF.CreationDate,2021-11-28T18:03:10+01:00*%
%TF.ProjectId,M5StampC3,4d355374-616d-4704-9333-2e6b69636164,rev?*%
%TF.SameCoordinates,Original*%
%TF.FileFunction,Other,Fab,Bot*%
%FSLAX46Y46*%
G04 Gerber Fmt 4.6, Leading zero omitted, Abs format (unit mm)*
G04 Created by KiCad (PCBNEW (5.1.10)-1) date 2021-11-28 18:03:10*
%MOMM*%
%LPD*%
G01*
G04 APERTURE LIST*
%ADD10C,0.100000*%
%ADD11C,0.150000*%
G04 APERTURE END LIST*
D10*
%TO.C,J2*%
X131750000Y-78552000D02*
X133020000Y-78552000D01*
X131750000Y-77912000D02*
X131750000Y-78552000D01*
X133020000Y-77912000D02*
X131750000Y-77912000D01*
X131750000Y-73472000D02*
X133020000Y-73472000D01*
X131750000Y-72832000D02*
X131750000Y-73472000D01*
X133020000Y-72832000D02*
X131750000Y-72832000D01*
X131750000Y-68392000D02*
X133020000Y-68392000D01*
X131750000Y-67752000D02*
X131750000Y-68392000D01*
X133020000Y-67752000D02*
X131750000Y-67752000D01*
X131750000Y-63312000D02*
X133020000Y-63312000D01*
X131750000Y-62672000D02*
X131750000Y-63312000D01*
X133020000Y-62672000D02*
X131750000Y-62672000D01*
X131750000Y-58232000D02*
X133020000Y-58232000D01*
X131750000Y-57592000D02*
X131750000Y-58232000D01*
X133020000Y-57592000D02*
X131750000Y-57592000D01*
X136830000Y-76012000D02*
X135560000Y-76012000D01*
X136830000Y-75372000D02*
X136830000Y-76012000D01*
X135560000Y-75372000D02*
X136830000Y-75372000D01*
X136830000Y-70932000D02*
X135560000Y-70932000D01*
X136830000Y-70292000D02*
X136830000Y-70932000D01*
X135560000Y-70292000D02*
X136830000Y-70292000D01*
X136830000Y-65852000D02*
X135560000Y-65852000D01*
X136830000Y-65212000D02*
X136830000Y-65852000D01*
X135560000Y-65212000D02*
X136830000Y-65212000D01*
X136830000Y-60772000D02*
X135560000Y-60772000D01*
X136830000Y-60132000D02*
X136830000Y-60772000D01*
X135560000Y-60132000D02*
X136830000Y-60132000D01*
X136830000Y-55692000D02*
X135560000Y-55692000D01*
X136830000Y-55052000D02*
X136830000Y-55692000D01*
X135560000Y-55052000D02*
X136830000Y-55052000D01*
X133020000Y-54102000D02*
X133020000Y-79502000D01*
X135560000Y-55052000D02*
X134610000Y-54102000D01*
X135560000Y-79502000D02*
X135560000Y-55052000D01*
X134610000Y-54102000D02*
X133020000Y-54102000D01*
X133020000Y-79502000D02*
X135560000Y-79502000D01*
%TO.C,J1*%
X113970000Y-78548000D02*
X115240000Y-78548000D01*
X113970000Y-77908000D02*
X113970000Y-78548000D01*
X115240000Y-77908000D02*
X113970000Y-77908000D01*
X113970000Y-73468000D02*
X115240000Y-73468000D01*
X113970000Y-72828000D02*
X113970000Y-73468000D01*
X115240000Y-72828000D02*
X113970000Y-72828000D01*
X113970000Y-68388000D02*
X115240000Y-68388000D01*
X113970000Y-67748000D02*
X113970000Y-68388000D01*
X115240000Y-67748000D02*
X113970000Y-67748000D01*
X113970000Y-63308000D02*
X115240000Y-63308000D01*
X113970000Y-62668000D02*
X113970000Y-63308000D01*
X115240000Y-62668000D02*
X113970000Y-62668000D01*
X113970000Y-58228000D02*
X115240000Y-58228000D01*
X113970000Y-57588000D02*
X113970000Y-58228000D01*
X115240000Y-57588000D02*
X113970000Y-57588000D01*
X113970000Y-53148000D02*
X115240000Y-53148000D01*
X113970000Y-52508000D02*
X113970000Y-53148000D01*
X115240000Y-52508000D02*
X113970000Y-52508000D01*
X119050000Y-76008000D02*
X117780000Y-76008000D01*
X119050000Y-75368000D02*
X119050000Y-76008000D01*
X117780000Y-75368000D02*
X119050000Y-75368000D01*
X119050000Y-70928000D02*
X117780000Y-70928000D01*
X119050000Y-70288000D02*
X119050000Y-70928000D01*
X117780000Y-70288000D02*
X119050000Y-70288000D01*
X119050000Y-65848000D02*
X117780000Y-65848000D01*
X119050000Y-65208000D02*
X119050000Y-65848000D01*
X117780000Y-65208000D02*
X119050000Y-65208000D01*
X119050000Y-60768000D02*
X117780000Y-60768000D01*
X119050000Y-60128000D02*
X119050000Y-60768000D01*
X117780000Y-60128000D02*
X119050000Y-60128000D01*
X119050000Y-55688000D02*
X117780000Y-55688000D01*
X119050000Y-55048000D02*
X119050000Y-55688000D01*
X117780000Y-55048000D02*
X119050000Y-55048000D01*
X119050000Y-50608000D02*
X117780000Y-50608000D01*
X119050000Y-49968000D02*
X119050000Y-50608000D01*
X117780000Y-49968000D02*
X119050000Y-49968000D01*
X115240000Y-49018000D02*
X115240000Y-79498000D01*
X117780000Y-49968000D02*
X116830000Y-49018000D01*
X117780000Y-79498000D02*
X117780000Y-49968000D01*
X116830000Y-49018000D02*
X115240000Y-49018000D01*
X115240000Y-79498000D02*
X117780000Y-79498000D01*
%TD*%
%TO.C,J2*%
D11*
X140123333Y-80919142D02*
X140170952Y-80966761D01*
X140313809Y-81014380D01*
X140409047Y-81014380D01*
X140551904Y-80966761D01*
X140647142Y-80871523D01*
X140694761Y-80776285D01*
X140742380Y-80585809D01*
X140742380Y-80442952D01*
X140694761Y-80252476D01*
X140647142Y-80157238D01*
X140551904Y-80062000D01*
X140409047Y-80014380D01*
X140313809Y-80014380D01*
X140170952Y-80062000D01*
X140123333Y-80109619D01*
X139551904Y-81014380D02*
X139647142Y-80966761D01*
X139694761Y-80919142D01*
X139742380Y-80823904D01*
X139742380Y-80538190D01*
X139694761Y-80442952D01*
X139647142Y-80395333D01*
X139551904Y-80347714D01*
X139409047Y-80347714D01*
X139313809Y-80395333D01*
X139266190Y-80442952D01*
X139218571Y-80538190D01*
X139218571Y-80823904D01*
X139266190Y-80919142D01*
X139313809Y-80966761D01*
X139409047Y-81014380D01*
X139551904Y-81014380D01*
X138790000Y-80347714D02*
X138790000Y-81014380D01*
X138790000Y-80442952D02*
X138742380Y-80395333D01*
X138647142Y-80347714D01*
X138504285Y-80347714D01*
X138409047Y-80395333D01*
X138361428Y-80490571D01*
X138361428Y-81014380D01*
X137885238Y-80347714D02*
X137885238Y-81014380D01*
X137885238Y-80442952D02*
X137837619Y-80395333D01*
X137742380Y-80347714D01*
X137599523Y-80347714D01*
X137504285Y-80395333D01*
X137456666Y-80490571D01*
X137456666Y-81014380D01*
X137218571Y-81109619D02*
X136456666Y-81109619D01*
X136028095Y-80014380D02*
X135932857Y-80014380D01*
X135837619Y-80062000D01*
X135790000Y-80109619D01*
X135742380Y-80204857D01*
X135694761Y-80395333D01*
X135694761Y-80633428D01*
X135742380Y-80823904D01*
X135790000Y-80919142D01*
X135837619Y-80966761D01*
X135932857Y-81014380D01*
X136028095Y-81014380D01*
X136123333Y-80966761D01*
X136170952Y-80919142D01*
X136218571Y-80823904D01*
X136266190Y-80633428D01*
X136266190Y-80395333D01*
X136218571Y-80204857D01*
X136170952Y-80109619D01*
X136123333Y-80062000D01*
X136028095Y-80014380D01*
X134742380Y-81014380D02*
X135313809Y-81014380D01*
X135028095Y-81014380D02*
X135028095Y-80014380D01*
X135123333Y-80157238D01*
X135218571Y-80252476D01*
X135313809Y-80300095D01*
X134409047Y-81014380D02*
X133885238Y-80347714D01*
X134409047Y-80347714D02*
X133885238Y-81014380D01*
X132980476Y-81014380D02*
X133551904Y-81014380D01*
X133266190Y-81014380D02*
X133266190Y-80014380D01*
X133361428Y-80157238D01*
X133456666Y-80252476D01*
X133551904Y-80300095D01*
X132361428Y-80014380D02*
X132266190Y-80014380D01*
X132170952Y-80062000D01*
X132123333Y-80109619D01*
X132075714Y-80204857D01*
X132028095Y-80395333D01*
X132028095Y-80633428D01*
X132075714Y-80823904D01*
X132123333Y-80919142D01*
X132170952Y-80966761D01*
X132266190Y-81014380D01*
X132361428Y-81014380D01*
X132456666Y-80966761D01*
X132504285Y-80919142D01*
X132551904Y-80823904D01*
X132599523Y-80633428D01*
X132599523Y-80395333D01*
X132551904Y-80204857D01*
X132504285Y-80109619D01*
X132456666Y-80062000D01*
X132361428Y-80014380D01*
X131837619Y-81109619D02*
X131075714Y-81109619D01*
X130837619Y-81014380D02*
X130837619Y-80014380D01*
X130504285Y-80728666D01*
X130170952Y-80014380D01*
X130170952Y-81014380D01*
X129266190Y-81014380D02*
X129266190Y-80490571D01*
X129313809Y-80395333D01*
X129409047Y-80347714D01*
X129599523Y-80347714D01*
X129694761Y-80395333D01*
X129266190Y-80966761D02*
X129361428Y-81014380D01*
X129599523Y-81014380D01*
X129694761Y-80966761D01*
X129742380Y-80871523D01*
X129742380Y-80776285D01*
X129694761Y-80681047D01*
X129599523Y-80633428D01*
X129361428Y-80633428D01*
X129266190Y-80585809D01*
X128647142Y-81014380D02*
X128742380Y-80966761D01*
X128790000Y-80871523D01*
X128790000Y-80014380D01*
X127885238Y-80966761D02*
X127980476Y-81014380D01*
X128170952Y-81014380D01*
X128266190Y-80966761D01*
X128313809Y-80871523D01*
X128313809Y-80490571D01*
X128266190Y-80395333D01*
X128170952Y-80347714D01*
X127980476Y-80347714D01*
X127885238Y-80395333D01*
X127837619Y-80490571D01*
X127837619Y-80585809D01*
X128313809Y-80681047D01*
X133742380Y-66468666D02*
X134456666Y-66468666D01*
X134599523Y-66421047D01*
X134694761Y-66325809D01*
X134742380Y-66182952D01*
X134742380Y-66087714D01*
X133837619Y-66897238D02*
X133790000Y-66944857D01*
X133742380Y-67040095D01*
X133742380Y-67278190D01*
X133790000Y-67373428D01*
X133837619Y-67421047D01*
X133932857Y-67468666D01*
X134028095Y-67468666D01*
X134170952Y-67421047D01*
X134742380Y-66849619D01*
X134742380Y-67468666D01*
%TO.C,J1*%
X122343333Y-80915142D02*
X122390952Y-80962761D01*
X122533809Y-81010380D01*
X122629047Y-81010380D01*
X122771904Y-80962761D01*
X122867142Y-80867523D01*
X122914761Y-80772285D01*
X122962380Y-80581809D01*
X122962380Y-80438952D01*
X122914761Y-80248476D01*
X122867142Y-80153238D01*
X122771904Y-80058000D01*
X122629047Y-80010380D01*
X122533809Y-80010380D01*
X122390952Y-80058000D01*
X122343333Y-80105619D01*
X121771904Y-81010380D02*
X121867142Y-80962761D01*
X121914761Y-80915142D01*
X121962380Y-80819904D01*
X121962380Y-80534190D01*
X121914761Y-80438952D01*
X121867142Y-80391333D01*
X121771904Y-80343714D01*
X121629047Y-80343714D01*
X121533809Y-80391333D01*
X121486190Y-80438952D01*
X121438571Y-80534190D01*
X121438571Y-80819904D01*
X121486190Y-80915142D01*
X121533809Y-80962761D01*
X121629047Y-81010380D01*
X121771904Y-81010380D01*
X121010000Y-80343714D02*
X121010000Y-81010380D01*
X121010000Y-80438952D02*
X120962380Y-80391333D01*
X120867142Y-80343714D01*
X120724285Y-80343714D01*
X120629047Y-80391333D01*
X120581428Y-80486571D01*
X120581428Y-81010380D01*
X120105238Y-80343714D02*
X120105238Y-81010380D01*
X120105238Y-80438952D02*
X120057619Y-80391333D01*
X119962380Y-80343714D01*
X119819523Y-80343714D01*
X119724285Y-80391333D01*
X119676666Y-80486571D01*
X119676666Y-81010380D01*
X119438571Y-81105619D02*
X118676666Y-81105619D01*
X118248095Y-80010380D02*
X118152857Y-80010380D01*
X118057619Y-80058000D01*
X118010000Y-80105619D01*
X117962380Y-80200857D01*
X117914761Y-80391333D01*
X117914761Y-80629428D01*
X117962380Y-80819904D01*
X118010000Y-80915142D01*
X118057619Y-80962761D01*
X118152857Y-81010380D01*
X118248095Y-81010380D01*
X118343333Y-80962761D01*
X118390952Y-80915142D01*
X118438571Y-80819904D01*
X118486190Y-80629428D01*
X118486190Y-80391333D01*
X118438571Y-80200857D01*
X118390952Y-80105619D01*
X118343333Y-80058000D01*
X118248095Y-80010380D01*
X116962380Y-81010380D02*
X117533809Y-81010380D01*
X117248095Y-81010380D02*
X117248095Y-80010380D01*
X117343333Y-80153238D01*
X117438571Y-80248476D01*
X117533809Y-80296095D01*
X116629047Y-81010380D02*
X116105238Y-80343714D01*
X116629047Y-80343714D02*
X116105238Y-81010380D01*
X115200476Y-81010380D02*
X115771904Y-81010380D01*
X115486190Y-81010380D02*
X115486190Y-80010380D01*
X115581428Y-80153238D01*
X115676666Y-80248476D01*
X115771904Y-80296095D01*
X114819523Y-80105619D02*
X114771904Y-80058000D01*
X114676666Y-80010380D01*
X114438571Y-80010380D01*
X114343333Y-80058000D01*
X114295714Y-80105619D01*
X114248095Y-80200857D01*
X114248095Y-80296095D01*
X114295714Y-80438952D01*
X114867142Y-81010380D01*
X114248095Y-81010380D01*
X114057619Y-81105619D02*
X113295714Y-81105619D01*
X113057619Y-81010380D02*
X113057619Y-80010380D01*
X112724285Y-80724666D01*
X112390952Y-80010380D01*
X112390952Y-81010380D01*
X111486190Y-81010380D02*
X111486190Y-80486571D01*
X111533809Y-80391333D01*
X111629047Y-80343714D01*
X111819523Y-80343714D01*
X111914761Y-80391333D01*
X111486190Y-80962761D02*
X111581428Y-81010380D01*
X111819523Y-81010380D01*
X111914761Y-80962761D01*
X111962380Y-80867523D01*
X111962380Y-80772285D01*
X111914761Y-80677047D01*
X111819523Y-80629428D01*
X111581428Y-80629428D01*
X111486190Y-80581809D01*
X110867142Y-81010380D02*
X110962380Y-80962761D01*
X111010000Y-80867523D01*
X111010000Y-80010380D01*
X110105238Y-80962761D02*
X110200476Y-81010380D01*
X110390952Y-81010380D01*
X110486190Y-80962761D01*
X110533809Y-80867523D01*
X110533809Y-80486571D01*
X110486190Y-80391333D01*
X110390952Y-80343714D01*
X110200476Y-80343714D01*
X110105238Y-80391333D01*
X110057619Y-80486571D01*
X110057619Y-80581809D01*
X110533809Y-80677047D01*
X115962380Y-63924666D02*
X116676666Y-63924666D01*
X116819523Y-63877047D01*
X116914761Y-63781809D01*
X116962380Y-63638952D01*
X116962380Y-63543714D01*
X116962380Y-64924666D02*
X116962380Y-64353238D01*
X116962380Y-64638952D02*
X115962380Y-64638952D01*
X116105238Y-64543714D01*
X116200476Y-64448476D01*
X116248095Y-64353238D01*
%TD*%
M02*
