%TF.GenerationSoftware,KiCad,Pcbnew,(5.1.10)-1*%
%TF.CreationDate,2021-11-28T18:03:10+01:00*%
%TF.ProjectId,M5StampC3,4d355374-616d-4704-9333-2e6b69636164,rev?*%
%TF.SameCoordinates,Original*%
%TF.FileFunction,Soldermask,Top*%
%TF.FilePolarity,Negative*%
%FSLAX46Y46*%
G04 Gerber Fmt 4.6, Leading zero omitted, Abs format (unit mm)*
G04 Created by KiCad (PCBNEW (5.1.10)-1) date 2021-11-28 18:03:10*
%MOMM*%
%LPD*%
G01*
G04 APERTURE LIST*
%ADD10R,1.000000X1.500000*%
%ADD11R,0.900000X1.200000*%
%ADD12O,1.700000X1.700000*%
%ADD13R,1.700000X1.700000*%
%ADD14R,1.060000X0.650000*%
%ADD15R,2.300000X3.100000*%
%ADD16R,0.300000X1.100000*%
%ADD17R,0.700000X0.450000*%
%ADD18R,1.200000X0.900000*%
G04 APERTURE END LIST*
D10*
%TO.C,D5*%
X136203999Y-74004000D03*
X133003999Y-74004000D03*
X136203999Y-78904000D03*
X133003999Y-78904000D03*
%TD*%
D11*
%TO.C,D4*%
X132716000Y-71120000D03*
X136016000Y-71120000D03*
%TD*%
D12*
%TO.C,J4*%
X129286000Y-78740000D03*
X129286000Y-76200000D03*
X129286000Y-73660000D03*
D13*
X129286000Y-71120000D03*
%TD*%
D14*
%TO.C,U1*%
X124056000Y-73198000D03*
X124056000Y-75098000D03*
X121856000Y-75098000D03*
X121856000Y-74148000D03*
X121856000Y-73198000D03*
%TD*%
%TO.C,R3*%
G36*
G01*
X120542000Y-77666001D02*
X120542000Y-76765999D01*
G75*
G02*
X120791999Y-76516000I249999J0D01*
G01*
X121492001Y-76516000D01*
G75*
G02*
X121742000Y-76765999I0J-249999D01*
G01*
X121742000Y-77666001D01*
G75*
G02*
X121492001Y-77916000I-249999J0D01*
G01*
X120791999Y-77916000D01*
G75*
G02*
X120542000Y-77666001I0J249999D01*
G01*
G37*
G36*
G01*
X118542000Y-77666001D02*
X118542000Y-76765999D01*
G75*
G02*
X118791999Y-76516000I249999J0D01*
G01*
X119492001Y-76516000D01*
G75*
G02*
X119742000Y-76765999I0J-249999D01*
G01*
X119742000Y-77666001D01*
G75*
G02*
X119492001Y-77916000I-249999J0D01*
G01*
X118791999Y-77916000D01*
G75*
G02*
X118542000Y-77666001I0J249999D01*
G01*
G37*
%TD*%
%TO.C,C14*%
G36*
G01*
X126459000Y-73210000D02*
X125509000Y-73210000D01*
G75*
G02*
X125259000Y-72960000I0J250000D01*
G01*
X125259000Y-72285000D01*
G75*
G02*
X125509000Y-72035000I250000J0D01*
G01*
X126459000Y-72035000D01*
G75*
G02*
X126709000Y-72285000I0J-250000D01*
G01*
X126709000Y-72960000D01*
G75*
G02*
X126459000Y-73210000I-250000J0D01*
G01*
G37*
G36*
G01*
X126459000Y-75285000D02*
X125509000Y-75285000D01*
G75*
G02*
X125259000Y-75035000I0J250000D01*
G01*
X125259000Y-74360000D01*
G75*
G02*
X125509000Y-74110000I250000J0D01*
G01*
X126459000Y-74110000D01*
G75*
G02*
X126709000Y-74360000I0J-250000D01*
G01*
X126709000Y-75035000D01*
G75*
G02*
X126459000Y-75285000I-250000J0D01*
G01*
G37*
%TD*%
%TO.C,C13*%
G36*
G01*
X118905000Y-74618000D02*
X119855000Y-74618000D01*
G75*
G02*
X120105000Y-74868000I0J-250000D01*
G01*
X120105000Y-75543000D01*
G75*
G02*
X119855000Y-75793000I-250000J0D01*
G01*
X118905000Y-75793000D01*
G75*
G02*
X118655000Y-75543000I0J250000D01*
G01*
X118655000Y-74868000D01*
G75*
G02*
X118905000Y-74618000I250000J0D01*
G01*
G37*
G36*
G01*
X118905000Y-72543000D02*
X119855000Y-72543000D01*
G75*
G02*
X120105000Y-72793000I0J-250000D01*
G01*
X120105000Y-73468000D01*
G75*
G02*
X119855000Y-73718000I-250000J0D01*
G01*
X118905000Y-73718000D01*
G75*
G02*
X118655000Y-73468000I0J250000D01*
G01*
X118655000Y-72793000D01*
G75*
G02*
X118905000Y-72543000I250000J0D01*
G01*
G37*
%TD*%
D12*
%TO.C,J3*%
X132080000Y-82296000D03*
X129540000Y-82296000D03*
X127000000Y-82296000D03*
X124460000Y-82296000D03*
X121920000Y-82296000D03*
D13*
X119380000Y-82296000D03*
%TD*%
D15*
%TO.C,U2*%
X119072000Y-42870000D03*
X133912000Y-42870000D03*
D16*
X120742000Y-44570000D03*
X121242000Y-44570000D03*
X121742000Y-44570000D03*
X122242000Y-44570000D03*
X122742000Y-44570000D03*
X123242000Y-44570000D03*
X123742000Y-44570000D03*
X124242000Y-44570000D03*
X124742000Y-44570000D03*
X125242000Y-44570000D03*
X125742000Y-44570000D03*
X126242000Y-44570000D03*
X126742000Y-44570000D03*
X127242000Y-44570000D03*
X127742000Y-44570000D03*
X128242000Y-44570000D03*
X128742000Y-44570000D03*
X129242000Y-44570000D03*
X129742000Y-44570000D03*
X130242000Y-44570000D03*
X130742000Y-44570000D03*
X131242000Y-44570000D03*
X131742000Y-44570000D03*
X132242000Y-44570000D03*
%TD*%
%TO.C,L1*%
G36*
G01*
X129299000Y-67369000D02*
X129299000Y-65219000D01*
G75*
G02*
X129549000Y-64969000I250000J0D01*
G01*
X130299000Y-64969000D01*
G75*
G02*
X130549000Y-65219000I0J-250000D01*
G01*
X130549000Y-67369000D01*
G75*
G02*
X130299000Y-67619000I-250000J0D01*
G01*
X129549000Y-67619000D01*
G75*
G02*
X129299000Y-67369000I0J250000D01*
G01*
G37*
G36*
G01*
X126499000Y-67369000D02*
X126499000Y-65219000D01*
G75*
G02*
X126749000Y-64969000I250000J0D01*
G01*
X127499000Y-64969000D01*
G75*
G02*
X127749000Y-65219000I0J-250000D01*
G01*
X127749000Y-67369000D01*
G75*
G02*
X127499000Y-67619000I-250000J0D01*
G01*
X126749000Y-67619000D01*
G75*
G02*
X126499000Y-67369000I0J250000D01*
G01*
G37*
%TD*%
D17*
%TO.C,Q1*%
X116094000Y-62778000D03*
X118094000Y-62128000D03*
X118094000Y-63428000D03*
%TD*%
%TO.C,R2*%
G36*
G01*
X123247999Y-65210000D02*
X124148001Y-65210000D01*
G75*
G02*
X124398000Y-65459999I0J-249999D01*
G01*
X124398000Y-66160001D01*
G75*
G02*
X124148001Y-66410000I-249999J0D01*
G01*
X123247999Y-66410000D01*
G75*
G02*
X122998000Y-66160001I0J249999D01*
G01*
X122998000Y-65459999D01*
G75*
G02*
X123247999Y-65210000I249999J0D01*
G01*
G37*
G36*
G01*
X123247999Y-63210000D02*
X124148001Y-63210000D01*
G75*
G02*
X124398000Y-63459999I0J-249999D01*
G01*
X124398000Y-64160001D01*
G75*
G02*
X124148001Y-64410000I-249999J0D01*
G01*
X123247999Y-64410000D01*
G75*
G02*
X122998000Y-64160001I0J249999D01*
G01*
X122998000Y-63459999D01*
G75*
G02*
X123247999Y-63210000I249999J0D01*
G01*
G37*
%TD*%
%TO.C,R1*%
G36*
G01*
X121215999Y-65210000D02*
X122116001Y-65210000D01*
G75*
G02*
X122366000Y-65459999I0J-249999D01*
G01*
X122366000Y-66160001D01*
G75*
G02*
X122116001Y-66410000I-249999J0D01*
G01*
X121215999Y-66410000D01*
G75*
G02*
X120966000Y-66160001I0J249999D01*
G01*
X120966000Y-65459999D01*
G75*
G02*
X121215999Y-65210000I249999J0D01*
G01*
G37*
G36*
G01*
X121215999Y-63210000D02*
X122116001Y-63210000D01*
G75*
G02*
X122366000Y-63459999I0J-249999D01*
G01*
X122366000Y-64160001D01*
G75*
G02*
X122116001Y-64410000I-249999J0D01*
G01*
X121215999Y-64410000D01*
G75*
G02*
X120966000Y-64160001I0J249999D01*
G01*
X120966000Y-63459999D01*
G75*
G02*
X121215999Y-63210000I249999J0D01*
G01*
G37*
%TD*%
D18*
%TO.C,D1*%
X133604000Y-67476000D03*
X133604000Y-64176000D03*
%TD*%
%TO.C,D2*%
X136144000Y-64176000D03*
X136144000Y-67476000D03*
%TD*%
D11*
%TO.C,D3*%
X120778000Y-70398000D03*
X124078000Y-70398000D03*
%TD*%
%TO.C,C12*%
G36*
G01*
X117635000Y-67800000D02*
X118585000Y-67800000D01*
G75*
G02*
X118835000Y-68050000I0J-250000D01*
G01*
X118835000Y-68725000D01*
G75*
G02*
X118585000Y-68975000I-250000J0D01*
G01*
X117635000Y-68975000D01*
G75*
G02*
X117385000Y-68725000I0J250000D01*
G01*
X117385000Y-68050000D01*
G75*
G02*
X117635000Y-67800000I250000J0D01*
G01*
G37*
G36*
G01*
X117635000Y-65725000D02*
X118585000Y-65725000D01*
G75*
G02*
X118835000Y-65975000I0J-250000D01*
G01*
X118835000Y-66650000D01*
G75*
G02*
X118585000Y-66900000I-250000J0D01*
G01*
X117635000Y-66900000D01*
G75*
G02*
X117385000Y-66650000I0J250000D01*
G01*
X117385000Y-65975000D01*
G75*
G02*
X117635000Y-65725000I250000J0D01*
G01*
G37*
%TD*%
%TO.C,C9*%
G36*
G01*
X121633000Y-52168000D02*
X120683000Y-52168000D01*
G75*
G02*
X120433000Y-51918000I0J250000D01*
G01*
X120433000Y-51243000D01*
G75*
G02*
X120683000Y-50993000I250000J0D01*
G01*
X121633000Y-50993000D01*
G75*
G02*
X121883000Y-51243000I0J-250000D01*
G01*
X121883000Y-51918000D01*
G75*
G02*
X121633000Y-52168000I-250000J0D01*
G01*
G37*
G36*
G01*
X121633000Y-54243000D02*
X120683000Y-54243000D01*
G75*
G02*
X120433000Y-53993000I0J250000D01*
G01*
X120433000Y-53318000D01*
G75*
G02*
X120683000Y-53068000I250000J0D01*
G01*
X121633000Y-53068000D01*
G75*
G02*
X121883000Y-53318000I0J-250000D01*
G01*
X121883000Y-53993000D01*
G75*
G02*
X121633000Y-54243000I-250000J0D01*
G01*
G37*
%TD*%
%TO.C,C6*%
G36*
G01*
X126713000Y-57502000D02*
X125763000Y-57502000D01*
G75*
G02*
X125513000Y-57252000I0J250000D01*
G01*
X125513000Y-56577000D01*
G75*
G02*
X125763000Y-56327000I250000J0D01*
G01*
X126713000Y-56327000D01*
G75*
G02*
X126963000Y-56577000I0J-250000D01*
G01*
X126963000Y-57252000D01*
G75*
G02*
X126713000Y-57502000I-250000J0D01*
G01*
G37*
G36*
G01*
X126713000Y-59577000D02*
X125763000Y-59577000D01*
G75*
G02*
X125513000Y-59327000I0J250000D01*
G01*
X125513000Y-58652000D01*
G75*
G02*
X125763000Y-58402000I250000J0D01*
G01*
X126713000Y-58402000D01*
G75*
G02*
X126963000Y-58652000I0J-250000D01*
G01*
X126963000Y-59327000D01*
G75*
G02*
X126713000Y-59577000I-250000J0D01*
G01*
G37*
%TD*%
%TO.C,C4*%
G36*
G01*
X130269000Y-57502000D02*
X129319000Y-57502000D01*
G75*
G02*
X129069000Y-57252000I0J250000D01*
G01*
X129069000Y-56577000D01*
G75*
G02*
X129319000Y-56327000I250000J0D01*
G01*
X130269000Y-56327000D01*
G75*
G02*
X130519000Y-56577000I0J-250000D01*
G01*
X130519000Y-57252000D01*
G75*
G02*
X130269000Y-57502000I-250000J0D01*
G01*
G37*
G36*
G01*
X130269000Y-59577000D02*
X129319000Y-59577000D01*
G75*
G02*
X129069000Y-59327000I0J250000D01*
G01*
X129069000Y-58652000D01*
G75*
G02*
X129319000Y-58402000I250000J0D01*
G01*
X130269000Y-58402000D01*
G75*
G02*
X130519000Y-58652000I0J-250000D01*
G01*
X130519000Y-59327000D01*
G75*
G02*
X130269000Y-59577000I-250000J0D01*
G01*
G37*
%TD*%
%TO.C,C2*%
G36*
G01*
X133571000Y-57502000D02*
X132621000Y-57502000D01*
G75*
G02*
X132371000Y-57252000I0J250000D01*
G01*
X132371000Y-56577000D01*
G75*
G02*
X132621000Y-56327000I250000J0D01*
G01*
X133571000Y-56327000D01*
G75*
G02*
X133821000Y-56577000I0J-250000D01*
G01*
X133821000Y-57252000D01*
G75*
G02*
X133571000Y-57502000I-250000J0D01*
G01*
G37*
G36*
G01*
X133571000Y-59577000D02*
X132621000Y-59577000D01*
G75*
G02*
X132371000Y-59327000I0J250000D01*
G01*
X132371000Y-58652000D01*
G75*
G02*
X132621000Y-58402000I250000J0D01*
G01*
X133571000Y-58402000D01*
G75*
G02*
X133821000Y-58652000I0J-250000D01*
G01*
X133821000Y-59327000D01*
G75*
G02*
X133571000Y-59577000I-250000J0D01*
G01*
G37*
%TD*%
%TO.C,C10*%
G36*
G01*
X118052000Y-71127000D02*
X118052000Y-70177000D01*
G75*
G02*
X118302000Y-69927000I250000J0D01*
G01*
X118977000Y-69927000D01*
G75*
G02*
X119227000Y-70177000I0J-250000D01*
G01*
X119227000Y-71127000D01*
G75*
G02*
X118977000Y-71377000I-250000J0D01*
G01*
X118302000Y-71377000D01*
G75*
G02*
X118052000Y-71127000I0J250000D01*
G01*
G37*
G36*
G01*
X115977000Y-71127000D02*
X115977000Y-70177000D01*
G75*
G02*
X116227000Y-69927000I250000J0D01*
G01*
X116902000Y-69927000D01*
G75*
G02*
X117152000Y-70177000I0J-250000D01*
G01*
X117152000Y-71127000D01*
G75*
G02*
X116902000Y-71377000I-250000J0D01*
G01*
X116227000Y-71377000D01*
G75*
G02*
X115977000Y-71127000I0J250000D01*
G01*
G37*
%TD*%
%TO.C,C7*%
G36*
G01*
X119855000Y-57502000D02*
X118905000Y-57502000D01*
G75*
G02*
X118655000Y-57252000I0J250000D01*
G01*
X118655000Y-56577000D01*
G75*
G02*
X118905000Y-56327000I250000J0D01*
G01*
X119855000Y-56327000D01*
G75*
G02*
X120105000Y-56577000I0J-250000D01*
G01*
X120105000Y-57252000D01*
G75*
G02*
X119855000Y-57502000I-250000J0D01*
G01*
G37*
G36*
G01*
X119855000Y-59577000D02*
X118905000Y-59577000D01*
G75*
G02*
X118655000Y-59327000I0J250000D01*
G01*
X118655000Y-58652000D01*
G75*
G02*
X118905000Y-58402000I250000J0D01*
G01*
X119855000Y-58402000D01*
G75*
G02*
X120105000Y-58652000I0J-250000D01*
G01*
X120105000Y-59327000D01*
G75*
G02*
X119855000Y-59577000I-250000J0D01*
G01*
G37*
%TD*%
%TO.C,C8*%
G36*
G01*
X136111000Y-57502000D02*
X135161000Y-57502000D01*
G75*
G02*
X134911000Y-57252000I0J250000D01*
G01*
X134911000Y-56577000D01*
G75*
G02*
X135161000Y-56327000I250000J0D01*
G01*
X136111000Y-56327000D01*
G75*
G02*
X136361000Y-56577000I0J-250000D01*
G01*
X136361000Y-57252000D01*
G75*
G02*
X136111000Y-57502000I-250000J0D01*
G01*
G37*
G36*
G01*
X136111000Y-59577000D02*
X135161000Y-59577000D01*
G75*
G02*
X134911000Y-59327000I0J250000D01*
G01*
X134911000Y-58652000D01*
G75*
G02*
X135161000Y-58402000I250000J0D01*
G01*
X136111000Y-58402000D01*
G75*
G02*
X136361000Y-58652000I0J-250000D01*
G01*
X136361000Y-59327000D01*
G75*
G02*
X136111000Y-59577000I-250000J0D01*
G01*
G37*
%TD*%
%TO.C,C11*%
G36*
G01*
X125189000Y-52168000D02*
X124239000Y-52168000D01*
G75*
G02*
X123989000Y-51918000I0J250000D01*
G01*
X123989000Y-51243000D01*
G75*
G02*
X124239000Y-50993000I250000J0D01*
G01*
X125189000Y-50993000D01*
G75*
G02*
X125439000Y-51243000I0J-250000D01*
G01*
X125439000Y-51918000D01*
G75*
G02*
X125189000Y-52168000I-250000J0D01*
G01*
G37*
G36*
G01*
X125189000Y-54243000D02*
X124239000Y-54243000D01*
G75*
G02*
X123989000Y-53993000I0J250000D01*
G01*
X123989000Y-53318000D01*
G75*
G02*
X124239000Y-53068000I250000J0D01*
G01*
X125189000Y-53068000D01*
G75*
G02*
X125439000Y-53318000I0J-250000D01*
G01*
X125439000Y-53993000D01*
G75*
G02*
X125189000Y-54243000I-250000J0D01*
G01*
G37*
%TD*%
%TO.C,C5*%
G36*
G01*
X128745000Y-52422000D02*
X127795000Y-52422000D01*
G75*
G02*
X127545000Y-52172000I0J250000D01*
G01*
X127545000Y-51497000D01*
G75*
G02*
X127795000Y-51247000I250000J0D01*
G01*
X128745000Y-51247000D01*
G75*
G02*
X128995000Y-51497000I0J-250000D01*
G01*
X128995000Y-52172000D01*
G75*
G02*
X128745000Y-52422000I-250000J0D01*
G01*
G37*
G36*
G01*
X128745000Y-54497000D02*
X127795000Y-54497000D01*
G75*
G02*
X127545000Y-54247000I0J250000D01*
G01*
X127545000Y-53572000D01*
G75*
G02*
X127795000Y-53322000I250000J0D01*
G01*
X128745000Y-53322000D01*
G75*
G02*
X128995000Y-53572000I0J-250000D01*
G01*
X128995000Y-54247000D01*
G75*
G02*
X128745000Y-54497000I-250000J0D01*
G01*
G37*
%TD*%
%TO.C,C3*%
G36*
G01*
X132047000Y-52422000D02*
X131097000Y-52422000D01*
G75*
G02*
X130847000Y-52172000I0J250000D01*
G01*
X130847000Y-51497000D01*
G75*
G02*
X131097000Y-51247000I250000J0D01*
G01*
X132047000Y-51247000D01*
G75*
G02*
X132297000Y-51497000I0J-250000D01*
G01*
X132297000Y-52172000D01*
G75*
G02*
X132047000Y-52422000I-250000J0D01*
G01*
G37*
G36*
G01*
X132047000Y-54497000D02*
X131097000Y-54497000D01*
G75*
G02*
X130847000Y-54247000I0J250000D01*
G01*
X130847000Y-53572000D01*
G75*
G02*
X131097000Y-53322000I250000J0D01*
G01*
X132047000Y-53322000D01*
G75*
G02*
X132297000Y-53572000I0J-250000D01*
G01*
X132297000Y-54247000D01*
G75*
G02*
X132047000Y-54497000I-250000J0D01*
G01*
G37*
%TD*%
%TO.C,C1*%
G36*
G01*
X135349000Y-52422000D02*
X134399000Y-52422000D01*
G75*
G02*
X134149000Y-52172000I0J250000D01*
G01*
X134149000Y-51497000D01*
G75*
G02*
X134399000Y-51247000I250000J0D01*
G01*
X135349000Y-51247000D01*
G75*
G02*
X135599000Y-51497000I0J-250000D01*
G01*
X135599000Y-52172000D01*
G75*
G02*
X135349000Y-52422000I-250000J0D01*
G01*
G37*
G36*
G01*
X135349000Y-54497000D02*
X134399000Y-54497000D01*
G75*
G02*
X134149000Y-54247000I0J250000D01*
G01*
X134149000Y-53572000D01*
G75*
G02*
X134399000Y-53322000I250000J0D01*
G01*
X135349000Y-53322000D01*
G75*
G02*
X135599000Y-53572000I0J-250000D01*
G01*
X135599000Y-54247000D01*
G75*
G02*
X135349000Y-54497000I-250000J0D01*
G01*
G37*
%TD*%
M02*
