%TF.GenerationSoftware,KiCad,Pcbnew,(5.1.10)-1*%
%TF.CreationDate,2021-11-28T18:03:10+01:00*%
%TF.ProjectId,M5StampC3,4d355374-616d-4704-9333-2e6b69636164,rev?*%
%TF.SameCoordinates,Original*%
%TF.FileFunction,Copper,L1,Top*%
%TF.FilePolarity,Positive*%
%FSLAX46Y46*%
G04 Gerber Fmt 4.6, Leading zero omitted, Abs format (unit mm)*
G04 Created by KiCad (PCBNEW (5.1.10)-1) date 2021-11-28 18:03:10*
%MOMM*%
%LPD*%
G01*
G04 APERTURE LIST*
%TA.AperFunction,SMDPad,CuDef*%
%ADD10R,1.000000X1.500000*%
%TD*%
%TA.AperFunction,SMDPad,CuDef*%
%ADD11R,0.900000X1.200000*%
%TD*%
%TA.AperFunction,ComponentPad*%
%ADD12O,1.700000X1.700000*%
%TD*%
%TA.AperFunction,ComponentPad*%
%ADD13R,1.700000X1.700000*%
%TD*%
%TA.AperFunction,SMDPad,CuDef*%
%ADD14R,1.060000X0.650000*%
%TD*%
%TA.AperFunction,SMDPad,CuDef*%
%ADD15R,2.300000X3.100000*%
%TD*%
%TA.AperFunction,SMDPad,CuDef*%
%ADD16R,0.300000X1.100000*%
%TD*%
%TA.AperFunction,SMDPad,CuDef*%
%ADD17R,0.700000X0.450000*%
%TD*%
%TA.AperFunction,SMDPad,CuDef*%
%ADD18R,1.200000X0.900000*%
%TD*%
%TA.AperFunction,ViaPad*%
%ADD19C,2.400000*%
%TD*%
%TA.AperFunction,ViaPad*%
%ADD20C,0.800000*%
%TD*%
%TA.AperFunction,Conductor*%
%ADD21C,0.500000*%
%TD*%
%TA.AperFunction,Conductor*%
%ADD22C,0.250000*%
%TD*%
%TA.AperFunction,Conductor*%
%ADD23C,0.700000*%
%TD*%
%TA.AperFunction,Conductor*%
%ADD24C,0.400000*%
%TD*%
%TA.AperFunction,Conductor*%
%ADD25C,0.254000*%
%TD*%
%TA.AperFunction,Conductor*%
%ADD26C,0.100000*%
%TD*%
G04 APERTURE END LIST*
D10*
%TO.P,D5,1*%
%TO.N,Net-(D4-Pad1)*%
X136203999Y-74004000D03*
%TO.P,D5,2*%
%TO.N,N/C*%
X133003999Y-74004000D03*
%TO.P,D5,4*%
%TO.N,/G9*%
X136203999Y-78904000D03*
%TO.P,D5,3*%
%TO.N,GND*%
X133003999Y-78904000D03*
%TD*%
D11*
%TO.P,D4,2*%
%TO.N,+5V*%
X132716000Y-71120000D03*
%TO.P,D4,1*%
%TO.N,Net-(D4-Pad1)*%
X136016000Y-71120000D03*
%TD*%
D12*
%TO.P,J4,4*%
%TO.N,GND*%
X129286000Y-78740000D03*
%TO.P,J4,3*%
%TO.N,/D+*%
X129286000Y-76200000D03*
%TO.P,J4,2*%
%TO.N,/D-*%
X129286000Y-73660000D03*
D13*
%TO.P,J4,1*%
%TO.N,+5V*%
X129286000Y-71120000D03*
%TD*%
D14*
%TO.P,U1,5*%
%TO.N,+3.3VA*%
X124056000Y-73198000D03*
%TO.P,U1,4*%
%TO.N,N/C*%
X124056000Y-75098000D03*
%TO.P,U1,3*%
%TO.N,Net-(R3-Pad2)*%
X121856000Y-75098000D03*
%TO.P,U1,2*%
%TO.N,GND*%
X121856000Y-74148000D03*
%TO.P,U1,1*%
%TO.N,+5V*%
X121856000Y-73198000D03*
%TD*%
%TO.P,R3,2*%
%TO.N,Net-(R3-Pad2)*%
%TA.AperFunction,SMDPad,CuDef*%
G36*
G01*
X120542000Y-77666001D02*
X120542000Y-76765999D01*
G75*
G02*
X120791999Y-76516000I249999J0D01*
G01*
X121492001Y-76516000D01*
G75*
G02*
X121742000Y-76765999I0J-249999D01*
G01*
X121742000Y-77666001D01*
G75*
G02*
X121492001Y-77916000I-249999J0D01*
G01*
X120791999Y-77916000D01*
G75*
G02*
X120542000Y-77666001I0J249999D01*
G01*
G37*
%TD.AperFunction*%
%TO.P,R3,1*%
%TO.N,+5V*%
%TA.AperFunction,SMDPad,CuDef*%
G36*
G01*
X118542000Y-77666001D02*
X118542000Y-76765999D01*
G75*
G02*
X118791999Y-76516000I249999J0D01*
G01*
X119492001Y-76516000D01*
G75*
G02*
X119742000Y-76765999I0J-249999D01*
G01*
X119742000Y-77666001D01*
G75*
G02*
X119492001Y-77916000I-249999J0D01*
G01*
X118791999Y-77916000D01*
G75*
G02*
X118542000Y-77666001I0J249999D01*
G01*
G37*
%TD.AperFunction*%
%TD*%
%TO.P,C14,2*%
%TO.N,GND*%
%TA.AperFunction,SMDPad,CuDef*%
G36*
G01*
X126459000Y-73210000D02*
X125509000Y-73210000D01*
G75*
G02*
X125259000Y-72960000I0J250000D01*
G01*
X125259000Y-72285000D01*
G75*
G02*
X125509000Y-72035000I250000J0D01*
G01*
X126459000Y-72035000D01*
G75*
G02*
X126709000Y-72285000I0J-250000D01*
G01*
X126709000Y-72960000D01*
G75*
G02*
X126459000Y-73210000I-250000J0D01*
G01*
G37*
%TD.AperFunction*%
%TO.P,C14,1*%
%TO.N,+3.3VA*%
%TA.AperFunction,SMDPad,CuDef*%
G36*
G01*
X126459000Y-75285000D02*
X125509000Y-75285000D01*
G75*
G02*
X125259000Y-75035000I0J250000D01*
G01*
X125259000Y-74360000D01*
G75*
G02*
X125509000Y-74110000I250000J0D01*
G01*
X126459000Y-74110000D01*
G75*
G02*
X126709000Y-74360000I0J-250000D01*
G01*
X126709000Y-75035000D01*
G75*
G02*
X126459000Y-75285000I-250000J0D01*
G01*
G37*
%TD.AperFunction*%
%TD*%
%TO.P,C13,2*%
%TO.N,GND*%
%TA.AperFunction,SMDPad,CuDef*%
G36*
G01*
X118905000Y-74618000D02*
X119855000Y-74618000D01*
G75*
G02*
X120105000Y-74868000I0J-250000D01*
G01*
X120105000Y-75543000D01*
G75*
G02*
X119855000Y-75793000I-250000J0D01*
G01*
X118905000Y-75793000D01*
G75*
G02*
X118655000Y-75543000I0J250000D01*
G01*
X118655000Y-74868000D01*
G75*
G02*
X118905000Y-74618000I250000J0D01*
G01*
G37*
%TD.AperFunction*%
%TO.P,C13,1*%
%TO.N,+5V*%
%TA.AperFunction,SMDPad,CuDef*%
G36*
G01*
X118905000Y-72543000D02*
X119855000Y-72543000D01*
G75*
G02*
X120105000Y-72793000I0J-250000D01*
G01*
X120105000Y-73468000D01*
G75*
G02*
X119855000Y-73718000I-250000J0D01*
G01*
X118905000Y-73718000D01*
G75*
G02*
X118655000Y-73468000I0J250000D01*
G01*
X118655000Y-72793000D01*
G75*
G02*
X118905000Y-72543000I250000J0D01*
G01*
G37*
%TD.AperFunction*%
%TD*%
D12*
%TO.P,J3,6*%
%TO.N,GND*%
X132080000Y-82296000D03*
%TO.P,J3,5*%
%TO.N,/G1*%
X129540000Y-82296000D03*
%TO.P,J3,4*%
%TO.N,/EPD_CLK*%
X127000000Y-82296000D03*
%TO.P,J3,3*%
%TO.N,/EPD_MOSI*%
X124460000Y-82296000D03*
%TO.P,J3,2*%
%TO.N,/G0*%
X121920000Y-82296000D03*
D13*
%TO.P,J3,1*%
%TO.N,+3.3VA*%
X119380000Y-82296000D03*
%TD*%
D15*
%TO.P,U2,MP*%
%TO.N,GND*%
X119072000Y-42870000D03*
X133912000Y-42870000D03*
D16*
%TO.P,U2,24*%
%TO.N,N/C*%
X120742000Y-44570000D03*
%TO.P,U2,23*%
%TO.N,Net-(Q1-Pad1)*%
X121242000Y-44570000D03*
%TO.P,U2,22*%
%TO.N,Net-(Q1-Pad2)*%
X121742000Y-44570000D03*
%TO.P,U2,21*%
%TO.N,Net-(C7-Pad2)*%
X122242000Y-44570000D03*
%TO.P,U2,20*%
%TO.N,Net-(C9-Pad2)*%
X122742000Y-44570000D03*
%TO.P,U2,19*%
%TO.N,N/C*%
X123242000Y-44570000D03*
%TO.P,U2,18*%
X123742000Y-44570000D03*
%TO.P,U2,17*%
%TO.N,GND*%
X124242000Y-44570000D03*
%TO.P,U2,16*%
%TO.N,/EPD_BUSY*%
X124742000Y-44570000D03*
%TO.P,U2,15*%
%TO.N,/EPD_RST*%
X125242000Y-44570000D03*
%TO.P,U2,14*%
%TO.N,/EPD_DC*%
X125742000Y-44570000D03*
%TO.P,U2,13*%
%TO.N,/EPD_CS*%
X126242000Y-44570000D03*
%TO.P,U2,12*%
%TO.N,/EPD_CLK*%
X126742000Y-44570000D03*
%TO.P,U2,11*%
%TO.N,/EPD_MOSI*%
X127242000Y-44570000D03*
%TO.P,U2,10*%
%TO.N,+3.3VP*%
X127742000Y-44570000D03*
%TO.P,U2,9*%
X128242000Y-44570000D03*
%TO.P,U2,8*%
%TO.N,GND*%
X128742000Y-44570000D03*
%TO.P,U2,7*%
%TO.N,Net-(C11-Pad2)*%
X129242000Y-44570000D03*
%TO.P,U2,6*%
%TO.N,Net-(C6-Pad2)*%
X129742000Y-44570000D03*
%TO.P,U2,5*%
%TO.N,Net-(C5-Pad2)*%
X130242000Y-44570000D03*
%TO.P,U2,4*%
%TO.N,Net-(C4-Pad2)*%
X130742000Y-44570000D03*
%TO.P,U2,3*%
%TO.N,Net-(C3-Pad2)*%
X131242000Y-44570000D03*
%TO.P,U2,2*%
%TO.N,Net-(C2-Pad2)*%
X131742000Y-44570000D03*
%TO.P,U2,1*%
%TO.N,Net-(C1-Pad2)*%
X132242000Y-44570000D03*
%TD*%
%TO.P,L1,2*%
%TO.N,+3.3VP*%
%TA.AperFunction,SMDPad,CuDef*%
G36*
G01*
X129299000Y-67369000D02*
X129299000Y-65219000D01*
G75*
G02*
X129549000Y-64969000I250000J0D01*
G01*
X130299000Y-64969000D01*
G75*
G02*
X130549000Y-65219000I0J-250000D01*
G01*
X130549000Y-67369000D01*
G75*
G02*
X130299000Y-67619000I-250000J0D01*
G01*
X129549000Y-67619000D01*
G75*
G02*
X129299000Y-67369000I0J250000D01*
G01*
G37*
%TD.AperFunction*%
%TO.P,L1,1*%
%TO.N,Net-(C10-Pad1)*%
%TA.AperFunction,SMDPad,CuDef*%
G36*
G01*
X126499000Y-67369000D02*
X126499000Y-65219000D01*
G75*
G02*
X126749000Y-64969000I250000J0D01*
G01*
X127499000Y-64969000D01*
G75*
G02*
X127749000Y-65219000I0J-250000D01*
G01*
X127749000Y-67369000D01*
G75*
G02*
X127499000Y-67619000I-250000J0D01*
G01*
X126749000Y-67619000D01*
G75*
G02*
X126499000Y-67369000I0J250000D01*
G01*
G37*
%TD.AperFunction*%
%TD*%
D17*
%TO.P,Q1,3*%
%TO.N,Net-(C10-Pad1)*%
X116094000Y-62778000D03*
%TO.P,Q1,2*%
%TO.N,Net-(Q1-Pad2)*%
X118094000Y-62128000D03*
%TO.P,Q1,1*%
%TO.N,Net-(Q1-Pad1)*%
X118094000Y-63428000D03*
%TD*%
%TO.P,R2,2*%
%TO.N,GND*%
%TA.AperFunction,SMDPad,CuDef*%
G36*
G01*
X123247999Y-65210000D02*
X124148001Y-65210000D01*
G75*
G02*
X124398000Y-65459999I0J-249999D01*
G01*
X124398000Y-66160001D01*
G75*
G02*
X124148001Y-66410000I-249999J0D01*
G01*
X123247999Y-66410000D01*
G75*
G02*
X122998000Y-66160001I0J249999D01*
G01*
X122998000Y-65459999D01*
G75*
G02*
X123247999Y-65210000I249999J0D01*
G01*
G37*
%TD.AperFunction*%
%TO.P,R2,1*%
%TO.N,Net-(Q1-Pad2)*%
%TA.AperFunction,SMDPad,CuDef*%
G36*
G01*
X123247999Y-63210000D02*
X124148001Y-63210000D01*
G75*
G02*
X124398000Y-63459999I0J-249999D01*
G01*
X124398000Y-64160001D01*
G75*
G02*
X124148001Y-64410000I-249999J0D01*
G01*
X123247999Y-64410000D01*
G75*
G02*
X122998000Y-64160001I0J249999D01*
G01*
X122998000Y-63459999D01*
G75*
G02*
X123247999Y-63210000I249999J0D01*
G01*
G37*
%TD.AperFunction*%
%TD*%
%TO.P,R1,2*%
%TO.N,GND*%
%TA.AperFunction,SMDPad,CuDef*%
G36*
G01*
X121215999Y-65210000D02*
X122116001Y-65210000D01*
G75*
G02*
X122366000Y-65459999I0J-249999D01*
G01*
X122366000Y-66160001D01*
G75*
G02*
X122116001Y-66410000I-249999J0D01*
G01*
X121215999Y-66410000D01*
G75*
G02*
X120966000Y-66160001I0J249999D01*
G01*
X120966000Y-65459999D01*
G75*
G02*
X121215999Y-65210000I249999J0D01*
G01*
G37*
%TD.AperFunction*%
%TO.P,R1,1*%
%TO.N,Net-(Q1-Pad1)*%
%TA.AperFunction,SMDPad,CuDef*%
G36*
G01*
X121215999Y-63210000D02*
X122116001Y-63210000D01*
G75*
G02*
X122366000Y-63459999I0J-249999D01*
G01*
X122366000Y-64160001D01*
G75*
G02*
X122116001Y-64410000I-249999J0D01*
G01*
X121215999Y-64410000D01*
G75*
G02*
X120966000Y-64160001I0J249999D01*
G01*
X120966000Y-63459999D01*
G75*
G02*
X121215999Y-63210000I249999J0D01*
G01*
G37*
%TD.AperFunction*%
%TD*%
D18*
%TO.P,D1,2*%
%TO.N,Net-(C10-Pad1)*%
X133604000Y-67476000D03*
%TO.P,D1,1*%
%TO.N,Net-(C4-Pad2)*%
X133604000Y-64176000D03*
%TD*%
%TO.P,D2,2*%
%TO.N,Net-(C2-Pad2)*%
X136144000Y-64176000D03*
%TO.P,D2,1*%
%TO.N,Net-(C10-Pad2)*%
X136144000Y-67476000D03*
%TD*%
D11*
%TO.P,D3,2*%
%TO.N,Net-(C10-Pad2)*%
X120778000Y-70398000D03*
%TO.P,D3,1*%
%TO.N,GND*%
X124078000Y-70398000D03*
%TD*%
%TO.P,C12,2*%
%TO.N,+3.3VP*%
%TA.AperFunction,SMDPad,CuDef*%
G36*
G01*
X117635000Y-67800000D02*
X118585000Y-67800000D01*
G75*
G02*
X118835000Y-68050000I0J-250000D01*
G01*
X118835000Y-68725000D01*
G75*
G02*
X118585000Y-68975000I-250000J0D01*
G01*
X117635000Y-68975000D01*
G75*
G02*
X117385000Y-68725000I0J250000D01*
G01*
X117385000Y-68050000D01*
G75*
G02*
X117635000Y-67800000I250000J0D01*
G01*
G37*
%TD.AperFunction*%
%TO.P,C12,1*%
%TO.N,GND*%
%TA.AperFunction,SMDPad,CuDef*%
G36*
G01*
X117635000Y-65725000D02*
X118585000Y-65725000D01*
G75*
G02*
X118835000Y-65975000I0J-250000D01*
G01*
X118835000Y-66650000D01*
G75*
G02*
X118585000Y-66900000I-250000J0D01*
G01*
X117635000Y-66900000D01*
G75*
G02*
X117385000Y-66650000I0J250000D01*
G01*
X117385000Y-65975000D01*
G75*
G02*
X117635000Y-65725000I250000J0D01*
G01*
G37*
%TD.AperFunction*%
%TD*%
%TO.P,C9,2*%
%TO.N,Net-(C9-Pad2)*%
%TA.AperFunction,SMDPad,CuDef*%
G36*
G01*
X121633000Y-52168000D02*
X120683000Y-52168000D01*
G75*
G02*
X120433000Y-51918000I0J250000D01*
G01*
X120433000Y-51243000D01*
G75*
G02*
X120683000Y-50993000I250000J0D01*
G01*
X121633000Y-50993000D01*
G75*
G02*
X121883000Y-51243000I0J-250000D01*
G01*
X121883000Y-51918000D01*
G75*
G02*
X121633000Y-52168000I-250000J0D01*
G01*
G37*
%TD.AperFunction*%
%TO.P,C9,1*%
%TO.N,GND*%
%TA.AperFunction,SMDPad,CuDef*%
G36*
G01*
X121633000Y-54243000D02*
X120683000Y-54243000D01*
G75*
G02*
X120433000Y-53993000I0J250000D01*
G01*
X120433000Y-53318000D01*
G75*
G02*
X120683000Y-53068000I250000J0D01*
G01*
X121633000Y-53068000D01*
G75*
G02*
X121883000Y-53318000I0J-250000D01*
G01*
X121883000Y-53993000D01*
G75*
G02*
X121633000Y-54243000I-250000J0D01*
G01*
G37*
%TD.AperFunction*%
%TD*%
%TO.P,C6,2*%
%TO.N,Net-(C6-Pad2)*%
%TA.AperFunction,SMDPad,CuDef*%
G36*
G01*
X126713000Y-57502000D02*
X125763000Y-57502000D01*
G75*
G02*
X125513000Y-57252000I0J250000D01*
G01*
X125513000Y-56577000D01*
G75*
G02*
X125763000Y-56327000I250000J0D01*
G01*
X126713000Y-56327000D01*
G75*
G02*
X126963000Y-56577000I0J-250000D01*
G01*
X126963000Y-57252000D01*
G75*
G02*
X126713000Y-57502000I-250000J0D01*
G01*
G37*
%TD.AperFunction*%
%TO.P,C6,1*%
%TO.N,GND*%
%TA.AperFunction,SMDPad,CuDef*%
G36*
G01*
X126713000Y-59577000D02*
X125763000Y-59577000D01*
G75*
G02*
X125513000Y-59327000I0J250000D01*
G01*
X125513000Y-58652000D01*
G75*
G02*
X125763000Y-58402000I250000J0D01*
G01*
X126713000Y-58402000D01*
G75*
G02*
X126963000Y-58652000I0J-250000D01*
G01*
X126963000Y-59327000D01*
G75*
G02*
X126713000Y-59577000I-250000J0D01*
G01*
G37*
%TD.AperFunction*%
%TD*%
%TO.P,C4,2*%
%TO.N,Net-(C4-Pad2)*%
%TA.AperFunction,SMDPad,CuDef*%
G36*
G01*
X130269000Y-57502000D02*
X129319000Y-57502000D01*
G75*
G02*
X129069000Y-57252000I0J250000D01*
G01*
X129069000Y-56577000D01*
G75*
G02*
X129319000Y-56327000I250000J0D01*
G01*
X130269000Y-56327000D01*
G75*
G02*
X130519000Y-56577000I0J-250000D01*
G01*
X130519000Y-57252000D01*
G75*
G02*
X130269000Y-57502000I-250000J0D01*
G01*
G37*
%TD.AperFunction*%
%TO.P,C4,1*%
%TO.N,GND*%
%TA.AperFunction,SMDPad,CuDef*%
G36*
G01*
X130269000Y-59577000D02*
X129319000Y-59577000D01*
G75*
G02*
X129069000Y-59327000I0J250000D01*
G01*
X129069000Y-58652000D01*
G75*
G02*
X129319000Y-58402000I250000J0D01*
G01*
X130269000Y-58402000D01*
G75*
G02*
X130519000Y-58652000I0J-250000D01*
G01*
X130519000Y-59327000D01*
G75*
G02*
X130269000Y-59577000I-250000J0D01*
G01*
G37*
%TD.AperFunction*%
%TD*%
%TO.P,C2,2*%
%TO.N,Net-(C2-Pad2)*%
%TA.AperFunction,SMDPad,CuDef*%
G36*
G01*
X133571000Y-57502000D02*
X132621000Y-57502000D01*
G75*
G02*
X132371000Y-57252000I0J250000D01*
G01*
X132371000Y-56577000D01*
G75*
G02*
X132621000Y-56327000I250000J0D01*
G01*
X133571000Y-56327000D01*
G75*
G02*
X133821000Y-56577000I0J-250000D01*
G01*
X133821000Y-57252000D01*
G75*
G02*
X133571000Y-57502000I-250000J0D01*
G01*
G37*
%TD.AperFunction*%
%TO.P,C2,1*%
%TO.N,GND*%
%TA.AperFunction,SMDPad,CuDef*%
G36*
G01*
X133571000Y-59577000D02*
X132621000Y-59577000D01*
G75*
G02*
X132371000Y-59327000I0J250000D01*
G01*
X132371000Y-58652000D01*
G75*
G02*
X132621000Y-58402000I250000J0D01*
G01*
X133571000Y-58402000D01*
G75*
G02*
X133821000Y-58652000I0J-250000D01*
G01*
X133821000Y-59327000D01*
G75*
G02*
X133571000Y-59577000I-250000J0D01*
G01*
G37*
%TD.AperFunction*%
%TD*%
%TO.P,C10,2*%
%TO.N,Net-(C10-Pad2)*%
%TA.AperFunction,SMDPad,CuDef*%
G36*
G01*
X118052000Y-71127000D02*
X118052000Y-70177000D01*
G75*
G02*
X118302000Y-69927000I250000J0D01*
G01*
X118977000Y-69927000D01*
G75*
G02*
X119227000Y-70177000I0J-250000D01*
G01*
X119227000Y-71127000D01*
G75*
G02*
X118977000Y-71377000I-250000J0D01*
G01*
X118302000Y-71377000D01*
G75*
G02*
X118052000Y-71127000I0J250000D01*
G01*
G37*
%TD.AperFunction*%
%TO.P,C10,1*%
%TO.N,Net-(C10-Pad1)*%
%TA.AperFunction,SMDPad,CuDef*%
G36*
G01*
X115977000Y-71127000D02*
X115977000Y-70177000D01*
G75*
G02*
X116227000Y-69927000I250000J0D01*
G01*
X116902000Y-69927000D01*
G75*
G02*
X117152000Y-70177000I0J-250000D01*
G01*
X117152000Y-71127000D01*
G75*
G02*
X116902000Y-71377000I-250000J0D01*
G01*
X116227000Y-71377000D01*
G75*
G02*
X115977000Y-71127000I0J250000D01*
G01*
G37*
%TD.AperFunction*%
%TD*%
%TO.P,C7,2*%
%TO.N,Net-(C7-Pad2)*%
%TA.AperFunction,SMDPad,CuDef*%
G36*
G01*
X119855000Y-57502000D02*
X118905000Y-57502000D01*
G75*
G02*
X118655000Y-57252000I0J250000D01*
G01*
X118655000Y-56577000D01*
G75*
G02*
X118905000Y-56327000I250000J0D01*
G01*
X119855000Y-56327000D01*
G75*
G02*
X120105000Y-56577000I0J-250000D01*
G01*
X120105000Y-57252000D01*
G75*
G02*
X119855000Y-57502000I-250000J0D01*
G01*
G37*
%TD.AperFunction*%
%TO.P,C7,1*%
%TO.N,GND*%
%TA.AperFunction,SMDPad,CuDef*%
G36*
G01*
X119855000Y-59577000D02*
X118905000Y-59577000D01*
G75*
G02*
X118655000Y-59327000I0J250000D01*
G01*
X118655000Y-58652000D01*
G75*
G02*
X118905000Y-58402000I250000J0D01*
G01*
X119855000Y-58402000D01*
G75*
G02*
X120105000Y-58652000I0J-250000D01*
G01*
X120105000Y-59327000D01*
G75*
G02*
X119855000Y-59577000I-250000J0D01*
G01*
G37*
%TD.AperFunction*%
%TD*%
%TO.P,C8,2*%
%TO.N,+3.3VP*%
%TA.AperFunction,SMDPad,CuDef*%
G36*
G01*
X136111000Y-57502000D02*
X135161000Y-57502000D01*
G75*
G02*
X134911000Y-57252000I0J250000D01*
G01*
X134911000Y-56577000D01*
G75*
G02*
X135161000Y-56327000I250000J0D01*
G01*
X136111000Y-56327000D01*
G75*
G02*
X136361000Y-56577000I0J-250000D01*
G01*
X136361000Y-57252000D01*
G75*
G02*
X136111000Y-57502000I-250000J0D01*
G01*
G37*
%TD.AperFunction*%
%TO.P,C8,1*%
%TO.N,GND*%
%TA.AperFunction,SMDPad,CuDef*%
G36*
G01*
X136111000Y-59577000D02*
X135161000Y-59577000D01*
G75*
G02*
X134911000Y-59327000I0J250000D01*
G01*
X134911000Y-58652000D01*
G75*
G02*
X135161000Y-58402000I250000J0D01*
G01*
X136111000Y-58402000D01*
G75*
G02*
X136361000Y-58652000I0J-250000D01*
G01*
X136361000Y-59327000D01*
G75*
G02*
X136111000Y-59577000I-250000J0D01*
G01*
G37*
%TD.AperFunction*%
%TD*%
%TO.P,C11,2*%
%TO.N,Net-(C11-Pad2)*%
%TA.AperFunction,SMDPad,CuDef*%
G36*
G01*
X125189000Y-52168000D02*
X124239000Y-52168000D01*
G75*
G02*
X123989000Y-51918000I0J250000D01*
G01*
X123989000Y-51243000D01*
G75*
G02*
X124239000Y-50993000I250000J0D01*
G01*
X125189000Y-50993000D01*
G75*
G02*
X125439000Y-51243000I0J-250000D01*
G01*
X125439000Y-51918000D01*
G75*
G02*
X125189000Y-52168000I-250000J0D01*
G01*
G37*
%TD.AperFunction*%
%TO.P,C11,1*%
%TO.N,GND*%
%TA.AperFunction,SMDPad,CuDef*%
G36*
G01*
X125189000Y-54243000D02*
X124239000Y-54243000D01*
G75*
G02*
X123989000Y-53993000I0J250000D01*
G01*
X123989000Y-53318000D01*
G75*
G02*
X124239000Y-53068000I250000J0D01*
G01*
X125189000Y-53068000D01*
G75*
G02*
X125439000Y-53318000I0J-250000D01*
G01*
X125439000Y-53993000D01*
G75*
G02*
X125189000Y-54243000I-250000J0D01*
G01*
G37*
%TD.AperFunction*%
%TD*%
%TO.P,C5,2*%
%TO.N,Net-(C5-Pad2)*%
%TA.AperFunction,SMDPad,CuDef*%
G36*
G01*
X128745000Y-52422000D02*
X127795000Y-52422000D01*
G75*
G02*
X127545000Y-52172000I0J250000D01*
G01*
X127545000Y-51497000D01*
G75*
G02*
X127795000Y-51247000I250000J0D01*
G01*
X128745000Y-51247000D01*
G75*
G02*
X128995000Y-51497000I0J-250000D01*
G01*
X128995000Y-52172000D01*
G75*
G02*
X128745000Y-52422000I-250000J0D01*
G01*
G37*
%TD.AperFunction*%
%TO.P,C5,1*%
%TO.N,GND*%
%TA.AperFunction,SMDPad,CuDef*%
G36*
G01*
X128745000Y-54497000D02*
X127795000Y-54497000D01*
G75*
G02*
X127545000Y-54247000I0J250000D01*
G01*
X127545000Y-53572000D01*
G75*
G02*
X127795000Y-53322000I250000J0D01*
G01*
X128745000Y-53322000D01*
G75*
G02*
X128995000Y-53572000I0J-250000D01*
G01*
X128995000Y-54247000D01*
G75*
G02*
X128745000Y-54497000I-250000J0D01*
G01*
G37*
%TD.AperFunction*%
%TD*%
%TO.P,C3,2*%
%TO.N,Net-(C3-Pad2)*%
%TA.AperFunction,SMDPad,CuDef*%
G36*
G01*
X132047000Y-52422000D02*
X131097000Y-52422000D01*
G75*
G02*
X130847000Y-52172000I0J250000D01*
G01*
X130847000Y-51497000D01*
G75*
G02*
X131097000Y-51247000I250000J0D01*
G01*
X132047000Y-51247000D01*
G75*
G02*
X132297000Y-51497000I0J-250000D01*
G01*
X132297000Y-52172000D01*
G75*
G02*
X132047000Y-52422000I-250000J0D01*
G01*
G37*
%TD.AperFunction*%
%TO.P,C3,1*%
%TO.N,GND*%
%TA.AperFunction,SMDPad,CuDef*%
G36*
G01*
X132047000Y-54497000D02*
X131097000Y-54497000D01*
G75*
G02*
X130847000Y-54247000I0J250000D01*
G01*
X130847000Y-53572000D01*
G75*
G02*
X131097000Y-53322000I250000J0D01*
G01*
X132047000Y-53322000D01*
G75*
G02*
X132297000Y-53572000I0J-250000D01*
G01*
X132297000Y-54247000D01*
G75*
G02*
X132047000Y-54497000I-250000J0D01*
G01*
G37*
%TD.AperFunction*%
%TD*%
%TO.P,C1,2*%
%TO.N,Net-(C1-Pad2)*%
%TA.AperFunction,SMDPad,CuDef*%
G36*
G01*
X135349000Y-52422000D02*
X134399000Y-52422000D01*
G75*
G02*
X134149000Y-52172000I0J250000D01*
G01*
X134149000Y-51497000D01*
G75*
G02*
X134399000Y-51247000I250000J0D01*
G01*
X135349000Y-51247000D01*
G75*
G02*
X135599000Y-51497000I0J-250000D01*
G01*
X135599000Y-52172000D01*
G75*
G02*
X135349000Y-52422000I-250000J0D01*
G01*
G37*
%TD.AperFunction*%
%TO.P,C1,1*%
%TO.N,GND*%
%TA.AperFunction,SMDPad,CuDef*%
G36*
G01*
X135349000Y-54497000D02*
X134399000Y-54497000D01*
G75*
G02*
X134149000Y-54247000I0J250000D01*
G01*
X134149000Y-53572000D01*
G75*
G02*
X134399000Y-53322000I250000J0D01*
G01*
X135349000Y-53322000D01*
G75*
G02*
X135599000Y-53572000I0J-250000D01*
G01*
X135599000Y-54247000D01*
G75*
G02*
X135349000Y-54497000I-250000J0D01*
G01*
G37*
%TD.AperFunction*%
%TD*%
D19*
%TO.N,*%
X136010000Y-82758000D03*
X115510000Y-82758000D03*
X115510000Y-46758000D03*
X136010000Y-46758000D03*
D20*
%TO.N,+5V*%
X117348000Y-73152000D03*
X134620000Y-74676000D03*
%TO.N,GND*%
X120650000Y-74676000D03*
X125730000Y-70358000D03*
X129016000Y-42870000D03*
X122230000Y-42870000D03*
X128778000Y-55372000D03*
X131826000Y-55372000D03*
X125222000Y-65024000D03*
X114554000Y-74676000D03*
X137160000Y-49022000D03*
%TO.N,+3.3VP*%
X128524000Y-46897080D03*
X137160000Y-52110000D03*
%TO.N,/EPD_MOSI*%
X127469610Y-46897080D03*
%TO.N,/EPD_RST*%
X123407000Y-49163791D03*
%TO.N,/EPD_DC*%
X124237994Y-48046000D03*
%TO.N,/EPD_CS*%
X125237997Y-48046000D03*
%TO.N,/EPD_CLK*%
X126238000Y-48046000D03*
%TO.N,/EPD_BUSY*%
X122682000Y-48046000D03*
%TO.N,/G1*%
X115824000Y-76454000D03*
%TO.N,/G9*%
X137414000Y-66802000D03*
%TD*%
D21*
%TO.N,+5V*%
X119358500Y-73152000D02*
X119380000Y-73130500D01*
X117348000Y-73152000D02*
X119358500Y-73152000D01*
X121788500Y-73130500D02*
X121856000Y-73198000D01*
X119380000Y-73130500D02*
X121788500Y-73130500D01*
X118204990Y-76278990D02*
X119142000Y-77216000D01*
X118204990Y-74305510D02*
X118204990Y-76278990D01*
X119380000Y-73130500D02*
X118204990Y-74305510D01*
X128821010Y-71584990D02*
X129286000Y-71120000D01*
X123469010Y-71584990D02*
X128821010Y-71584990D01*
X121856000Y-73198000D02*
X123469010Y-71584990D01*
X132716000Y-71120000D02*
X129286000Y-71120000D01*
X134620000Y-73024000D02*
X134620000Y-74676000D01*
X132716000Y-71120000D02*
X134620000Y-73024000D01*
D22*
%TO.N,GND*%
X124242000Y-43784998D02*
X124242000Y-44570000D01*
X123327002Y-42870000D02*
X124242000Y-43784998D01*
X119072000Y-42870000D02*
X122230000Y-42870000D01*
X128742000Y-44570000D02*
X128742000Y-43144000D01*
X129016000Y-42870000D02*
X129016000Y-42870000D01*
X128742000Y-43144000D02*
X129016000Y-42870000D01*
D21*
X121178000Y-74148000D02*
X120650000Y-74676000D01*
X121856000Y-74148000D02*
X121178000Y-74148000D01*
X120120500Y-75205500D02*
X120650000Y-74676000D01*
X119380000Y-75205500D02*
X120120500Y-75205500D01*
D22*
X129016000Y-42870000D02*
X133912000Y-42870000D01*
X122230000Y-42870000D02*
X123327002Y-42870000D01*
D23*
X114554000Y-74110315D02*
X114554000Y-74676000D01*
X116737305Y-71927010D02*
X114554000Y-74110315D01*
X121288992Y-71927010D02*
X116737305Y-71927010D01*
X122818002Y-70398000D02*
X121288992Y-71927010D01*
X124078000Y-70398000D02*
X122818002Y-70398000D01*
D21*
X136309999Y-49872001D02*
X137160000Y-49022000D01*
X136309999Y-52473501D02*
X136309999Y-49872001D01*
X134874000Y-53909500D02*
X136309999Y-52473501D01*
D22*
%TO.N,Net-(C7-Pad2)*%
X122192010Y-45404992D02*
X122192009Y-45998811D01*
X122242000Y-45355002D02*
X122192010Y-45404992D01*
X122242000Y-44570000D02*
X122242000Y-45355002D01*
X122192009Y-45998811D02*
X119380000Y-48810820D01*
X119380000Y-56914500D02*
X119380000Y-48810820D01*
D24*
%TO.N,+3.3VP*%
X118110000Y-68387500D02*
X117602000Y-68895500D01*
X137523010Y-58039510D02*
X136398000Y-56914500D01*
X137523010Y-64566992D02*
X137523010Y-58039510D01*
X135756002Y-66334000D02*
X137523010Y-64566992D01*
X134322002Y-66334000D02*
X135756002Y-66334000D01*
X135636000Y-56914500D02*
X136398000Y-56914500D01*
D22*
X127742000Y-46115080D02*
X128524000Y-46897080D01*
X127742000Y-44570000D02*
X127742000Y-46115080D01*
D21*
X137160000Y-55390500D02*
X137160000Y-52110000D01*
X135636000Y-56914500D02*
X137160000Y-55390500D01*
X129964000Y-66334000D02*
X129924000Y-66294000D01*
X131278000Y-66334000D02*
X129964000Y-66334000D01*
X130686000Y-66334000D02*
X131278000Y-66334000D01*
X131278000Y-66334000D02*
X134322002Y-66334000D01*
X134654001Y-66665999D02*
X134322002Y-66334000D01*
X133873992Y-69066010D02*
X134654001Y-68286001D01*
X134654001Y-68286001D02*
X134654001Y-66665999D01*
X127004047Y-69066010D02*
X133873992Y-69066010D01*
X126325537Y-68387500D02*
X127004047Y-69066010D01*
X118110000Y-68387500D02*
X126325537Y-68387500D01*
D22*
X128242000Y-44570000D02*
X128242000Y-45692000D01*
X128524000Y-45974000D02*
X128524000Y-46897080D01*
X128242000Y-45692000D02*
X128524000Y-45974000D01*
%TO.N,Net-(C1-Pad2)*%
X132242000Y-44570000D02*
X132242000Y-47954000D01*
X134874000Y-50586000D02*
X134874000Y-51834500D01*
X132242000Y-47954000D02*
X134874000Y-50586000D01*
%TO.N,Net-(C2-Pad2)*%
X131742000Y-44570000D02*
X131742000Y-48978000D01*
D24*
X136923000Y-63397000D02*
X136144000Y-64176000D01*
X136280266Y-57902010D02*
X136923000Y-58544744D01*
X134591510Y-57902010D02*
X136280266Y-57902010D01*
X136923000Y-58544744D02*
X136923000Y-63397000D01*
X133604000Y-56914500D02*
X134591510Y-57902010D01*
D22*
X132842000Y-56660500D02*
X133096000Y-56914500D01*
X132842000Y-50078000D02*
X132842000Y-56660500D01*
X131742000Y-48978000D02*
X132842000Y-50078000D01*
%TO.N,Net-(C3-Pad2)*%
X131572000Y-51834500D02*
X131217001Y-51479501D01*
X131242000Y-51504500D02*
X131572000Y-51834500D01*
X131242000Y-44570000D02*
X131242000Y-51504500D01*
%TO.N,Net-(C4-Pad2)*%
X129794000Y-51986810D02*
X129794000Y-56914500D01*
X130742000Y-51038810D02*
X129794000Y-51986810D01*
X130742000Y-44570000D02*
X130742000Y-51038810D01*
D21*
X133604000Y-64176000D02*
X131201750Y-61773750D01*
X131201750Y-58322250D02*
X131201750Y-61773750D01*
X131201750Y-58322250D02*
X129794000Y-56914500D01*
D22*
%TO.N,Net-(C6-Pad2)*%
X126238000Y-52240810D02*
X126238000Y-56914500D01*
X129742000Y-48736810D02*
X126238000Y-52240810D01*
X129742000Y-44570000D02*
X129742000Y-48736810D01*
%TO.N,Net-(C9-Pad2)*%
X122742000Y-44570000D02*
X122742000Y-46208000D01*
X121158000Y-47792000D02*
X122742000Y-46208000D01*
X121158000Y-51580500D02*
X121158000Y-47792000D01*
D21*
%TO.N,Net-(C10-Pad2)*%
X118893500Y-70398000D02*
X118639500Y-70652000D01*
X120778000Y-70398000D02*
X118893500Y-70398000D01*
X136144000Y-68426000D02*
X136144000Y-67476000D01*
X134803980Y-69766020D02*
X136144000Y-68426000D01*
X126714095Y-69766020D02*
X134803980Y-69766020D01*
X126296074Y-69347999D02*
X126714095Y-69766020D01*
X121828001Y-69347999D02*
X126296074Y-69347999D01*
X120778000Y-70398000D02*
X121828001Y-69347999D01*
D22*
%TO.N,Net-(C11-Pad2)*%
X125439000Y-51580500D02*
X124714000Y-51580500D01*
X129249001Y-46427999D02*
X129249001Y-47770499D01*
X129242000Y-46420998D02*
X129249001Y-46427999D01*
X129249001Y-47770499D02*
X125439000Y-51580500D01*
X129242000Y-44570000D02*
X129242000Y-46420998D01*
D21*
%TO.N,Net-(Q1-Pad2)*%
X123455966Y-63810000D02*
X123698000Y-63810000D01*
X121773966Y-62128000D02*
X123455966Y-63810000D01*
X118094000Y-62128000D02*
X121773966Y-62128000D01*
D22*
X121742000Y-45812410D02*
X121742000Y-44570000D01*
X118094000Y-49460410D02*
X121742000Y-45812410D01*
X118094000Y-62128000D02*
X118094000Y-49460410D01*
D21*
%TO.N,Net-(Q1-Pad1)*%
X118476000Y-63810000D02*
X118094000Y-63428000D01*
X121666000Y-63810000D02*
X118476000Y-63810000D01*
D22*
X121242000Y-45676000D02*
X121242000Y-44570000D01*
X117418999Y-62752999D02*
X117418999Y-49499001D01*
X117418999Y-49499001D02*
X121242000Y-45676000D01*
X118094000Y-63428000D02*
X117418999Y-62752999D01*
%TO.N,Net-(C5-Pad2)*%
X130242000Y-50587500D02*
X130242000Y-44570000D01*
X128995000Y-51834500D02*
X130242000Y-50587500D01*
X128270000Y-51834500D02*
X128995000Y-51834500D01*
D21*
%TO.N,Net-(C10-Pad1)*%
X116094000Y-62778000D02*
X116094000Y-66042500D01*
D24*
X116564500Y-67647000D02*
X116861500Y-67350000D01*
X116564500Y-70652000D02*
X116564500Y-67647000D01*
X116861500Y-66810000D02*
X116094000Y-66042500D01*
X116861500Y-67350000D02*
X116861500Y-66810000D01*
D21*
X132714000Y-68366000D02*
X133604000Y-67476000D01*
X127124000Y-67688000D02*
X127802000Y-68366000D01*
X127124000Y-67688000D02*
X127124000Y-66294000D01*
X126068000Y-67350000D02*
X127124000Y-66294000D01*
X125516000Y-67350000D02*
X126068000Y-67350000D01*
X125516000Y-67350000D02*
X126278000Y-67350000D01*
X116861500Y-67350000D02*
X125516000Y-67350000D01*
X126616000Y-67688000D02*
X127124000Y-67688000D01*
X126278000Y-67350000D02*
X126616000Y-67688000D01*
D22*
X127976000Y-68112000D02*
X127976000Y-68366000D01*
X128016000Y-68072000D02*
X127976000Y-68112000D01*
X127124000Y-67180000D02*
X128016000Y-68072000D01*
X127124000Y-66294000D02*
X127124000Y-67180000D01*
D21*
X127976000Y-68366000D02*
X132714000Y-68366000D01*
X127802000Y-68366000D02*
X127976000Y-68366000D01*
D22*
%TO.N,/EPD_MOSI*%
X127242000Y-44570000D02*
X127242000Y-46669470D01*
X127242000Y-46669470D02*
X127469610Y-46897080D01*
%TO.N,/EPD_RST*%
X125242000Y-44570000D02*
X125242000Y-45968992D01*
X125242000Y-45968992D02*
X123407000Y-47803992D01*
X123407000Y-47803992D02*
X123407000Y-49163791D01*
%TO.N,/EPD_DC*%
X125742000Y-46510000D02*
X124237994Y-48014006D01*
X124237994Y-48014006D02*
X124237994Y-48046000D01*
X125742000Y-44570000D02*
X125742000Y-46510000D01*
%TO.N,/EPD_CS*%
X126242000Y-44570000D02*
X126242000Y-46968998D01*
X126242000Y-46968998D02*
X125512999Y-47697999D01*
X125512999Y-47697999D02*
X125512999Y-47770998D01*
X125512999Y-47770998D02*
X125237997Y-48046000D01*
%TO.N,/EPD_CLK*%
X126742000Y-44570000D02*
X126742000Y-47542000D01*
X126742000Y-47542000D02*
X126238000Y-48046000D01*
%TO.N,/EPD_BUSY*%
X122682000Y-48046000D02*
X122682000Y-47538000D01*
X122682000Y-47538000D02*
X124742000Y-45478000D01*
X124742000Y-45478000D02*
X124742000Y-44570000D01*
D21*
%TO.N,/G1*%
X127508000Y-84328000D02*
X129540000Y-82296000D01*
X115824000Y-76454000D02*
X115824000Y-80264000D01*
X118901998Y-84328000D02*
X121158000Y-84328000D01*
X118079999Y-83506001D02*
X118901998Y-84328000D01*
X118079999Y-82519999D02*
X118079999Y-83506001D01*
X115824000Y-80264000D02*
X118079999Y-82519999D01*
X121158000Y-84328000D02*
X127508000Y-84328000D01*
%TO.N,+3.3VA*%
X124484500Y-73198000D02*
X125984000Y-74697500D01*
X124056000Y-73198000D02*
X124484500Y-73198000D01*
X119380000Y-82296000D02*
X122682000Y-78994000D01*
X125984000Y-75692000D02*
X122682000Y-78994000D01*
X125984000Y-74697500D02*
X125984000Y-75692000D01*
%TO.N,/G9*%
X137414000Y-77693999D02*
X137414000Y-66802000D01*
X136203999Y-78904000D02*
X137414000Y-77693999D01*
%TO.N,Net-(R3-Pad2)*%
X121856000Y-76502000D02*
X121142000Y-77216000D01*
X121856000Y-75098000D02*
X121856000Y-76502000D01*
%TO.N,Net-(D4-Pad1)*%
X136203999Y-71307999D02*
X136016000Y-71120000D01*
X136203999Y-74004000D02*
X136203999Y-71307999D01*
%TD*%
D25*
%TO.N,GND*%
X131735463Y-72074494D02*
X131814815Y-72171185D01*
X131911506Y-72250537D01*
X132021820Y-72309502D01*
X132141518Y-72345812D01*
X132266000Y-72358072D01*
X132702494Y-72358072D01*
X132960350Y-72615928D01*
X132503999Y-72615928D01*
X132379517Y-72628188D01*
X132259819Y-72664498D01*
X132149505Y-72723463D01*
X132052814Y-72802815D01*
X131973462Y-72899506D01*
X131914497Y-73009820D01*
X131878187Y-73129518D01*
X131865927Y-73254000D01*
X131865927Y-74754000D01*
X131878187Y-74878482D01*
X131914497Y-74998180D01*
X131973462Y-75108494D01*
X132052814Y-75205185D01*
X132149505Y-75284537D01*
X132259819Y-75343502D01*
X132379517Y-75379812D01*
X132503999Y-75392072D01*
X133503999Y-75392072D01*
X133628481Y-75379812D01*
X133748179Y-75343502D01*
X133802003Y-75314732D01*
X133816063Y-75335774D01*
X133960226Y-75479937D01*
X134129744Y-75593205D01*
X134318102Y-75671226D01*
X134518061Y-75711000D01*
X134721939Y-75711000D01*
X134921898Y-75671226D01*
X135110256Y-75593205D01*
X135279774Y-75479937D01*
X135423937Y-75335774D01*
X135429575Y-75327336D01*
X135459819Y-75343502D01*
X135579517Y-75379812D01*
X135703999Y-75392072D01*
X136529000Y-75392072D01*
X136529000Y-77327420D01*
X136340492Y-77515928D01*
X135703999Y-77515928D01*
X135579517Y-77528188D01*
X135459819Y-77564498D01*
X135349505Y-77623463D01*
X135252814Y-77702815D01*
X135173462Y-77799506D01*
X135114497Y-77909820D01*
X135078187Y-78029518D01*
X135065927Y-78154000D01*
X135065927Y-79654000D01*
X135078187Y-79778482D01*
X135114497Y-79898180D01*
X135173462Y-80008494D01*
X135252814Y-80105185D01*
X135349505Y-80184537D01*
X135459819Y-80243502D01*
X135579517Y-80279812D01*
X135703999Y-80292072D01*
X136703999Y-80292072D01*
X136828481Y-80279812D01*
X136948179Y-80243502D01*
X137058493Y-80184537D01*
X137155184Y-80105185D01*
X137234536Y-80008494D01*
X137293501Y-79898180D01*
X137329811Y-79778482D01*
X137342071Y-79654000D01*
X137342071Y-79017506D01*
X137466000Y-78893577D01*
X137466000Y-81634145D01*
X137435338Y-81588256D01*
X137179744Y-81332662D01*
X136879199Y-81131844D01*
X136545250Y-80993518D01*
X136190732Y-80923000D01*
X135829268Y-80923000D01*
X135474750Y-80993518D01*
X135140801Y-81131844D01*
X134840256Y-81332662D01*
X134584662Y-81588256D01*
X134383844Y-81888801D01*
X134245518Y-82222750D01*
X134175000Y-82577268D01*
X134175000Y-82938732D01*
X134245518Y-83293250D01*
X134383844Y-83627199D01*
X134584662Y-83927744D01*
X134840256Y-84183338D01*
X135140801Y-84384156D01*
X135474750Y-84522482D01*
X135603038Y-84548000D01*
X128539578Y-84548000D01*
X129321040Y-83766539D01*
X129393740Y-83781000D01*
X129686260Y-83781000D01*
X129973158Y-83723932D01*
X130243411Y-83611990D01*
X130486632Y-83449475D01*
X130693475Y-83242632D01*
X130815195Y-83060466D01*
X130884822Y-83177355D01*
X131079731Y-83393588D01*
X131313080Y-83567641D01*
X131575901Y-83692825D01*
X131723110Y-83737476D01*
X131953000Y-83616155D01*
X131953000Y-82423000D01*
X132207000Y-82423000D01*
X132207000Y-83616155D01*
X132436890Y-83737476D01*
X132584099Y-83692825D01*
X132846920Y-83567641D01*
X133080269Y-83393588D01*
X133275178Y-83177355D01*
X133424157Y-82927252D01*
X133521481Y-82652891D01*
X133400814Y-82423000D01*
X132207000Y-82423000D01*
X131953000Y-82423000D01*
X131933000Y-82423000D01*
X131933000Y-82169000D01*
X131953000Y-82169000D01*
X131953000Y-80975845D01*
X132207000Y-80975845D01*
X132207000Y-82169000D01*
X133400814Y-82169000D01*
X133521481Y-81939109D01*
X133424157Y-81664748D01*
X133275178Y-81414645D01*
X133080269Y-81198412D01*
X132846920Y-81024359D01*
X132584099Y-80899175D01*
X132436890Y-80854524D01*
X132207000Y-80975845D01*
X131953000Y-80975845D01*
X131723110Y-80854524D01*
X131575901Y-80899175D01*
X131313080Y-81024359D01*
X131079731Y-81198412D01*
X130884822Y-81414645D01*
X130815195Y-81531534D01*
X130693475Y-81349368D01*
X130486632Y-81142525D01*
X130243411Y-80980010D01*
X129973158Y-80868068D01*
X129686260Y-80811000D01*
X129393740Y-80811000D01*
X129106842Y-80868068D01*
X128836589Y-80980010D01*
X128593368Y-81142525D01*
X128386525Y-81349368D01*
X128270000Y-81523760D01*
X128153475Y-81349368D01*
X127946632Y-81142525D01*
X127703411Y-80980010D01*
X127433158Y-80868068D01*
X127146260Y-80811000D01*
X126853740Y-80811000D01*
X126566842Y-80868068D01*
X126296589Y-80980010D01*
X126053368Y-81142525D01*
X125846525Y-81349368D01*
X125730000Y-81523760D01*
X125613475Y-81349368D01*
X125406632Y-81142525D01*
X125163411Y-80980010D01*
X124893158Y-80868068D01*
X124606260Y-80811000D01*
X124313740Y-80811000D01*
X124026842Y-80868068D01*
X123756589Y-80980010D01*
X123513368Y-81142525D01*
X123306525Y-81349368D01*
X123190000Y-81523760D01*
X123073475Y-81349368D01*
X122866632Y-81142525D01*
X122623411Y-80980010D01*
X122353158Y-80868068D01*
X122108230Y-80819348D01*
X123338532Y-79589047D01*
X123338536Y-79589042D01*
X123830688Y-79096890D01*
X127844524Y-79096890D01*
X127889175Y-79244099D01*
X128014359Y-79506920D01*
X128188412Y-79740269D01*
X128404645Y-79935178D01*
X128654748Y-80084157D01*
X128929109Y-80181481D01*
X129159000Y-80060814D01*
X129159000Y-78867000D01*
X129413000Y-78867000D01*
X129413000Y-80060814D01*
X129642891Y-80181481D01*
X129917252Y-80084157D01*
X130167355Y-79935178D01*
X130383588Y-79740269D01*
X130447935Y-79654000D01*
X131865927Y-79654000D01*
X131878187Y-79778482D01*
X131914497Y-79898180D01*
X131973462Y-80008494D01*
X132052814Y-80105185D01*
X132149505Y-80184537D01*
X132259819Y-80243502D01*
X132379517Y-80279812D01*
X132503999Y-80292072D01*
X132718249Y-80289000D01*
X132876999Y-80130250D01*
X132876999Y-79031000D01*
X133130999Y-79031000D01*
X133130999Y-80130250D01*
X133289749Y-80289000D01*
X133503999Y-80292072D01*
X133628481Y-80279812D01*
X133748179Y-80243502D01*
X133858493Y-80184537D01*
X133955184Y-80105185D01*
X134034536Y-80008494D01*
X134093501Y-79898180D01*
X134129811Y-79778482D01*
X134142071Y-79654000D01*
X134138999Y-79189750D01*
X133980249Y-79031000D01*
X133130999Y-79031000D01*
X132876999Y-79031000D01*
X132027749Y-79031000D01*
X131868999Y-79189750D01*
X131865927Y-79654000D01*
X130447935Y-79654000D01*
X130557641Y-79506920D01*
X130682825Y-79244099D01*
X130727476Y-79096890D01*
X130606155Y-78867000D01*
X129413000Y-78867000D01*
X129159000Y-78867000D01*
X127965845Y-78867000D01*
X127844524Y-79096890D01*
X123830688Y-79096890D01*
X126579049Y-76348530D01*
X126612817Y-76320817D01*
X126645897Y-76280510D01*
X126723410Y-76186060D01*
X126723411Y-76186059D01*
X126805589Y-76032313D01*
X126856195Y-75865490D01*
X126860423Y-75822560D01*
X126952386Y-75773405D01*
X127086962Y-75662962D01*
X127197405Y-75528386D01*
X127279472Y-75374850D01*
X127330008Y-75208254D01*
X127347072Y-75035000D01*
X127347072Y-74360000D01*
X127330008Y-74186746D01*
X127279472Y-74020150D01*
X127197405Y-73866614D01*
X127086962Y-73732038D01*
X127080406Y-73726658D01*
X127160185Y-73661185D01*
X127239537Y-73564494D01*
X127298502Y-73454180D01*
X127334812Y-73334482D01*
X127347072Y-73210000D01*
X127344000Y-72908250D01*
X127185250Y-72749500D01*
X126111000Y-72749500D01*
X126111000Y-72769500D01*
X125857000Y-72769500D01*
X125857000Y-72749500D01*
X125837000Y-72749500D01*
X125837000Y-72495500D01*
X125857000Y-72495500D01*
X125857000Y-72475500D01*
X126111000Y-72475500D01*
X126111000Y-72495500D01*
X127185250Y-72495500D01*
X127210760Y-72469990D01*
X128044284Y-72469990D01*
X128081506Y-72500537D01*
X128191820Y-72559502D01*
X128264380Y-72581513D01*
X128132525Y-72713368D01*
X127970010Y-72956589D01*
X127858068Y-73226842D01*
X127801000Y-73513740D01*
X127801000Y-73806260D01*
X127858068Y-74093158D01*
X127970010Y-74363411D01*
X128132525Y-74606632D01*
X128339368Y-74813475D01*
X128513760Y-74930000D01*
X128339368Y-75046525D01*
X128132525Y-75253368D01*
X127970010Y-75496589D01*
X127858068Y-75766842D01*
X127801000Y-76053740D01*
X127801000Y-76346260D01*
X127858068Y-76633158D01*
X127970010Y-76903411D01*
X128132525Y-77146632D01*
X128339368Y-77353475D01*
X128521534Y-77475195D01*
X128404645Y-77544822D01*
X128188412Y-77739731D01*
X128014359Y-77973080D01*
X127889175Y-78235901D01*
X127844524Y-78383110D01*
X127965845Y-78613000D01*
X129159000Y-78613000D01*
X129159000Y-78593000D01*
X129413000Y-78593000D01*
X129413000Y-78613000D01*
X130606155Y-78613000D01*
X130727476Y-78383110D01*
X130682825Y-78235901D01*
X130643815Y-78154000D01*
X131865927Y-78154000D01*
X131868999Y-78618250D01*
X132027749Y-78777000D01*
X132876999Y-78777000D01*
X132876999Y-77677750D01*
X133130999Y-77677750D01*
X133130999Y-78777000D01*
X133980249Y-78777000D01*
X134138999Y-78618250D01*
X134142071Y-78154000D01*
X134129811Y-78029518D01*
X134093501Y-77909820D01*
X134034536Y-77799506D01*
X133955184Y-77702815D01*
X133858493Y-77623463D01*
X133748179Y-77564498D01*
X133628481Y-77528188D01*
X133503999Y-77515928D01*
X133289749Y-77519000D01*
X133130999Y-77677750D01*
X132876999Y-77677750D01*
X132718249Y-77519000D01*
X132503999Y-77515928D01*
X132379517Y-77528188D01*
X132259819Y-77564498D01*
X132149505Y-77623463D01*
X132052814Y-77702815D01*
X131973462Y-77799506D01*
X131914497Y-77909820D01*
X131878187Y-78029518D01*
X131865927Y-78154000D01*
X130643815Y-78154000D01*
X130557641Y-77973080D01*
X130383588Y-77739731D01*
X130167355Y-77544822D01*
X130050466Y-77475195D01*
X130232632Y-77353475D01*
X130439475Y-77146632D01*
X130601990Y-76903411D01*
X130713932Y-76633158D01*
X130771000Y-76346260D01*
X130771000Y-76053740D01*
X130713932Y-75766842D01*
X130601990Y-75496589D01*
X130439475Y-75253368D01*
X130232632Y-75046525D01*
X130058240Y-74930000D01*
X130232632Y-74813475D01*
X130439475Y-74606632D01*
X130601990Y-74363411D01*
X130713932Y-74093158D01*
X130771000Y-73806260D01*
X130771000Y-73513740D01*
X130713932Y-73226842D01*
X130601990Y-72956589D01*
X130439475Y-72713368D01*
X130307620Y-72581513D01*
X130380180Y-72559502D01*
X130490494Y-72500537D01*
X130587185Y-72421185D01*
X130666537Y-72324494D01*
X130725502Y-72214180D01*
X130761812Y-72094482D01*
X130770625Y-72005000D01*
X131698317Y-72005000D01*
X131735463Y-72074494D01*
%TA.AperFunction,Conductor*%
D26*
G36*
X131735463Y-72074494D02*
G01*
X131814815Y-72171185D01*
X131911506Y-72250537D01*
X132021820Y-72309502D01*
X132141518Y-72345812D01*
X132266000Y-72358072D01*
X132702494Y-72358072D01*
X132960350Y-72615928D01*
X132503999Y-72615928D01*
X132379517Y-72628188D01*
X132259819Y-72664498D01*
X132149505Y-72723463D01*
X132052814Y-72802815D01*
X131973462Y-72899506D01*
X131914497Y-73009820D01*
X131878187Y-73129518D01*
X131865927Y-73254000D01*
X131865927Y-74754000D01*
X131878187Y-74878482D01*
X131914497Y-74998180D01*
X131973462Y-75108494D01*
X132052814Y-75205185D01*
X132149505Y-75284537D01*
X132259819Y-75343502D01*
X132379517Y-75379812D01*
X132503999Y-75392072D01*
X133503999Y-75392072D01*
X133628481Y-75379812D01*
X133748179Y-75343502D01*
X133802003Y-75314732D01*
X133816063Y-75335774D01*
X133960226Y-75479937D01*
X134129744Y-75593205D01*
X134318102Y-75671226D01*
X134518061Y-75711000D01*
X134721939Y-75711000D01*
X134921898Y-75671226D01*
X135110256Y-75593205D01*
X135279774Y-75479937D01*
X135423937Y-75335774D01*
X135429575Y-75327336D01*
X135459819Y-75343502D01*
X135579517Y-75379812D01*
X135703999Y-75392072D01*
X136529000Y-75392072D01*
X136529000Y-77327420D01*
X136340492Y-77515928D01*
X135703999Y-77515928D01*
X135579517Y-77528188D01*
X135459819Y-77564498D01*
X135349505Y-77623463D01*
X135252814Y-77702815D01*
X135173462Y-77799506D01*
X135114497Y-77909820D01*
X135078187Y-78029518D01*
X135065927Y-78154000D01*
X135065927Y-79654000D01*
X135078187Y-79778482D01*
X135114497Y-79898180D01*
X135173462Y-80008494D01*
X135252814Y-80105185D01*
X135349505Y-80184537D01*
X135459819Y-80243502D01*
X135579517Y-80279812D01*
X135703999Y-80292072D01*
X136703999Y-80292072D01*
X136828481Y-80279812D01*
X136948179Y-80243502D01*
X137058493Y-80184537D01*
X137155184Y-80105185D01*
X137234536Y-80008494D01*
X137293501Y-79898180D01*
X137329811Y-79778482D01*
X137342071Y-79654000D01*
X137342071Y-79017506D01*
X137466000Y-78893577D01*
X137466000Y-81634145D01*
X137435338Y-81588256D01*
X137179744Y-81332662D01*
X136879199Y-81131844D01*
X136545250Y-80993518D01*
X136190732Y-80923000D01*
X135829268Y-80923000D01*
X135474750Y-80993518D01*
X135140801Y-81131844D01*
X134840256Y-81332662D01*
X134584662Y-81588256D01*
X134383844Y-81888801D01*
X134245518Y-82222750D01*
X134175000Y-82577268D01*
X134175000Y-82938732D01*
X134245518Y-83293250D01*
X134383844Y-83627199D01*
X134584662Y-83927744D01*
X134840256Y-84183338D01*
X135140801Y-84384156D01*
X135474750Y-84522482D01*
X135603038Y-84548000D01*
X128539578Y-84548000D01*
X129321040Y-83766539D01*
X129393740Y-83781000D01*
X129686260Y-83781000D01*
X129973158Y-83723932D01*
X130243411Y-83611990D01*
X130486632Y-83449475D01*
X130693475Y-83242632D01*
X130815195Y-83060466D01*
X130884822Y-83177355D01*
X131079731Y-83393588D01*
X131313080Y-83567641D01*
X131575901Y-83692825D01*
X131723110Y-83737476D01*
X131953000Y-83616155D01*
X131953000Y-82423000D01*
X132207000Y-82423000D01*
X132207000Y-83616155D01*
X132436890Y-83737476D01*
X132584099Y-83692825D01*
X132846920Y-83567641D01*
X133080269Y-83393588D01*
X133275178Y-83177355D01*
X133424157Y-82927252D01*
X133521481Y-82652891D01*
X133400814Y-82423000D01*
X132207000Y-82423000D01*
X131953000Y-82423000D01*
X131933000Y-82423000D01*
X131933000Y-82169000D01*
X131953000Y-82169000D01*
X131953000Y-80975845D01*
X132207000Y-80975845D01*
X132207000Y-82169000D01*
X133400814Y-82169000D01*
X133521481Y-81939109D01*
X133424157Y-81664748D01*
X133275178Y-81414645D01*
X133080269Y-81198412D01*
X132846920Y-81024359D01*
X132584099Y-80899175D01*
X132436890Y-80854524D01*
X132207000Y-80975845D01*
X131953000Y-80975845D01*
X131723110Y-80854524D01*
X131575901Y-80899175D01*
X131313080Y-81024359D01*
X131079731Y-81198412D01*
X130884822Y-81414645D01*
X130815195Y-81531534D01*
X130693475Y-81349368D01*
X130486632Y-81142525D01*
X130243411Y-80980010D01*
X129973158Y-80868068D01*
X129686260Y-80811000D01*
X129393740Y-80811000D01*
X129106842Y-80868068D01*
X128836589Y-80980010D01*
X128593368Y-81142525D01*
X128386525Y-81349368D01*
X128270000Y-81523760D01*
X128153475Y-81349368D01*
X127946632Y-81142525D01*
X127703411Y-80980010D01*
X127433158Y-80868068D01*
X127146260Y-80811000D01*
X126853740Y-80811000D01*
X126566842Y-80868068D01*
X126296589Y-80980010D01*
X126053368Y-81142525D01*
X125846525Y-81349368D01*
X125730000Y-81523760D01*
X125613475Y-81349368D01*
X125406632Y-81142525D01*
X125163411Y-80980010D01*
X124893158Y-80868068D01*
X124606260Y-80811000D01*
X124313740Y-80811000D01*
X124026842Y-80868068D01*
X123756589Y-80980010D01*
X123513368Y-81142525D01*
X123306525Y-81349368D01*
X123190000Y-81523760D01*
X123073475Y-81349368D01*
X122866632Y-81142525D01*
X122623411Y-80980010D01*
X122353158Y-80868068D01*
X122108230Y-80819348D01*
X123338532Y-79589047D01*
X123338536Y-79589042D01*
X123830688Y-79096890D01*
X127844524Y-79096890D01*
X127889175Y-79244099D01*
X128014359Y-79506920D01*
X128188412Y-79740269D01*
X128404645Y-79935178D01*
X128654748Y-80084157D01*
X128929109Y-80181481D01*
X129159000Y-80060814D01*
X129159000Y-78867000D01*
X129413000Y-78867000D01*
X129413000Y-80060814D01*
X129642891Y-80181481D01*
X129917252Y-80084157D01*
X130167355Y-79935178D01*
X130383588Y-79740269D01*
X130447935Y-79654000D01*
X131865927Y-79654000D01*
X131878187Y-79778482D01*
X131914497Y-79898180D01*
X131973462Y-80008494D01*
X132052814Y-80105185D01*
X132149505Y-80184537D01*
X132259819Y-80243502D01*
X132379517Y-80279812D01*
X132503999Y-80292072D01*
X132718249Y-80289000D01*
X132876999Y-80130250D01*
X132876999Y-79031000D01*
X133130999Y-79031000D01*
X133130999Y-80130250D01*
X133289749Y-80289000D01*
X133503999Y-80292072D01*
X133628481Y-80279812D01*
X133748179Y-80243502D01*
X133858493Y-80184537D01*
X133955184Y-80105185D01*
X134034536Y-80008494D01*
X134093501Y-79898180D01*
X134129811Y-79778482D01*
X134142071Y-79654000D01*
X134138999Y-79189750D01*
X133980249Y-79031000D01*
X133130999Y-79031000D01*
X132876999Y-79031000D01*
X132027749Y-79031000D01*
X131868999Y-79189750D01*
X131865927Y-79654000D01*
X130447935Y-79654000D01*
X130557641Y-79506920D01*
X130682825Y-79244099D01*
X130727476Y-79096890D01*
X130606155Y-78867000D01*
X129413000Y-78867000D01*
X129159000Y-78867000D01*
X127965845Y-78867000D01*
X127844524Y-79096890D01*
X123830688Y-79096890D01*
X126579049Y-76348530D01*
X126612817Y-76320817D01*
X126645897Y-76280510D01*
X126723410Y-76186060D01*
X126723411Y-76186059D01*
X126805589Y-76032313D01*
X126856195Y-75865490D01*
X126860423Y-75822560D01*
X126952386Y-75773405D01*
X127086962Y-75662962D01*
X127197405Y-75528386D01*
X127279472Y-75374850D01*
X127330008Y-75208254D01*
X127347072Y-75035000D01*
X127347072Y-74360000D01*
X127330008Y-74186746D01*
X127279472Y-74020150D01*
X127197405Y-73866614D01*
X127086962Y-73732038D01*
X127080406Y-73726658D01*
X127160185Y-73661185D01*
X127239537Y-73564494D01*
X127298502Y-73454180D01*
X127334812Y-73334482D01*
X127347072Y-73210000D01*
X127344000Y-72908250D01*
X127185250Y-72749500D01*
X126111000Y-72749500D01*
X126111000Y-72769500D01*
X125857000Y-72769500D01*
X125857000Y-72749500D01*
X125837000Y-72749500D01*
X125837000Y-72495500D01*
X125857000Y-72495500D01*
X125857000Y-72475500D01*
X126111000Y-72475500D01*
X126111000Y-72495500D01*
X127185250Y-72495500D01*
X127210760Y-72469990D01*
X128044284Y-72469990D01*
X128081506Y-72500537D01*
X128191820Y-72559502D01*
X128264380Y-72581513D01*
X128132525Y-72713368D01*
X127970010Y-72956589D01*
X127858068Y-73226842D01*
X127801000Y-73513740D01*
X127801000Y-73806260D01*
X127858068Y-74093158D01*
X127970010Y-74363411D01*
X128132525Y-74606632D01*
X128339368Y-74813475D01*
X128513760Y-74930000D01*
X128339368Y-75046525D01*
X128132525Y-75253368D01*
X127970010Y-75496589D01*
X127858068Y-75766842D01*
X127801000Y-76053740D01*
X127801000Y-76346260D01*
X127858068Y-76633158D01*
X127970010Y-76903411D01*
X128132525Y-77146632D01*
X128339368Y-77353475D01*
X128521534Y-77475195D01*
X128404645Y-77544822D01*
X128188412Y-77739731D01*
X128014359Y-77973080D01*
X127889175Y-78235901D01*
X127844524Y-78383110D01*
X127965845Y-78613000D01*
X129159000Y-78613000D01*
X129159000Y-78593000D01*
X129413000Y-78593000D01*
X129413000Y-78613000D01*
X130606155Y-78613000D01*
X130727476Y-78383110D01*
X130682825Y-78235901D01*
X130643815Y-78154000D01*
X131865927Y-78154000D01*
X131868999Y-78618250D01*
X132027749Y-78777000D01*
X132876999Y-78777000D01*
X132876999Y-77677750D01*
X133130999Y-77677750D01*
X133130999Y-78777000D01*
X133980249Y-78777000D01*
X134138999Y-78618250D01*
X134142071Y-78154000D01*
X134129811Y-78029518D01*
X134093501Y-77909820D01*
X134034536Y-77799506D01*
X133955184Y-77702815D01*
X133858493Y-77623463D01*
X133748179Y-77564498D01*
X133628481Y-77528188D01*
X133503999Y-77515928D01*
X133289749Y-77519000D01*
X133130999Y-77677750D01*
X132876999Y-77677750D01*
X132718249Y-77519000D01*
X132503999Y-77515928D01*
X132379517Y-77528188D01*
X132259819Y-77564498D01*
X132149505Y-77623463D01*
X132052814Y-77702815D01*
X131973462Y-77799506D01*
X131914497Y-77909820D01*
X131878187Y-78029518D01*
X131865927Y-78154000D01*
X130643815Y-78154000D01*
X130557641Y-77973080D01*
X130383588Y-77739731D01*
X130167355Y-77544822D01*
X130050466Y-77475195D01*
X130232632Y-77353475D01*
X130439475Y-77146632D01*
X130601990Y-76903411D01*
X130713932Y-76633158D01*
X130771000Y-76346260D01*
X130771000Y-76053740D01*
X130713932Y-75766842D01*
X130601990Y-75496589D01*
X130439475Y-75253368D01*
X130232632Y-75046525D01*
X130058240Y-74930000D01*
X130232632Y-74813475D01*
X130439475Y-74606632D01*
X130601990Y-74363411D01*
X130713932Y-74093158D01*
X130771000Y-73806260D01*
X130771000Y-73513740D01*
X130713932Y-73226842D01*
X130601990Y-72956589D01*
X130439475Y-72713368D01*
X130307620Y-72581513D01*
X130380180Y-72559502D01*
X130490494Y-72500537D01*
X130587185Y-72421185D01*
X130666537Y-72324494D01*
X130725502Y-72214180D01*
X130761812Y-72094482D01*
X130770625Y-72005000D01*
X131698317Y-72005000D01*
X131735463Y-72074494D01*
G37*
%TD.AperFunction*%
D25*
X117287000Y-42584250D02*
X117445750Y-42743000D01*
X118945000Y-42743000D01*
X118945000Y-42723000D01*
X119199000Y-42723000D01*
X119199000Y-42743000D01*
X120698250Y-42743000D01*
X120857000Y-42584250D01*
X120858949Y-41782000D01*
X132125051Y-41782000D01*
X132127000Y-42584250D01*
X132285750Y-42743000D01*
X133785000Y-42743000D01*
X133785000Y-42723000D01*
X134039000Y-42723000D01*
X134039000Y-42743000D01*
X135538250Y-42743000D01*
X135697000Y-42584250D01*
X135698949Y-41782000D01*
X136381909Y-41782000D01*
X137466001Y-42866093D01*
X137466001Y-45634146D01*
X137435338Y-45588256D01*
X137179744Y-45332662D01*
X136879199Y-45131844D01*
X136545250Y-44993518D01*
X136190732Y-44923000D01*
X135829268Y-44923000D01*
X135474750Y-44993518D01*
X135140801Y-45131844D01*
X134840256Y-45332662D01*
X134584662Y-45588256D01*
X134383844Y-45888801D01*
X134245518Y-46222750D01*
X134175000Y-46577268D01*
X134175000Y-46938732D01*
X134245518Y-47293250D01*
X134383844Y-47627199D01*
X134584662Y-47927744D01*
X134840256Y-48183338D01*
X135140801Y-48384156D01*
X135474750Y-48522482D01*
X135829268Y-48593000D01*
X136190732Y-48593000D01*
X136545250Y-48522482D01*
X136879199Y-48384156D01*
X137179744Y-48183338D01*
X137435338Y-47927744D01*
X137466001Y-47881854D01*
X137466001Y-51116473D01*
X137461898Y-51114774D01*
X137261939Y-51075000D01*
X137058061Y-51075000D01*
X136858102Y-51114774D01*
X136669744Y-51192795D01*
X136500226Y-51306063D01*
X136356063Y-51450226D01*
X136242795Y-51619744D01*
X136237072Y-51633560D01*
X136237072Y-51497000D01*
X136220008Y-51323746D01*
X136169472Y-51157150D01*
X136087405Y-51003614D01*
X135976962Y-50869038D01*
X135842386Y-50758595D01*
X135688850Y-50676528D01*
X135634000Y-50659890D01*
X135634000Y-50623322D01*
X135637676Y-50585999D01*
X135634000Y-50548676D01*
X135634000Y-50548667D01*
X135623003Y-50437014D01*
X135579546Y-50293753D01*
X135528787Y-50198791D01*
X135508974Y-50161723D01*
X135437799Y-50074997D01*
X135414001Y-50045999D01*
X135385004Y-50022202D01*
X133002000Y-47639199D01*
X133002000Y-45296607D01*
X133017812Y-45244482D01*
X133030072Y-45120000D01*
X133030072Y-45057119D01*
X133626250Y-45055000D01*
X133785000Y-44896250D01*
X133785000Y-42997000D01*
X134039000Y-42997000D01*
X134039000Y-44896250D01*
X134197750Y-45055000D01*
X135062000Y-45058072D01*
X135186482Y-45045812D01*
X135306180Y-45009502D01*
X135416494Y-44950537D01*
X135513185Y-44871185D01*
X135592537Y-44774494D01*
X135651502Y-44664180D01*
X135687812Y-44544482D01*
X135700072Y-44420000D01*
X135697000Y-43155750D01*
X135538250Y-42997000D01*
X134039000Y-42997000D01*
X133785000Y-42997000D01*
X132285750Y-42997000D01*
X132127000Y-43155750D01*
X132126450Y-43381928D01*
X132092000Y-43381928D01*
X131992000Y-43391777D01*
X131892000Y-43381928D01*
X131592000Y-43381928D01*
X131492000Y-43391777D01*
X131392000Y-43381928D01*
X131092000Y-43381928D01*
X130992000Y-43391777D01*
X130892000Y-43381928D01*
X130592000Y-43381928D01*
X130492000Y-43391777D01*
X130392000Y-43381928D01*
X130092000Y-43381928D01*
X129992000Y-43391777D01*
X129892000Y-43381928D01*
X129592000Y-43381928D01*
X129492000Y-43391777D01*
X129392000Y-43381928D01*
X129092000Y-43381928D01*
X128988159Y-43392155D01*
X128923750Y-43385000D01*
X128891503Y-43417247D01*
X128847820Y-43430498D01*
X128742000Y-43487061D01*
X128636180Y-43430498D01*
X128592497Y-43417247D01*
X128560250Y-43385000D01*
X128495841Y-43392155D01*
X128392000Y-43381928D01*
X128092000Y-43381928D01*
X127992000Y-43391777D01*
X127892000Y-43381928D01*
X127592000Y-43381928D01*
X127492000Y-43391777D01*
X127392000Y-43381928D01*
X127092000Y-43381928D01*
X126992000Y-43391777D01*
X126892000Y-43381928D01*
X126592000Y-43381928D01*
X126492000Y-43391777D01*
X126392000Y-43381928D01*
X126092000Y-43381928D01*
X125992000Y-43391777D01*
X125892000Y-43381928D01*
X125592000Y-43381928D01*
X125492000Y-43391777D01*
X125392000Y-43381928D01*
X125092000Y-43381928D01*
X124992000Y-43391777D01*
X124892000Y-43381928D01*
X124592000Y-43381928D01*
X124488159Y-43392155D01*
X124423750Y-43385000D01*
X124391503Y-43417247D01*
X124347820Y-43430498D01*
X124242000Y-43487061D01*
X124136180Y-43430498D01*
X124092497Y-43417247D01*
X124060250Y-43385000D01*
X123995841Y-43392155D01*
X123892000Y-43381928D01*
X123592000Y-43381928D01*
X123492000Y-43391777D01*
X123392000Y-43381928D01*
X123092000Y-43381928D01*
X122992000Y-43391777D01*
X122892000Y-43381928D01*
X122592000Y-43381928D01*
X122492000Y-43391777D01*
X122392000Y-43381928D01*
X122092000Y-43381928D01*
X121992000Y-43391777D01*
X121892000Y-43381928D01*
X121592000Y-43381928D01*
X121492000Y-43391777D01*
X121392000Y-43381928D01*
X121092000Y-43381928D01*
X120992000Y-43391777D01*
X120892000Y-43381928D01*
X120857550Y-43381928D01*
X120857000Y-43155750D01*
X120698250Y-42997000D01*
X119199000Y-42997000D01*
X119199000Y-44896250D01*
X119357750Y-45055000D01*
X119953928Y-45057119D01*
X119953928Y-45120000D01*
X119966188Y-45244482D01*
X120002498Y-45364180D01*
X120061463Y-45474494D01*
X120140815Y-45571185D01*
X120212875Y-45630323D01*
X116907997Y-48935202D01*
X116878999Y-48959000D01*
X116855201Y-48987998D01*
X116855200Y-48987999D01*
X116784025Y-49074725D01*
X116713453Y-49206755D01*
X116700999Y-49247813D01*
X116669997Y-49350015D01*
X116659555Y-49456038D01*
X116655323Y-49499001D01*
X116659000Y-49536333D01*
X116658999Y-61954646D01*
X116568482Y-61927188D01*
X116444000Y-61914928D01*
X116297563Y-61914928D01*
X116267489Y-61905805D01*
X116094000Y-61888718D01*
X115920510Y-61905805D01*
X115890436Y-61914928D01*
X115744000Y-61914928D01*
X115619518Y-61927188D01*
X115499820Y-61963498D01*
X115389506Y-62022463D01*
X115292815Y-62101815D01*
X115213463Y-62198506D01*
X115154498Y-62308820D01*
X115118188Y-62428518D01*
X115105928Y-62553000D01*
X115105928Y-63003000D01*
X115118188Y-63127482D01*
X115154498Y-63247180D01*
X115209000Y-63349145D01*
X115209001Y-66085977D01*
X115221806Y-66215990D01*
X115272412Y-66382813D01*
X115354590Y-66536559D01*
X115465184Y-66671317D01*
X115599942Y-66781911D01*
X115712943Y-66842311D01*
X115950084Y-67079452D01*
X115903933Y-67135687D01*
X115866864Y-67180855D01*
X115789328Y-67325914D01*
X115741582Y-67483312D01*
X115725460Y-67647000D01*
X115729501Y-67688028D01*
X115729500Y-69441971D01*
X115599038Y-69549038D01*
X115488595Y-69683614D01*
X115406528Y-69837150D01*
X115355992Y-70003746D01*
X115338928Y-70177000D01*
X115338928Y-71127000D01*
X115355992Y-71300254D01*
X115406528Y-71466850D01*
X115488595Y-71620386D01*
X115599038Y-71754962D01*
X115733614Y-71865405D01*
X115887150Y-71947472D01*
X116053746Y-71998008D01*
X116227000Y-72015072D01*
X116902000Y-72015072D01*
X117075254Y-71998008D01*
X117241850Y-71947472D01*
X117395386Y-71865405D01*
X117529962Y-71754962D01*
X117602000Y-71667183D01*
X117674038Y-71754962D01*
X117808614Y-71865405D01*
X117962150Y-71947472D01*
X118128746Y-71998008D01*
X118302000Y-72015072D01*
X118485556Y-72015072D01*
X118411614Y-72054595D01*
X118277038Y-72165038D01*
X118193360Y-72267000D01*
X117886454Y-72267000D01*
X117838256Y-72234795D01*
X117649898Y-72156774D01*
X117449939Y-72117000D01*
X117246061Y-72117000D01*
X117046102Y-72156774D01*
X116857744Y-72234795D01*
X116688226Y-72348063D01*
X116544063Y-72492226D01*
X116430795Y-72661744D01*
X116352774Y-72850102D01*
X116313000Y-73050061D01*
X116313000Y-73253939D01*
X116352774Y-73453898D01*
X116430795Y-73642256D01*
X116544063Y-73811774D01*
X116688226Y-73955937D01*
X116857744Y-74069205D01*
X117046102Y-74147226D01*
X117246061Y-74187000D01*
X117327380Y-74187000D01*
X117319990Y-74262034D01*
X117319990Y-74262041D01*
X117315709Y-74305510D01*
X117319990Y-74348979D01*
X117319991Y-76235511D01*
X117315709Y-76278990D01*
X117332795Y-76452480D01*
X117383402Y-76619303D01*
X117465580Y-76773049D01*
X117548458Y-76874036D01*
X117548461Y-76874039D01*
X117576174Y-76907807D01*
X117609941Y-76935519D01*
X117903928Y-77229506D01*
X117903928Y-77666001D01*
X117920992Y-77839255D01*
X117971528Y-78005851D01*
X118053595Y-78159387D01*
X118164038Y-78293962D01*
X118298613Y-78404405D01*
X118452149Y-78486472D01*
X118618745Y-78537008D01*
X118791999Y-78554072D01*
X119492001Y-78554072D01*
X119665255Y-78537008D01*
X119831851Y-78486472D01*
X119985387Y-78404405D01*
X120119962Y-78293962D01*
X120142000Y-78267109D01*
X120164038Y-78293962D01*
X120298613Y-78404405D01*
X120452149Y-78486472D01*
X120618745Y-78537008D01*
X120791999Y-78554072D01*
X121492001Y-78554072D01*
X121665255Y-78537008D01*
X121831851Y-78486472D01*
X121985387Y-78404405D01*
X122119962Y-78293962D01*
X122230405Y-78159387D01*
X122312472Y-78005851D01*
X122363008Y-77839255D01*
X122380072Y-77666001D01*
X122380072Y-77229507D01*
X122451049Y-77158530D01*
X122484817Y-77130817D01*
X122595411Y-76996059D01*
X122677589Y-76842313D01*
X122728195Y-76675490D01*
X122741000Y-76545477D01*
X122741000Y-76545467D01*
X122745281Y-76502001D01*
X122741000Y-76458535D01*
X122741000Y-75953122D01*
X122837185Y-75874185D01*
X122916537Y-75777494D01*
X122956000Y-75703665D01*
X122995463Y-75777494D01*
X123074815Y-75874185D01*
X123171506Y-75953537D01*
X123281820Y-76012502D01*
X123401518Y-76048812D01*
X123526000Y-76061072D01*
X124363349Y-76061072D01*
X122086958Y-78337464D01*
X122086953Y-78337468D01*
X119616494Y-80807928D01*
X118530000Y-80807928D01*
X118405518Y-80820188D01*
X118285820Y-80856498D01*
X118175506Y-80915463D01*
X118078815Y-80994815D01*
X117999463Y-81091506D01*
X117965892Y-81154313D01*
X116709000Y-79897422D01*
X116709000Y-76992454D01*
X116741205Y-76944256D01*
X116819226Y-76755898D01*
X116859000Y-76555939D01*
X116859000Y-76352061D01*
X116819226Y-76152102D01*
X116741205Y-75963744D01*
X116627937Y-75794226D01*
X116483774Y-75650063D01*
X116314256Y-75536795D01*
X116125898Y-75458774D01*
X115925939Y-75419000D01*
X115722061Y-75419000D01*
X115522102Y-75458774D01*
X115333744Y-75536795D01*
X115164226Y-75650063D01*
X115020063Y-75794226D01*
X114906795Y-75963744D01*
X114828774Y-76152102D01*
X114789000Y-76352061D01*
X114789000Y-76555939D01*
X114828774Y-76755898D01*
X114906795Y-76944256D01*
X114939000Y-76992455D01*
X114939001Y-80220521D01*
X114934719Y-80264000D01*
X114951805Y-80437490D01*
X115002412Y-80604313D01*
X115084590Y-80758059D01*
X115167468Y-80859046D01*
X115167471Y-80859049D01*
X115195184Y-80892817D01*
X115228951Y-80920529D01*
X115247656Y-80939234D01*
X114974750Y-80993518D01*
X114640801Y-81131844D01*
X114340256Y-81332662D01*
X114084662Y-81588256D01*
X113964000Y-81768839D01*
X113964000Y-47747161D01*
X114084662Y-47927744D01*
X114340256Y-48183338D01*
X114640801Y-48384156D01*
X114974750Y-48522482D01*
X115329268Y-48593000D01*
X115690732Y-48593000D01*
X116045250Y-48522482D01*
X116379199Y-48384156D01*
X116679744Y-48183338D01*
X116935338Y-47927744D01*
X117136156Y-47627199D01*
X117274482Y-47293250D01*
X117345000Y-46938732D01*
X117345000Y-46577268D01*
X117274482Y-46222750D01*
X117136156Y-45888801D01*
X116935338Y-45588256D01*
X116679744Y-45332662D01*
X116379199Y-45131844D01*
X116045250Y-44993518D01*
X115690732Y-44923000D01*
X115329268Y-44923000D01*
X114974750Y-44993518D01*
X114640801Y-45131844D01*
X114340256Y-45332662D01*
X114084662Y-45588256D01*
X113964000Y-45768839D01*
X113964000Y-44420000D01*
X117283928Y-44420000D01*
X117296188Y-44544482D01*
X117332498Y-44664180D01*
X117391463Y-44774494D01*
X117470815Y-44871185D01*
X117567506Y-44950537D01*
X117677820Y-45009502D01*
X117797518Y-45045812D01*
X117922000Y-45058072D01*
X118786250Y-45055000D01*
X118945000Y-44896250D01*
X118945000Y-42997000D01*
X117445750Y-42997000D01*
X117287000Y-43155750D01*
X117283928Y-44420000D01*
X113964000Y-44420000D01*
X113964000Y-42879594D01*
X115134768Y-41782000D01*
X117285051Y-41782000D01*
X117287000Y-42584250D01*
%TA.AperFunction,Conductor*%
D26*
G36*
X117287000Y-42584250D02*
G01*
X117445750Y-42743000D01*
X118945000Y-42743000D01*
X118945000Y-42723000D01*
X119199000Y-42723000D01*
X119199000Y-42743000D01*
X120698250Y-42743000D01*
X120857000Y-42584250D01*
X120858949Y-41782000D01*
X132125051Y-41782000D01*
X132127000Y-42584250D01*
X132285750Y-42743000D01*
X133785000Y-42743000D01*
X133785000Y-42723000D01*
X134039000Y-42723000D01*
X134039000Y-42743000D01*
X135538250Y-42743000D01*
X135697000Y-42584250D01*
X135698949Y-41782000D01*
X136381909Y-41782000D01*
X137466001Y-42866093D01*
X137466001Y-45634146D01*
X137435338Y-45588256D01*
X137179744Y-45332662D01*
X136879199Y-45131844D01*
X136545250Y-44993518D01*
X136190732Y-44923000D01*
X135829268Y-44923000D01*
X135474750Y-44993518D01*
X135140801Y-45131844D01*
X134840256Y-45332662D01*
X134584662Y-45588256D01*
X134383844Y-45888801D01*
X134245518Y-46222750D01*
X134175000Y-46577268D01*
X134175000Y-46938732D01*
X134245518Y-47293250D01*
X134383844Y-47627199D01*
X134584662Y-47927744D01*
X134840256Y-48183338D01*
X135140801Y-48384156D01*
X135474750Y-48522482D01*
X135829268Y-48593000D01*
X136190732Y-48593000D01*
X136545250Y-48522482D01*
X136879199Y-48384156D01*
X137179744Y-48183338D01*
X137435338Y-47927744D01*
X137466001Y-47881854D01*
X137466001Y-51116473D01*
X137461898Y-51114774D01*
X137261939Y-51075000D01*
X137058061Y-51075000D01*
X136858102Y-51114774D01*
X136669744Y-51192795D01*
X136500226Y-51306063D01*
X136356063Y-51450226D01*
X136242795Y-51619744D01*
X136237072Y-51633560D01*
X136237072Y-51497000D01*
X136220008Y-51323746D01*
X136169472Y-51157150D01*
X136087405Y-51003614D01*
X135976962Y-50869038D01*
X135842386Y-50758595D01*
X135688850Y-50676528D01*
X135634000Y-50659890D01*
X135634000Y-50623322D01*
X135637676Y-50585999D01*
X135634000Y-50548676D01*
X135634000Y-50548667D01*
X135623003Y-50437014D01*
X135579546Y-50293753D01*
X135528787Y-50198791D01*
X135508974Y-50161723D01*
X135437799Y-50074997D01*
X135414001Y-50045999D01*
X135385004Y-50022202D01*
X133002000Y-47639199D01*
X133002000Y-45296607D01*
X133017812Y-45244482D01*
X133030072Y-45120000D01*
X133030072Y-45057119D01*
X133626250Y-45055000D01*
X133785000Y-44896250D01*
X133785000Y-42997000D01*
X134039000Y-42997000D01*
X134039000Y-44896250D01*
X134197750Y-45055000D01*
X135062000Y-45058072D01*
X135186482Y-45045812D01*
X135306180Y-45009502D01*
X135416494Y-44950537D01*
X135513185Y-44871185D01*
X135592537Y-44774494D01*
X135651502Y-44664180D01*
X135687812Y-44544482D01*
X135700072Y-44420000D01*
X135697000Y-43155750D01*
X135538250Y-42997000D01*
X134039000Y-42997000D01*
X133785000Y-42997000D01*
X132285750Y-42997000D01*
X132127000Y-43155750D01*
X132126450Y-43381928D01*
X132092000Y-43381928D01*
X131992000Y-43391777D01*
X131892000Y-43381928D01*
X131592000Y-43381928D01*
X131492000Y-43391777D01*
X131392000Y-43381928D01*
X131092000Y-43381928D01*
X130992000Y-43391777D01*
X130892000Y-43381928D01*
X130592000Y-43381928D01*
X130492000Y-43391777D01*
X130392000Y-43381928D01*
X130092000Y-43381928D01*
X129992000Y-43391777D01*
X129892000Y-43381928D01*
X129592000Y-43381928D01*
X129492000Y-43391777D01*
X129392000Y-43381928D01*
X129092000Y-43381928D01*
X128988159Y-43392155D01*
X128923750Y-43385000D01*
X128891503Y-43417247D01*
X128847820Y-43430498D01*
X128742000Y-43487061D01*
X128636180Y-43430498D01*
X128592497Y-43417247D01*
X128560250Y-43385000D01*
X128495841Y-43392155D01*
X128392000Y-43381928D01*
X128092000Y-43381928D01*
X127992000Y-43391777D01*
X127892000Y-43381928D01*
X127592000Y-43381928D01*
X127492000Y-43391777D01*
X127392000Y-43381928D01*
X127092000Y-43381928D01*
X126992000Y-43391777D01*
X126892000Y-43381928D01*
X126592000Y-43381928D01*
X126492000Y-43391777D01*
X126392000Y-43381928D01*
X126092000Y-43381928D01*
X125992000Y-43391777D01*
X125892000Y-43381928D01*
X125592000Y-43381928D01*
X125492000Y-43391777D01*
X125392000Y-43381928D01*
X125092000Y-43381928D01*
X124992000Y-43391777D01*
X124892000Y-43381928D01*
X124592000Y-43381928D01*
X124488159Y-43392155D01*
X124423750Y-43385000D01*
X124391503Y-43417247D01*
X124347820Y-43430498D01*
X124242000Y-43487061D01*
X124136180Y-43430498D01*
X124092497Y-43417247D01*
X124060250Y-43385000D01*
X123995841Y-43392155D01*
X123892000Y-43381928D01*
X123592000Y-43381928D01*
X123492000Y-43391777D01*
X123392000Y-43381928D01*
X123092000Y-43381928D01*
X122992000Y-43391777D01*
X122892000Y-43381928D01*
X122592000Y-43381928D01*
X122492000Y-43391777D01*
X122392000Y-43381928D01*
X122092000Y-43381928D01*
X121992000Y-43391777D01*
X121892000Y-43381928D01*
X121592000Y-43381928D01*
X121492000Y-43391777D01*
X121392000Y-43381928D01*
X121092000Y-43381928D01*
X120992000Y-43391777D01*
X120892000Y-43381928D01*
X120857550Y-43381928D01*
X120857000Y-43155750D01*
X120698250Y-42997000D01*
X119199000Y-42997000D01*
X119199000Y-44896250D01*
X119357750Y-45055000D01*
X119953928Y-45057119D01*
X119953928Y-45120000D01*
X119966188Y-45244482D01*
X120002498Y-45364180D01*
X120061463Y-45474494D01*
X120140815Y-45571185D01*
X120212875Y-45630323D01*
X116907997Y-48935202D01*
X116878999Y-48959000D01*
X116855201Y-48987998D01*
X116855200Y-48987999D01*
X116784025Y-49074725D01*
X116713453Y-49206755D01*
X116700999Y-49247813D01*
X116669997Y-49350015D01*
X116659555Y-49456038D01*
X116655323Y-49499001D01*
X116659000Y-49536333D01*
X116658999Y-61954646D01*
X116568482Y-61927188D01*
X116444000Y-61914928D01*
X116297563Y-61914928D01*
X116267489Y-61905805D01*
X116094000Y-61888718D01*
X115920510Y-61905805D01*
X115890436Y-61914928D01*
X115744000Y-61914928D01*
X115619518Y-61927188D01*
X115499820Y-61963498D01*
X115389506Y-62022463D01*
X115292815Y-62101815D01*
X115213463Y-62198506D01*
X115154498Y-62308820D01*
X115118188Y-62428518D01*
X115105928Y-62553000D01*
X115105928Y-63003000D01*
X115118188Y-63127482D01*
X115154498Y-63247180D01*
X115209000Y-63349145D01*
X115209001Y-66085977D01*
X115221806Y-66215990D01*
X115272412Y-66382813D01*
X115354590Y-66536559D01*
X115465184Y-66671317D01*
X115599942Y-66781911D01*
X115712943Y-66842311D01*
X115950084Y-67079452D01*
X115903933Y-67135687D01*
X115866864Y-67180855D01*
X115789328Y-67325914D01*
X115741582Y-67483312D01*
X115725460Y-67647000D01*
X115729501Y-67688028D01*
X115729500Y-69441971D01*
X115599038Y-69549038D01*
X115488595Y-69683614D01*
X115406528Y-69837150D01*
X115355992Y-70003746D01*
X115338928Y-70177000D01*
X115338928Y-71127000D01*
X115355992Y-71300254D01*
X115406528Y-71466850D01*
X115488595Y-71620386D01*
X115599038Y-71754962D01*
X115733614Y-71865405D01*
X115887150Y-71947472D01*
X116053746Y-71998008D01*
X116227000Y-72015072D01*
X116902000Y-72015072D01*
X117075254Y-71998008D01*
X117241850Y-71947472D01*
X117395386Y-71865405D01*
X117529962Y-71754962D01*
X117602000Y-71667183D01*
X117674038Y-71754962D01*
X117808614Y-71865405D01*
X117962150Y-71947472D01*
X118128746Y-71998008D01*
X118302000Y-72015072D01*
X118485556Y-72015072D01*
X118411614Y-72054595D01*
X118277038Y-72165038D01*
X118193360Y-72267000D01*
X117886454Y-72267000D01*
X117838256Y-72234795D01*
X117649898Y-72156774D01*
X117449939Y-72117000D01*
X117246061Y-72117000D01*
X117046102Y-72156774D01*
X116857744Y-72234795D01*
X116688226Y-72348063D01*
X116544063Y-72492226D01*
X116430795Y-72661744D01*
X116352774Y-72850102D01*
X116313000Y-73050061D01*
X116313000Y-73253939D01*
X116352774Y-73453898D01*
X116430795Y-73642256D01*
X116544063Y-73811774D01*
X116688226Y-73955937D01*
X116857744Y-74069205D01*
X117046102Y-74147226D01*
X117246061Y-74187000D01*
X117327380Y-74187000D01*
X117319990Y-74262034D01*
X117319990Y-74262041D01*
X117315709Y-74305510D01*
X117319990Y-74348979D01*
X117319991Y-76235511D01*
X117315709Y-76278990D01*
X117332795Y-76452480D01*
X117383402Y-76619303D01*
X117465580Y-76773049D01*
X117548458Y-76874036D01*
X117548461Y-76874039D01*
X117576174Y-76907807D01*
X117609941Y-76935519D01*
X117903928Y-77229506D01*
X117903928Y-77666001D01*
X117920992Y-77839255D01*
X117971528Y-78005851D01*
X118053595Y-78159387D01*
X118164038Y-78293962D01*
X118298613Y-78404405D01*
X118452149Y-78486472D01*
X118618745Y-78537008D01*
X118791999Y-78554072D01*
X119492001Y-78554072D01*
X119665255Y-78537008D01*
X119831851Y-78486472D01*
X119985387Y-78404405D01*
X120119962Y-78293962D01*
X120142000Y-78267109D01*
X120164038Y-78293962D01*
X120298613Y-78404405D01*
X120452149Y-78486472D01*
X120618745Y-78537008D01*
X120791999Y-78554072D01*
X121492001Y-78554072D01*
X121665255Y-78537008D01*
X121831851Y-78486472D01*
X121985387Y-78404405D01*
X122119962Y-78293962D01*
X122230405Y-78159387D01*
X122312472Y-78005851D01*
X122363008Y-77839255D01*
X122380072Y-77666001D01*
X122380072Y-77229507D01*
X122451049Y-77158530D01*
X122484817Y-77130817D01*
X122595411Y-76996059D01*
X122677589Y-76842313D01*
X122728195Y-76675490D01*
X122741000Y-76545477D01*
X122741000Y-76545467D01*
X122745281Y-76502001D01*
X122741000Y-76458535D01*
X122741000Y-75953122D01*
X122837185Y-75874185D01*
X122916537Y-75777494D01*
X122956000Y-75703665D01*
X122995463Y-75777494D01*
X123074815Y-75874185D01*
X123171506Y-75953537D01*
X123281820Y-76012502D01*
X123401518Y-76048812D01*
X123526000Y-76061072D01*
X124363349Y-76061072D01*
X122086958Y-78337464D01*
X122086953Y-78337468D01*
X119616494Y-80807928D01*
X118530000Y-80807928D01*
X118405518Y-80820188D01*
X118285820Y-80856498D01*
X118175506Y-80915463D01*
X118078815Y-80994815D01*
X117999463Y-81091506D01*
X117965892Y-81154313D01*
X116709000Y-79897422D01*
X116709000Y-76992454D01*
X116741205Y-76944256D01*
X116819226Y-76755898D01*
X116859000Y-76555939D01*
X116859000Y-76352061D01*
X116819226Y-76152102D01*
X116741205Y-75963744D01*
X116627937Y-75794226D01*
X116483774Y-75650063D01*
X116314256Y-75536795D01*
X116125898Y-75458774D01*
X115925939Y-75419000D01*
X115722061Y-75419000D01*
X115522102Y-75458774D01*
X115333744Y-75536795D01*
X115164226Y-75650063D01*
X115020063Y-75794226D01*
X114906795Y-75963744D01*
X114828774Y-76152102D01*
X114789000Y-76352061D01*
X114789000Y-76555939D01*
X114828774Y-76755898D01*
X114906795Y-76944256D01*
X114939000Y-76992455D01*
X114939001Y-80220521D01*
X114934719Y-80264000D01*
X114951805Y-80437490D01*
X115002412Y-80604313D01*
X115084590Y-80758059D01*
X115167468Y-80859046D01*
X115167471Y-80859049D01*
X115195184Y-80892817D01*
X115228951Y-80920529D01*
X115247656Y-80939234D01*
X114974750Y-80993518D01*
X114640801Y-81131844D01*
X114340256Y-81332662D01*
X114084662Y-81588256D01*
X113964000Y-81768839D01*
X113964000Y-47747161D01*
X114084662Y-47927744D01*
X114340256Y-48183338D01*
X114640801Y-48384156D01*
X114974750Y-48522482D01*
X115329268Y-48593000D01*
X115690732Y-48593000D01*
X116045250Y-48522482D01*
X116379199Y-48384156D01*
X116679744Y-48183338D01*
X116935338Y-47927744D01*
X117136156Y-47627199D01*
X117274482Y-47293250D01*
X117345000Y-46938732D01*
X117345000Y-46577268D01*
X117274482Y-46222750D01*
X117136156Y-45888801D01*
X116935338Y-45588256D01*
X116679744Y-45332662D01*
X116379199Y-45131844D01*
X116045250Y-44993518D01*
X115690732Y-44923000D01*
X115329268Y-44923000D01*
X114974750Y-44993518D01*
X114640801Y-45131844D01*
X114340256Y-45332662D01*
X114084662Y-45588256D01*
X113964000Y-45768839D01*
X113964000Y-44420000D01*
X117283928Y-44420000D01*
X117296188Y-44544482D01*
X117332498Y-44664180D01*
X117391463Y-44774494D01*
X117470815Y-44871185D01*
X117567506Y-44950537D01*
X117677820Y-45009502D01*
X117797518Y-45045812D01*
X117922000Y-45058072D01*
X118786250Y-45055000D01*
X118945000Y-44896250D01*
X118945000Y-42997000D01*
X117445750Y-42997000D01*
X117287000Y-43155750D01*
X117283928Y-44420000D01*
X113964000Y-44420000D01*
X113964000Y-42879594D01*
X115134768Y-41782000D01*
X117285051Y-41782000D01*
X117287000Y-42584250D01*
G37*
%TD.AperFunction*%
D25*
X119507000Y-75078500D02*
X119527000Y-75078500D01*
X119527000Y-75332500D01*
X119507000Y-75332500D01*
X119507000Y-75352500D01*
X119253000Y-75352500D01*
X119253000Y-75332500D01*
X119233000Y-75332500D01*
X119233000Y-75078500D01*
X119253000Y-75078500D01*
X119253000Y-75058500D01*
X119507000Y-75058500D01*
X119507000Y-75078500D01*
%TA.AperFunction,Conductor*%
D26*
G36*
X119507000Y-75078500D02*
G01*
X119527000Y-75078500D01*
X119527000Y-75332500D01*
X119507000Y-75332500D01*
X119507000Y-75352500D01*
X119253000Y-75352500D01*
X119253000Y-75332500D01*
X119233000Y-75332500D01*
X119233000Y-75078500D01*
X119253000Y-75078500D01*
X119253000Y-75058500D01*
X119507000Y-75058500D01*
X119507000Y-75078500D01*
G37*
%TD.AperFunction*%
D25*
X120849750Y-74021000D02*
X120931859Y-74021000D01*
X120971506Y-74053537D01*
X121081820Y-74112502D01*
X121198841Y-74148000D01*
X121081820Y-74183498D01*
X120971506Y-74242463D01*
X120931859Y-74275000D01*
X120849750Y-74275000D01*
X120707635Y-74417115D01*
X120694502Y-74373820D01*
X120635537Y-74263506D01*
X120556185Y-74166815D01*
X120476406Y-74101342D01*
X120482962Y-74095962D01*
X120548995Y-74015500D01*
X120844250Y-74015500D01*
X120849750Y-74021000D01*
%TA.AperFunction,Conductor*%
D26*
G36*
X120849750Y-74021000D02*
G01*
X120931859Y-74021000D01*
X120971506Y-74053537D01*
X121081820Y-74112502D01*
X121198841Y-74148000D01*
X121081820Y-74183498D01*
X120971506Y-74242463D01*
X120931859Y-74275000D01*
X120849750Y-74275000D01*
X120707635Y-74417115D01*
X120694502Y-74373820D01*
X120635537Y-74263506D01*
X120556185Y-74166815D01*
X120476406Y-74101342D01*
X120482962Y-74095962D01*
X120548995Y-74015500D01*
X120844250Y-74015500D01*
X120849750Y-74021000D01*
G37*
%TD.AperFunction*%
D25*
X123151750Y-70271000D02*
X123951000Y-70271000D01*
X123951000Y-70251000D01*
X124205000Y-70251000D01*
X124205000Y-70271000D01*
X125004250Y-70271000D01*
X125042251Y-70232999D01*
X125929496Y-70232999D01*
X126057561Y-70361064D01*
X126085278Y-70394837D01*
X126220036Y-70505431D01*
X126373782Y-70587609D01*
X126489998Y-70622863D01*
X126540604Y-70638215D01*
X126555401Y-70639672D01*
X126670618Y-70651020D01*
X126670626Y-70651020D01*
X126714095Y-70655301D01*
X126757564Y-70651020D01*
X127797928Y-70651020D01*
X127797928Y-70699990D01*
X125163159Y-70699990D01*
X125163000Y-70683750D01*
X125004250Y-70525000D01*
X124205000Y-70525000D01*
X124205000Y-70545000D01*
X123951000Y-70545000D01*
X123951000Y-70525000D01*
X123151750Y-70525000D01*
X122993000Y-70683750D01*
X122991505Y-70836731D01*
X122974951Y-70845579D01*
X122873963Y-70928458D01*
X122873961Y-70928460D01*
X122840193Y-70956173D01*
X122812480Y-70989941D01*
X121567494Y-72234928D01*
X121326000Y-72234928D01*
X121218657Y-72245500D01*
X120548995Y-72245500D01*
X120482962Y-72165038D01*
X120348386Y-72054595D01*
X120194850Y-71972528D01*
X120028254Y-71921992D01*
X119855000Y-71904928D01*
X119396444Y-71904928D01*
X119470386Y-71865405D01*
X119604962Y-71754962D01*
X119715405Y-71620386D01*
X119797472Y-71466850D01*
X119822797Y-71383364D01*
X119876815Y-71449185D01*
X119973506Y-71528537D01*
X120083820Y-71587502D01*
X120203518Y-71623812D01*
X120328000Y-71636072D01*
X121228000Y-71636072D01*
X121352482Y-71623812D01*
X121472180Y-71587502D01*
X121582494Y-71528537D01*
X121679185Y-71449185D01*
X121758537Y-71352494D01*
X121817502Y-71242180D01*
X121853812Y-71122482D01*
X121866072Y-70998000D01*
X121866072Y-70561506D01*
X122194580Y-70232999D01*
X123113749Y-70232999D01*
X123151750Y-70271000D01*
%TA.AperFunction,Conductor*%
D26*
G36*
X123151750Y-70271000D02*
G01*
X123951000Y-70271000D01*
X123951000Y-70251000D01*
X124205000Y-70251000D01*
X124205000Y-70271000D01*
X125004250Y-70271000D01*
X125042251Y-70232999D01*
X125929496Y-70232999D01*
X126057561Y-70361064D01*
X126085278Y-70394837D01*
X126220036Y-70505431D01*
X126373782Y-70587609D01*
X126489998Y-70622863D01*
X126540604Y-70638215D01*
X126555401Y-70639672D01*
X126670618Y-70651020D01*
X126670626Y-70651020D01*
X126714095Y-70655301D01*
X126757564Y-70651020D01*
X127797928Y-70651020D01*
X127797928Y-70699990D01*
X125163159Y-70699990D01*
X125163000Y-70683750D01*
X125004250Y-70525000D01*
X124205000Y-70525000D01*
X124205000Y-70545000D01*
X123951000Y-70545000D01*
X123951000Y-70525000D01*
X123151750Y-70525000D01*
X122993000Y-70683750D01*
X122991505Y-70836731D01*
X122974951Y-70845579D01*
X122873963Y-70928458D01*
X122873961Y-70928460D01*
X122840193Y-70956173D01*
X122812480Y-70989941D01*
X121567494Y-72234928D01*
X121326000Y-72234928D01*
X121218657Y-72245500D01*
X120548995Y-72245500D01*
X120482962Y-72165038D01*
X120348386Y-72054595D01*
X120194850Y-71972528D01*
X120028254Y-71921992D01*
X119855000Y-71904928D01*
X119396444Y-71904928D01*
X119470386Y-71865405D01*
X119604962Y-71754962D01*
X119715405Y-71620386D01*
X119797472Y-71466850D01*
X119822797Y-71383364D01*
X119876815Y-71449185D01*
X119973506Y-71528537D01*
X120083820Y-71587502D01*
X120203518Y-71623812D01*
X120328000Y-71636072D01*
X121228000Y-71636072D01*
X121352482Y-71623812D01*
X121472180Y-71587502D01*
X121582494Y-71528537D01*
X121679185Y-71449185D01*
X121758537Y-71352494D01*
X121817502Y-71242180D01*
X121853812Y-71122482D01*
X121866072Y-70998000D01*
X121866072Y-70561506D01*
X122194580Y-70232999D01*
X123113749Y-70232999D01*
X123151750Y-70271000D01*
G37*
%TD.AperFunction*%
D25*
X128033744Y-47814285D02*
X128102099Y-47842599D01*
X125523725Y-50420973D01*
X125362254Y-50371992D01*
X125189000Y-50354928D01*
X124239000Y-50354928D01*
X124065746Y-50371992D01*
X123899150Y-50422528D01*
X123745614Y-50504595D01*
X123611038Y-50615038D01*
X123500595Y-50749614D01*
X123418528Y-50903150D01*
X123367992Y-51069746D01*
X123350928Y-51243000D01*
X123350928Y-51918000D01*
X123367992Y-52091254D01*
X123418528Y-52257850D01*
X123500595Y-52411386D01*
X123611038Y-52545962D01*
X123617594Y-52551342D01*
X123537815Y-52616815D01*
X123458463Y-52713506D01*
X123399498Y-52823820D01*
X123363188Y-52943518D01*
X123350928Y-53068000D01*
X123354000Y-53369750D01*
X123512750Y-53528500D01*
X124587000Y-53528500D01*
X124587000Y-53508500D01*
X124841000Y-53508500D01*
X124841000Y-53528500D01*
X124861000Y-53528500D01*
X124861000Y-53782500D01*
X124841000Y-53782500D01*
X124841000Y-54719250D01*
X124999750Y-54878000D01*
X125439000Y-54881072D01*
X125478001Y-54877231D01*
X125478001Y-55739889D01*
X125423150Y-55756528D01*
X125269614Y-55838595D01*
X125135038Y-55949038D01*
X125024595Y-56083614D01*
X124942528Y-56237150D01*
X124891992Y-56403746D01*
X124874928Y-56577000D01*
X124874928Y-57252000D01*
X124891992Y-57425254D01*
X124942528Y-57591850D01*
X125024595Y-57745386D01*
X125135038Y-57879962D01*
X125141594Y-57885342D01*
X125061815Y-57950815D01*
X124982463Y-58047506D01*
X124923498Y-58157820D01*
X124887188Y-58277518D01*
X124874928Y-58402000D01*
X124878000Y-58703750D01*
X125036750Y-58862500D01*
X126111000Y-58862500D01*
X126111000Y-58842500D01*
X126365000Y-58842500D01*
X126365000Y-58862500D01*
X127439250Y-58862500D01*
X127598000Y-58703750D01*
X127601072Y-58402000D01*
X127588812Y-58277518D01*
X127552502Y-58157820D01*
X127493537Y-58047506D01*
X127414185Y-57950815D01*
X127334406Y-57885342D01*
X127340962Y-57879962D01*
X127451405Y-57745386D01*
X127533472Y-57591850D01*
X127584008Y-57425254D01*
X127601072Y-57252000D01*
X127601072Y-56577000D01*
X127584008Y-56403746D01*
X127533472Y-56237150D01*
X127451405Y-56083614D01*
X127340962Y-55949038D01*
X127206386Y-55838595D01*
X127052850Y-55756528D01*
X126998000Y-55739890D01*
X126998000Y-54820694D01*
X127014463Y-54851494D01*
X127093815Y-54948185D01*
X127190506Y-55027537D01*
X127300820Y-55086502D01*
X127420518Y-55122812D01*
X127545000Y-55135072D01*
X127984250Y-55132000D01*
X128143000Y-54973250D01*
X128143000Y-54036500D01*
X128123000Y-54036500D01*
X128123000Y-53782500D01*
X128143000Y-53782500D01*
X128143000Y-53762500D01*
X128397000Y-53762500D01*
X128397000Y-53782500D01*
X128417000Y-53782500D01*
X128417000Y-54036500D01*
X128397000Y-54036500D01*
X128397000Y-54973250D01*
X128555750Y-55132000D01*
X128995000Y-55135072D01*
X129034001Y-55131231D01*
X129034001Y-55739889D01*
X128979150Y-55756528D01*
X128825614Y-55838595D01*
X128691038Y-55949038D01*
X128580595Y-56083614D01*
X128498528Y-56237150D01*
X128447992Y-56403746D01*
X128430928Y-56577000D01*
X128430928Y-57252000D01*
X128447992Y-57425254D01*
X128498528Y-57591850D01*
X128580595Y-57745386D01*
X128691038Y-57879962D01*
X128697594Y-57885342D01*
X128617815Y-57950815D01*
X128538463Y-58047506D01*
X128479498Y-58157820D01*
X128443188Y-58277518D01*
X128430928Y-58402000D01*
X128434000Y-58703750D01*
X128592750Y-58862500D01*
X129667000Y-58862500D01*
X129667000Y-58842500D01*
X129921000Y-58842500D01*
X129921000Y-58862500D01*
X129941000Y-58862500D01*
X129941000Y-59116500D01*
X129921000Y-59116500D01*
X129921000Y-60053250D01*
X130079750Y-60212000D01*
X130316751Y-60213658D01*
X130316751Y-61730271D01*
X130312469Y-61773750D01*
X130329555Y-61947240D01*
X130380162Y-62114063D01*
X130462340Y-62267809D01*
X130545218Y-62368796D01*
X130545221Y-62368799D01*
X130572934Y-62402567D01*
X130606701Y-62430279D01*
X132365928Y-64189507D01*
X132365928Y-64626000D01*
X132378188Y-64750482D01*
X132414498Y-64870180D01*
X132473463Y-64980494D01*
X132552815Y-65077185D01*
X132649506Y-65156537D01*
X132759820Y-65215502D01*
X132879518Y-65251812D01*
X133004000Y-65264072D01*
X134204000Y-65264072D01*
X134328482Y-65251812D01*
X134448180Y-65215502D01*
X134558494Y-65156537D01*
X134655185Y-65077185D01*
X134734537Y-64980494D01*
X134793502Y-64870180D01*
X134829812Y-64750482D01*
X134842072Y-64626000D01*
X134842072Y-63726000D01*
X134829812Y-63601518D01*
X134793502Y-63481820D01*
X134734537Y-63371506D01*
X134655185Y-63274815D01*
X134558494Y-63195463D01*
X134448180Y-63136498D01*
X134328482Y-63100188D01*
X134204000Y-63087928D01*
X133767507Y-63087928D01*
X132086750Y-61407172D01*
X132086750Y-60145084D01*
X132126820Y-60166502D01*
X132246518Y-60202812D01*
X132371000Y-60215072D01*
X132810250Y-60212000D01*
X132969000Y-60053250D01*
X132969000Y-59116500D01*
X133223000Y-59116500D01*
X133223000Y-60053250D01*
X133381750Y-60212000D01*
X133821000Y-60215072D01*
X133945482Y-60202812D01*
X134065180Y-60166502D01*
X134175494Y-60107537D01*
X134272185Y-60028185D01*
X134351537Y-59931494D01*
X134366000Y-59904436D01*
X134380463Y-59931494D01*
X134459815Y-60028185D01*
X134556506Y-60107537D01*
X134666820Y-60166502D01*
X134786518Y-60202812D01*
X134911000Y-60215072D01*
X135350250Y-60212000D01*
X135509000Y-60053250D01*
X135509000Y-59116500D01*
X134434750Y-59116500D01*
X134366000Y-59185250D01*
X134297250Y-59116500D01*
X133223000Y-59116500D01*
X132969000Y-59116500D01*
X132949000Y-59116500D01*
X132949000Y-58862500D01*
X132969000Y-58862500D01*
X132969000Y-58842500D01*
X133223000Y-58842500D01*
X133223000Y-58862500D01*
X134297250Y-58862500D01*
X134366000Y-58793750D01*
X134434750Y-58862500D01*
X135509000Y-58862500D01*
X135509000Y-58842500D01*
X135763000Y-58842500D01*
X135763000Y-58862500D01*
X135783000Y-58862500D01*
X135783000Y-59116500D01*
X135763000Y-59116500D01*
X135763000Y-60053250D01*
X135921750Y-60212000D01*
X136088000Y-60213163D01*
X136088001Y-63051131D01*
X136051204Y-63087928D01*
X135544000Y-63087928D01*
X135419518Y-63100188D01*
X135299820Y-63136498D01*
X135189506Y-63195463D01*
X135092815Y-63274815D01*
X135013463Y-63371506D01*
X134954498Y-63481820D01*
X134918188Y-63601518D01*
X134905928Y-63726000D01*
X134905928Y-64626000D01*
X134918188Y-64750482D01*
X134954498Y-64870180D01*
X135013463Y-64980494D01*
X135092815Y-65077185D01*
X135189506Y-65156537D01*
X135299820Y-65215502D01*
X135419518Y-65251812D01*
X135544000Y-65264072D01*
X135645062Y-65264072D01*
X135410135Y-65499000D01*
X134618106Y-65499000D01*
X134495492Y-65461805D01*
X134365479Y-65449000D01*
X134365471Y-65449000D01*
X134322002Y-65444719D01*
X134278533Y-65449000D01*
X131187072Y-65449000D01*
X131187072Y-65219000D01*
X131170008Y-65045746D01*
X131119472Y-64879150D01*
X131037405Y-64725614D01*
X130926962Y-64591038D01*
X130792386Y-64480595D01*
X130638850Y-64398528D01*
X130472254Y-64347992D01*
X130299000Y-64330928D01*
X129549000Y-64330928D01*
X129375746Y-64347992D01*
X129209150Y-64398528D01*
X129055614Y-64480595D01*
X128921038Y-64591038D01*
X128810595Y-64725614D01*
X128728528Y-64879150D01*
X128677992Y-65045746D01*
X128660928Y-65219000D01*
X128660928Y-67369000D01*
X128671959Y-67481000D01*
X128499803Y-67481000D01*
X128387072Y-67368269D01*
X128387072Y-65219000D01*
X128370008Y-65045746D01*
X128319472Y-64879150D01*
X128237405Y-64725614D01*
X128126962Y-64591038D01*
X127992386Y-64480595D01*
X127838850Y-64398528D01*
X127672254Y-64347992D01*
X127499000Y-64330928D01*
X126749000Y-64330928D01*
X126575746Y-64347992D01*
X126409150Y-64398528D01*
X126255614Y-64480595D01*
X126121038Y-64591038D01*
X126010595Y-64725614D01*
X125928528Y-64879150D01*
X125877992Y-65045746D01*
X125860928Y-65219000D01*
X125860928Y-66305494D01*
X125701422Y-66465000D01*
X125030655Y-66465000D01*
X125036072Y-66410000D01*
X125033000Y-66095750D01*
X124874250Y-65937000D01*
X123825000Y-65937000D01*
X123825000Y-65957000D01*
X123571000Y-65957000D01*
X123571000Y-65937000D01*
X121793000Y-65937000D01*
X121793000Y-65957000D01*
X121539000Y-65957000D01*
X121539000Y-65937000D01*
X120489750Y-65937000D01*
X120331000Y-66095750D01*
X120327928Y-66410000D01*
X120333345Y-66465000D01*
X119336750Y-66465000D01*
X119311250Y-66439500D01*
X118237000Y-66439500D01*
X118237000Y-66459500D01*
X117983000Y-66459500D01*
X117983000Y-66439500D01*
X117963000Y-66439500D01*
X117963000Y-66185500D01*
X117983000Y-66185500D01*
X117983000Y-65248750D01*
X118237000Y-65248750D01*
X118237000Y-66185500D01*
X119311250Y-66185500D01*
X119470000Y-66026750D01*
X119473072Y-65725000D01*
X119460812Y-65600518D01*
X119424502Y-65480820D01*
X119365537Y-65370506D01*
X119286185Y-65273815D01*
X119189494Y-65194463D01*
X119079180Y-65135498D01*
X118959482Y-65099188D01*
X118835000Y-65086928D01*
X118395750Y-65090000D01*
X118237000Y-65248750D01*
X117983000Y-65248750D01*
X117824250Y-65090000D01*
X117385000Y-65086928D01*
X117260518Y-65099188D01*
X117140820Y-65135498D01*
X117030506Y-65194463D01*
X116979000Y-65236733D01*
X116979000Y-63387801D01*
X117105928Y-63514729D01*
X117105928Y-63653000D01*
X117118188Y-63777482D01*
X117154498Y-63897180D01*
X117213463Y-64007494D01*
X117292815Y-64104185D01*
X117389506Y-64183537D01*
X117499820Y-64242502D01*
X117619518Y-64278812D01*
X117701287Y-64286865D01*
X117819466Y-64405044D01*
X117847183Y-64438817D01*
X117981941Y-64549411D01*
X118047005Y-64584188D01*
X118135686Y-64631589D01*
X118293504Y-64679463D01*
X118302510Y-64682195D01*
X118432523Y-64695000D01*
X118432531Y-64695000D01*
X118476000Y-64699281D01*
X118519469Y-64695000D01*
X120511746Y-64695000D01*
X120544276Y-64734637D01*
X120514815Y-64758815D01*
X120435463Y-64855506D01*
X120376498Y-64965820D01*
X120340188Y-65085518D01*
X120327928Y-65210000D01*
X120331000Y-65524250D01*
X120489750Y-65683000D01*
X121539000Y-65683000D01*
X121539000Y-65663000D01*
X121793000Y-65663000D01*
X121793000Y-65683000D01*
X123571000Y-65683000D01*
X123571000Y-65663000D01*
X123825000Y-65663000D01*
X123825000Y-65683000D01*
X124874250Y-65683000D01*
X125033000Y-65524250D01*
X125036072Y-65210000D01*
X125023812Y-65085518D01*
X124987502Y-64965820D01*
X124928537Y-64855506D01*
X124849185Y-64758815D01*
X124819724Y-64734637D01*
X124886405Y-64653387D01*
X124968472Y-64499851D01*
X125019008Y-64333255D01*
X125036072Y-64160001D01*
X125036072Y-63459999D01*
X125019008Y-63286745D01*
X124968472Y-63120149D01*
X124886405Y-62966613D01*
X124775962Y-62832038D01*
X124641387Y-62721595D01*
X124487851Y-62639528D01*
X124321255Y-62588992D01*
X124148001Y-62571928D01*
X123469473Y-62571928D01*
X122430500Y-61532956D01*
X122402783Y-61499183D01*
X122268025Y-61388589D01*
X122114279Y-61306411D01*
X121947456Y-61255805D01*
X121817443Y-61243000D01*
X121817435Y-61243000D01*
X121773966Y-61238719D01*
X121730497Y-61243000D01*
X118854000Y-61243000D01*
X118854000Y-60213680D01*
X119094250Y-60212000D01*
X119253000Y-60053250D01*
X119253000Y-59116500D01*
X119507000Y-59116500D01*
X119507000Y-60053250D01*
X119665750Y-60212000D01*
X120105000Y-60215072D01*
X120229482Y-60202812D01*
X120349180Y-60166502D01*
X120459494Y-60107537D01*
X120556185Y-60028185D01*
X120635537Y-59931494D01*
X120694502Y-59821180D01*
X120730812Y-59701482D01*
X120743072Y-59577000D01*
X124874928Y-59577000D01*
X124887188Y-59701482D01*
X124923498Y-59821180D01*
X124982463Y-59931494D01*
X125061815Y-60028185D01*
X125158506Y-60107537D01*
X125268820Y-60166502D01*
X125388518Y-60202812D01*
X125513000Y-60215072D01*
X125952250Y-60212000D01*
X126111000Y-60053250D01*
X126111000Y-59116500D01*
X126365000Y-59116500D01*
X126365000Y-60053250D01*
X126523750Y-60212000D01*
X126963000Y-60215072D01*
X127087482Y-60202812D01*
X127207180Y-60166502D01*
X127317494Y-60107537D01*
X127414185Y-60028185D01*
X127493537Y-59931494D01*
X127552502Y-59821180D01*
X127588812Y-59701482D01*
X127601072Y-59577000D01*
X128430928Y-59577000D01*
X128443188Y-59701482D01*
X128479498Y-59821180D01*
X128538463Y-59931494D01*
X128617815Y-60028185D01*
X128714506Y-60107537D01*
X128824820Y-60166502D01*
X128944518Y-60202812D01*
X129069000Y-60215072D01*
X129508250Y-60212000D01*
X129667000Y-60053250D01*
X129667000Y-59116500D01*
X128592750Y-59116500D01*
X128434000Y-59275250D01*
X128430928Y-59577000D01*
X127601072Y-59577000D01*
X127598000Y-59275250D01*
X127439250Y-59116500D01*
X126365000Y-59116500D01*
X126111000Y-59116500D01*
X125036750Y-59116500D01*
X124878000Y-59275250D01*
X124874928Y-59577000D01*
X120743072Y-59577000D01*
X120740000Y-59275250D01*
X120581250Y-59116500D01*
X119507000Y-59116500D01*
X119253000Y-59116500D01*
X119233000Y-59116500D01*
X119233000Y-58862500D01*
X119253000Y-58862500D01*
X119253000Y-58842500D01*
X119507000Y-58842500D01*
X119507000Y-58862500D01*
X120581250Y-58862500D01*
X120740000Y-58703750D01*
X120743072Y-58402000D01*
X120730812Y-58277518D01*
X120694502Y-58157820D01*
X120635537Y-58047506D01*
X120556185Y-57950815D01*
X120476406Y-57885342D01*
X120482962Y-57879962D01*
X120593405Y-57745386D01*
X120675472Y-57591850D01*
X120726008Y-57425254D01*
X120743072Y-57252000D01*
X120743072Y-56577000D01*
X120726008Y-56403746D01*
X120675472Y-56237150D01*
X120593405Y-56083614D01*
X120482962Y-55949038D01*
X120348386Y-55838595D01*
X120194850Y-55756528D01*
X120140000Y-55739890D01*
X120140000Y-54806407D01*
X120188820Y-54832502D01*
X120308518Y-54868812D01*
X120433000Y-54881072D01*
X120872250Y-54878000D01*
X121031000Y-54719250D01*
X121031000Y-53782500D01*
X121285000Y-53782500D01*
X121285000Y-54719250D01*
X121443750Y-54878000D01*
X121883000Y-54881072D01*
X122007482Y-54868812D01*
X122127180Y-54832502D01*
X122237494Y-54773537D01*
X122334185Y-54694185D01*
X122413537Y-54597494D01*
X122472502Y-54487180D01*
X122508812Y-54367482D01*
X122521072Y-54243000D01*
X123350928Y-54243000D01*
X123363188Y-54367482D01*
X123399498Y-54487180D01*
X123458463Y-54597494D01*
X123537815Y-54694185D01*
X123634506Y-54773537D01*
X123744820Y-54832502D01*
X123864518Y-54868812D01*
X123989000Y-54881072D01*
X124428250Y-54878000D01*
X124587000Y-54719250D01*
X124587000Y-53782500D01*
X123512750Y-53782500D01*
X123354000Y-53941250D01*
X123350928Y-54243000D01*
X122521072Y-54243000D01*
X122518000Y-53941250D01*
X122359250Y-53782500D01*
X121285000Y-53782500D01*
X121031000Y-53782500D01*
X121011000Y-53782500D01*
X121011000Y-53528500D01*
X121031000Y-53528500D01*
X121031000Y-53508500D01*
X121285000Y-53508500D01*
X121285000Y-53528500D01*
X122359250Y-53528500D01*
X122518000Y-53369750D01*
X122521072Y-53068000D01*
X122508812Y-52943518D01*
X122472502Y-52823820D01*
X122413537Y-52713506D01*
X122334185Y-52616815D01*
X122254406Y-52551342D01*
X122260962Y-52545962D01*
X122371405Y-52411386D01*
X122453472Y-52257850D01*
X122504008Y-52091254D01*
X122521072Y-51918000D01*
X122521072Y-51243000D01*
X122504008Y-51069746D01*
X122453472Y-50903150D01*
X122371405Y-50749614D01*
X122260962Y-50615038D01*
X122126386Y-50504595D01*
X121972850Y-50422528D01*
X121918000Y-50405890D01*
X121918000Y-48745711D01*
X122022226Y-48849937D01*
X122191744Y-48963205D01*
X122376407Y-49039696D01*
X122372000Y-49061852D01*
X122372000Y-49265730D01*
X122411774Y-49465689D01*
X122489795Y-49654047D01*
X122603063Y-49823565D01*
X122747226Y-49967728D01*
X122916744Y-50080996D01*
X123105102Y-50159017D01*
X123305061Y-50198791D01*
X123508939Y-50198791D01*
X123708898Y-50159017D01*
X123897256Y-50080996D01*
X124066774Y-49967728D01*
X124210937Y-49823565D01*
X124324205Y-49654047D01*
X124402226Y-49465689D01*
X124442000Y-49265730D01*
X124442000Y-49061852D01*
X124441779Y-49060742D01*
X124539892Y-49041226D01*
X124728250Y-48963205D01*
X124737996Y-48956693D01*
X124747741Y-48963205D01*
X124936099Y-49041226D01*
X125136058Y-49081000D01*
X125339936Y-49081000D01*
X125539895Y-49041226D01*
X125728253Y-48963205D01*
X125737999Y-48956693D01*
X125747744Y-48963205D01*
X125936102Y-49041226D01*
X126136061Y-49081000D01*
X126339939Y-49081000D01*
X126539898Y-49041226D01*
X126728256Y-48963205D01*
X126897774Y-48849937D01*
X127041937Y-48705774D01*
X127155205Y-48536256D01*
X127233226Y-48347898D01*
X127273000Y-48147939D01*
X127273000Y-48089388D01*
X127282001Y-48082001D01*
X127376974Y-47966276D01*
X127395252Y-47932080D01*
X127571549Y-47932080D01*
X127771508Y-47892306D01*
X127959866Y-47814285D01*
X127996805Y-47789603D01*
X128033744Y-47814285D01*
%TA.AperFunction,Conductor*%
D26*
G36*
X128033744Y-47814285D02*
G01*
X128102099Y-47842599D01*
X125523725Y-50420973D01*
X125362254Y-50371992D01*
X125189000Y-50354928D01*
X124239000Y-50354928D01*
X124065746Y-50371992D01*
X123899150Y-50422528D01*
X123745614Y-50504595D01*
X123611038Y-50615038D01*
X123500595Y-50749614D01*
X123418528Y-50903150D01*
X123367992Y-51069746D01*
X123350928Y-51243000D01*
X123350928Y-51918000D01*
X123367992Y-52091254D01*
X123418528Y-52257850D01*
X123500595Y-52411386D01*
X123611038Y-52545962D01*
X123617594Y-52551342D01*
X123537815Y-52616815D01*
X123458463Y-52713506D01*
X123399498Y-52823820D01*
X123363188Y-52943518D01*
X123350928Y-53068000D01*
X123354000Y-53369750D01*
X123512750Y-53528500D01*
X124587000Y-53528500D01*
X124587000Y-53508500D01*
X124841000Y-53508500D01*
X124841000Y-53528500D01*
X124861000Y-53528500D01*
X124861000Y-53782500D01*
X124841000Y-53782500D01*
X124841000Y-54719250D01*
X124999750Y-54878000D01*
X125439000Y-54881072D01*
X125478001Y-54877231D01*
X125478001Y-55739889D01*
X125423150Y-55756528D01*
X125269614Y-55838595D01*
X125135038Y-55949038D01*
X125024595Y-56083614D01*
X124942528Y-56237150D01*
X124891992Y-56403746D01*
X124874928Y-56577000D01*
X124874928Y-57252000D01*
X124891992Y-57425254D01*
X124942528Y-57591850D01*
X125024595Y-57745386D01*
X125135038Y-57879962D01*
X125141594Y-57885342D01*
X125061815Y-57950815D01*
X124982463Y-58047506D01*
X124923498Y-58157820D01*
X124887188Y-58277518D01*
X124874928Y-58402000D01*
X124878000Y-58703750D01*
X125036750Y-58862500D01*
X126111000Y-58862500D01*
X126111000Y-58842500D01*
X126365000Y-58842500D01*
X126365000Y-58862500D01*
X127439250Y-58862500D01*
X127598000Y-58703750D01*
X127601072Y-58402000D01*
X127588812Y-58277518D01*
X127552502Y-58157820D01*
X127493537Y-58047506D01*
X127414185Y-57950815D01*
X127334406Y-57885342D01*
X127340962Y-57879962D01*
X127451405Y-57745386D01*
X127533472Y-57591850D01*
X127584008Y-57425254D01*
X127601072Y-57252000D01*
X127601072Y-56577000D01*
X127584008Y-56403746D01*
X127533472Y-56237150D01*
X127451405Y-56083614D01*
X127340962Y-55949038D01*
X127206386Y-55838595D01*
X127052850Y-55756528D01*
X126998000Y-55739890D01*
X126998000Y-54820694D01*
X127014463Y-54851494D01*
X127093815Y-54948185D01*
X127190506Y-55027537D01*
X127300820Y-55086502D01*
X127420518Y-55122812D01*
X127545000Y-55135072D01*
X127984250Y-55132000D01*
X128143000Y-54973250D01*
X128143000Y-54036500D01*
X128123000Y-54036500D01*
X128123000Y-53782500D01*
X128143000Y-53782500D01*
X128143000Y-53762500D01*
X128397000Y-53762500D01*
X128397000Y-53782500D01*
X128417000Y-53782500D01*
X128417000Y-54036500D01*
X128397000Y-54036500D01*
X128397000Y-54973250D01*
X128555750Y-55132000D01*
X128995000Y-55135072D01*
X129034001Y-55131231D01*
X129034001Y-55739889D01*
X128979150Y-55756528D01*
X128825614Y-55838595D01*
X128691038Y-55949038D01*
X128580595Y-56083614D01*
X128498528Y-56237150D01*
X128447992Y-56403746D01*
X128430928Y-56577000D01*
X128430928Y-57252000D01*
X128447992Y-57425254D01*
X128498528Y-57591850D01*
X128580595Y-57745386D01*
X128691038Y-57879962D01*
X128697594Y-57885342D01*
X128617815Y-57950815D01*
X128538463Y-58047506D01*
X128479498Y-58157820D01*
X128443188Y-58277518D01*
X128430928Y-58402000D01*
X128434000Y-58703750D01*
X128592750Y-58862500D01*
X129667000Y-58862500D01*
X129667000Y-58842500D01*
X129921000Y-58842500D01*
X129921000Y-58862500D01*
X129941000Y-58862500D01*
X129941000Y-59116500D01*
X129921000Y-59116500D01*
X129921000Y-60053250D01*
X130079750Y-60212000D01*
X130316751Y-60213658D01*
X130316751Y-61730271D01*
X130312469Y-61773750D01*
X130329555Y-61947240D01*
X130380162Y-62114063D01*
X130462340Y-62267809D01*
X130545218Y-62368796D01*
X130545221Y-62368799D01*
X130572934Y-62402567D01*
X130606701Y-62430279D01*
X132365928Y-64189507D01*
X132365928Y-64626000D01*
X132378188Y-64750482D01*
X132414498Y-64870180D01*
X132473463Y-64980494D01*
X132552815Y-65077185D01*
X132649506Y-65156537D01*
X132759820Y-65215502D01*
X132879518Y-65251812D01*
X133004000Y-65264072D01*
X134204000Y-65264072D01*
X134328482Y-65251812D01*
X134448180Y-65215502D01*
X134558494Y-65156537D01*
X134655185Y-65077185D01*
X134734537Y-64980494D01*
X134793502Y-64870180D01*
X134829812Y-64750482D01*
X134842072Y-64626000D01*
X134842072Y-63726000D01*
X134829812Y-63601518D01*
X134793502Y-63481820D01*
X134734537Y-63371506D01*
X134655185Y-63274815D01*
X134558494Y-63195463D01*
X134448180Y-63136498D01*
X134328482Y-63100188D01*
X134204000Y-63087928D01*
X133767507Y-63087928D01*
X132086750Y-61407172D01*
X132086750Y-60145084D01*
X132126820Y-60166502D01*
X132246518Y-60202812D01*
X132371000Y-60215072D01*
X132810250Y-60212000D01*
X132969000Y-60053250D01*
X132969000Y-59116500D01*
X133223000Y-59116500D01*
X133223000Y-60053250D01*
X133381750Y-60212000D01*
X133821000Y-60215072D01*
X133945482Y-60202812D01*
X134065180Y-60166502D01*
X134175494Y-60107537D01*
X134272185Y-60028185D01*
X134351537Y-59931494D01*
X134366000Y-59904436D01*
X134380463Y-59931494D01*
X134459815Y-60028185D01*
X134556506Y-60107537D01*
X134666820Y-60166502D01*
X134786518Y-60202812D01*
X134911000Y-60215072D01*
X135350250Y-60212000D01*
X135509000Y-60053250D01*
X135509000Y-59116500D01*
X134434750Y-59116500D01*
X134366000Y-59185250D01*
X134297250Y-59116500D01*
X133223000Y-59116500D01*
X132969000Y-59116500D01*
X132949000Y-59116500D01*
X132949000Y-58862500D01*
X132969000Y-58862500D01*
X132969000Y-58842500D01*
X133223000Y-58842500D01*
X133223000Y-58862500D01*
X134297250Y-58862500D01*
X134366000Y-58793750D01*
X134434750Y-58862500D01*
X135509000Y-58862500D01*
X135509000Y-58842500D01*
X135763000Y-58842500D01*
X135763000Y-58862500D01*
X135783000Y-58862500D01*
X135783000Y-59116500D01*
X135763000Y-59116500D01*
X135763000Y-60053250D01*
X135921750Y-60212000D01*
X136088000Y-60213163D01*
X136088001Y-63051131D01*
X136051204Y-63087928D01*
X135544000Y-63087928D01*
X135419518Y-63100188D01*
X135299820Y-63136498D01*
X135189506Y-63195463D01*
X135092815Y-63274815D01*
X135013463Y-63371506D01*
X134954498Y-63481820D01*
X134918188Y-63601518D01*
X134905928Y-63726000D01*
X134905928Y-64626000D01*
X134918188Y-64750482D01*
X134954498Y-64870180D01*
X135013463Y-64980494D01*
X135092815Y-65077185D01*
X135189506Y-65156537D01*
X135299820Y-65215502D01*
X135419518Y-65251812D01*
X135544000Y-65264072D01*
X135645062Y-65264072D01*
X135410135Y-65499000D01*
X134618106Y-65499000D01*
X134495492Y-65461805D01*
X134365479Y-65449000D01*
X134365471Y-65449000D01*
X134322002Y-65444719D01*
X134278533Y-65449000D01*
X131187072Y-65449000D01*
X131187072Y-65219000D01*
X131170008Y-65045746D01*
X131119472Y-64879150D01*
X131037405Y-64725614D01*
X130926962Y-64591038D01*
X130792386Y-64480595D01*
X130638850Y-64398528D01*
X130472254Y-64347992D01*
X130299000Y-64330928D01*
X129549000Y-64330928D01*
X129375746Y-64347992D01*
X129209150Y-64398528D01*
X129055614Y-64480595D01*
X128921038Y-64591038D01*
X128810595Y-64725614D01*
X128728528Y-64879150D01*
X128677992Y-65045746D01*
X128660928Y-65219000D01*
X128660928Y-67369000D01*
X128671959Y-67481000D01*
X128499803Y-67481000D01*
X128387072Y-67368269D01*
X128387072Y-65219000D01*
X128370008Y-65045746D01*
X128319472Y-64879150D01*
X128237405Y-64725614D01*
X128126962Y-64591038D01*
X127992386Y-64480595D01*
X127838850Y-64398528D01*
X127672254Y-64347992D01*
X127499000Y-64330928D01*
X126749000Y-64330928D01*
X126575746Y-64347992D01*
X126409150Y-64398528D01*
X126255614Y-64480595D01*
X126121038Y-64591038D01*
X126010595Y-64725614D01*
X125928528Y-64879150D01*
X125877992Y-65045746D01*
X125860928Y-65219000D01*
X125860928Y-66305494D01*
X125701422Y-66465000D01*
X125030655Y-66465000D01*
X125036072Y-66410000D01*
X125033000Y-66095750D01*
X124874250Y-65937000D01*
X123825000Y-65937000D01*
X123825000Y-65957000D01*
X123571000Y-65957000D01*
X123571000Y-65937000D01*
X121793000Y-65937000D01*
X121793000Y-65957000D01*
X121539000Y-65957000D01*
X121539000Y-65937000D01*
X120489750Y-65937000D01*
X120331000Y-66095750D01*
X120327928Y-66410000D01*
X120333345Y-66465000D01*
X119336750Y-66465000D01*
X119311250Y-66439500D01*
X118237000Y-66439500D01*
X118237000Y-66459500D01*
X117983000Y-66459500D01*
X117983000Y-66439500D01*
X117963000Y-66439500D01*
X117963000Y-66185500D01*
X117983000Y-66185500D01*
X117983000Y-65248750D01*
X118237000Y-65248750D01*
X118237000Y-66185500D01*
X119311250Y-66185500D01*
X119470000Y-66026750D01*
X119473072Y-65725000D01*
X119460812Y-65600518D01*
X119424502Y-65480820D01*
X119365537Y-65370506D01*
X119286185Y-65273815D01*
X119189494Y-65194463D01*
X119079180Y-65135498D01*
X118959482Y-65099188D01*
X118835000Y-65086928D01*
X118395750Y-65090000D01*
X118237000Y-65248750D01*
X117983000Y-65248750D01*
X117824250Y-65090000D01*
X117385000Y-65086928D01*
X117260518Y-65099188D01*
X117140820Y-65135498D01*
X117030506Y-65194463D01*
X116979000Y-65236733D01*
X116979000Y-63387801D01*
X117105928Y-63514729D01*
X117105928Y-63653000D01*
X117118188Y-63777482D01*
X117154498Y-63897180D01*
X117213463Y-64007494D01*
X117292815Y-64104185D01*
X117389506Y-64183537D01*
X117499820Y-64242502D01*
X117619518Y-64278812D01*
X117701287Y-64286865D01*
X117819466Y-64405044D01*
X117847183Y-64438817D01*
X117981941Y-64549411D01*
X118047005Y-64584188D01*
X118135686Y-64631589D01*
X118293504Y-64679463D01*
X118302510Y-64682195D01*
X118432523Y-64695000D01*
X118432531Y-64695000D01*
X118476000Y-64699281D01*
X118519469Y-64695000D01*
X120511746Y-64695000D01*
X120544276Y-64734637D01*
X120514815Y-64758815D01*
X120435463Y-64855506D01*
X120376498Y-64965820D01*
X120340188Y-65085518D01*
X120327928Y-65210000D01*
X120331000Y-65524250D01*
X120489750Y-65683000D01*
X121539000Y-65683000D01*
X121539000Y-65663000D01*
X121793000Y-65663000D01*
X121793000Y-65683000D01*
X123571000Y-65683000D01*
X123571000Y-65663000D01*
X123825000Y-65663000D01*
X123825000Y-65683000D01*
X124874250Y-65683000D01*
X125033000Y-65524250D01*
X125036072Y-65210000D01*
X125023812Y-65085518D01*
X124987502Y-64965820D01*
X124928537Y-64855506D01*
X124849185Y-64758815D01*
X124819724Y-64734637D01*
X124886405Y-64653387D01*
X124968472Y-64499851D01*
X125019008Y-64333255D01*
X125036072Y-64160001D01*
X125036072Y-63459999D01*
X125019008Y-63286745D01*
X124968472Y-63120149D01*
X124886405Y-62966613D01*
X124775962Y-62832038D01*
X124641387Y-62721595D01*
X124487851Y-62639528D01*
X124321255Y-62588992D01*
X124148001Y-62571928D01*
X123469473Y-62571928D01*
X122430500Y-61532956D01*
X122402783Y-61499183D01*
X122268025Y-61388589D01*
X122114279Y-61306411D01*
X121947456Y-61255805D01*
X121817443Y-61243000D01*
X121817435Y-61243000D01*
X121773966Y-61238719D01*
X121730497Y-61243000D01*
X118854000Y-61243000D01*
X118854000Y-60213680D01*
X119094250Y-60212000D01*
X119253000Y-60053250D01*
X119253000Y-59116500D01*
X119507000Y-59116500D01*
X119507000Y-60053250D01*
X119665750Y-60212000D01*
X120105000Y-60215072D01*
X120229482Y-60202812D01*
X120349180Y-60166502D01*
X120459494Y-60107537D01*
X120556185Y-60028185D01*
X120635537Y-59931494D01*
X120694502Y-59821180D01*
X120730812Y-59701482D01*
X120743072Y-59577000D01*
X124874928Y-59577000D01*
X124887188Y-59701482D01*
X124923498Y-59821180D01*
X124982463Y-59931494D01*
X125061815Y-60028185D01*
X125158506Y-60107537D01*
X125268820Y-60166502D01*
X125388518Y-60202812D01*
X125513000Y-60215072D01*
X125952250Y-60212000D01*
X126111000Y-60053250D01*
X126111000Y-59116500D01*
X126365000Y-59116500D01*
X126365000Y-60053250D01*
X126523750Y-60212000D01*
X126963000Y-60215072D01*
X127087482Y-60202812D01*
X127207180Y-60166502D01*
X127317494Y-60107537D01*
X127414185Y-60028185D01*
X127493537Y-59931494D01*
X127552502Y-59821180D01*
X127588812Y-59701482D01*
X127601072Y-59577000D01*
X128430928Y-59577000D01*
X128443188Y-59701482D01*
X128479498Y-59821180D01*
X128538463Y-59931494D01*
X128617815Y-60028185D01*
X128714506Y-60107537D01*
X128824820Y-60166502D01*
X128944518Y-60202812D01*
X129069000Y-60215072D01*
X129508250Y-60212000D01*
X129667000Y-60053250D01*
X129667000Y-59116500D01*
X128592750Y-59116500D01*
X128434000Y-59275250D01*
X128430928Y-59577000D01*
X127601072Y-59577000D01*
X127598000Y-59275250D01*
X127439250Y-59116500D01*
X126365000Y-59116500D01*
X126111000Y-59116500D01*
X125036750Y-59116500D01*
X124878000Y-59275250D01*
X124874928Y-59577000D01*
X120743072Y-59577000D01*
X120740000Y-59275250D01*
X120581250Y-59116500D01*
X119507000Y-59116500D01*
X119253000Y-59116500D01*
X119233000Y-59116500D01*
X119233000Y-58862500D01*
X119253000Y-58862500D01*
X119253000Y-58842500D01*
X119507000Y-58842500D01*
X119507000Y-58862500D01*
X120581250Y-58862500D01*
X120740000Y-58703750D01*
X120743072Y-58402000D01*
X120730812Y-58277518D01*
X120694502Y-58157820D01*
X120635537Y-58047506D01*
X120556185Y-57950815D01*
X120476406Y-57885342D01*
X120482962Y-57879962D01*
X120593405Y-57745386D01*
X120675472Y-57591850D01*
X120726008Y-57425254D01*
X120743072Y-57252000D01*
X120743072Y-56577000D01*
X120726008Y-56403746D01*
X120675472Y-56237150D01*
X120593405Y-56083614D01*
X120482962Y-55949038D01*
X120348386Y-55838595D01*
X120194850Y-55756528D01*
X120140000Y-55739890D01*
X120140000Y-54806407D01*
X120188820Y-54832502D01*
X120308518Y-54868812D01*
X120433000Y-54881072D01*
X120872250Y-54878000D01*
X121031000Y-54719250D01*
X121031000Y-53782500D01*
X121285000Y-53782500D01*
X121285000Y-54719250D01*
X121443750Y-54878000D01*
X121883000Y-54881072D01*
X122007482Y-54868812D01*
X122127180Y-54832502D01*
X122237494Y-54773537D01*
X122334185Y-54694185D01*
X122413537Y-54597494D01*
X122472502Y-54487180D01*
X122508812Y-54367482D01*
X122521072Y-54243000D01*
X123350928Y-54243000D01*
X123363188Y-54367482D01*
X123399498Y-54487180D01*
X123458463Y-54597494D01*
X123537815Y-54694185D01*
X123634506Y-54773537D01*
X123744820Y-54832502D01*
X123864518Y-54868812D01*
X123989000Y-54881072D01*
X124428250Y-54878000D01*
X124587000Y-54719250D01*
X124587000Y-53782500D01*
X123512750Y-53782500D01*
X123354000Y-53941250D01*
X123350928Y-54243000D01*
X122521072Y-54243000D01*
X122518000Y-53941250D01*
X122359250Y-53782500D01*
X121285000Y-53782500D01*
X121031000Y-53782500D01*
X121011000Y-53782500D01*
X121011000Y-53528500D01*
X121031000Y-53528500D01*
X121031000Y-53508500D01*
X121285000Y-53508500D01*
X121285000Y-53528500D01*
X122359250Y-53528500D01*
X122518000Y-53369750D01*
X122521072Y-53068000D01*
X122508812Y-52943518D01*
X122472502Y-52823820D01*
X122413537Y-52713506D01*
X122334185Y-52616815D01*
X122254406Y-52551342D01*
X122260962Y-52545962D01*
X122371405Y-52411386D01*
X122453472Y-52257850D01*
X122504008Y-52091254D01*
X122521072Y-51918000D01*
X122521072Y-51243000D01*
X122504008Y-51069746D01*
X122453472Y-50903150D01*
X122371405Y-50749614D01*
X122260962Y-50615038D01*
X122126386Y-50504595D01*
X121972850Y-50422528D01*
X121918000Y-50405890D01*
X121918000Y-48745711D01*
X122022226Y-48849937D01*
X122191744Y-48963205D01*
X122376407Y-49039696D01*
X122372000Y-49061852D01*
X122372000Y-49265730D01*
X122411774Y-49465689D01*
X122489795Y-49654047D01*
X122603063Y-49823565D01*
X122747226Y-49967728D01*
X122916744Y-50080996D01*
X123105102Y-50159017D01*
X123305061Y-50198791D01*
X123508939Y-50198791D01*
X123708898Y-50159017D01*
X123897256Y-50080996D01*
X124066774Y-49967728D01*
X124210937Y-49823565D01*
X124324205Y-49654047D01*
X124402226Y-49465689D01*
X124442000Y-49265730D01*
X124442000Y-49061852D01*
X124441779Y-49060742D01*
X124539892Y-49041226D01*
X124728250Y-48963205D01*
X124737996Y-48956693D01*
X124747741Y-48963205D01*
X124936099Y-49041226D01*
X125136058Y-49081000D01*
X125339936Y-49081000D01*
X125539895Y-49041226D01*
X125728253Y-48963205D01*
X125737999Y-48956693D01*
X125747744Y-48963205D01*
X125936102Y-49041226D01*
X126136061Y-49081000D01*
X126339939Y-49081000D01*
X126539898Y-49041226D01*
X126728256Y-48963205D01*
X126897774Y-48849937D01*
X127041937Y-48705774D01*
X127155205Y-48536256D01*
X127233226Y-48347898D01*
X127273000Y-48147939D01*
X127273000Y-48089388D01*
X127282001Y-48082001D01*
X127376974Y-47966276D01*
X127395252Y-47932080D01*
X127571549Y-47932080D01*
X127771508Y-47892306D01*
X127959866Y-47814285D01*
X127996805Y-47789603D01*
X128033744Y-47814285D01*
G37*
%TD.AperFunction*%
D25*
X131699000Y-53782500D02*
X131719000Y-53782500D01*
X131719000Y-54036500D01*
X131699000Y-54036500D01*
X131699000Y-54973250D01*
X131857750Y-55132000D01*
X132082001Y-55133568D01*
X132082001Y-55876028D01*
X131993038Y-55949038D01*
X131882595Y-56083614D01*
X131800528Y-56237150D01*
X131749992Y-56403746D01*
X131732928Y-56577000D01*
X131732928Y-57252000D01*
X131749992Y-57425254D01*
X131800528Y-57591850D01*
X131882595Y-57745386D01*
X131993038Y-57879962D01*
X131999594Y-57885342D01*
X131980211Y-57901249D01*
X131941161Y-57828191D01*
X131893053Y-57769572D01*
X131858282Y-57727203D01*
X131858280Y-57727201D01*
X131830567Y-57693433D01*
X131796800Y-57665721D01*
X131157072Y-57025993D01*
X131157072Y-56577000D01*
X131140008Y-56403746D01*
X131089472Y-56237150D01*
X131007405Y-56083614D01*
X130896962Y-55949038D01*
X130762386Y-55838595D01*
X130608850Y-55756528D01*
X130554000Y-55739890D01*
X130554000Y-55060407D01*
X130602820Y-55086502D01*
X130722518Y-55122812D01*
X130847000Y-55135072D01*
X131286250Y-55132000D01*
X131445000Y-54973250D01*
X131445000Y-54036500D01*
X131425000Y-54036500D01*
X131425000Y-53782500D01*
X131445000Y-53782500D01*
X131445000Y-53762500D01*
X131699000Y-53762500D01*
X131699000Y-53782500D01*
%TA.AperFunction,Conductor*%
D26*
G36*
X131699000Y-53782500D02*
G01*
X131719000Y-53782500D01*
X131719000Y-54036500D01*
X131699000Y-54036500D01*
X131699000Y-54973250D01*
X131857750Y-55132000D01*
X132082001Y-55133568D01*
X132082001Y-55876028D01*
X131993038Y-55949038D01*
X131882595Y-56083614D01*
X131800528Y-56237150D01*
X131749992Y-56403746D01*
X131732928Y-56577000D01*
X131732928Y-57252000D01*
X131749992Y-57425254D01*
X131800528Y-57591850D01*
X131882595Y-57745386D01*
X131993038Y-57879962D01*
X131999594Y-57885342D01*
X131980211Y-57901249D01*
X131941161Y-57828191D01*
X131893053Y-57769572D01*
X131858282Y-57727203D01*
X131858280Y-57727201D01*
X131830567Y-57693433D01*
X131796800Y-57665721D01*
X131157072Y-57025993D01*
X131157072Y-56577000D01*
X131140008Y-56403746D01*
X131089472Y-56237150D01*
X131007405Y-56083614D01*
X130896962Y-55949038D01*
X130762386Y-55838595D01*
X130608850Y-55756528D01*
X130554000Y-55739890D01*
X130554000Y-55060407D01*
X130602820Y-55086502D01*
X130722518Y-55122812D01*
X130847000Y-55135072D01*
X131286250Y-55132000D01*
X131445000Y-54973250D01*
X131445000Y-54036500D01*
X131425000Y-54036500D01*
X131425000Y-53782500D01*
X131445000Y-53782500D01*
X131445000Y-53762500D01*
X131699000Y-53762500D01*
X131699000Y-53782500D01*
G37*
%TD.AperFunction*%
D25*
X136242795Y-52600256D02*
X136275001Y-52648456D01*
X136275000Y-55023921D01*
X135609994Y-55688928D01*
X135161000Y-55688928D01*
X134987746Y-55705992D01*
X134821150Y-55756528D01*
X134667614Y-55838595D01*
X134533038Y-55949038D01*
X134422595Y-56083614D01*
X134366000Y-56189495D01*
X134309405Y-56083614D01*
X134198962Y-55949038D01*
X134064386Y-55838595D01*
X133910850Y-55756528D01*
X133744254Y-55705992D01*
X133602000Y-55691981D01*
X133602000Y-54820694D01*
X133618463Y-54851494D01*
X133697815Y-54948185D01*
X133794506Y-55027537D01*
X133904820Y-55086502D01*
X134024518Y-55122812D01*
X134149000Y-55135072D01*
X134588250Y-55132000D01*
X134747000Y-54973250D01*
X134747000Y-54036500D01*
X135001000Y-54036500D01*
X135001000Y-54973250D01*
X135159750Y-55132000D01*
X135599000Y-55135072D01*
X135723482Y-55122812D01*
X135843180Y-55086502D01*
X135953494Y-55027537D01*
X136050185Y-54948185D01*
X136129537Y-54851494D01*
X136188502Y-54741180D01*
X136224812Y-54621482D01*
X136237072Y-54497000D01*
X136234000Y-54195250D01*
X136075250Y-54036500D01*
X135001000Y-54036500D01*
X134747000Y-54036500D01*
X134727000Y-54036500D01*
X134727000Y-53782500D01*
X134747000Y-53782500D01*
X134747000Y-53762500D01*
X135001000Y-53762500D01*
X135001000Y-53782500D01*
X136075250Y-53782500D01*
X136234000Y-53623750D01*
X136237072Y-53322000D01*
X136224812Y-53197518D01*
X136188502Y-53077820D01*
X136129537Y-52967506D01*
X136050185Y-52870815D01*
X135970406Y-52805342D01*
X135976962Y-52799962D01*
X136087405Y-52665386D01*
X136169472Y-52511850D01*
X136184988Y-52460699D01*
X136242795Y-52600256D01*
%TA.AperFunction,Conductor*%
D26*
G36*
X136242795Y-52600256D02*
G01*
X136275001Y-52648456D01*
X136275000Y-55023921D01*
X135609994Y-55688928D01*
X135161000Y-55688928D01*
X134987746Y-55705992D01*
X134821150Y-55756528D01*
X134667614Y-55838595D01*
X134533038Y-55949038D01*
X134422595Y-56083614D01*
X134366000Y-56189495D01*
X134309405Y-56083614D01*
X134198962Y-55949038D01*
X134064386Y-55838595D01*
X133910850Y-55756528D01*
X133744254Y-55705992D01*
X133602000Y-55691981D01*
X133602000Y-54820694D01*
X133618463Y-54851494D01*
X133697815Y-54948185D01*
X133794506Y-55027537D01*
X133904820Y-55086502D01*
X134024518Y-55122812D01*
X134149000Y-55135072D01*
X134588250Y-55132000D01*
X134747000Y-54973250D01*
X134747000Y-54036500D01*
X135001000Y-54036500D01*
X135001000Y-54973250D01*
X135159750Y-55132000D01*
X135599000Y-55135072D01*
X135723482Y-55122812D01*
X135843180Y-55086502D01*
X135953494Y-55027537D01*
X136050185Y-54948185D01*
X136129537Y-54851494D01*
X136188502Y-54741180D01*
X136224812Y-54621482D01*
X136237072Y-54497000D01*
X136234000Y-54195250D01*
X136075250Y-54036500D01*
X135001000Y-54036500D01*
X134747000Y-54036500D01*
X134727000Y-54036500D01*
X134727000Y-53782500D01*
X134747000Y-53782500D01*
X134747000Y-53762500D01*
X135001000Y-53762500D01*
X135001000Y-53782500D01*
X136075250Y-53782500D01*
X136234000Y-53623750D01*
X136237072Y-53322000D01*
X136224812Y-53197518D01*
X136188502Y-53077820D01*
X136129537Y-52967506D01*
X136050185Y-52870815D01*
X135970406Y-52805342D01*
X135976962Y-52799962D01*
X136087405Y-52665386D01*
X136169472Y-52511850D01*
X136184988Y-52460699D01*
X136242795Y-52600256D01*
G37*
%TD.AperFunction*%
%TD*%
M02*
