M48
; DRILL file {KiCad (5.1.10)-1} date 11/28/21 18:03:13
; FORMAT={-:-/ absolute / inch / decimal}
; #@! TF.CreationDate,2021-11-28T18:03:13+01:00
; #@! TF.GenerationSoftware,Kicad,Pcbnew,(5.1.10)-1
FMAT,2
INCH
T1C0.0157
T2C0.0394
T3C0.0787
%
G90
G05
T1
X4.51Y-2.94
X4.56Y-3.01
X4.62Y-2.88
X4.75Y-2.94
X4.8122Y-1.6878
X4.83Y-1.8916
X4.8585Y-1.9356
X4.8913Y-1.8916
X4.93Y-2.56
X4.9306Y-1.8916
X4.95Y-2.77
X4.97Y-1.8916
X5.0185Y-1.8463
X5.06Y-1.8463
X5.07Y-2.18
X5.0794Y-1.6878
X5.19Y-2.18
X5.3Y-2.94
X5.4Y-1.93
X5.4Y-2.0516
X5.41Y-2.63
T2
X4.7Y-3.24
X4.8Y-3.24
X4.9Y-3.24
X5.0Y-3.24
X5.09Y-2.8
X5.09Y-2.9
X5.09Y-3.0
X5.09Y-3.1
X5.1Y-3.24
X5.2Y-3.24
T3
X4.5476Y-1.8409
X4.5476Y-3.2582
X5.3547Y-1.8409
X5.3547Y-3.2582
T0
M30
