%TF.GenerationSoftware,KiCad,Pcbnew,(5.1.10)-1*%
%TF.CreationDate,2021-11-28T18:03:10+01:00*%
%TF.ProjectId,M5StampC3,4d355374-616d-4704-9333-2e6b69636164,rev?*%
%TF.SameCoordinates,Original*%
%TF.FileFunction,Copper,L2,Bot*%
%TF.FilePolarity,Positive*%
%FSLAX46Y46*%
G04 Gerber Fmt 4.6, Leading zero omitted, Abs format (unit mm)*
G04 Created by KiCad (PCBNEW (5.1.10)-1) date 2021-11-28 18:03:10*
%MOMM*%
%LPD*%
G01*
G04 APERTURE LIST*
%TA.AperFunction,ComponentPad*%
%ADD10O,1.700000X1.700000*%
%TD*%
%TA.AperFunction,ComponentPad*%
%ADD11R,1.700000X1.700000*%
%TD*%
%TA.AperFunction,SMDPad,CuDef*%
%ADD12R,2.510000X1.000000*%
%TD*%
%TA.AperFunction,ViaPad*%
%ADD13C,2.400000*%
%TD*%
%TA.AperFunction,ViaPad*%
%ADD14C,0.800000*%
%TD*%
%TA.AperFunction,Conductor*%
%ADD15C,0.500000*%
%TD*%
%TA.AperFunction,Conductor*%
%ADD16C,1.000000*%
%TD*%
%TA.AperFunction,Conductor*%
%ADD17C,0.400000*%
%TD*%
%TA.AperFunction,Conductor*%
%ADD18C,0.250000*%
%TD*%
%TA.AperFunction,Conductor*%
%ADD19C,0.254000*%
%TD*%
%TA.AperFunction,Conductor*%
%ADD20C,0.100000*%
%TD*%
G04 APERTURE END LIST*
D10*
%TO.P,J4,4*%
%TO.N,GND*%
X129286000Y-78740000D03*
%TO.P,J4,3*%
%TO.N,/D+*%
X129286000Y-76200000D03*
%TO.P,J4,2*%
%TO.N,/D-*%
X129286000Y-73660000D03*
D11*
%TO.P,J4,1*%
%TO.N,+5V*%
X129286000Y-71120000D03*
%TD*%
D10*
%TO.P,J3,6*%
%TO.N,GND*%
X132080000Y-82296000D03*
%TO.P,J3,5*%
%TO.N,/G1*%
X129540000Y-82296000D03*
%TO.P,J3,4*%
%TO.N,/EPD_CLK*%
X127000000Y-82296000D03*
%TO.P,J3,3*%
%TO.N,/EPD_MOSI*%
X124460000Y-82296000D03*
%TO.P,J3,2*%
%TO.N,/G0*%
X121920000Y-82296000D03*
D11*
%TO.P,J3,1*%
%TO.N,+3.3VA*%
X119380000Y-82296000D03*
%TD*%
D12*
%TO.P,J2,10*%
%TO.N,GND*%
X132635000Y-78232000D03*
%TO.P,J2,8*%
%TO.N,/D+*%
X132635000Y-73152000D03*
%TO.P,J2,6*%
%TO.N,GND*%
X132635000Y-68072000D03*
%TO.P,J2,4*%
%TO.N,N/C*%
X132635000Y-62992000D03*
%TO.P,J2,2*%
X132635000Y-57912000D03*
%TO.P,J2,9*%
%TO.N,+5V*%
X135945000Y-75692000D03*
%TO.P,J2,7*%
%TO.N,/D-*%
X135945000Y-70612000D03*
%TO.P,J2,5*%
%TO.N,/G9*%
X135945000Y-65532000D03*
%TO.P,J2,3*%
%TO.N,N/C*%
X135945000Y-60452000D03*
%TO.P,J2,1*%
%TO.N,+3.3VP*%
X135945000Y-55372000D03*
%TD*%
%TO.P,J1,12*%
%TO.N,/G0*%
X114855000Y-78228000D03*
%TO.P,J1,10*%
%TO.N,+5V*%
X114855000Y-73148000D03*
%TO.P,J1,8*%
X114855000Y-68068000D03*
%TO.P,J1,6*%
%TO.N,/EPD_CLK*%
X114855000Y-62988000D03*
%TO.P,J1,4*%
%TO.N,/EPD_DC*%
X114855000Y-57908000D03*
%TO.P,J1,2*%
%TO.N,/EPD_BUSY*%
X114855000Y-52828000D03*
%TO.P,J1,11*%
%TO.N,/G1*%
X118165000Y-75688000D03*
%TO.P,J1,9*%
%TO.N,GND*%
X118165000Y-70608000D03*
%TO.P,J1,7*%
%TO.N,/EPD_MOSI*%
X118165000Y-65528000D03*
%TO.P,J1,5*%
%TO.N,/EPD_CS*%
X118165000Y-60448000D03*
%TO.P,J1,3*%
%TO.N,/EPD_RST*%
X118165000Y-55368000D03*
%TO.P,J1,1*%
%TO.N,GND*%
X118165000Y-50288000D03*
%TD*%
D13*
%TO.N,*%
X136010000Y-82758000D03*
X115510000Y-82758000D03*
X115510000Y-46758000D03*
X136010000Y-46758000D03*
D14*
%TO.N,+5V*%
X117348000Y-73152000D03*
X134620000Y-74676000D03*
%TO.N,GND*%
X120650000Y-74676000D03*
X125730000Y-70358000D03*
X129016000Y-42870000D03*
X122230000Y-42870000D03*
X128778000Y-55372000D03*
X131826000Y-55372000D03*
X125222000Y-65024000D03*
X114554000Y-74676000D03*
X137160000Y-49022000D03*
%TO.N,+3.3VP*%
X128524000Y-46897080D03*
X137160000Y-52110000D03*
%TO.N,/EPD_MOSI*%
X127469610Y-46897080D03*
%TO.N,/EPD_RST*%
X123407000Y-49163791D03*
%TO.N,/EPD_DC*%
X124237994Y-48046000D03*
%TO.N,/EPD_CS*%
X125237997Y-48046000D03*
%TO.N,/EPD_CLK*%
X126238000Y-48046000D03*
%TO.N,/EPD_BUSY*%
X122682000Y-48046000D03*
%TO.N,/G1*%
X115824000Y-76454000D03*
%TO.N,/G9*%
X137414000Y-66802000D03*
%TD*%
D15*
%TO.N,+5V*%
X117344000Y-73148000D02*
X117348000Y-73152000D01*
X114855000Y-73148000D02*
X117344000Y-73148000D01*
D16*
X114855000Y-68068000D02*
X114855000Y-71073000D01*
D15*
X134620000Y-74676000D02*
X134620000Y-75184000D01*
X135437000Y-75184000D02*
X135945000Y-75692000D01*
X134620000Y-75184000D02*
X135437000Y-75184000D01*
D16*
X114855000Y-71073000D02*
X114855000Y-73148000D01*
D15*
%TO.N,+3.3VP*%
X131947080Y-46897080D02*
X137160000Y-52110000D01*
X128524000Y-46897080D02*
X131947080Y-46897080D01*
X135945000Y-55372000D02*
X136652000Y-55372000D01*
X136652000Y-55372000D02*
X137160000Y-54864000D01*
X137160000Y-54864000D02*
X137160000Y-52110000D01*
%TO.N,/EPD_MOSI*%
X127469610Y-57978390D02*
X127469610Y-46897080D01*
X119920000Y-65528000D02*
X127469610Y-57978390D01*
X118165000Y-65528000D02*
X119920000Y-65528000D01*
X124460000Y-72823000D02*
X124460000Y-82296000D01*
X118165000Y-66528000D02*
X124460000Y-72823000D01*
X118165000Y-65528000D02*
X118165000Y-66528000D01*
%TO.N,/EPD_RST*%
X123407000Y-50126000D02*
X123407000Y-49163791D01*
X118165000Y-55368000D02*
X123407000Y-50126000D01*
%TO.N,/EPD_DC*%
X118190002Y-57908000D02*
X115079010Y-57908000D01*
X124257001Y-51841001D02*
X118190002Y-57908000D01*
X124257001Y-48755790D02*
X124257001Y-51841001D01*
X124237994Y-48736783D02*
X124257001Y-48755790D01*
X124237994Y-48046000D02*
X124237994Y-48736783D01*
%TO.N,/EPD_CS*%
X125237997Y-55130003D02*
X125237997Y-48046000D01*
X119920000Y-60448000D02*
X125237997Y-55130003D01*
X118165000Y-60448000D02*
X119920000Y-60448000D01*
%TO.N,/EPD_CLK*%
X120174002Y-62988000D02*
X115079010Y-62988000D01*
X126087998Y-57074004D02*
X120174002Y-62988000D01*
X126198000Y-48046000D02*
X126087998Y-48156002D01*
X126087998Y-48156002D02*
X126087998Y-57074004D01*
X126238000Y-48046000D02*
X126198000Y-48046000D01*
D17*
X114855000Y-64693002D02*
X114855000Y-62988000D01*
X123170001Y-73008003D02*
X114855000Y-64693002D01*
X123170001Y-82896001D02*
X123170001Y-73008003D01*
X123820001Y-83546001D02*
X123170001Y-82896001D01*
X125749999Y-83546001D02*
X123820001Y-83546001D01*
X127000000Y-82296000D02*
X125749999Y-83546001D01*
D18*
%TO.N,/EPD_BUSY*%
X122682000Y-47815000D02*
X122682000Y-48300000D01*
D15*
X118190002Y-52828000D02*
X115079010Y-52828000D01*
X122282001Y-48736001D02*
X118190002Y-52828000D01*
X122282001Y-48445999D02*
X122282001Y-48736001D01*
X122682000Y-48046000D02*
X122282001Y-48445999D01*
D17*
%TO.N,/G0*%
X117852000Y-78228000D02*
X121920000Y-82296000D01*
X114855000Y-78228000D02*
X117852000Y-78228000D01*
D15*
%TO.N,/G1*%
X116590000Y-75688000D02*
X115824000Y-76454000D01*
X118165000Y-75688000D02*
X116590000Y-75688000D01*
%TO.N,/D+*%
X132334000Y-73152000D02*
X129286000Y-76200000D01*
X132635000Y-73152000D02*
X132334000Y-73152000D01*
%TO.N,/D-*%
X129561998Y-73660000D02*
X129286000Y-73660000D01*
X132609998Y-70612000D02*
X129561998Y-73660000D01*
X135945000Y-70612000D02*
X132609998Y-70612000D01*
%TO.N,/G9*%
X135945000Y-65532000D02*
X136906000Y-65532000D01*
X137414000Y-66040000D02*
X137414000Y-66802000D01*
X136906000Y-65532000D02*
X137414000Y-66040000D01*
%TD*%
D19*
%TO.N,GND*%
X136153465Y-52355044D02*
X136164774Y-52411898D01*
X136242795Y-52600256D01*
X136275001Y-52648456D01*
X136275000Y-54233928D01*
X134690000Y-54233928D01*
X134565518Y-54246188D01*
X134445820Y-54282498D01*
X134335506Y-54341463D01*
X134238815Y-54420815D01*
X134159463Y-54517506D01*
X134100498Y-54627820D01*
X134064188Y-54747518D01*
X134051928Y-54872000D01*
X134051928Y-55872000D01*
X134064188Y-55996482D01*
X134100498Y-56116180D01*
X134159463Y-56226494D01*
X134238815Y-56323185D01*
X134335506Y-56402537D01*
X134445820Y-56461502D01*
X134565518Y-56497812D01*
X134690000Y-56510072D01*
X137200000Y-56510072D01*
X137324482Y-56497812D01*
X137444180Y-56461502D01*
X137466001Y-56449838D01*
X137466001Y-59374162D01*
X137444180Y-59362498D01*
X137324482Y-59326188D01*
X137200000Y-59313928D01*
X134690000Y-59313928D01*
X134565518Y-59326188D01*
X134445820Y-59362498D01*
X134335506Y-59421463D01*
X134238815Y-59500815D01*
X134159463Y-59597506D01*
X134100498Y-59707820D01*
X134064188Y-59827518D01*
X134051928Y-59952000D01*
X134051928Y-60952000D01*
X134064188Y-61076482D01*
X134100498Y-61196180D01*
X134159463Y-61306494D01*
X134238815Y-61403185D01*
X134335506Y-61482537D01*
X134445820Y-61541502D01*
X134565518Y-61577812D01*
X134690000Y-61590072D01*
X137200000Y-61590072D01*
X137324482Y-61577812D01*
X137444180Y-61541502D01*
X137466001Y-61529838D01*
X137466000Y-64454161D01*
X137444180Y-64442498D01*
X137324482Y-64406188D01*
X137200000Y-64393928D01*
X134690000Y-64393928D01*
X134565518Y-64406188D01*
X134445820Y-64442498D01*
X134335506Y-64501463D01*
X134238815Y-64580815D01*
X134159463Y-64677506D01*
X134100498Y-64787820D01*
X134064188Y-64907518D01*
X134051928Y-65032000D01*
X134051928Y-66032000D01*
X134064188Y-66156482D01*
X134100498Y-66276180D01*
X134159463Y-66386494D01*
X134238815Y-66483185D01*
X134335506Y-66562537D01*
X134445820Y-66621502D01*
X134565518Y-66657812D01*
X134690000Y-66670072D01*
X136384965Y-66670072D01*
X136379000Y-66700061D01*
X136379000Y-66903939D01*
X136418774Y-67103898D01*
X136496795Y-67292256D01*
X136610063Y-67461774D01*
X136754226Y-67605937D01*
X136923744Y-67719205D01*
X137112102Y-67797226D01*
X137312061Y-67837000D01*
X137466000Y-67837000D01*
X137466000Y-69534161D01*
X137444180Y-69522498D01*
X137324482Y-69486188D01*
X137200000Y-69473928D01*
X134690000Y-69473928D01*
X134565518Y-69486188D01*
X134445820Y-69522498D01*
X134335506Y-69581463D01*
X134238815Y-69660815D01*
X134184499Y-69727000D01*
X132653467Y-69727000D01*
X132609998Y-69722719D01*
X132566529Y-69727000D01*
X132566521Y-69727000D01*
X132451304Y-69738348D01*
X132436507Y-69739805D01*
X132385901Y-69755157D01*
X132269685Y-69790411D01*
X132115939Y-69872589D01*
X132063645Y-69915506D01*
X132014951Y-69955468D01*
X132014949Y-69955470D01*
X131981181Y-69983183D01*
X131953468Y-70016951D01*
X130774072Y-71196347D01*
X130774072Y-70270000D01*
X130761812Y-70145518D01*
X130725502Y-70025820D01*
X130666537Y-69915506D01*
X130587185Y-69818815D01*
X130490494Y-69739463D01*
X130380180Y-69680498D01*
X130260482Y-69644188D01*
X130136000Y-69631928D01*
X128436000Y-69631928D01*
X128311518Y-69644188D01*
X128191820Y-69680498D01*
X128081506Y-69739463D01*
X127984815Y-69818815D01*
X127905463Y-69915506D01*
X127846498Y-70025820D01*
X127810188Y-70145518D01*
X127797928Y-70270000D01*
X127797928Y-71970000D01*
X127810188Y-72094482D01*
X127846498Y-72214180D01*
X127905463Y-72324494D01*
X127984815Y-72421185D01*
X128081506Y-72500537D01*
X128191820Y-72559502D01*
X128264380Y-72581513D01*
X128132525Y-72713368D01*
X127970010Y-72956589D01*
X127858068Y-73226842D01*
X127801000Y-73513740D01*
X127801000Y-73806260D01*
X127858068Y-74093158D01*
X127970010Y-74363411D01*
X128132525Y-74606632D01*
X128339368Y-74813475D01*
X128513760Y-74930000D01*
X128339368Y-75046525D01*
X128132525Y-75253368D01*
X127970010Y-75496589D01*
X127858068Y-75766842D01*
X127801000Y-76053740D01*
X127801000Y-76346260D01*
X127858068Y-76633158D01*
X127970010Y-76903411D01*
X128132525Y-77146632D01*
X128339368Y-77353475D01*
X128521534Y-77475195D01*
X128404645Y-77544822D01*
X128188412Y-77739731D01*
X128014359Y-77973080D01*
X127889175Y-78235901D01*
X127844524Y-78383110D01*
X127965845Y-78613000D01*
X129159000Y-78613000D01*
X129159000Y-78593000D01*
X129413000Y-78593000D01*
X129413000Y-78613000D01*
X129433000Y-78613000D01*
X129433000Y-78867000D01*
X129413000Y-78867000D01*
X129413000Y-80060814D01*
X129642891Y-80181481D01*
X129917252Y-80084157D01*
X130167355Y-79935178D01*
X130383588Y-79740269D01*
X130557641Y-79506920D01*
X130682825Y-79244099D01*
X130727476Y-79096890D01*
X130606156Y-78867002D01*
X130757379Y-78867002D01*
X130790498Y-78976180D01*
X130849463Y-79086494D01*
X130928815Y-79183185D01*
X131025506Y-79262537D01*
X131135820Y-79321502D01*
X131255518Y-79357812D01*
X131380000Y-79370072D01*
X132349250Y-79367000D01*
X132508000Y-79208250D01*
X132508000Y-78359000D01*
X132762000Y-78359000D01*
X132762000Y-79208250D01*
X132920750Y-79367000D01*
X133890000Y-79370072D01*
X134014482Y-79357812D01*
X134134180Y-79321502D01*
X134244494Y-79262537D01*
X134341185Y-79183185D01*
X134420537Y-79086494D01*
X134479502Y-78976180D01*
X134515812Y-78856482D01*
X134528072Y-78732000D01*
X134525000Y-78517750D01*
X134366250Y-78359000D01*
X132762000Y-78359000D01*
X132508000Y-78359000D01*
X130903750Y-78359000D01*
X130745000Y-78517750D01*
X130743634Y-78612998D01*
X130606156Y-78612998D01*
X130727476Y-78383110D01*
X130682825Y-78235901D01*
X130557641Y-77973080D01*
X130383588Y-77739731D01*
X130375012Y-77732000D01*
X130741928Y-77732000D01*
X130745000Y-77946250D01*
X130903750Y-78105000D01*
X132508000Y-78105000D01*
X132508000Y-77255750D01*
X132762000Y-77255750D01*
X132762000Y-78105000D01*
X134366250Y-78105000D01*
X134525000Y-77946250D01*
X134528072Y-77732000D01*
X134515812Y-77607518D01*
X134479502Y-77487820D01*
X134420537Y-77377506D01*
X134341185Y-77280815D01*
X134244494Y-77201463D01*
X134134180Y-77142498D01*
X134014482Y-77106188D01*
X133890000Y-77093928D01*
X132920750Y-77097000D01*
X132762000Y-77255750D01*
X132508000Y-77255750D01*
X132349250Y-77097000D01*
X131380000Y-77093928D01*
X131255518Y-77106188D01*
X131135820Y-77142498D01*
X131025506Y-77201463D01*
X130928815Y-77280815D01*
X130849463Y-77377506D01*
X130790498Y-77487820D01*
X130754188Y-77607518D01*
X130741928Y-77732000D01*
X130375012Y-77732000D01*
X130167355Y-77544822D01*
X130050466Y-77475195D01*
X130232632Y-77353475D01*
X130439475Y-77146632D01*
X130601990Y-76903411D01*
X130713932Y-76633158D01*
X130771000Y-76346260D01*
X130771000Y-76053740D01*
X130756539Y-75981039D01*
X132447507Y-74290072D01*
X133659581Y-74290072D01*
X133624774Y-74374102D01*
X133585000Y-74574061D01*
X133585000Y-74777939D01*
X133624774Y-74977898D01*
X133702795Y-75166256D01*
X133733496Y-75212203D01*
X133747805Y-75357490D01*
X133798411Y-75524313D01*
X133880589Y-75678059D01*
X133991183Y-75812817D01*
X134051928Y-75862670D01*
X134051928Y-76192000D01*
X134064188Y-76316482D01*
X134100498Y-76436180D01*
X134159463Y-76546494D01*
X134238815Y-76643185D01*
X134335506Y-76722537D01*
X134445820Y-76781502D01*
X134565518Y-76817812D01*
X134690000Y-76830072D01*
X137200000Y-76830072D01*
X137324482Y-76817812D01*
X137444180Y-76781502D01*
X137466000Y-76769839D01*
X137466000Y-81634145D01*
X137435338Y-81588256D01*
X137179744Y-81332662D01*
X136879199Y-81131844D01*
X136545250Y-80993518D01*
X136190732Y-80923000D01*
X135829268Y-80923000D01*
X135474750Y-80993518D01*
X135140801Y-81131844D01*
X134840256Y-81332662D01*
X134584662Y-81588256D01*
X134383844Y-81888801D01*
X134245518Y-82222750D01*
X134175000Y-82577268D01*
X134175000Y-82938732D01*
X134245518Y-83293250D01*
X134383844Y-83627199D01*
X134584662Y-83927744D01*
X134840256Y-84183338D01*
X135140801Y-84384156D01*
X135474750Y-84522482D01*
X135603038Y-84548000D01*
X115916962Y-84548000D01*
X116045250Y-84522482D01*
X116379199Y-84384156D01*
X116679744Y-84183338D01*
X116935338Y-83927744D01*
X117136156Y-83627199D01*
X117274482Y-83293250D01*
X117345000Y-82938732D01*
X117345000Y-82577268D01*
X117274482Y-82222750D01*
X117136156Y-81888801D01*
X116935338Y-81588256D01*
X116679744Y-81332662D01*
X116379199Y-81131844D01*
X116045250Y-80993518D01*
X115690732Y-80923000D01*
X115329268Y-80923000D01*
X114974750Y-80993518D01*
X114640801Y-81131844D01*
X114340256Y-81332662D01*
X114084662Y-81588256D01*
X113964000Y-81768839D01*
X113964000Y-79366072D01*
X116110000Y-79366072D01*
X116234482Y-79353812D01*
X116354180Y-79317502D01*
X116464494Y-79258537D01*
X116561185Y-79179185D01*
X116640537Y-79082494D01*
X116650957Y-79063000D01*
X117506133Y-79063000D01*
X119251060Y-80807928D01*
X118530000Y-80807928D01*
X118405518Y-80820188D01*
X118285820Y-80856498D01*
X118175506Y-80915463D01*
X118078815Y-80994815D01*
X117999463Y-81091506D01*
X117940498Y-81201820D01*
X117904188Y-81321518D01*
X117891928Y-81446000D01*
X117891928Y-83146000D01*
X117904188Y-83270482D01*
X117940498Y-83390180D01*
X117999463Y-83500494D01*
X118078815Y-83597185D01*
X118175506Y-83676537D01*
X118285820Y-83735502D01*
X118405518Y-83771812D01*
X118530000Y-83784072D01*
X120230000Y-83784072D01*
X120354482Y-83771812D01*
X120474180Y-83735502D01*
X120584494Y-83676537D01*
X120681185Y-83597185D01*
X120760537Y-83500494D01*
X120819502Y-83390180D01*
X120841513Y-83317620D01*
X120973368Y-83449475D01*
X121216589Y-83611990D01*
X121486842Y-83723932D01*
X121773740Y-83781000D01*
X122066260Y-83781000D01*
X122353158Y-83723932D01*
X122623411Y-83611990D01*
X122672394Y-83579261D01*
X123200564Y-84107432D01*
X123226710Y-84139292D01*
X123258569Y-84165438D01*
X123258571Y-84165440D01*
X123353855Y-84243637D01*
X123498914Y-84321173D01*
X123656312Y-84368919D01*
X123820001Y-84385041D01*
X123861019Y-84381001D01*
X125708981Y-84381001D01*
X125749999Y-84385041D01*
X125791017Y-84381001D01*
X125791018Y-84381001D01*
X125913688Y-84368919D01*
X126071086Y-84321173D01*
X126216145Y-84243637D01*
X126343290Y-84139292D01*
X126369445Y-84107422D01*
X126722060Y-83754807D01*
X126853740Y-83781000D01*
X127146260Y-83781000D01*
X127433158Y-83723932D01*
X127703411Y-83611990D01*
X127946632Y-83449475D01*
X128153475Y-83242632D01*
X128270000Y-83068240D01*
X128386525Y-83242632D01*
X128593368Y-83449475D01*
X128836589Y-83611990D01*
X129106842Y-83723932D01*
X129393740Y-83781000D01*
X129686260Y-83781000D01*
X129973158Y-83723932D01*
X130243411Y-83611990D01*
X130486632Y-83449475D01*
X130693475Y-83242632D01*
X130815195Y-83060466D01*
X130884822Y-83177355D01*
X131079731Y-83393588D01*
X131313080Y-83567641D01*
X131575901Y-83692825D01*
X131723110Y-83737476D01*
X131953000Y-83616155D01*
X131953000Y-82423000D01*
X132207000Y-82423000D01*
X132207000Y-83616155D01*
X132436890Y-83737476D01*
X132584099Y-83692825D01*
X132846920Y-83567641D01*
X133080269Y-83393588D01*
X133275178Y-83177355D01*
X133424157Y-82927252D01*
X133521481Y-82652891D01*
X133400814Y-82423000D01*
X132207000Y-82423000D01*
X131953000Y-82423000D01*
X131933000Y-82423000D01*
X131933000Y-82169000D01*
X131953000Y-82169000D01*
X131953000Y-80975845D01*
X132207000Y-80975845D01*
X132207000Y-82169000D01*
X133400814Y-82169000D01*
X133521481Y-81939109D01*
X133424157Y-81664748D01*
X133275178Y-81414645D01*
X133080269Y-81198412D01*
X132846920Y-81024359D01*
X132584099Y-80899175D01*
X132436890Y-80854524D01*
X132207000Y-80975845D01*
X131953000Y-80975845D01*
X131723110Y-80854524D01*
X131575901Y-80899175D01*
X131313080Y-81024359D01*
X131079731Y-81198412D01*
X130884822Y-81414645D01*
X130815195Y-81531534D01*
X130693475Y-81349368D01*
X130486632Y-81142525D01*
X130243411Y-80980010D01*
X129973158Y-80868068D01*
X129686260Y-80811000D01*
X129393740Y-80811000D01*
X129106842Y-80868068D01*
X128836589Y-80980010D01*
X128593368Y-81142525D01*
X128386525Y-81349368D01*
X128270000Y-81523760D01*
X128153475Y-81349368D01*
X127946632Y-81142525D01*
X127703411Y-80980010D01*
X127433158Y-80868068D01*
X127146260Y-80811000D01*
X126853740Y-80811000D01*
X126566842Y-80868068D01*
X126296589Y-80980010D01*
X126053368Y-81142525D01*
X125846525Y-81349368D01*
X125730000Y-81523760D01*
X125613475Y-81349368D01*
X125406632Y-81142525D01*
X125345000Y-81101344D01*
X125345000Y-79096890D01*
X127844524Y-79096890D01*
X127889175Y-79244099D01*
X128014359Y-79506920D01*
X128188412Y-79740269D01*
X128404645Y-79935178D01*
X128654748Y-80084157D01*
X128929109Y-80181481D01*
X129159000Y-80060814D01*
X129159000Y-78867000D01*
X127965845Y-78867000D01*
X127844524Y-79096890D01*
X125345000Y-79096890D01*
X125345000Y-72866465D01*
X125349281Y-72822999D01*
X125345000Y-72779533D01*
X125345000Y-72779523D01*
X125332195Y-72649510D01*
X125281589Y-72482687D01*
X125199411Y-72328941D01*
X125088817Y-72194183D01*
X125055051Y-72166472D01*
X121460579Y-68572000D01*
X130741928Y-68572000D01*
X130754188Y-68696482D01*
X130790498Y-68816180D01*
X130849463Y-68926494D01*
X130928815Y-69023185D01*
X131025506Y-69102537D01*
X131135820Y-69161502D01*
X131255518Y-69197812D01*
X131380000Y-69210072D01*
X132349250Y-69207000D01*
X132508000Y-69048250D01*
X132508000Y-68199000D01*
X132762000Y-68199000D01*
X132762000Y-69048250D01*
X132920750Y-69207000D01*
X133890000Y-69210072D01*
X134014482Y-69197812D01*
X134134180Y-69161502D01*
X134244494Y-69102537D01*
X134341185Y-69023185D01*
X134420537Y-68926494D01*
X134479502Y-68816180D01*
X134515812Y-68696482D01*
X134528072Y-68572000D01*
X134525000Y-68357750D01*
X134366250Y-68199000D01*
X132762000Y-68199000D01*
X132508000Y-68199000D01*
X130903750Y-68199000D01*
X130745000Y-68357750D01*
X130741928Y-68572000D01*
X121460579Y-68572000D01*
X120460579Y-67572000D01*
X130741928Y-67572000D01*
X130745000Y-67786250D01*
X130903750Y-67945000D01*
X132508000Y-67945000D01*
X132508000Y-67095750D01*
X132762000Y-67095750D01*
X132762000Y-67945000D01*
X134366250Y-67945000D01*
X134525000Y-67786250D01*
X134528072Y-67572000D01*
X134515812Y-67447518D01*
X134479502Y-67327820D01*
X134420537Y-67217506D01*
X134341185Y-67120815D01*
X134244494Y-67041463D01*
X134134180Y-66982498D01*
X134014482Y-66946188D01*
X133890000Y-66933928D01*
X132920750Y-66937000D01*
X132762000Y-67095750D01*
X132508000Y-67095750D01*
X132349250Y-66937000D01*
X131380000Y-66933928D01*
X131255518Y-66946188D01*
X131135820Y-66982498D01*
X131025506Y-67041463D01*
X130928815Y-67120815D01*
X130849463Y-67217506D01*
X130790498Y-67327820D01*
X130754188Y-67447518D01*
X130741928Y-67572000D01*
X120460579Y-67572000D01*
X119542578Y-66654000D01*
X119544482Y-66653812D01*
X119664180Y-66617502D01*
X119774494Y-66558537D01*
X119871185Y-66479185D01*
X119922163Y-66417068D01*
X119963469Y-66413000D01*
X119963477Y-66413000D01*
X120093490Y-66400195D01*
X120260313Y-66349589D01*
X120414059Y-66267411D01*
X120548817Y-66156817D01*
X120576534Y-66123044D01*
X124207578Y-62492000D01*
X130741928Y-62492000D01*
X130741928Y-63492000D01*
X130754188Y-63616482D01*
X130790498Y-63736180D01*
X130849463Y-63846494D01*
X130928815Y-63943185D01*
X131025506Y-64022537D01*
X131135820Y-64081502D01*
X131255518Y-64117812D01*
X131380000Y-64130072D01*
X133890000Y-64130072D01*
X134014482Y-64117812D01*
X134134180Y-64081502D01*
X134244494Y-64022537D01*
X134341185Y-63943185D01*
X134420537Y-63846494D01*
X134479502Y-63736180D01*
X134515812Y-63616482D01*
X134528072Y-63492000D01*
X134528072Y-62492000D01*
X134515812Y-62367518D01*
X134479502Y-62247820D01*
X134420537Y-62137506D01*
X134341185Y-62040815D01*
X134244494Y-61961463D01*
X134134180Y-61902498D01*
X134014482Y-61866188D01*
X133890000Y-61853928D01*
X131380000Y-61853928D01*
X131255518Y-61866188D01*
X131135820Y-61902498D01*
X131025506Y-61961463D01*
X130928815Y-62040815D01*
X130849463Y-62137506D01*
X130790498Y-62247820D01*
X130754188Y-62367518D01*
X130741928Y-62492000D01*
X124207578Y-62492000D01*
X128064661Y-58634918D01*
X128098427Y-58607207D01*
X128209021Y-58472449D01*
X128291199Y-58318703D01*
X128341805Y-58151880D01*
X128354610Y-58021867D01*
X128354610Y-58021859D01*
X128358891Y-57978390D01*
X128354610Y-57934921D01*
X128354610Y-57412000D01*
X130741928Y-57412000D01*
X130741928Y-58412000D01*
X130754188Y-58536482D01*
X130790498Y-58656180D01*
X130849463Y-58766494D01*
X130928815Y-58863185D01*
X131025506Y-58942537D01*
X131135820Y-59001502D01*
X131255518Y-59037812D01*
X131380000Y-59050072D01*
X133890000Y-59050072D01*
X134014482Y-59037812D01*
X134134180Y-59001502D01*
X134244494Y-58942537D01*
X134341185Y-58863185D01*
X134420537Y-58766494D01*
X134479502Y-58656180D01*
X134515812Y-58536482D01*
X134528072Y-58412000D01*
X134528072Y-57412000D01*
X134515812Y-57287518D01*
X134479502Y-57167820D01*
X134420537Y-57057506D01*
X134341185Y-56960815D01*
X134244494Y-56881463D01*
X134134180Y-56822498D01*
X134014482Y-56786188D01*
X133890000Y-56773928D01*
X131380000Y-56773928D01*
X131255518Y-56786188D01*
X131135820Y-56822498D01*
X131025506Y-56881463D01*
X130928815Y-56960815D01*
X130849463Y-57057506D01*
X130790498Y-57167820D01*
X130754188Y-57287518D01*
X130741928Y-57412000D01*
X128354610Y-57412000D01*
X128354610Y-47918663D01*
X128422061Y-47932080D01*
X128625939Y-47932080D01*
X128825898Y-47892306D01*
X129014256Y-47814285D01*
X129062454Y-47782080D01*
X131580502Y-47782080D01*
X136153465Y-52355044D01*
%TA.AperFunction,Conductor*%
D20*
G36*
X136153465Y-52355044D02*
G01*
X136164774Y-52411898D01*
X136242795Y-52600256D01*
X136275001Y-52648456D01*
X136275000Y-54233928D01*
X134690000Y-54233928D01*
X134565518Y-54246188D01*
X134445820Y-54282498D01*
X134335506Y-54341463D01*
X134238815Y-54420815D01*
X134159463Y-54517506D01*
X134100498Y-54627820D01*
X134064188Y-54747518D01*
X134051928Y-54872000D01*
X134051928Y-55872000D01*
X134064188Y-55996482D01*
X134100498Y-56116180D01*
X134159463Y-56226494D01*
X134238815Y-56323185D01*
X134335506Y-56402537D01*
X134445820Y-56461502D01*
X134565518Y-56497812D01*
X134690000Y-56510072D01*
X137200000Y-56510072D01*
X137324482Y-56497812D01*
X137444180Y-56461502D01*
X137466001Y-56449838D01*
X137466001Y-59374162D01*
X137444180Y-59362498D01*
X137324482Y-59326188D01*
X137200000Y-59313928D01*
X134690000Y-59313928D01*
X134565518Y-59326188D01*
X134445820Y-59362498D01*
X134335506Y-59421463D01*
X134238815Y-59500815D01*
X134159463Y-59597506D01*
X134100498Y-59707820D01*
X134064188Y-59827518D01*
X134051928Y-59952000D01*
X134051928Y-60952000D01*
X134064188Y-61076482D01*
X134100498Y-61196180D01*
X134159463Y-61306494D01*
X134238815Y-61403185D01*
X134335506Y-61482537D01*
X134445820Y-61541502D01*
X134565518Y-61577812D01*
X134690000Y-61590072D01*
X137200000Y-61590072D01*
X137324482Y-61577812D01*
X137444180Y-61541502D01*
X137466001Y-61529838D01*
X137466000Y-64454161D01*
X137444180Y-64442498D01*
X137324482Y-64406188D01*
X137200000Y-64393928D01*
X134690000Y-64393928D01*
X134565518Y-64406188D01*
X134445820Y-64442498D01*
X134335506Y-64501463D01*
X134238815Y-64580815D01*
X134159463Y-64677506D01*
X134100498Y-64787820D01*
X134064188Y-64907518D01*
X134051928Y-65032000D01*
X134051928Y-66032000D01*
X134064188Y-66156482D01*
X134100498Y-66276180D01*
X134159463Y-66386494D01*
X134238815Y-66483185D01*
X134335506Y-66562537D01*
X134445820Y-66621502D01*
X134565518Y-66657812D01*
X134690000Y-66670072D01*
X136384965Y-66670072D01*
X136379000Y-66700061D01*
X136379000Y-66903939D01*
X136418774Y-67103898D01*
X136496795Y-67292256D01*
X136610063Y-67461774D01*
X136754226Y-67605937D01*
X136923744Y-67719205D01*
X137112102Y-67797226D01*
X137312061Y-67837000D01*
X137466000Y-67837000D01*
X137466000Y-69534161D01*
X137444180Y-69522498D01*
X137324482Y-69486188D01*
X137200000Y-69473928D01*
X134690000Y-69473928D01*
X134565518Y-69486188D01*
X134445820Y-69522498D01*
X134335506Y-69581463D01*
X134238815Y-69660815D01*
X134184499Y-69727000D01*
X132653467Y-69727000D01*
X132609998Y-69722719D01*
X132566529Y-69727000D01*
X132566521Y-69727000D01*
X132451304Y-69738348D01*
X132436507Y-69739805D01*
X132385901Y-69755157D01*
X132269685Y-69790411D01*
X132115939Y-69872589D01*
X132063645Y-69915506D01*
X132014951Y-69955468D01*
X132014949Y-69955470D01*
X131981181Y-69983183D01*
X131953468Y-70016951D01*
X130774072Y-71196347D01*
X130774072Y-70270000D01*
X130761812Y-70145518D01*
X130725502Y-70025820D01*
X130666537Y-69915506D01*
X130587185Y-69818815D01*
X130490494Y-69739463D01*
X130380180Y-69680498D01*
X130260482Y-69644188D01*
X130136000Y-69631928D01*
X128436000Y-69631928D01*
X128311518Y-69644188D01*
X128191820Y-69680498D01*
X128081506Y-69739463D01*
X127984815Y-69818815D01*
X127905463Y-69915506D01*
X127846498Y-70025820D01*
X127810188Y-70145518D01*
X127797928Y-70270000D01*
X127797928Y-71970000D01*
X127810188Y-72094482D01*
X127846498Y-72214180D01*
X127905463Y-72324494D01*
X127984815Y-72421185D01*
X128081506Y-72500537D01*
X128191820Y-72559502D01*
X128264380Y-72581513D01*
X128132525Y-72713368D01*
X127970010Y-72956589D01*
X127858068Y-73226842D01*
X127801000Y-73513740D01*
X127801000Y-73806260D01*
X127858068Y-74093158D01*
X127970010Y-74363411D01*
X128132525Y-74606632D01*
X128339368Y-74813475D01*
X128513760Y-74930000D01*
X128339368Y-75046525D01*
X128132525Y-75253368D01*
X127970010Y-75496589D01*
X127858068Y-75766842D01*
X127801000Y-76053740D01*
X127801000Y-76346260D01*
X127858068Y-76633158D01*
X127970010Y-76903411D01*
X128132525Y-77146632D01*
X128339368Y-77353475D01*
X128521534Y-77475195D01*
X128404645Y-77544822D01*
X128188412Y-77739731D01*
X128014359Y-77973080D01*
X127889175Y-78235901D01*
X127844524Y-78383110D01*
X127965845Y-78613000D01*
X129159000Y-78613000D01*
X129159000Y-78593000D01*
X129413000Y-78593000D01*
X129413000Y-78613000D01*
X129433000Y-78613000D01*
X129433000Y-78867000D01*
X129413000Y-78867000D01*
X129413000Y-80060814D01*
X129642891Y-80181481D01*
X129917252Y-80084157D01*
X130167355Y-79935178D01*
X130383588Y-79740269D01*
X130557641Y-79506920D01*
X130682825Y-79244099D01*
X130727476Y-79096890D01*
X130606156Y-78867002D01*
X130757379Y-78867002D01*
X130790498Y-78976180D01*
X130849463Y-79086494D01*
X130928815Y-79183185D01*
X131025506Y-79262537D01*
X131135820Y-79321502D01*
X131255518Y-79357812D01*
X131380000Y-79370072D01*
X132349250Y-79367000D01*
X132508000Y-79208250D01*
X132508000Y-78359000D01*
X132762000Y-78359000D01*
X132762000Y-79208250D01*
X132920750Y-79367000D01*
X133890000Y-79370072D01*
X134014482Y-79357812D01*
X134134180Y-79321502D01*
X134244494Y-79262537D01*
X134341185Y-79183185D01*
X134420537Y-79086494D01*
X134479502Y-78976180D01*
X134515812Y-78856482D01*
X134528072Y-78732000D01*
X134525000Y-78517750D01*
X134366250Y-78359000D01*
X132762000Y-78359000D01*
X132508000Y-78359000D01*
X130903750Y-78359000D01*
X130745000Y-78517750D01*
X130743634Y-78612998D01*
X130606156Y-78612998D01*
X130727476Y-78383110D01*
X130682825Y-78235901D01*
X130557641Y-77973080D01*
X130383588Y-77739731D01*
X130375012Y-77732000D01*
X130741928Y-77732000D01*
X130745000Y-77946250D01*
X130903750Y-78105000D01*
X132508000Y-78105000D01*
X132508000Y-77255750D01*
X132762000Y-77255750D01*
X132762000Y-78105000D01*
X134366250Y-78105000D01*
X134525000Y-77946250D01*
X134528072Y-77732000D01*
X134515812Y-77607518D01*
X134479502Y-77487820D01*
X134420537Y-77377506D01*
X134341185Y-77280815D01*
X134244494Y-77201463D01*
X134134180Y-77142498D01*
X134014482Y-77106188D01*
X133890000Y-77093928D01*
X132920750Y-77097000D01*
X132762000Y-77255750D01*
X132508000Y-77255750D01*
X132349250Y-77097000D01*
X131380000Y-77093928D01*
X131255518Y-77106188D01*
X131135820Y-77142498D01*
X131025506Y-77201463D01*
X130928815Y-77280815D01*
X130849463Y-77377506D01*
X130790498Y-77487820D01*
X130754188Y-77607518D01*
X130741928Y-77732000D01*
X130375012Y-77732000D01*
X130167355Y-77544822D01*
X130050466Y-77475195D01*
X130232632Y-77353475D01*
X130439475Y-77146632D01*
X130601990Y-76903411D01*
X130713932Y-76633158D01*
X130771000Y-76346260D01*
X130771000Y-76053740D01*
X130756539Y-75981039D01*
X132447507Y-74290072D01*
X133659581Y-74290072D01*
X133624774Y-74374102D01*
X133585000Y-74574061D01*
X133585000Y-74777939D01*
X133624774Y-74977898D01*
X133702795Y-75166256D01*
X133733496Y-75212203D01*
X133747805Y-75357490D01*
X133798411Y-75524313D01*
X133880589Y-75678059D01*
X133991183Y-75812817D01*
X134051928Y-75862670D01*
X134051928Y-76192000D01*
X134064188Y-76316482D01*
X134100498Y-76436180D01*
X134159463Y-76546494D01*
X134238815Y-76643185D01*
X134335506Y-76722537D01*
X134445820Y-76781502D01*
X134565518Y-76817812D01*
X134690000Y-76830072D01*
X137200000Y-76830072D01*
X137324482Y-76817812D01*
X137444180Y-76781502D01*
X137466000Y-76769839D01*
X137466000Y-81634145D01*
X137435338Y-81588256D01*
X137179744Y-81332662D01*
X136879199Y-81131844D01*
X136545250Y-80993518D01*
X136190732Y-80923000D01*
X135829268Y-80923000D01*
X135474750Y-80993518D01*
X135140801Y-81131844D01*
X134840256Y-81332662D01*
X134584662Y-81588256D01*
X134383844Y-81888801D01*
X134245518Y-82222750D01*
X134175000Y-82577268D01*
X134175000Y-82938732D01*
X134245518Y-83293250D01*
X134383844Y-83627199D01*
X134584662Y-83927744D01*
X134840256Y-84183338D01*
X135140801Y-84384156D01*
X135474750Y-84522482D01*
X135603038Y-84548000D01*
X115916962Y-84548000D01*
X116045250Y-84522482D01*
X116379199Y-84384156D01*
X116679744Y-84183338D01*
X116935338Y-83927744D01*
X117136156Y-83627199D01*
X117274482Y-83293250D01*
X117345000Y-82938732D01*
X117345000Y-82577268D01*
X117274482Y-82222750D01*
X117136156Y-81888801D01*
X116935338Y-81588256D01*
X116679744Y-81332662D01*
X116379199Y-81131844D01*
X116045250Y-80993518D01*
X115690732Y-80923000D01*
X115329268Y-80923000D01*
X114974750Y-80993518D01*
X114640801Y-81131844D01*
X114340256Y-81332662D01*
X114084662Y-81588256D01*
X113964000Y-81768839D01*
X113964000Y-79366072D01*
X116110000Y-79366072D01*
X116234482Y-79353812D01*
X116354180Y-79317502D01*
X116464494Y-79258537D01*
X116561185Y-79179185D01*
X116640537Y-79082494D01*
X116650957Y-79063000D01*
X117506133Y-79063000D01*
X119251060Y-80807928D01*
X118530000Y-80807928D01*
X118405518Y-80820188D01*
X118285820Y-80856498D01*
X118175506Y-80915463D01*
X118078815Y-80994815D01*
X117999463Y-81091506D01*
X117940498Y-81201820D01*
X117904188Y-81321518D01*
X117891928Y-81446000D01*
X117891928Y-83146000D01*
X117904188Y-83270482D01*
X117940498Y-83390180D01*
X117999463Y-83500494D01*
X118078815Y-83597185D01*
X118175506Y-83676537D01*
X118285820Y-83735502D01*
X118405518Y-83771812D01*
X118530000Y-83784072D01*
X120230000Y-83784072D01*
X120354482Y-83771812D01*
X120474180Y-83735502D01*
X120584494Y-83676537D01*
X120681185Y-83597185D01*
X120760537Y-83500494D01*
X120819502Y-83390180D01*
X120841513Y-83317620D01*
X120973368Y-83449475D01*
X121216589Y-83611990D01*
X121486842Y-83723932D01*
X121773740Y-83781000D01*
X122066260Y-83781000D01*
X122353158Y-83723932D01*
X122623411Y-83611990D01*
X122672394Y-83579261D01*
X123200564Y-84107432D01*
X123226710Y-84139292D01*
X123258569Y-84165438D01*
X123258571Y-84165440D01*
X123353855Y-84243637D01*
X123498914Y-84321173D01*
X123656312Y-84368919D01*
X123820001Y-84385041D01*
X123861019Y-84381001D01*
X125708981Y-84381001D01*
X125749999Y-84385041D01*
X125791017Y-84381001D01*
X125791018Y-84381001D01*
X125913688Y-84368919D01*
X126071086Y-84321173D01*
X126216145Y-84243637D01*
X126343290Y-84139292D01*
X126369445Y-84107422D01*
X126722060Y-83754807D01*
X126853740Y-83781000D01*
X127146260Y-83781000D01*
X127433158Y-83723932D01*
X127703411Y-83611990D01*
X127946632Y-83449475D01*
X128153475Y-83242632D01*
X128270000Y-83068240D01*
X128386525Y-83242632D01*
X128593368Y-83449475D01*
X128836589Y-83611990D01*
X129106842Y-83723932D01*
X129393740Y-83781000D01*
X129686260Y-83781000D01*
X129973158Y-83723932D01*
X130243411Y-83611990D01*
X130486632Y-83449475D01*
X130693475Y-83242632D01*
X130815195Y-83060466D01*
X130884822Y-83177355D01*
X131079731Y-83393588D01*
X131313080Y-83567641D01*
X131575901Y-83692825D01*
X131723110Y-83737476D01*
X131953000Y-83616155D01*
X131953000Y-82423000D01*
X132207000Y-82423000D01*
X132207000Y-83616155D01*
X132436890Y-83737476D01*
X132584099Y-83692825D01*
X132846920Y-83567641D01*
X133080269Y-83393588D01*
X133275178Y-83177355D01*
X133424157Y-82927252D01*
X133521481Y-82652891D01*
X133400814Y-82423000D01*
X132207000Y-82423000D01*
X131953000Y-82423000D01*
X131933000Y-82423000D01*
X131933000Y-82169000D01*
X131953000Y-82169000D01*
X131953000Y-80975845D01*
X132207000Y-80975845D01*
X132207000Y-82169000D01*
X133400814Y-82169000D01*
X133521481Y-81939109D01*
X133424157Y-81664748D01*
X133275178Y-81414645D01*
X133080269Y-81198412D01*
X132846920Y-81024359D01*
X132584099Y-80899175D01*
X132436890Y-80854524D01*
X132207000Y-80975845D01*
X131953000Y-80975845D01*
X131723110Y-80854524D01*
X131575901Y-80899175D01*
X131313080Y-81024359D01*
X131079731Y-81198412D01*
X130884822Y-81414645D01*
X130815195Y-81531534D01*
X130693475Y-81349368D01*
X130486632Y-81142525D01*
X130243411Y-80980010D01*
X129973158Y-80868068D01*
X129686260Y-80811000D01*
X129393740Y-80811000D01*
X129106842Y-80868068D01*
X128836589Y-80980010D01*
X128593368Y-81142525D01*
X128386525Y-81349368D01*
X128270000Y-81523760D01*
X128153475Y-81349368D01*
X127946632Y-81142525D01*
X127703411Y-80980010D01*
X127433158Y-80868068D01*
X127146260Y-80811000D01*
X126853740Y-80811000D01*
X126566842Y-80868068D01*
X126296589Y-80980010D01*
X126053368Y-81142525D01*
X125846525Y-81349368D01*
X125730000Y-81523760D01*
X125613475Y-81349368D01*
X125406632Y-81142525D01*
X125345000Y-81101344D01*
X125345000Y-79096890D01*
X127844524Y-79096890D01*
X127889175Y-79244099D01*
X128014359Y-79506920D01*
X128188412Y-79740269D01*
X128404645Y-79935178D01*
X128654748Y-80084157D01*
X128929109Y-80181481D01*
X129159000Y-80060814D01*
X129159000Y-78867000D01*
X127965845Y-78867000D01*
X127844524Y-79096890D01*
X125345000Y-79096890D01*
X125345000Y-72866465D01*
X125349281Y-72822999D01*
X125345000Y-72779533D01*
X125345000Y-72779523D01*
X125332195Y-72649510D01*
X125281589Y-72482687D01*
X125199411Y-72328941D01*
X125088817Y-72194183D01*
X125055051Y-72166472D01*
X121460579Y-68572000D01*
X130741928Y-68572000D01*
X130754188Y-68696482D01*
X130790498Y-68816180D01*
X130849463Y-68926494D01*
X130928815Y-69023185D01*
X131025506Y-69102537D01*
X131135820Y-69161502D01*
X131255518Y-69197812D01*
X131380000Y-69210072D01*
X132349250Y-69207000D01*
X132508000Y-69048250D01*
X132508000Y-68199000D01*
X132762000Y-68199000D01*
X132762000Y-69048250D01*
X132920750Y-69207000D01*
X133890000Y-69210072D01*
X134014482Y-69197812D01*
X134134180Y-69161502D01*
X134244494Y-69102537D01*
X134341185Y-69023185D01*
X134420537Y-68926494D01*
X134479502Y-68816180D01*
X134515812Y-68696482D01*
X134528072Y-68572000D01*
X134525000Y-68357750D01*
X134366250Y-68199000D01*
X132762000Y-68199000D01*
X132508000Y-68199000D01*
X130903750Y-68199000D01*
X130745000Y-68357750D01*
X130741928Y-68572000D01*
X121460579Y-68572000D01*
X120460579Y-67572000D01*
X130741928Y-67572000D01*
X130745000Y-67786250D01*
X130903750Y-67945000D01*
X132508000Y-67945000D01*
X132508000Y-67095750D01*
X132762000Y-67095750D01*
X132762000Y-67945000D01*
X134366250Y-67945000D01*
X134525000Y-67786250D01*
X134528072Y-67572000D01*
X134515812Y-67447518D01*
X134479502Y-67327820D01*
X134420537Y-67217506D01*
X134341185Y-67120815D01*
X134244494Y-67041463D01*
X134134180Y-66982498D01*
X134014482Y-66946188D01*
X133890000Y-66933928D01*
X132920750Y-66937000D01*
X132762000Y-67095750D01*
X132508000Y-67095750D01*
X132349250Y-66937000D01*
X131380000Y-66933928D01*
X131255518Y-66946188D01*
X131135820Y-66982498D01*
X131025506Y-67041463D01*
X130928815Y-67120815D01*
X130849463Y-67217506D01*
X130790498Y-67327820D01*
X130754188Y-67447518D01*
X130741928Y-67572000D01*
X120460579Y-67572000D01*
X119542578Y-66654000D01*
X119544482Y-66653812D01*
X119664180Y-66617502D01*
X119774494Y-66558537D01*
X119871185Y-66479185D01*
X119922163Y-66417068D01*
X119963469Y-66413000D01*
X119963477Y-66413000D01*
X120093490Y-66400195D01*
X120260313Y-66349589D01*
X120414059Y-66267411D01*
X120548817Y-66156817D01*
X120576534Y-66123044D01*
X124207578Y-62492000D01*
X130741928Y-62492000D01*
X130741928Y-63492000D01*
X130754188Y-63616482D01*
X130790498Y-63736180D01*
X130849463Y-63846494D01*
X130928815Y-63943185D01*
X131025506Y-64022537D01*
X131135820Y-64081502D01*
X131255518Y-64117812D01*
X131380000Y-64130072D01*
X133890000Y-64130072D01*
X134014482Y-64117812D01*
X134134180Y-64081502D01*
X134244494Y-64022537D01*
X134341185Y-63943185D01*
X134420537Y-63846494D01*
X134479502Y-63736180D01*
X134515812Y-63616482D01*
X134528072Y-63492000D01*
X134528072Y-62492000D01*
X134515812Y-62367518D01*
X134479502Y-62247820D01*
X134420537Y-62137506D01*
X134341185Y-62040815D01*
X134244494Y-61961463D01*
X134134180Y-61902498D01*
X134014482Y-61866188D01*
X133890000Y-61853928D01*
X131380000Y-61853928D01*
X131255518Y-61866188D01*
X131135820Y-61902498D01*
X131025506Y-61961463D01*
X130928815Y-62040815D01*
X130849463Y-62137506D01*
X130790498Y-62247820D01*
X130754188Y-62367518D01*
X130741928Y-62492000D01*
X124207578Y-62492000D01*
X128064661Y-58634918D01*
X128098427Y-58607207D01*
X128209021Y-58472449D01*
X128291199Y-58318703D01*
X128341805Y-58151880D01*
X128354610Y-58021867D01*
X128354610Y-58021859D01*
X128358891Y-57978390D01*
X128354610Y-57934921D01*
X128354610Y-57412000D01*
X130741928Y-57412000D01*
X130741928Y-58412000D01*
X130754188Y-58536482D01*
X130790498Y-58656180D01*
X130849463Y-58766494D01*
X130928815Y-58863185D01*
X131025506Y-58942537D01*
X131135820Y-59001502D01*
X131255518Y-59037812D01*
X131380000Y-59050072D01*
X133890000Y-59050072D01*
X134014482Y-59037812D01*
X134134180Y-59001502D01*
X134244494Y-58942537D01*
X134341185Y-58863185D01*
X134420537Y-58766494D01*
X134479502Y-58656180D01*
X134515812Y-58536482D01*
X134528072Y-58412000D01*
X134528072Y-57412000D01*
X134515812Y-57287518D01*
X134479502Y-57167820D01*
X134420537Y-57057506D01*
X134341185Y-56960815D01*
X134244494Y-56881463D01*
X134134180Y-56822498D01*
X134014482Y-56786188D01*
X133890000Y-56773928D01*
X131380000Y-56773928D01*
X131255518Y-56786188D01*
X131135820Y-56822498D01*
X131025506Y-56881463D01*
X130928815Y-56960815D01*
X130849463Y-57057506D01*
X130790498Y-57167820D01*
X130754188Y-57287518D01*
X130741928Y-57412000D01*
X128354610Y-57412000D01*
X128354610Y-47918663D01*
X128422061Y-47932080D01*
X128625939Y-47932080D01*
X128825898Y-47892306D01*
X129014256Y-47814285D01*
X129062454Y-47782080D01*
X131580502Y-47782080D01*
X136153465Y-52355044D01*
G37*
%TD.AperFunction*%
D19*
X118454120Y-69472989D02*
X118450750Y-69473000D01*
X118292000Y-69631750D01*
X118292000Y-70481000D01*
X118312000Y-70481000D01*
X118312000Y-70735000D01*
X118292000Y-70735000D01*
X118292000Y-71584250D01*
X118450750Y-71743000D01*
X119420000Y-71746072D01*
X119544482Y-71733812D01*
X119664180Y-71697502D01*
X119774494Y-71638537D01*
X119871185Y-71559185D01*
X119950537Y-71462494D01*
X120009502Y-71352180D01*
X120045812Y-71232482D01*
X120058072Y-71108000D01*
X120057620Y-71076490D01*
X122335002Y-73353872D01*
X122335001Y-80864456D01*
X122066260Y-80811000D01*
X121773740Y-80811000D01*
X121642061Y-80837193D01*
X118471446Y-77666579D01*
X118445291Y-77634709D01*
X118318146Y-77530364D01*
X118173087Y-77452828D01*
X118015689Y-77405082D01*
X117893019Y-77393000D01*
X117893018Y-77393000D01*
X117852000Y-77388960D01*
X117810982Y-77393000D01*
X116650957Y-77393000D01*
X116640537Y-77373506D01*
X116561185Y-77276815D01*
X116508299Y-77233412D01*
X116627937Y-77113774D01*
X116741205Y-76944256D01*
X116794856Y-76814732D01*
X116910000Y-76826072D01*
X119420000Y-76826072D01*
X119544482Y-76813812D01*
X119664180Y-76777502D01*
X119774494Y-76718537D01*
X119871185Y-76639185D01*
X119950537Y-76542494D01*
X120009502Y-76432180D01*
X120045812Y-76312482D01*
X120058072Y-76188000D01*
X120058072Y-75188000D01*
X120045812Y-75063518D01*
X120009502Y-74943820D01*
X119950537Y-74833506D01*
X119871185Y-74736815D01*
X119774494Y-74657463D01*
X119664180Y-74598498D01*
X119544482Y-74562188D01*
X119420000Y-74549928D01*
X116910000Y-74549928D01*
X116785518Y-74562188D01*
X116665820Y-74598498D01*
X116555506Y-74657463D01*
X116458815Y-74736815D01*
X116386525Y-74824901D01*
X116249686Y-74866411D01*
X116095941Y-74948589D01*
X115994953Y-75031468D01*
X115994951Y-75031470D01*
X115961183Y-75059183D01*
X115933470Y-75092951D01*
X115578956Y-75447465D01*
X115522102Y-75458774D01*
X115333744Y-75536795D01*
X115164226Y-75650063D01*
X115020063Y-75794226D01*
X114906795Y-75963744D01*
X114828774Y-76152102D01*
X114789000Y-76352061D01*
X114789000Y-76555939D01*
X114828774Y-76755898D01*
X114906795Y-76944256D01*
X115004130Y-77089928D01*
X113964000Y-77089928D01*
X113964000Y-74286072D01*
X114830439Y-74286072D01*
X114855000Y-74288491D01*
X114879561Y-74286072D01*
X116110000Y-74286072D01*
X116234482Y-74273812D01*
X116354180Y-74237502D01*
X116464494Y-74178537D01*
X116561185Y-74099185D01*
X116615501Y-74033000D01*
X116803559Y-74033000D01*
X116857744Y-74069205D01*
X117046102Y-74147226D01*
X117246061Y-74187000D01*
X117449939Y-74187000D01*
X117649898Y-74147226D01*
X117838256Y-74069205D01*
X118007774Y-73955937D01*
X118151937Y-73811774D01*
X118265205Y-73642256D01*
X118343226Y-73453898D01*
X118383000Y-73253939D01*
X118383000Y-73050061D01*
X118343226Y-72850102D01*
X118265205Y-72661744D01*
X118151937Y-72492226D01*
X118007774Y-72348063D01*
X117838256Y-72234795D01*
X117649898Y-72156774D01*
X117449939Y-72117000D01*
X117246061Y-72117000D01*
X117046102Y-72156774D01*
X116857744Y-72234795D01*
X116815532Y-72263000D01*
X116615501Y-72263000D01*
X116561185Y-72196815D01*
X116464494Y-72117463D01*
X116354180Y-72058498D01*
X116234482Y-72022188D01*
X116110000Y-72009928D01*
X115990000Y-72009928D01*
X115990000Y-71108000D01*
X116271928Y-71108000D01*
X116284188Y-71232482D01*
X116320498Y-71352180D01*
X116379463Y-71462494D01*
X116458815Y-71559185D01*
X116555506Y-71638537D01*
X116665820Y-71697502D01*
X116785518Y-71733812D01*
X116910000Y-71746072D01*
X117879250Y-71743000D01*
X118038000Y-71584250D01*
X118038000Y-70735000D01*
X116433750Y-70735000D01*
X116275000Y-70893750D01*
X116271928Y-71108000D01*
X115990000Y-71108000D01*
X115990000Y-70108000D01*
X116271928Y-70108000D01*
X116275000Y-70322250D01*
X116433750Y-70481000D01*
X118038000Y-70481000D01*
X118038000Y-69631750D01*
X117879250Y-69473000D01*
X116910000Y-69469928D01*
X116785518Y-69482188D01*
X116665820Y-69518498D01*
X116555506Y-69577463D01*
X116458815Y-69656815D01*
X116379463Y-69753506D01*
X116320498Y-69863820D01*
X116284188Y-69983518D01*
X116271928Y-70108000D01*
X115990000Y-70108000D01*
X115990000Y-69206072D01*
X116110000Y-69206072D01*
X116234482Y-69193812D01*
X116354180Y-69157502D01*
X116464494Y-69098537D01*
X116561185Y-69019185D01*
X116640537Y-68922494D01*
X116699502Y-68812180D01*
X116735812Y-68692482D01*
X116748072Y-68568000D01*
X116748072Y-67766941D01*
X118454120Y-69472989D01*
%TA.AperFunction,Conductor*%
D20*
G36*
X118454120Y-69472989D02*
G01*
X118450750Y-69473000D01*
X118292000Y-69631750D01*
X118292000Y-70481000D01*
X118312000Y-70481000D01*
X118312000Y-70735000D01*
X118292000Y-70735000D01*
X118292000Y-71584250D01*
X118450750Y-71743000D01*
X119420000Y-71746072D01*
X119544482Y-71733812D01*
X119664180Y-71697502D01*
X119774494Y-71638537D01*
X119871185Y-71559185D01*
X119950537Y-71462494D01*
X120009502Y-71352180D01*
X120045812Y-71232482D01*
X120058072Y-71108000D01*
X120057620Y-71076490D01*
X122335002Y-73353872D01*
X122335001Y-80864456D01*
X122066260Y-80811000D01*
X121773740Y-80811000D01*
X121642061Y-80837193D01*
X118471446Y-77666579D01*
X118445291Y-77634709D01*
X118318146Y-77530364D01*
X118173087Y-77452828D01*
X118015689Y-77405082D01*
X117893019Y-77393000D01*
X117893018Y-77393000D01*
X117852000Y-77388960D01*
X117810982Y-77393000D01*
X116650957Y-77393000D01*
X116640537Y-77373506D01*
X116561185Y-77276815D01*
X116508299Y-77233412D01*
X116627937Y-77113774D01*
X116741205Y-76944256D01*
X116794856Y-76814732D01*
X116910000Y-76826072D01*
X119420000Y-76826072D01*
X119544482Y-76813812D01*
X119664180Y-76777502D01*
X119774494Y-76718537D01*
X119871185Y-76639185D01*
X119950537Y-76542494D01*
X120009502Y-76432180D01*
X120045812Y-76312482D01*
X120058072Y-76188000D01*
X120058072Y-75188000D01*
X120045812Y-75063518D01*
X120009502Y-74943820D01*
X119950537Y-74833506D01*
X119871185Y-74736815D01*
X119774494Y-74657463D01*
X119664180Y-74598498D01*
X119544482Y-74562188D01*
X119420000Y-74549928D01*
X116910000Y-74549928D01*
X116785518Y-74562188D01*
X116665820Y-74598498D01*
X116555506Y-74657463D01*
X116458815Y-74736815D01*
X116386525Y-74824901D01*
X116249686Y-74866411D01*
X116095941Y-74948589D01*
X115994953Y-75031468D01*
X115994951Y-75031470D01*
X115961183Y-75059183D01*
X115933470Y-75092951D01*
X115578956Y-75447465D01*
X115522102Y-75458774D01*
X115333744Y-75536795D01*
X115164226Y-75650063D01*
X115020063Y-75794226D01*
X114906795Y-75963744D01*
X114828774Y-76152102D01*
X114789000Y-76352061D01*
X114789000Y-76555939D01*
X114828774Y-76755898D01*
X114906795Y-76944256D01*
X115004130Y-77089928D01*
X113964000Y-77089928D01*
X113964000Y-74286072D01*
X114830439Y-74286072D01*
X114855000Y-74288491D01*
X114879561Y-74286072D01*
X116110000Y-74286072D01*
X116234482Y-74273812D01*
X116354180Y-74237502D01*
X116464494Y-74178537D01*
X116561185Y-74099185D01*
X116615501Y-74033000D01*
X116803559Y-74033000D01*
X116857744Y-74069205D01*
X117046102Y-74147226D01*
X117246061Y-74187000D01*
X117449939Y-74187000D01*
X117649898Y-74147226D01*
X117838256Y-74069205D01*
X118007774Y-73955937D01*
X118151937Y-73811774D01*
X118265205Y-73642256D01*
X118343226Y-73453898D01*
X118383000Y-73253939D01*
X118383000Y-73050061D01*
X118343226Y-72850102D01*
X118265205Y-72661744D01*
X118151937Y-72492226D01*
X118007774Y-72348063D01*
X117838256Y-72234795D01*
X117649898Y-72156774D01*
X117449939Y-72117000D01*
X117246061Y-72117000D01*
X117046102Y-72156774D01*
X116857744Y-72234795D01*
X116815532Y-72263000D01*
X116615501Y-72263000D01*
X116561185Y-72196815D01*
X116464494Y-72117463D01*
X116354180Y-72058498D01*
X116234482Y-72022188D01*
X116110000Y-72009928D01*
X115990000Y-72009928D01*
X115990000Y-71108000D01*
X116271928Y-71108000D01*
X116284188Y-71232482D01*
X116320498Y-71352180D01*
X116379463Y-71462494D01*
X116458815Y-71559185D01*
X116555506Y-71638537D01*
X116665820Y-71697502D01*
X116785518Y-71733812D01*
X116910000Y-71746072D01*
X117879250Y-71743000D01*
X118038000Y-71584250D01*
X118038000Y-70735000D01*
X116433750Y-70735000D01*
X116275000Y-70893750D01*
X116271928Y-71108000D01*
X115990000Y-71108000D01*
X115990000Y-70108000D01*
X116271928Y-70108000D01*
X116275000Y-70322250D01*
X116433750Y-70481000D01*
X118038000Y-70481000D01*
X118038000Y-69631750D01*
X117879250Y-69473000D01*
X116910000Y-69469928D01*
X116785518Y-69482188D01*
X116665820Y-69518498D01*
X116555506Y-69577463D01*
X116458815Y-69656815D01*
X116379463Y-69753506D01*
X116320498Y-69863820D01*
X116284188Y-69983518D01*
X116271928Y-70108000D01*
X115990000Y-70108000D01*
X115990000Y-69206072D01*
X116110000Y-69206072D01*
X116234482Y-69193812D01*
X116354180Y-69157502D01*
X116464494Y-69098537D01*
X116561185Y-69019185D01*
X116640537Y-68922494D01*
X116699502Y-68812180D01*
X116735812Y-68692482D01*
X116748072Y-68568000D01*
X116748072Y-67766941D01*
X118454120Y-69472989D01*
G37*
%TD.AperFunction*%
D19*
X137466001Y-42866093D02*
X137466001Y-45634146D01*
X137435338Y-45588256D01*
X137179744Y-45332662D01*
X136879199Y-45131844D01*
X136545250Y-44993518D01*
X136190732Y-44923000D01*
X135829268Y-44923000D01*
X135474750Y-44993518D01*
X135140801Y-45131844D01*
X134840256Y-45332662D01*
X134584662Y-45588256D01*
X134383844Y-45888801D01*
X134245518Y-46222750D01*
X134175000Y-46577268D01*
X134175000Y-46938732D01*
X134245518Y-47293250D01*
X134383844Y-47627199D01*
X134584662Y-47927744D01*
X134840256Y-48183338D01*
X135140801Y-48384156D01*
X135474750Y-48522482D01*
X135829268Y-48593000D01*
X136190732Y-48593000D01*
X136545250Y-48522482D01*
X136879199Y-48384156D01*
X137179744Y-48183338D01*
X137435338Y-47927744D01*
X137466001Y-47881854D01*
X137466001Y-51116473D01*
X137461898Y-51114774D01*
X137405044Y-51103465D01*
X132603614Y-46302036D01*
X132575897Y-46268263D01*
X132441139Y-46157669D01*
X132287393Y-46075491D01*
X132120570Y-46024885D01*
X131990557Y-46012080D01*
X131990549Y-46012080D01*
X131947080Y-46007799D01*
X131903611Y-46012080D01*
X129062454Y-46012080D01*
X129014256Y-45979875D01*
X128825898Y-45901854D01*
X128625939Y-45862080D01*
X128422061Y-45862080D01*
X128222102Y-45901854D01*
X128033744Y-45979875D01*
X127996805Y-46004557D01*
X127959866Y-45979875D01*
X127771508Y-45901854D01*
X127571549Y-45862080D01*
X127367671Y-45862080D01*
X127167712Y-45901854D01*
X126979354Y-45979875D01*
X126809836Y-46093143D01*
X126665673Y-46237306D01*
X126552405Y-46406824D01*
X126474384Y-46595182D01*
X126434610Y-46795141D01*
X126434610Y-46999019D01*
X126440991Y-47031100D01*
X126339939Y-47011000D01*
X126136061Y-47011000D01*
X125936102Y-47050774D01*
X125747744Y-47128795D01*
X125737999Y-47135307D01*
X125728253Y-47128795D01*
X125539895Y-47050774D01*
X125339936Y-47011000D01*
X125136058Y-47011000D01*
X124936099Y-47050774D01*
X124747741Y-47128795D01*
X124737996Y-47135307D01*
X124728250Y-47128795D01*
X124539892Y-47050774D01*
X124339933Y-47011000D01*
X124136055Y-47011000D01*
X123936096Y-47050774D01*
X123747738Y-47128795D01*
X123578220Y-47242063D01*
X123459997Y-47360286D01*
X123341774Y-47242063D01*
X123172256Y-47128795D01*
X122983898Y-47050774D01*
X122783939Y-47011000D01*
X122580061Y-47011000D01*
X122380102Y-47050774D01*
X122191744Y-47128795D01*
X122022226Y-47242063D01*
X121878063Y-47386226D01*
X121764795Y-47555744D01*
X121686774Y-47744102D01*
X121675955Y-47798494D01*
X121653184Y-47817182D01*
X121542590Y-47951941D01*
X121460412Y-48105687D01*
X121425890Y-48219490D01*
X121413076Y-48261732D01*
X121409806Y-48272510D01*
X121400617Y-48365806D01*
X120050931Y-49715493D01*
X120045812Y-49663518D01*
X120009502Y-49543820D01*
X119950537Y-49433506D01*
X119871185Y-49336815D01*
X119774494Y-49257463D01*
X119664180Y-49198498D01*
X119544482Y-49162188D01*
X119420000Y-49149928D01*
X118450750Y-49153000D01*
X118292000Y-49311750D01*
X118292000Y-50161000D01*
X118312000Y-50161000D01*
X118312000Y-50415000D01*
X118292000Y-50415000D01*
X118292000Y-51264250D01*
X118397087Y-51369337D01*
X117823424Y-51943000D01*
X116615501Y-51943000D01*
X116561185Y-51876815D01*
X116464494Y-51797463D01*
X116354180Y-51738498D01*
X116234482Y-51702188D01*
X116110000Y-51689928D01*
X113964000Y-51689928D01*
X113964000Y-50788000D01*
X116271928Y-50788000D01*
X116284188Y-50912482D01*
X116320498Y-51032180D01*
X116379463Y-51142494D01*
X116458815Y-51239185D01*
X116555506Y-51318537D01*
X116665820Y-51377502D01*
X116785518Y-51413812D01*
X116910000Y-51426072D01*
X117879250Y-51423000D01*
X118038000Y-51264250D01*
X118038000Y-50415000D01*
X116433750Y-50415000D01*
X116275000Y-50573750D01*
X116271928Y-50788000D01*
X113964000Y-50788000D01*
X113964000Y-49788000D01*
X116271928Y-49788000D01*
X116275000Y-50002250D01*
X116433750Y-50161000D01*
X118038000Y-50161000D01*
X118038000Y-49311750D01*
X117879250Y-49153000D01*
X116910000Y-49149928D01*
X116785518Y-49162188D01*
X116665820Y-49198498D01*
X116555506Y-49257463D01*
X116458815Y-49336815D01*
X116379463Y-49433506D01*
X116320498Y-49543820D01*
X116284188Y-49663518D01*
X116271928Y-49788000D01*
X113964000Y-49788000D01*
X113964000Y-47747161D01*
X114084662Y-47927744D01*
X114340256Y-48183338D01*
X114640801Y-48384156D01*
X114974750Y-48522482D01*
X115329268Y-48593000D01*
X115690732Y-48593000D01*
X116045250Y-48522482D01*
X116379199Y-48384156D01*
X116679744Y-48183338D01*
X116935338Y-47927744D01*
X117136156Y-47627199D01*
X117274482Y-47293250D01*
X117345000Y-46938732D01*
X117345000Y-46577268D01*
X117274482Y-46222750D01*
X117136156Y-45888801D01*
X116935338Y-45588256D01*
X116679744Y-45332662D01*
X116379199Y-45131844D01*
X116045250Y-44993518D01*
X115690732Y-44923000D01*
X115329268Y-44923000D01*
X114974750Y-44993518D01*
X114640801Y-45131844D01*
X114340256Y-45332662D01*
X114084662Y-45588256D01*
X113964000Y-45768839D01*
X113964000Y-42879594D01*
X115134768Y-41782000D01*
X136381909Y-41782000D01*
X137466001Y-42866093D01*
%TA.AperFunction,Conductor*%
D20*
G36*
X137466001Y-42866093D02*
G01*
X137466001Y-45634146D01*
X137435338Y-45588256D01*
X137179744Y-45332662D01*
X136879199Y-45131844D01*
X136545250Y-44993518D01*
X136190732Y-44923000D01*
X135829268Y-44923000D01*
X135474750Y-44993518D01*
X135140801Y-45131844D01*
X134840256Y-45332662D01*
X134584662Y-45588256D01*
X134383844Y-45888801D01*
X134245518Y-46222750D01*
X134175000Y-46577268D01*
X134175000Y-46938732D01*
X134245518Y-47293250D01*
X134383844Y-47627199D01*
X134584662Y-47927744D01*
X134840256Y-48183338D01*
X135140801Y-48384156D01*
X135474750Y-48522482D01*
X135829268Y-48593000D01*
X136190732Y-48593000D01*
X136545250Y-48522482D01*
X136879199Y-48384156D01*
X137179744Y-48183338D01*
X137435338Y-47927744D01*
X137466001Y-47881854D01*
X137466001Y-51116473D01*
X137461898Y-51114774D01*
X137405044Y-51103465D01*
X132603614Y-46302036D01*
X132575897Y-46268263D01*
X132441139Y-46157669D01*
X132287393Y-46075491D01*
X132120570Y-46024885D01*
X131990557Y-46012080D01*
X131990549Y-46012080D01*
X131947080Y-46007799D01*
X131903611Y-46012080D01*
X129062454Y-46012080D01*
X129014256Y-45979875D01*
X128825898Y-45901854D01*
X128625939Y-45862080D01*
X128422061Y-45862080D01*
X128222102Y-45901854D01*
X128033744Y-45979875D01*
X127996805Y-46004557D01*
X127959866Y-45979875D01*
X127771508Y-45901854D01*
X127571549Y-45862080D01*
X127367671Y-45862080D01*
X127167712Y-45901854D01*
X126979354Y-45979875D01*
X126809836Y-46093143D01*
X126665673Y-46237306D01*
X126552405Y-46406824D01*
X126474384Y-46595182D01*
X126434610Y-46795141D01*
X126434610Y-46999019D01*
X126440991Y-47031100D01*
X126339939Y-47011000D01*
X126136061Y-47011000D01*
X125936102Y-47050774D01*
X125747744Y-47128795D01*
X125737999Y-47135307D01*
X125728253Y-47128795D01*
X125539895Y-47050774D01*
X125339936Y-47011000D01*
X125136058Y-47011000D01*
X124936099Y-47050774D01*
X124747741Y-47128795D01*
X124737996Y-47135307D01*
X124728250Y-47128795D01*
X124539892Y-47050774D01*
X124339933Y-47011000D01*
X124136055Y-47011000D01*
X123936096Y-47050774D01*
X123747738Y-47128795D01*
X123578220Y-47242063D01*
X123459997Y-47360286D01*
X123341774Y-47242063D01*
X123172256Y-47128795D01*
X122983898Y-47050774D01*
X122783939Y-47011000D01*
X122580061Y-47011000D01*
X122380102Y-47050774D01*
X122191744Y-47128795D01*
X122022226Y-47242063D01*
X121878063Y-47386226D01*
X121764795Y-47555744D01*
X121686774Y-47744102D01*
X121675955Y-47798494D01*
X121653184Y-47817182D01*
X121542590Y-47951941D01*
X121460412Y-48105687D01*
X121425890Y-48219490D01*
X121413076Y-48261732D01*
X121409806Y-48272510D01*
X121400617Y-48365806D01*
X120050931Y-49715493D01*
X120045812Y-49663518D01*
X120009502Y-49543820D01*
X119950537Y-49433506D01*
X119871185Y-49336815D01*
X119774494Y-49257463D01*
X119664180Y-49198498D01*
X119544482Y-49162188D01*
X119420000Y-49149928D01*
X118450750Y-49153000D01*
X118292000Y-49311750D01*
X118292000Y-50161000D01*
X118312000Y-50161000D01*
X118312000Y-50415000D01*
X118292000Y-50415000D01*
X118292000Y-51264250D01*
X118397087Y-51369337D01*
X117823424Y-51943000D01*
X116615501Y-51943000D01*
X116561185Y-51876815D01*
X116464494Y-51797463D01*
X116354180Y-51738498D01*
X116234482Y-51702188D01*
X116110000Y-51689928D01*
X113964000Y-51689928D01*
X113964000Y-50788000D01*
X116271928Y-50788000D01*
X116284188Y-50912482D01*
X116320498Y-51032180D01*
X116379463Y-51142494D01*
X116458815Y-51239185D01*
X116555506Y-51318537D01*
X116665820Y-51377502D01*
X116785518Y-51413812D01*
X116910000Y-51426072D01*
X117879250Y-51423000D01*
X118038000Y-51264250D01*
X118038000Y-50415000D01*
X116433750Y-50415000D01*
X116275000Y-50573750D01*
X116271928Y-50788000D01*
X113964000Y-50788000D01*
X113964000Y-49788000D01*
X116271928Y-49788000D01*
X116275000Y-50002250D01*
X116433750Y-50161000D01*
X118038000Y-50161000D01*
X118038000Y-49311750D01*
X117879250Y-49153000D01*
X116910000Y-49149928D01*
X116785518Y-49162188D01*
X116665820Y-49198498D01*
X116555506Y-49257463D01*
X116458815Y-49336815D01*
X116379463Y-49433506D01*
X116320498Y-49543820D01*
X116284188Y-49663518D01*
X116271928Y-49788000D01*
X113964000Y-49788000D01*
X113964000Y-47747161D01*
X114084662Y-47927744D01*
X114340256Y-48183338D01*
X114640801Y-48384156D01*
X114974750Y-48522482D01*
X115329268Y-48593000D01*
X115690732Y-48593000D01*
X116045250Y-48522482D01*
X116379199Y-48384156D01*
X116679744Y-48183338D01*
X116935338Y-47927744D01*
X117136156Y-47627199D01*
X117274482Y-47293250D01*
X117345000Y-46938732D01*
X117345000Y-46577268D01*
X117274482Y-46222750D01*
X117136156Y-45888801D01*
X116935338Y-45588256D01*
X116679744Y-45332662D01*
X116379199Y-45131844D01*
X116045250Y-44993518D01*
X115690732Y-44923000D01*
X115329268Y-44923000D01*
X114974750Y-44993518D01*
X114640801Y-45131844D01*
X114340256Y-45332662D01*
X114084662Y-45588256D01*
X113964000Y-45768839D01*
X113964000Y-42879594D01*
X115134768Y-41782000D01*
X136381909Y-41782000D01*
X137466001Y-42866093D01*
G37*
%TD.AperFunction*%
%TD*%
M02*
