%TF.GenerationSoftware,KiCad,Pcbnew,(5.1.10)-1*%
%TF.CreationDate,2021-11-28T18:03:10+01:00*%
%TF.ProjectId,M5StampC3,4d355374-616d-4704-9333-2e6b69636164,rev?*%
%TF.SameCoordinates,Original*%
%TF.FileFunction,Other,Fab,Top*%
%FSLAX46Y46*%
G04 Gerber Fmt 4.6, Leading zero omitted, Abs format (unit mm)*
G04 Created by KiCad (PCBNEW (5.1.10)-1) date 2021-11-28 18:03:10*
%MOMM*%
%LPD*%
G01*
G04 APERTURE LIST*
%ADD10C,0.100000*%
%ADD11C,0.150000*%
%ADD12C,0.075000*%
%ADD13C,0.080000*%
%ADD14C,0.120000*%
G04 APERTURE END LIST*
D10*
%TO.C,D5*%
X136603999Y-76454000D02*
G75*
G03*
X136603999Y-76454000I-2000000J0D01*
G01*
X137103999Y-78954000D02*
X137103999Y-73954000D01*
X132103999Y-78954000D02*
X137103999Y-78954000D01*
X132103999Y-73954000D02*
X132103999Y-78954000D01*
X137103999Y-73954000D02*
X132103999Y-73954000D01*
X133103999Y-78954000D02*
X132103999Y-77954000D01*
%TO.C,D4*%
X135766000Y-72020000D02*
X132966000Y-72020000D01*
X132966000Y-72020000D02*
X132966000Y-70220000D01*
X132966000Y-70220000D02*
X135766000Y-70220000D01*
X135766000Y-70220000D02*
X135766000Y-72020000D01*
X135116000Y-71120000D02*
X134716000Y-71120000D01*
X134716000Y-71120000D02*
X134716000Y-71670000D01*
X134716000Y-71120000D02*
X134716000Y-70570000D01*
X134716000Y-71120000D02*
X134116000Y-71520000D01*
X134116000Y-71520000D02*
X134116000Y-70720000D01*
X134116000Y-70720000D02*
X134716000Y-71120000D01*
X134116000Y-71120000D02*
X133616000Y-71120000D01*
%TO.C,J4*%
X128016000Y-70485000D02*
X128651000Y-69850000D01*
X128016000Y-80010000D02*
X128016000Y-70485000D01*
X130556000Y-80010000D02*
X128016000Y-80010000D01*
X130556000Y-69850000D02*
X130556000Y-80010000D01*
X128651000Y-69850000D02*
X130556000Y-69850000D01*
%TO.C,U1*%
X123856000Y-72598000D02*
X123856000Y-75698000D01*
X123856000Y-75698000D02*
X122056000Y-75698000D01*
X122056000Y-73248000D02*
X122056000Y-75698000D01*
X123856000Y-72598000D02*
X122706000Y-72598000D01*
X122056000Y-73248000D02*
X122706000Y-72598000D01*
%TO.C,R3*%
X121142000Y-77841000D02*
X119142000Y-77841000D01*
X121142000Y-76591000D02*
X121142000Y-77841000D01*
X119142000Y-76591000D02*
X121142000Y-76591000D01*
X119142000Y-77841000D02*
X119142000Y-76591000D01*
%TO.C,C14*%
X126609000Y-72660000D02*
X126609000Y-74660000D01*
X125359000Y-72660000D02*
X126609000Y-72660000D01*
X125359000Y-74660000D02*
X125359000Y-72660000D01*
X126609000Y-74660000D02*
X125359000Y-74660000D01*
%TO.C,C13*%
X118755000Y-75168000D02*
X118755000Y-73168000D01*
X120005000Y-75168000D02*
X118755000Y-75168000D01*
X120005000Y-73168000D02*
X120005000Y-75168000D01*
X118755000Y-73168000D02*
X120005000Y-73168000D01*
%TO.C,J3*%
X118110000Y-82931000D02*
X118110000Y-81026000D01*
X118110000Y-81026000D02*
X133350000Y-81026000D01*
X133350000Y-81026000D02*
X133350000Y-83566000D01*
X133350000Y-83566000D02*
X118745000Y-83566000D01*
X118745000Y-83566000D02*
X118110000Y-82931000D01*
%TO.C,U2*%
X132242000Y-43070000D02*
X131842000Y-43870000D01*
X132642000Y-43870000D02*
X132242000Y-43070000D01*
X134552000Y-41070000D02*
X134552000Y-43870000D01*
X135207000Y-41070000D02*
X134552000Y-41070000D01*
X135207000Y-39470000D02*
X135207000Y-41070000D01*
X117777000Y-39470000D02*
X135207000Y-39470000D01*
X117777000Y-41070000D02*
X117777000Y-39470000D01*
X118432000Y-41070000D02*
X117777000Y-41070000D01*
X118432000Y-43870000D02*
X118432000Y-41070000D01*
X134552000Y-43870000D02*
X118432000Y-43870000D01*
%TO.C,L1*%
X130124000Y-67544000D02*
X126924000Y-67544000D01*
X130124000Y-65044000D02*
X130124000Y-67544000D01*
X126924000Y-65044000D02*
X130124000Y-65044000D01*
X126924000Y-67544000D02*
X126924000Y-65044000D01*
%TO.C,Q1*%
X117274000Y-63878000D02*
X117774000Y-63378000D01*
X116424000Y-61678000D02*
X117774000Y-61678000D01*
X116424000Y-63878000D02*
X116424000Y-61678000D01*
X117774000Y-63378000D02*
X117774000Y-61678000D01*
X116424000Y-63878000D02*
X117274000Y-63878000D01*
%TO.C,R2*%
X123073000Y-65810000D02*
X123073000Y-63810000D01*
X124323000Y-65810000D02*
X123073000Y-65810000D01*
X124323000Y-63810000D02*
X124323000Y-65810000D01*
X123073000Y-63810000D02*
X124323000Y-63810000D01*
%TO.C,R1*%
X121041000Y-65810000D02*
X121041000Y-63810000D01*
X122291000Y-65810000D02*
X121041000Y-65810000D01*
X122291000Y-63810000D02*
X122291000Y-65810000D01*
X121041000Y-63810000D02*
X122291000Y-63810000D01*
%TO.C,D1*%
X134504000Y-64426000D02*
X134504000Y-67226000D01*
X134504000Y-67226000D02*
X132704000Y-67226000D01*
X132704000Y-67226000D02*
X132704000Y-64426000D01*
X132704000Y-64426000D02*
X134504000Y-64426000D01*
X133604000Y-65076000D02*
X133604000Y-65476000D01*
X133604000Y-65476000D02*
X134154000Y-65476000D01*
X133604000Y-65476000D02*
X133054000Y-65476000D01*
X133604000Y-65476000D02*
X134004000Y-66076000D01*
X134004000Y-66076000D02*
X133204000Y-66076000D01*
X133204000Y-66076000D02*
X133604000Y-65476000D01*
X133604000Y-66076000D02*
X133604000Y-66576000D01*
%TO.C,D2*%
X135244000Y-67226000D02*
X135244000Y-64426000D01*
X135244000Y-64426000D02*
X137044000Y-64426000D01*
X137044000Y-64426000D02*
X137044000Y-67226000D01*
X137044000Y-67226000D02*
X135244000Y-67226000D01*
X136144000Y-66576000D02*
X136144000Y-66176000D01*
X136144000Y-66176000D02*
X135594000Y-66176000D01*
X136144000Y-66176000D02*
X136694000Y-66176000D01*
X136144000Y-66176000D02*
X135744000Y-65576000D01*
X135744000Y-65576000D02*
X136544000Y-65576000D01*
X136544000Y-65576000D02*
X136144000Y-66176000D01*
X136144000Y-65576000D02*
X136144000Y-65076000D01*
%TO.C,D3*%
X123828000Y-71298000D02*
X121028000Y-71298000D01*
X121028000Y-71298000D02*
X121028000Y-69498000D01*
X121028000Y-69498000D02*
X123828000Y-69498000D01*
X123828000Y-69498000D02*
X123828000Y-71298000D01*
X123178000Y-70398000D02*
X122778000Y-70398000D01*
X122778000Y-70398000D02*
X122778000Y-70948000D01*
X122778000Y-70398000D02*
X122778000Y-69848000D01*
X122778000Y-70398000D02*
X122178000Y-70798000D01*
X122178000Y-70798000D02*
X122178000Y-69998000D01*
X122178000Y-69998000D02*
X122778000Y-70398000D01*
X122178000Y-70398000D02*
X121678000Y-70398000D01*
%TO.C,C12*%
X117485000Y-68350000D02*
X117485000Y-66350000D01*
X118735000Y-68350000D02*
X117485000Y-68350000D01*
X118735000Y-66350000D02*
X118735000Y-68350000D01*
X117485000Y-66350000D02*
X118735000Y-66350000D01*
%TO.C,C9*%
X121783000Y-51618000D02*
X121783000Y-53618000D01*
X120533000Y-51618000D02*
X121783000Y-51618000D01*
X120533000Y-53618000D02*
X120533000Y-51618000D01*
X121783000Y-53618000D02*
X120533000Y-53618000D01*
%TO.C,C6*%
X126863000Y-56952000D02*
X126863000Y-58952000D01*
X125613000Y-56952000D02*
X126863000Y-56952000D01*
X125613000Y-58952000D02*
X125613000Y-56952000D01*
X126863000Y-58952000D02*
X125613000Y-58952000D01*
%TO.C,C4*%
X130419000Y-56952000D02*
X130419000Y-58952000D01*
X129169000Y-56952000D02*
X130419000Y-56952000D01*
X129169000Y-58952000D02*
X129169000Y-56952000D01*
X130419000Y-58952000D02*
X129169000Y-58952000D01*
%TO.C,C2*%
X133721000Y-56952000D02*
X133721000Y-58952000D01*
X132471000Y-56952000D02*
X133721000Y-56952000D01*
X132471000Y-58952000D02*
X132471000Y-56952000D01*
X133721000Y-58952000D02*
X132471000Y-58952000D01*
%TO.C,C10*%
X118602000Y-71277000D02*
X116602000Y-71277000D01*
X118602000Y-70027000D02*
X118602000Y-71277000D01*
X116602000Y-70027000D02*
X118602000Y-70027000D01*
X116602000Y-71277000D02*
X116602000Y-70027000D01*
%TO.C,C7*%
X120005000Y-56952000D02*
X120005000Y-58952000D01*
X118755000Y-56952000D02*
X120005000Y-56952000D01*
X118755000Y-58952000D02*
X118755000Y-56952000D01*
X120005000Y-58952000D02*
X118755000Y-58952000D01*
%TO.C,C8*%
X136261000Y-56952000D02*
X136261000Y-58952000D01*
X135011000Y-56952000D02*
X136261000Y-56952000D01*
X135011000Y-58952000D02*
X135011000Y-56952000D01*
X136261000Y-58952000D02*
X135011000Y-58952000D01*
%TO.C,C11*%
X125339000Y-51618000D02*
X125339000Y-53618000D01*
X124089000Y-51618000D02*
X125339000Y-51618000D01*
X124089000Y-53618000D02*
X124089000Y-51618000D01*
X125339000Y-53618000D02*
X124089000Y-53618000D01*
%TO.C,C5*%
X128895000Y-51872000D02*
X128895000Y-53872000D01*
X127645000Y-51872000D02*
X128895000Y-51872000D01*
X127645000Y-53872000D02*
X127645000Y-51872000D01*
X128895000Y-53872000D02*
X127645000Y-53872000D01*
%TO.C,C3*%
X132197000Y-51872000D02*
X132197000Y-53872000D01*
X130947000Y-51872000D02*
X132197000Y-51872000D01*
X130947000Y-53872000D02*
X130947000Y-51872000D01*
X132197000Y-53872000D02*
X130947000Y-53872000D01*
%TO.C,C1*%
X135499000Y-51872000D02*
X135499000Y-53872000D01*
X134249000Y-51872000D02*
X135499000Y-51872000D01*
X134249000Y-53872000D02*
X134249000Y-51872000D01*
X135499000Y-53872000D02*
X134249000Y-53872000D01*
%TD*%
%TO.C,D5*%
D11*
X130056379Y-79763523D02*
X131056379Y-79525428D01*
X130342094Y-79334952D01*
X131056379Y-79144476D01*
X130056379Y-78906380D01*
X131008760Y-78573047D02*
X131056379Y-78430190D01*
X131056379Y-78192095D01*
X131008760Y-78096857D01*
X130961141Y-78049238D01*
X130865903Y-78001619D01*
X130770665Y-78001619D01*
X130675427Y-78049238D01*
X130627808Y-78096857D01*
X130580189Y-78192095D01*
X130532570Y-78382571D01*
X130484951Y-78477809D01*
X130437332Y-78525428D01*
X130342094Y-78573047D01*
X130246856Y-78573047D01*
X130151618Y-78525428D01*
X130103999Y-78477809D01*
X130056379Y-78382571D01*
X130056379Y-78144476D01*
X130103999Y-78001619D01*
X130151618Y-77620666D02*
X130103999Y-77573047D01*
X130056379Y-77477809D01*
X130056379Y-77239714D01*
X130103999Y-77144476D01*
X130151618Y-77096857D01*
X130246856Y-77049238D01*
X130342094Y-77049238D01*
X130484951Y-77096857D01*
X131056379Y-77668285D01*
X131056379Y-77049238D01*
X130484951Y-76477809D02*
X130437332Y-76573047D01*
X130389713Y-76620666D01*
X130294475Y-76668285D01*
X130246856Y-76668285D01*
X130151618Y-76620666D01*
X130103999Y-76573047D01*
X130056379Y-76477809D01*
X130056379Y-76287333D01*
X130103999Y-76192095D01*
X130151618Y-76144476D01*
X130246856Y-76096857D01*
X130294475Y-76096857D01*
X130389713Y-76144476D01*
X130437332Y-76192095D01*
X130484951Y-76287333D01*
X130484951Y-76477809D01*
X130532570Y-76573047D01*
X130580189Y-76620666D01*
X130675427Y-76668285D01*
X130865903Y-76668285D01*
X130961141Y-76620666D01*
X131008760Y-76573047D01*
X131056379Y-76477809D01*
X131056379Y-76287333D01*
X131008760Y-76192095D01*
X130961141Y-76144476D01*
X130865903Y-76096857D01*
X130675427Y-76096857D01*
X130580189Y-76144476D01*
X130532570Y-76192095D01*
X130484951Y-76287333D01*
X131056379Y-75144476D02*
X131056379Y-75715904D01*
X131056379Y-75430190D02*
X130056379Y-75430190D01*
X130199237Y-75525428D01*
X130294475Y-75620666D01*
X130342094Y-75715904D01*
X130151618Y-74763523D02*
X130103999Y-74715904D01*
X130056379Y-74620666D01*
X130056379Y-74382571D01*
X130103999Y-74287333D01*
X130151618Y-74239714D01*
X130246856Y-74192095D01*
X130342094Y-74192095D01*
X130484951Y-74239714D01*
X131056379Y-74811142D01*
X131056379Y-74192095D01*
X130532570Y-73430190D02*
X130580189Y-73287333D01*
X130627808Y-73239714D01*
X130723046Y-73192095D01*
X130865903Y-73192095D01*
X130961141Y-73239714D01*
X131008760Y-73287333D01*
X131056379Y-73382571D01*
X131056379Y-73763523D01*
X130056379Y-73763523D01*
X130056379Y-73430190D01*
X130103999Y-73334952D01*
X130151618Y-73287333D01*
X130246856Y-73239714D01*
X130342094Y-73239714D01*
X130437332Y-73287333D01*
X130484951Y-73334952D01*
X130532570Y-73430190D01*
X130532570Y-73763523D01*
X134965903Y-77044476D02*
X134165903Y-77044476D01*
X134165903Y-76854000D01*
X134203999Y-76739714D01*
X134280189Y-76663523D01*
X134356379Y-76625428D01*
X134508760Y-76587333D01*
X134623046Y-76587333D01*
X134775427Y-76625428D01*
X134851618Y-76663523D01*
X134927808Y-76739714D01*
X134965903Y-76854000D01*
X134965903Y-77044476D01*
X134165903Y-75863523D02*
X134165903Y-76244476D01*
X134546856Y-76282571D01*
X134508760Y-76244476D01*
X134470665Y-76168285D01*
X134470665Y-75977809D01*
X134508760Y-75901619D01*
X134546856Y-75863523D01*
X134623046Y-75825428D01*
X134813522Y-75825428D01*
X134889713Y-75863523D01*
X134927808Y-75901619D01*
X134965903Y-75977809D01*
X134965903Y-76168285D01*
X134927808Y-76244476D01*
X134889713Y-76282571D01*
%TO.C,D4*%
X131127904Y-69472380D02*
X131127904Y-68472380D01*
X131461238Y-69186666D01*
X131794571Y-68472380D01*
X131794571Y-69472380D01*
X132604095Y-68948571D02*
X132746952Y-68996190D01*
X132794571Y-69043809D01*
X132842190Y-69139047D01*
X132842190Y-69281904D01*
X132794571Y-69377142D01*
X132746952Y-69424761D01*
X132651714Y-69472380D01*
X132270761Y-69472380D01*
X132270761Y-68472380D01*
X132604095Y-68472380D01*
X132699333Y-68520000D01*
X132746952Y-68567619D01*
X132794571Y-68662857D01*
X132794571Y-68758095D01*
X132746952Y-68853333D01*
X132699333Y-68900952D01*
X132604095Y-68948571D01*
X132270761Y-68948571D01*
X133842190Y-69472380D02*
X133508857Y-68996190D01*
X133270761Y-69472380D02*
X133270761Y-68472380D01*
X133651714Y-68472380D01*
X133746952Y-68520000D01*
X133794571Y-68567619D01*
X133842190Y-68662857D01*
X133842190Y-68805714D01*
X133794571Y-68900952D01*
X133746952Y-68948571D01*
X133651714Y-68996190D01*
X133270761Y-68996190D01*
X134461238Y-68472380D02*
X134556476Y-68472380D01*
X134651714Y-68520000D01*
X134699333Y-68567619D01*
X134746952Y-68662857D01*
X134794571Y-68853333D01*
X134794571Y-69091428D01*
X134746952Y-69281904D01*
X134699333Y-69377142D01*
X134651714Y-69424761D01*
X134556476Y-69472380D01*
X134461238Y-69472380D01*
X134366000Y-69424761D01*
X134318380Y-69377142D01*
X134270761Y-69281904D01*
X134223142Y-69091428D01*
X134223142Y-68853333D01*
X134270761Y-68662857D01*
X134318380Y-68567619D01*
X134366000Y-68520000D01*
X134461238Y-68472380D01*
X135699333Y-68472380D02*
X135223142Y-68472380D01*
X135175523Y-68948571D01*
X135223142Y-68900952D01*
X135318380Y-68853333D01*
X135556476Y-68853333D01*
X135651714Y-68900952D01*
X135699333Y-68948571D01*
X135746952Y-69043809D01*
X135746952Y-69281904D01*
X135699333Y-69377142D01*
X135651714Y-69424761D01*
X135556476Y-69472380D01*
X135318380Y-69472380D01*
X135223142Y-69424761D01*
X135175523Y-69377142D01*
X136080285Y-68472380D02*
X136699333Y-68472380D01*
X136366000Y-68853333D01*
X136508857Y-68853333D01*
X136604095Y-68900952D01*
X136651714Y-68948571D01*
X136699333Y-69043809D01*
X136699333Y-69281904D01*
X136651714Y-69377142D01*
X136604095Y-69424761D01*
X136508857Y-69472380D01*
X136223142Y-69472380D01*
X136127904Y-69424761D01*
X136080285Y-69377142D01*
X137318380Y-68472380D02*
X137413619Y-68472380D01*
X137508857Y-68520000D01*
X137556476Y-68567619D01*
X137604095Y-68662857D01*
X137651714Y-68853333D01*
X137651714Y-69091428D01*
X137604095Y-69281904D01*
X137556476Y-69377142D01*
X137508857Y-69424761D01*
X137413619Y-69472380D01*
X137318380Y-69472380D01*
X137223142Y-69424761D01*
X137175523Y-69377142D01*
X137127904Y-69281904D01*
X137080285Y-69091428D01*
X137080285Y-68853333D01*
X137127904Y-68662857D01*
X137175523Y-68567619D01*
X137223142Y-68520000D01*
X137318380Y-68472380D01*
X133627904Y-73572380D02*
X133627904Y-72572380D01*
X133866000Y-72572380D01*
X134008857Y-72620000D01*
X134104095Y-72715238D01*
X134151714Y-72810476D01*
X134199333Y-73000952D01*
X134199333Y-73143809D01*
X134151714Y-73334285D01*
X134104095Y-73429523D01*
X134008857Y-73524761D01*
X133866000Y-73572380D01*
X133627904Y-73572380D01*
X135056476Y-72905714D02*
X135056476Y-73572380D01*
X134818380Y-72524761D02*
X134580285Y-73239047D01*
X135199333Y-73239047D01*
%TO.C,J4*%
X123452666Y-81427142D02*
X123405047Y-81474761D01*
X123262190Y-81522380D01*
X123166952Y-81522380D01*
X123024095Y-81474761D01*
X122928857Y-81379523D01*
X122881238Y-81284285D01*
X122833619Y-81093809D01*
X122833619Y-80950952D01*
X122881238Y-80760476D01*
X122928857Y-80665238D01*
X123024095Y-80570000D01*
X123166952Y-80522380D01*
X123262190Y-80522380D01*
X123405047Y-80570000D01*
X123452666Y-80617619D01*
X124024095Y-81522380D02*
X123928857Y-81474761D01*
X123881238Y-81427142D01*
X123833619Y-81331904D01*
X123833619Y-81046190D01*
X123881238Y-80950952D01*
X123928857Y-80903333D01*
X124024095Y-80855714D01*
X124166952Y-80855714D01*
X124262190Y-80903333D01*
X124309809Y-80950952D01*
X124357428Y-81046190D01*
X124357428Y-81331904D01*
X124309809Y-81427142D01*
X124262190Y-81474761D01*
X124166952Y-81522380D01*
X124024095Y-81522380D01*
X124786000Y-80855714D02*
X124786000Y-81522380D01*
X124786000Y-80950952D02*
X124833619Y-80903333D01*
X124928857Y-80855714D01*
X125071714Y-80855714D01*
X125166952Y-80903333D01*
X125214571Y-80998571D01*
X125214571Y-81522380D01*
X125690761Y-80855714D02*
X125690761Y-81522380D01*
X125690761Y-80950952D02*
X125738380Y-80903333D01*
X125833619Y-80855714D01*
X125976476Y-80855714D01*
X126071714Y-80903333D01*
X126119333Y-80998571D01*
X126119333Y-81522380D01*
X126357428Y-81617619D02*
X127119333Y-81617619D01*
X127547904Y-80522380D02*
X127643142Y-80522380D01*
X127738380Y-80570000D01*
X127786000Y-80617619D01*
X127833619Y-80712857D01*
X127881238Y-80903333D01*
X127881238Y-81141428D01*
X127833619Y-81331904D01*
X127786000Y-81427142D01*
X127738380Y-81474761D01*
X127643142Y-81522380D01*
X127547904Y-81522380D01*
X127452666Y-81474761D01*
X127405047Y-81427142D01*
X127357428Y-81331904D01*
X127309809Y-81141428D01*
X127309809Y-80903333D01*
X127357428Y-80712857D01*
X127405047Y-80617619D01*
X127452666Y-80570000D01*
X127547904Y-80522380D01*
X128833619Y-81522380D02*
X128262190Y-81522380D01*
X128547904Y-81522380D02*
X128547904Y-80522380D01*
X128452666Y-80665238D01*
X128357428Y-80760476D01*
X128262190Y-80808095D01*
X129166952Y-81522380D02*
X129690761Y-80855714D01*
X129166952Y-80855714D02*
X129690761Y-81522380D01*
X130262190Y-80522380D02*
X130357428Y-80522380D01*
X130452666Y-80570000D01*
X130500285Y-80617619D01*
X130547904Y-80712857D01*
X130595523Y-80903333D01*
X130595523Y-81141428D01*
X130547904Y-81331904D01*
X130500285Y-81427142D01*
X130452666Y-81474761D01*
X130357428Y-81522380D01*
X130262190Y-81522380D01*
X130166952Y-81474761D01*
X130119333Y-81427142D01*
X130071714Y-81331904D01*
X130024095Y-81141428D01*
X130024095Y-80903333D01*
X130071714Y-80712857D01*
X130119333Y-80617619D01*
X130166952Y-80570000D01*
X130262190Y-80522380D01*
X131452666Y-80855714D02*
X131452666Y-81522380D01*
X131214571Y-80474761D02*
X130976476Y-81189047D01*
X131595523Y-81189047D01*
X131738380Y-81617619D02*
X132500285Y-81617619D01*
X132738380Y-81522380D02*
X132738380Y-80522380D01*
X133071714Y-81236666D01*
X133405047Y-80522380D01*
X133405047Y-81522380D01*
X134309809Y-81522380D02*
X134309809Y-80998571D01*
X134262190Y-80903333D01*
X134166952Y-80855714D01*
X133976476Y-80855714D01*
X133881238Y-80903333D01*
X134309809Y-81474761D02*
X134214571Y-81522380D01*
X133976476Y-81522380D01*
X133881238Y-81474761D01*
X133833619Y-81379523D01*
X133833619Y-81284285D01*
X133881238Y-81189047D01*
X133976476Y-81141428D01*
X134214571Y-81141428D01*
X134309809Y-81093809D01*
X134928857Y-81522380D02*
X134833619Y-81474761D01*
X134786000Y-81379523D01*
X134786000Y-80522380D01*
X135690761Y-81474761D02*
X135595523Y-81522380D01*
X135405047Y-81522380D01*
X135309809Y-81474761D01*
X135262190Y-81379523D01*
X135262190Y-80998571D01*
X135309809Y-80903333D01*
X135405047Y-80855714D01*
X135595523Y-80855714D01*
X135690761Y-80903333D01*
X135738380Y-80998571D01*
X135738380Y-81093809D01*
X135262190Y-81189047D01*
X128738380Y-75263333D02*
X129452666Y-75263333D01*
X129595523Y-75310952D01*
X129690761Y-75406190D01*
X129738380Y-75549047D01*
X129738380Y-75644285D01*
X129071714Y-74358571D02*
X129738380Y-74358571D01*
X128690761Y-74596666D02*
X129405047Y-74834761D01*
X129405047Y-74215714D01*
%TO.C,U1*%
X120979809Y-77500380D02*
X120646476Y-77024190D01*
X120408380Y-77500380D02*
X120408380Y-76500380D01*
X120789333Y-76500380D01*
X120884571Y-76548000D01*
X120932190Y-76595619D01*
X120979809Y-76690857D01*
X120979809Y-76833714D01*
X120932190Y-76928952D01*
X120884571Y-76976571D01*
X120789333Y-77024190D01*
X120408380Y-77024190D01*
X121265523Y-76500380D02*
X121836952Y-76500380D01*
X121551238Y-77500380D02*
X121551238Y-76500380D01*
X122217904Y-77500380D02*
X122408380Y-77500380D01*
X122503619Y-77452761D01*
X122551238Y-77405142D01*
X122646476Y-77262285D01*
X122694095Y-77071809D01*
X122694095Y-76690857D01*
X122646476Y-76595619D01*
X122598857Y-76548000D01*
X122503619Y-76500380D01*
X122313142Y-76500380D01*
X122217904Y-76548000D01*
X122170285Y-76595619D01*
X122122666Y-76690857D01*
X122122666Y-76928952D01*
X122170285Y-77024190D01*
X122217904Y-77071809D01*
X122313142Y-77119428D01*
X122503619Y-77119428D01*
X122598857Y-77071809D01*
X122646476Y-77024190D01*
X122694095Y-76928952D01*
X123313142Y-76500380D02*
X123408380Y-76500380D01*
X123503619Y-76548000D01*
X123551238Y-76595619D01*
X123598857Y-76690857D01*
X123646476Y-76881333D01*
X123646476Y-77119428D01*
X123598857Y-77309904D01*
X123551238Y-77405142D01*
X123503619Y-77452761D01*
X123408380Y-77500380D01*
X123313142Y-77500380D01*
X123217904Y-77452761D01*
X123170285Y-77405142D01*
X123122666Y-77309904D01*
X123075047Y-77119428D01*
X123075047Y-76881333D01*
X123122666Y-76690857D01*
X123170285Y-76595619D01*
X123217904Y-76548000D01*
X123313142Y-76500380D01*
X124598857Y-77500380D02*
X124027428Y-77500380D01*
X124313142Y-77500380D02*
X124313142Y-76500380D01*
X124217904Y-76643238D01*
X124122666Y-76738476D01*
X124027428Y-76786095D01*
X124932190Y-76500380D02*
X125551238Y-76500380D01*
X125217904Y-76881333D01*
X125360761Y-76881333D01*
X125456000Y-76928952D01*
X125503619Y-76976571D01*
X125551238Y-77071809D01*
X125551238Y-77309904D01*
X125503619Y-77405142D01*
X125456000Y-77452761D01*
X125360761Y-77500380D01*
X125075047Y-77500380D01*
X124979809Y-77452761D01*
X124932190Y-77405142D01*
D12*
X122682190Y-74528952D02*
X123086952Y-74528952D01*
X123134571Y-74505142D01*
X123158380Y-74481333D01*
X123182190Y-74433714D01*
X123182190Y-74338476D01*
X123158380Y-74290857D01*
X123134571Y-74267047D01*
X123086952Y-74243238D01*
X122682190Y-74243238D01*
X123182190Y-73743238D02*
X123182190Y-74028952D01*
X123182190Y-73886095D02*
X122682190Y-73886095D01*
X122753619Y-73933714D01*
X122801238Y-73981333D01*
X122825047Y-74028952D01*
%TO.C,R3*%
D11*
X119451523Y-79318380D02*
X118880095Y-79318380D01*
X119165809Y-79318380D02*
X119165809Y-78318380D01*
X119070571Y-78461238D01*
X118975333Y-78556476D01*
X118880095Y-78604095D01*
X120070571Y-78318380D02*
X120165809Y-78318380D01*
X120261047Y-78366000D01*
X120308666Y-78413619D01*
X120356285Y-78508857D01*
X120403904Y-78699333D01*
X120403904Y-78937428D01*
X120356285Y-79127904D01*
X120308666Y-79223142D01*
X120261047Y-79270761D01*
X120165809Y-79318380D01*
X120070571Y-79318380D01*
X119975333Y-79270761D01*
X119927714Y-79223142D01*
X119880095Y-79127904D01*
X119832476Y-78937428D01*
X119832476Y-78699333D01*
X119880095Y-78508857D01*
X119927714Y-78413619D01*
X119975333Y-78366000D01*
X120070571Y-78318380D01*
X120832476Y-79318380D02*
X120832476Y-78318380D01*
X121403904Y-79318380D02*
X120975333Y-78746952D01*
X121403904Y-78318380D02*
X120832476Y-78889809D01*
D13*
X120058666Y-77442190D02*
X119892000Y-77204095D01*
X119772952Y-77442190D02*
X119772952Y-76942190D01*
X119963428Y-76942190D01*
X120011047Y-76966000D01*
X120034857Y-76989809D01*
X120058666Y-77037428D01*
X120058666Y-77108857D01*
X120034857Y-77156476D01*
X120011047Y-77180285D01*
X119963428Y-77204095D01*
X119772952Y-77204095D01*
X120225333Y-76942190D02*
X120534857Y-76942190D01*
X120368190Y-77132666D01*
X120439619Y-77132666D01*
X120487238Y-77156476D01*
X120511047Y-77180285D01*
X120534857Y-77227904D01*
X120534857Y-77346952D01*
X120511047Y-77394571D01*
X120487238Y-77418380D01*
X120439619Y-77442190D01*
X120296761Y-77442190D01*
X120249142Y-77418380D01*
X120225333Y-77394571D01*
%TO.C,C14*%
D11*
X128116380Y-74779047D02*
X128116380Y-75350476D01*
X128116380Y-75064761D02*
X127116380Y-75064761D01*
X127259238Y-75160000D01*
X127354476Y-75255238D01*
X127402095Y-75350476D01*
X127116380Y-74160000D02*
X127116380Y-74064761D01*
X127164000Y-73969523D01*
X127211619Y-73921904D01*
X127306857Y-73874285D01*
X127497333Y-73826666D01*
X127735428Y-73826666D01*
X127925904Y-73874285D01*
X128021142Y-73921904D01*
X128068761Y-73969523D01*
X128116380Y-74064761D01*
X128116380Y-74160000D01*
X128068761Y-74255238D01*
X128021142Y-74302857D01*
X127925904Y-74350476D01*
X127735428Y-74398095D01*
X127497333Y-74398095D01*
X127306857Y-74350476D01*
X127211619Y-74302857D01*
X127164000Y-74255238D01*
X127116380Y-74160000D01*
X127116380Y-73207619D02*
X127116380Y-73112380D01*
X127164000Y-73017142D01*
X127211619Y-72969523D01*
X127306857Y-72921904D01*
X127497333Y-72874285D01*
X127735428Y-72874285D01*
X127925904Y-72921904D01*
X128021142Y-72969523D01*
X128068761Y-73017142D01*
X128116380Y-73112380D01*
X128116380Y-73207619D01*
X128068761Y-73302857D01*
X128021142Y-73350476D01*
X127925904Y-73398095D01*
X127735428Y-73445714D01*
X127497333Y-73445714D01*
X127306857Y-73398095D01*
X127211619Y-73350476D01*
X127164000Y-73302857D01*
X127116380Y-73207619D01*
X127449714Y-72445714D02*
X128116380Y-72445714D01*
X127544952Y-72445714D02*
X127497333Y-72398095D01*
X127449714Y-72302857D01*
X127449714Y-72160000D01*
X127497333Y-72064761D01*
X127592571Y-72017142D01*
X128116380Y-72017142D01*
D13*
X126162571Y-73981428D02*
X126186380Y-74005238D01*
X126210190Y-74076666D01*
X126210190Y-74124285D01*
X126186380Y-74195714D01*
X126138761Y-74243333D01*
X126091142Y-74267142D01*
X125995904Y-74290952D01*
X125924476Y-74290952D01*
X125829238Y-74267142D01*
X125781619Y-74243333D01*
X125734000Y-74195714D01*
X125710190Y-74124285D01*
X125710190Y-74076666D01*
X125734000Y-74005238D01*
X125757809Y-73981428D01*
X126210190Y-73505238D02*
X126210190Y-73790952D01*
X126210190Y-73648095D02*
X125710190Y-73648095D01*
X125781619Y-73695714D01*
X125829238Y-73743333D01*
X125853047Y-73790952D01*
X125876857Y-73076666D02*
X126210190Y-73076666D01*
X125686380Y-73195714D02*
X126043523Y-73314761D01*
X126043523Y-73005238D01*
%TO.C,C13*%
D11*
X117485714Y-76953714D02*
X118152380Y-76953714D01*
X117104761Y-77191809D02*
X117819047Y-77429904D01*
X117819047Y-76810857D01*
X118057142Y-76429904D02*
X118104761Y-76382285D01*
X118152380Y-76429904D01*
X118104761Y-76477523D01*
X118057142Y-76429904D01*
X118152380Y-76429904D01*
X117152380Y-76048952D02*
X117152380Y-75382285D01*
X118152380Y-75810857D01*
X117485714Y-74572761D02*
X118152380Y-74572761D01*
X117485714Y-75001333D02*
X118009523Y-75001333D01*
X118104761Y-74953714D01*
X118152380Y-74858476D01*
X118152380Y-74715619D01*
X118104761Y-74620380D01*
X118057142Y-74572761D01*
X117628571Y-73763238D02*
X117628571Y-74096571D01*
X118152380Y-74096571D02*
X117152380Y-74096571D01*
X117152380Y-73620380D01*
X117152380Y-72763238D02*
X117152380Y-73239428D01*
X117628571Y-73287047D01*
X117580952Y-73239428D01*
X117533333Y-73144190D01*
X117533333Y-72906095D01*
X117580952Y-72810857D01*
X117628571Y-72763238D01*
X117723809Y-72715619D01*
X117961904Y-72715619D01*
X118057142Y-72763238D01*
X118104761Y-72810857D01*
X118152380Y-72906095D01*
X118152380Y-73144190D01*
X118104761Y-73239428D01*
X118057142Y-73287047D01*
X117152380Y-72096571D02*
X117152380Y-72001333D01*
X117200000Y-71906095D01*
X117247619Y-71858476D01*
X117342857Y-71810857D01*
X117533333Y-71763238D01*
X117771428Y-71763238D01*
X117961904Y-71810857D01*
X118057142Y-71858476D01*
X118104761Y-71906095D01*
X118152380Y-72001333D01*
X118152380Y-72096571D01*
X118104761Y-72191809D01*
X118057142Y-72239428D01*
X117961904Y-72287047D01*
X117771428Y-72334666D01*
X117533333Y-72334666D01*
X117342857Y-72287047D01*
X117247619Y-72239428D01*
X117200000Y-72191809D01*
X117152380Y-72096571D01*
X117152380Y-71477523D02*
X118152380Y-71144190D01*
X117152380Y-70810857D01*
D13*
X119558571Y-74489428D02*
X119582380Y-74513238D01*
X119606190Y-74584666D01*
X119606190Y-74632285D01*
X119582380Y-74703714D01*
X119534761Y-74751333D01*
X119487142Y-74775142D01*
X119391904Y-74798952D01*
X119320476Y-74798952D01*
X119225238Y-74775142D01*
X119177619Y-74751333D01*
X119130000Y-74703714D01*
X119106190Y-74632285D01*
X119106190Y-74584666D01*
X119130000Y-74513238D01*
X119153809Y-74489428D01*
X119606190Y-74013238D02*
X119606190Y-74298952D01*
X119606190Y-74156095D02*
X119106190Y-74156095D01*
X119177619Y-74203714D01*
X119225238Y-74251333D01*
X119249047Y-74298952D01*
X119106190Y-73846571D02*
X119106190Y-73537047D01*
X119296666Y-73703714D01*
X119296666Y-73632285D01*
X119320476Y-73584666D01*
X119344285Y-73560857D01*
X119391904Y-73537047D01*
X119510952Y-73537047D01*
X119558571Y-73560857D01*
X119582380Y-73584666D01*
X119606190Y-73632285D01*
X119606190Y-73775142D01*
X119582380Y-73822761D01*
X119558571Y-73846571D01*
%TO.C,J3*%
D11*
X134767142Y-88129333D02*
X134814761Y-88176952D01*
X134862380Y-88319809D01*
X134862380Y-88415047D01*
X134814761Y-88557904D01*
X134719523Y-88653142D01*
X134624285Y-88700761D01*
X134433809Y-88748380D01*
X134290952Y-88748380D01*
X134100476Y-88700761D01*
X134005238Y-88653142D01*
X133910000Y-88557904D01*
X133862380Y-88415047D01*
X133862380Y-88319809D01*
X133910000Y-88176952D01*
X133957619Y-88129333D01*
X134862380Y-87557904D02*
X134814761Y-87653142D01*
X134767142Y-87700761D01*
X134671904Y-87748380D01*
X134386190Y-87748380D01*
X134290952Y-87700761D01*
X134243333Y-87653142D01*
X134195714Y-87557904D01*
X134195714Y-87415047D01*
X134243333Y-87319809D01*
X134290952Y-87272190D01*
X134386190Y-87224571D01*
X134671904Y-87224571D01*
X134767142Y-87272190D01*
X134814761Y-87319809D01*
X134862380Y-87415047D01*
X134862380Y-87557904D01*
X134195714Y-86796000D02*
X134862380Y-86796000D01*
X134290952Y-86796000D02*
X134243333Y-86748380D01*
X134195714Y-86653142D01*
X134195714Y-86510285D01*
X134243333Y-86415047D01*
X134338571Y-86367428D01*
X134862380Y-86367428D01*
X134195714Y-85891238D02*
X134862380Y-85891238D01*
X134290952Y-85891238D02*
X134243333Y-85843619D01*
X134195714Y-85748380D01*
X134195714Y-85605523D01*
X134243333Y-85510285D01*
X134338571Y-85462666D01*
X134862380Y-85462666D01*
X134957619Y-85224571D02*
X134957619Y-84462666D01*
X133862380Y-84034095D02*
X133862380Y-83938857D01*
X133910000Y-83843619D01*
X133957619Y-83796000D01*
X134052857Y-83748380D01*
X134243333Y-83700761D01*
X134481428Y-83700761D01*
X134671904Y-83748380D01*
X134767142Y-83796000D01*
X134814761Y-83843619D01*
X134862380Y-83938857D01*
X134862380Y-84034095D01*
X134814761Y-84129333D01*
X134767142Y-84176952D01*
X134671904Y-84224571D01*
X134481428Y-84272190D01*
X134243333Y-84272190D01*
X134052857Y-84224571D01*
X133957619Y-84176952D01*
X133910000Y-84129333D01*
X133862380Y-84034095D01*
X134862380Y-82748380D02*
X134862380Y-83319809D01*
X134862380Y-83034095D02*
X133862380Y-83034095D01*
X134005238Y-83129333D01*
X134100476Y-83224571D01*
X134148095Y-83319809D01*
X134862380Y-82415047D02*
X134195714Y-81891238D01*
X134195714Y-82415047D02*
X134862380Y-81891238D01*
X133862380Y-81319809D02*
X133862380Y-81224571D01*
X133910000Y-81129333D01*
X133957619Y-81081714D01*
X134052857Y-81034095D01*
X134243333Y-80986476D01*
X134481428Y-80986476D01*
X134671904Y-81034095D01*
X134767142Y-81081714D01*
X134814761Y-81129333D01*
X134862380Y-81224571D01*
X134862380Y-81319809D01*
X134814761Y-81415047D01*
X134767142Y-81462666D01*
X134671904Y-81510285D01*
X134481428Y-81557904D01*
X134243333Y-81557904D01*
X134052857Y-81510285D01*
X133957619Y-81462666D01*
X133910000Y-81415047D01*
X133862380Y-81319809D01*
X133862380Y-80129333D02*
X133862380Y-80319809D01*
X133910000Y-80415047D01*
X133957619Y-80462666D01*
X134100476Y-80557904D01*
X134290952Y-80605523D01*
X134671904Y-80605523D01*
X134767142Y-80557904D01*
X134814761Y-80510285D01*
X134862380Y-80415047D01*
X134862380Y-80224571D01*
X134814761Y-80129333D01*
X134767142Y-80081714D01*
X134671904Y-80034095D01*
X134433809Y-80034095D01*
X134338571Y-80081714D01*
X134290952Y-80129333D01*
X134243333Y-80224571D01*
X134243333Y-80415047D01*
X134290952Y-80510285D01*
X134338571Y-80557904D01*
X134433809Y-80605523D01*
X134957619Y-79843619D02*
X134957619Y-79081714D01*
X134862380Y-78843619D02*
X133862380Y-78843619D01*
X134576666Y-78510285D01*
X133862380Y-78176952D01*
X134862380Y-78176952D01*
X134862380Y-77272190D02*
X134338571Y-77272190D01*
X134243333Y-77319809D01*
X134195714Y-77415047D01*
X134195714Y-77605523D01*
X134243333Y-77700761D01*
X134814761Y-77272190D02*
X134862380Y-77367428D01*
X134862380Y-77605523D01*
X134814761Y-77700761D01*
X134719523Y-77748380D01*
X134624285Y-77748380D01*
X134529047Y-77700761D01*
X134481428Y-77605523D01*
X134481428Y-77367428D01*
X134433809Y-77272190D01*
X134862380Y-76653142D02*
X134814761Y-76748380D01*
X134719523Y-76796000D01*
X133862380Y-76796000D01*
X134814761Y-75891238D02*
X134862380Y-75986476D01*
X134862380Y-76176952D01*
X134814761Y-76272190D01*
X134719523Y-76319809D01*
X134338571Y-76319809D01*
X134243333Y-76272190D01*
X134195714Y-76176952D01*
X134195714Y-75986476D01*
X134243333Y-75891238D01*
X134338571Y-75843619D01*
X134433809Y-75843619D01*
X134529047Y-76319809D01*
X125396666Y-81748380D02*
X125396666Y-82462666D01*
X125349047Y-82605523D01*
X125253809Y-82700761D01*
X125110952Y-82748380D01*
X125015714Y-82748380D01*
X125777619Y-81748380D02*
X126396666Y-81748380D01*
X126063333Y-82129333D01*
X126206190Y-82129333D01*
X126301428Y-82176952D01*
X126349047Y-82224571D01*
X126396666Y-82319809D01*
X126396666Y-82557904D01*
X126349047Y-82653142D01*
X126301428Y-82700761D01*
X126206190Y-82748380D01*
X125920476Y-82748380D01*
X125825238Y-82700761D01*
X125777619Y-82653142D01*
%TO.C,U2*%
X125730095Y-41122380D02*
X125730095Y-41931904D01*
X125777714Y-42027142D01*
X125825333Y-42074761D01*
X125920571Y-42122380D01*
X126111047Y-42122380D01*
X126206285Y-42074761D01*
X126253904Y-42027142D01*
X126301523Y-41931904D01*
X126301523Y-41122380D01*
X126730095Y-41217619D02*
X126777714Y-41170000D01*
X126872952Y-41122380D01*
X127111047Y-41122380D01*
X127206285Y-41170000D01*
X127253904Y-41217619D01*
X127301523Y-41312857D01*
X127301523Y-41408095D01*
X127253904Y-41550952D01*
X126682476Y-42122380D01*
X127301523Y-42122380D01*
%TO.C,L1*%
X126357333Y-68026380D02*
X126166857Y-68026380D01*
X126071619Y-68074000D01*
X126024000Y-68121619D01*
X125928761Y-68264476D01*
X125881142Y-68454952D01*
X125881142Y-68835904D01*
X125928761Y-68931142D01*
X125976380Y-68978761D01*
X126071619Y-69026380D01*
X126262095Y-69026380D01*
X126357333Y-68978761D01*
X126404952Y-68931142D01*
X126452571Y-68835904D01*
X126452571Y-68597809D01*
X126404952Y-68502571D01*
X126357333Y-68454952D01*
X126262095Y-68407333D01*
X126071619Y-68407333D01*
X125976380Y-68454952D01*
X125928761Y-68502571D01*
X125881142Y-68597809D01*
X127024000Y-68454952D02*
X126928761Y-68407333D01*
X126881142Y-68359714D01*
X126833523Y-68264476D01*
X126833523Y-68216857D01*
X126881142Y-68121619D01*
X126928761Y-68074000D01*
X127024000Y-68026380D01*
X127214476Y-68026380D01*
X127309714Y-68074000D01*
X127357333Y-68121619D01*
X127404952Y-68216857D01*
X127404952Y-68264476D01*
X127357333Y-68359714D01*
X127309714Y-68407333D01*
X127214476Y-68454952D01*
X127024000Y-68454952D01*
X126928761Y-68502571D01*
X126881142Y-68550190D01*
X126833523Y-68645428D01*
X126833523Y-68835904D01*
X126881142Y-68931142D01*
X126928761Y-68978761D01*
X127024000Y-69026380D01*
X127214476Y-69026380D01*
X127309714Y-68978761D01*
X127357333Y-68931142D01*
X127404952Y-68835904D01*
X127404952Y-68645428D01*
X127357333Y-68550190D01*
X127309714Y-68502571D01*
X127214476Y-68454952D01*
X128262095Y-68359714D02*
X128262095Y-69026380D01*
X127833523Y-68359714D02*
X127833523Y-68883523D01*
X127881142Y-68978761D01*
X127976380Y-69026380D01*
X128119238Y-69026380D01*
X128214476Y-68978761D01*
X128262095Y-68931142D01*
X128738285Y-69026380D02*
X128738285Y-68026380D01*
X128738285Y-68502571D02*
X129309714Y-68502571D01*
X129309714Y-69026380D02*
X129309714Y-68026380D01*
X130309714Y-69026380D02*
X129738285Y-69026380D01*
X130024000Y-69026380D02*
X130024000Y-68026380D01*
X129928761Y-68169238D01*
X129833523Y-68264476D01*
X129738285Y-68312095D01*
X130690666Y-68740666D02*
X131166857Y-68740666D01*
X130595428Y-69026380D02*
X130928761Y-68026380D01*
X131262095Y-69026380D01*
D14*
X128390666Y-66655904D02*
X128009714Y-66655904D01*
X128009714Y-65855904D01*
X129076380Y-66655904D02*
X128619238Y-66655904D01*
X128847809Y-66655904D02*
X128847809Y-65855904D01*
X128771619Y-65970190D01*
X128695428Y-66046380D01*
X128619238Y-66084476D01*
%TO.C,Q1*%
D11*
X114715428Y-61132761D02*
X114858285Y-61180380D01*
X115096380Y-61180380D01*
X115191619Y-61132761D01*
X115239238Y-61085142D01*
X115286857Y-60989904D01*
X115286857Y-60894666D01*
X115239238Y-60799428D01*
X115191619Y-60751809D01*
X115096380Y-60704190D01*
X114905904Y-60656571D01*
X114810666Y-60608952D01*
X114763047Y-60561333D01*
X114715428Y-60466095D01*
X114715428Y-60370857D01*
X114763047Y-60275619D01*
X114810666Y-60228000D01*
X114905904Y-60180380D01*
X115144000Y-60180380D01*
X115286857Y-60228000D01*
X115715428Y-61180380D02*
X115715428Y-60513714D01*
X115715428Y-60180380D02*
X115667809Y-60228000D01*
X115715428Y-60275619D01*
X115763047Y-60228000D01*
X115715428Y-60180380D01*
X115715428Y-60275619D01*
X116715428Y-61180380D02*
X116144000Y-61180380D01*
X116429714Y-61180380D02*
X116429714Y-60180380D01*
X116334476Y-60323238D01*
X116239238Y-60418476D01*
X116144000Y-60466095D01*
X117048761Y-60180380D02*
X117667809Y-60180380D01*
X117334476Y-60561333D01*
X117477333Y-60561333D01*
X117572571Y-60608952D01*
X117620190Y-60656571D01*
X117667809Y-60751809D01*
X117667809Y-60989904D01*
X117620190Y-61085142D01*
X117572571Y-61132761D01*
X117477333Y-61180380D01*
X117191619Y-61180380D01*
X117096380Y-61132761D01*
X117048761Y-61085142D01*
X118286857Y-60180380D02*
X118382095Y-60180380D01*
X118477333Y-60228000D01*
X118524952Y-60275619D01*
X118572571Y-60370857D01*
X118620190Y-60561333D01*
X118620190Y-60799428D01*
X118572571Y-60989904D01*
X118524952Y-61085142D01*
X118477333Y-61132761D01*
X118382095Y-61180380D01*
X118286857Y-61180380D01*
X118191619Y-61132761D01*
X118144000Y-61085142D01*
X118096380Y-60989904D01*
X118048761Y-60799428D01*
X118048761Y-60561333D01*
X118096380Y-60370857D01*
X118144000Y-60275619D01*
X118191619Y-60228000D01*
X118286857Y-60180380D01*
X119191619Y-60608952D02*
X119096380Y-60561333D01*
X119048761Y-60513714D01*
X119001142Y-60418476D01*
X119001142Y-60370857D01*
X119048761Y-60275619D01*
X119096380Y-60228000D01*
X119191619Y-60180380D01*
X119382095Y-60180380D01*
X119477333Y-60228000D01*
X119524952Y-60275619D01*
X119572571Y-60370857D01*
X119572571Y-60418476D01*
X119524952Y-60513714D01*
X119477333Y-60561333D01*
X119382095Y-60608952D01*
X119191619Y-60608952D01*
X119096380Y-60656571D01*
X119048761Y-60704190D01*
X119001142Y-60799428D01*
X119001142Y-60989904D01*
X119048761Y-61085142D01*
X119096380Y-61132761D01*
X119191619Y-61180380D01*
X119382095Y-61180380D01*
X119477333Y-61132761D01*
X119524952Y-61085142D01*
X119572571Y-60989904D01*
X119572571Y-60799428D01*
X119524952Y-60704190D01*
X119477333Y-60656571D01*
X119382095Y-60608952D01*
D12*
X117367809Y-62825619D02*
X117344000Y-62873238D01*
X117296380Y-62920857D01*
X117224952Y-62992285D01*
X117201142Y-63039904D01*
X117201142Y-63087523D01*
X117320190Y-63063714D02*
X117296380Y-63111333D01*
X117248761Y-63158952D01*
X117153523Y-63182761D01*
X116986857Y-63182761D01*
X116891619Y-63158952D01*
X116844000Y-63111333D01*
X116820190Y-63063714D01*
X116820190Y-62968476D01*
X116844000Y-62920857D01*
X116891619Y-62873238D01*
X116986857Y-62849428D01*
X117153523Y-62849428D01*
X117248761Y-62873238D01*
X117296380Y-62920857D01*
X117320190Y-62968476D01*
X117320190Y-63063714D01*
X117320190Y-62373238D02*
X117320190Y-62658952D01*
X117320190Y-62516095D02*
X116820190Y-62516095D01*
X116891619Y-62563714D01*
X116939238Y-62611333D01*
X116963047Y-62658952D01*
%TO.C,R2*%
D11*
X121500380Y-66548095D02*
X121500380Y-66452857D01*
X121548000Y-66357619D01*
X121595619Y-66310000D01*
X121690857Y-66262380D01*
X121881333Y-66214761D01*
X122119428Y-66214761D01*
X122309904Y-66262380D01*
X122405142Y-66310000D01*
X122452761Y-66357619D01*
X122500380Y-66452857D01*
X122500380Y-66548095D01*
X122452761Y-66643333D01*
X122405142Y-66690952D01*
X122309904Y-66738571D01*
X122119428Y-66786190D01*
X121881333Y-66786190D01*
X121690857Y-66738571D01*
X121595619Y-66690952D01*
X121548000Y-66643333D01*
X121500380Y-66548095D01*
X122405142Y-65786190D02*
X122452761Y-65738571D01*
X122500380Y-65786190D01*
X122452761Y-65833809D01*
X122405142Y-65786190D01*
X122500380Y-65786190D01*
X121833714Y-64881428D02*
X122500380Y-64881428D01*
X121452761Y-65119523D02*
X122167047Y-65357619D01*
X122167047Y-64738571D01*
X121500380Y-64452857D02*
X121500380Y-63786190D01*
X122500380Y-64214761D01*
X122500380Y-62833809D02*
X122024190Y-63167142D01*
X122500380Y-63405238D02*
X121500380Y-63405238D01*
X121500380Y-63024285D01*
X121548000Y-62929047D01*
X121595619Y-62881428D01*
X121690857Y-62833809D01*
X121833714Y-62833809D01*
X121928952Y-62881428D01*
X121976571Y-62929047D01*
X122024190Y-63024285D01*
X122024190Y-63405238D01*
D13*
X123924190Y-64893333D02*
X123686095Y-65060000D01*
X123924190Y-65179047D02*
X123424190Y-65179047D01*
X123424190Y-64988571D01*
X123448000Y-64940952D01*
X123471809Y-64917142D01*
X123519428Y-64893333D01*
X123590857Y-64893333D01*
X123638476Y-64917142D01*
X123662285Y-64940952D01*
X123686095Y-64988571D01*
X123686095Y-65179047D01*
X123471809Y-64702857D02*
X123448000Y-64679047D01*
X123424190Y-64631428D01*
X123424190Y-64512380D01*
X123448000Y-64464761D01*
X123471809Y-64440952D01*
X123519428Y-64417142D01*
X123567047Y-64417142D01*
X123638476Y-64440952D01*
X123924190Y-64726666D01*
X123924190Y-64417142D01*
%TO.C,R1*%
D11*
X120468380Y-65500476D02*
X120468380Y-66071904D01*
X120468380Y-65786190D02*
X119468380Y-65786190D01*
X119611238Y-65881428D01*
X119706476Y-65976666D01*
X119754095Y-66071904D01*
X119468380Y-64881428D02*
X119468380Y-64786190D01*
X119516000Y-64690952D01*
X119563619Y-64643333D01*
X119658857Y-64595714D01*
X119849333Y-64548095D01*
X120087428Y-64548095D01*
X120277904Y-64595714D01*
X120373142Y-64643333D01*
X120420761Y-64690952D01*
X120468380Y-64786190D01*
X120468380Y-64881428D01*
X120420761Y-64976666D01*
X120373142Y-65024285D01*
X120277904Y-65071904D01*
X120087428Y-65119523D01*
X119849333Y-65119523D01*
X119658857Y-65071904D01*
X119563619Y-65024285D01*
X119516000Y-64976666D01*
X119468380Y-64881428D01*
X120468380Y-64119523D02*
X119468380Y-64119523D01*
X120468380Y-63548095D02*
X119896952Y-63976666D01*
X119468380Y-63548095D02*
X120039809Y-64119523D01*
D13*
X121892190Y-64893333D02*
X121654095Y-65060000D01*
X121892190Y-65179047D02*
X121392190Y-65179047D01*
X121392190Y-64988571D01*
X121416000Y-64940952D01*
X121439809Y-64917142D01*
X121487428Y-64893333D01*
X121558857Y-64893333D01*
X121606476Y-64917142D01*
X121630285Y-64940952D01*
X121654095Y-64988571D01*
X121654095Y-65179047D01*
X121892190Y-64417142D02*
X121892190Y-64702857D01*
X121892190Y-64560000D02*
X121392190Y-64560000D01*
X121463619Y-64607619D01*
X121511238Y-64655238D01*
X121535047Y-64702857D01*
%TO.C,D1*%
D11*
X131956380Y-69064095D02*
X130956380Y-69064095D01*
X131670666Y-68730761D01*
X130956380Y-68397428D01*
X131956380Y-68397428D01*
X131432571Y-67587904D02*
X131480190Y-67445047D01*
X131527809Y-67397428D01*
X131623047Y-67349809D01*
X131765904Y-67349809D01*
X131861142Y-67397428D01*
X131908761Y-67445047D01*
X131956380Y-67540285D01*
X131956380Y-67921238D01*
X130956380Y-67921238D01*
X130956380Y-67587904D01*
X131004000Y-67492666D01*
X131051619Y-67445047D01*
X131146857Y-67397428D01*
X131242095Y-67397428D01*
X131337333Y-67445047D01*
X131384952Y-67492666D01*
X131432571Y-67587904D01*
X131432571Y-67921238D01*
X131956380Y-66349809D02*
X131480190Y-66683142D01*
X131956380Y-66921238D02*
X130956380Y-66921238D01*
X130956380Y-66540285D01*
X131004000Y-66445047D01*
X131051619Y-66397428D01*
X131146857Y-66349809D01*
X131289714Y-66349809D01*
X131384952Y-66397428D01*
X131432571Y-66445047D01*
X131480190Y-66540285D01*
X131480190Y-66921238D01*
X130956380Y-65730761D02*
X130956380Y-65635523D01*
X131004000Y-65540285D01*
X131051619Y-65492666D01*
X131146857Y-65445047D01*
X131337333Y-65397428D01*
X131575428Y-65397428D01*
X131765904Y-65445047D01*
X131861142Y-65492666D01*
X131908761Y-65540285D01*
X131956380Y-65635523D01*
X131956380Y-65730761D01*
X131908761Y-65826000D01*
X131861142Y-65873619D01*
X131765904Y-65921238D01*
X131575428Y-65968857D01*
X131337333Y-65968857D01*
X131146857Y-65921238D01*
X131051619Y-65873619D01*
X131004000Y-65826000D01*
X130956380Y-65730761D01*
X130956380Y-64492666D02*
X130956380Y-64968857D01*
X131432571Y-65016476D01*
X131384952Y-64968857D01*
X131337333Y-64873619D01*
X131337333Y-64635523D01*
X131384952Y-64540285D01*
X131432571Y-64492666D01*
X131527809Y-64445047D01*
X131765904Y-64445047D01*
X131861142Y-64492666D01*
X131908761Y-64540285D01*
X131956380Y-64635523D01*
X131956380Y-64873619D01*
X131908761Y-64968857D01*
X131861142Y-65016476D01*
X130956380Y-64111714D02*
X130956380Y-63492666D01*
X131337333Y-63826000D01*
X131337333Y-63683142D01*
X131384952Y-63587904D01*
X131432571Y-63540285D01*
X131527809Y-63492666D01*
X131765904Y-63492666D01*
X131861142Y-63540285D01*
X131908761Y-63587904D01*
X131956380Y-63683142D01*
X131956380Y-63968857D01*
X131908761Y-64064095D01*
X131861142Y-64111714D01*
X130956380Y-62873619D02*
X130956380Y-62778380D01*
X131004000Y-62683142D01*
X131051619Y-62635523D01*
X131146857Y-62587904D01*
X131337333Y-62540285D01*
X131575428Y-62540285D01*
X131765904Y-62587904D01*
X131861142Y-62635523D01*
X131908761Y-62683142D01*
X131956380Y-62778380D01*
X131956380Y-62873619D01*
X131908761Y-62968857D01*
X131861142Y-63016476D01*
X131765904Y-63064095D01*
X131575428Y-63111714D01*
X131337333Y-63111714D01*
X131146857Y-63064095D01*
X131051619Y-63016476D01*
X131004000Y-62968857D01*
X130956380Y-62873619D01*
X136056380Y-66564095D02*
X135056380Y-66564095D01*
X135056380Y-66326000D01*
X135104000Y-66183142D01*
X135199238Y-66087904D01*
X135294476Y-66040285D01*
X135484952Y-65992666D01*
X135627809Y-65992666D01*
X135818285Y-66040285D01*
X135913523Y-66087904D01*
X136008761Y-66183142D01*
X136056380Y-66326000D01*
X136056380Y-66564095D01*
X136056380Y-65040285D02*
X136056380Y-65611714D01*
X136056380Y-65326000D02*
X135056380Y-65326000D01*
X135199238Y-65421238D01*
X135294476Y-65516476D01*
X135342095Y-65611714D01*
%TO.C,D2*%
X138696380Y-69064095D02*
X137696380Y-69064095D01*
X138410666Y-68730761D01*
X137696380Y-68397428D01*
X138696380Y-68397428D01*
X138172571Y-67587904D02*
X138220190Y-67445047D01*
X138267809Y-67397428D01*
X138363047Y-67349809D01*
X138505904Y-67349809D01*
X138601142Y-67397428D01*
X138648761Y-67445047D01*
X138696380Y-67540285D01*
X138696380Y-67921238D01*
X137696380Y-67921238D01*
X137696380Y-67587904D01*
X137744000Y-67492666D01*
X137791619Y-67445047D01*
X137886857Y-67397428D01*
X137982095Y-67397428D01*
X138077333Y-67445047D01*
X138124952Y-67492666D01*
X138172571Y-67587904D01*
X138172571Y-67921238D01*
X138696380Y-66349809D02*
X138220190Y-66683142D01*
X138696380Y-66921238D02*
X137696380Y-66921238D01*
X137696380Y-66540285D01*
X137744000Y-66445047D01*
X137791619Y-66397428D01*
X137886857Y-66349809D01*
X138029714Y-66349809D01*
X138124952Y-66397428D01*
X138172571Y-66445047D01*
X138220190Y-66540285D01*
X138220190Y-66921238D01*
X137696380Y-65730761D02*
X137696380Y-65635523D01*
X137744000Y-65540285D01*
X137791619Y-65492666D01*
X137886857Y-65445047D01*
X138077333Y-65397428D01*
X138315428Y-65397428D01*
X138505904Y-65445047D01*
X138601142Y-65492666D01*
X138648761Y-65540285D01*
X138696380Y-65635523D01*
X138696380Y-65730761D01*
X138648761Y-65826000D01*
X138601142Y-65873619D01*
X138505904Y-65921238D01*
X138315428Y-65968857D01*
X138077333Y-65968857D01*
X137886857Y-65921238D01*
X137791619Y-65873619D01*
X137744000Y-65826000D01*
X137696380Y-65730761D01*
X137696380Y-64492666D02*
X137696380Y-64968857D01*
X138172571Y-65016476D01*
X138124952Y-64968857D01*
X138077333Y-64873619D01*
X138077333Y-64635523D01*
X138124952Y-64540285D01*
X138172571Y-64492666D01*
X138267809Y-64445047D01*
X138505904Y-64445047D01*
X138601142Y-64492666D01*
X138648761Y-64540285D01*
X138696380Y-64635523D01*
X138696380Y-64873619D01*
X138648761Y-64968857D01*
X138601142Y-65016476D01*
X137696380Y-64111714D02*
X137696380Y-63492666D01*
X138077333Y-63826000D01*
X138077333Y-63683142D01*
X138124952Y-63587904D01*
X138172571Y-63540285D01*
X138267809Y-63492666D01*
X138505904Y-63492666D01*
X138601142Y-63540285D01*
X138648761Y-63587904D01*
X138696380Y-63683142D01*
X138696380Y-63968857D01*
X138648761Y-64064095D01*
X138601142Y-64111714D01*
X137696380Y-62873619D02*
X137696380Y-62778380D01*
X137744000Y-62683142D01*
X137791619Y-62635523D01*
X137886857Y-62587904D01*
X138077333Y-62540285D01*
X138315428Y-62540285D01*
X138505904Y-62587904D01*
X138601142Y-62635523D01*
X138648761Y-62683142D01*
X138696380Y-62778380D01*
X138696380Y-62873619D01*
X138648761Y-62968857D01*
X138601142Y-63016476D01*
X138505904Y-63064095D01*
X138315428Y-63111714D01*
X138077333Y-63111714D01*
X137886857Y-63064095D01*
X137791619Y-63016476D01*
X137744000Y-62968857D01*
X137696380Y-62873619D01*
X134596380Y-66564095D02*
X133596380Y-66564095D01*
X133596380Y-66326000D01*
X133644000Y-66183142D01*
X133739238Y-66087904D01*
X133834476Y-66040285D01*
X134024952Y-65992666D01*
X134167809Y-65992666D01*
X134358285Y-66040285D01*
X134453523Y-66087904D01*
X134548761Y-66183142D01*
X134596380Y-66326000D01*
X134596380Y-66564095D01*
X133691619Y-65611714D02*
X133644000Y-65564095D01*
X133596380Y-65468857D01*
X133596380Y-65230761D01*
X133644000Y-65135523D01*
X133691619Y-65087904D01*
X133786857Y-65040285D01*
X133882095Y-65040285D01*
X134024952Y-65087904D01*
X134596380Y-65659333D01*
X134596380Y-65040285D01*
%TO.C,D3*%
X119189904Y-68750380D02*
X119189904Y-67750380D01*
X119523238Y-68464666D01*
X119856571Y-67750380D01*
X119856571Y-68750380D01*
X120666095Y-68226571D02*
X120808952Y-68274190D01*
X120856571Y-68321809D01*
X120904190Y-68417047D01*
X120904190Y-68559904D01*
X120856571Y-68655142D01*
X120808952Y-68702761D01*
X120713714Y-68750380D01*
X120332761Y-68750380D01*
X120332761Y-67750380D01*
X120666095Y-67750380D01*
X120761333Y-67798000D01*
X120808952Y-67845619D01*
X120856571Y-67940857D01*
X120856571Y-68036095D01*
X120808952Y-68131333D01*
X120761333Y-68178952D01*
X120666095Y-68226571D01*
X120332761Y-68226571D01*
X121904190Y-68750380D02*
X121570857Y-68274190D01*
X121332761Y-68750380D02*
X121332761Y-67750380D01*
X121713714Y-67750380D01*
X121808952Y-67798000D01*
X121856571Y-67845619D01*
X121904190Y-67940857D01*
X121904190Y-68083714D01*
X121856571Y-68178952D01*
X121808952Y-68226571D01*
X121713714Y-68274190D01*
X121332761Y-68274190D01*
X122523238Y-67750380D02*
X122618476Y-67750380D01*
X122713714Y-67798000D01*
X122761333Y-67845619D01*
X122808952Y-67940857D01*
X122856571Y-68131333D01*
X122856571Y-68369428D01*
X122808952Y-68559904D01*
X122761333Y-68655142D01*
X122713714Y-68702761D01*
X122618476Y-68750380D01*
X122523238Y-68750380D01*
X122428000Y-68702761D01*
X122380380Y-68655142D01*
X122332761Y-68559904D01*
X122285142Y-68369428D01*
X122285142Y-68131333D01*
X122332761Y-67940857D01*
X122380380Y-67845619D01*
X122428000Y-67798000D01*
X122523238Y-67750380D01*
X123761333Y-67750380D02*
X123285142Y-67750380D01*
X123237523Y-68226571D01*
X123285142Y-68178952D01*
X123380380Y-68131333D01*
X123618476Y-68131333D01*
X123713714Y-68178952D01*
X123761333Y-68226571D01*
X123808952Y-68321809D01*
X123808952Y-68559904D01*
X123761333Y-68655142D01*
X123713714Y-68702761D01*
X123618476Y-68750380D01*
X123380380Y-68750380D01*
X123285142Y-68702761D01*
X123237523Y-68655142D01*
X124142285Y-67750380D02*
X124761333Y-67750380D01*
X124428000Y-68131333D01*
X124570857Y-68131333D01*
X124666095Y-68178952D01*
X124713714Y-68226571D01*
X124761333Y-68321809D01*
X124761333Y-68559904D01*
X124713714Y-68655142D01*
X124666095Y-68702761D01*
X124570857Y-68750380D01*
X124285142Y-68750380D01*
X124189904Y-68702761D01*
X124142285Y-68655142D01*
X125380380Y-67750380D02*
X125475619Y-67750380D01*
X125570857Y-67798000D01*
X125618476Y-67845619D01*
X125666095Y-67940857D01*
X125713714Y-68131333D01*
X125713714Y-68369428D01*
X125666095Y-68559904D01*
X125618476Y-68655142D01*
X125570857Y-68702761D01*
X125475619Y-68750380D01*
X125380380Y-68750380D01*
X125285142Y-68702761D01*
X125237523Y-68655142D01*
X125189904Y-68559904D01*
X125142285Y-68369428D01*
X125142285Y-68131333D01*
X125189904Y-67940857D01*
X125237523Y-67845619D01*
X125285142Y-67798000D01*
X125380380Y-67750380D01*
X121689904Y-72850380D02*
X121689904Y-71850380D01*
X121928000Y-71850380D01*
X122070857Y-71898000D01*
X122166095Y-71993238D01*
X122213714Y-72088476D01*
X122261333Y-72278952D01*
X122261333Y-72421809D01*
X122213714Y-72612285D01*
X122166095Y-72707523D01*
X122070857Y-72802761D01*
X121928000Y-72850380D01*
X121689904Y-72850380D01*
X122594666Y-71850380D02*
X123213714Y-71850380D01*
X122880380Y-72231333D01*
X123023238Y-72231333D01*
X123118476Y-72278952D01*
X123166095Y-72326571D01*
X123213714Y-72421809D01*
X123213714Y-72659904D01*
X123166095Y-72755142D01*
X123118476Y-72802761D01*
X123023238Y-72850380D01*
X122737523Y-72850380D01*
X122642285Y-72802761D01*
X122594666Y-72755142D01*
%TO.C,C12*%
X116215714Y-70135714D02*
X116882380Y-70135714D01*
X115834761Y-70373809D02*
X116549047Y-70611904D01*
X116549047Y-69992857D01*
X116787142Y-69611904D02*
X116834761Y-69564285D01*
X116882380Y-69611904D01*
X116834761Y-69659523D01*
X116787142Y-69611904D01*
X116882380Y-69611904D01*
X115882380Y-69230952D02*
X115882380Y-68564285D01*
X116882380Y-68992857D01*
X116215714Y-67754761D02*
X116882380Y-67754761D01*
X116215714Y-68183333D02*
X116739523Y-68183333D01*
X116834761Y-68135714D01*
X116882380Y-68040476D01*
X116882380Y-67897619D01*
X116834761Y-67802380D01*
X116787142Y-67754761D01*
X116358571Y-66945238D02*
X116358571Y-67278571D01*
X116882380Y-67278571D02*
X115882380Y-67278571D01*
X115882380Y-66802380D01*
X115882380Y-65945238D02*
X115882380Y-66421428D01*
X116358571Y-66469047D01*
X116310952Y-66421428D01*
X116263333Y-66326190D01*
X116263333Y-66088095D01*
X116310952Y-65992857D01*
X116358571Y-65945238D01*
X116453809Y-65897619D01*
X116691904Y-65897619D01*
X116787142Y-65945238D01*
X116834761Y-65992857D01*
X116882380Y-66088095D01*
X116882380Y-66326190D01*
X116834761Y-66421428D01*
X116787142Y-66469047D01*
X115882380Y-65278571D02*
X115882380Y-65183333D01*
X115930000Y-65088095D01*
X115977619Y-65040476D01*
X116072857Y-64992857D01*
X116263333Y-64945238D01*
X116501428Y-64945238D01*
X116691904Y-64992857D01*
X116787142Y-65040476D01*
X116834761Y-65088095D01*
X116882380Y-65183333D01*
X116882380Y-65278571D01*
X116834761Y-65373809D01*
X116787142Y-65421428D01*
X116691904Y-65469047D01*
X116501428Y-65516666D01*
X116263333Y-65516666D01*
X116072857Y-65469047D01*
X115977619Y-65421428D01*
X115930000Y-65373809D01*
X115882380Y-65278571D01*
X115882380Y-64659523D02*
X116882380Y-64326190D01*
X115882380Y-63992857D01*
D13*
X118288571Y-67671428D02*
X118312380Y-67695238D01*
X118336190Y-67766666D01*
X118336190Y-67814285D01*
X118312380Y-67885714D01*
X118264761Y-67933333D01*
X118217142Y-67957142D01*
X118121904Y-67980952D01*
X118050476Y-67980952D01*
X117955238Y-67957142D01*
X117907619Y-67933333D01*
X117860000Y-67885714D01*
X117836190Y-67814285D01*
X117836190Y-67766666D01*
X117860000Y-67695238D01*
X117883809Y-67671428D01*
X118336190Y-67195238D02*
X118336190Y-67480952D01*
X118336190Y-67338095D02*
X117836190Y-67338095D01*
X117907619Y-67385714D01*
X117955238Y-67433333D01*
X117979047Y-67480952D01*
X117883809Y-67004761D02*
X117860000Y-66980952D01*
X117836190Y-66933333D01*
X117836190Y-66814285D01*
X117860000Y-66766666D01*
X117883809Y-66742857D01*
X117931428Y-66719047D01*
X117979047Y-66719047D01*
X118050476Y-66742857D01*
X118336190Y-67028571D01*
X118336190Y-66719047D01*
%TO.C,C9*%
D11*
X123290380Y-53284666D02*
X123290380Y-53856095D01*
X123290380Y-53570380D02*
X122290380Y-53570380D01*
X122433238Y-53665619D01*
X122528476Y-53760857D01*
X122576095Y-53856095D01*
X122290380Y-52665619D02*
X122290380Y-52570380D01*
X122338000Y-52475142D01*
X122385619Y-52427523D01*
X122480857Y-52379904D01*
X122671333Y-52332285D01*
X122909428Y-52332285D01*
X123099904Y-52379904D01*
X123195142Y-52427523D01*
X123242761Y-52475142D01*
X123290380Y-52570380D01*
X123290380Y-52665619D01*
X123242761Y-52760857D01*
X123195142Y-52808476D01*
X123099904Y-52856095D01*
X122909428Y-52903714D01*
X122671333Y-52903714D01*
X122480857Y-52856095D01*
X122385619Y-52808476D01*
X122338000Y-52760857D01*
X122290380Y-52665619D01*
X122290380Y-51427523D02*
X122290380Y-51903714D01*
X122766571Y-51951333D01*
X122718952Y-51903714D01*
X122671333Y-51808476D01*
X122671333Y-51570380D01*
X122718952Y-51475142D01*
X122766571Y-51427523D01*
X122861809Y-51379904D01*
X123099904Y-51379904D01*
X123195142Y-51427523D01*
X123242761Y-51475142D01*
X123290380Y-51570380D01*
X123290380Y-51808476D01*
X123242761Y-51903714D01*
X123195142Y-51951333D01*
D13*
X121336571Y-52701333D02*
X121360380Y-52725142D01*
X121384190Y-52796571D01*
X121384190Y-52844190D01*
X121360380Y-52915619D01*
X121312761Y-52963238D01*
X121265142Y-52987047D01*
X121169904Y-53010857D01*
X121098476Y-53010857D01*
X121003238Y-52987047D01*
X120955619Y-52963238D01*
X120908000Y-52915619D01*
X120884190Y-52844190D01*
X120884190Y-52796571D01*
X120908000Y-52725142D01*
X120931809Y-52701333D01*
X121384190Y-52463238D02*
X121384190Y-52368000D01*
X121360380Y-52320380D01*
X121336571Y-52296571D01*
X121265142Y-52248952D01*
X121169904Y-52225142D01*
X120979428Y-52225142D01*
X120931809Y-52248952D01*
X120908000Y-52272761D01*
X120884190Y-52320380D01*
X120884190Y-52415619D01*
X120908000Y-52463238D01*
X120931809Y-52487047D01*
X120979428Y-52510857D01*
X121098476Y-52510857D01*
X121146095Y-52487047D01*
X121169904Y-52463238D01*
X121193714Y-52415619D01*
X121193714Y-52320380D01*
X121169904Y-52272761D01*
X121146095Y-52248952D01*
X121098476Y-52225142D01*
%TO.C,C6*%
D11*
X128370380Y-58618666D02*
X128370380Y-59190095D01*
X128370380Y-58904380D02*
X127370380Y-58904380D01*
X127513238Y-58999619D01*
X127608476Y-59094857D01*
X127656095Y-59190095D01*
X127370380Y-57999619D02*
X127370380Y-57904380D01*
X127418000Y-57809142D01*
X127465619Y-57761523D01*
X127560857Y-57713904D01*
X127751333Y-57666285D01*
X127989428Y-57666285D01*
X128179904Y-57713904D01*
X128275142Y-57761523D01*
X128322761Y-57809142D01*
X128370380Y-57904380D01*
X128370380Y-57999619D01*
X128322761Y-58094857D01*
X128275142Y-58142476D01*
X128179904Y-58190095D01*
X127989428Y-58237714D01*
X127751333Y-58237714D01*
X127560857Y-58190095D01*
X127465619Y-58142476D01*
X127418000Y-58094857D01*
X127370380Y-57999619D01*
X127370380Y-56761523D02*
X127370380Y-57237714D01*
X127846571Y-57285333D01*
X127798952Y-57237714D01*
X127751333Y-57142476D01*
X127751333Y-56904380D01*
X127798952Y-56809142D01*
X127846571Y-56761523D01*
X127941809Y-56713904D01*
X128179904Y-56713904D01*
X128275142Y-56761523D01*
X128322761Y-56809142D01*
X128370380Y-56904380D01*
X128370380Y-57142476D01*
X128322761Y-57237714D01*
X128275142Y-57285333D01*
D13*
X126416571Y-58035333D02*
X126440380Y-58059142D01*
X126464190Y-58130571D01*
X126464190Y-58178190D01*
X126440380Y-58249619D01*
X126392761Y-58297238D01*
X126345142Y-58321047D01*
X126249904Y-58344857D01*
X126178476Y-58344857D01*
X126083238Y-58321047D01*
X126035619Y-58297238D01*
X125988000Y-58249619D01*
X125964190Y-58178190D01*
X125964190Y-58130571D01*
X125988000Y-58059142D01*
X126011809Y-58035333D01*
X125964190Y-57606761D02*
X125964190Y-57702000D01*
X125988000Y-57749619D01*
X126011809Y-57773428D01*
X126083238Y-57821047D01*
X126178476Y-57844857D01*
X126368952Y-57844857D01*
X126416571Y-57821047D01*
X126440380Y-57797238D01*
X126464190Y-57749619D01*
X126464190Y-57654380D01*
X126440380Y-57606761D01*
X126416571Y-57582952D01*
X126368952Y-57559142D01*
X126249904Y-57559142D01*
X126202285Y-57582952D01*
X126178476Y-57606761D01*
X126154666Y-57654380D01*
X126154666Y-57749619D01*
X126178476Y-57797238D01*
X126202285Y-57821047D01*
X126249904Y-57844857D01*
%TO.C,C4*%
D11*
X131926380Y-58618666D02*
X131926380Y-59190095D01*
X131926380Y-58904380D02*
X130926380Y-58904380D01*
X131069238Y-58999619D01*
X131164476Y-59094857D01*
X131212095Y-59190095D01*
X130926380Y-57999619D02*
X130926380Y-57904380D01*
X130974000Y-57809142D01*
X131021619Y-57761523D01*
X131116857Y-57713904D01*
X131307333Y-57666285D01*
X131545428Y-57666285D01*
X131735904Y-57713904D01*
X131831142Y-57761523D01*
X131878761Y-57809142D01*
X131926380Y-57904380D01*
X131926380Y-57999619D01*
X131878761Y-58094857D01*
X131831142Y-58142476D01*
X131735904Y-58190095D01*
X131545428Y-58237714D01*
X131307333Y-58237714D01*
X131116857Y-58190095D01*
X131021619Y-58142476D01*
X130974000Y-58094857D01*
X130926380Y-57999619D01*
X130926380Y-56761523D02*
X130926380Y-57237714D01*
X131402571Y-57285333D01*
X131354952Y-57237714D01*
X131307333Y-57142476D01*
X131307333Y-56904380D01*
X131354952Y-56809142D01*
X131402571Y-56761523D01*
X131497809Y-56713904D01*
X131735904Y-56713904D01*
X131831142Y-56761523D01*
X131878761Y-56809142D01*
X131926380Y-56904380D01*
X131926380Y-57142476D01*
X131878761Y-57237714D01*
X131831142Y-57285333D01*
D13*
X129972571Y-58035333D02*
X129996380Y-58059142D01*
X130020190Y-58130571D01*
X130020190Y-58178190D01*
X129996380Y-58249619D01*
X129948761Y-58297238D01*
X129901142Y-58321047D01*
X129805904Y-58344857D01*
X129734476Y-58344857D01*
X129639238Y-58321047D01*
X129591619Y-58297238D01*
X129544000Y-58249619D01*
X129520190Y-58178190D01*
X129520190Y-58130571D01*
X129544000Y-58059142D01*
X129567809Y-58035333D01*
X129686857Y-57606761D02*
X130020190Y-57606761D01*
X129496380Y-57725809D02*
X129853523Y-57844857D01*
X129853523Y-57535333D01*
%TO.C,C2*%
D11*
X135228380Y-58618666D02*
X135228380Y-59190095D01*
X135228380Y-58904380D02*
X134228380Y-58904380D01*
X134371238Y-58999619D01*
X134466476Y-59094857D01*
X134514095Y-59190095D01*
X134228380Y-57999619D02*
X134228380Y-57904380D01*
X134276000Y-57809142D01*
X134323619Y-57761523D01*
X134418857Y-57713904D01*
X134609333Y-57666285D01*
X134847428Y-57666285D01*
X135037904Y-57713904D01*
X135133142Y-57761523D01*
X135180761Y-57809142D01*
X135228380Y-57904380D01*
X135228380Y-57999619D01*
X135180761Y-58094857D01*
X135133142Y-58142476D01*
X135037904Y-58190095D01*
X134847428Y-58237714D01*
X134609333Y-58237714D01*
X134418857Y-58190095D01*
X134323619Y-58142476D01*
X134276000Y-58094857D01*
X134228380Y-57999619D01*
X134228380Y-56761523D02*
X134228380Y-57237714D01*
X134704571Y-57285333D01*
X134656952Y-57237714D01*
X134609333Y-57142476D01*
X134609333Y-56904380D01*
X134656952Y-56809142D01*
X134704571Y-56761523D01*
X134799809Y-56713904D01*
X135037904Y-56713904D01*
X135133142Y-56761523D01*
X135180761Y-56809142D01*
X135228380Y-56904380D01*
X135228380Y-57142476D01*
X135180761Y-57237714D01*
X135133142Y-57285333D01*
D13*
X133404571Y-57943333D02*
X133428380Y-57967142D01*
X133452190Y-58038571D01*
X133452190Y-58086190D01*
X133428380Y-58157619D01*
X133380761Y-58205238D01*
X133333142Y-58229047D01*
X133237904Y-58252857D01*
X133166476Y-58252857D01*
X133071238Y-58229047D01*
X133023619Y-58205238D01*
X132976000Y-58157619D01*
X132952190Y-58086190D01*
X132952190Y-58038571D01*
X132976000Y-57967142D01*
X132999809Y-57943333D01*
X132999809Y-57752857D02*
X132976000Y-57729047D01*
X132952190Y-57681428D01*
X132952190Y-57562380D01*
X132976000Y-57514761D01*
X132999809Y-57490952D01*
X133047428Y-57467142D01*
X133095047Y-57467142D01*
X133166476Y-57490952D01*
X133452190Y-57776666D01*
X133452190Y-57467142D01*
%TO.C,C10*%
D11*
X114816285Y-72117714D02*
X114816285Y-72784380D01*
X114578190Y-71736761D02*
X114340095Y-72451047D01*
X114959142Y-72451047D01*
X115340095Y-72689142D02*
X115387714Y-72736761D01*
X115340095Y-72784380D01*
X115292476Y-72736761D01*
X115340095Y-72689142D01*
X115340095Y-72784380D01*
X115721047Y-71784380D02*
X116387714Y-71784380D01*
X115959142Y-72784380D01*
X117197238Y-72117714D02*
X117197238Y-72784380D01*
X116768666Y-72117714D02*
X116768666Y-72641523D01*
X116816285Y-72736761D01*
X116911523Y-72784380D01*
X117054380Y-72784380D01*
X117149619Y-72736761D01*
X117197238Y-72689142D01*
X118006761Y-72260571D02*
X117673428Y-72260571D01*
X117673428Y-72784380D02*
X117673428Y-71784380D01*
X118149619Y-71784380D01*
X119006761Y-71784380D02*
X118530571Y-71784380D01*
X118482952Y-72260571D01*
X118530571Y-72212952D01*
X118625809Y-72165333D01*
X118863904Y-72165333D01*
X118959142Y-72212952D01*
X119006761Y-72260571D01*
X119054380Y-72355809D01*
X119054380Y-72593904D01*
X119006761Y-72689142D01*
X118959142Y-72736761D01*
X118863904Y-72784380D01*
X118625809Y-72784380D01*
X118530571Y-72736761D01*
X118482952Y-72689142D01*
X119673428Y-71784380D02*
X119768666Y-71784380D01*
X119863904Y-71832000D01*
X119911523Y-71879619D01*
X119959142Y-71974857D01*
X120006761Y-72165333D01*
X120006761Y-72403428D01*
X119959142Y-72593904D01*
X119911523Y-72689142D01*
X119863904Y-72736761D01*
X119768666Y-72784380D01*
X119673428Y-72784380D01*
X119578190Y-72736761D01*
X119530571Y-72689142D01*
X119482952Y-72593904D01*
X119435333Y-72403428D01*
X119435333Y-72165333D01*
X119482952Y-71974857D01*
X119530571Y-71879619D01*
X119578190Y-71832000D01*
X119673428Y-71784380D01*
X120292476Y-71784380D02*
X120625809Y-72784380D01*
X120959142Y-71784380D01*
D13*
X117280571Y-70830571D02*
X117256761Y-70854380D01*
X117185333Y-70878190D01*
X117137714Y-70878190D01*
X117066285Y-70854380D01*
X117018666Y-70806761D01*
X116994857Y-70759142D01*
X116971047Y-70663904D01*
X116971047Y-70592476D01*
X116994857Y-70497238D01*
X117018666Y-70449619D01*
X117066285Y-70402000D01*
X117137714Y-70378190D01*
X117185333Y-70378190D01*
X117256761Y-70402000D01*
X117280571Y-70425809D01*
X117756761Y-70878190D02*
X117471047Y-70878190D01*
X117613904Y-70878190D02*
X117613904Y-70378190D01*
X117566285Y-70449619D01*
X117518666Y-70497238D01*
X117471047Y-70521047D01*
X118066285Y-70378190D02*
X118113904Y-70378190D01*
X118161523Y-70402000D01*
X118185333Y-70425809D01*
X118209142Y-70473428D01*
X118232952Y-70568666D01*
X118232952Y-70687714D01*
X118209142Y-70782952D01*
X118185333Y-70830571D01*
X118161523Y-70854380D01*
X118113904Y-70878190D01*
X118066285Y-70878190D01*
X118018666Y-70854380D01*
X117994857Y-70830571D01*
X117971047Y-70782952D01*
X117947238Y-70687714D01*
X117947238Y-70568666D01*
X117971047Y-70473428D01*
X117994857Y-70425809D01*
X118018666Y-70402000D01*
X118066285Y-70378190D01*
%TO.C,C7*%
D11*
X121512380Y-58618666D02*
X121512380Y-59190095D01*
X121512380Y-58904380D02*
X120512380Y-58904380D01*
X120655238Y-58999619D01*
X120750476Y-59094857D01*
X120798095Y-59190095D01*
X120512380Y-57999619D02*
X120512380Y-57904380D01*
X120560000Y-57809142D01*
X120607619Y-57761523D01*
X120702857Y-57713904D01*
X120893333Y-57666285D01*
X121131428Y-57666285D01*
X121321904Y-57713904D01*
X121417142Y-57761523D01*
X121464761Y-57809142D01*
X121512380Y-57904380D01*
X121512380Y-57999619D01*
X121464761Y-58094857D01*
X121417142Y-58142476D01*
X121321904Y-58190095D01*
X121131428Y-58237714D01*
X120893333Y-58237714D01*
X120702857Y-58190095D01*
X120607619Y-58142476D01*
X120560000Y-58094857D01*
X120512380Y-57999619D01*
X120512380Y-56761523D02*
X120512380Y-57237714D01*
X120988571Y-57285333D01*
X120940952Y-57237714D01*
X120893333Y-57142476D01*
X120893333Y-56904380D01*
X120940952Y-56809142D01*
X120988571Y-56761523D01*
X121083809Y-56713904D01*
X121321904Y-56713904D01*
X121417142Y-56761523D01*
X121464761Y-56809142D01*
X121512380Y-56904380D01*
X121512380Y-57142476D01*
X121464761Y-57237714D01*
X121417142Y-57285333D01*
D13*
X119558571Y-58035333D02*
X119582380Y-58059142D01*
X119606190Y-58130571D01*
X119606190Y-58178190D01*
X119582380Y-58249619D01*
X119534761Y-58297238D01*
X119487142Y-58321047D01*
X119391904Y-58344857D01*
X119320476Y-58344857D01*
X119225238Y-58321047D01*
X119177619Y-58297238D01*
X119130000Y-58249619D01*
X119106190Y-58178190D01*
X119106190Y-58130571D01*
X119130000Y-58059142D01*
X119153809Y-58035333D01*
X119106190Y-57868666D02*
X119106190Y-57535333D01*
X119606190Y-57749619D01*
%TO.C,C8*%
D11*
X137768380Y-58618666D02*
X137768380Y-59190095D01*
X137768380Y-58904380D02*
X136768380Y-58904380D01*
X136911238Y-58999619D01*
X137006476Y-59094857D01*
X137054095Y-59190095D01*
X136768380Y-57999619D02*
X136768380Y-57904380D01*
X136816000Y-57809142D01*
X136863619Y-57761523D01*
X136958857Y-57713904D01*
X137149333Y-57666285D01*
X137387428Y-57666285D01*
X137577904Y-57713904D01*
X137673142Y-57761523D01*
X137720761Y-57809142D01*
X137768380Y-57904380D01*
X137768380Y-57999619D01*
X137720761Y-58094857D01*
X137673142Y-58142476D01*
X137577904Y-58190095D01*
X137387428Y-58237714D01*
X137149333Y-58237714D01*
X136958857Y-58190095D01*
X136863619Y-58142476D01*
X136816000Y-58094857D01*
X136768380Y-57999619D01*
X137101714Y-56809142D02*
X137768380Y-56809142D01*
X136720761Y-57047238D02*
X137435047Y-57285333D01*
X137435047Y-56666285D01*
D13*
X135814571Y-58035333D02*
X135838380Y-58059142D01*
X135862190Y-58130571D01*
X135862190Y-58178190D01*
X135838380Y-58249619D01*
X135790761Y-58297238D01*
X135743142Y-58321047D01*
X135647904Y-58344857D01*
X135576476Y-58344857D01*
X135481238Y-58321047D01*
X135433619Y-58297238D01*
X135386000Y-58249619D01*
X135362190Y-58178190D01*
X135362190Y-58130571D01*
X135386000Y-58059142D01*
X135409809Y-58035333D01*
X135576476Y-57749619D02*
X135552666Y-57797238D01*
X135528857Y-57821047D01*
X135481238Y-57844857D01*
X135457428Y-57844857D01*
X135409809Y-57821047D01*
X135386000Y-57797238D01*
X135362190Y-57749619D01*
X135362190Y-57654380D01*
X135386000Y-57606761D01*
X135409809Y-57582952D01*
X135457428Y-57559142D01*
X135481238Y-57559142D01*
X135528857Y-57582952D01*
X135552666Y-57606761D01*
X135576476Y-57654380D01*
X135576476Y-57749619D01*
X135600285Y-57797238D01*
X135624095Y-57821047D01*
X135671714Y-57844857D01*
X135766952Y-57844857D01*
X135814571Y-57821047D01*
X135838380Y-57797238D01*
X135862190Y-57749619D01*
X135862190Y-57654380D01*
X135838380Y-57606761D01*
X135814571Y-57582952D01*
X135766952Y-57559142D01*
X135671714Y-57559142D01*
X135624095Y-57582952D01*
X135600285Y-57606761D01*
X135576476Y-57654380D01*
%TO.C,C11*%
D11*
X126846380Y-53284666D02*
X126846380Y-53856095D01*
X126846380Y-53570380D02*
X125846380Y-53570380D01*
X125989238Y-53665619D01*
X126084476Y-53760857D01*
X126132095Y-53856095D01*
X125846380Y-52665619D02*
X125846380Y-52570380D01*
X125894000Y-52475142D01*
X125941619Y-52427523D01*
X126036857Y-52379904D01*
X126227333Y-52332285D01*
X126465428Y-52332285D01*
X126655904Y-52379904D01*
X126751142Y-52427523D01*
X126798761Y-52475142D01*
X126846380Y-52570380D01*
X126846380Y-52665619D01*
X126798761Y-52760857D01*
X126751142Y-52808476D01*
X126655904Y-52856095D01*
X126465428Y-52903714D01*
X126227333Y-52903714D01*
X126036857Y-52856095D01*
X125941619Y-52808476D01*
X125894000Y-52760857D01*
X125846380Y-52665619D01*
X125846380Y-51427523D02*
X125846380Y-51903714D01*
X126322571Y-51951333D01*
X126274952Y-51903714D01*
X126227333Y-51808476D01*
X126227333Y-51570380D01*
X126274952Y-51475142D01*
X126322571Y-51427523D01*
X126417809Y-51379904D01*
X126655904Y-51379904D01*
X126751142Y-51427523D01*
X126798761Y-51475142D01*
X126846380Y-51570380D01*
X126846380Y-51808476D01*
X126798761Y-51903714D01*
X126751142Y-51951333D01*
D13*
X124892571Y-52939428D02*
X124916380Y-52963238D01*
X124940190Y-53034666D01*
X124940190Y-53082285D01*
X124916380Y-53153714D01*
X124868761Y-53201333D01*
X124821142Y-53225142D01*
X124725904Y-53248952D01*
X124654476Y-53248952D01*
X124559238Y-53225142D01*
X124511619Y-53201333D01*
X124464000Y-53153714D01*
X124440190Y-53082285D01*
X124440190Y-53034666D01*
X124464000Y-52963238D01*
X124487809Y-52939428D01*
X124940190Y-52463238D02*
X124940190Y-52748952D01*
X124940190Y-52606095D02*
X124440190Y-52606095D01*
X124511619Y-52653714D01*
X124559238Y-52701333D01*
X124583047Y-52748952D01*
X124940190Y-51987047D02*
X124940190Y-52272761D01*
X124940190Y-52129904D02*
X124440190Y-52129904D01*
X124511619Y-52177523D01*
X124559238Y-52225142D01*
X124583047Y-52272761D01*
%TO.C,C5*%
D11*
X130402380Y-53538666D02*
X130402380Y-54110095D01*
X130402380Y-53824380D02*
X129402380Y-53824380D01*
X129545238Y-53919619D01*
X129640476Y-54014857D01*
X129688095Y-54110095D01*
X129402380Y-52919619D02*
X129402380Y-52824380D01*
X129450000Y-52729142D01*
X129497619Y-52681523D01*
X129592857Y-52633904D01*
X129783333Y-52586285D01*
X130021428Y-52586285D01*
X130211904Y-52633904D01*
X130307142Y-52681523D01*
X130354761Y-52729142D01*
X130402380Y-52824380D01*
X130402380Y-52919619D01*
X130354761Y-53014857D01*
X130307142Y-53062476D01*
X130211904Y-53110095D01*
X130021428Y-53157714D01*
X129783333Y-53157714D01*
X129592857Y-53110095D01*
X129497619Y-53062476D01*
X129450000Y-53014857D01*
X129402380Y-52919619D01*
X129402380Y-51681523D02*
X129402380Y-52157714D01*
X129878571Y-52205333D01*
X129830952Y-52157714D01*
X129783333Y-52062476D01*
X129783333Y-51824380D01*
X129830952Y-51729142D01*
X129878571Y-51681523D01*
X129973809Y-51633904D01*
X130211904Y-51633904D01*
X130307142Y-51681523D01*
X130354761Y-51729142D01*
X130402380Y-51824380D01*
X130402380Y-52062476D01*
X130354761Y-52157714D01*
X130307142Y-52205333D01*
D13*
X128448571Y-52955333D02*
X128472380Y-52979142D01*
X128496190Y-53050571D01*
X128496190Y-53098190D01*
X128472380Y-53169619D01*
X128424761Y-53217238D01*
X128377142Y-53241047D01*
X128281904Y-53264857D01*
X128210476Y-53264857D01*
X128115238Y-53241047D01*
X128067619Y-53217238D01*
X128020000Y-53169619D01*
X127996190Y-53098190D01*
X127996190Y-53050571D01*
X128020000Y-52979142D01*
X128043809Y-52955333D01*
X127996190Y-52502952D02*
X127996190Y-52741047D01*
X128234285Y-52764857D01*
X128210476Y-52741047D01*
X128186666Y-52693428D01*
X128186666Y-52574380D01*
X128210476Y-52526761D01*
X128234285Y-52502952D01*
X128281904Y-52479142D01*
X128400952Y-52479142D01*
X128448571Y-52502952D01*
X128472380Y-52526761D01*
X128496190Y-52574380D01*
X128496190Y-52693428D01*
X128472380Y-52741047D01*
X128448571Y-52764857D01*
%TO.C,C3*%
D11*
X133704380Y-53538666D02*
X133704380Y-54110095D01*
X133704380Y-53824380D02*
X132704380Y-53824380D01*
X132847238Y-53919619D01*
X132942476Y-54014857D01*
X132990095Y-54110095D01*
X132704380Y-52919619D02*
X132704380Y-52824380D01*
X132752000Y-52729142D01*
X132799619Y-52681523D01*
X132894857Y-52633904D01*
X133085333Y-52586285D01*
X133323428Y-52586285D01*
X133513904Y-52633904D01*
X133609142Y-52681523D01*
X133656761Y-52729142D01*
X133704380Y-52824380D01*
X133704380Y-52919619D01*
X133656761Y-53014857D01*
X133609142Y-53062476D01*
X133513904Y-53110095D01*
X133323428Y-53157714D01*
X133085333Y-53157714D01*
X132894857Y-53110095D01*
X132799619Y-53062476D01*
X132752000Y-53014857D01*
X132704380Y-52919619D01*
X132704380Y-51681523D02*
X132704380Y-52157714D01*
X133180571Y-52205333D01*
X133132952Y-52157714D01*
X133085333Y-52062476D01*
X133085333Y-51824380D01*
X133132952Y-51729142D01*
X133180571Y-51681523D01*
X133275809Y-51633904D01*
X133513904Y-51633904D01*
X133609142Y-51681523D01*
X133656761Y-51729142D01*
X133704380Y-51824380D01*
X133704380Y-52062476D01*
X133656761Y-52157714D01*
X133609142Y-52205333D01*
D13*
X131750571Y-52955333D02*
X131774380Y-52979142D01*
X131798190Y-53050571D01*
X131798190Y-53098190D01*
X131774380Y-53169619D01*
X131726761Y-53217238D01*
X131679142Y-53241047D01*
X131583904Y-53264857D01*
X131512476Y-53264857D01*
X131417238Y-53241047D01*
X131369619Y-53217238D01*
X131322000Y-53169619D01*
X131298190Y-53098190D01*
X131298190Y-53050571D01*
X131322000Y-52979142D01*
X131345809Y-52955333D01*
X131298190Y-52788666D02*
X131298190Y-52479142D01*
X131488666Y-52645809D01*
X131488666Y-52574380D01*
X131512476Y-52526761D01*
X131536285Y-52502952D01*
X131583904Y-52479142D01*
X131702952Y-52479142D01*
X131750571Y-52502952D01*
X131774380Y-52526761D01*
X131798190Y-52574380D01*
X131798190Y-52717238D01*
X131774380Y-52764857D01*
X131750571Y-52788666D01*
%TO.C,C1*%
D11*
X137006380Y-53538666D02*
X137006380Y-54110095D01*
X137006380Y-53824380D02*
X136006380Y-53824380D01*
X136149238Y-53919619D01*
X136244476Y-54014857D01*
X136292095Y-54110095D01*
X136006380Y-52919619D02*
X136006380Y-52824380D01*
X136054000Y-52729142D01*
X136101619Y-52681523D01*
X136196857Y-52633904D01*
X136387333Y-52586285D01*
X136625428Y-52586285D01*
X136815904Y-52633904D01*
X136911142Y-52681523D01*
X136958761Y-52729142D01*
X137006380Y-52824380D01*
X137006380Y-52919619D01*
X136958761Y-53014857D01*
X136911142Y-53062476D01*
X136815904Y-53110095D01*
X136625428Y-53157714D01*
X136387333Y-53157714D01*
X136196857Y-53110095D01*
X136101619Y-53062476D01*
X136054000Y-53014857D01*
X136006380Y-52919619D01*
X136006380Y-51681523D02*
X136006380Y-52157714D01*
X136482571Y-52205333D01*
X136434952Y-52157714D01*
X136387333Y-52062476D01*
X136387333Y-51824380D01*
X136434952Y-51729142D01*
X136482571Y-51681523D01*
X136577809Y-51633904D01*
X136815904Y-51633904D01*
X136911142Y-51681523D01*
X136958761Y-51729142D01*
X137006380Y-51824380D01*
X137006380Y-52062476D01*
X136958761Y-52157714D01*
X136911142Y-52205333D01*
D13*
X135052571Y-52955333D02*
X135076380Y-52979142D01*
X135100190Y-53050571D01*
X135100190Y-53098190D01*
X135076380Y-53169619D01*
X135028761Y-53217238D01*
X134981142Y-53241047D01*
X134885904Y-53264857D01*
X134814476Y-53264857D01*
X134719238Y-53241047D01*
X134671619Y-53217238D01*
X134624000Y-53169619D01*
X134600190Y-53098190D01*
X134600190Y-53050571D01*
X134624000Y-52979142D01*
X134647809Y-52955333D01*
X135100190Y-52479142D02*
X135100190Y-52764857D01*
X135100190Y-52622000D02*
X134600190Y-52622000D01*
X134671619Y-52669619D01*
X134719238Y-52717238D01*
X134743047Y-52764857D01*
%TD*%
M02*
